#N canvas -1505 311 707 550 10;
#N canvas 0 22 1024 720 soundsources 0;
#X obj 108 203 outlet~;
#X obj 111 146 hsl 60 13 0 1 0 0 \$0-a \$0-ra gain -2 -7 0 10 -204800
-1 -355 3569 1;
#X obj 192 236 outlet~;
#X obj 195 148 hsl 60 13 0 1 0 0 \$0-a \$0-ra strength -2 -7 0 10 -204786
-1 -355 103 1;
#X obj 195 174 hsl 60 13 0 1 0 0 \$0-b \$0-rb gain -2 -7 0 10 -204786
-1 -355 3635 1;
#X text 192 116 WIND;
#X text 107 117 RAIN;
#N canvas 204 22 712 637 Rain 0;
#X obj 379 577 outlet~;
#X obj 380 550 *~ 1;
#N canvas 0 22 466 316 rh_scalelog 0;
#X obj 20 155 exp;
#X obj 20 107 *;
#X obj 20 130 +;
#X obj 98 87 log;
#X obj 194 84 log;
#X obj 123 123 t b f;
#X obj 123 145 -;
#X obj 20 183 outlet;
#X obj 20 19 inlet;
#X obj 98 23 inlet;
#X obj 194 24 inlet;
#X connect 0 0 7 0;
#X connect 1 0 2 0;
#X connect 2 0 0 0;
#X connect 3 0 2 1;
#X connect 3 0 5 0;
#X connect 4 0 6 0;
#X connect 5 0 6 0;
#X connect 5 1 6 1;
#X connect 6 0 1 1;
#X connect 8 0 1 0;
#X connect 9 0 3 0;
#X connect 10 0 4 0;
#X restore 403 513 pd rh_scalelog;
#X msg 450 489 0.1;
#X msg 496 489 10;
#N canvas 0 22 693 627 rain 0;
#X obj 226 263 osc~;
#X obj 237 59 noise~;
#X obj 226 337 *~;
#X obj 193 234 +~ 2000;
#X obj 264 262 *~;
#X obj 264 287 *~;
#X obj 226 441 *~ 0.01;
#X obj 227 463 lop~ 10000;
#X obj 238 155 bp~ 2.064 0.002;
#X obj 265 312 *~;
#X obj 225 371 *~ 0.3;
#X obj 239 178 *~ 3.2;
#X obj 226 396 hip~ 500;
#X obj 227 419 hip~ 500;
#X obj 192 210 *~ 3000;
#X obj 226 486 *~ 0.02;
#X obj 112 263 osc~;
#X obj 123 59 noise~;
#X obj 112 337 *~;
#X obj 150 262 *~;
#X obj 150 287 *~;
#X obj 112 441 *~ 0.01;
#X obj 113 463 lop~ 10000;
#X obj 124 155 bp~ 2.064 0.002;
#X obj 151 312 *~;
#X obj 111 371 *~ 0.3;
#X obj 125 178 *~ 3.2;
#X obj 112 396 hip~ 500;
#X obj 113 419 hip~ 500;
#X obj 340 262 osc~;
#X obj 351 58 noise~;
#X obj 340 336 *~;
#X obj 307 233 +~ 2000;
#X obj 378 261 *~;
#X obj 378 286 *~;
#X obj 340 440 *~ 0.01;
#X obj 341 462 lop~ 10000;
#X obj 352 154 bp~ 2.064 0.002;
#X obj 379 311 *~;
#X obj 339 370 *~ 0.3;
#X obj 340 395 hip~ 500;
#X obj 341 418 hip~ 500;
#X obj 78 210 *~ 344;
#X obj 79 234 +~ 3000;
#X obj 112 486 *~ 0.01;
#X obj 306 209 *~ 5000;
#X obj 353 177 *~ 3.8;
#X obj 340 485 *~ 0.01;
#X obj 427 201 *~;
#X obj 135 92 lop~ 16;
#X obj 427 492 *~ 1;
#X obj 499 195 /~;
#X obj 498 302 clip~ 0 0.9;
#X obj 427 287 bp~ 333 4;
#X obj 232 534 lop~ 12000;
#X obj 428 335 *~ 0.4;
#X obj 9 335 *~ 0.007;
#X obj 251 85 lop~ 0.01;
#X obj 498 220 hip~ 10000;
#X obj 429 87 lop~ 1900;
#X obj 499 281 *~;
#X obj 500 256 *~ 0.03;
#X text 472 26 Rain generator;
#X obj 537 345 +~ 1000;
#X obj 136 118 *~ 300000;
#X obj 536 381 clip~ 1000 10000;
#X obj 495 440 *~ 0.7;
#X text 25 377 ambience;
#X text 433 364 rumble;
#X text 494 465 drips;
#X text 143 349 droplets;
#X text 266 349 droplets;
#X text 447 47 with ambience gen highlighted;
#X obj 237 620 outlet~;
#X obj 498 413 vcf~ 3333 20;
#X obj 258 565 *~ 0.1;
#X connect 0 0 2 0;
#X connect 1 0 8 0;
#X connect 1 0 57 0;
#X connect 2 0 10 0;
#X connect 3 0 0 0;
#X connect 4 0 5 0;
#X connect 4 0 5 1;
#X connect 5 0 9 0;
#X connect 5 0 9 1;
#X connect 6 0 7 0;
#X connect 7 0 15 0;
#X connect 8 0 11 0;
#X connect 9 0 2 1;
#X connect 10 0 12 0;
#X connect 11 0 4 0;
#X connect 11 0 4 1;
#X connect 11 0 14 0;
#X connect 12 0 13 0;
#X connect 13 0 6 0;
#X connect 14 0 3 0;
#X connect 15 0 54 0;
#X connect 16 0 18 0;
#X connect 17 0 23 0;
#X connect 17 0 49 0;
#X connect 17 0 56 0;
#X connect 18 0 25 0;
#X connect 19 0 20 0;
#X connect 19 0 20 1;
#X connect 20 0 24 0;
#X connect 20 0 24 1;
#X connect 21 0 22 0;
#X connect 22 0 44 0;
#X connect 23 0 26 0;
#X connect 24 0 18 1;
#X connect 25 0 27 0;
#X connect 26 0 19 0;
#X connect 26 0 19 1;
#X connect 26 0 42 0;
#X connect 27 0 28 0;
#X connect 28 0 21 0;
#X connect 29 0 31 0;
#X connect 30 0 37 0;
#X connect 30 0 48 1;
#X connect 30 0 59 0;
#X connect 31 0 39 0;
#X connect 32 0 29 0;
#X connect 33 0 34 0;
#X connect 33 0 34 1;
#X connect 34 0 38 0;
#X connect 34 0 38 1;
#X connect 35 0 36 0;
#X connect 36 0 47 0;
#X connect 37 0 46 0;
#X connect 38 0 31 1;
#X connect 39 0 40 0;
#X connect 40 0 41 0;
#X connect 41 0 35 0;
#X connect 42 0 43 0;
#X connect 43 0 16 0;
#X connect 44 0 54 0;
#X connect 45 0 32 0;
#X connect 46 0 33 0;
#X connect 46 0 33 1;
#X connect 46 0 45 0;
#X connect 47 0 54 0;
#X connect 48 0 53 0;
#X connect 49 0 48 0;
#X connect 49 0 64 0;
#X connect 50 0 54 0;
#X connect 51 0 58 0;
#X connect 52 0 74 0;
#X connect 53 0 55 0;
#X connect 54 0 75 0;
#X connect 55 0 50 0;
#X connect 56 0 54 0;
#X connect 57 0 51 0;
#X connect 58 0 61 0;
#X connect 59 0 51 1;
#X connect 60 0 52 0;
#X connect 61 0 60 0;
#X connect 61 0 60 1;
#X connect 63 0 65 0;
#X connect 64 0 63 0;
#X connect 65 0 74 1;
#X connect 66 0 54 0;
#X connect 74 0 66 0;
#X connect 75 0 73 0;
#X restore 122 181 pd rain;
#X obj 403 428 inlet;
#X obj 450 461 loadbang;
#X connect 1 0 0 0;
#X connect 2 0 1 1;
#X connect 3 0 2 1;
#X connect 4 0 2 2;
#X connect 5 0 1 0;
#X connect 6 0 2 0;
#X connect 7 0 3 0;
#X connect 7 0 4 0;
#X restore 108 169 pd Rain;
#N canvas 204 22 716 641 wind 0;
#X obj 379 577 outlet~;
#X obj 380 550 *~ 1;
#N canvas 0 22 466 316 rh_scalelog 0;
#X obj 20 155 exp;
#X obj 20 107 *;
#X obj 20 130 +;
#X obj 98 87 log;
#X obj 194 84 log;
#X obj 123 123 t b f;
#X obj 123 145 -;
#X obj 20 183 outlet;
#X obj 20 19 inlet;
#X obj 98 23 inlet;
#X obj 194 24 inlet;
#X connect 0 0 7 0;
#X connect 1 0 2 0;
#X connect 2 0 0 0;
#X connect 3 0 2 1;
#X connect 3 0 5 0;
#X connect 4 0 6 0;
#X connect 5 0 6 0;
#X connect 5 1 6 1;
#X connect 6 0 1 1;
#X connect 8 0 1 0;
#X connect 9 0 3 0;
#X connect 10 0 4 0;
#X restore 403 513 pd rh_scalelog;
#X msg 450 489 0.1;
#X msg 496 489 10;
#N canvas 0 22 705 639 wind 0;
#X obj 62 313 vcf~ 600 23;
#X obj 161 314 vcf~ 600 23;
#X obj 62 377 *~;
#X obj 26 189 lop~ 1;
#X obj 97 175 lop~ 0.1;
#X obj 198 174 lop~ 0.19;
#X obj 98 281 +~;
#X obj 197 12 osc~ 0.03;
#X obj 198 284 +~;
#X obj 244 37 +~;
#X obj 270 11 osc~ 0.3;
#X obj 83 405 bp~ 1000 7;
#X obj 63 473 outlet~;
#X msg 233 290 20;
#X obj 23 215 *~;
#X text 339 1 control;
#X obj 97 98 *~;
#X obj 97 57 noise~;
#X obj 61 346 *~ 0.15;
#X msg 134 291 14;
#X obj 244 83 *~ 300;
#X obj 197 227 *~ 180000;
#X obj 98 198 *~ 100000;
#X obj 245 59 *~ 0.25;
#X obj 23 241 *~ 1000;
#X obj 23 269 +~ 0.65;
#X obj 243 105 +~ 100;
#X obj 197 252 clip~ 300 1000;
#X obj 98 222 clip~ 250 1000;
#X obj 59 433 *~ 44;
#X obj 340 16 inlet~;
#X obj 256 310 r \$0-loadbang;
#X connect 0 0 18 0;
#X connect 1 0 18 0;
#X connect 2 0 11 0;
#X connect 3 0 14 0;
#X connect 3 0 14 1;
#X connect 4 0 22 0;
#X connect 5 0 21 0;
#X connect 6 0 0 1;
#X connect 7 0 9 0;
#X connect 8 0 1 1;
#X connect 9 0 23 0;
#X connect 10 0 9 1;
#X connect 11 0 29 0;
#X connect 13 0 1 2;
#X connect 14 0 24 0;
#X connect 16 0 0 0;
#X connect 16 0 1 0;
#X connect 16 0 3 0;
#X connect 16 0 4 0;
#X connect 16 0 5 0;
#X connect 17 0 16 0;
#X connect 18 0 2 0;
#X connect 19 0 0 2;
#X connect 20 0 26 0;
#X connect 21 0 27 0;
#X connect 22 0 28 0;
#X connect 23 0 20 0;
#X connect 24 0 25 0;
#X connect 25 0 2 1;
#X connect 26 0 6 1;
#X connect 26 0 8 1;
#X connect 27 0 8 0;
#X connect 28 0 6 0;
#X connect 29 0 12 0;
#X connect 30 0 16 1;
#X connect 31 0 13 0;
#X connect 31 0 19 0;
#X restore 122 181 pd wind;
#X obj 121 139 inlet;
#X obj 403 431 inlet;
#X obj 450 461 loadbang;
#X connect 1 0 0 0;
#X connect 2 0 1 1;
#X connect 3 0 2 1;
#X connect 4 0 2 2;
#X connect 5 0 1 0;
#X connect 6 0 5 0;
#X connect 7 0 2 0;
#X connect 8 0 3 0;
#X connect 8 0 4 0;
#X restore 192 203 pd wind;
#N canvas 0 22 488 273 fire 0;
#X obj 292 32 hip~ 1000;
#X obj 97 32 bp~ 1200 0.6;
#X obj 190 32 bp~ 2600 0.4;
#X obj 10 32 bp~ 600 0.2;
#N canvas 27 401 450 300 firegen 0;
#N canvas 0 22 242 473 crackles 0;
#X obj 64 394 *~;
#X obj 77 104 env~;
#X obj 77 80 lop~ 1;
#X msg 128 170 bang;
#X obj 77 127 moses 50;
#X obj 128 148 moses 51;
#X obj 128 193 random 30;
#X obj 128 237 line~;
#X msg 128 216 1 \, 0 \$1;
#X obj 128 265 *~;
#X obj 96 325 + 1500;
#X obj 64 349 bp~ 4000 1;
#X obj 95 303 * 500;
#X obj 64 419 outlet~;
#X obj 63 52 inlet~;
#X connect 0 0 13 0;
#X connect 1 0 4 0;
#X connect 2 0 1 0;
#X connect 3 0 6 0;
#X connect 4 1 5 0;
#X connect 5 0 3 0;
#X connect 6 0 8 0;
#X connect 6 0 12 0;
#X connect 7 0 9 0;
#X connect 7 0 9 1;
#X connect 8 0 7 0;
#X connect 9 0 0 1;
#X connect 10 0 11 1;
#X connect 11 0 0 0;
#X connect 12 0 10 0;
#X connect 14 0 2 0;
#X connect 14 0 11 0;
#X restore 57 96 pd crackles;
#N canvas 0 22 450 300 hissing 0;
#X obj 106 188 *~;
#X obj 141 57 lop~ 1;
#X obj 142 107 *~;
#X obj 66 58 hip~ 1000;
#X obj 141 133 *~;
#X obj 142 80 *~ 10;
#X obj 141 157 *~ 600;
#X obj 105 222 outlet~;
#X obj 111 27 inlet~;
#X connect 0 0 7 0;
#X connect 1 0 5 0;
#X connect 2 0 4 0;
#X connect 2 0 4 1;
#X connect 3 0 0 0;
#X connect 4 0 6 0;
#X connect 5 0 2 0;
#X connect 5 0 2 1;
#X connect 6 0 0 1;
#X connect 8 0 1 0;
#X connect 8 0 3 0;
#X restore 149 96 pd hissing;
#N canvas 0 22 170 271 lapping 0;
#X obj 21 109 clip~ -0.9 0.9;
#X obj 21 129 hip~ 25;
#X obj 21 86 hip~ 25;
#X obj 21 40 bp~ 30 5;
#X obj 21 65 *~ 100;
#X obj 21 153 *~ 0.6;
#X obj 20 177 outlet~;
#X obj 21 12 inlet~;
#X connect 0 0 1 0;
#X connect 1 0 5 0;
#X connect 2 0 0 0;
#X connect 3 0 4 0;
#X connect 4 0 2 0;
#X connect 5 0 6 0;
#X connect 7 0 3 0;
#X restore 246 97 pd lapping;
#X obj 148 61 noise~;
#X text 203 60 factor common noise;
#X text 305 129 mix levels;
#X obj 151 154 outlet~;
#X obj 57 123 *~ 0.2;
#X obj 246 123 *~ 0.6;
#X obj 150 122 *~ 0.3;
#X text 144 30 fire generator;
#X connect 0 0 7 0;
#X connect 1 0 9 0;
#X connect 2 0 8 0;
#X connect 3 0 0 0;
#X connect 3 0 1 0;
#X connect 3 0 2 0;
#X connect 7 0 6 0;
#X connect 8 0 6 0;
#X connect 9 0 6 0;
#X restore 97 7 pd firegen;
#N canvas 27 401 424 180 firegen 0;
#N canvas 0 22 242 473 crackles 0;
#X obj 64 394 *~;
#X obj 77 104 env~;
#X obj 77 80 lop~ 1;
#X msg 128 170 bang;
#X obj 77 127 moses 50;
#X obj 128 148 moses 51;
#X obj 128 193 random 30;
#X obj 128 237 line~;
#X msg 128 216 1 \, 0 \$1;
#X obj 128 265 *~;
#X obj 96 325 + 1500;
#X obj 64 349 bp~ 4000 1;
#X obj 95 303 * 500;
#X obj 64 419 outlet~;
#X obj 63 52 inlet~;
#X connect 0 0 13 0;
#X connect 1 0 4 0;
#X connect 2 0 1 0;
#X connect 3 0 6 0;
#X connect 4 1 5 0;
#X connect 5 0 3 0;
#X connect 6 0 8 0;
#X connect 6 0 12 0;
#X connect 7 0 9 0;
#X connect 7 0 9 1;
#X connect 8 0 7 0;
#X connect 9 0 0 1;
#X connect 10 0 11 1;
#X connect 11 0 0 0;
#X connect 12 0 10 0;
#X connect 14 0 2 0;
#X connect 14 0 11 0;
#X restore 60 77 pd crackles;
#N canvas 0 22 450 300 hissing 0;
#X obj 106 188 *~;
#X obj 141 57 lop~ 1;
#X obj 142 107 *~;
#X obj 66 58 hip~ 1000;
#X obj 141 133 *~;
#X obj 142 80 *~ 10;
#X obj 141 157 *~ 600;
#X obj 105 222 outlet~;
#X obj 111 27 inlet~;
#X connect 0 0 7 0;
#X connect 1 0 5 0;
#X connect 2 0 4 0;
#X connect 2 0 4 1;
#X connect 3 0 0 0;
#X connect 4 0 6 0;
#X connect 5 0 2 0;
#X connect 5 0 2 1;
#X connect 6 0 0 1;
#X connect 8 0 1 0;
#X connect 8 0 3 0;
#X restore 152 77 pd hissing;
#N canvas 0 22 170 271 lapping 0;
#X obj 21 109 clip~ -0.9 0.9;
#X obj 21 129 hip~ 25;
#X obj 21 86 hip~ 25;
#X obj 21 40 bp~ 30 5;
#X obj 21 65 *~ 100;
#X obj 21 153 *~ 0.6;
#X obj 20 177 outlet~;
#X obj 21 12 inlet~;
#X connect 0 0 1 0;
#X connect 1 0 5 0;
#X connect 2 0 0 0;
#X connect 3 0 4 0;
#X connect 4 0 2 0;
#X connect 5 0 6 0;
#X connect 7 0 3 0;
#X restore 249 78 pd lapping;
#X obj 151 42 noise~;
#X text 206 41 factor common noise;
#X text 308 110 mix levels;
#X obj 154 135 outlet~;
#X obj 60 104 *~ 0.2;
#X obj 249 104 *~ 0.6;
#X obj 153 103 *~ 0.3;
#X text 147 11 fire generator;
#X connect 0 0 7 0;
#X connect 1 0 9 0;
#X connect 2 0 8 0;
#X connect 3 0 0 0;
#X connect 3 0 1 0;
#X connect 3 0 2 0;
#X connect 7 0 6 0;
#X connect 8 0 6 0;
#X connect 9 0 6 0;
#X restore 190 7 pd firegen;
#N canvas 27 401 450 300 firegen 0;
#N canvas 0 22 242 473 crackles 0;
#X obj 64 394 *~;
#X obj 77 104 env~;
#X obj 77 80 lop~ 1;
#X msg 128 170 bang;
#X obj 77 127 moses 50;
#X obj 128 148 moses 51;
#X obj 128 193 random 30;
#X obj 128 237 line~;
#X msg 128 216 1 \, 0 \$1;
#X obj 128 265 *~;
#X obj 96 325 + 1500;
#X obj 64 349 bp~ 4000 1;
#X obj 95 303 * 500;
#X obj 64 419 outlet~;
#X obj 63 52 inlet~;
#X connect 0 0 13 0;
#X connect 1 0 4 0;
#X connect 2 0 1 0;
#X connect 3 0 6 0;
#X connect 4 1 5 0;
#X connect 5 0 3 0;
#X connect 6 0 8 0;
#X connect 6 0 12 0;
#X connect 7 0 9 0;
#X connect 7 0 9 1;
#X connect 8 0 7 0;
#X connect 9 0 0 1;
#X connect 10 0 11 1;
#X connect 11 0 0 0;
#X connect 12 0 10 0;
#X connect 14 0 2 0;
#X connect 14 0 11 0;
#X restore 57 96 pd crackles;
#N canvas 0 22 450 300 hissing 0;
#X obj 106 188 *~;
#X obj 141 57 lop~ 1;
#X obj 142 107 *~;
#X obj 66 58 hip~ 1000;
#X obj 141 133 *~;
#X obj 142 80 *~ 10;
#X obj 141 157 *~ 600;
#X obj 105 222 outlet~;
#X obj 111 27 inlet~;
#X connect 0 0 7 0;
#X connect 1 0 5 0;
#X connect 2 0 4 0;
#X connect 2 0 4 1;
#X connect 3 0 0 0;
#X connect 4 0 6 0;
#X connect 5 0 2 0;
#X connect 5 0 2 1;
#X connect 6 0 0 1;
#X connect 8 0 1 0;
#X connect 8 0 3 0;
#X restore 149 96 pd hissing;
#N canvas 0 22 170 271 lapping 0;
#X obj 21 109 clip~ -0.9 0.9;
#X obj 21 129 hip~ 25;
#X obj 21 86 hip~ 25;
#X obj 21 40 bp~ 30 5;
#X obj 21 65 *~ 100;
#X obj 21 153 *~ 0.6;
#X obj 20 177 outlet~;
#X obj 21 12 inlet~;
#X connect 0 0 1 0;
#X connect 1 0 5 0;
#X connect 2 0 0 0;
#X connect 3 0 4 0;
#X connect 4 0 2 0;
#X connect 5 0 6 0;
#X connect 7 0 3 0;
#X restore 246 97 pd lapping;
#X obj 148 61 noise~;
#X text 203 60 factor common noise;
#X text 305 129 mix levels;
#X obj 151 154 outlet~;
#X obj 57 123 *~ 0.2;
#X obj 246 123 *~ 0.6;
#X obj 150 122 *~ 0.3;
#X text 144 30 fire generator;
#X connect 0 0 7 0;
#X connect 1 0 9 0;
#X connect 2 0 8 0;
#X connect 3 0 0 0;
#X connect 3 0 1 0;
#X connect 3 0 2 0;
#X connect 7 0 6 0;
#X connect 8 0 6 0;
#X connect 9 0 6 0;
#X restore 292 7 pd firegen;
#N canvas 27 401 450 300 firegen 0;
#N canvas 0 22 242 473 crackles 0;
#X obj 64 394 *~;
#X obj 77 104 env~;
#X obj 77 80 lop~ 1;
#X msg 128 170 bang;
#X obj 77 127 moses 50;
#X obj 128 148 moses 51;
#X obj 128 193 random 30;
#X obj 128 237 line~;
#X msg 128 216 1 \, 0 \$1;
#X obj 128 265 *~;
#X obj 96 325 + 1500;
#X obj 64 349 bp~ 4000 1;
#X obj 95 303 * 500;
#X obj 64 419 outlet~;
#X obj 63 52 inlet~;
#X connect 0 0 13 0;
#X connect 1 0 4 0;
#X connect 2 0 1 0;
#X connect 3 0 6 0;
#X connect 4 1 5 0;
#X connect 5 0 3 0;
#X connect 6 0 8 0;
#X connect 6 0 12 0;
#X connect 7 0 9 0;
#X connect 7 0 9 1;
#X connect 8 0 7 0;
#X connect 9 0 0 1;
#X connect 10 0 11 1;
#X connect 11 0 0 0;
#X connect 12 0 10 0;
#X connect 14 0 2 0;
#X connect 14 0 11 0;
#X restore 57 96 pd crackles;
#N canvas 0 22 450 300 hissing 0;
#X obj 106 188 *~;
#X obj 141 57 lop~ 1;
#X obj 142 107 *~;
#X obj 66 58 hip~ 1000;
#X obj 141 133 *~;
#X obj 142 80 *~ 10;
#X obj 141 157 *~ 600;
#X obj 105 222 outlet~;
#X obj 111 27 inlet~;
#X connect 0 0 7 0;
#X connect 1 0 5 0;
#X connect 2 0 4 0;
#X connect 2 0 4 1;
#X connect 3 0 0 0;
#X connect 4 0 6 0;
#X connect 5 0 2 0;
#X connect 5 0 2 1;
#X connect 6 0 0 1;
#X connect 8 0 1 0;
#X connect 8 0 3 0;
#X restore 149 96 pd hissing;
#N canvas 0 22 170 271 lapping 0;
#X obj 21 109 clip~ -0.9 0.9;
#X obj 21 129 hip~ 25;
#X obj 21 86 hip~ 25;
#X obj 21 40 bp~ 30 5;
#X obj 21 65 *~ 100;
#X obj 21 153 *~ 0.6;
#X obj 20 177 outlet~;
#X obj 21 12 inlet~;
#X connect 0 0 1 0;
#X connect 1 0 5 0;
#X connect 2 0 0 0;
#X connect 3 0 4 0;
#X connect 4 0 2 0;
#X connect 5 0 6 0;
#X connect 7 0 3 0;
#X restore 246 97 pd lapping;
#X obj 148 61 noise~;
#X text 203 60 factor common noise;
#X text 305 129 mix levels;
#X obj 151 154 outlet~;
#X obj 57 123 *~ 0.2;
#X obj 246 123 *~ 0.6;
#X obj 150 122 *~ 0.3;
#X text 144 30 fire generator;
#X connect 0 0 7 0;
#X connect 1 0 9 0;
#X connect 2 0 8 0;
#X connect 3 0 0 0;
#X connect 3 0 1 0;
#X connect 3 0 2 0;
#X connect 7 0 6 0;
#X connect 8 0 6 0;
#X connect 9 0 6 0;
#X restore 10 7 pd firegen;
#X obj 247 228 *~ 0.2;
#X obj 247 253 outlet~;
#X msg 415 120 10;
#X obj 322 59 inlet;
#X connect 0 0 8 0;
#X connect 1 0 8 0;
#X connect 2 0 8 0;
#X connect 3 0 8 0;
#X connect 4 0 1 0;
#X connect 5 0 2 0;
#X connect 6 0 0 0;
#X connect 7 0 3 0;
#X connect 8 0 9 0;
#X connect 11 0 8 1;
#X restore 280 167 pd fire;
#X obj 279 259 outlet~;
#X obj 283 146 hsl 60 13 0 1 0 0 \$0-a \$0-ra gain -2 -7 0 10 -260097
-1 -355 2014 1;
#X text 279 117 FIRE;
#X obj 192 31 osc~;
#X obj 192 -12 random 1000;
#X obj 192 72 + 1;
#X obj 191 92 / 2;
#X obj 169 -10 bng 15 250 50 0 empty empty empty 17 7 0 10 -262144
-1 -1;
#X obj 24 -1 osc~;
#X obj 24 -44 random 1000;
#X obj 24 40 + 1;
#X obj 24 60 / 2;
#X obj 28 -76 bng 15 250 50 0 empty empty empty 17 7 0 10 -262144 -1
-1;
#X obj 294 -6 osc~;
#X obj 294 -49 random 1000;
#X obj 294 35 + 1;
#X obj 294 55 / 2;
#X obj 293 -70 bng 15 250 50 0 empty empty empty 17 7 0 10 -262144
-1 -1;
#X obj 405 -7 osc~;
#X obj 405 -50 random 1000;
#X obj 405 34 + 1;
#X obj 405 54 / 2;
#X obj 403 -78 bng 15 250 50 0 empty empty empty 17 7 0 10 -262144
-1 -1;
#X obj 79 -160 sel 0 3 7 11 13 15 18 21 22;
#X obj 79 -181 random 24;
#X obj 118 -305 f 0;
#X obj 143 -305 + 1;
#X obj 79 -371 tgl 15 0 empty empty empty 17 7 0 10 -262144 -1 -1 1
1;
#X obj 118 -286 mod 60;
#X obj 118 -266 sel 0 30;
#X obj 332 -169 s \$0-time;
#X obj 75 -339 metro 100;
#X obj 143 -405 loadbang;
#X msg 143 -379 1;
#X obj 167 -201 + 25;
#X obj 166 -225 random 250;
#X obj 24 -23 / 10000;
#X obj 294 -28 / 5000;
#X obj 405 -29 / 5000;
#X obj 192 53 unsig~ 50;
#X obj 192 9 / 2000;
#X obj 24 21 unsig~ 50;
#X obj 294 16 unsig~ 50;
#X obj 405 15 unsig~ 50;
#X obj 277 209 *~ 0.1;
#X connect 1 0 7 0;
#X connect 3 0 8 0;
#X connect 4 0 8 1;
#X connect 7 0 0 0;
#X connect 8 0 2 0;
#X connect 9 0 54 0;
#X connect 11 0 9 0;
#X connect 13 0 49 0;
#X connect 14 0 50 0;
#X connect 15 0 16 0;
#X connect 16 0 3 0;
#X connect 17 0 14 0;
#X connect 18 0 51 0;
#X connect 19 0 46 0;
#X connect 20 0 21 0;
#X connect 21 0 1 0;
#X connect 22 0 19 0;
#X connect 23 0 52 0;
#X connect 24 0 47 0;
#X connect 25 0 26 0;
#X connect 26 0 4 0;
#X connect 27 0 24 0;
#X connect 28 0 53 0;
#X connect 29 0 48 0;
#X connect 30 0 31 0;
#X connect 31 0 11 0;
#X connect 32 0 29 0;
#X connect 33 0 17 0;
#X connect 33 1 22 0;
#X connect 33 2 27 0;
#X connect 33 3 22 0;
#X connect 33 4 17 0;
#X connect 33 5 32 0;
#X connect 33 6 17 0;
#X connect 33 7 27 0;
#X connect 33 8 32 0;
#X connect 34 0 33 0;
#X connect 35 0 36 0;
#X connect 35 0 38 0;
#X connect 36 0 35 1;
#X connect 37 0 41 0;
#X connect 38 0 39 0;
#X connect 38 0 40 0;
#X connect 39 0 45 0;
#X connect 39 1 45 0;
#X connect 41 0 34 0;
#X connect 41 0 35 0;
#X connect 42 0 43 0;
#X connect 43 0 37 0;
#X connect 44 0 41 1;
#X connect 45 0 44 0;
#X connect 46 0 18 0;
#X connect 47 0 23 0;
#X connect 48 0 28 0;
#X connect 49 0 15 0;
#X connect 50 0 13 0;
#X connect 51 0 20 0;
#X connect 52 0 25 0;
#X connect 53 0 30 0;
#X connect 54 0 10 0;
#X coords 0 -1 1 1 250 90 1 100 100;
#X restore 77 13 pd soundsources;
#N canvas 0 22 1024 720 randomdelay 0;
#X obj 47 139 inlet~;
#X text 96 139 audio input;
#X text 43 501 one inlet~: audio data for processing;
#X text 43 545 one outlet~: processed audio;
#X text 43 515 one inlet: values interpreted as MIDI pitches (0-100)
;
#X obj 256 318 *~;
#X obj 46 411 outlet~;
#X obj 256 205 line~;
#X obj 256 186 pack;
#X msg 289 142 5;
#X text 103 410 audio output;
#X obj 163 161 tgl 15 0 empty empty empty 0 -6 0 8 -262144 -1 -1 1
1;
#X obj 375 234 line~;
#X obj 375 212 pack;
#X msg 398 143 5;
#X obj 322 180 / 1000;
#X text 61 470 with randomly varying feedback;
#X text 65 531 and triggering new random feedback values;
#X text 42 453 apply a delay to an input signal;
#X obj 195 410 delwrite~ \$0-delay 1500;
#X obj 256 234 vd~ \$0-delay 100;
#X obj 256 93 trigger f b b b;
#X obj 256 142 * 15;
#X obj 322 142 random 500;
#X obj 322 161 + 400;
#X obj 256 71 clip 0 100;
#X text 44 485 one user-specified value: on/off key assignment (\$1)
;
#X text 43 439 sfx-randomdelay~.pd;
#N canvas 0 22 450 300 bypass~ 0;
#X obj 35 32 inlet~;
#X obj 251 35 inlet;
#X obj 35 279 outlet~;
#X obj 51 227 line~;
#X obj 35 252 *~;
#X msg 51 195 1 5;
#X msg 84 195 0 5;
#X text 84 32 audio input;
#X obj 252 278 outlet~;
#X obj 268 226 line~;
#X obj 252 251 *~;
#X msg 268 194 1 5;
#X msg 301 194 0 5;
#X text 290 36 toggle (0/1);
#X obj 251 58 sel 0;
#X obj 238 92 t b b;
#X obj 281 92 t b b;
#X text 90 279 outlet for bypass;
#X text 310 278 outlet for processing;
#X obj 172 92 loadbang;
#X connect 0 0 4 0;
#X connect 0 0 10 0;
#X connect 1 0 14 0;
#X connect 3 0 4 1;
#X connect 4 0 2 0;
#X connect 5 0 3 0;
#X connect 6 0 3 0;
#X connect 9 0 10 1;
#X connect 10 0 8 0;
#X connect 11 0 9 0;
#X connect 12 0 9 0;
#X connect 14 0 15 0;
#X connect 14 1 16 0;
#X connect 15 0 5 0;
#X connect 15 1 12 0;
#X connect 16 0 6 0;
#X connect 16 1 11 0;
#X connect 19 0 5 0;
#X connect 19 0 12 0;
#X restore 50 241 pd bypass~;
#X floatatom 179 161 5 0 0 0 - - -;
#X obj 202 -160 r \$0-time;
#X msg 128 9 0;
#X msg 156 8 1;
#X obj 415 -40 random 1000;
#X obj 415 25 unsig~ 100;
#X obj 415 -58 bng 15 250 50 0 empty empty empty 17 7 0 10 -262144
-1 -1;
#X obj 415 3 phasor~;
#X obj 415 -19 / 10000;
#X obj 415 44 * 100;
#X obj 415 64 + 20;
#X obj 257 -31 random 60;
#X obj 304 -8 random 50;
#X obj 128 -14 sel 0 1 2;
#X obj 128 -33 random 3;
#X obj 203 -120 mod 28;
#X obj 206 -75 sel 10 20 21 22 23;
#X connect 0 0 28 0;
#X connect 5 0 19 0;
#X connect 7 0 20 0;
#X connect 8 0 7 0;
#X connect 9 0 8 1;
#X connect 11 0 28 1;
#X connect 12 0 5 1;
#X connect 13 0 12 0;
#X connect 14 0 13 1;
#X connect 15 0 13 0;
#X connect 20 0 5 0;
#X connect 20 0 6 0;
#X connect 21 0 22 0;
#X connect 21 1 9 0;
#X connect 21 2 23 0;
#X connect 21 3 14 0;
#X connect 22 0 8 0;
#X connect 23 0 24 0;
#X connect 24 0 15 0;
#X connect 25 0 21 0;
#X connect 28 0 6 0;
#X connect 28 1 6 0;
#X connect 28 1 19 0;
#X connect 29 0 25 0;
#X connect 30 0 44 0;
#X connect 31 0 11 0;
#X connect 32 0 11 0;
#X connect 33 0 37 0;
#X connect 34 0 38 0;
#X connect 35 0 33 0;
#X connect 36 0 34 0;
#X connect 37 0 36 0;
#X connect 38 0 39 0;
#X connect 39 0 29 0;
#X connect 40 0 38 1;
#X connect 41 0 39 1;
#X connect 42 0 31 0;
#X connect 42 1 32 0;
#X connect 42 2 32 0;
#X connect 43 0 42 0;
#X connect 44 0 45 0;
#X connect 45 1 43 0;
#X connect 45 2 40 0;
#X connect 45 3 41 0;
#X connect 45 4 35 0;
#X restore 77 142 pd randomdelay;
#N canvas 0 22 1024 720 randomdelay 0;
#X obj 47 139 inlet~;
#X text 96 139 audio input;
#X text 43 501 one inlet~: audio data for processing;
#X text 43 545 one outlet~: processed audio;
#X text 43 515 one inlet: values interpreted as MIDI pitches (0-100)
;
#X obj 256 318 *~;
#X obj 46 411 outlet~;
#X obj 256 205 line~;
#X obj 256 186 pack;
#X msg 289 142 5;
#X text 103 410 audio output;
#X obj 163 161 tgl 15 0 empty empty empty 0 -6 0 8 -262144 -1 -1 1
1;
#X obj 375 234 line~;
#X obj 375 212 pack;
#X msg 398 143 5;
#X obj 322 180 / 1000;
#X text 61 470 with randomly varying feedback;
#X text 65 531 and triggering new random feedback values;
#X text 42 453 apply a delay to an input signal;
#X obj 256 93 trigger f b b b;
#X obj 256 142 * 15;
#X obj 322 142 random 500;
#X obj 322 161 + 400;
#X obj 256 71 clip 0 100;
#X text 44 485 one user-specified value: on/off key assignment (\$1)
;
#X text 43 439 sfx-randomdelay~.pd;
#N canvas 0 22 450 300 bypass~ 0;
#X obj 35 32 inlet~;
#X obj 251 35 inlet;
#X obj 35 279 outlet~;
#X obj 51 227 line~;
#X obj 35 252 *~;
#X msg 51 195 1 5;
#X msg 84 195 0 5;
#X text 84 32 audio input;
#X obj 252 278 outlet~;
#X obj 268 226 line~;
#X obj 252 251 *~;
#X msg 268 194 1 5;
#X msg 301 194 0 5;
#X text 290 36 toggle (0/1);
#X obj 251 58 sel 0;
#X obj 238 92 t b b;
#X obj 281 92 t b b;
#X text 90 279 outlet for bypass;
#X text 310 278 outlet for processing;
#X obj 172 92 loadbang;
#X connect 0 0 4 0;
#X connect 0 0 10 0;
#X connect 1 0 14 0;
#X connect 3 0 4 1;
#X connect 4 0 2 0;
#X connect 5 0 3 0;
#X connect 6 0 3 0;
#X connect 9 0 10 1;
#X connect 10 0 8 0;
#X connect 11 0 9 0;
#X connect 12 0 9 0;
#X connect 14 0 15 0;
#X connect 14 1 16 0;
#X connect 15 0 5 0;
#X connect 15 1 12 0;
#X connect 16 0 6 0;
#X connect 16 1 11 0;
#X connect 19 0 5 0;
#X connect 19 0 12 0;
#X restore 50 241 pd bypass~;
#X floatatom 179 161 5 0 0 0 - - -;
#X obj 203 -151 r \$0-time;
#X obj 136 -26 random 2;
#X msg 136 16 0;
#X msg 164 15 1;
#X obj 415 -40 random 1000;
#X obj 415 25 unsig~ 100;
#X obj 415 -58 bng 15 250 50 0 empty empty empty 17 7 0 10 -262144
-1 -1;
#X obj 415 3 phasor~;
#X obj 415 -19 / 10000;
#X obj 415 44 * 100;
#X obj 415 64 + 20;
#X obj 257 -31 random 60;
#X obj 304 -8 random 50;
#X obj 256 234 vd~ \$0-delay1 100;
#X obj 195 410 delwrite~ \$0-delay1 1500;
#X obj 136 -7 sel 0 1 2;
#X obj 201 -112 mod 48;
#X obj 206 -75 sel 35 36 32 28 13;
#X connect 0 0 26 0;
#X connect 5 0 42 0;
#X connect 7 0 41 0;
#X connect 8 0 7 0;
#X connect 9 0 8 1;
#X connect 11 0 26 1;
#X connect 12 0 5 1;
#X connect 13 0 12 0;
#X connect 14 0 13 1;
#X connect 15 0 13 0;
#X connect 19 0 20 0;
#X connect 19 1 9 0;
#X connect 19 2 21 0;
#X connect 19 3 14 0;
#X connect 20 0 8 0;
#X connect 21 0 22 0;
#X connect 22 0 15 0;
#X connect 23 0 19 0;
#X connect 26 0 6 0;
#X connect 26 1 6 0;
#X connect 26 1 42 0;
#X connect 27 0 23 0;
#X connect 28 0 44 0;
#X connect 29 0 43 0;
#X connect 30 0 11 0;
#X connect 31 0 11 0;
#X connect 32 0 36 0;
#X connect 33 0 37 0;
#X connect 34 0 32 0;
#X connect 35 0 33 0;
#X connect 36 0 35 0;
#X connect 37 0 38 0;
#X connect 38 0 27 0;
#X connect 39 0 37 1;
#X connect 40 0 38 1;
#X connect 41 0 5 0;
#X connect 41 0 6 0;
#X connect 43 0 30 0;
#X connect 43 1 31 0;
#X connect 43 2 31 0;
#X connect 44 0 45 0;
#X connect 45 0 29 0;
#X connect 45 1 34 0;
#X connect 45 2 39 0;
#X connect 45 3 40 0;
#X restore 198 142 pd randomdelay;
#N canvas 0 22 1024 720 randomdelay 0;
#X obj 47 139 inlet~;
#X text 96 139 audio input;
#X text 43 501 one inlet~: audio data for processing;
#X text 43 545 one outlet~: processed audio;
#X text 43 515 one inlet: values interpreted as MIDI pitches (0-100)
;
#X obj 256 318 *~;
#X obj 46 411 outlet~;
#X obj 256 205 line~;
#X obj 256 186 pack;
#X msg 289 142 5;
#X text 103 410 audio output;
#X obj 163 161 tgl 15 0 empty empty empty 0 -6 0 8 -262144 -1 -1 1
1;
#X obj 375 234 line~;
#X obj 375 212 pack;
#X msg 398 143 5;
#X obj 322 180 / 1000;
#X text 61 470 with randomly varying feedback;
#X text 65 531 and triggering new random feedback values;
#X text 42 453 apply a delay to an input signal;
#X obj 256 93 trigger f b b b;
#X obj 256 142 * 15;
#X obj 322 142 random 500;
#X obj 322 161 + 400;
#X obj 256 71 clip 0 100;
#X text 44 485 one user-specified value: on/off key assignment (\$1)
;
#X text 43 439 sfx-randomdelay~.pd;
#N canvas 0 22 450 300 bypass~ 0;
#X obj 35 32 inlet~;
#X obj 251 35 inlet;
#X obj 35 279 outlet~;
#X obj 51 227 line~;
#X obj 35 252 *~;
#X msg 51 195 1 5;
#X msg 84 195 0 5;
#X text 84 32 audio input;
#X obj 252 278 outlet~;
#X obj 268 226 line~;
#X obj 252 251 *~;
#X msg 268 194 1 5;
#X msg 301 194 0 5;
#X text 290 36 toggle (0/1);
#X obj 251 58 sel 0;
#X obj 238 92 t b b;
#X obj 281 92 t b b;
#X text 90 279 outlet for bypass;
#X text 310 278 outlet for processing;
#X obj 172 92 loadbang;
#X connect 0 0 4 0;
#X connect 0 0 10 0;
#X connect 1 0 14 0;
#X connect 3 0 4 1;
#X connect 4 0 2 0;
#X connect 5 0 3 0;
#X connect 6 0 3 0;
#X connect 9 0 10 1;
#X connect 10 0 8 0;
#X connect 11 0 9 0;
#X connect 12 0 9 0;
#X connect 14 0 15 0;
#X connect 14 1 16 0;
#X connect 15 0 5 0;
#X connect 15 1 12 0;
#X connect 16 0 6 0;
#X connect 16 1 11 0;
#X connect 19 0 5 0;
#X connect 19 0 12 0;
#X restore 50 241 pd bypass~;
#X floatatom 179 161 5 0 0 0 - - -;
#X obj 205 -115 r \$0-time;
#X msg 188 16 0;
#X msg 216 15 1;
#X obj 415 -40 random 1000;
#X obj 415 25 unsig~ 100;
#X obj 415 -58 bng 15 250 50 0 empty empty empty 17 7 0 10 -262144
-1 -1;
#X obj 415 3 phasor~;
#X obj 415 -19 / 10000;
#X obj 415 44 * 100;
#X obj 415 64 + 20;
#X obj 257 -31 random 60;
#X obj 304 -8 random 50;
#X obj 206 -75 sel 0 10 11 12 13;
#X obj 256 234 vd~ \$0-delay2 100;
#X obj 195 410 delwrite~ \$0-delay2 1500;
#X obj 188 -7 sel 0 1 2;
#X obj 188 -26 random 3;
#X connect 0 0 26 0;
#X connect 5 0 42 0;
#X connect 7 0 41 0;
#X connect 8 0 7 0;
#X connect 9 0 8 1;
#X connect 11 0 26 1;
#X connect 12 0 5 1;
#X connect 13 0 12 0;
#X connect 14 0 13 1;
#X connect 15 0 13 0;
#X connect 19 0 20 0;
#X connect 19 1 9 0;
#X connect 19 2 21 0;
#X connect 19 3 14 0;
#X connect 20 0 8 0;
#X connect 21 0 22 0;
#X connect 22 0 15 0;
#X connect 23 0 19 0;
#X connect 26 0 6 0;
#X connect 26 1 6 0;
#X connect 26 1 42 0;
#X connect 27 0 23 0;
#X connect 28 0 40 0;
#X connect 29 0 11 0;
#X connect 30 0 11 0;
#X connect 31 0 35 0;
#X connect 32 0 36 0;
#X connect 33 0 31 0;
#X connect 34 0 32 0;
#X connect 35 0 34 0;
#X connect 36 0 37 0;
#X connect 37 0 27 0;
#X connect 38 0 36 1;
#X connect 39 0 37 1;
#X connect 40 1 44 0;
#X connect 40 2 38 0;
#X connect 40 3 39 0;
#X connect 40 4 33 0;
#X connect 41 0 5 0;
#X connect 41 0 6 0;
#X connect 43 0 29 0;
#X connect 43 1 30 0;
#X connect 43 2 30 0;
#X connect 44 0 43 0;
#X restore 319 140 pd randomdelay;
#N canvas 227 217 652 512 randomcomb 0;
#X obj 46 34 inlet~;
#X text 95 34 audio input;
#X text 43 501 one inlet~: audio data for processing;
#X text 43 545 one outlet~: processed audio;
#X text 43 515 one inlet: values interpreted as MIDI pitches (0-100)
;
#X obj 195 410 delwrite~ \$0-comb 100;
#X obj 284 342 *~;
#X obj 46 411 outlet~;
#X obj 284 258 vd~ \$0-comb 100;
#X obj 284 232 line~;
#X obj 284 213 pack;
#X msg 307 168 5;
#X obj 256 165 /;
#X msg 256 141 22050;
#X obj 256 188 * 0.022675;
#X obj 256 92 mtof;
#X obj 256 32 clip 0 100;
#X text 103 410 audio output;
#X text 42 453 apply a comb filter to an input signal;
#X obj 164 161 tgl 15 0 empty empty empty 0 -6 0 8 -262144 -1 -1 1
1;
#X obj 402 258 line~;
#X obj 402 236 pack;
#X msg 425 167 5;
#X obj 349 166 random 200;
#X obj 349 204 / 1000;
#X obj 349 185 + 800;
#X text 61 470 with randomly varying feedback;
#X text 65 531 and triggering new random feedback values;
#X obj 256 72 t f f;
#X obj 256 113 trigger b f b b b;
#X text 44 485 one user-specified value: on/off key assignment (\$1)
;
#X text 43 439 sfx-randomcomb~.pd;
#X obj 291 92 s pitch-report;
#N canvas 0 22 450 300 bypass~ 0;
#X obj 35 32 inlet~;
#X obj 251 35 inlet;
#X obj 35 279 outlet~;
#X obj 51 227 line~;
#X obj 35 252 *~;
#X msg 51 195 1 5;
#X msg 84 195 0 5;
#X text 84 32 audio input;
#X obj 252 278 outlet~;
#X obj 268 226 line~;
#X obj 252 251 *~;
#X msg 268 194 1 5;
#X msg 301 194 0 5;
#X text 290 36 toggle (0/1);
#X obj 251 58 sel 0;
#X obj 238 92 t b b;
#X obj 281 92 t b b;
#X text 90 279 outlet for bypass;
#X text 310 278 outlet for processing;
#X obj 172 92 loadbang;
#X connect 0 0 4 0;
#X connect 0 0 10 0;
#X connect 1 0 14 0;
#X connect 3 0 4 1;
#X connect 4 0 2 0;
#X connect 5 0 3 0;
#X connect 6 0 3 0;
#X connect 9 0 10 1;
#X connect 10 0 8 0;
#X connect 11 0 9 0;
#X connect 12 0 9 0;
#X connect 14 0 15 0;
#X connect 14 1 16 0;
#X connect 15 0 5 0;
#X connect 15 1 12 0;
#X connect 16 0 6 0;
#X connect 16 1 11 0;
#X connect 19 0 5 0;
#X connect 19 0 12 0;
#X restore 68 238 pd bypass~;
#X floatatom 179 160 5 0 0 0 - - -;
#X obj 213 -146 r \$0-time;
#X msg 140 -21 0;
#X msg 169 -6 1;
#X obj 140 -44 sel 0 1 2;
#X obj 312 -39 random 40;
#X obj 265 -62 random 70;
#X obj 429 -75 metro 100;
#X obj 428 -94 tgl 15 0 empty empty empty 17 7 0 10 -262144 -1 -1 3
3;
#X obj 214 -126 mod 25;
#X obj 214 -108 sel 0 10 11 12 13 24;
#X obj 265 -7 +;
#X obj 140 -63 random 3;
#X connect 0 0 33 0;
#X connect 6 0 5 0;
#X connect 8 0 6 0;
#X connect 8 0 7 0;
#X connect 9 0 8 0;
#X connect 10 0 9 0;
#X connect 11 0 10 1;
#X connect 12 0 14 0;
#X connect 13 0 12 0;
#X connect 14 0 10 0;
#X connect 15 0 29 0;
#X connect 16 0 34 0;
#X connect 19 0 33 1;
#X connect 20 0 6 1;
#X connect 21 0 20 0;
#X connect 22 0 21 1;
#X connect 23 0 25 0;
#X connect 24 0 21 0;
#X connect 25 0 24 0;
#X connect 28 0 15 0;
#X connect 28 1 32 0;
#X connect 29 0 13 0;
#X connect 29 1 12 1;
#X connect 29 2 11 0;
#X connect 29 3 23 0;
#X connect 29 4 22 0;
#X connect 33 0 7 0;
#X connect 33 1 5 0;
#X connect 34 0 28 0;
#X connect 35 0 43 0;
#X connect 36 0 19 0;
#X connect 37 0 19 0;
#X connect 38 0 36 0;
#X connect 38 1 37 0;
#X connect 38 2 37 0;
#X connect 39 0 45 1;
#X connect 40 0 45 0;
#X connect 40 0 41 1;
#X connect 41 0 40 0;
#X connect 41 0 39 0;
#X connect 42 0 41 0;
#X connect 43 0 44 0;
#X connect 44 0 46 0;
#X connect 44 1 42 0;
#X connect 44 1 46 0;
#X connect 44 3 46 0;
#X connect 44 5 42 0;
#X connect 44 5 46 0;
#X connect 45 0 16 0;
#X connect 46 0 38 0;
#X restore 77 162 pd randomcomb;
#N canvas 227 217 652 512 randomcomb 0;
#X obj 46 34 inlet~;
#X text 95 34 audio input;
#X text 43 501 one inlet~: audio data for processing;
#X text 43 545 one outlet~: processed audio;
#X text 43 515 one inlet: values interpreted as MIDI pitches (0-100)
;
#X obj 284 342 *~;
#X obj 46 411 outlet~;
#X obj 284 232 line~;
#X obj 284 213 pack;
#X msg 307 168 5;
#X obj 256 165 /;
#X msg 256 141 22050;
#X obj 256 188 * 0.022675;
#X obj 256 92 mtof;
#X obj 256 32 clip 0 100;
#X text 103 410 audio output;
#X text 42 453 apply a comb filter to an input signal;
#X obj 164 161 tgl 15 0 empty empty empty 0 -6 0 8 -262144 -1 -1 1
1;
#X obj 402 258 line~;
#X obj 402 236 pack;
#X msg 425 167 5;
#X obj 349 166 random 200;
#X obj 349 204 / 1000;
#X obj 349 185 + 800;
#X text 61 470 with randomly varying feedback;
#X text 65 531 and triggering new random feedback values;
#X obj 256 72 t f f;
#X obj 256 113 trigger b f b b b;
#X text 44 485 one user-specified value: on/off key assignment (\$1)
;
#X text 43 439 sfx-randomcomb~.pd;
#N canvas 0 22 450 300 bypass~ 0;
#X obj 35 32 inlet~;
#X obj 251 35 inlet;
#X obj 35 279 outlet~;
#X obj 51 227 line~;
#X obj 35 252 *~;
#X msg 51 195 1 5;
#X msg 84 195 0 5;
#X text 84 32 audio input;
#X obj 252 278 outlet~;
#X obj 268 226 line~;
#X obj 252 251 *~;
#X msg 268 194 1 5;
#X msg 301 194 0 5;
#X text 290 36 toggle (0/1);
#X obj 251 58 sel 0;
#X obj 238 92 t b b;
#X obj 281 92 t b b;
#X text 90 279 outlet for bypass;
#X text 310 278 outlet for processing;
#X obj 172 92 loadbang;
#X connect 0 0 4 0;
#X connect 0 0 10 0;
#X connect 1 0 14 0;
#X connect 3 0 4 1;
#X connect 4 0 2 0;
#X connect 5 0 3 0;
#X connect 6 0 3 0;
#X connect 9 0 10 1;
#X connect 10 0 8 0;
#X connect 11 0 9 0;
#X connect 12 0 9 0;
#X connect 14 0 15 0;
#X connect 14 1 16 0;
#X connect 15 0 5 0;
#X connect 15 1 12 0;
#X connect 16 0 6 0;
#X connect 16 1 11 0;
#X connect 19 0 5 0;
#X connect 19 0 12 0;
#X restore 68 238 pd bypass~;
#X floatatom 179 160 5 0 0 0 - - -;
#X obj 217 -182 r \$0-time;
#X obj 196 -57 random 2;
#X obj 196 -38 sel 0 1;
#X msg 196 -15 0;
#X msg 224 -16 1;
#X obj 434 -107 random 1000;
#X obj 434 -42 unsig~ 100;
#X obj 434 -125 bng 15 250 50 0 empty empty empty 17 7 0 10 -262144
-1 -1;
#X obj 423 33 + 20;
#X obj 214 -106 sel 0 10 11 12 13;
#X obj 291 92 s pitch-report1;
#X obj 284 258 vd~ \$0-comb1 100;
#X obj 195 410 delwrite~ \$0-comb1 100;
#X obj 434 -64 osc~;
#X obj 433 -16 + 1;
#X obj 434 -86 / 100000;
#X obj 423 13 * 40;
#X obj 209 -143 mod 15;
#X obj 312 -39 random 20;
#X obj 265 -62 random 100;
#X connect 0 0 30 0;
#X connect 5 0 44 0;
#X connect 7 0 43 0;
#X connect 8 0 7 0;
#X connect 9 0 8 1;
#X connect 10 0 12 0;
#X connect 11 0 10 0;
#X connect 12 0 8 0;
#X connect 13 0 27 0;
#X connect 14 0 31 0;
#X connect 17 0 30 1;
#X connect 18 0 5 1;
#X connect 19 0 18 0;
#X connect 20 0 19 1;
#X connect 21 0 23 0;
#X connect 22 0 19 0;
#X connect 23 0 22 0;
#X connect 26 0 13 0;
#X connect 26 1 42 0;
#X connect 27 0 11 0;
#X connect 27 1 10 1;
#X connect 27 2 9 0;
#X connect 27 3 21 0;
#X connect 27 4 20 0;
#X connect 30 0 6 0;
#X connect 30 1 44 0;
#X connect 31 0 26 0;
#X connect 32 0 49 0;
#X connect 33 0 34 0;
#X connect 34 0 35 0;
#X connect 34 1 36 0;
#X connect 35 0 17 0;
#X connect 36 0 17 0;
#X connect 37 0 47 0;
#X connect 38 0 46 0;
#X connect 39 0 37 0;
#X connect 40 0 14 0;
#X connect 41 1 33 0;
#X connect 41 2 51 0;
#X connect 41 3 50 0;
#X connect 41 4 39 0;
#X connect 43 0 5 0;
#X connect 43 0 6 0;
#X connect 45 0 38 0;
#X connect 46 0 48 0;
#X connect 47 0 45 0;
#X connect 48 0 40 0;
#X connect 49 0 41 0;
#X connect 50 0 40 1;
#X connect 51 0 48 1;
#X restore 198 163 pd randomcomb;
#N canvas 227 217 652 512 randomcomb 0;
#X obj 46 34 inlet~;
#X text 95 34 audio input;
#X text 43 501 one inlet~: audio data for processing;
#X text 43 545 one outlet~: processed audio;
#X text 43 515 one inlet: values interpreted as MIDI pitches (0-100)
;
#X obj 284 342 *~;
#X obj 46 411 outlet~;
#X obj 284 232 line~;
#X obj 284 213 pack;
#X msg 307 168 5;
#X obj 256 165 /;
#X msg 256 141 22050;
#X obj 256 188 * 0.022675;
#X obj 256 92 mtof;
#X obj 256 32 clip 0 100;
#X text 103 410 audio output;
#X text 42 453 apply a comb filter to an input signal;
#X obj 164 161 tgl 15 0 empty empty empty 0 -6 0 8 -262144 -1 -1 1
1;
#X obj 402 258 line~;
#X obj 402 236 pack;
#X msg 425 167 5;
#X obj 349 166 random 200;
#X obj 349 204 / 1000;
#X obj 349 185 + 800;
#X text 61 470 with randomly varying feedback;
#X text 65 531 and triggering new random feedback values;
#X obj 256 72 t f f;
#X obj 256 113 trigger b f b b b;
#X text 44 485 one user-specified value: on/off key assignment (\$1)
;
#X text 43 439 sfx-randomcomb~.pd;
#N canvas 0 22 450 300 bypass~ 0;
#X obj 35 32 inlet~;
#X obj 251 35 inlet;
#X obj 35 279 outlet~;
#X obj 51 227 line~;
#X obj 35 252 *~;
#X msg 51 195 1 5;
#X msg 84 195 0 5;
#X text 84 32 audio input;
#X obj 252 278 outlet~;
#X obj 268 226 line~;
#X obj 252 251 *~;
#X msg 268 194 1 5;
#X msg 301 194 0 5;
#X text 290 36 toggle (0/1);
#X obj 251 58 sel 0;
#X obj 238 92 t b b;
#X obj 281 92 t b b;
#X text 90 279 outlet for bypass;
#X text 310 278 outlet for processing;
#X obj 172 92 loadbang;
#X connect 0 0 4 0;
#X connect 0 0 10 0;
#X connect 1 0 14 0;
#X connect 3 0 4 1;
#X connect 4 0 2 0;
#X connect 5 0 3 0;
#X connect 6 0 3 0;
#X connect 9 0 10 1;
#X connect 10 0 8 0;
#X connect 11 0 9 0;
#X connect 12 0 9 0;
#X connect 14 0 15 0;
#X connect 14 1 16 0;
#X connect 15 0 5 0;
#X connect 15 1 12 0;
#X connect 16 0 6 0;
#X connect 16 1 11 0;
#X connect 19 0 5 0;
#X connect 19 0 12 0;
#X restore 68 238 pd bypass~;
#X floatatom 179 160 5 0 0 0 - - -;
#X obj 213 -166 r \$0-time;
#X msg 196 -15 0;
#X msg 224 1 1;
#X obj 423 33 + 20;
#X obj 388 -60 random 50;
#X obj 284 258 vd~ \$0-comb2 100;
#X obj 195 410 delwrite~ \$0-comb2 100;
#X obj 291 92 s pitch-report2;
#X obj 196 -38 sel 0 1 2;
#X obj 214 -106 sel 0 1 2 4 5 6;
#X floatatom 157 -30 5 0 0 0 - - -;
#X obj 213 -134 mod 7;
#X obj 196 -57 random 2;
#X obj 325 -26 random 80;
#X obj 376 -148 metro 100;
#X obj 375 -167 tgl 15 0 empty empty empty 17 7 0 10 -262144 -1 -1
0 3;
#X connect 0 0 30 0;
#X connect 5 0 38 0;
#X connect 7 0 37 0;
#X connect 8 0 7 0;
#X connect 9 0 8 1;
#X connect 10 0 12 0;
#X connect 11 0 10 0;
#X connect 12 0 8 0;
#X connect 13 0 27 0;
#X connect 14 0 31 0;
#X connect 17 0 30 1;
#X connect 18 0 5 1;
#X connect 19 0 18 0;
#X connect 20 0 19 1;
#X connect 21 0 23 0;
#X connect 22 0 19 0;
#X connect 23 0 22 0;
#X connect 26 0 13 0;
#X connect 26 1 39 0;
#X connect 27 0 11 0;
#X connect 27 1 10 1;
#X connect 27 2 9 0;
#X connect 27 3 21 0;
#X connect 27 4 20 0;
#X connect 30 0 6 0;
#X connect 30 1 38 0;
#X connect 31 0 26 0;
#X connect 32 0 43 0;
#X connect 33 0 17 0;
#X connect 34 0 17 0;
#X connect 35 0 14 0;
#X connect 36 0 35 1;
#X connect 37 0 5 0;
#X connect 37 0 6 0;
#X connect 40 0 33 0;
#X connect 40 1 34 0;
#X connect 41 0 44 0;
#X connect 41 1 47 0;
#X connect 41 2 44 0;
#X connect 41 3 36 0;
#X connect 41 5 44 0;
#X connect 41 5 47 0;
#X connect 43 0 41 0;
#X connect 44 0 40 0;
#X connect 44 0 42 0;
#X connect 45 0 35 0;
#X connect 45 0 46 1;
#X connect 46 0 45 0;
#X connect 47 0 46 0;
#X restore 319 161 pd randomcomb;
#N canvas 0 22 1024 720 reverb 0;
#X obj 46 34 inlet~;
#X text 305 68 stream of incoming data values (0 - 100);
#X text 95 34 audio input;
#X text 45 488 one inlet~: audio data for processing;
#X text 43 522 one outlet~: processed audio;
#X obj 46 411 outlet~;
#X obj 263 88 clip 0 100;
#X text 103 410 audio output;
#X obj 162 161 tgl 15 0 empty empty empty 0 -6 0 8 -262144 -1 -1 1
1;
#X text 44 473 one user-specified value: on/off key assignment (\$1)
;
#X text 44 458 apply reverberation to input signal;
#N canvas 179 36 500 386 rev3-hacked~ 0;
#X obj 39 58 inlet;
#X obj 39 164 pack 0 50;
#X obj -27 290 outlet~;
#X obj 39 115 clip 0 100;
#X obj 131 224 s \$0-lop;
#N canvas 97 22 927 813 doit 0;
#X obj 218 386 *~;
#X obj 341 396 *~;
#X obj 267 389 *~;
#X obj 305 392 *~;
#X obj 28 175 lop~;
#X obj 27 204 -~;
#X obj 27 291 *~;
#X obj 16 319 +~;
#X obj 75 182 lop~;
#X obj 76 214 -~;
#X obj 77 294 *~;
#X obj 67 318 +~;
#X obj 124 187 lop~;
#X obj 124 214 -~;
#X obj 125 297 *~;
#X obj 116 322 +~;
#X obj 176 191 lop~;
#X obj 175 218 -~;
#X obj 175 301 *~;
#X obj 168 326 +~;
#X obj 15 372 *~;
#X obj 169 383 *~;
#X obj 67 376 *~;
#X obj 115 380 *~;
#X obj 207 160 r \$0-lop;
#X obj 183 246 r \$0-damp;
#X obj 183 271 line~;
#X obj 17 14 delread~ \$0-del1 10;
#X obj 117 56 delread~ \$0-del3 13.4567;
#X obj 68 35 delread~ \$0-del2 11.6356;
#X obj 171 77 delread~ \$0-del4 16.7345;
#X obj 524 407 *~;
#X obj 631 409 *~;
#X obj 560 408 *~;
#X obj 595 409 *~;
#X obj 377 399 *~;
#X obj 488 406 *~;
#X obj 414 402 *~;
#X obj 451 405 *~;
#X obj 654 354 line~;
#X obj 708 387 r \$0-fb;
#X obj 218 100 delread~ \$0-del5 20.1862;
#X obj 267 121 delread~ \$0-del6 25.7417;
#X obj 304 142 delread~ \$0-del7 31.4693;
#X obj 341 163 delread~ \$0-del8 38.2944;
#X obj 376 184 delread~ \$0-del9 46.6838;
#X obj 414 205 delread~ \$0-del10 55.4567;
#X obj 488 247 delread~ \$0-del12 76.8243;
#X obj 524 268 delread~ \$0-del13 88.5623;
#X obj 561 289 delread~ \$0-del14 101.278;
#X obj 595 310 delread~ \$0-del15 115.397;
#X obj 632 331 delread~ \$0-del16 130.502;
#X obj 25 346 inlet~;
#X obj 69 440 +~;
#X obj 105 440 -~;
#X obj 141 440 +~;
#X obj 177 440 -~;
#X obj 214 440 +~;
#X obj 250 440 -~;
#X obj 286 440 +~;
#X obj 322 440 -~;
#X obj 359 440 +~;
#X obj 395 440 -~;
#X obj 431 440 +~;
#X obj 467 440 -~;
#X obj 504 440 +~;
#X obj 540 440 -~;
#X obj 576 440 +~;
#X obj 612 440 -~;
#X obj 69 474 +~;
#X obj 177 474 -~;
#X obj 105 474 +~;
#X obj 141 474 -~;
#X obj 214 474 +~;
#X obj 322 474 -~;
#X obj 250 474 +~;
#X obj 286 474 -~;
#X obj 359 474 +~;
#X obj 467 474 -~;
#X obj 395 474 +~;
#X obj 431 474 -~;
#X obj 504 474 +~;
#X obj 612 474 -~;
#X obj 540 474 +~;
#X obj 576 474 -~;
#X obj 69 518 +~;
#X obj 105 518 +~;
#X obj 322 518 -~;
#X obj 286 518 -~;
#X obj 141 518 +~;
#X obj 177 518 +~;
#X obj 214 518 -~;
#X obj 250 518 -~;
#X obj 360 518 +~;
#X obj 396 518 +~;
#X obj 613 518 -~;
#X obj 577 518 -~;
#X obj 432 518 +~;
#X obj 468 518 +~;
#X obj 505 518 -~;
#X obj 541 518 -~;
#X obj 70 575 +~;
#X obj 106 575 +~;
#X obj 469 575 -~;
#X obj 433 575 -~;
#X obj 142 575 +~;
#X obj 178 575 +~;
#X obj 361 575 -~;
#X obj 397 575 -~;
#X obj 215 575 +~;
#X obj 251 575 +~;
#X obj 287 575 +~;
#X obj 323 575 +~;
#X obj 614 575 -~;
#X obj 578 575 -~;
#X obj 506 575 -~;
#X obj 542 575 -~;
#X obj 628 606 outlet~;
#X obj 451 226 delread~ \$0-del11 65.1755;
#X obj 614 629 delwrite~ \$0-del16 130.502;
#X obj 361 776 delwrite~ \$0-del9 46.6838;
#X obj 398 755 delwrite~ \$0-del10 55.4567;
#X obj 434 734 delwrite~ \$0-del11 65.1755;
#X obj 470 713 delwrite~ \$0-del12 76.8243;
#X obj 506 692 delwrite~ \$0-del13 88.5623;
#X obj 542 671 delwrite~ \$0-del14 101.278;
#X obj 579 650 delwrite~ \$0-del15 115.397;
#X obj 323 606 delwrite~ \$0-del8 38.2944;
#X obj 287 628 delwrite~ \$0-del7 31.4693;
#X obj 252 650 delwrite~ \$0-del6 25.7417;
#X obj 215 672 delwrite~ \$0-del5 20.1862;
#X obj 71 761 delwrite~ \$0-del1 10;
#X obj 106 737 delwrite~ \$0-del2 11.6356;
#X obj 141 715 delwrite~ \$0-del3 13.4567;
#X obj 179 693 delwrite~ \$0-del4 16.7345;
#X connect 0 0 57 0;
#X connect 0 0 58 0;
#X connect 1 0 59 1;
#X connect 1 0 60 1;
#X connect 2 0 57 1;
#X connect 2 0 58 1;
#X connect 3 0 59 0;
#X connect 3 0 60 0;
#X connect 4 0 5 0;
#X connect 5 0 6 0;
#X connect 6 0 7 1;
#X connect 7 0 20 0;
#X connect 8 0 9 0;
#X connect 9 0 10 0;
#X connect 10 0 11 1;
#X connect 11 0 22 0;
#X connect 12 0 13 0;
#X connect 13 0 14 0;
#X connect 14 0 15 1;
#X connect 15 0 23 0;
#X connect 16 0 17 0;
#X connect 17 0 18 0;
#X connect 18 0 19 1;
#X connect 19 0 21 0;
#X connect 20 0 53 0;
#X connect 20 0 54 0;
#X connect 21 0 55 1;
#X connect 21 0 56 1;
#X connect 22 0 54 1;
#X connect 22 0 53 1;
#X connect 23 0 55 0;
#X connect 23 0 56 0;
#X connect 24 0 16 1;
#X connect 24 0 12 1;
#X connect 24 0 8 1;
#X connect 24 0 4 1;
#X connect 25 0 26 0;
#X connect 26 0 18 1;
#X connect 26 0 14 1;
#X connect 26 0 10 1;
#X connect 26 0 6 1;
#X connect 27 0 4 0;
#X connect 27 0 5 1;
#X connect 27 0 7 0;
#X connect 28 0 15 0;
#X connect 28 0 12 0;
#X connect 28 0 13 1;
#X connect 29 0 8 0;
#X connect 29 0 9 1;
#X connect 29 0 11 0;
#X connect 30 0 19 0;
#X connect 30 0 17 1;
#X connect 30 0 16 0;
#X connect 31 0 65 0;
#X connect 31 0 66 0;
#X connect 32 0 67 1;
#X connect 32 0 68 1;
#X connect 33 0 65 1;
#X connect 33 0 66 1;
#X connect 34 0 67 0;
#X connect 34 0 68 0;
#X connect 35 0 61 0;
#X connect 35 0 62 0;
#X connect 36 0 63 1;
#X connect 36 0 64 1;
#X connect 37 0 61 1;
#X connect 37 0 62 1;
#X connect 38 0 63 0;
#X connect 38 0 64 0;
#X connect 39 0 2 1;
#X connect 39 0 0 1;
#X connect 39 0 3 1;
#X connect 39 0 1 1;
#X connect 39 0 21 1;
#X connect 39 0 23 1;
#X connect 39 0 22 1;
#X connect 39 0 20 1;
#X connect 39 0 35 1;
#X connect 39 0 38 1;
#X connect 39 0 36 1;
#X connect 39 0 31 1;
#X connect 39 0 33 1;
#X connect 39 0 34 1;
#X connect 39 0 32 1;
#X connect 39 0 37 1;
#X connect 40 0 39 0;
#X connect 41 0 0 0;
#X connect 42 0 2 0;
#X connect 43 0 3 0;
#X connect 44 0 1 0;
#X connect 45 0 35 0;
#X connect 46 0 37 0;
#X connect 47 0 36 0;
#X connect 48 0 31 0;
#X connect 49 0 33 0;
#X connect 50 0 34 0;
#X connect 51 0 32 0;
#X connect 52 0 20 0;
#X connect 53 0 69 0;
#X connect 53 0 72 0;
#X connect 54 0 71 0;
#X connect 54 0 70 0;
#X connect 55 0 69 1;
#X connect 55 0 72 1;
#X connect 56 0 71 1;
#X connect 56 0 70 1;
#X connect 57 0 73 0;
#X connect 57 0 76 0;
#X connect 58 0 75 0;
#X connect 58 0 74 0;
#X connect 59 0 73 1;
#X connect 59 0 76 1;
#X connect 60 0 75 1;
#X connect 60 0 74 1;
#X connect 61 0 77 0;
#X connect 61 0 80 0;
#X connect 62 0 79 0;
#X connect 62 0 78 0;
#X connect 63 0 77 1;
#X connect 63 0 80 1;
#X connect 64 0 79 1;
#X connect 64 0 78 1;
#X connect 65 0 81 0;
#X connect 65 0 84 0;
#X connect 66 0 83 0;
#X connect 66 0 82 0;
#X connect 67 0 81 1;
#X connect 67 0 84 1;
#X connect 68 0 83 1;
#X connect 68 0 82 1;
#X connect 69 0 85 0;
#X connect 69 0 91 0;
#X connect 70 0 90 0;
#X connect 70 0 87 0;
#X connect 71 0 86 0;
#X connect 71 0 92 0;
#X connect 72 0 89 0;
#X connect 72 0 88 0;
#X connect 73 0 85 1;
#X connect 73 0 91 1;
#X connect 74 0 90 1;
#X connect 74 0 87 1;
#X connect 75 0 86 1;
#X connect 75 0 92 1;
#X connect 76 0 89 1;
#X connect 76 0 88 1;
#X connect 77 0 93 0;
#X connect 77 0 99 0;
#X connect 78 0 98 0;
#X connect 78 0 95 0;
#X connect 79 0 94 0;
#X connect 79 0 100 0;
#X connect 80 0 97 0;
#X connect 80 0 96 0;
#X connect 81 0 93 1;
#X connect 81 0 99 1;
#X connect 82 0 98 1;
#X connect 82 0 95 1;
#X connect 83 0 94 1;
#X connect 83 0 100 1;
#X connect 84 0 97 1;
#X connect 84 0 96 1;
#X connect 85 0 101 0;
#X connect 85 0 107 0;
#X connect 86 0 102 0;
#X connect 86 0 108 0;
#X connect 87 0 112 0;
#X connect 87 0 113 0;
#X connect 88 0 111 0;
#X connect 88 0 114 0;
#X connect 89 0 105 0;
#X connect 89 0 104 0;
#X connect 90 0 106 0;
#X connect 90 0 103 0;
#X connect 91 0 109 0;
#X connect 91 0 115 0;
#X connect 92 0 110 0;
#X connect 92 0 116 0;
#X connect 93 0 107 1;
#X connect 93 0 101 1;
#X connect 94 0 108 1;
#X connect 94 0 102 1;
#X connect 95 0 113 1;
#X connect 95 0 112 1;
#X connect 96 0 114 1;
#X connect 96 0 111 1;
#X connect 97 0 104 1;
#X connect 97 0 105 1;
#X connect 98 0 103 1;
#X connect 98 0 106 1;
#X connect 99 0 115 1;
#X connect 99 0 109 1;
#X connect 100 0 116 1;
#X connect 100 0 110 1;
#X connect 101 0 131 0;
#X connect 102 0 132 0;
#X connect 103 0 123 0;
#X connect 104 0 122 0;
#X connect 105 0 133 0;
#X connect 106 0 134 0;
#X connect 107 0 120 0;
#X connect 108 0 121 0;
#X connect 109 0 130 0;
#X connect 110 0 129 0;
#X connect 111 0 128 0;
#X connect 112 0 127 0;
#X connect 113 0 119 0;
#X connect 114 0 126 0;
#X connect 115 0 117 0;
#X connect 115 0 124 0;
#X connect 116 0 125 0;
#X connect 118 0 38 0;
#X restore -27 198 pd doit;
#X obj -27 36 inlet~;
#X obj 39 194 s \$0-fb;
#X obj 198 224 s \$0-damp;
#X obj 39 140 / 400;
#X text 42 290 abused version of Miller Puckette's rev3~;
#X obj 131 144 loadbang;
#X msg 131 201 3000;
#X msg 198 200 0.2;
#X obj 131 165 t b b;
#X text 85 58 liveness \, 0-100 \, usually between 85 and 100;
#X text 24 36 audio input;
#X connect 0 0 3 0;
#X connect 1 0 7 0;
#X connect 3 0 9 0;
#X connect 5 0 2 0;
#X connect 6 0 5 0;
#X connect 9 0 1 0;
#X connect 11 0 14 0;
#X connect 12 0 4 0;
#X connect 13 0 8 0;
#X connect 14 0 12 0;
#X connect 14 1 13 0;
#X restore 195 278 pd rev3-hacked~ 100 90 3000 20;
#X text 45 502 one inlet: values interpreted as liveliness %;
#X text 45 444 sfx-reverb~.pd;
#N canvas 0 22 450 300 bypass~ 0;
#X obj 35 32 inlet~;
#X obj 251 35 inlet;
#X obj 35 279 outlet~;
#X obj 51 227 line~;
#X obj 35 252 *~;
#X msg 51 195 1 5;
#X msg 84 195 0 5;
#X text 84 32 audio input;
#X obj 252 278 outlet~;
#X obj 268 226 line~;
#X obj 252 251 *~;
#X msg 268 194 1 5;
#X msg 301 194 0 5;
#X text 290 36 toggle (0/1);
#X obj 251 58 sel 0;
#X obj 238 92 t b b;
#X obj 281 92 t b b;
#X text 90 279 outlet for bypass;
#X text 310 278 outlet for processing;
#X obj 172 92 loadbang;
#X connect 0 0 4 0;
#X connect 0 0 10 0;
#X connect 1 0 14 0;
#X connect 3 0 4 1;
#X connect 4 0 2 0;
#X connect 5 0 3 0;
#X connect 6 0 3 0;
#X connect 9 0 10 1;
#X connect 10 0 8 0;
#X connect 11 0 9 0;
#X connect 12 0 9 0;
#X connect 14 0 15 0;
#X connect 14 1 16 0;
#X connect 15 0 5 0;
#X connect 15 1 12 0;
#X connect 16 0 6 0;
#X connect 16 1 11 0;
#X connect 19 0 5 0;
#X connect 19 0 12 0;
#X restore 81 230 pd bypass~;
#X floatatom 178 161 5 0 0 0 - - -;
#X obj 215 -181 r \$0-time;
#X obj 424 -84 random 1000;
#X obj 424 -22 unsig~ 100;
#X obj 424 -102 bng 15 250 50 0 empty empty empty 17 7 0 10 -262144
-1 -1;
#X obj 424 18 * 100;
#X obj 422 41 + 20;
#X obj 266 -75 random 60;
#X obj 313 -52 random 50;
#X obj 215 -119 sel 0 10 11 12 13;
#X obj 220 -147 mod 25;
#X obj 424 -63 / 10000;
#X obj 424 -41 osc~;
#X obj 509 15 + 1;
#X obj 107 -37 loadbang;
#X msg 112 -5 1;
#X connect 0 0 14 0;
#X connect 6 0 11 1;
#X connect 8 0 14 1;
#X connect 11 0 5 0;
#X connect 14 0 5 0;
#X connect 14 1 11 0;
#X connect 15 0 6 0;
#X connect 16 0 25 0;
#X connect 17 0 26 0;
#X connect 18 0 28 0;
#X connect 19 0 17 0;
#X connect 20 0 21 0;
#X connect 21 0 15 0;
#X connect 22 0 20 1;
#X connect 23 0 21 1;
#X connect 24 2 22 0;
#X connect 24 3 23 0;
#X connect 24 4 19 0;
#X connect 25 0 24 0;
#X connect 26 0 27 0;
#X connect 27 0 18 0;
#X connect 28 0 20 0;
#X connect 29 0 30 0;
#X connect 30 0 8 0;
#X restore 77 184 pd reverb;
#N canvas 0 22 1024 720 reverb 0;
#X obj 46 34 inlet~;
#X text 305 68 stream of incoming data values (0 - 100);
#X text 95 34 audio input;
#X text 45 488 one inlet~: audio data for processing;
#X text 43 522 one outlet~: processed audio;
#X obj 46 411 outlet~;
#X obj 263 88 clip 0 100;
#X text 103 410 audio output;
#X obj 162 161 tgl 15 0 empty empty empty 0 -6 0 8 -262144 -1 -1 1
1;
#X text 44 473 one user-specified value: on/off key assignment (\$1)
;
#X text 44 458 apply reverberation to input signal;
#N canvas 179 36 500 386 rev3-hacked~ 0;
#X obj 39 58 inlet;
#X obj 39 164 pack 0 50;
#X obj -27 290 outlet~;
#X obj 39 115 clip 0 100;
#N canvas 0 22 1009 720 doit 0;
#X obj 218 386 *~;
#X obj 341 396 *~;
#X obj 267 389 *~;
#X obj 305 392 *~;
#X obj 28 175 lop~;
#X obj 27 204 -~;
#X obj 27 291 *~;
#X obj 16 319 +~;
#X obj 75 182 lop~;
#X obj 76 214 -~;
#X obj 77 294 *~;
#X obj 67 318 +~;
#X obj 124 187 lop~;
#X obj 124 214 -~;
#X obj 125 297 *~;
#X obj 116 322 +~;
#X obj 176 191 lop~;
#X obj 175 218 -~;
#X obj 175 301 *~;
#X obj 168 326 +~;
#X obj 15 372 *~;
#X obj 169 383 *~;
#X obj 67 376 *~;
#X obj 115 380 *~;
#X obj 183 271 line~;
#X obj 524 407 *~;
#X obj 631 409 *~;
#X obj 560 408 *~;
#X obj 595 409 *~;
#X obj 377 399 *~;
#X obj 488 406 *~;
#X obj 414 402 *~;
#X obj 451 405 *~;
#X obj 654 354 line~;
#X obj 25 346 inlet~;
#X obj 69 440 +~;
#X obj 105 440 -~;
#X obj 141 440 +~;
#X obj 177 440 -~;
#X obj 214 440 +~;
#X obj 250 440 -~;
#X obj 286 440 +~;
#X obj 322 440 -~;
#X obj 359 440 +~;
#X obj 395 440 -~;
#X obj 431 440 +~;
#X obj 467 440 -~;
#X obj 504 440 +~;
#X obj 540 440 -~;
#X obj 576 440 +~;
#X obj 612 440 -~;
#X obj 69 474 +~;
#X obj 177 474 -~;
#X obj 105 474 +~;
#X obj 141 474 -~;
#X obj 214 474 +~;
#X obj 322 474 -~;
#X obj 250 474 +~;
#X obj 286 474 -~;
#X obj 359 474 +~;
#X obj 467 474 -~;
#X obj 395 474 +~;
#X obj 431 474 -~;
#X obj 504 474 +~;
#X obj 612 474 -~;
#X obj 540 474 +~;
#X obj 576 474 -~;
#X obj 69 518 +~;
#X obj 105 518 +~;
#X obj 322 518 -~;
#X obj 286 518 -~;
#X obj 141 518 +~;
#X obj 177 518 +~;
#X obj 214 518 -~;
#X obj 250 518 -~;
#X obj 360 518 +~;
#X obj 396 518 +~;
#X obj 613 518 -~;
#X obj 577 518 -~;
#X obj 432 518 +~;
#X obj 468 518 +~;
#X obj 505 518 -~;
#X obj 541 518 -~;
#X obj 70 575 +~;
#X obj 106 575 +~;
#X obj 469 575 -~;
#X obj 433 575 -~;
#X obj 142 575 +~;
#X obj 178 575 +~;
#X obj 361 575 -~;
#X obj 397 575 -~;
#X obj 215 575 +~;
#X obj 251 575 +~;
#X obj 287 575 +~;
#X obj 323 575 +~;
#X obj 614 575 -~;
#X obj 578 575 -~;
#X obj 506 575 -~;
#X obj 542 575 -~;
#X obj 628 606 outlet~;
#X obj 17 14 delread~ \$0-del21 10;
#X obj 68 35 delread~ \$0-del12 21.6356;
#X obj 171 77 delread~ \$0-del24 16.7345;
#X obj 218 100 delread~ \$0-del25 20.1862;
#X obj 267 121 delread~ \$0-del26 25.7417;
#X obj 304 142 delread~ \$0-del27 31.4693;
#X obj 341 163 delread~ \$0-del28 38.2944;
#X obj 376 184 delread~ \$0-del29 46.6838;
#X obj 414 205 delread~ \$0-del30 55.4567;
#X obj 451 226 delread~ \$0-del31 65.1755;
#X obj 488 247 delread~ \$0-del32 76.8243;
#X obj 524 268 delread~ \$0-del33 88.5623;
#X obj 561 289 delread~ \$0-del34 101.278;
#X obj 595 310 delread~ \$0-del35 115.397;
#X obj 632 331 delread~ \$0-del36 130.502;
#X obj 708 387 r \$0-fb2;
#X obj 207 160 r \$0-lop2;
#X obj 183 246 r \$0-damp2;
#X obj 71 761 delwrite~ \$0-del21 10;
#X obj 106 737 delwrite~ \$0-del22 11.6356;
#X obj 141 715 delwrite~ \$0-del23 13.4567;
#X obj 179 693 delwrite~ \$0-del24 16.7345;
#X obj 215 672 delwrite~ \$0-del25 20.1862;
#X obj 252 650 delwrite~ \$0-del26 25.7417;
#X obj 287 628 delwrite~ \$0-del27 31.4693;
#X obj 323 606 delwrite~ \$0-del28 38.2944;
#X obj 361 776 delwrite~ \$0-del29 46.6838;
#X obj 398 755 delwrite~ \$0-del30 55.4567;
#X obj 434 734 delwrite~ \$0-del31 65.1755;
#X obj 470 713 delwrite~ \$0-del32 76.8243;
#X obj 506 692 delwrite~ \$0-del33 88.5623;
#X obj 542 671 delwrite~ \$0-del34 101.278;
#X obj 579 650 delwrite~ \$0-del35 115.397;
#X obj 614 629 delwrite~ \$0-del36 130.502;
#X obj 117 56 delread~ \$0-del23 23.4567;
#X connect 0 0 39 0;
#X connect 0 0 40 0;
#X connect 1 0 41 1;
#X connect 1 0 42 1;
#X connect 2 0 39 1;
#X connect 2 0 40 1;
#X connect 3 0 41 0;
#X connect 3 0 42 0;
#X connect 4 0 5 0;
#X connect 5 0 6 0;
#X connect 6 0 7 1;
#X connect 7 0 20 0;
#X connect 8 0 9 0;
#X connect 9 0 10 0;
#X connect 10 0 11 1;
#X connect 11 0 22 0;
#X connect 12 0 13 0;
#X connect 13 0 14 0;
#X connect 14 0 15 1;
#X connect 15 0 23 0;
#X connect 16 0 17 0;
#X connect 17 0 18 0;
#X connect 18 0 19 1;
#X connect 19 0 21 0;
#X connect 20 0 35 0;
#X connect 20 0 36 0;
#X connect 21 0 37 1;
#X connect 21 0 38 1;
#X connect 22 0 36 1;
#X connect 22 0 35 1;
#X connect 23 0 37 0;
#X connect 23 0 38 0;
#X connect 24 0 18 1;
#X connect 24 0 14 1;
#X connect 24 0 10 1;
#X connect 24 0 6 1;
#X connect 25 0 47 0;
#X connect 25 0 48 0;
#X connect 26 0 49 1;
#X connect 26 0 50 1;
#X connect 27 0 47 1;
#X connect 27 0 48 1;
#X connect 28 0 49 0;
#X connect 28 0 50 0;
#X connect 29 0 43 0;
#X connect 29 0 44 0;
#X connect 30 0 45 1;
#X connect 30 0 46 1;
#X connect 31 0 43 1;
#X connect 31 0 44 1;
#X connect 32 0 45 0;
#X connect 32 0 46 0;
#X connect 33 0 2 1;
#X connect 33 0 0 1;
#X connect 33 0 3 1;
#X connect 33 0 1 1;
#X connect 33 0 21 1;
#X connect 33 0 23 1;
#X connect 33 0 22 1;
#X connect 33 0 20 1;
#X connect 33 0 29 1;
#X connect 33 0 32 1;
#X connect 33 0 30 1;
#X connect 33 0 25 1;
#X connect 33 0 27 1;
#X connect 33 0 28 1;
#X connect 33 0 26 1;
#X connect 33 0 31 1;
#X connect 34 0 20 0;
#X connect 35 0 51 0;
#X connect 35 0 54 0;
#X connect 36 0 53 0;
#X connect 36 0 52 0;
#X connect 37 0 51 1;
#X connect 37 0 54 1;
#X connect 38 0 53 1;
#X connect 38 0 52 1;
#X connect 39 0 55 0;
#X connect 39 0 58 0;
#X connect 40 0 57 0;
#X connect 40 0 56 0;
#X connect 41 0 55 1;
#X connect 41 0 58 1;
#X connect 42 0 57 1;
#X connect 42 0 56 1;
#X connect 43 0 59 0;
#X connect 43 0 62 0;
#X connect 44 0 61 0;
#X connect 44 0 60 0;
#X connect 45 0 59 1;
#X connect 45 0 62 1;
#X connect 46 0 61 1;
#X connect 46 0 60 1;
#X connect 47 0 63 0;
#X connect 47 0 66 0;
#X connect 48 0 65 0;
#X connect 48 0 64 0;
#X connect 49 0 63 1;
#X connect 49 0 66 1;
#X connect 50 0 65 1;
#X connect 50 0 64 1;
#X connect 51 0 67 0;
#X connect 51 0 73 0;
#X connect 52 0 72 0;
#X connect 52 0 69 0;
#X connect 53 0 68 0;
#X connect 53 0 74 0;
#X connect 54 0 71 0;
#X connect 54 0 70 0;
#X connect 55 0 67 1;
#X connect 55 0 73 1;
#X connect 56 0 72 1;
#X connect 56 0 69 1;
#X connect 57 0 68 1;
#X connect 57 0 74 1;
#X connect 58 0 71 1;
#X connect 58 0 70 1;
#X connect 59 0 75 0;
#X connect 59 0 81 0;
#X connect 60 0 80 0;
#X connect 60 0 77 0;
#X connect 61 0 76 0;
#X connect 61 0 82 0;
#X connect 62 0 79 0;
#X connect 62 0 78 0;
#X connect 63 0 75 1;
#X connect 63 0 81 1;
#X connect 64 0 80 1;
#X connect 64 0 77 1;
#X connect 65 0 76 1;
#X connect 65 0 82 1;
#X connect 66 0 79 1;
#X connect 66 0 78 1;
#X connect 67 0 83 0;
#X connect 67 0 89 0;
#X connect 68 0 84 0;
#X connect 68 0 90 0;
#X connect 69 0 94 0;
#X connect 69 0 95 0;
#X connect 70 0 93 0;
#X connect 70 0 96 0;
#X connect 71 0 87 0;
#X connect 71 0 86 0;
#X connect 72 0 88 0;
#X connect 72 0 85 0;
#X connect 73 0 91 0;
#X connect 73 0 97 0;
#X connect 74 0 92 0;
#X connect 74 0 98 0;
#X connect 75 0 89 1;
#X connect 75 0 83 1;
#X connect 76 0 90 1;
#X connect 76 0 84 1;
#X connect 77 0 95 1;
#X connect 77 0 94 1;
#X connect 78 0 96 1;
#X connect 78 0 93 1;
#X connect 79 0 86 1;
#X connect 79 0 87 1;
#X connect 80 0 85 1;
#X connect 80 0 88 1;
#X connect 81 0 97 1;
#X connect 81 0 91 1;
#X connect 82 0 98 1;
#X connect 82 0 92 1;
#X connect 83 0 118 0;
#X connect 84 0 119 0;
#X connect 85 0 129 0;
#X connect 86 0 128 0;
#X connect 87 0 120 0;
#X connect 88 0 121 0;
#X connect 89 0 126 0;
#X connect 90 0 127 0;
#X connect 91 0 122 0;
#X connect 92 0 123 0;
#X connect 93 0 124 0;
#X connect 94 0 125 0;
#X connect 95 0 133 0;
#X connect 96 0 132 0;
#X connect 97 0 99 0;
#X connect 97 0 130 0;
#X connect 98 0 131 0;
#X connect 100 0 4 0;
#X connect 100 0 5 1;
#X connect 100 0 7 0;
#X connect 101 0 8 0;
#X connect 101 0 9 1;
#X connect 101 0 11 0;
#X connect 102 0 19 0;
#X connect 102 0 17 1;
#X connect 102 0 16 0;
#X connect 103 0 0 0;
#X connect 104 0 2 0;
#X connect 105 0 3 0;
#X connect 106 0 1 0;
#X connect 107 0 29 0;
#X connect 108 0 31 0;
#X connect 109 0 32 0;
#X connect 110 0 30 0;
#X connect 111 0 25 0;
#X connect 112 0 27 0;
#X connect 113 0 28 0;
#X connect 114 0 26 0;
#X connect 115 0 33 0;
#X connect 116 0 16 1;
#X connect 116 0 12 1;
#X connect 116 0 8 1;
#X connect 116 0 4 1;
#X connect 117 0 24 0;
#X connect 134 0 15 0;
#X connect 134 0 12 0;
#X connect 134 0 13 1;
#X restore -27 198 pd doit;
#X obj -27 36 inlet~;
#X obj 39 140 / 400;
#X text 42 290 abused version of Miller Puckette's rev3~;
#X obj 131 144 loadbang;
#X msg 131 201 3000;
#X msg 198 200 0.2;
#X obj 131 165 t b b;
#X text 85 58 liveness \, 0-100 \, usually between 85 and 100;
#X text 24 36 audio input;
#X obj 39 194 s \$0-fb2;
#X obj 131 224 s \$0-lop2;
#X obj 198 224 s \$0-damp2;
#X connect 0 0 3 0;
#X connect 1 0 14 0;
#X connect 3 0 6 0;
#X connect 4 0 2 0;
#X connect 5 0 4 0;
#X connect 6 0 1 0;
#X connect 8 0 11 0;
#X connect 9 0 15 0;
#X connect 10 0 16 0;
#X connect 11 0 9 0;
#X connect 11 1 10 0;
#X restore 195 278 pd rev3-hacked~ 100 90 3000 20;
#X text 45 502 one inlet: values interpreted as liveliness %;
#X text 45 444 sfx-reverb~.pd;
#N canvas 0 22 450 300 bypass~ 0;
#X obj 35 32 inlet~;
#X obj 251 35 inlet;
#X obj 35 279 outlet~;
#X obj 51 227 line~;
#X obj 35 252 *~;
#X msg 51 195 1 5;
#X msg 84 195 0 5;
#X text 84 32 audio input;
#X obj 252 278 outlet~;
#X obj 268 226 line~;
#X obj 252 251 *~;
#X msg 268 194 1 5;
#X msg 301 194 0 5;
#X text 290 36 toggle (0/1);
#X obj 251 58 sel 0;
#X obj 238 92 t b b;
#X obj 281 92 t b b;
#X text 90 279 outlet for bypass;
#X text 310 278 outlet for processing;
#X obj 172 92 loadbang;
#X connect 0 0 4 0;
#X connect 0 0 10 0;
#X connect 1 0 14 0;
#X connect 3 0 4 1;
#X connect 4 0 2 0;
#X connect 5 0 3 0;
#X connect 6 0 3 0;
#X connect 9 0 10 1;
#X connect 10 0 8 0;
#X connect 11 0 9 0;
#X connect 12 0 9 0;
#X connect 14 0 15 0;
#X connect 14 1 16 0;
#X connect 15 0 5 0;
#X connect 15 1 12 0;
#X connect 16 0 6 0;
#X connect 16 1 11 0;
#X connect 19 0 5 0;
#X connect 19 0 12 0;
#X restore 81 230 pd bypass~;
#X floatatom 178 161 5 0 0 0 - - -;
#X obj 214 -190 r \$0-time;
#X obj 424 -84 random 1000;
#X obj 424 -19 unsig~ 100;
#X obj 424 -102 bng 15 250 50 0 empty empty empty 17 7 0 10 -262144
-1 -1;
#X obj 422 49 * 100;
#X obj 420 72 + 20;
#X obj 266 -75 random 60;
#X obj 313 -52 random 50;
#X obj 215 -119 sel 0 10 11 12 13;
#X obj 207 -154 mod 21;
#X obj 424 -63 / 3000;
#X obj 421 22 + 1;
#X obj 423 -42 osc~;
#X obj 117 -27 loadbang;
#X msg 122 5 1;
#X connect 0 0 14 0;
#X connect 6 0 11 1;
#X connect 8 0 14 1;
#X connect 11 0 5 0;
#X connect 14 0 5 0;
#X connect 14 1 11 0;
#X connect 15 0 6 0;
#X connect 16 0 25 0;
#X connect 17 0 26 0;
#X connect 18 0 27 0;
#X connect 19 0 17 0;
#X connect 20 0 21 0;
#X connect 21 0 15 0;
#X connect 22 0 20 1;
#X connect 23 0 21 1;
#X connect 24 2 22 0;
#X connect 24 3 23 0;
#X connect 24 4 19 0;
#X connect 25 0 24 0;
#X connect 26 0 28 0;
#X connect 27 0 20 0;
#X connect 28 0 18 0;
#X connect 29 0 30 0;
#X connect 30 0 8 0;
#X restore 198 183 pd reverb;
#N canvas 0 22 1024 720 reverb 1;
#X obj 46 34 inlet~;
#X text 305 68 stream of incoming data values (0 - 100);
#X text 95 34 audio input;
#X text 45 488 one inlet~: audio data for processing;
#X text 43 522 one outlet~: processed audio;
#X obj 46 411 outlet~;
#X obj 263 88 clip 0 100;
#X text 103 410 audio output;
#X obj 162 161 tgl 15 0 empty empty empty 0 -6 0 8 -262144 -1 -1 1
1;
#X text 44 473 one user-specified value: on/off key assignment (\$1)
;
#X text 44 458 apply reverberation to input signal;
#N canvas 179 36 500 386 rev3-hacked~ 0;
#X obj 39 58 inlet;
#X obj 39 164 pack 0 50;
#X obj -27 290 outlet~;
#X obj 39 115 clip 0 100;
#N canvas -1760 74 1009 720 doit 0;
#X obj 218 386 *~;
#X obj 341 396 *~;
#X obj 267 389 *~;
#X obj 305 392 *~;
#X obj 28 175 lop~;
#X obj 27 204 -~;
#X obj 27 291 *~;
#X obj 16 319 +~;
#X obj 75 182 lop~;
#X obj 76 214 -~;
#X obj 77 294 *~;
#X obj 67 318 +~;
#X obj 124 187 lop~;
#X obj 124 214 -~;
#X obj 125 297 *~;
#X obj 116 322 +~;
#X obj 176 191 lop~;
#X obj 175 218 -~;
#X obj 175 301 *~;
#X obj 168 326 +~;
#X obj 15 372 *~;
#X obj 169 383 *~;
#X obj 67 376 *~;
#X obj 115 380 *~;
#X obj 183 271 line~;
#X obj 524 407 *~;
#X obj 631 409 *~;
#X obj 560 408 *~;
#X obj 595 409 *~;
#X obj 377 399 *~;
#X obj 488 406 *~;
#X obj 414 402 *~;
#X obj 451 405 *~;
#X obj 654 354 line~;
#X obj 25 346 inlet~;
#X obj 69 440 +~;
#X obj 105 440 -~;
#X obj 141 440 +~;
#X obj 177 440 -~;
#X obj 214 440 +~;
#X obj 250 440 -~;
#X obj 286 440 +~;
#X obj 322 440 -~;
#X obj 359 440 +~;
#X obj 395 440 -~;
#X obj 431 440 +~;
#X obj 467 440 -~;
#X obj 504 440 +~;
#X obj 540 440 -~;
#X obj 576 440 +~;
#X obj 612 440 -~;
#X obj 69 474 +~;
#X obj 177 474 -~;
#X obj 105 474 +~;
#X obj 141 474 -~;
#X obj 214 474 +~;
#X obj 322 474 -~;
#X obj 250 474 +~;
#X obj 286 474 -~;
#X obj 359 474 +~;
#X obj 467 474 -~;
#X obj 395 474 +~;
#X obj 431 474 -~;
#X obj 504 474 +~;
#X obj 612 474 -~;
#X obj 540 474 +~;
#X obj 576 474 -~;
#X obj 69 518 +~;
#X obj 105 518 +~;
#X obj 322 518 -~;
#X obj 286 518 -~;
#X obj 141 518 +~;
#X obj 177 518 +~;
#X obj 214 518 -~;
#X obj 250 518 -~;
#X obj 360 518 +~;
#X obj 396 518 +~;
#X obj 613 518 -~;
#X obj 577 518 -~;
#X obj 432 518 +~;
#X obj 468 518 +~;
#X obj 505 518 -~;
#X obj 541 518 -~;
#X obj 70 575 +~;
#X obj 106 575 +~;
#X obj 469 575 -~;
#X obj 433 575 -~;
#X obj 142 575 +~;
#X obj 178 575 +~;
#X obj 361 575 -~;
#X obj 397 575 -~;
#X obj 215 575 +~;
#X obj 251 575 +~;
#X obj 287 575 +~;
#X obj 323 575 +~;
#X obj 614 575 -~;
#X obj 578 575 -~;
#X obj 506 575 -~;
#X obj 542 575 -~;
#X obj 628 606 outlet~;
#X obj 17 14 delread~ \$0-del41 10;
#X obj 68 35 delread~ \$0-del42 21.6356;
#X obj 117 56 delread~ \$0-del43 23.4567;
#X obj 171 77 delread~ \$0-del44 16.7345;
#X obj 218 100 delread~ \$0-del45 20.1862;
#X obj 267 121 delread~ \$0-del46 25.7417;
#X obj 304 142 delread~ \$0-del47 31.4693;
#X obj 341 163 delread~ \$0-del48 38.2944;
#X obj 376 184 delread~ \$0-del49 46.6838;
#X obj 414 205 delread~ \$0-del50 55.4567;
#X obj 451 226 delread~ \$0-del51 65.1755;
#X obj 488 247 delread~ \$0-del52 76.8243;
#X obj 524 268 delread~ \$0-del53 88.5623;
#X obj 561 289 delread~ \$0-del54 101.278;
#X obj 595 310 delread~ \$0-del55 115.397;
#X obj 632 331 delread~ \$0-del56 130.502;
#X obj 708 386 r \$0-fb4;
#X obj 207 160 r \$0-lop4;
#X obj 183 246 r \$0-damp4;
#X obj 71 761 delwrite~ \$0-del41 10;
#X obj 106 737 delwrite~ \$0-del42 11.6356;
#X obj 141 715 delwrite~ \$0-del43 13.4567;
#X obj 179 693 delwrite~ \$0-del44 16.7345;
#X obj 215 672 delwrite~ \$0-del45 20.1862;
#X obj 252 650 delwrite~ \$0-del46 25.7417;
#X obj 287 628 delwrite~ \$0-del47 31.4693;
#X obj 323 606 delwrite~ \$0-del48 38.2944;
#X obj 361 776 delwrite~ \$0-del49 46.6838;
#X obj 398 755 delwrite~ \$0-del50 55.4567;
#X obj 434 734 delwrite~ \$0-del51 65.1755;
#X obj 470 713 delwrite~ \$0-del52 76.8243;
#X obj 506 692 delwrite~ \$0-del53 88.5623;
#X obj 542 671 delwrite~ \$0-del54 101.278;
#X obj 579 650 delwrite~ \$0-del55 115.397;
#X obj 614 629 delwrite~ \$0-del56 130.502;
#X connect 0 0 39 0;
#X connect 0 0 40 0;
#X connect 1 0 41 1;
#X connect 1 0 42 1;
#X connect 2 0 39 1;
#X connect 2 0 40 1;
#X connect 3 0 41 0;
#X connect 3 0 42 0;
#X connect 4 0 5 0;
#X connect 5 0 6 0;
#X connect 6 0 7 1;
#X connect 7 0 20 0;
#X connect 8 0 9 0;
#X connect 9 0 10 0;
#X connect 10 0 11 1;
#X connect 11 0 22 0;
#X connect 12 0 13 0;
#X connect 13 0 14 0;
#X connect 14 0 15 1;
#X connect 15 0 23 0;
#X connect 16 0 17 0;
#X connect 17 0 18 0;
#X connect 18 0 19 1;
#X connect 19 0 21 0;
#X connect 20 0 35 0;
#X connect 20 0 36 0;
#X connect 21 0 37 1;
#X connect 21 0 38 1;
#X connect 22 0 36 1;
#X connect 22 0 35 1;
#X connect 23 0 37 0;
#X connect 23 0 38 0;
#X connect 24 0 18 1;
#X connect 24 0 14 1;
#X connect 24 0 10 1;
#X connect 24 0 6 1;
#X connect 25 0 47 0;
#X connect 25 0 48 0;
#X connect 26 0 49 1;
#X connect 26 0 50 1;
#X connect 27 0 47 1;
#X connect 27 0 48 1;
#X connect 28 0 49 0;
#X connect 28 0 50 0;
#X connect 29 0 43 0;
#X connect 29 0 44 0;
#X connect 30 0 45 1;
#X connect 30 0 46 1;
#X connect 31 0 43 1;
#X connect 31 0 44 1;
#X connect 32 0 45 0;
#X connect 32 0 46 0;
#X connect 33 0 2 1;
#X connect 33 0 0 1;
#X connect 33 0 3 1;
#X connect 33 0 1 1;
#X connect 33 0 21 1;
#X connect 33 0 23 1;
#X connect 33 0 22 1;
#X connect 33 0 20 1;
#X connect 33 0 29 1;
#X connect 33 0 32 1;
#X connect 33 0 30 1;
#X connect 33 0 25 1;
#X connect 33 0 27 1;
#X connect 33 0 28 1;
#X connect 33 0 26 1;
#X connect 33 0 31 1;
#X connect 34 0 20 0;
#X connect 35 0 51 0;
#X connect 35 0 54 0;
#X connect 36 0 53 0;
#X connect 36 0 52 0;
#X connect 37 0 51 1;
#X connect 37 0 54 1;
#X connect 38 0 53 1;
#X connect 38 0 52 1;
#X connect 39 0 55 0;
#X connect 39 0 58 0;
#X connect 40 0 57 0;
#X connect 40 0 56 0;
#X connect 41 0 55 1;
#X connect 41 0 58 1;
#X connect 42 0 57 1;
#X connect 42 0 56 1;
#X connect 43 0 59 0;
#X connect 43 0 62 0;
#X connect 44 0 61 0;
#X connect 44 0 60 0;
#X connect 45 0 59 1;
#X connect 45 0 62 1;
#X connect 46 0 61 1;
#X connect 46 0 60 1;
#X connect 47 0 63 0;
#X connect 47 0 66 0;
#X connect 48 0 65 0;
#X connect 48 0 64 0;
#X connect 49 0 63 1;
#X connect 49 0 66 1;
#X connect 50 0 65 1;
#X connect 50 0 64 1;
#X connect 51 0 67 0;
#X connect 51 0 73 0;
#X connect 52 0 72 0;
#X connect 52 0 69 0;
#X connect 53 0 68 0;
#X connect 53 0 74 0;
#X connect 54 0 71 0;
#X connect 54 0 70 0;
#X connect 55 0 67 1;
#X connect 55 0 73 1;
#X connect 56 0 72 1;
#X connect 56 0 69 1;
#X connect 57 0 68 1;
#X connect 57 0 74 1;
#X connect 58 0 71 1;
#X connect 58 0 70 1;
#X connect 59 0 75 0;
#X connect 59 0 81 0;
#X connect 60 0 80 0;
#X connect 60 0 77 0;
#X connect 61 0 76 0;
#X connect 61 0 82 0;
#X connect 62 0 79 0;
#X connect 62 0 78 0;
#X connect 63 0 75 1;
#X connect 63 0 81 1;
#X connect 64 0 80 1;
#X connect 64 0 77 1;
#X connect 65 0 76 1;
#X connect 65 0 82 1;
#X connect 66 0 79 1;
#X connect 66 0 78 1;
#X connect 67 0 83 0;
#X connect 67 0 89 0;
#X connect 68 0 84 0;
#X connect 68 0 90 0;
#X connect 69 0 94 0;
#X connect 69 0 95 0;
#X connect 70 0 93 0;
#X connect 70 0 96 0;
#X connect 71 0 87 0;
#X connect 71 0 86 0;
#X connect 72 0 88 0;
#X connect 72 0 85 0;
#X connect 73 0 91 0;
#X connect 73 0 97 0;
#X connect 74 0 92 0;
#X connect 74 0 98 0;
#X connect 75 0 89 1;
#X connect 75 0 83 1;
#X connect 76 0 90 1;
#X connect 76 0 84 1;
#X connect 77 0 95 1;
#X connect 77 0 94 1;
#X connect 78 0 96 1;
#X connect 78 0 93 1;
#X connect 79 0 86 1;
#X connect 79 0 87 1;
#X connect 80 0 85 1;
#X connect 80 0 88 1;
#X connect 81 0 97 1;
#X connect 81 0 91 1;
#X connect 82 0 98 1;
#X connect 82 0 92 1;
#X connect 83 0 119 0;
#X connect 84 0 120 0;
#X connect 85 0 130 0;
#X connect 86 0 129 0;
#X connect 87 0 121 0;
#X connect 88 0 122 0;
#X connect 89 0 127 0;
#X connect 90 0 128 0;
#X connect 91 0 123 0;
#X connect 92 0 124 0;
#X connect 93 0 125 0;
#X connect 94 0 126 0;
#X connect 95 0 134 0;
#X connect 96 0 133 0;
#X connect 97 0 99 0;
#X connect 97 0 131 0;
#X connect 98 0 132 0;
#X connect 100 0 4 0;
#X connect 100 0 5 1;
#X connect 100 0 7 0;
#X connect 101 0 8 0;
#X connect 101 0 9 1;
#X connect 101 0 11 0;
#X connect 102 0 15 0;
#X connect 102 0 12 0;
#X connect 102 0 13 1;
#X connect 103 0 19 0;
#X connect 103 0 17 1;
#X connect 103 0 16 0;
#X connect 104 0 0 0;
#X connect 105 0 2 0;
#X connect 106 0 3 0;
#X connect 107 0 1 0;
#X connect 108 0 29 0;
#X connect 109 0 31 0;
#X connect 110 0 32 0;
#X connect 111 0 30 0;
#X connect 112 0 25 0;
#X connect 113 0 27 0;
#X connect 114 0 28 0;
#X connect 115 0 26 0;
#X connect 116 0 33 0;
#X connect 117 0 16 1;
#X connect 117 0 12 1;
#X connect 117 0 8 1;
#X connect 117 0 4 1;
#X connect 118 0 24 0;
#X restore -27 198 pd doit;
#X obj -27 36 inlet~;
#X obj 39 140 / 400;
#X text 42 290 abused version of Miller Puckette's rev3~;
#X obj 131 144 loadbang;
#X msg 131 201 3000;
#X msg 198 200 0.2;
#X obj 131 165 t b b;
#X text 85 58 liveness \, 0-100 \, usually between 85 and 100;
#X text 24 36 audio input;
#X obj 39 194 s \$0-fb4;
#X obj 131 224 s \$0-lop4;
#X obj 198 224 s \$0-damp4;
#X connect 0 0 3 0;
#X connect 1 0 14 0;
#X connect 3 0 6 0;
#X connect 4 0 2 0;
#X connect 5 0 4 0;
#X connect 6 0 1 0;
#X connect 8 0 11 0;
#X connect 9 0 15 0;
#X connect 10 0 16 0;
#X connect 11 0 9 0;
#X connect 11 1 10 0;
#X restore 195 278 pd rev3-hacked~ 100 90 3000 20;
#X text 45 502 one inlet: values interpreted as liveliness %;
#X text 45 444 sfx-reverb~.pd;
#N canvas 0 22 450 300 bypass~ 0;
#X obj 35 32 inlet~;
#X obj 251 35 inlet;
#X obj 35 279 outlet~;
#X obj 51 227 line~;
#X obj 35 252 *~;
#X msg 51 195 1 5;
#X msg 84 195 0 5;
#X text 84 32 audio input;
#X obj 252 278 outlet~;
#X obj 268 226 line~;
#X obj 252 251 *~;
#X msg 268 194 1 5;
#X msg 301 194 0 5;
#X text 290 36 toggle (0/1);
#X obj 251 58 sel 0;
#X obj 238 92 t b b;
#X obj 281 92 t b b;
#X text 90 279 outlet for bypass;
#X text 310 278 outlet for processing;
#X obj 172 92 loadbang;
#X connect 0 0 4 0;
#X connect 0 0 10 0;
#X connect 1 0 14 0;
#X connect 3 0 4 1;
#X connect 4 0 2 0;
#X connect 5 0 3 0;
#X connect 6 0 3 0;
#X connect 9 0 10 1;
#X connect 10 0 8 0;
#X connect 11 0 9 0;
#X connect 12 0 9 0;
#X connect 14 0 15 0;
#X connect 14 1 16 0;
#X connect 15 0 5 0;
#X connect 15 1 12 0;
#X connect 16 0 6 0;
#X connect 16 1 11 0;
#X connect 19 0 5 0;
#X connect 19 0 12 0;
#X restore 81 230 pd bypass~;
#X floatatom 178 161 5 0 0 0 - - -;
#X obj 212 -178 r \$0-time;
#X obj 424 -84 random 1000;
#X obj 424 -19 unsig~ 100;
#X obj 424 -102 bng 15 250 50 0 empty empty empty 17 7 0 10 -262144
-1 -1;
#X obj 424 23 * 100;
#X obj 422 46 + 20;
#X obj 266 -75 random 60;
#X obj 313 -52 random 50;
#X obj 215 -119 sel 0 10 11 12 13;
#X obj 216 -146 mod 14;
#X obj 424 -63 / 5000;
#X obj 424 -41 osc~;
#X obj 425 2 + 1;
#X obj 127 -17 loadbang;
#X msg 132 15 1;
#X connect 0 0 14 0;
#X connect 6 0 11 1;
#X connect 8 0 14 1;
#X connect 11 0 5 0;
#X connect 14 0 5 0;
#X connect 14 1 11 0;
#X connect 15 0 6 0;
#X connect 16 0 25 0;
#X connect 17 0 26 0;
#X connect 18 0 28 0;
#X connect 19 0 17 0;
#X connect 20 0 21 0;
#X connect 21 0 15 0;
#X connect 22 0 20 1;
#X connect 23 0 21 1;
#X connect 24 2 22 0;
#X connect 24 3 23 0;
#X connect 24 4 19 0;
#X connect 25 0 24 0;
#X connect 26 0 27 0;
#X connect 27 0 18 0;
#X connect 28 0 20 0;
#X connect 29 0 30 0;
#X connect 30 0 8 0;
#X restore 319 181 pd reverb;
#N canvas 0 22 1024 720 ringmod 0;
#X obj 46 34 inlet~;
#X text 253 40 stream of incoming data values (0 - 100);
#X text 95 34 audio input;
#X text 43 383 one inlet~: audio data for processing;
#X text 43 411 one outlet~: processed audio;
#X text 43 397 one inlet: values interpreted as MIDI pitches (0-100)
;
#X obj 46 311 outlet~;
#X obj 211 208 line~;
#X obj 211 189 pack;
#X msg 234 163 5;
#X obj 211 101 mtof;
#X obj 211 60 clip 0 100;
#X text 103 310 audio output;
#X obj 162 161 tgl 15 0 empty empty empty 0 -6 0 8 -262144 -1 -1 1
1;
#X text 42 353 ring modulate an input signal;
#X text 43 339 milo-sfx-ringmod~.pd;
#X obj 195 250 *~;
#X obj 211 230 osc~;
#X obj 211 122 t f b;
#X obj 211 79 t f f;
#X text 42 368 one user-specified value: on/off key assignment;
#X obj 245 101 s pitch-report;
#N canvas 0 22 450 300 bypass~ 0;
#X obj 35 32 inlet~;
#X obj 251 35 inlet;
#X obj 35 279 outlet~;
#X obj 51 227 line~;
#X obj 35 252 *~;
#X msg 51 195 1 5;
#X msg 84 195 0 5;
#X text 84 32 audio input;
#X obj 252 278 outlet~;
#X obj 268 226 line~;
#X obj 252 251 *~;
#X msg 268 194 1 5;
#X msg 301 194 0 5;
#X text 290 36 toggle (0/1);
#X obj 251 58 sel 0;
#X obj 238 92 t b b;
#X obj 281 92 t b b;
#X text 90 279 outlet for bypass;
#X text 310 278 outlet for processing;
#X obj 172 92 loadbang;
#X connect 0 0 4 0;
#X connect 0 0 10 0;
#X connect 1 0 14 0;
#X connect 3 0 4 1;
#X connect 4 0 2 0;
#X connect 5 0 3 0;
#X connect 6 0 3 0;
#X connect 9 0 10 1;
#X connect 10 0 8 0;
#X connect 11 0 9 0;
#X connect 12 0 9 0;
#X connect 14 0 15 0;
#X connect 14 1 16 0;
#X connect 15 0 5 0;
#X connect 15 1 12 0;
#X connect 16 0 6 0;
#X connect 16 1 11 0;
#X connect 19 0 5 0;
#X connect 19 0 12 0;
#X restore 70 227 pd bypass~;
#X floatatom 178 161 5 0 0 0 - - -;
#X obj 212 -150 r \$0-time;
#X obj 213 -109 mod 32;
#X obj 214 -82 sel 0 16;
#X obj 137 -46 random 2;
#X obj 137 -28 sel 0 1;
#X msg 129 2 0;
#X msg 165 4 1;
#X obj 217 -42 random 80;
#X obj 218 -20 + 20;
#X connect 0 0 22 0;
#X connect 7 0 17 0;
#X connect 8 0 7 0;
#X connect 9 0 8 1;
#X connect 10 0 18 0;
#X connect 11 0 19 0;
#X connect 13 0 22 1;
#X connect 16 0 6 0;
#X connect 17 0 16 1;
#X connect 18 0 8 0;
#X connect 18 1 9 0;
#X connect 19 0 10 0;
#X connect 19 1 21 0;
#X connect 22 0 6 0;
#X connect 22 1 16 0;
#X connect 23 0 11 0;
#X connect 24 0 25 0;
#X connect 25 0 26 0;
#X connect 26 0 27 0;
#X connect 26 1 31 0;
#X connect 27 0 28 0;
#X connect 28 0 29 0;
#X connect 28 1 30 0;
#X connect 29 0 13 0;
#X connect 30 0 13 0;
#X connect 31 0 32 0;
#X connect 32 0 23 0;
#X restore 77 120 pd ringmod;
#N canvas 0 22 1024 720 ringmod 0;
#X obj 46 34 inlet~;
#X text 253 40 stream of incoming data values (0 - 100);
#X text 95 34 audio input;
#X text 43 383 one inlet~: audio data for processing;
#X text 43 411 one outlet~: processed audio;
#X text 43 397 one inlet: values interpreted as MIDI pitches (0-100)
;
#X obj 46 311 outlet~;
#X obj 211 208 line~;
#X obj 211 189 pack;
#X msg 234 163 5;
#X obj 211 101 mtof;
#X obj 211 60 clip 0 100;
#X text 103 310 audio output;
#X obj 162 161 tgl 15 0 empty empty empty 0 -6 0 8 -262144 -1 -1 1
1;
#X text 42 353 ring modulate an input signal;
#X text 43 339 milo-sfx-ringmod~.pd;
#X obj 195 250 *~;
#X obj 211 230 osc~;
#X obj 211 122 t f b;
#X obj 211 79 t f f;
#X text 42 368 one user-specified value: on/off key assignment;
#N canvas 0 22 450 300 bypass~ 0;
#X obj 35 32 inlet~;
#X obj 251 35 inlet;
#X obj 35 279 outlet~;
#X obj 51 227 line~;
#X obj 35 252 *~;
#X msg 51 195 1 5;
#X msg 84 195 0 5;
#X text 84 32 audio input;
#X obj 252 278 outlet~;
#X obj 268 226 line~;
#X obj 252 251 *~;
#X msg 268 194 1 5;
#X msg 301 194 0 5;
#X text 290 36 toggle (0/1);
#X obj 251 58 sel 0;
#X obj 238 92 t b b;
#X obj 281 92 t b b;
#X text 90 279 outlet for bypass;
#X text 310 278 outlet for processing;
#X obj 172 92 loadbang;
#X connect 0 0 4 0;
#X connect 0 0 10 0;
#X connect 1 0 14 0;
#X connect 3 0 4 1;
#X connect 4 0 2 0;
#X connect 5 0 3 0;
#X connect 6 0 3 0;
#X connect 9 0 10 1;
#X connect 10 0 8 0;
#X connect 11 0 9 0;
#X connect 12 0 9 0;
#X connect 14 0 15 0;
#X connect 14 1 16 0;
#X connect 15 0 5 0;
#X connect 15 1 12 0;
#X connect 16 0 6 0;
#X connect 16 1 11 0;
#X connect 19 0 5 0;
#X connect 19 0 12 0;
#X restore 70 227 pd bypass~;
#X floatatom 178 161 5 0 0 0 - - -;
#X obj 212 -150 r \$0-time;
#X obj 213 -109 mod 32;
#X obj 214 -82 sel 0 16;
#X obj 137 -46 random 2;
#X obj 137 -28 sel 0 1;
#X msg 129 2 0;
#X msg 165 4 1;
#X obj 217 -42 random 100;
#X obj 218 -20 + 10;
#X obj 245 101 s pitch-report1;
#X connect 0 0 21 0;
#X connect 7 0 17 0;
#X connect 8 0 7 0;
#X connect 9 0 8 1;
#X connect 10 0 18 0;
#X connect 11 0 19 0;
#X connect 13 0 21 1;
#X connect 16 0 6 0;
#X connect 17 0 16 1;
#X connect 18 0 8 0;
#X connect 18 1 9 0;
#X connect 19 0 10 0;
#X connect 19 1 32 0;
#X connect 21 0 6 0;
#X connect 21 1 16 0;
#X connect 22 0 11 0;
#X connect 23 0 24 0;
#X connect 24 0 25 0;
#X connect 25 0 26 0;
#X connect 25 1 30 0;
#X connect 26 0 27 0;
#X connect 27 0 28 0;
#X connect 27 1 29 0;
#X connect 28 0 13 0;
#X connect 29 0 13 0;
#X connect 30 0 31 0;
#X connect 31 0 22 0;
#X restore 198 121 pd ringmod;
#N canvas 0 22 1024 720 ringmod 0;
#X obj 46 34 inlet~;
#X text 253 40 stream of incoming data values (0 - 100);
#X text 95 34 audio input;
#X text 43 383 one inlet~: audio data for processing;
#X text 43 411 one outlet~: processed audio;
#X text 43 397 one inlet: values interpreted as MIDI pitches (0-100)
;
#X obj 46 311 outlet~;
#X obj 211 208 line~;
#X obj 211 189 pack;
#X msg 234 163 5;
#X obj 211 101 mtof;
#X obj 211 60 clip 0 100;
#X text 103 310 audio output;
#X obj 162 161 tgl 15 0 empty empty empty 0 -6 0 8 -262144 -1 -1 1
1;
#X text 42 353 ring modulate an input signal;
#X text 43 339 milo-sfx-ringmod~.pd;
#X obj 195 250 *~;
#X obj 211 230 osc~;
#X obj 211 122 t f b;
#X obj 211 79 t f f;
#X text 42 368 one user-specified value: on/off key assignment;
#N canvas 0 22 450 300 bypass~ 0;
#X obj 35 32 inlet~;
#X obj 251 35 inlet;
#X obj 35 279 outlet~;
#X obj 51 227 line~;
#X obj 35 252 *~;
#X msg 51 195 1 5;
#X msg 84 195 0 5;
#X text 84 32 audio input;
#X obj 252 278 outlet~;
#X obj 268 226 line~;
#X obj 252 251 *~;
#X msg 268 194 1 5;
#X msg 301 194 0 5;
#X text 290 36 toggle (0/1);
#X obj 251 58 sel 0;
#X obj 238 92 t b b;
#X obj 281 92 t b b;
#X text 90 279 outlet for bypass;
#X text 310 278 outlet for processing;
#X obj 172 92 loadbang;
#X connect 0 0 4 0;
#X connect 0 0 10 0;
#X connect 1 0 14 0;
#X connect 3 0 4 1;
#X connect 4 0 2 0;
#X connect 5 0 3 0;
#X connect 6 0 3 0;
#X connect 9 0 10 1;
#X connect 10 0 8 0;
#X connect 11 0 9 0;
#X connect 12 0 9 0;
#X connect 14 0 15 0;
#X connect 14 1 16 0;
#X connect 15 0 5 0;
#X connect 15 1 12 0;
#X connect 16 0 6 0;
#X connect 16 1 11 0;
#X connect 19 0 5 0;
#X connect 19 0 12 0;
#X restore 70 227 pd bypass~;
#X floatatom 178 161 5 0 0 0 - - -;
#X obj 212 -150 r \$0-time;
#X obj 213 -109 mod 32;
#X obj 214 -82 sel 0 16;
#X obj 137 -46 random 2;
#X obj 137 -28 sel 0 1;
#X msg 129 2 0;
#X msg 165 4 1;
#X obj 218 -20 + 10;
#X obj 245 101 s pitch-report1;
#X obj 217 -42 random 70;
#X connect 0 0 21 0;
#X connect 7 0 17 0;
#X connect 8 0 7 0;
#X connect 9 0 8 1;
#X connect 10 0 18 0;
#X connect 11 0 19 0;
#X connect 13 0 21 1;
#X connect 16 0 6 0;
#X connect 17 0 16 1;
#X connect 18 0 8 0;
#X connect 18 1 9 0;
#X connect 19 0 10 0;
#X connect 19 1 31 0;
#X connect 21 0 6 0;
#X connect 21 1 16 0;
#X connect 22 0 11 0;
#X connect 23 0 24 0;
#X connect 24 0 25 0;
#X connect 25 0 26 0;
#X connect 25 1 32 0;
#X connect 26 0 27 0;
#X connect 27 0 28 0;
#X connect 27 1 29 0;
#X connect 28 0 13 0;
#X connect 29 0 13 0;
#X connect 30 0 22 0;
#X connect 32 0 30 0;
#X restore 319 119 pd ringmod;
#X obj 138 400 clip~ -0.9 0.9;
#X obj 266 402 clip~ -0.9 0.9;
#X obj 381 224 delwrite~ \$0-repeat 500;
#X obj 420 248 delwrite~ \$0-repeat1 100;
#X obj 451 276 delwrite~ \$0-repeat2 275;
#X obj 350 310 delread~ \$0-repeat 500;
#X obj 389 334 delread~ \$0-repeat1 100;
#X obj 420 362 delread~ \$0-repeat2 275;
#X obj 222 431 patchComs;
#X obj 222 458 switch~;
#X connect 0 0 10 0;
#X connect 0 1 11 0;
#X connect 0 2 12 0;
#X connect 1 0 4 0;
#X connect 2 0 5 0;
#X connect 3 0 6 0;
#X connect 4 0 7 0;
#X connect 5 0 8 0;
#X connect 6 0 9 0;
#X connect 7 0 13 0;
#X connect 7 0 14 0;
#X connect 7 0 15 0;
#X connect 7 0 16 0;
#X connect 7 0 17 0;
#X connect 8 0 13 0;
#X connect 8 0 14 0;
#X connect 8 0 15 0;
#X connect 8 0 16 0;
#X connect 8 0 17 0;
#X connect 9 0 13 0;
#X connect 9 0 14 0;
#X connect 9 0 15 0;
#X connect 9 0 16 0;
#X connect 9 0 17 0;
#X connect 10 0 1 0;
#X connect 11 0 2 0;
#X connect 12 0 3 0;
#X connect 13 0 21 0;
#X connect 14 0 21 1;
#X connect 18 0 13 0;
#X connect 18 0 14 0;
#X connect 19 0 13 0;
#X connect 19 0 14 0;
#X connect 20 0 13 0;
#X connect 20 0 14 0;
#X connect 21 0 22 0;
