#N canvas -1340 66 803 771 10;
#X obj 147 143 * 3.79;
#X floatatom 147 169 8 0 0 0 - - -;
#X obj 120 94 t f f;
#X obj 120 118 * -1;
#X obj 120 143 + 1;
#X obj 120 168 *;
#X floatatom 120 194 8 0 0 0 - - -;
#X floatatom 191 143 8 0 0 0 - - -;
#X obj 126 272 hsl 128 15 0 1 0 0 empty empty empty -2 -8 0 10 -262144
-260097 -1 10042 1;
#X obj 120 39 loadbang;
#X obj 183 115 hsl 128 15 3 4 0 0 empty empty lambda 20 8 0 10 -262144
-260097 -1 9906 1;
#X text 150 68 start value x[0];
#X obj 57 39 pipe 1000;
#X obj 30 110 bng 15 250 50 0 empty empty empty 17 7 0 10 -262144 -1
-1;
#X obj 30 132 i;
#X obj 30 161 + 1;
#X obj 30 189 % 3;
#X obj 30 216 sel 0 1 2;
#X floatatom 30 352 5 0 0 0 - - -;
#X floatatom 131 352 5 0 0 0 - - -;
#X floatatom 191 352 5 0 0 0 - - -;
#X obj 30 325 f;
#X obj 131 326 f;
#X obj 191 326 f;
#X floatatom 108 5 5 0 0 0 - - -;
#X text 145 4 speed;
#X obj 256 153 t f b;
#X obj 293 178 f 0;
#X obj 322 179 + 1;
#X obj 295 244 b;
#X obj 30 375 ftom;
#X obj 131 375 ftom;
#X obj 191 373 ftom;
#X obj 48 439 random 40;
#X obj 52 465 + 80;
#X obj 160 413 t f b;
#X obj 183 445 random 40;
#X obj 181 465 + 80;
#X obj 244 414 t f b;
#X obj 267 446 random 40;
#X obj 265 466 + 80;
#N canvas 0 22 650 482 glock 0;
#X obj -77 263 *~;
#N canvas 68 22 580 539 fm 0;
#X obj 194 274 osc~;
#X obj 225 179 osc~;
#X obj 194 254 +~;
#X obj 191 55 mtof~;
#X obj 194 378 *~ 0.2;
#X obj 227 211 *~;
#X obj 262 180 osc~;
#X obj 293 181 osc~;
#X obj 272 279 vline~;
#X obj 272 300 *~;
#X obj 272 321 *~;
#X obj 194 357 *~;
#X obj 357 130 vline~;
#X obj 357 151 *~;
#X obj 357 172 *~;
#X obj 295 159 *~ 1.8;
#X obj 259 159 *~ 3.9;
#X obj 217 160 *~ 1.3;
#X obj 95 181 osc~;
#X obj 97 213 *~;
#X obj 132 182 osc~;
#X obj 163 183 osc~;
#X obj 39 22 vline~;
#X obj 39 43 *~;
#X obj 39 64 *~;
#X obj 136 -43 t b b b f;
#X obj 96 160 *~ 2;
#X obj 129 161 *~ 3;
#X obj 165 161 *~ 1;
#X msg 39 0 1 400 \, 0 600 400;
#X msg 357 108 1 \, 0 200 10;
#X msg 272 259 1 10 \, 0 1900 10;
#X obj 136 -68 inlet;
#X obj 194 408 outlet~;
#X obj 357 193 *~ 1000;
#X obj 39 83 *~ 20;
#X connect 0 0 11 0;
#X connect 1 0 5 0;
#X connect 2 0 0 0;
#X connect 3 0 2 0;
#X connect 3 0 15 0;
#X connect 3 0 16 0;
#X connect 3 0 17 0;
#X connect 3 0 26 0;
#X connect 3 0 27 0;
#X connect 3 0 28 0;
#X connect 4 0 33 0;
#X connect 5 0 2 1;
#X connect 6 0 5 0;
#X connect 7 0 5 0;
#X connect 8 0 9 0;
#X connect 8 0 9 1;
#X connect 9 0 10 0;
#X connect 9 0 10 1;
#X connect 10 0 11 1;
#X connect 11 0 4 0;
#X connect 12 0 13 0;
#X connect 12 0 13 1;
#X connect 13 0 14 0;
#X connect 13 0 14 1;
#X connect 14 0 34 0;
#X connect 15 0 7 0;
#X connect 16 0 6 0;
#X connect 17 0 1 0;
#X connect 18 0 19 0;
#X connect 19 0 2 1;
#X connect 20 0 19 0;
#X connect 21 0 19 0;
#X connect 22 0 23 0;
#X connect 22 0 23 1;
#X connect 23 0 24 0;
#X connect 23 0 24 1;
#X connect 24 0 35 0;
#X connect 25 0 29 0;
#X connect 25 1 30 0;
#X connect 25 2 31 0;
#X connect 25 3 3 0;
#X connect 26 0 18 0;
#X connect 27 0 20 0;
#X connect 28 0 21 0;
#X connect 29 0 22 0;
#X connect 30 0 12 0;
#X connect 31 0 8 0;
#X connect 32 0 25 0;
#X connect 34 0 5 1;
#X connect 35 0 19 1;
#X restore -77 216 pd fm;
#X obj 105 302 *~ 0.6;
#X obj 66 201 hsl 128 15 0 1 0 0 empty empty empty -2 -8 0 10 -262144
-1 -1 10160 1;
#X obj -73 184 inlet;
#X obj 97 50 loadbang;
#X obj 105 279 delread~ glock1 500;
#X obj -77 347 delwrite~ glock1 900;
#X obj 104 444 outlet~ l;
#X msg 105 85 0.8;
#X obj 105 409 *~ 0.2;
#X connect 0 0 7 0;
#X connect 0 0 10 0;
#X connect 1 0 0 0;
#X connect 2 0 7 0;
#X connect 2 0 10 0;
#X connect 3 0 0 1;
#X connect 4 0 1 0;
#X connect 5 0 9 0;
#X connect 6 0 2 0;
#X connect 9 0 3 0;
#X connect 10 0 8 0;
#X restore 453 511 pd glock;
#X msg 120 68 0.9;
#X obj 397 318 + 3;
#X obj 395 267 random 100;
#X obj 394 288 / 100;
#X obj 297 224 sel 0;
#X obj 123 299 * 1500;
#N canvas 0 22 450 300 synthe 0;
#X obj 28 190 *~;
#X obj 26 291 outlet~;
#X obj 7 -74 inlet;
#X obj 61 -75 inlet;
#X obj 93 179 line~;
#X obj 93 116 t f b;
#X obj 11 13 s \$0-pitch;
#N canvas 149 35 644 500 phasedistortion 0;
#X obj 83 416 outlet~;
#X obj 123 342 line~;
#X obj 88 366 *~;
#X obj 393 103 line~;
#X obj 86 159 -~ 0.25;
#X obj 87 184 cos~;
#X obj 215 82 line~;
#X obj 86 136 +~;
#X obj 112 107 expr~ $v2*exp(-$v3*pow($v1-.5 \, 2));
#X obj 389 56 exp;
#X obj 389 8 * 5;
#X obj 390 31 + 3;
#X msg 392 78 \$1 5;
#X msg 216 56 \$1 5;
#X obj 216 35 * 4;
#X obj 54 -2 r \$0-pitch;
#X obj 123 294 exp;
#X obj 123 246 *;
#X obj 123 269 +;
#X obj 201 226 log;
#X obj 297 223 log;
#X obj 226 262 t b f;
#X obj 226 284 -;
#X obj 202 197 f 0.1;
#X obj 298 198 f 10;
#X msg 124 319 \$1 5;
#X text 352 147 guassian phase distortion algorithm;
#X text 362 166 by ugur guney;
#X obj 73 77 expr~ pow($v1 \, $v2);
#X obj 54 25 phasor~ 100;
#X obj 173 -4 - 1;
#X obj 174 18 * -1;
#X obj 171 -25 inlet squeeze;
#X obj 216 3 inlet height;
#X obj 386 -18 inlet width;
#X obj 201 169 loadbang;
#X obj 538 231 inlet;
#X connect 1 0 2 1;
#X connect 2 0 0 0;
#X connect 3 0 8 2;
#X connect 4 0 5 0;
#X connect 5 0 2 0;
#X connect 6 0 8 1;
#X connect 7 0 4 0;
#X connect 8 0 7 1;
#X connect 9 0 12 0;
#X connect 10 0 11 0;
#X connect 11 0 9 0;
#X connect 12 0 3 0;
#X connect 13 0 6 0;
#X connect 14 0 13 0;
#X connect 15 0 29 0;
#X connect 16 0 25 0;
#X connect 17 0 18 0;
#X connect 18 0 16 0;
#X connect 19 0 18 1;
#X connect 19 0 21 0;
#X connect 20 0 22 0;
#X connect 21 0 22 0;
#X connect 21 1 22 1;
#X connect 22 0 17 1;
#X connect 23 0 19 0;
#X connect 24 0 20 0;
#X connect 25 0 1 0;
#X connect 28 0 7 0;
#X connect 28 0 8 0;
#X connect 29 0 28 0;
#X connect 30 0 31 0;
#X connect 31 0 28 1;
#X connect 32 0 30 0;
#X connect 33 0 14 0;
#X connect 34 0 10 0;
#X connect 35 0 23 0;
#X connect 35 0 24 0;
#X connect 36 0 17 0;
#X restore 40 74 pd phasedistortion;
#X obj 114 -45 inlet;
#X obj 168 -46 inlet;
#X obj 229 -5 inlet;
#X obj 283 -6 inlet;
#X floatatom 232 76 5 0 0 0 - - -;
#X obj 314 75 loadbang;
#X obj 33 213 *~ 0.11;
#X obj 93 140 / 167;
#X msg 138 160 100;
#X obj 18 -33 mtof;
#X msg 317 99 1;
#X connect 0 0 14 0;
#X connect 2 0 17 0;
#X connect 3 0 5 0;
#X connect 4 0 0 1;
#X connect 5 0 15 0;
#X connect 5 1 16 0;
#X connect 7 0 0 0;
#X connect 8 0 7 0;
#X connect 9 0 7 1;
#X connect 10 0 7 2;
#X connect 11 0 7 3;
#X connect 12 0 7 3;
#X connect 13 0 18 0;
#X connect 14 0 1 0;
#X connect 15 0 4 0;
#X connect 16 0 4 1;
#X connect 17 0 6 0;
#X connect 18 0 12 0;
#X restore 162 618 pd synthe;
#X obj 36 573 makenote;
#X obj 30 404 t f b b b b b;
#X obj 173 570 pack f f;
#X obj 255 577 pack f f;
#X obj 341 574 pack f f;
#X obj 293 201 mod 32;
#X obj 392 367 line 100;
#X obj 390 347 pack f 2000;
#X obj 183 514 random 500;
#X obj 183 541 / 500;
#X obj 265 521 random 500;
#X obj 265 548 / 500;
#X obj 351 518 random 500;
#X obj 351 545 / 500;
#N canvas 0 22 1024 720 rev 0;
#X obj 226 209 inlet;
#X obj 56 44 inlet~;
#X text 268 209 stream of incoming data values (0 - 100);
#X text 105 44 audio input;
#X text 55 498 one inlet~: audio data for processing;
#X text 53 532 one outlet~: processed audio;
#X obj 56 421 outlet~;
#X obj 226 229 clip 0 100;
#X text 113 420 audio output;
#X text 54 483 one user-specified value: on/off key assignment (\$1)
;
#X text 54 468 apply reverberation to input signal;
#N canvas 179 36 500 386 rev3-hacked~ 0;
#X obj 39 58 inlet;
#X obj 39 164 pack 0 50;
#X obj -27 290 outlet~;
#X obj 39 115 clip 0 100;
#X obj 131 224 s \$0-lop;
#N canvas 169 45 927 813 doit 0;
#X obj 218 386 *~;
#X obj 341 396 *~;
#X obj 267 389 *~;
#X obj 305 392 *~;
#X obj 28 175 lop~;
#X obj 27 204 -~;
#X obj 27 291 *~;
#X obj 16 319 +~;
#X obj 75 182 lop~;
#X obj 76 214 -~;
#X obj 77 294 *~;
#X obj 67 318 +~;
#X obj 124 187 lop~;
#X obj 124 214 -~;
#X obj 125 297 *~;
#X obj 116 322 +~;
#X obj 176 191 lop~;
#X obj 175 218 -~;
#X obj 175 301 *~;
#X obj 168 326 +~;
#X obj 15 372 *~;
#X obj 169 383 *~;
#X obj 67 376 *~;
#X obj 115 380 *~;
#X obj 207 160 r \$0-lop;
#X obj 183 246 r \$0-damp;
#X obj 183 271 line~;
#X obj 17 14 delread~ \$0-del1 10;
#X obj 117 56 delread~ \$0-del3 13.4567;
#X obj 68 35 delread~ \$0-del2 11.6356;
#X obj 171 77 delread~ \$0-del4 16.7345;
#X obj 524 407 *~;
#X obj 631 409 *~;
#X obj 560 408 *~;
#X obj 595 409 *~;
#X obj 377 399 *~;
#X obj 488 406 *~;
#X obj 414 402 *~;
#X obj 451 405 *~;
#X obj 654 354 line~;
#X obj 708 387 r \$0-fb;
#X obj 218 100 delread~ \$0-del5 20.1862;
#X obj 267 121 delread~ \$0-del6 25.7417;
#X obj 304 142 delread~ \$0-del7 31.4693;
#X obj 341 163 delread~ \$0-del8 38.2944;
#X obj 376 184 delread~ \$0-del9 46.6838;
#X obj 414 205 delread~ \$0-del10 55.4567;
#X obj 488 247 delread~ \$0-del12 76.8243;
#X obj 524 268 delread~ \$0-del13 88.5623;
#X obj 561 289 delread~ \$0-del14 101.278;
#X obj 595 310 delread~ \$0-del15 115.397;
#X obj 632 331 delread~ \$0-del16 130.502;
#X obj 25 346 inlet~;
#X obj 69 440 +~;
#X obj 105 440 -~;
#X obj 141 440 +~;
#X obj 177 440 -~;
#X obj 214 440 +~;
#X obj 250 440 -~;
#X obj 286 440 +~;
#X obj 322 440 -~;
#X obj 359 440 +~;
#X obj 395 440 -~;
#X obj 431 440 +~;
#X obj 467 440 -~;
#X obj 504 440 +~;
#X obj 540 440 -~;
#X obj 576 440 +~;
#X obj 612 440 -~;
#X obj 69 474 +~;
#X obj 177 474 -~;
#X obj 105 474 +~;
#X obj 141 474 -~;
#X obj 214 474 +~;
#X obj 322 474 -~;
#X obj 250 474 +~;
#X obj 286 474 -~;
#X obj 359 474 +~;
#X obj 467 474 -~;
#X obj 395 474 +~;
#X obj 431 474 -~;
#X obj 504 474 +~;
#X obj 612 474 -~;
#X obj 540 474 +~;
#X obj 576 474 -~;
#X obj 69 518 +~;
#X obj 105 518 +~;
#X obj 322 518 -~;
#X obj 286 518 -~;
#X obj 141 518 +~;
#X obj 177 518 +~;
#X obj 214 518 -~;
#X obj 250 518 -~;
#X obj 360 518 +~;
#X obj 396 518 +~;
#X obj 613 518 -~;
#X obj 577 518 -~;
#X obj 432 518 +~;
#X obj 468 518 +~;
#X obj 505 518 -~;
#X obj 541 518 -~;
#X obj 70 575 +~;
#X obj 106 575 +~;
#X obj 469 575 -~;
#X obj 433 575 -~;
#X obj 142 575 +~;
#X obj 178 575 +~;
#X obj 361 575 -~;
#X obj 397 575 -~;
#X obj 215 575 +~;
#X obj 251 575 +~;
#X obj 287 575 +~;
#X obj 323 575 +~;
#X obj 614 575 -~;
#X obj 578 575 -~;
#X obj 506 575 -~;
#X obj 542 575 -~;
#X obj 628 606 outlet~;
#X obj 451 226 delread~ \$0-del11 65.1755;
#X obj 614 629 delwrite~ \$0-del16 130.502;
#X obj 361 776 delwrite~ \$0-del9 46.6838;
#X obj 398 755 delwrite~ \$0-del10 55.4567;
#X obj 434 734 delwrite~ \$0-del11 65.1755;
#X obj 470 713 delwrite~ \$0-del12 76.8243;
#X obj 506 692 delwrite~ \$0-del13 88.5623;
#X obj 542 671 delwrite~ \$0-del14 101.278;
#X obj 579 650 delwrite~ \$0-del15 115.397;
#X obj 323 606 delwrite~ \$0-del8 38.2944;
#X obj 287 628 delwrite~ \$0-del7 31.4693;
#X obj 252 650 delwrite~ \$0-del6 25.7417;
#X obj 215 672 delwrite~ \$0-del5 20.1862;
#X obj 71 761 delwrite~ \$0-del1 10;
#X obj 106 737 delwrite~ \$0-del2 11.6356;
#X obj 141 715 delwrite~ \$0-del3 13.4567;
#X obj 179 693 delwrite~ \$0-del4 16.7345;
#X connect 0 0 57 0;
#X connect 0 0 58 0;
#X connect 1 0 59 1;
#X connect 1 0 60 1;
#X connect 2 0 57 1;
#X connect 2 0 58 1;
#X connect 3 0 59 0;
#X connect 3 0 60 0;
#X connect 4 0 5 0;
#X connect 5 0 6 0;
#X connect 6 0 7 1;
#X connect 7 0 20 0;
#X connect 8 0 9 0;
#X connect 9 0 10 0;
#X connect 10 0 11 1;
#X connect 11 0 22 0;
#X connect 12 0 13 0;
#X connect 13 0 14 0;
#X connect 14 0 15 1;
#X connect 15 0 23 0;
#X connect 16 0 17 0;
#X connect 17 0 18 0;
#X connect 18 0 19 1;
#X connect 19 0 21 0;
#X connect 20 0 53 0;
#X connect 20 0 54 0;
#X connect 21 0 55 1;
#X connect 21 0 56 1;
#X connect 22 0 54 1;
#X connect 22 0 53 1;
#X connect 23 0 55 0;
#X connect 23 0 56 0;
#X connect 24 0 16 1;
#X connect 24 0 12 1;
#X connect 24 0 8 1;
#X connect 24 0 4 1;
#X connect 25 0 26 0;
#X connect 26 0 18 1;
#X connect 26 0 14 1;
#X connect 26 0 10 1;
#X connect 26 0 6 1;
#X connect 27 0 4 0;
#X connect 27 0 5 1;
#X connect 27 0 7 0;
#X connect 28 0 15 0;
#X connect 28 0 12 0;
#X connect 28 0 13 1;
#X connect 29 0 8 0;
#X connect 29 0 9 1;
#X connect 29 0 11 0;
#X connect 30 0 19 0;
#X connect 30 0 17 1;
#X connect 30 0 16 0;
#X connect 31 0 65 0;
#X connect 31 0 66 0;
#X connect 32 0 67 1;
#X connect 32 0 68 1;
#X connect 33 0 65 1;
#X connect 33 0 66 1;
#X connect 34 0 67 0;
#X connect 34 0 68 0;
#X connect 35 0 61 0;
#X connect 35 0 62 0;
#X connect 36 0 63 1;
#X connect 36 0 64 1;
#X connect 37 0 61 1;
#X connect 37 0 62 1;
#X connect 38 0 63 0;
#X connect 38 0 64 0;
#X connect 39 0 2 1;
#X connect 39 0 0 1;
#X connect 39 0 3 1;
#X connect 39 0 1 1;
#X connect 39 0 21 1;
#X connect 39 0 23 1;
#X connect 39 0 22 1;
#X connect 39 0 20 1;
#X connect 39 0 35 1;
#X connect 39 0 38 1;
#X connect 39 0 36 1;
#X connect 39 0 31 1;
#X connect 39 0 33 1;
#X connect 39 0 34 1;
#X connect 39 0 32 1;
#X connect 39 0 37 1;
#X connect 40 0 39 0;
#X connect 41 0 0 0;
#X connect 42 0 2 0;
#X connect 43 0 3 0;
#X connect 44 0 1 0;
#X connect 45 0 35 0;
#X connect 46 0 37 0;
#X connect 47 0 36 0;
#X connect 48 0 31 0;
#X connect 49 0 33 0;
#X connect 50 0 34 0;
#X connect 51 0 32 0;
#X connect 52 0 20 0;
#X connect 53 0 69 0;
#X connect 53 0 72 0;
#X connect 54 0 71 0;
#X connect 54 0 70 0;
#X connect 55 0 69 1;
#X connect 55 0 72 1;
#X connect 56 0 71 1;
#X connect 56 0 70 1;
#X connect 57 0 73 0;
#X connect 57 0 76 0;
#X connect 58 0 75 0;
#X connect 58 0 74 0;
#X connect 59 0 73 1;
#X connect 59 0 76 1;
#X connect 60 0 75 1;
#X connect 60 0 74 1;
#X connect 61 0 77 0;
#X connect 61 0 80 0;
#X connect 62 0 79 0;
#X connect 62 0 78 0;
#X connect 63 0 77 1;
#X connect 63 0 80 1;
#X connect 64 0 79 1;
#X connect 64 0 78 1;
#X connect 65 0 81 0;
#X connect 65 0 84 0;
#X connect 66 0 83 0;
#X connect 66 0 82 0;
#X connect 67 0 81 1;
#X connect 67 0 84 1;
#X connect 68 0 83 1;
#X connect 68 0 82 1;
#X connect 69 0 85 0;
#X connect 69 0 91 0;
#X connect 70 0 90 0;
#X connect 70 0 87 0;
#X connect 71 0 86 0;
#X connect 71 0 92 0;
#X connect 72 0 89 0;
#X connect 72 0 88 0;
#X connect 73 0 85 1;
#X connect 73 0 91 1;
#X connect 74 0 90 1;
#X connect 74 0 87 1;
#X connect 75 0 86 1;
#X connect 75 0 92 1;
#X connect 76 0 89 1;
#X connect 76 0 88 1;
#X connect 77 0 93 0;
#X connect 77 0 99 0;
#X connect 78 0 98 0;
#X connect 78 0 95 0;
#X connect 79 0 94 0;
#X connect 79 0 100 0;
#X connect 80 0 97 0;
#X connect 80 0 96 0;
#X connect 81 0 93 1;
#X connect 81 0 99 1;
#X connect 82 0 98 1;
#X connect 82 0 95 1;
#X connect 83 0 94 1;
#X connect 83 0 100 1;
#X connect 84 0 97 1;
#X connect 84 0 96 1;
#X connect 85 0 101 0;
#X connect 85 0 107 0;
#X connect 86 0 102 0;
#X connect 86 0 108 0;
#X connect 87 0 112 0;
#X connect 87 0 113 0;
#X connect 88 0 111 0;
#X connect 88 0 114 0;
#X connect 89 0 105 0;
#X connect 89 0 104 0;
#X connect 90 0 106 0;
#X connect 90 0 103 0;
#X connect 91 0 109 0;
#X connect 91 0 115 0;
#X connect 92 0 110 0;
#X connect 92 0 116 0;
#X connect 93 0 107 1;
#X connect 93 0 101 1;
#X connect 94 0 108 1;
#X connect 94 0 102 1;
#X connect 95 0 113 1;
#X connect 95 0 112 1;
#X connect 96 0 114 1;
#X connect 96 0 111 1;
#X connect 97 0 104 1;
#X connect 97 0 105 1;
#X connect 98 0 103 1;
#X connect 98 0 106 1;
#X connect 99 0 115 1;
#X connect 99 0 109 1;
#X connect 100 0 116 1;
#X connect 100 0 110 1;
#X connect 101 0 131 0;
#X connect 102 0 132 0;
#X connect 103 0 123 0;
#X connect 104 0 122 0;
#X connect 105 0 133 0;
#X connect 106 0 134 0;
#X connect 107 0 120 0;
#X connect 108 0 121 0;
#X connect 109 0 130 0;
#X connect 110 0 129 0;
#X connect 111 0 128 0;
#X connect 112 0 127 0;
#X connect 113 0 119 0;
#X connect 114 0 126 0;
#X connect 115 0 117 0;
#X connect 115 0 124 0;
#X connect 116 0 125 0;
#X connect 118 0 38 0;
#X restore -27 198 pd doit;
#X obj -27 36 inlet~;
#X obj 39 194 s \$0-fb;
#X obj 198 224 s \$0-damp;
#X obj 39 140 / 400;
#X text 42 290 abused version of Miller Puckette's rev3~;
#X obj 131 144 loadbang;
#X msg 131 201 3000;
#X msg 198 200 0.2;
#X obj 131 165 t b b;
#X text 85 58 liveness \, 0-100 \, usually between 85 and 100;
#X text 24 36 audio input;
#X connect 0 0 3 0;
#X connect 1 0 7 0;
#X connect 3 0 9 0;
#X connect 5 0 2 0;
#X connect 6 0 5 0;
#X connect 9 0 1 0;
#X connect 11 0 14 0;
#X connect 12 0 4 0;
#X connect 13 0 8 0;
#X connect 14 0 12 0;
#X connect 14 1 13 0;
#X restore 205 288 pd rev3-hacked~ 100 90 3000 20;
#X text 55 512 one inlet: values interpreted as liveliness %;
#X text 55 454 sfx-reverb~.pd;
#X connect 0 0 7 0;
#X connect 1 0 11 0;
#X connect 7 0 11 1;
#X connect 11 0 6 0;
#X restore 171 648 pd rev;
#X floatatom 329 630 5 0 0 0 - - -;
#X obj 490 554 osc~ 0.11;
#X obj 489 582 unsig~ 20;
#X obj 493 602 + 1;
#X obj 481 274 random 1000;
#X floatatom 533 353 5 0 0 0 - - -;
#X obj 274 336 line 100;
#X obj 489 645 + 75;
#X obj 490 622 * 10;
#X obj 479 295 / 1000;
#X obj 92 498 random 500;
#X obj 92 525 + 50;
#X obj 126 218 t f b;
#X obj 172 228 pack f f;
#X obj 168 250 line;
#X obj 172 209 random 1000;
#X obj 293 289 + 150;
#X obj 295 268 random 200;
#X obj 272 316 pack f 4000;
#X obj 114 680 patchComs;
#X obj 114 707 switch~;
#X connect 0 0 5 1;
#X connect 0 0 1 0;
#X connect 2 0 3 0;
#X connect 2 1 0 0;
#X connect 3 0 4 0;
#X connect 4 0 5 0;
#X connect 5 0 6 0;
#X connect 6 0 26 0;
#X connect 6 0 76 0;
#X connect 8 0 47 0;
#X connect 9 0 42 0;
#X connect 10 0 0 1;
#X connect 10 0 7 0;
#X connect 12 0 2 0;
#X connect 12 0 13 0;
#X connect 13 0 14 0;
#X connect 14 0 15 0;
#X connect 15 0 14 1;
#X connect 15 0 16 0;
#X connect 16 0 17 0;
#X connect 17 0 21 0;
#X connect 17 1 22 0;
#X connect 17 2 23 0;
#X connect 18 0 30 0;
#X connect 19 0 31 0;
#X connect 20 0 32 0;
#X connect 21 0 18 0;
#X connect 22 0 19 0;
#X connect 23 0 20 0;
#X connect 24 0 12 1;
#X connect 26 0 12 0;
#X connect 26 1 27 0;
#X connect 27 0 28 0;
#X connect 27 0 54 0;
#X connect 28 0 27 1;
#X connect 29 0 44 0;
#X connect 29 0 68 0;
#X connect 29 0 81 0;
#X connect 30 0 50 0;
#X connect 31 0 35 0;
#X connect 32 0 38 0;
#X connect 32 0 41 0;
#X connect 33 0 34 0;
#X connect 34 0 49 1;
#X connect 35 0 49 0;
#X connect 35 1 36 0;
#X connect 36 0 37 0;
#X connect 37 0 49 1;
#X connect 38 0 49 0;
#X connect 38 1 39 0;
#X connect 39 0 40 0;
#X connect 40 0 49 1;
#X connect 41 0 63 0;
#X connect 42 0 2 0;
#X connect 43 0 56 0;
#X connect 44 0 45 0;
#X connect 45 0 43 0;
#X connect 46 0 29 0;
#X connect 47 0 21 1;
#X connect 47 0 22 1;
#X connect 47 0 23 1;
#X connect 48 0 63 0;
#X connect 49 0 48 0;
#X connect 49 1 48 1;
#X connect 50 0 41 0;
#X connect 50 0 49 0;
#X connect 50 1 33 0;
#X connect 50 2 74 0;
#X connect 50 3 57 0;
#X connect 50 4 59 0;
#X connect 50 5 61 0;
#X connect 51 0 48 2;
#X connect 52 0 48 3;
#X connect 53 0 48 4;
#X connect 54 0 46 0;
#X connect 55 0 10 0;
#X connect 56 0 55 0;
#X connect 57 0 52 1;
#X connect 57 0 58 0;
#X connect 58 0 51 0;
#X connect 59 0 53 1;
#X connect 59 0 60 0;
#X connect 60 0 52 0;
#X connect 61 0 51 1;
#X connect 61 0 62 0;
#X connect 62 0 53 0;
#X connect 63 0 83 0;
#X connect 63 0 83 1;
#X connect 64 0 63 1;
#X connect 65 0 66 0;
#X connect 66 0 67 0;
#X connect 67 0 72 0;
#X connect 68 0 73 0;
#X connect 68 0 79 1;
#X connect 70 0 24 0;
#X connect 71 0 64 0;
#X connect 72 0 71 0;
#X connect 73 0 65 0;
#X connect 73 0 69 0;
#X connect 74 0 75 0;
#X connect 75 0 49 2;
#X connect 76 0 77 0;
#X connect 76 1 79 0;
#X connect 77 0 78 0;
#X connect 78 0 8 0;
#X connect 79 0 77 1;
#X connect 80 0 82 0;
#X connect 81 0 80 0;
#X connect 82 0 70 0;
#X connect 83 0 84 0;
