#N canvas -1628 75 1105 756 10;
#X obj -109 -167 tgl 15 0 empty empty empty 17 7 0 10 -262144 -1 -1
1 1;
#X obj -101 -142 metro 400;
#X obj -101 -99 random 36;
#X obj -101 -75 + 43;
#X floatatom -157 -57 5 0 0 0 - - -;
#X obj -101 -48 makenote 65 500;
#X obj -101 13 mtof;
#X obj -133 212 *~;
#X obj -14 -19 / 127;
#X obj -26 -88 + 72;
#X floatatom -230 41 5 0 10000 0 - - -;
#X floatatom -55 -2 5 0 0 0 - - -;
#X floatatom -144 38 5 0 0 0 - - -;
#X obj -154 -125 bng 15 250 50 0 empty empty empty 17 7 0 10 -262144
-1 -1;
#X obj -101 45 sig~;
#X obj -101 169 osc~ 1000;
#X obj -76 229 rev2~ 100 90 3000 20;
#X obj -14 47 sel 0;
#X msg -268 95 1;
#X obj -268 64 bang;
#X msg -279 30 0;
#X floatatom -181 40 5 0 100 0 - - -;
#X obj -4 13 del 500;
#X floatatom 25 -64 5 0 0 0 - - -;
#X floatatom -206 74 5 0 10000 0 - - -;
#X floatatom -156 74 5 0 10000 0 - - -;
#X floatatom -50 -170 5 0 0 0 - - -;
#X floatatom -154 -108 5 0 0 0 - - -;
#X obj -26 -125 random 50;
#X obj 43 66 mtof;
#X obj 3 88 sig~;
#X obj 3 108 osc~ 1000;
#X obj 3 152 *~ 0.1;
#X floatatom 36 129 5 0 1 0 - - -;
#X obj -208 -92 - 0;
#X floatatom -193 -129 5 0 0 0 - - -;
#X floatatom 111 136 5 0 0 0 - - -;
#X obj 111 -70 bng 15 250 50 0 empty empty empty 17 7 0 10 -262144
-1 -1;
#X obj 111 20 vline~;
#X obj 111 77 snapshot~;
#X obj 180 60 metro 100;
#X obj 111 -152 sel 1;
#X msg 111 -9 1000 0 0 \, -1000 10000 0;
#X obj 25 -91 random 2000;
#X obj -157 -31 * 10;
#X obj 201 -64 i;
#X floatatom 400 -21 5 0 0 0 - - -;
#X obj 281 35 mtof;
#X floatatom 447 -20 5 0 0 0 - - -;
#X obj 198 -125 counter 32;
#X obj 198 -96 sel 1;
#X obj 258 -79 bng 15 250 50 0 empty empty empty 17 7 0 10 -262144
-1 -1;
#X floatatom 385 50 5 0 0 0 - - -;
#X obj 153 -82 + 12;
#X obj 281 -4 makenote 80 2000;
#X floatatom -69 83 5 0 0 0 - - -;
#X obj -52 103 * 0.001;
#X obj -85 127 switch;
#X msg 44 11 2;
#X msg 73 40 1;
#X obj 40 -43 random 5;
#X obj 44 -13 sel 0;
#X obj 73 12 bang;
#X obj 426 118 +;
#X obj 258 409 lop~ 440;
#X floatatom 499 339 5 0 0 0 - - -;
#X obj 519 170 square~ 440;
#X obj 442 171 square~ 440;
#X floatatom 401 224 5 0 0 0 - - -;
#X obj 384 292 *~;
#X obj 270 246 snapshot~;
#X floatatom 270 269 5 0 0 0 - - -;
#X obj 270 307 * 500;
#X obj 229 289 + 1.1;
#X obj 369 116 +;
#X obj 170 152 sel -1000;
#X obj 168 237 *;
#X floatatom 152 278 5 0 0 0 - - -;
#X obj 352 346 tgl 15 0 empty empty empty 17 7 0 10 -262144 -1 -1 1
1;
#X obj 281 -38 clip 24 39;
#X obj 384 154 * 20;
#X obj 172 404 +~ 1;
#X obj 172 427 *~ 1000;
#X obj 541 191 square~ 440;
#X obj 460 259 *~ 0.3;
#X obj 492 100 -;
#X msg 491 76 1;
#X obj 477 122 +;
#X obj 281 196 phasor~ 0.05;
#X floatatom 86 553 5 0 0 0 - - -;
#X obj 86 580 pow -1;
#X obj 152 574 + 1;
#X obj 86 603 / 4;
#X obj 99 626 *;
#X obj 110 654 * 60000;
#X obj -99 682 +~;
#X obj -226 581 hsl 96 8 0 0.95 0 1 empty empty fb -16 5 0 8 -262144
-1 -1 6900 1;
#X obj -12 497 loadbang;
#X floatatom 153 545 5 0 0 0 - - -;
#X obj -8 530 t b b;
#X obj -226 594 hsl 96 8 0 1 0 1 empty empty d/w -22 5 0 8 -262144
-1 -1 9500 1;
#X obj 76 826 +~;
#X obj 98 796 *~;
#X obj 26 794 *~;
#X obj -119 738 * -1;
#X obj -115 769 + 1;
#X obj -249 707 delwrite~ \$0bdl1 2000;
#X obj 113 690 vd~ \$0bdl1;
#X obj 155 514 t b f;
#X floatatom 90 367 5 0 0 0 - - -;
#X obj 53 859 rev2~ 100 90 3000 20;
#X obj 515 140 + 7;
#X obj 438 325 + 100;
#X obj -172 365 noise~;
#X obj -172 416 *~;
#X msg -286 343 1;
#X floatatom -192 659 5 0 1 0 - - -;
#X floatatom -113 626 5 0 1 0 - - -;
#X obj -172 387 lop~ 1000;
#X obj -244 268 * 0.1;
#X obj -172 441 lop~ 400;
#X floatatom -69 385 5 0 0 0 - - -;
#X obj 449 141 + 11;
#X obj -133 269 *~ 0.1;
#X obj -88 281 *~ 0.1;
#X obj -286 365 adsr 1 0 20 0 0;
#X obj -154 513 *~ 0.05;
#X obj -104 513 *~ 0.05;
#X obj -202 513 *~ 0.02;
#X obj -154 473 rev2~ 100 90 3000 20;
#X obj -17 673 *~ 0.7;
#X obj 172 382 cos~ 2;
#X obj 258 444 vcf~ 2;
#X obj 53 896 *~ 0.15;
#X obj 102 896 *~ 0.15;
#X obj -164 -207 loadbang;
#X msg -164 -184 1;
#X text 294 -230 Profile;
#X msg -212 633 1;
#X text 295 -206 Tom Webster 11/2011;
#X obj -26 -194 * 10;
#X text 297 -173 3 elements play random notes with different enveloping
\, filtering and lots of reverb.;
#X obj -279 129 adsr 1 100 200 50 300;
#X obj 258 371 *~ 1;
#X obj -204 549 throw~ \$0-l;
#X obj -106 556 throw~ \$0-r;
#X obj 293 726 catch~ \$0-l;
#X obj 344 748 catch~ \$0-r;
#X obj 54 945 throw~ \$0-l;
#X obj 102 920 throw~ \$0-r;
#X obj 294 797 switch~;
#X obj -133 334 throw~ \$0-l;
#X obj -89 312 throw~ \$0-r;
#X obj -3 -152 s \$0-go;
#X obj -221 -190 s \$0-lb;
#X obj 180 35 r \$0-go;
#X obj -212 611 r \$0-lb;
#X obj 294 772 patchComs;
#X connect 0 0 1 0;
#X connect 0 0 41 0;
#X connect 0 0 153 0;
#X connect 1 0 2 0;
#X connect 1 0 13 0;
#X connect 1 0 28 0;
#X connect 1 0 43 0;
#X connect 1 0 49 0;
#X connect 1 0 115 0;
#X connect 2 0 3 0;
#X connect 2 0 53 0;
#X connect 3 0 4 0;
#X connect 3 0 5 0;
#X connect 4 0 44 0;
#X connect 5 0 6 0;
#X connect 5 1 8 0;
#X connect 6 0 12 0;
#X connect 6 0 14 0;
#X connect 7 0 16 0;
#X connect 7 0 123 0;
#X connect 7 0 124 0;
#X connect 8 0 11 0;
#X connect 8 0 17 0;
#X connect 8 0 63 1;
#X connect 8 0 85 1;
#X connect 9 0 5 1;
#X connect 9 0 29 0;
#X connect 9 0 54 1;
#X connect 9 0 76 0;
#X connect 10 0 125 5;
#X connect 10 0 142 2;
#X connect 12 0 119 0;
#X connect 14 0 15 0;
#X connect 15 0 7 1;
#X connect 16 0 124 0;
#X connect 16 0 123 0;
#X connect 17 0 22 0;
#X connect 17 1 19 0;
#X connect 17 1 142 1;
#X connect 18 0 142 0;
#X connect 19 0 18 0;
#X connect 20 0 142 0;
#X connect 21 0 142 4;
#X connect 22 0 20 0;
#X connect 23 0 5 2;
#X connect 23 0 22 1;
#X connect 23 0 121 0;
#X connect 24 0 142 3;
#X connect 25 0 142 5;
#X connect 26 0 1 1;
#X connect 26 0 109 0;
#X connect 27 0 34 0;
#X connect 28 0 9 0;
#X connect 28 0 27 0;
#X connect 28 0 140 0;
#X connect 29 0 55 0;
#X connect 30 0 31 0;
#X connect 31 0 32 0;
#X connect 32 0 15 0;
#X connect 33 0 32 1;
#X connect 34 0 3 1;
#X connect 35 0 34 1;
#X connect 36 0 32 1;
#X connect 36 0 75 0;
#X connect 37 0 42 0;
#X connect 37 0 60 0;
#X connect 37 0 45 0;
#X connect 37 0 78 0;
#X connect 38 0 39 0;
#X connect 39 0 36 0;
#X connect 40 0 39 0;
#X connect 40 0 70 0;
#X connect 41 0 37 0;
#X connect 42 0 38 0;
#X connect 43 0 23 0;
#X connect 44 0 10 0;
#X connect 45 0 79 0;
#X connect 47 0 52 0;
#X connect 47 0 63 0;
#X connect 47 0 74 0;
#X connect 47 0 87 0;
#X connect 48 0 54 2;
#X connect 49 0 50 0;
#X connect 50 0 51 0;
#X connect 51 0 78 0;
#X connect 51 0 86 0;
#X connect 51 0 45 0;
#X connect 53 0 45 1;
#X connect 54 0 47 0;
#X connect 55 0 57 1;
#X connect 55 0 56 0;
#X connect 55 0 118 1;
#X connect 56 0 57 2;
#X connect 57 0 30 0;
#X connect 58 0 57 0;
#X connect 59 0 57 0;
#X connect 60 0 61 0;
#X connect 60 0 76 1;
#X connect 61 0 58 0;
#X connect 61 1 62 0;
#X connect 62 0 59 0;
#X connect 63 0 122 0;
#X connect 64 0 132 0;
#X connect 65 0 64 1;
#X connect 66 0 84 0;
#X connect 67 0 84 0;
#X connect 68 0 84 1;
#X connect 69 0 143 0;
#X connect 70 0 71 0;
#X connect 71 0 73 0;
#X connect 71 0 80 0;
#X connect 71 0 119 1;
#X connect 72 0 112 0;
#X connect 73 0 72 0;
#X connect 74 0 67 0;
#X connect 75 0 37 0;
#X connect 76 0 72 1;
#X connect 76 0 77 0;
#X connect 76 0 108 0;
#X connect 78 0 143 1;
#X connect 79 0 46 0;
#X connect 79 0 54 0;
#X connect 80 0 74 1;
#X connect 81 0 82 0;
#X connect 82 0 132 1;
#X connect 83 0 84 0;
#X connect 84 0 69 0;
#X connect 85 0 87 1;
#X connect 86 0 85 0;
#X connect 87 0 111 0;
#X connect 88 0 69 1;
#X connect 88 0 70 0;
#X connect 89 0 90 0;
#X connect 90 0 92 0;
#X connect 91 0 93 1;
#X connect 92 0 93 0;
#X connect 93 0 94 0;
#X connect 94 0 107 0;
#X connect 95 0 106 0;
#X connect 96 0 117 0;
#X connect 97 0 99 0;
#X connect 98 0 91 0;
#X connect 99 0 89 0;
#X connect 99 1 98 0;
#X connect 100 0 116 0;
#X connect 101 0 110 0;
#X connect 102 0 101 1;
#X connect 103 0 101 0;
#X connect 104 0 105 0;
#X connect 105 0 103 0;
#X connect 107 0 102 1;
#X connect 107 0 130 0;
#X connect 108 0 99 0;
#X connect 108 1 98 0;
#X connect 109 0 89 0;
#X connect 110 0 133 0;
#X connect 110 1 134 0;
#X connect 111 0 83 0;
#X connect 112 0 65 0;
#X connect 113 0 118 0;
#X connect 114 0 120 0;
#X connect 115 0 125 0;
#X connect 116 0 102 0;
#X connect 116 0 104 0;
#X connect 117 0 130 1;
#X connect 118 0 114 0;
#X connect 119 0 125 3;
#X connect 120 0 128 0;
#X connect 120 0 129 0;
#X connect 121 0 120 1;
#X connect 121 0 129 3;
#X connect 122 0 66 0;
#X connect 123 0 151 0;
#X connect 124 0 152 0;
#X connect 125 0 114 1;
#X connect 126 0 144 0;
#X connect 127 0 145 0;
#X connect 128 0 144 0;
#X connect 128 0 145 0;
#X connect 129 0 126 0;
#X connect 129 1 127 0;
#X connect 130 0 95 1;
#X connect 131 0 81 0;
#X connect 132 0 95 0;
#X connect 132 0 103 1;
#X connect 132 0 133 0;
#X connect 132 0 134 0;
#X connect 133 0 148 0;
#X connect 134 0 149 0;
#X connect 135 0 136 0;
#X connect 135 0 154 0;
#X connect 136 0 0 0;
#X connect 138 0 116 0;
#X connect 140 0 26 0;
#X connect 142 0 7 0;
#X connect 143 0 64 0;
#X connect 146 0 157 0;
#X connect 147 0 157 1;
#X connect 155 0 40 0;
#X connect 156 0 138 0;
#X connect 157 0 150 0;
