#N canvas 773 71 469 600 10;
#X obj -9 -66 tgl 25 0 empty empty empty 17 7 0 10 -258113 -1 -1 1
1;
#X floatatom 42 -50 5 0 0 0 - - -;
#X obj 42 -128 loadbang;
#X text -10 -83 on/off;
#N canvas 698 225 308 391 lead 0;
#X obj 129 29 inlet;
#X obj 13 80 vsl 15 128 40 1000 0 0 empty empty empty 0 -9 0 10 -262144
-1 -1 0 1;
#X floatatom 13 216 5 0 0 0 - - -;
#X floatatom 35 163 5 0 0 0 - - -;
#X obj 83 163 t b f;
#X floatatom 83 139 5 0 0 0 - - -;
#X obj 129 55 bng 15 250 50 0 empty empty empty 17 7 0 10 -262144 -1
-1;
#X obj 13 235 osc~ 440;
#X floatatom 146 177 5 0 0 0 - - -;
#X obj 129 200 f;
#X msg 185 230 0.8;
#X obj 129 149 t b b b;
#X msg 81 207 0.25;
#X obj 159 257 line;
#X obj 117 284 hsl 128 15 0 1 0 0 empty empty empty -2 -8 0 10 -262144
-1 -1 0 1;
#X obj 35 130 + 6;
#X obj 114 257 line~;
#X obj 14 344 *~;
#X msg 128 231 0 \$1;
#X obj 35 108 random 4;
#X obj 38 75 + 2;
#X obj 35 192 * 25;
#X obj 215 65 random 10;
#X obj 215 110 + 90;
#X obj 215 86 * 50;
#X obj 210 175 line;
#X obj 38 50 random 2;
#X obj 215 147 pack 0 90;
#X obj 13 296 clip~ -1 1;
#X obj 12 265 *~ 1;
#X floatatom 54 265 5 0 0 0 - - -;
#X obj 14 366 outlet~;
#X obj 172 2 inlet;
#X connect 0 0 6 0;
#X connect 1 0 2 0;
#X connect 2 0 7 0;
#X connect 3 0 21 0;
#X connect 4 0 21 0;
#X connect 4 1 21 1;
#X connect 5 0 4 0;
#X connect 6 0 11 0;
#X connect 6 0 19 0;
#X connect 7 0 29 0;
#X connect 8 0 9 1;
#X connect 9 0 18 0;
#X connect 10 0 13 0;
#X connect 10 0 16 0;
#X connect 11 0 9 0;
#X connect 11 1 10 0;
#X connect 11 2 12 0;
#X connect 12 0 7 1;
#X connect 13 0 14 0;
#X connect 15 0 3 0;
#X connect 16 0 17 1;
#X connect 17 0 31 0;
#X connect 18 0 13 0;
#X connect 18 0 16 0;
#X connect 19 0 15 0;
#X connect 20 0 19 1;
#X connect 21 0 2 0;
#X connect 22 0 24 0;
#X connect 23 0 27 0;
#X connect 24 0 23 0;
#X connect 25 0 8 0;
#X connect 26 0 20 0;
#X connect 27 0 25 0;
#X connect 28 0 17 0;
#X connect 29 0 28 0;
#X connect 30 0 29 1;
#X connect 32 0 22 0;
#X connect 32 0 26 0;
#X restore -10 276 pd lead;
#X obj 263 128 counter;
#X obj 263 232 bng 15 250 50 0 empty empty empty 17 7 0 10 -262144
-1 -1;
#X obj 263 65 bng 15 250 50 0 empty empty empty 17 7 0 10 -262144 -1
-1;
#X msg 282 97 max 8;
#X obj 263 151 sel 1;
#X obj 369 132 counter;
#X obj 369 155 sel 1;
#X obj 369 68 bng 15 250 50 0 empty empty empty 17 7 0 10 -262144 -1
-1;
#X obj 369 230 bng 15 250 50 0 empty empty empty 17 7 0 10 -262144
-1 -1;
#N canvas 581 293 323 360 kick 0;
#X obj 140 72 inlet;
#X obj 24 61 vsl 15 128 40 1000 0 0 empty empty empty 0 -9 0 10 -262144
-1 -1 0 1;
#X floatatom 24 197 5 0 0 0 - - -;
#X obj 128 265 hsl 128 15 0 1 0 0 empty empty empty -2 -8 0 10 -262144
-1 -1 0 1;
#X obj 74 135 t b f;
#X floatatom 74 111 5 0 0 0 - - -;
#X obj 173 238 line;
#X obj 140 128 bng 15 250 50 0 empty empty empty 17 7 0 10 -262144
-1 -1;
#X floatatom 215 184 5 0 0 0 - - -;
#X obj 125 181 f;
#X obj 24 216 osc~ 440;
#X msg 77 191 0.25;
#X obj 140 150 t b b b;
#X obj 125 238 line~;
#X obj 25 265 *~;
#X msg 204 211 0.95;
#X msg 125 211 0 \$1;
#X obj 46 89 random 3;
#X obj 46 66 bng 15 250 50 0 empty empty empty 17 7 0 10 -262144 -1
-1;
#X obj 46 163 * 25;
#X obj 46 111 + 2;
#X obj 215 46 random 10;
#X obj 215 93 + 90;
#X obj 215 69 * 50;
#X obj 215 158 line;
#X obj 215 130 pack 0 0;
#X obj 25 287 outlet~;
#X obj 252 11 inlet;
#X connect 0 0 7 0;
#X connect 1 0 2 0;
#X connect 2 0 10 0;
#X connect 4 0 19 0;
#X connect 4 1 19 1;
#X connect 5 0 4 0;
#X connect 6 0 3 0;
#X connect 7 0 12 0;
#X connect 8 0 9 1;
#X connect 9 0 16 0;
#X connect 10 0 14 0;
#X connect 11 0 10 1;
#X connect 12 0 9 0;
#X connect 12 1 15 0;
#X connect 12 2 11 0;
#X connect 13 0 14 1;
#X connect 14 0 26 0;
#X connect 15 0 6 0;
#X connect 15 0 13 0;
#X connect 16 0 6 0;
#X connect 16 0 13 0;
#X connect 17 0 20 0;
#X connect 18 0 17 0;
#X connect 19 0 2 0;
#X connect 20 0 19 0;
#X connect 21 0 23 0;
#X connect 22 0 25 0;
#X connect 23 0 22 0;
#X connect 24 0 8 0;
#X connect 25 0 24 0;
#X connect 27 0 21 0;
#X connect 27 0 18 0;
#X restore 75 276 pd kick;
#N canvas 364 157 345 300 hihat 0;
#X obj 115 44 inlet;
#X obj 114 100 bng 15 250 50 0 empty empty empty 17 7 0 10 -262144
-1 -1;
#X msg 99 184 0 \$1;
#X floatatom 149 154 5 0 0 0 - - -;
#X obj 99 153 f;
#X obj 31 211 noise~ 440;
#X obj 114 122 t b b b;
#X obj 133 235 hsl 128 15 0 1 0 0 empty empty empty -2 -8 0 10 -262144
-1 -1 0 1;
#X obj 147 210 line;
#X obj 99 210 line~;
#X obj 30 235 *~;
#X obj 172 49 random 20;
#X obj 172 76 + 10;
#X msg 178 183 0.9;
#X obj 172 16 loadbang;
#X obj 30 257 outlet~;
#X connect 0 0 1 0;
#X connect 1 0 6 0;
#X connect 2 0 9 0;
#X connect 2 0 8 0;
#X connect 3 0 4 1;
#X connect 4 0 2 0;
#X connect 5 0 10 0;
#X connect 6 0 4 0;
#X connect 6 1 13 0;
#X connect 8 0 7 0;
#X connect 9 0 10 1;
#X connect 10 0 15 0;
#X connect 11 0 12 0;
#X connect 12 0 3 0;
#X connect 13 0 9 0;
#X connect 13 0 8 0;
#X connect 14 0 11 0;
#X restore 161 275 pd hihat;
#X msg 397 101 max 20;
#N canvas 1533 197 1047 594 sequencer 0;
#X obj 174 -57 f;
#X obj 199 -57 + 1;
#X obj 174 -10 mod 8;
#X obj 175 38 route 1 2 3 4 5 6 7 0;
#X obj 212 80 bng 30 250 50 0 empty empty empty 17 7 0 10 -262144 -1
-1;
#X obj 245 80 bng 30 250 50 0 empty empty empty 17 7 0 10 -262144 -1
-1;
#X obj 278 80 bng 30 250 50 0 empty empty empty 17 7 0 10 -262144 -1
-1;
#X floatatom 86 34 5 0 0 0 - - -;
#X obj 311 80 bng 30 250 50 0 empty empty empty 17 7 0 10 -262144 -1
-1;
#X obj 344 80 bng 30 250 50 0 empty empty empty 17 7 0 10 -262144 -1
-1;
#X obj 377 80 bng 30 250 50 0 empty empty empty 17 7 0 10 -262144 -1
-1;
#X obj 410 80 bng 30 250 50 0 empty empty empty 17 7 0 10 -262144 -1
-1;
#X obj 442 80 bng 30 250 50 0 empty empty empty 17 7 0 10 -262144 -1
-1;
#X msg 155 -115 1;
#X obj 24 221 f;
#X obj 210 111 tgl 33 0 empty empty empty 17 7 0 10 -262144 -1 -1 1
1;
#X obj 24 243 sel 1;
#X obj 23 285 bng 30 250 50 0 empty empty empty 17 7 0 10 -262144 -1
-1;
#X obj 63 222 f;
#X obj 243 111 tgl 33 0 empty empty empty 17 7 0 10 -262144 -1 -1 0
1;
#X obj 63 244 sel 1;
#X obj 62 286 bng 30 250 50 0 empty empty empty 17 7 0 10 -262144 -1
-1;
#X obj 100 222 f;
#X obj 276 111 tgl 33 0 empty empty empty 17 7 0 10 -262144 -1 -1 0
1;
#X obj 100 244 sel 1;
#X obj 99 286 bng 30 250 50 0 empty empty empty 17 7 0 10 -262144 -1
-1;
#X obj 139 223 f;
#X obj 309 111 tgl 33 0 empty empty empty 17 7 0 10 -262144 -1 -1 1
1;
#X obj 139 245 sel 1;
#X obj 138 287 bng 30 250 50 0 empty empty empty 17 7 0 10 -262144
-1 -1;
#X obj 177 224 f;
#X obj 342 111 tgl 33 0 empty empty empty 17 7 0 10 -262144 -1 -1 1
1;
#X obj 177 246 sel 1;
#X obj 176 288 bng 30 250 50 0 empty empty empty 17 7 0 10 -262144
-1 -1;
#X obj 216 225 f;
#X obj 375 111 tgl 33 0 empty empty empty 17 7 0 10 -262144 -1 -1 1
1;
#X obj 216 247 sel 1;
#X obj 215 289 bng 30 250 50 0 empty empty empty 17 7 0 10 -262144
-1 -1;
#X obj 253 225 f;
#X obj 408 111 tgl 33 0 empty empty empty 17 7 0 10 -262144 -1 -1 0
1;
#X obj 253 247 sel 1;
#X obj 252 289 bng 30 250 50 0 empty empty empty 17 7 0 10 -262144
-1 -1;
#X obj 292 226 f;
#X obj 440 111 tgl 33 0 empty empty empty 17 7 0 10 -262144 -1 -1 0
1;
#X obj 292 248 sel 1;
#X obj 291 290 bng 30 250 50 0 empty empty empty 17 7 0 10 -262144
-1 -1;
#X obj 23 320 outlet;
#X obj 155 -139 loadbang;
#X obj 52 -192 inlet;
#X obj 344 221 f;
#X obj 210 144 tgl 33 0 empty empty empty 17 7 0 10 -262144 -1 -1 1
1;
#X obj 344 243 sel 1;
#X obj 343 285 bng 30 250 50 0 empty empty empty 17 7 0 10 -262144
-1 -1;
#X obj 383 222 f;
#X obj 243 144 tgl 33 0 empty empty empty 17 7 0 10 -262144 -1 -1 1
1;
#X obj 383 244 sel 1;
#X obj 382 286 bng 30 250 50 0 empty empty empty 17 7 0 10 -262144
-1 -1;
#X obj 420 222 f;
#X obj 276 144 tgl 33 0 empty empty empty 17 7 0 10 -262144 -1 -1 0
1;
#X obj 420 244 sel 1;
#X obj 419 286 bng 30 250 50 0 empty empty empty 17 7 0 10 -262144
-1 -1;
#X obj 459 223 f;
#X obj 309 144 tgl 33 0 empty empty empty 17 7 0 10 -262144 -1 -1 0
1;
#X obj 459 245 sel 1;
#X obj 458 287 bng 30 250 50 0 empty empty empty 17 7 0 10 -262144
-1 -1;
#X obj 497 224 f;
#X obj 342 144 tgl 33 0 empty empty empty 17 7 0 10 -262144 -1 -1 0
1;
#X obj 497 246 sel 1;
#X obj 496 288 bng 30 250 50 0 empty empty empty 17 7 0 10 -262144
-1 -1;
#X obj 536 225 f;
#X obj 375 144 tgl 33 0 empty empty empty 17 7 0 10 -262144 -1 -1 1
1;
#X obj 536 247 sel 1;
#X obj 535 289 bng 30 250 50 0 empty empty empty 17 7 0 10 -262144
-1 -1;
#X obj 573 225 f;
#X obj 408 144 tgl 33 0 empty empty empty 17 7 0 10 -262144 -1 -1 1
1;
#X obj 573 247 sel 1;
#X obj 572 289 bng 30 250 50 0 empty empty empty 17 7 0 10 -262144
-1 -1;
#X obj 612 226 f;
#X obj 440 144 tgl 33 0 empty empty empty 17 7 0 10 -262144 -1 -1 0
1;
#X obj 612 248 sel 1;
#X obj 611 290 bng 30 250 50 0 empty empty empty 17 7 0 10 -262144
-1 -1;
#X obj 343 320 outlet;
#X obj 384 -59 f;
#X obj 210 177 tgl 33 0 empty empty empty 17 7 0 10 -262144 -1 -1 1
1;
#X obj 384 -37 sel 1;
#X obj 383 5 bng 30 250 50 0 empty empty empty 17 7 0 10 -262144 -1
-1;
#X obj 423 -59 f;
#X obj 243 177 tgl 33 0 empty empty empty 17 7 0 10 -262144 -1 -1 0
1;
#X obj 423 -36 sel 1;
#X obj 422 6 bng 30 250 50 0 empty empty empty 17 7 0 10 -262144 -1
-1;
#X obj 463 -59 f;
#X obj 276 177 tgl 33 0 empty empty empty 17 7 0 10 -262144 -1 -1 0
1;
#X obj 460 -36 sel 1;
#X obj 459 6 bng 30 250 50 0 empty empty empty 17 7 0 10 -262144 -1
-1;
#X obj 501 -61 f;
#X obj 309 177 tgl 33 0 empty empty empty 17 7 0 10 -262144 -1 -1 1
1;
#X obj 499 -35 sel 1;
#X obj 498 7 bng 30 250 50 0 empty empty empty 17 7 0 10 -262144 -1
-1;
#X obj 539 -61 f;
#X obj 342 177 tgl 33 0 empty empty empty 17 7 0 10 -262144 -1 -1 1
1;
#X obj 537 -34 sel 1;
#X obj 536 8 bng 30 250 50 0 empty empty empty 17 7 0 10 -262144 -1
-1;
#X obj 576 -62 f;
#X obj 375 177 tgl 33 0 empty empty empty 17 7 0 10 -262144 -1 -1 1
1;
#X obj 576 -33 sel 1;
#X obj 575 9 bng 30 250 50 0 empty empty empty 17 7 0 10 -262144 -1
-1;
#X obj 611 -62 f;
#X obj 408 177 tgl 33 0 empty empty empty 17 7 0 10 -262144 -1 -1 1
1;
#X obj 613 -33 sel 1;
#X obj 612 9 bng 30 250 50 0 empty empty empty 17 7 0 10 -262144 -1
-1;
#X obj 659 -58 f;
#X obj 440 177 tgl 33 0 empty empty empty 17 7 0 10 -262144 -1 -1 1
1;
#X obj 652 -32 sel 1;
#X obj 651 10 bng 30 250 50 0 empty empty empty 17 7 0 10 -262144 -1
-1;
#X obj 594 111 outlet;
#X obj 704 -59 f;
#X obj 210 210 tgl 33 0 empty empty empty 17 7 0 10 -262144 -1 -1 0
1;
#X obj 704 -37 sel 1;
#X obj 703 5 bng 30 250 50 0 empty empty empty 17 7 0 10 -262144 -1
-1;
#X obj 743 -58 f;
#X obj 243 210 tgl 33 0 empty empty empty 17 7 0 10 -262144 -1 -1 0
1;
#X obj 743 -36 sel 1;
#X obj 742 6 bng 30 250 50 0 empty empty empty 17 7 0 10 -262144 -1
-1;
#X obj 780 -58 f;
#X obj 276 210 tgl 33 0 empty empty empty 17 7 0 10 -262144 -1 -1 0
1;
#X obj 780 -36 sel 1;
#X obj 779 6 bng 30 250 50 0 empty empty empty 17 7 0 10 -262144 -1
-1;
#X obj 819 -57 f;
#X obj 309 210 tgl 33 0 empty empty empty 17 7 0 10 -262144 -1 -1 0
1;
#X obj 819 -35 sel 1;
#X obj 818 7 bng 30 250 50 0 empty empty empty 17 7 0 10 -262144 -1
-1;
#X obj 857 -56 f;
#X obj 342 210 tgl 33 0 empty empty empty 17 7 0 10 -262144 -1 -1 0
1;
#X obj 857 -34 sel 1;
#X obj 856 8 bng 30 250 50 0 empty empty empty 17 7 0 10 -262144 -1
-1;
#X obj 896 -55 f;
#X obj 375 210 tgl 33 0 empty empty empty 17 7 0 10 -262144 -1 -1 0
1;
#X obj 896 -33 sel 1;
#X obj 895 9 bng 30 250 50 0 empty empty empty 17 7 0 10 -262144 -1
-1;
#X obj 933 -55 f;
#X obj 408 210 tgl 33 0 empty empty empty 17 7 0 10 -262144 -1 -1 0
1;
#X obj 933 -33 sel 1;
#X obj 932 9 bng 30 250 50 0 empty empty empty 17 7 0 10 -262144 -1
-1;
#X obj 972 -54 f;
#X obj 440 210 tgl 33 0 empty empty empty 17 7 0 10 -262144 -1 -1 0
1;
#X obj 972 -32 sel 1;
#X obj 971 10 bng 30 250 50 0 empty empty empty 17 7 0 10 -262144 -1
-1;
#X obj 703 40 outlet;
#X obj 256 -156 random 72;
#X obj 256 -128 route 11 12 13 14 15 16 17 18 21 22 23 24 25 26 27
28 31 32 33 34 35 36 37 38;
#X obj 256 -89 bng 15 250 50 0 empty empty empty 17 7 0 10 -262144
-1 -1;
#X obj 271 -89 bng 15 250 50 0 empty empty empty 17 7 0 10 -262144
-1 -1;
#X obj 286 -89 bng 15 250 50 0 empty empty empty 17 7 0 10 -262144
-1 -1;
#X obj 301 -89 bng 15 250 50 0 empty empty empty 17 7 0 10 -262144
-1 -1;
#X obj 316 -89 bng 15 250 50 0 empty empty empty 17 7 0 10 -262144
-1 -1;
#X obj 331 -89 bng 15 250 50 0 empty empty empty 17 7 0 10 -262144
-1 -1;
#X obj 346 -89 bng 15 250 50 0 empty empty empty 17 7 0 10 -262144
-1 -1;
#X obj 361 -89 bng 15 250 50 0 empty empty empty 17 7 0 10 -262144
-1 -1;
#X obj 386 -89 bng 15 250 50 0 empty empty empty 17 7 0 10 -262144
-1 -1;
#X obj 401 -89 bng 15 250 50 0 empty empty empty 17 7 0 10 -262144
-1 -1;
#X obj 416 -89 bng 15 250 50 0 empty empty empty 17 7 0 10 -262144
-1 -1;
#X obj 431 -89 bng 15 250 50 0 empty empty empty 17 7 0 10 -262144
-1 -1;
#X obj 446 -89 bng 15 250 50 0 empty empty empty 17 7 0 10 -262144
-1 -1;
#X obj 461 -89 bng 15 250 50 0 empty empty empty 17 7 0 10 -262144
-1 -1;
#X obj 476 -89 bng 15 250 50 0 empty empty empty 17 7 0 10 -262144
-1 -1;
#X obj 491 -89 bng 15 250 50 0 empty empty empty 17 7 0 10 -262144
-1 -1;
#X obj 516 -89 bng 15 250 50 0 empty empty empty 17 7 0 10 -262144
-1 -1;
#X obj 531 -89 bng 15 250 50 0 empty empty empty 17 7 0 10 -262144
-1 -1;
#X obj 546 -89 bng 15 250 50 0 empty empty empty 17 7 0 10 -262144
-1 -1;
#X obj 561 -89 bng 15 250 50 0 empty empty empty 17 7 0 10 -262144
-1 -1;
#X obj 576 -89 bng 15 250 50 0 empty empty empty 17 7 0 10 -262144
-1 -1;
#X obj 591 -89 bng 15 250 50 0 empty empty empty 17 7 0 10 -262144
-1 -1;
#X obj 606 -89 bng 15 250 50 0 empty empty empty 17 7 0 10 -262144
-1 -1;
#X obj 621 -89 bng 15 250 50 0 empty empty empty 17 7 0 10 -262144
-1 -1;
#X obj 257 -183 inlet;
#X connect 0 0 1 0;
#X connect 0 0 2 0;
#X connect 1 0 0 1;
#X connect 2 0 3 0;
#X connect 2 0 7 0;
#X connect 3 0 4 0;
#X connect 3 1 5 0;
#X connect 3 2 6 0;
#X connect 3 3 8 0;
#X connect 3 4 9 0;
#X connect 3 5 10 0;
#X connect 3 6 11 0;
#X connect 3 7 12 0;
#X connect 4 0 14 0;
#X connect 4 0 49 0;
#X connect 4 0 82 0;
#X connect 4 0 115 0;
#X connect 5 0 18 0;
#X connect 5 0 53 0;
#X connect 5 0 86 0;
#X connect 5 0 119 0;
#X connect 6 0 22 0;
#X connect 6 0 57 0;
#X connect 6 0 90 0;
#X connect 6 0 123 0;
#X connect 8 0 26 0;
#X connect 8 0 61 0;
#X connect 8 0 94 0;
#X connect 8 0 127 0;
#X connect 9 0 30 0;
#X connect 9 0 65 0;
#X connect 9 0 98 0;
#X connect 9 0 131 0;
#X connect 10 0 34 0;
#X connect 10 0 69 0;
#X connect 10 0 102 0;
#X connect 10 0 135 0;
#X connect 11 0 38 0;
#X connect 11 0 73 0;
#X connect 11 0 106 0;
#X connect 11 0 139 0;
#X connect 12 0 42 0;
#X connect 12 0 77 0;
#X connect 12 0 110 0;
#X connect 12 0 143 0;
#X connect 13 0 0 1;
#X connect 14 0 16 0;
#X connect 15 0 14 1;
#X connect 16 0 17 0;
#X connect 17 0 46 0;
#X connect 18 0 20 0;
#X connect 19 0 18 1;
#X connect 20 0 21 0;
#X connect 21 0 46 0;
#X connect 22 0 24 0;
#X connect 23 0 22 1;
#X connect 24 0 25 0;
#X connect 25 0 46 0;
#X connect 26 0 28 0;
#X connect 27 0 26 1;
#X connect 28 0 29 0;
#X connect 29 0 46 0;
#X connect 30 0 32 0;
#X connect 31 0 30 1;
#X connect 32 0 33 0;
#X connect 33 0 46 0;
#X connect 34 0 36 0;
#X connect 35 0 34 1;
#X connect 36 0 37 0;
#X connect 37 0 46 0;
#X connect 38 0 40 0;
#X connect 39 0 38 1;
#X connect 40 0 41 0;
#X connect 41 0 46 0;
#X connect 42 0 44 0;
#X connect 43 0 42 1;
#X connect 44 0 45 0;
#X connect 45 0 46 0;
#X connect 47 0 13 0;
#X connect 48 0 0 0;
#X connect 49 0 51 0;
#X connect 50 0 49 1;
#X connect 51 0 52 0;
#X connect 52 0 81 0;
#X connect 53 0 55 0;
#X connect 54 0 53 1;
#X connect 55 0 56 0;
#X connect 56 0 81 0;
#X connect 57 0 59 0;
#X connect 58 0 57 1;
#X connect 59 0 60 0;
#X connect 60 0 81 0;
#X connect 61 0 63 0;
#X connect 62 0 61 1;
#X connect 63 0 64 0;
#X connect 64 0 81 0;
#X connect 65 0 67 0;
#X connect 66 0 65 1;
#X connect 67 0 68 0;
#X connect 68 0 81 0;
#X connect 69 0 71 0;
#X connect 70 0 69 1;
#X connect 71 0 72 0;
#X connect 72 0 81 0;
#X connect 73 0 75 0;
#X connect 74 0 73 1;
#X connect 75 0 76 0;
#X connect 76 0 81 0;
#X connect 77 0 79 0;
#X connect 78 0 77 1;
#X connect 79 0 80 0;
#X connect 80 0 81 0;
#X connect 82 0 84 0;
#X connect 83 0 82 1;
#X connect 84 0 85 0;
#X connect 85 0 114 0;
#X connect 86 0 88 0;
#X connect 87 0 86 1;
#X connect 88 0 89 0;
#X connect 89 0 114 0;
#X connect 90 0 92 0;
#X connect 91 0 90 1;
#X connect 92 0 93 0;
#X connect 93 0 114 0;
#X connect 94 0 96 0;
#X connect 95 0 94 1;
#X connect 96 0 97 0;
#X connect 97 0 114 0;
#X connect 98 0 100 0;
#X connect 99 0 98 1;
#X connect 100 0 101 0;
#X connect 101 0 114 0;
#X connect 102 0 104 0;
#X connect 103 0 102 1;
#X connect 104 0 105 0;
#X connect 105 0 114 0;
#X connect 106 0 108 0;
#X connect 107 0 106 1;
#X connect 108 0 109 0;
#X connect 109 0 114 0;
#X connect 110 0 112 0;
#X connect 111 0 110 1;
#X connect 112 0 113 0;
#X connect 113 0 114 0;
#X connect 115 0 117 0;
#X connect 116 0 115 1;
#X connect 117 0 118 0;
#X connect 118 0 147 0;
#X connect 119 0 121 0;
#X connect 120 0 119 1;
#X connect 121 0 122 0;
#X connect 122 0 147 0;
#X connect 123 0 125 0;
#X connect 124 0 123 1;
#X connect 125 0 126 0;
#X connect 126 0 147 0;
#X connect 127 0 129 0;
#X connect 128 0 127 1;
#X connect 129 0 130 0;
#X connect 130 0 147 0;
#X connect 131 0 133 0;
#X connect 132 0 131 1;
#X connect 133 0 134 0;
#X connect 134 0 147 0;
#X connect 135 0 137 0;
#X connect 136 0 135 1;
#X connect 137 0 138 0;
#X connect 138 0 147 0;
#X connect 139 0 141 0;
#X connect 140 0 139 1;
#X connect 141 0 142 0;
#X connect 142 0 147 0;
#X connect 143 0 145 0;
#X connect 144 0 143 1;
#X connect 145 0 146 0;
#X connect 146 0 147 0;
#X connect 148 0 149 0;
#X connect 149 0 150 0;
#X connect 149 1 151 0;
#X connect 149 2 152 0;
#X connect 149 3 153 0;
#X connect 149 4 154 0;
#X connect 149 5 155 0;
#X connect 149 6 156 0;
#X connect 149 7 157 0;
#X connect 149 8 158 0;
#X connect 149 9 159 0;
#X connect 149 10 160 0;
#X connect 149 11 161 0;
#X connect 149 12 162 0;
#X connect 149 13 163 0;
#X connect 149 14 164 0;
#X connect 149 15 165 0;
#X connect 149 16 166 0;
#X connect 149 17 167 0;
#X connect 149 18 168 0;
#X connect 149 19 169 0;
#X connect 149 20 170 0;
#X connect 149 21 171 0;
#X connect 149 22 172 0;
#X connect 149 23 173 0;
#X connect 150 0 15 0;
#X connect 151 0 19 0;
#X connect 152 0 23 0;
#X connect 153 0 27 0;
#X connect 154 0 31 0;
#X connect 155 0 35 0;
#X connect 156 0 39 0;
#X connect 157 0 43 0;
#X connect 158 0 50 0;
#X connect 159 0 54 0;
#X connect 160 0 58 0;
#X connect 161 0 62 0;
#X connect 162 0 66 0;
#X connect 163 0 70 0;
#X connect 164 0 74 0;
#X connect 165 0 78 0;
#X connect 166 0 83 0;
#X connect 167 0 87 0;
#X connect 168 0 91 0;
#X connect 169 0 95 0;
#X connect 170 0 99 0;
#X connect 171 0 103 0;
#X connect 172 0 107 0;
#X connect 173 0 111 0;
#X connect 174 0 148 0;
#X coords 0 -1 1 1 264 200 1 210 50;
#X restore -10 54 pd sequencer;
#X obj 247 28 spigot;
#X text 258 -29 randomize senquencer with beat;
#X obj 280 0 tgl 15 0 empty empty empty 17 7 0 10 -262144 -1 -1 0 1
;
#X obj 280 -129 loadbang;
#X obj 304 70 loadbang;
#N canvas 1707 0 652 1022 4-4_metro 0;
#X obj 272 520 metro;
#X obj 346 519 metro;
#X obj 212 519 metro;
#X obj 422 521 metro;
#X obj 284 23 inlet;
#X obj 390 40 inlet;
#X obj 208 639 outlet;
#X obj 266 673 outlet;
#X obj 338 641 outlet;
#X obj 414 671 outlet;
#X obj 210 697 bng 15 250 50 0 empty empty empty 17 7 0 10 -262144
-1 -1;
#X obj 266 701 bng 15 250 50 0 empty empty empty 17 7 0 10 -262144
-1 -1;
#X obj 344 697 bng 15 250 50 0 empty empty empty 17 7 0 10 -262144
-1 -1;
#X obj 420 705 bng 15 250 50 0 empty empty empty 17 7 0 10 -262144
-1 -1;
#X floatatom 468 77 5 0 0 0 - - -;
#X obj 198 143 tgl 15 0 empty empty empty 17 7 0 10 -262144 -1 -1 1
1;
#X obj 387 106 / 60;
#X floatatom 281 110 5 0 0 0 - - -;
#X floatatom 387 222 5 0 0 0 - - -;
#X obj 385 172 pow -1;
#X obj 381 256 * 1000;
#X floatatom 13 335 5 0 0 0 - - -;
#X obj 218 353 * 4;
#X obj 324 351 / 4;
#X obj 388 349 / 8;
#X text 138 26 on off //bool;
#X text 142 64 bpm //float;
#X text 208 662 ganze;
#X text 262 716 viertel;
#X text 336 669 achtel;
#X text 418 721 16-tel;
#X connect 0 0 7 0;
#X connect 0 0 11 0;
#X connect 1 0 8 0;
#X connect 1 0 12 0;
#X connect 2 0 6 0;
#X connect 2 0 10 0;
#X connect 3 0 9 0;
#X connect 3 0 13 0;
#X connect 4 0 15 0;
#X connect 5 0 16 0;
#X connect 15 0 2 0;
#X connect 15 0 0 0;
#X connect 15 0 1 0;
#X connect 15 0 3 0;
#X connect 16 0 19 0;
#X connect 18 0 20 0;
#X connect 19 0 18 0;
#X connect 20 0 21 0;
#X connect 20 0 22 0;
#X connect 20 0 0 1;
#X connect 20 0 23 0;
#X connect 20 0 24 0;
#X connect 22 0 2 1;
#X connect 23 0 1 1;
#X connect 24 0 3 1;
#X restore -9 -26 pd 4-4_metro;
#X msg 186 -98 max \$1;
#X obj 186 -70 counter;
#X obj 186 -48 sel 1;
#X obj 186 -26 bng 15 250 50 0 empty empty empty 17 7 0 10 -262144
-1 -1;
#X floatatom 186 -124 5 0 0 0 - - -;
#X obj -10 -1 bng 15 250 50 0 empty empty empty 17 7 0 10 -262144 -1
-1;
#X msg 241 -94 4;
#X obj -11 351 *~ 0.5;
#X obj 42 351 *~ 0.5;
#X obj -11 310 *~ 0.7;
#X obj 75 309 *~ 0.7;
#X obj 162 308 *~ 0.13;
#X obj -10 392 patchComs;
#X obj -10 424 switch~;
#X obj 42 -94 random 30;
#X obj 42 -72 + 115;
#X connect 0 0 23 0;
#X connect 1 0 23 1;
#X connect 2 0 0 0;
#X connect 2 0 38 0;
#X connect 4 0 33 0;
#X connect 5 0 9 0;
#X connect 6 0 4 1;
#X connect 7 0 5 0;
#X connect 8 0 5 0;
#X connect 9 0 6 0;
#X connect 10 0 11 0;
#X connect 11 0 13 0;
#X connect 12 0 10 0;
#X connect 13 0 14 1;
#X connect 14 0 34 0;
#X connect 15 0 35 0;
#X connect 16 0 10 0;
#X connect 17 0 4 0;
#X connect 17 1 14 0;
#X connect 17 2 15 0;
#X connect 18 0 17 1;
#X connect 20 0 18 1;
#X connect 21 0 20 0;
#X connect 21 0 30 0;
#X connect 22 0 8 0;
#X connect 22 0 16 0;
#X connect 23 0 25 0;
#X connect 23 1 29 0;
#X connect 24 0 25 0;
#X connect 25 0 26 0;
#X connect 26 0 27 0;
#X connect 27 0 20 0;
#X connect 28 0 24 0;
#X connect 29 0 17 0;
#X connect 29 0 18 0;
#X connect 29 0 7 0;
#X connect 29 0 12 0;
#X connect 30 0 28 0;
#X connect 31 0 36 0;
#X connect 32 0 36 1;
#X connect 33 0 31 0;
#X connect 33 0 32 0;
#X connect 34 0 31 0;
#X connect 34 0 32 0;
#X connect 35 0 31 0;
#X connect 35 0 32 0;
#X connect 36 0 37 0;
#X connect 38 0 39 0;
#X connect 39 0 1 0;
