#N canvas 414 245 227 223 10;
#X obj 3 166 inlet~;
#X obj 72 168 outlet~;
#X obj 53 192 delwrite~ \$0-tubcat 10000;
#X obj 72 105 vd~ \$0-tubcat 10000;
#X obj 72 126 lop~ 20000;
#X obj 72 65 pack;
#X obj 109 27 random 10000;
#X obj 129 65 pack;
#X obj 129 85 line;
#X obj 72 26 metro;
#X obj 72 6 loadbang;
#X obj 72 147 *~ 0.333;
#X obj 145 44 random 10000;
#X obj 72 45 random 5000;
#X obj 72 85 vline~;
#X obj 28 105 *~ 0.3;
#X obj 0 27 random 1000;
#X obj 0 46 * 0.001;
#X connect 0 0 2 0;
#X connect 3 0 4 0;
#X connect 3 0 15 0;
#X connect 4 0 11 0;
#X connect 5 0 14 0;
#X connect 6 0 7 1;
#X connect 6 0 9 1;
#X connect 6 0 5 1;
#X connect 7 0 8 0;
#X connect 8 0 4 1;
#X connect 9 0 6 0;
#X connect 9 0 12 0;
#X connect 9 0 13 0;
#X connect 9 0 16 0;
#X connect 10 0 9 0;
#X connect 11 0 1 0;
#X connect 12 0 7 0;
#X connect 13 0 5 0;
#X connect 14 0 3 0;
#X connect 15 0 2 0;
#X connect 16 0 17 0;
#X connect 17 0 15 1;
