#N canvas 54 264 853 535 10;
#X obj 269 118 catch~ \$0-ftraet;
#X obj 153 118 catch~ \$0-ftraeth;
#X obj 366 6 loadbang;
#X obj 421 7 bng 15 250 50 0 empty empty empty 17 7 0 10 -262144 -1
-1;
#X obj 366 29 metro 10;
#X obj 420 29 random 100;
#X obj 0 45 table crappola 88201;
#X obj 2 211 tabread4~ crappola;
#X obj 2 149 *~ -1;
#X obj 2 169 +~ 1;
#X obj 2 188 *~ 88200;
#X obj 292 141 rev2~ 99 60 3000 5;
#X obj 298 55 random 100;
#X obj 345 77 pack;
#X obj 345 98 line;
#N canvas 0 22 450 300 crappola 0;
#X obj 46 47 tabsend~ crappola;
#X obj 178 96 block~ 88200;
#X obj 50 23 inlet~;
#X connect 2 0 0 0;
#X restore 292 207 pd crappola;
#X obj 292 187 clip~ -1 1;
#X obj 505 255 tabread4~ crappola;
#X obj 505 196 *~ -1;
#X obj 505 216 +~ 1;
#X obj 505 235 *~ 88200;
#X obj 257 369 rev2~ 99 80 3000 5;
#X obj 2 251 clip~ -1 1;
#X obj 505 176 phasor~ 0.25;
#X obj 235 144 osc~ 22;
#X obj 235 186 +~ 4444;
#X obj 235 165 *~ 14444;
#X obj 204 206 vcf~ 666 12;
#X obj 408 138 *~ 14444;
#X obj 377 179 vcf~ 666 12;
#X obj 408 159 +~ 5555;
#X obj 408 117 osc~ 23;
#X obj 0 64 table drappola 88201;
#N canvas 0 22 450 300 drappola 0;
#X obj 50 23 inlet~;
#X obj 46 47 tabsend~ drappola;
#X obj 178 96 block~ 44100;
#X connect 0 0 1 0;
#X restore 257 409 pd drappola;
#X obj 490 28 *~ 88200;
#X obj 490 51 tabread4~ crappola;
#X obj 490 138 *~;
#X obj 504 313 *~;
#X obj 35 314 *~;
#X obj 622 435 clip~ -1 1;
#X obj 690 435 clip~ -1 1;
#X obj 490 70 *~ 0.333;
#X obj 274 29 s \$0-bangcrang;
#X obj 204 245 delay~ 88200;
#X obj 382 221 delay~ 88200;
#N canvas 0 22 117 130 phaseinit 0;
#X obj 14 85 outlet;
#X obj 14 26 r \$0-bangcrang;
#X obj 14 45 random 1000;
#X obj 14 64 * 0.001;
#X connect 1 0 2 0;
#X connect 2 0 3 0;
#X connect 3 0 0 0;
#X restore 580 235 pd phaseinit;
#N canvas 0 22 117 130 phaseinit 0;
#X obj 14 85 outlet;
#X obj 14 26 r \$0-bangcrang;
#X obj 14 45 random 1000;
#X obj 14 64 * 0.001;
#X connect 1 0 2 0;
#X connect 2 0 3 0;
#X connect 3 0 0 0;
#X restore 2 109 pd phaseinit;
#N canvas 0 22 117 130 phaseinit 0;
#X obj 14 85 outlet;
#X obj 14 26 r \$0-bangcrang;
#X obj 14 45 random 1000;
#X obj 14 64 * 0.001;
#X connect 1 0 2 0;
#X connect 2 0 3 0;
#X connect 3 0 0 0;
#X restore 580 71 pd phaseinit;
#N canvas 0 22 117 130 phaseinit 0;
#X obj 14 85 outlet;
#X obj 14 26 r \$0-bangcrang;
#X obj 14 45 random 1000;
#X obj 14 64 * 0.001;
#X connect 1 0 2 0;
#X connect 2 0 3 0;
#X connect 3 0 0 0;
#X restore 107 251 pd phaseinit;
#X obj 292 166 *~ 1;
#X obj 580 95 osc~ 0.011;
#X obj 2 231 *~ 1;
#X obj 491 6 phasor~ 2;
#X obj 462 114 lop~ 1000;
#N canvas 0 22 330 395 catscradledelay__ 0;
#X obj 215 322 throw~ \$0-ftraet;
#X obj 85 322 throw~ \$0-ftraeth;
#X obj 16 -34 r~ \$0-starters;
#X obj 16 -12 delcat1;
#X obj 16 9 delcat1;
#X obj 16 31 delcat1;
#X obj 15 53 delcat1;
#X obj 14 75 delcat1;
#X obj 14 100 delcat1;
#X obj 14 122 delcat1;
#X obj 13 144 delcat1;
#X obj 13 168 delcat1;
#X obj 13 191 delcat1;
#X obj 14 219 delcat1;
#X obj 14 243 delcat1;
#X obj 15 264 delcat1;
#X obj 16 285 delcat1;
#X connect 2 0 1 0;
#X connect 2 0 0 0;
#X connect 2 0 3 0;
#X connect 3 0 1 0;
#X connect 3 0 0 0;
#X connect 3 0 4 0;
#X connect 3 0 6 0;
#X connect 4 0 1 0;
#X connect 4 0 0 0;
#X connect 4 0 5 0;
#X connect 4 0 6 0;
#X connect 5 0 1 0;
#X connect 5 0 0 0;
#X connect 5 0 6 0;
#X connect 6 0 0 0;
#X connect 6 0 1 0;
#X connect 6 0 7 0;
#X connect 7 0 8 0;
#X connect 7 0 10 0;
#X connect 8 0 9 0;
#X connect 8 0 10 0;
#X connect 9 0 1 0;
#X connect 9 0 10 0;
#X connect 10 0 0 0;
#X connect 10 0 11 0;
#X connect 11 0 12 0;
#X connect 12 0 0 0;
#X connect 12 0 13 0;
#X connect 13 0 14 0;
#X connect 13 0 16 0;
#X connect 14 0 15 0;
#X connect 14 0 16 0;
#X connect 15 0 16 0;
#X connect 16 0 1 0;
#X restore 0 25 pd catscradledelay__;
#N canvas 0 22 397 433 tone_engine______ 0;
#X obj 160 404 s~ \$0-starters;
#X obj 160 199 t a a;
#X obj 160 162 random 9;
#X obj 160 125 bng 15 250 50 0 empty empty empty 17 7 0 10 -262144
-1 -1;
#X obj 160 181 expr ($i1 + $i2 + 1) % (9 + 1);
#X obj 160 103 spigot;
#X msg 62 246 \$1 \, 0 \$2;
#X obj 62 222 pack;
#X obj 62 270 vline~;
#X obj 120 249 line;
#X obj 160 144 del 5;
#X obj 160 283 osc~;
#X obj 160 308 *~;
#X obj 208 86 expr ($f1*-1)+1;
#X obj 120 268 > 0;
#X obj 160 66 bng 25 250 50 0 empty empty empty 17 7 0 10 -262144 -1
-1;
#X obj 160 26 metro;
#X msg 208 26 1;
#X obj 160 218 expr (($f1*(10*10))+($f1*10)+$f1)+111;
#X obj 148 383 throw~ \$0-ftraet;
#X obj 141 363 throw~ \$0-ftraeth;
#X obj 160 262 vline~;
#X obj 160 241 pack 0 5;
#X obj 62 293 *~;
#X obj 15 270 vline~;
#X msg 15 247 0 \, 1 5;
#X obj 15 230 bng 15 250 50 0 empty empty empty 17 7 0 10 -262144 -1
-1;
#X obj 62 178 * 0.01;
#X obj 187 49 random 1000;
#X obj 99 199 random 50;
#X obj 62 155 random 50;
#X obj 62 200 + 0.5;
#X obj 160 329 *~ 1;
#X obj 160 4 loadbang;
#X connect 1 0 18 0;
#X connect 1 1 4 1;
#X connect 2 0 4 0;
#X connect 3 0 10 0;
#X connect 3 0 29 0;
#X connect 3 0 30 0;
#X connect 4 0 1 0;
#X connect 5 0 3 0;
#X connect 6 0 8 0;
#X connect 6 0 9 0;
#X connect 7 0 6 0;
#X connect 7 0 26 0;
#X connect 8 0 23 0;
#X connect 9 0 14 0;
#X connect 10 0 2 0;
#X connect 11 0 12 0;
#X connect 12 0 32 0;
#X connect 13 0 5 1;
#X connect 14 0 13 0;
#X connect 15 0 5 0;
#X connect 16 0 15 0;
#X connect 16 0 28 0;
#X connect 17 0 5 1;
#X connect 18 0 22 0;
#X connect 21 0 11 0;
#X connect 22 0 21 0;
#X connect 23 0 12 1;
#X connect 24 0 23 1;
#X connect 25 0 24 0;
#X connect 26 0 25 0;
#X connect 27 0 31 0;
#X connect 28 0 16 1;
#X connect 29 0 7 1;
#X connect 30 0 27 0;
#X connect 31 0 7 0;
#X connect 32 0 20 0;
#X connect 32 0 19 0;
#X connect 32 0 0 0;
#X connect 33 0 16 0;
#X connect 33 0 17 0;
#X restore 0 5 pd tone_engine______;
#X obj 462 95 delcat1;
#X obj 504 333 delcat1;
#X obj 2 290 delcat1;
#X obj 2 129 phasor~ 0.125;
#X obj 515 138 *~;
#N canvas 0 22 117 130 phaseinit 0;
#X obj 14 85 outlet;
#X obj 14 26 r \$0-bangcrang;
#X obj 14 45 random 1000;
#X obj 14 64 * 0.001;
#X connect 1 0 2 0;
#X connect 2 0 3 0;
#X connect 3 0 0 0;
#X restore 585 117 pd phaseinit;
#X obj 582 141 osc~ 0.011;
#X obj 523 113 lop~ 1000;
#X obj 523 94 delcat1;
#X obj 309 322 expr $f1*-1+100;
#X obj 367 56 random 1000;
#X obj 377 77 random 10000;
#X obj 204 226 *~ 8;
#X obj 382 201 *~ 8;
#X obj 301 242 delcat1;
#N canvas 114 69 450 300 downsampla 0;
#X obj 40 46 inlet~;
#X obj 48 200 outlet~;
#X obj 150 119 tgl 15 0 empty empty empty 17 7 0 10 -262144 -1 -1 1
1;
#X obj 138 144 switch~ 8 1 0.000488281;
#X obj 136 73 inlet;
#X connect 0 0 1 0;
#X connect 2 0 3 0;
#X connect 4 0 2 0;
#X restore 41 401 pd downsampla;
#X obj 40 381 *~;
#X obj 55 361 > 88;
#X obj 55 341 env~ 64;
#X obj 41 421 delcat1;
#X obj 90 421 delcat1;
#X obj 50 272 osc~ 0.005;
#X obj 523 274 osc~ 0.003;
#X obj 50 293 clip~ 0 1;
#X obj 523 293 clip~ 0 1;
#X obj 664 296 *~;
#N canvas 0 22 117 130 phaseinit 0;
#X obj 14 85 outlet;
#X obj 14 26 r \$0-bangcrang;
#X obj 14 45 random 1000;
#X obj 14 64 * 0.001;
#X connect 1 0 2 0;
#X connect 2 0 3 0;
#X connect 3 0 0 0;
#X restore 746 237 pd phaseinit;
#X obj 664 214 tabread4~ drappola;
#X obj 664 194 *~ 44100;
#X obj 664 318 *~;
#X obj 697 301 phasor~ 0.02;
#N canvas 0 22 117 130 phaseinit 0;
#X obj 14 85 outlet;
#X obj 14 26 r \$0-bangcrang;
#X obj 14 45 random 1000;
#X obj 14 64 * 0.001;
#X connect 1 0 2 0;
#X connect 2 0 3 0;
#X connect 3 0 0 0;
#X restore 766 280 pd phaseinit;
#X obj 679 256 *~ -1;
#X obj 679 276 +~ 1;
#X obj 679 237 phasor~ 10;
#X obj 732 173 phasor~ 0.1;
#X obj 728 193 *~ 10;
#X obj 664 174 phasor~ 32;
#X obj 664 337 *~ 0.0625;
#X text 5 512 http://www.flickr.com/photos/leadtowill/;
#X text 5 488 C A T S C A N D L;
#X text 5 500 Leadtowill 2011;
#X obj 622 456 patchComs;
#X obj 622 476 switch~;
#X connect 0 0 11 0;
#X connect 0 0 15 0;
#X connect 0 0 27 0;
#X connect 1 0 11 0;
#X connect 1 0 29 0;
#X connect 2 0 4 0;
#X connect 2 0 42 0;
#X connect 2 0 71 1;
#X connect 3 0 4 0;
#X connect 4 0 5 0;
#X connect 4 0 12 0;
#X connect 4 0 66 0;
#X connect 4 0 67 0;
#X connect 5 0 4 1;
#X connect 7 0 51 0;
#X connect 8 0 9 0;
#X connect 9 0 10 0;
#X connect 10 0 7 0;
#X connect 11 0 49 0;
#X connect 11 1 49 0;
#X connect 11 2 49 0;
#X connect 11 3 49 0;
#X connect 12 0 13 0;
#X connect 13 0 14 0;
#X connect 14 0 11 2;
#X connect 14 0 65 0;
#X connect 16 0 15 0;
#X connect 17 0 37 0;
#X connect 18 0 19 0;
#X connect 19 0 20 0;
#X connect 20 0 17 0;
#X connect 21 0 39 0;
#X connect 21 0 33 0;
#X connect 21 1 33 0;
#X connect 21 2 33 0;
#X connect 21 3 40 0;
#X connect 21 3 33 0;
#X connect 22 0 58 0;
#X connect 23 0 18 0;
#X connect 24 0 26 0;
#X connect 25 0 27 1;
#X connect 26 0 25 0;
#X connect 27 0 68 0;
#X connect 28 0 30 0;
#X connect 29 0 69 0;
#X connect 30 0 29 1;
#X connect 31 0 28 0;
#X connect 34 0 35 0;
#X connect 35 0 41 0;
#X connect 36 0 39 0;
#X connect 37 0 57 0;
#X connect 38 0 21 0;
#X connect 38 0 74 0;
#X connect 38 0 72 0;
#X connect 39 0 98 0;
#X connect 40 0 98 1;
#X connect 41 0 56 0;
#X connect 41 0 64 0;
#X connect 43 0 39 0;
#X connect 43 0 70 0;
#X connect 44 0 40 0;
#X connect 44 0 70 0;
#X connect 45 0 78 1;
#X connect 46 0 59 1;
#X connect 47 0 50 1;
#X connect 48 0 77 1;
#X connect 49 0 16 0;
#X connect 50 0 36 1;
#X connect 51 0 22 0;
#X connect 52 0 34 0;
#X connect 53 0 36 0;
#X connect 56 0 53 0;
#X connect 57 0 21 0;
#X connect 57 0 74 0;
#X connect 57 0 72 0;
#X connect 58 0 38 0;
#X connect 59 0 8 0;
#X connect 60 0 40 0;
#X connect 61 0 62 1;
#X connect 62 0 60 1;
#X connect 63 0 60 0;
#X connect 64 0 63 0;
#X connect 65 0 21 2;
#X connect 66 0 13 1;
#X connect 67 0 66 1;
#X connect 68 0 43 0;
#X connect 69 0 44 0;
#X connect 70 0 33 0;
#X connect 71 0 75 0;
#X connect 71 0 76 0;
#X connect 72 0 71 0;
#X connect 73 0 72 1;
#X connect 74 0 73 0;
#X connect 75 0 39 0;
#X connect 76 0 40 0;
#X connect 77 0 79 0;
#X connect 78 0 80 0;
#X connect 79 0 38 1;
#X connect 80 0 37 1;
#X connect 81 0 85 0;
#X connect 82 0 90 1;
#X connect 82 0 91 1;
#X connect 83 0 81 0;
#X connect 84 0 83 0;
#X connect 85 0 94 0;
#X connect 86 0 85 1;
#X connect 87 0 86 1;
#X connect 88 0 89 0;
#X connect 89 0 81 1;
#X connect 90 0 88 0;
#X connect 91 0 92 0;
#X connect 92 0 90 0;
#X connect 93 0 84 0;
#X connect 94 0 40 0;
#X connect 94 0 39 0;
#X connect 98 0 99 0;
