#N canvas 112 112 912 527 10;
#X obj 400 291 *;
#X obj 453 291 *;
#X obj 400 313 -;
#X obj 400 263 f;
#X obj 425 264 f;
#X obj 453 264 f;
#X text 482 244 beta;
#X obj 76 313 -;
#X obj 76 339 *;
#X obj 100 265 f;
#X obj 76 265 f;
#X text 130 245 sigma;
#X obj 280 297 -;
#X obj 222 322 *;
#X obj 222 345 -;
#X obj 222 270 f;
#X obj 248 270 f;
#X obj 310 270 f;
#X text 352 129 x;
#X text 280 250 rho;
#X obj 163 8 inlet;
#X obj 163 30 bng 15 250 50 0 empty empty empty 17 7 0 10 -262144 -1
-1;
#X obj 222 454 outlet;
#X obj 76 447 outlet;
#X obj 400 439 outlet;
#X text 386 129 y;
#X text 420 129 z;
#X obj 163 55 t b b b b b;
#X obj 327 58 inlet;
#X obj 377 58 inlet;
#X obj 427 58 inlet;
#X obj 125 265 f \$1;
#X obj 280 270 f \$2;
#X obj 482 264 f \$3;
#X text 74 467 x;
#X text 218 474 y;
#X text 396 459 z;
#X obj 76 424 +;
#X obj 222 430 +;
#X obj 400 416 +;
#X floatatom 529 208 10 0 0 0 - - -;
#X floatatom 577 187 10 0 0 0 - - -;
#X floatatom 627 161 10 0 0 0 - - -;
#X floatatom 31 491 10 0 0 0 - - -;
#X floatatom 170 502 10 0 0 0 - - -;
#X floatatom 360 484 10 0 0 0 - - -;
#X obj 352 149 f \$5;
#X obj 386 149 f \$6;
#X obj 420 149 f \$7;
#X obj 76 371 * \$4;
#X obj 222 376 * \$4;
#X obj 400 352 * \$4;
#X connect 0 0 2 0;
#X connect 1 0 2 1;
#X connect 2 0 45 0;
#X connect 2 0 51 0;
#X connect 3 0 0 0;
#X connect 4 0 0 1;
#X connect 5 0 1 0;
#X connect 5 0 39 1;
#X connect 7 0 8 0;
#X connect 8 0 43 0;
#X connect 8 0 49 0;
#X connect 9 0 7 1;
#X connect 9 0 37 1;
#X connect 10 0 7 0;
#X connect 12 0 13 1;
#X connect 13 0 14 0;
#X connect 14 0 44 0;
#X connect 14 0 50 0;
#X connect 15 0 13 0;
#X connect 16 0 14 1;
#X connect 16 0 38 1;
#X connect 17 0 12 1;
#X connect 20 0 21 0;
#X connect 21 0 27 0;
#X connect 27 0 15 0;
#X connect 27 0 3 0;
#X connect 27 0 10 0;
#X connect 27 1 16 0;
#X connect 27 1 4 0;
#X connect 27 1 9 0;
#X connect 27 2 5 0;
#X connect 27 2 31 0;
#X connect 27 2 32 0;
#X connect 27 3 17 0;
#X connect 27 3 33 0;
#X connect 27 4 46 0;
#X connect 27 4 47 0;
#X connect 27 4 48 0;
#X connect 28 0 46 1;
#X connect 29 0 47 1;
#X connect 30 0 48 1;
#X connect 31 0 8 1;
#X connect 32 0 12 0;
#X connect 33 0 1 1;
#X connect 37 0 23 0;
#X connect 37 0 46 1;
#X connect 38 0 22 0;
#X connect 38 0 47 1;
#X connect 39 0 24 0;
#X connect 39 0 48 1;
#X connect 46 0 15 1;
#X connect 46 0 9 1;
#X connect 46 0 3 1;
#X connect 46 0 40 0;
#X connect 47 0 16 1;
#X connect 47 0 10 1;
#X connect 47 0 4 1;
#X connect 47 0 41 0;
#X connect 48 0 5 1;
#X connect 48 0 17 1;
#X connect 48 0 42 0;
#X connect 49 0 37 0;
#X connect 50 0 38 0;
#X connect 51 0 39 0;
