#N canvas 93 33 1199 624 10;
#X floatatom 35 200 10 0 0 0 - - -;
#X obj 844 91 bng 15 250 50 0 empty empty empty 17 7 0 10 -262144 -1
-1;
#X floatatom 138 200 10 0 0 0 - - -;
#X floatatom 223 200 10 0 0 0 - - -;
#X obj 844 58 metro 30;
#X obj 910 13 tgl 15 0 empty empty empty 17 7 0 10 -262144 -1 -1 0
1;
#X floatatom 321 230 10 0 0 0 - - -;
#X floatatom 424 230 10 0 0 0 - - -;
#X floatatom 503 230 10 0 0 0 - - -;
#X floatatom 617 215 10 0 0 0 - - -;
#X floatatom 720 215 10 0 0 0 - - -;
#X floatatom 897 193 10 0 0 0 - - -;
#X obj 51 235 + 20;
#X obj 51 267 * 10;
#X obj 109 325 simpleFMModule;
#X obj 223 233 abs;
#X obj 138 234 + 10;
#X obj 343 270 + 20;
#X obj 343 302 * 10;
#X obj 379 357 simpleFMModule;
#X obj 503 264 abs;
#X obj 424 265 + 10;
#X obj 582 455 vcf~;
#X obj 384 401 +~;
#X obj 615 341 sig~;
#X obj 623 288 * 10;
#X obj 623 256 + 40;
#X obj 740 264 / 30;
#X obj 918 216 abs;
#X obj 884 250 + 30;
#X obj 924 467 *~ 0;
#X obj 1026 276 vsl 15 128 0 127 0 0 empty empty empty 0 -9 0 10 -262144
-1 -1 3400 1;
#X obj 1026 414 / 100;
#X obj 914 495 dac~;
#X obj 971 444 * 0;
#X obj 981 225 t b f;
#X obj 35 151 LorenzAttractor 10 28 2.66667 0.01 0.1 0.2 0.3;
#X obj 321 181 LorenzAttractor 10 28 2.66667 0.01 0.1 10.2 1;
#X obj 620 160 LorenzAttractor 10 28 2.66667 0.01 1.1 5.2 7.8;
#X obj 1052 217 loadbang;
#X msg 1048 244 70;
#X obj 748 521 writesf~ 2;
#X msg 700 437 start;
#X msg 676 488 stop;
#X msg 771 430 open LorenzDrone.wav;
#X connect 0 0 12 0;
#X connect 1 0 36 0;
#X connect 1 0 37 0;
#X connect 1 0 38 0;
#X connect 2 0 16 0;
#X connect 3 0 15 0;
#X connect 4 0 1 0;
#X connect 5 0 4 0;
#X connect 5 0 35 0;
#X connect 6 0 17 0;
#X connect 7 0 21 0;
#X connect 8 0 20 0;
#X connect 9 0 26 0;
#X connect 10 0 27 0;
#X connect 11 0 28 0;
#X connect 12 0 13 0;
#X connect 13 0 14 0;
#X connect 14 0 23 0;
#X connect 15 0 14 2;
#X connect 16 0 14 1;
#X connect 17 0 18 0;
#X connect 18 0 19 0;
#X connect 19 0 23 1;
#X connect 20 0 19 2;
#X connect 21 0 19 1;
#X connect 22 0 30 0;
#X connect 23 0 22 0;
#X connect 24 0 22 1;
#X connect 25 0 24 0;
#X connect 26 0 25 0;
#X connect 27 0 22 2;
#X connect 28 0 29 0;
#X connect 29 0 4 1;
#X connect 30 0 33 0;
#X connect 30 0 33 1;
#X connect 30 0 41 0;
#X connect 30 0 41 1;
#X connect 31 0 32 0;
#X connect 32 0 34 0;
#X connect 34 0 30 1;
#X connect 35 0 31 0;
#X connect 35 1 34 1;
#X connect 36 0 0 0;
#X connect 36 1 2 0;
#X connect 36 2 3 0;
#X connect 37 0 6 0;
#X connect 37 1 7 0;
#X connect 37 2 8 0;
#X connect 38 0 9 0;
#X connect 38 1 10 0;
#X connect 38 2 11 0;
#X connect 39 0 40 0;
#X connect 40 0 31 0;
#X connect 42 0 41 0;
#X connect 43 0 41 0;
#X connect 44 0 41 0;
