#N canvas 93 33 1199 624 10;
#X floatatom 35 200 10 0 0 0 - - -;
#X obj 844 91 bng 15 250 50 0 empty empty empty 17 7 0 10 -262144 -1
-1;
#X floatatom 138 200 10 0 0 0 - - -;
#X floatatom 223 200 10 0 0 0 - - -;
#X obj 844 58 metro 30;
#X obj 877 32 tgl 15 0 empty empty empty 17 7 0 10 -262144 -1 -1 0
1;
#X floatatom 321 230 10 0 0 0 - - -;
#X floatatom 424 230 10 0 0 0 - - -;
#X floatatom 503 230 10 0 0 0 - - -;
#X floatatom 617 215 10 0 0 0 - - -;
#X floatatom 720 215 10 0 0 0 - - -;
#X floatatom 897 193 10 0 0 0 - - -;
#X obj 51 235 + 20;
#X obj 51 267 * 10;
#X obj 109 325 simpleFMModule;
#X obj 223 233 abs;
#X obj 138 234 + 10;
#X obj 343 270 + 20;
#X obj 343 302 * 10;
#X obj 379 357 simpleFMModule;
#X obj 503 264 abs;
#X obj 424 265 + 10;
#X obj 582 455 vcf~;
#X obj 384 401 +~;
#X obj 615 341 sig~;
#X obj 623 288 * 10;
#X obj 623 256 + 40;
#X obj 740 264 / 30;
#X obj 918 216 abs;
#X obj 920 249 + 30;
#X obj 35 151 LorenzAttractor 10 28 2.66667 0.01 0.1 0.2 0.3;
#X obj 321 181 LorenzAttractor 10 28 2.66667 0.01 0.1 10.2 1;
#X obj 620 160 LorenzAttractor 10 28 2.66667 0.01 1.1 5.2 7.8;
#X obj 583 497 *~ 0.7;
#X obj 573 525 patchComs;
#X obj 573 552 switch~;
#X obj 917 22 loadbang;
#X connect 0 0 12 0;
#X connect 1 0 30 0;
#X connect 1 0 31 0;
#X connect 1 0 32 0;
#X connect 2 0 16 0;
#X connect 3 0 15 0;
#X connect 4 0 1 0;
#X connect 5 0 4 0;
#X connect 6 0 17 0;
#X connect 7 0 21 0;
#X connect 8 0 20 0;
#X connect 9 0 26 0;
#X connect 10 0 27 0;
#X connect 11 0 28 0;
#X connect 12 0 13 0;
#X connect 13 0 14 0;
#X connect 14 0 23 0;
#X connect 15 0 14 2;
#X connect 16 0 14 1;
#X connect 17 0 18 0;
#X connect 18 0 19 0;
#X connect 19 0 23 1;
#X connect 20 0 19 2;
#X connect 21 0 19 1;
#X connect 22 0 33 0;
#X connect 23 0 22 0;
#X connect 24 0 22 1;
#X connect 25 0 24 0;
#X connect 26 0 25 0;
#X connect 27 0 22 2;
#X connect 28 0 29 0;
#X connect 29 0 4 1;
#X connect 30 0 0 0;
#X connect 30 1 2 0;
#X connect 30 2 3 0;
#X connect 31 0 6 0;
#X connect 31 1 7 0;
#X connect 31 2 8 0;
#X connect 32 0 9 0;
#X connect 32 1 10 0;
#X connect 32 2 11 0;
#X connect 33 0 34 0;
#X connect 33 0 34 1;
#X connect 34 0 35 0;
#X connect 36 0 5 0;
