#N canvas 573 164 339 394 10;
#X obj 63 142 osc~;
#X obj 44 67 sig~;
#X obj 63 170 *~;
#X obj 45 197 +~;
#X obj 45 230 osc~;
#X obj 44 29 inlet;
#X obj 90 29 inlet;
#X obj 125 52 inlet;
#X obj 45 260 outlet~;
#X obj 63 104 *~ \$1;
#X obj 98 142 *~ \$2;
#X connect 0 0 2 0;
#X connect 1 0 3 0;
#X connect 1 0 9 0;
#X connect 2 0 3 1;
#X connect 3 0 4 0;
#X connect 4 0 8 0;
#X connect 5 0 1 0;
#X connect 6 0 9 1;
#X connect 7 0 10 1;
#X connect 9 0 10 0;
#X connect 9 0 0 0;
#X connect 10 0 2 1;
