#N canvas 0 22 633 586 10;
#X floatatom 169 205 5 0 0 0 - - -;
#X obj 169 160 t a a;
#X obj 169 111 random 9;
#X obj 169 135 expr ($i1 + $i2 + 1) % (9 + 1);
#X obj 169 226 osc~;
#X obj 169 9 bng 25 250 50 0 empty empty empty 17 7 0 10 -262144 -1
-1;
#X obj 169 -31 metro;
#X obj 169 -53 loadbang;
#X obj 148 -50 bng 15 250 50 0 empty empty empty 17 7 0 10 -262144
-1 -1;
#X msg 400 14 10;
#X obj 196 -8 random 10000;
#X obj 190 252 overtonesht 1.72 2.01 2.35 2.73 3.02 3.35;
#X obj 169 183 expr (($f1*($f2*10))+($f1*$f2)+$f1)+111;
#X obj 167 394 *~;
#X obj 188 369 vline~;
#X obj 188 482 outlet~;
#X obj 206 312 * 1e-05;
#X obj 206 287 random 2000;
#X obj 284 327 inlet~;
#X obj 284 354 overtonesht_filt 1.72 2.01 2.35 2.73 3.02 3.35;
#X obj 69 121 bng 15 250 50 0 empty empty empty 17 7 0 10 -262144 -1
-1;
#X obj 69 233 vline~;
#X msg 65 199 \$1 1000;
#X obj 183 426 *~;
#X obj 69 163 * 0.01;
#X obj 69 141 random 100;
#X msg 197 342 \$1 \, 0 1000;
#X connect 0 0 4 0;
#X connect 0 0 11 0;
#X connect 0 0 19 1;
#X connect 1 0 12 0;
#X connect 1 1 3 1;
#X connect 2 0 3 0;
#X connect 3 0 1 0;
#X connect 4 0 13 0;
#X connect 5 0 2 0;
#X connect 5 0 17 0;
#X connect 5 0 20 0;
#X connect 6 0 5 0;
#X connect 6 0 10 0;
#X connect 7 0 6 0;
#X connect 7 0 9 0;
#X connect 8 0 6 0;
#X connect 9 0 12 1;
#X connect 10 0 6 1;
#X connect 11 0 13 0;
#X connect 12 0 0 0;
#X connect 13 0 23 0;
#X connect 14 0 13 1;
#X connect 16 0 26 0;
#X connect 17 0 16 0;
#X connect 18 0 19 0;
#X connect 19 0 15 0;
#X connect 20 0 25 0;
#X connect 21 0 23 1;
#X connect 22 0 21 0;
#X connect 23 0 15 0;
#X connect 24 0 22 0;
#X connect 25 0 24 0;
#X connect 26 0 14 0;
