#N canvas 479 162 381 372 10;
#N canvas 0 22 824 659 fumtunt 0;
#X text 391 308 175 220 265 345 550 700 880 1000 1100 1400 1750 2300
2950 3500 4300;
#X obj 15 116 throw~ \$0-outh;
#X obj 168 115 throw~ \$0-outh;
#X obj 475 114 throw~ \$0-outh;
#X obj 627 114 throw~ \$0-outh;
#X obj 15 184 throw~ \$0-outh;
#X obj 168 182 throw~ \$0-outh;
#X obj 323 181 throw~ \$0-outh;
#X obj 476 181 throw~ \$0-outh;
#X obj 628 181 throw~ \$0-outh;
#X obj 16 251 throw~ \$0-outh;
#X obj 168 251 throw~ \$0-outh;
#X obj 323 250 throw~ \$0-outh;
#X obj 476 250 throw~ \$0-outh;
#X obj 628 250 throw~ \$0-outh;
#X obj 323 115 throw~ \$0-outh;
#X obj 633 437 throw~ \$0-outhr;
#X obj 481 437 throw~ \$0-outhr;
#X obj 329 438 throw~ \$0-outhr;
#X obj 174 438 throw~ \$0-outhr;
#X obj 21 439 throw~ \$0-outhr;
#X obj 21 507 throw~ \$0-outhr;
#X obj 174 505 throw~ \$0-outhr;
#X obj 329 504 throw~ \$0-outhr;
#X obj 482 504 throw~ \$0-outhr;
#X obj 634 504 throw~ \$0-outhr;
#X obj 22 574 throw~ \$0-outhr;
#X obj 174 574 throw~ \$0-outhr;
#X obj 329 573 throw~ \$0-outhr;
#X obj 482 573 throw~ \$0-outhr;
#X obj 634 573 throw~ \$0-outhr;
#X obj 15 45 delread~ \$0-derrty 2000;
#X obj 581 592 delwrite~ \$0-derrty 2000;
#X obj 15 71 clip~ -0.3 0.3;
#X obj 21 396 clip~ -0.3 0.3;
#X text 411 28 FROGS>?;
#X obj 174 417 funmunt 55;
#X obj 475 93 funmunt 345;
#X obj 634 483 funmunt 1400;
#X obj 16 230 funmunt 1750;
#X obj 323 229 funmunt 2950;
#X obj 168 230 funmunt 2300;
#X obj 15 163 funmunt 700;
#X obj 329 417 funmunt 265;
#X obj 15 95 funmunt 175;
#X obj 627 93 funmunt 550;
#X obj 168 161 funmunt 880;
#X obj 323 160 funmunt 1000;
#X obj 476 160 funmunt 1100;
#X obj 628 160 funmunt 1400;
#X obj 476 229 funmunt 3500;
#X obj 628 229 funmunt 4300;
#X obj 323 94 funmunt 265;
#X obj 329 552 funmunt 2950;
#X obj 22 553 funmunt 1750;
#X obj 21 418 funmunt 175;
#X obj 481 416 funmunt 345;
#X obj 633 416 funmunt 550;
#X obj 21 486 funmunt 700;
#X obj 174 484 funmunt 880;
#X obj 329 483 funmunt 1000;
#X obj 482 483 funmunt 1100;
#X obj 174 553 funmunt 2300;
#X obj 482 552 funmunt 3500;
#X obj 634 552 funmunt 4300;
#X obj 168 94 funmunt 110;
#X connect 31 0 33 0;
#X connect 33 0 44 0;
#X connect 34 0 55 0;
#X connect 36 0 19 0;
#X connect 36 0 14 0;
#X connect 36 0 43 0;
#X connect 37 0 3 0;
#X connect 37 0 45 0;
#X connect 38 0 25 0;
#X connect 38 0 54 0;
#X connect 39 0 10 0;
#X connect 39 0 41 0;
#X connect 40 0 12 0;
#X connect 40 0 50 0;
#X connect 41 0 11 0;
#X connect 41 0 40 0;
#X connect 42 0 5 0;
#X connect 42 0 46 0;
#X connect 43 0 18 0;
#X connect 43 0 56 0;
#X connect 44 0 1 0;
#X connect 44 0 65 0;
#X connect 45 0 4 0;
#X connect 45 0 42 0;
#X connect 46 0 6 0;
#X connect 46 0 47 0;
#X connect 47 0 7 0;
#X connect 47 0 48 0;
#X connect 48 0 8 0;
#X connect 48 0 49 0;
#X connect 49 0 9 0;
#X connect 49 0 39 0;
#X connect 50 0 13 0;
#X connect 50 0 51 0;
#X connect 51 0 14 0;
#X connect 51 0 34 0;
#X connect 52 0 15 0;
#X connect 52 0 37 0;
#X connect 53 0 28 0;
#X connect 53 0 63 0;
#X connect 54 0 26 0;
#X connect 54 0 62 0;
#X connect 55 0 20 0;
#X connect 55 0 36 0;
#X connect 56 0 17 0;
#X connect 56 0 57 0;
#X connect 57 0 16 0;
#X connect 57 0 58 0;
#X connect 58 0 21 0;
#X connect 58 0 59 0;
#X connect 59 0 22 0;
#X connect 59 0 60 0;
#X connect 60 0 23 0;
#X connect 60 0 61 0;
#X connect 61 0 24 0;
#X connect 61 0 38 0;
#X connect 62 0 27 0;
#X connect 62 0 53 0;
#X connect 63 0 29 0;
#X connect 63 0 64 0;
#X connect 64 0 30 0;
#X connect 64 0 32 0;
#X connect 65 0 2 0;
#X connect 65 0 30 0;
#X connect 65 0 52 0;
#X restore 56 98 pd fumtunt;
#N canvas 0 22 348 494 froggin 0;
#X obj -30 169 catch~ \$0-outh;
#X obj 62 169 catch~ \$0-outhr;
#X obj 17 213 hip~ 15000;
#X obj 87 212 rev2~ 79 79 3000 15;
#X obj 87 190 lop~ 150;
#X obj 132 146 * 1000;
#X obj 132 125 snapshot~;
#X obj 156 99 bang~;
#X obj 132 78 osc~ 0.05;
#X obj 161 169 > 0.9;
#X obj 161 189 sel 1;
#X obj 132 56 * 0.001;
#X obj 132 34 random 1000;
#X obj 132 14 bng 15 250 50 0 empty empty empty 17 7 0 10 -262144 -1
-1;
#X obj 24 247 thru~;
#X obj -30 272 clip~ -0.3 0.3;
#X obj 62 272 clip~ -0.3 0.3;
#X obj -28 323 clip~ -0.3 0.3;
#X obj 64 323 clip~ -0.3 0.3;
#X obj 31 457 outlet~;
#X obj 80 457 outlet~;
#X obj 72 382 thru~;
#X text 233 57 frog cars?;
#X obj 63 294 funmunt 880;
#X obj -29 294 funmunt 2950;
#X obj -27 345 funmunt 3500;
#X obj 65 345 funmunt 1100;
#X obj 93 248 inlet~;
#X connect 0 0 2 0;
#X connect 0 0 4 0;
#X connect 0 0 14 0;
#X connect 1 0 2 0;
#X connect 1 0 4 0;
#X connect 1 0 14 1;
#X connect 2 0 14 0;
#X connect 2 0 14 1;
#X connect 3 0 14 0;
#X connect 3 0 16 0;
#X connect 3 1 14 1;
#X connect 3 2 14 0;
#X connect 3 2 15 0;
#X connect 3 3 14 1;
#X connect 4 0 3 0;
#X connect 5 0 4 1;
#X connect 6 0 5 0;
#X connect 6 0 9 0;
#X connect 7 0 6 0;
#X connect 8 0 6 0;
#X connect 9 0 10 0;
#X connect 10 0 13 0;
#X connect 11 0 8 0;
#X connect 12 0 11 0;
#X connect 13 0 12 0;
#X connect 14 0 16 0;
#X connect 14 0 21 0;
#X connect 14 1 15 0;
#X connect 14 1 21 1;
#X connect 15 0 24 0;
#X connect 16 0 23 0;
#X connect 17 0 25 0;
#X connect 18 0 26 0;
#X connect 21 0 19 0;
#X connect 21 1 20 0;
#X connect 23 0 17 0;
#X connect 23 0 21 0;
#X connect 24 0 18 0;
#X connect 24 0 21 1;
#X connect 25 0 21 1;
#X connect 26 0 21 0;
#X connect 27 0 16 0;
#X connect 27 0 15 0;
#X restore -128 56 pd froggin;
#N canvas 118 282 921 522 lereignMTL 0;
#X obj 88 345 outlet~;
#X obj 108 281 *~ 3.2;
#X obj 150 281 *~ 3.2;
#X obj 192 281 *~ 3.8;
#X obj 235 297 *~ 0.03;
#X obj 296 274 vline~;
#X obj 330 226 pack;
#X obj 352 206 random 10000;
#X obj 328 167 random 10000;
#X obj 328 187 * 0.0001;
#X obj 328 146 metro;
#X obj 328 126 r \$0-roadbrang;
#X obj 341 397 s \$0-roadbrang;
#X obj 341 376 loadbang;
#X obj 396 378 bng 15 250 50 0 empty empty empty 17 7 0 10 -262144
-1 -1;
#X obj 22 247 vline~;
#X obj 22 226 pack;
#X obj 44 206 random 10000;
#X obj 20 167 random 10000;
#X obj 20 187 * 0.0001;
#X obj 20 146 metro;
#X obj 57 146 random 10000;
#X obj 20 126 r \$0-roadbrang;
#X obj 213 249 vline~;
#X obj 213 228 pack;
#X obj 235 208 random 10000;
#X obj 211 148 metro;
#X obj 248 148 random 10000;
#X obj 211 128 r \$0-roadbrang;
#X obj 106 92 vline~;
#X obj 106 71 pack;
#X obj 128 51 random 10000;
#X obj 104 12 random 10000;
#X obj 104 32 * 0.0001;
#X obj 104 -9 metro;
#X obj 141 -9 random 10000;
#X obj 104 -29 r \$0-roadbrang;
#X obj 217 86 vline~;
#X obj 217 65 pack;
#X obj 239 45 random 10000;
#X obj 215 6 random 10000;
#X obj 215 26 * 0.0001;
#X obj 215 -15 metro;
#X obj 252 -15 random 10000;
#X obj 215 -35 r \$0-roadbrang;
#X obj 365 146 random 20000;
#X obj 534 347 outlet~;
#X obj 554 283 *~ 3.2;
#X obj 596 283 *~ 3.2;
#X obj 638 283 *~ 3.8;
#X obj 681 299 *~ 0.03;
#X obj 742 276 vline~;
#X obj 776 228 pack;
#X obj 798 208 random 10000;
#X obj 774 169 random 10000;
#X obj 774 189 * 0.0001;
#X obj 774 148 metro;
#X obj 774 128 r \$0-roadbrang;
#X obj 468 249 vline~;
#X obj 468 228 pack;
#X obj 490 208 random 10000;
#X obj 466 169 random 10000;
#X obj 466 189 * 0.0001;
#X obj 466 148 metro;
#X obj 503 148 random 10000;
#X obj 466 128 r \$0-roadbrang;
#X obj 659 251 vline~;
#X obj 659 230 pack;
#X obj 681 210 random 10000;
#X obj 657 150 metro;
#X obj 694 150 random 10000;
#X obj 657 130 r \$0-roadbrang;
#X obj 552 94 vline~;
#X obj 552 73 pack;
#X obj 574 53 random 10000;
#X obj 550 14 random 10000;
#X obj 550 34 * 0.0001;
#X obj 550 -7 metro;
#X obj 587 -7 random 10000;
#X obj 550 -27 r \$0-roadbrang;
#X obj 663 88 vline~;
#X obj 663 67 pack;
#X obj 685 47 random 10000;
#X obj 661 8 random 10000;
#X obj 661 28 * 0.0001;
#X obj 661 -13 metro;
#X obj 698 -13 random 10000;
#X obj 661 -33 r \$0-roadbrang;
#X obj 811 148 random 20000;
#N canvas 0 22 809 616 mtl/rainin 0;
#X obj 236 273 osc~;
#X obj 247 69 noise~;
#X obj 236 347 *~;
#X obj 203 244 +~ 2000;
#X obj 274 272 *~;
#X obj 274 297 *~;
#X obj 236 451 *~ 0.01;
#X obj 237 473 lop~ 10000;
#X obj 248 165 bp~ 2.064 0.002;
#X obj 275 322 *~;
#X obj 235 381 *~ 0.3;
#X obj 236 406 hip~ 500;
#X obj 237 429 hip~ 500;
#X obj 202 220 *~ 3000;
#X obj 236 496 *~ 0.02;
#X obj 122 273 osc~;
#X obj 133 69 noise~;
#X obj 122 347 *~;
#X obj 160 272 *~;
#X obj 160 297 *~;
#X obj 122 451 *~ 0.01;
#X obj 123 473 lop~ 10000;
#X obj 134 165 bp~ 2.064 0.002;
#X obj 161 322 *~;
#X obj 121 381 *~ 0.3;
#X obj 122 406 hip~ 500;
#X obj 123 429 hip~ 500;
#X obj 350 272 osc~;
#X obj 361 68 noise~;
#X obj 350 346 *~;
#X obj 317 243 +~ 2000;
#X obj 388 271 *~;
#X obj 388 296 *~;
#X obj 350 450 *~ 0.01;
#X obj 351 472 lop~ 10000;
#X obj 362 164 bp~ 2.064 0.002;
#X obj 389 321 *~;
#X obj 349 380 *~ 0.3;
#X obj 350 405 hip~ 500;
#X obj 351 428 hip~ 500;
#X obj 88 220 *~ 344;
#X obj 89 244 +~ 3000;
#X obj 122 496 *~ 0.01;
#X obj 316 219 *~ 5000;
#X obj 350 495 *~ 0.01;
#X obj 437 211 *~;
#X obj 145 102 lop~ 16;
#X obj 437 502 *~ 1;
#X obj 509 205 /~;
#X obj 508 312 clip~ 0 0.9;
#X obj 437 297 bp~ 333 4;
#X obj 242 544 lop~ 12000;
#X obj 438 345 *~ 0.4;
#X obj 261 95 lop~ 0.01;
#X obj 508 230 hip~ 10000;
#X obj 439 97 lop~ 1900;
#X obj 509 291 *~;
#X text 211 13 Rain generator;
#X obj 508 423 vcf~ 3333 30;
#X obj 547 355 +~ 1000;
#X obj 146 128 *~ 300000;
#X obj 546 391 clip~ 1000 10000;
#X obj 505 450 *~ 0.7;
#X text 35 387 ambience;
#X text 443 374 rumble;
#X text 504 475 drips;
#X text 153 359 droplets;
#X text 276 359 droplets;
#X text 186 34 with ambience gen highlighted;
#X obj 243 576 outlet~;
#X obj 539 99 inlet~;
#X obj 19 345 *~;
#X obj 549 109 inlet~;
#X obj 559 119 inlet~;
#X obj 569 129 inlet~;
#X obj 579 139 inlet~;
#X obj 135 188 *~;
#X obj 249 188 *~;
#X obj 363 187 *~;
#X obj 510 266 *~;
#X connect 0 0 2 0;
#X connect 1 0 8 0;
#X connect 1 0 53 0;
#X connect 2 0 10 0;
#X connect 3 0 0 0;
#X connect 4 0 5 0;
#X connect 4 0 5 1;
#X connect 5 0 9 0;
#X connect 5 0 9 1;
#X connect 6 0 7 0;
#X connect 7 0 14 0;
#X connect 8 0 77 0;
#X connect 9 0 2 1;
#X connect 10 0 11 0;
#X connect 11 0 12 0;
#X connect 12 0 6 0;
#X connect 13 0 3 0;
#X connect 14 0 51 0;
#X connect 15 0 17 0;
#X connect 16 0 22 0;
#X connect 16 0 46 0;
#X connect 16 0 71 0;
#X connect 17 0 24 0;
#X connect 18 0 19 0;
#X connect 18 0 19 1;
#X connect 19 0 23 0;
#X connect 19 0 23 1;
#X connect 20 0 21 0;
#X connect 21 0 42 0;
#X connect 22 0 76 0;
#X connect 23 0 17 1;
#X connect 24 0 25 0;
#X connect 25 0 26 0;
#X connect 26 0 20 0;
#X connect 27 0 29 0;
#X connect 28 0 35 0;
#X connect 28 0 45 1;
#X connect 28 0 55 0;
#X connect 29 0 37 0;
#X connect 30 0 27 0;
#X connect 31 0 32 0;
#X connect 31 0 32 1;
#X connect 32 0 36 0;
#X connect 32 0 36 1;
#X connect 33 0 34 0;
#X connect 34 0 44 0;
#X connect 35 0 78 0;
#X connect 36 0 29 1;
#X connect 37 0 38 0;
#X connect 38 0 39 0;
#X connect 39 0 33 0;
#X connect 40 0 41 0;
#X connect 41 0 15 0;
#X connect 42 0 51 0;
#X connect 43 0 30 0;
#X connect 44 0 51 0;
#X connect 45 0 50 0;
#X connect 46 0 45 0;
#X connect 46 0 60 0;
#X connect 47 0 51 0;
#X connect 48 0 54 0;
#X connect 49 0 58 0;
#X connect 50 0 52 0;
#X connect 51 0 69 0;
#X connect 52 0 47 0;
#X connect 53 0 48 0;
#X connect 54 0 79 0;
#X connect 55 0 48 1;
#X connect 56 0 49 0;
#X connect 58 0 62 0;
#X connect 59 0 61 0;
#X connect 60 0 59 0;
#X connect 61 0 58 1;
#X connect 62 0 51 0;
#X connect 70 0 71 1;
#X connect 71 0 51 0;
#X connect 72 0 76 1;
#X connect 73 0 77 1;
#X connect 74 0 78 1;
#X connect 75 0 79 1;
#X connect 76 0 18 0;
#X connect 76 0 18 1;
#X connect 76 0 40 0;
#X connect 77 0 4 0;
#X connect 77 0 4 1;
#X connect 77 0 13 0;
#X connect 78 0 31 0;
#X connect 78 0 31 1;
#X connect 78 0 43 0;
#X connect 79 0 56 0;
#X connect 79 0 56 1;
#X restore 534 318 pd mtl/rainin;
#N canvas 0 22 809 616 mtl/rainin 0;
#X obj 236 273 osc~;
#X obj 247 69 noise~;
#X obj 236 347 *~;
#X obj 203 244 +~ 2000;
#X obj 274 272 *~;
#X obj 274 297 *~;
#X obj 236 451 *~ 0.01;
#X obj 237 473 lop~ 10000;
#X obj 248 165 bp~ 2.064 0.002;
#X obj 275 322 *~;
#X obj 235 381 *~ 0.3;
#X obj 236 406 hip~ 500;
#X obj 237 429 hip~ 500;
#X obj 202 220 *~ 3000;
#X obj 236 496 *~ 0.02;
#X obj 122 273 osc~;
#X obj 133 69 noise~;
#X obj 122 347 *~;
#X obj 160 272 *~;
#X obj 160 297 *~;
#X obj 122 451 *~ 0.01;
#X obj 123 473 lop~ 10000;
#X obj 134 165 bp~ 2.064 0.002;
#X obj 161 322 *~;
#X obj 121 381 *~ 0.3;
#X obj 122 406 hip~ 500;
#X obj 123 429 hip~ 500;
#X obj 350 272 osc~;
#X obj 361 68 noise~;
#X obj 350 346 *~;
#X obj 317 243 +~ 2000;
#X obj 388 271 *~;
#X obj 388 296 *~;
#X obj 350 450 *~ 0.01;
#X obj 351 472 lop~ 10000;
#X obj 362 164 bp~ 2.064 0.002;
#X obj 389 321 *~;
#X obj 349 380 *~ 0.3;
#X obj 350 405 hip~ 500;
#X obj 351 428 hip~ 500;
#X obj 88 220 *~ 344;
#X obj 89 244 +~ 3000;
#X obj 122 496 *~ 0.01;
#X obj 316 219 *~ 5000;
#X obj 350 495 *~ 0.01;
#X obj 437 211 *~;
#X obj 145 102 lop~ 16;
#X obj 437 502 *~ 1;
#X obj 509 205 /~;
#X obj 508 312 clip~ 0 0.9;
#X obj 437 297 bp~ 333 4;
#X obj 242 544 lop~ 12000;
#X obj 438 345 *~ 0.4;
#X obj 261 95 lop~ 0.01;
#X obj 508 230 hip~ 10000;
#X obj 439 97 lop~ 1900;
#X obj 509 291 *~;
#X text 211 13 Rain generator;
#X obj 508 423 vcf~ 3333 30;
#X obj 547 355 +~ 1000;
#X obj 146 128 *~ 300000;
#X obj 546 391 clip~ 1000 10000;
#X obj 505 450 *~ 0.7;
#X text 35 387 ambience;
#X text 443 374 rumble;
#X text 504 475 drips;
#X text 153 359 droplets;
#X text 276 359 droplets;
#X text 186 34 with ambience gen highlighted;
#X obj 243 576 outlet~;
#X obj 539 99 inlet~;
#X obj 19 345 *~;
#X obj 549 109 inlet~;
#X obj 559 119 inlet~;
#X obj 569 129 inlet~;
#X obj 579 139 inlet~;
#X obj 135 188 *~;
#X obj 249 188 *~;
#X obj 363 187 *~;
#X obj 510 266 *~;
#X connect 0 0 2 0;
#X connect 1 0 8 0;
#X connect 1 0 53 0;
#X connect 2 0 10 0;
#X connect 3 0 0 0;
#X connect 4 0 5 0;
#X connect 4 0 5 1;
#X connect 5 0 9 0;
#X connect 5 0 9 1;
#X connect 6 0 7 0;
#X connect 7 0 14 0;
#X connect 8 0 77 0;
#X connect 9 0 2 1;
#X connect 10 0 11 0;
#X connect 11 0 12 0;
#X connect 12 0 6 0;
#X connect 13 0 3 0;
#X connect 14 0 51 0;
#X connect 15 0 17 0;
#X connect 16 0 22 0;
#X connect 16 0 46 0;
#X connect 16 0 71 0;
#X connect 17 0 24 0;
#X connect 18 0 19 0;
#X connect 18 0 19 1;
#X connect 19 0 23 0;
#X connect 19 0 23 1;
#X connect 20 0 21 0;
#X connect 21 0 42 0;
#X connect 22 0 76 0;
#X connect 23 0 17 1;
#X connect 24 0 25 0;
#X connect 25 0 26 0;
#X connect 26 0 20 0;
#X connect 27 0 29 0;
#X connect 28 0 35 0;
#X connect 28 0 45 1;
#X connect 28 0 55 0;
#X connect 29 0 37 0;
#X connect 30 0 27 0;
#X connect 31 0 32 0;
#X connect 31 0 32 1;
#X connect 32 0 36 0;
#X connect 32 0 36 1;
#X connect 33 0 34 0;
#X connect 34 0 44 0;
#X connect 35 0 78 0;
#X connect 36 0 29 1;
#X connect 37 0 38 0;
#X connect 38 0 39 0;
#X connect 39 0 33 0;
#X connect 40 0 41 0;
#X connect 41 0 15 0;
#X connect 42 0 51 0;
#X connect 43 0 30 0;
#X connect 44 0 51 0;
#X connect 45 0 50 0;
#X connect 46 0 45 0;
#X connect 46 0 60 0;
#X connect 47 0 51 0;
#X connect 48 0 54 0;
#X connect 49 0 58 0;
#X connect 50 0 52 0;
#X connect 51 0 69 0;
#X connect 52 0 47 0;
#X connect 53 0 48 0;
#X connect 54 0 79 0;
#X connect 55 0 48 1;
#X connect 56 0 49 0;
#X connect 58 0 62 0;
#X connect 59 0 61 0;
#X connect 60 0 59 0;
#X connect 61 0 58 1;
#X connect 62 0 51 0;
#X connect 70 0 71 1;
#X connect 71 0 51 0;
#X connect 72 0 76 1;
#X connect 73 0 77 1;
#X connect 74 0 78 1;
#X connect 75 0 79 1;
#X connect 76 0 18 0;
#X connect 76 0 18 1;
#X connect 76 0 40 0;
#X connect 77 0 4 0;
#X connect 77 0 4 1;
#X connect 77 0 13 0;
#X connect 78 0 31 0;
#X connect 78 0 31 1;
#X connect 78 0 43 0;
#X connect 79 0 56 0;
#X connect 79 0 56 1;
#X restore 88 316 pd mtl/rainin;
#X obj 657 171 random 10000;
#X obj 657 191 * 0.0001;
#X obj 211 169 random 10000;
#X obj 211 189 * 0.0001;
#X obj 48 282 *~ 0.005;
#X obj 482 285 *~ 0.005;
#X connect 1 0 90 1;
#X connect 2 0 90 2;
#X connect 3 0 90 3;
#X connect 4 0 90 4;
#X connect 5 0 4 0;
#X connect 6 0 5 0;
#X connect 7 0 6 1;
#X connect 8 0 9 0;
#X connect 9 0 6 0;
#X connect 10 0 8 0;
#X connect 10 0 7 0;
#X connect 10 0 45 0;
#X connect 11 0 10 0;
#X connect 13 0 12 0;
#X connect 14 0 12 0;
#X connect 15 0 95 0;
#X connect 16 0 15 0;
#X connect 17 0 16 1;
#X connect 18 0 19 0;
#X connect 19 0 16 0;
#X connect 20 0 18 0;
#X connect 20 0 17 0;
#X connect 20 0 21 0;
#X connect 21 0 20 1;
#X connect 22 0 20 0;
#X connect 23 0 3 0;
#X connect 24 0 23 0;
#X connect 25 0 24 1;
#X connect 26 0 25 0;
#X connect 26 0 27 0;
#X connect 26 0 93 0;
#X connect 27 0 26 1;
#X connect 28 0 26 0;
#X connect 29 0 1 0;
#X connect 30 0 29 0;
#X connect 31 0 30 1;
#X connect 32 0 33 0;
#X connect 33 0 30 0;
#X connect 34 0 32 0;
#X connect 34 0 31 0;
#X connect 34 0 35 0;
#X connect 35 0 34 1;
#X connect 36 0 34 0;
#X connect 37 0 2 0;
#X connect 38 0 37 0;
#X connect 39 0 38 1;
#X connect 40 0 41 0;
#X connect 41 0 38 0;
#X connect 42 0 40 0;
#X connect 42 0 39 0;
#X connect 42 0 43 0;
#X connect 43 0 42 1;
#X connect 44 0 42 0;
#X connect 45 0 10 1;
#X connect 47 0 89 1;
#X connect 48 0 89 2;
#X connect 49 0 89 3;
#X connect 50 0 89 4;
#X connect 51 0 50 0;
#X connect 52 0 51 0;
#X connect 53 0 52 1;
#X connect 54 0 55 0;
#X connect 55 0 52 0;
#X connect 56 0 54 0;
#X connect 56 0 53 0;
#X connect 56 0 88 0;
#X connect 57 0 56 0;
#X connect 58 0 96 0;
#X connect 59 0 58 0;
#X connect 60 0 59 1;
#X connect 61 0 62 0;
#X connect 62 0 59 0;
#X connect 63 0 61 0;
#X connect 63 0 60 0;
#X connect 63 0 64 0;
#X connect 64 0 63 1;
#X connect 65 0 63 0;
#X connect 66 0 49 0;
#X connect 67 0 66 0;
#X connect 68 0 67 1;
#X connect 69 0 68 0;
#X connect 69 0 70 0;
#X connect 69 0 91 0;
#X connect 70 0 69 1;
#X connect 71 0 69 0;
#X connect 72 0 47 0;
#X connect 73 0 72 0;
#X connect 74 0 73 1;
#X connect 75 0 76 0;
#X connect 76 0 73 0;
#X connect 77 0 75 0;
#X connect 77 0 74 0;
#X connect 77 0 78 0;
#X connect 78 0 77 1;
#X connect 79 0 77 0;
#X connect 80 0 48 0;
#X connect 81 0 80 0;
#X connect 82 0 81 1;
#X connect 83 0 84 0;
#X connect 84 0 81 0;
#X connect 85 0 83 0;
#X connect 85 0 82 0;
#X connect 85 0 86 0;
#X connect 86 0 85 1;
#X connect 87 0 85 0;
#X connect 88 0 56 1;
#X connect 89 0 46 0;
#X connect 90 0 0 0;
#X connect 91 0 92 0;
#X connect 92 0 67 0;
#X connect 93 0 94 0;
#X connect 94 0 24 0;
#X connect 95 0 90 0;
#X connect 96 0 89 0;
#X restore -89 -14 pd lereignMTL;
#X obj -50 117 thru~;
#N canvas 0 22 462 289 celestialpipes 0;
#X obj 80 64 outlet~;
#X text 139 -83 gong harmonics 1 1.72 2.01 2.35 2.73 3.02 3.35;
#X obj 60 -140 inlet~;
#X obj 218 23 *~ 0.3;
#X obj 91 -32 *~ 0.5;
#X obj 75 -4 delwrite~ \$0-frenk 111;
#X obj 63 28 delread~ \$0-frenk 111;
#X obj 53 -106 bong;
#X obj 87 -106 bong;
#X obj 18 -107 bong;
#X obj 122 -105 bong;
#X connect 2 0 7 0;
#X connect 2 0 8 0;
#X connect 2 0 9 0;
#X connect 2 0 10 0;
#X connect 3 0 5 0;
#X connect 4 0 0 0;
#X connect 4 0 5 0;
#X connect 6 0 0 0;
#X connect 6 0 3 0;
#X connect 7 0 4 0;
#X connect 8 0 4 0;
#X connect 9 0 4 0;
#X connect 10 0 4 0;
#X restore 15 45 pd celestialpipes;
#X obj -46 175 thru~;
#X obj -14 141 lop~ 666;
#X obj -101 142 lop~ 666;
#X obj 69 120 dsp~;
#X floatatom 69 143 5 0 0 0 - - -;
#X obj 20 3 delwrite~ \$0-ribbed 11111;
#X obj 21 23 delread~ \$0-ribbed 11111;
#X obj 4 198 delwrite~ \$0-brb 11111;
#X obj 3 218 delread~ \$0-brb 11111;
#X obj 18 260 delwrite~ \$0-kthnx 12222;
#X obj 18 280 delread~ \$0-kthnx 12222;
#X obj -41 308 patchComs;
#X obj -42 330 switch~;
#X obj 127 45 *~ 0.8;
#X connect 1 0 3 1;
#X connect 1 0 14 0;
#X connect 1 1 3 0;
#X connect 1 1 12 0;
#X connect 2 0 3 0;
#X connect 2 0 4 0;
#X connect 2 0 1 0;
#X connect 2 0 10 0;
#X connect 2 1 3 1;
#X connect 2 1 4 0;
#X connect 2 1 1 0;
#X connect 2 1 10 0;
#X connect 3 0 5 0;
#X connect 3 0 7 0;
#X connect 3 1 5 1;
#X connect 3 1 6 0;
#X connect 4 0 3 1;
#X connect 4 0 3 0;
#X connect 5 0 16 0;
#X connect 5 1 16 1;
#X connect 6 0 5 0;
#X connect 7 0 5 1;
#X connect 8 0 9 0;
#X connect 11 0 4 0;
#X connect 11 0 1 0;
#X connect 11 0 18 0;
#X connect 13 0 16 0;
#X connect 15 0 16 1;
#X connect 16 0 17 0;
#X connect 18 0 10 0;
