#N canvas 205 268 632 503 10;
#X obj 21 187 throw~ \$0-ohmlet;
#X obj 51 84 * \$1;
#X obj 508 -22 inlet;
#X obj 507 2 s \$0-heffer;
#X obj 51 63 r \$0-heffer;
#X obj 105 222 catch~ \$0-ohmlet;
#X obj 191 440 outlet~;
#X obj 50 108 sig~;
#X obj 21 -24 inlet~;
#X obj 20 -1 s~ \$0-tigerblood;
#X obj 18 43 r~ \$0-tigerblood;
#X obj 131 185 throw~ \$0-ohmlet;
#X obj 161 61 r \$0-heffer;
#X obj 160 106 sig~;
#X obj 128 41 r~ \$0-tigerblood;
#X obj 245 185 throw~ \$0-ohmlet;
#X obj 275 61 r \$0-heffer;
#X obj 274 106 sig~;
#X obj 242 41 r~ \$0-tigerblood;
#X obj 359 183 throw~ \$0-ohmlet;
#X obj 389 59 r \$0-heffer;
#X obj 388 104 sig~;
#X obj 356 39 r~ \$0-tigerblood;
#X obj 465 182 throw~ \$0-ohmlet;
#X obj 495 58 r \$0-heffer;
#X obj 494 103 sig~;
#X obj 462 38 r~ \$0-tigerblood;
#X obj 161 82 * \$2;
#X obj 275 82 * \$3;
#X obj 389 80 * \$4;
#X obj 495 79 * \$5;
#X obj 22 133 vcf~ 555 89;
#X obj 132 131 vcf~ 556 89;
#X obj 246 131 vcf~ 556 89;
#X obj 360 129 vcf~ 556 89;
#X obj 466 128 vcf~ 556 89;
#X obj 22 163 *~ 2;
#X obj 132 161 *~ 2;
#X obj 246 161 *~ 2;
#X obj 360 159 *~ 2;
#X obj 466 158 *~ 2;
#X obj 253 340 snapshot~;
#X obj 277 314 bang~;
#X obj 253 293 osc~ 0.05;
#X obj 282 384 > 0.9;
#X obj 282 404 sel 1;
#X obj 253 271 * 0.001;
#X obj 253 249 random 1000;
#X obj 253 229 bng 15 250 50 0 empty empty empty 17 7 0 10 -262144
-1 -1;
#X obj 234 368 * 4;
#X obj 233 393 abs;
#X obj 193 411 *~ 0;
#X connect 1 0 7 0;
#X connect 2 0 3 0;
#X connect 4 0 1 0;
#X connect 5 0 51 0;
#X connect 7 0 31 1;
#X connect 8 0 9 0;
#X connect 10 0 31 0;
#X connect 12 0 27 0;
#X connect 13 0 32 1;
#X connect 14 0 32 0;
#X connect 16 0 28 0;
#X connect 17 0 33 1;
#X connect 18 0 33 0;
#X connect 20 0 29 0;
#X connect 21 0 34 1;
#X connect 22 0 34 0;
#X connect 24 0 30 0;
#X connect 25 0 35 1;
#X connect 26 0 35 0;
#X connect 27 0 13 0;
#X connect 28 0 17 0;
#X connect 29 0 21 0;
#X connect 30 0 25 0;
#X connect 31 0 36 0;
#X connect 32 0 37 0;
#X connect 33 0 38 0;
#X connect 34 0 39 0;
#X connect 35 0 40 0;
#X connect 36 0 0 0;
#X connect 37 0 11 0;
#X connect 38 0 15 0;
#X connect 39 0 19 0;
#X connect 40 0 23 0;
#X connect 41 0 44 0;
#X connect 41 0 49 0;
#X connect 42 0 41 0;
#X connect 43 0 41 0;
#X connect 44 0 45 0;
#X connect 45 0 48 0;
#X connect 46 0 43 0;
#X connect 47 0 46 0;
#X connect 48 0 47 0;
#X connect 49 0 50 0;
#X connect 50 0 51 1;
#X connect 51 0 6 0;
