#N canvas 259 595 605 305 10;
#X obj 22 163 *~ 0.15;
#X obj 21 187 throw~ \$0-ohmlet;
#X obj 22 133 osc~;
#X obj 21 108 * \$1;
#X obj 51 12 inlet;
#X obj 50 36 s \$0-heffer;
#X obj 21 87 r \$0-heffer;
#X obj 128 160 *~ 0.15;
#X obj 136 188 throw~ \$0-ohmlet;
#X obj 128 130 osc~;
#X obj 127 84 r \$0-heffer;
#X obj 235 185 throw~ \$0-ohmlet;
#X obj 236 131 osc~;
#X obj 235 85 r \$0-heffer;
#X obj 342 158 *~ 0.15;
#X obj 341 182 throw~ \$0-ohmlet;
#X obj 342 128 osc~;
#X obj 341 82 r \$0-heffer;
#X obj 448 158 *~ 0.15;
#X obj 447 182 throw~ \$0-ohmlet;
#X obj 448 128 osc~;
#X obj 447 82 r \$0-heffer;
#X obj 127 105 * \$2;
#X obj 235 106 * \$3;
#X obj 341 103 * \$4;
#X obj 447 103 * \$5;
#X obj 236 161 *~ 0.15;
#X obj 105 222 catch~ \$0-ohmlet;
#X obj 106 247 outlet~;
#X connect 0 0 1 0;
#X connect 2 0 0 0;
#X connect 3 0 2 0;
#X connect 4 0 5 0;
#X connect 6 0 3 0;
#X connect 7 0 8 0;
#X connect 9 0 7 0;
#X connect 10 0 22 0;
#X connect 12 0 26 0;
#X connect 13 0 23 0;
#X connect 14 0 15 0;
#X connect 16 0 14 0;
#X connect 17 0 24 0;
#X connect 18 0 19 0;
#X connect 20 0 18 0;
#X connect 21 0 25 0;
#X connect 22 0 9 0;
#X connect 23 0 12 0;
#X connect 24 0 16 0;
#X connect 25 0 20 0;
#X connect 26 0 11 0;
#X connect 27 0 28 0;
