#N canvas 539 235 450 300 10;
#X obj 44 116 tgl 15 0 empty empty empty 17 7 0 10 -262144 -1 -1 1
1;
#X obj 253 116 inlet~;
#X obj 301 117 inlet~;
#X obj 44 140 outlet;
#X obj 265 237 dac~;
#X obj 84 24 loadbang;
#X msg 44 91 1;
#X obj 44 57 del 3000;
#X obj 253 173 *~;
#X obj 306 171 *~;
#X obj 186 110 line~;
#X msg 186 85 1 10000;
#X obj 106 57 del 2000;
#X msg 106 85 \; pd dsp 1;
#X obj 186 55 del 4000;
#X connect 0 0 3 0;
#X connect 1 0 8 0;
#X connect 2 0 9 0;
#X connect 5 0 7 0;
#X connect 5 0 12 0;
#X connect 5 0 14 0;
#X connect 6 0 0 0;
#X connect 7 0 6 0;
#X connect 8 0 4 0;
#X connect 9 0 4 1;
#X connect 10 0 8 1;
#X connect 10 0 9 1;
#X connect 11 0 10 0;
#X connect 12 0 13 0;
#X connect 14 0 11 0;
