#N canvas 392 174 655 421 10;
#X obj 281 173 osc~;
#X obj 264 100 sig~;
#X obj 280 248 *~;
#X obj 264 275 +~;
#X obj 264 308 osc~;
#X obj 262 362 outlet~;
#X obj 281 144 *~ \$1;
#X obj 369 224 *~ \$2;
#X obj 281 197 *~ 10;
#X obj 281 224 clip~ -1 1;
#X obj 310 70 inlet;
#X obj 359 69 inlet;
#X obj 102 208 vline~;
#X obj 102 116 bng 15 250 50 0 empty empty empty 17 7 0 10 -262144
-1 -1;
#X obj 102 242 *~;
#X obj 200 36 inlet;
#X obj 215 332 *~;
#X obj 200 67 t b f;
#X msg 102 179 0 0 \, 1 100 0 \, 0 800 100;
#X connect 0 0 8 0;
#X connect 1 0 3 0;
#X connect 1 0 6 0;
#X connect 2 0 3 1;
#X connect 3 0 4 0;
#X connect 4 0 16 1;
#X connect 6 0 7 0;
#X connect 6 0 0 0;
#X connect 7 0 2 1;
#X connect 8 0 9 0;
#X connect 9 0 2 0;
#X connect 10 0 6 0;
#X connect 11 0 7 1;
#X connect 12 0 14 0;
#X connect 12 0 14 1;
#X connect 13 0 18 0;
#X connect 14 0 16 0;
#X connect 15 0 17 0;
#X connect 16 0 5 0;
#X connect 17 0 18 0;
#X connect 17 1 1 0;
#X connect 18 0 12 0;
