#N canvas 377 35 555 465 10;
#X obj 95 61 bng 15 250 50 0 empty empty empty 17 7 0 10 -262144 -1
-1;
#X obj 137 48 inlet;
#X obj 129 279 *~;
#X obj 274 147 + 10;
#X obj 274 174 * 100;
#X obj 274 199 osc~;
#X obj 203 253 osc~;
#X obj 202 147 + 15;
#X obj 202 198 sig~;
#X obj 274 121 random 10;
#X obj 202 121 random 5;
#X obj 246 225 *~;
#X obj 137 116 random 5;
#X obj 202 174 * 10;
#X obj 137 86 t b b;
#X obj 137 140 + 5;
#X obj 130 226 vline~;
#X msg 57 178 0 0 \, 1 \$1 0 \, 0 \$1 \$1;
#X obj 128 335 outlet~;
#X obj 129 303 hip~ 400;
#X connect 0 0 14 0;
#X connect 1 0 14 0;
#X connect 2 0 19 0;
#X connect 3 0 4 0;
#X connect 4 0 5 0;
#X connect 5 0 11 0;
#X connect 6 0 2 1;
#X connect 7 0 13 0;
#X connect 8 0 11 1;
#X connect 9 0 3 0;
#X connect 10 0 7 0;
#X connect 11 0 6 0;
#X connect 12 0 15 0;
#X connect 13 0 8 0;
#X connect 14 0 12 0;
#X connect 14 1 9 0;
#X connect 14 1 10 0;
#X connect 15 0 17 0;
#X connect 16 0 2 0;
#X connect 17 0 16 0;
#X connect 19 0 18 0;
