#N canvas 134 29 807 508 10;
#X obj 179 242 noise~;
#X obj 121 195 vline~;
#X obj 122 224 *~;
#X obj 123 372 *~;
#X obj 218 65 bng 15 250 50 0 empty empty empty 17 7 0 10 -262144 -1
-1;
#X obj 380 130 bng 15 250 50 0 empty empty empty 17 7 0 10 -262144
-1 -1;
#X msg 380 187 1 10;
#X obj 417 165 del 10;
#X obj 380 214 line;
#X obj 380 240 *;
#X obj 380 266 * 3000;
#X obj 122 419 outlet~;
#X obj 218 26 inlet;
#X obj 180 310 bp~ 4300 1;
#X obj 180 279 hip~ 8000 1;
#X obj 180 349 lop~ 3000 1;
#X msg 84 144 0 0 \, 1 10 0 \, 0 30 10;
#X obj 287 26 inlet;
#X obj 287 65 bng 15 250 50 0 empty empty empty 17 7 0 10 -262144 -1
-1;
#X obj 380 291 + 1000;
#X msg 228 143 0 0 \, 1 10 0 \, 0 100 10;
#X msg 417 187 0 100;
#X connect 0 0 14 0;
#X connect 1 0 2 0;
#X connect 1 0 2 1;
#X connect 2 0 3 0;
#X connect 3 0 11 0;
#X connect 4 0 5 0;
#X connect 4 0 16 0;
#X connect 5 0 6 0;
#X connect 5 0 7 0;
#X connect 6 0 8 0;
#X connect 7 0 21 0;
#X connect 8 0 9 1;
#X connect 8 0 9 0;
#X connect 9 0 10 0;
#X connect 10 0 19 0;
#X connect 12 0 4 0;
#X connect 13 0 15 0;
#X connect 14 0 13 0;
#X connect 15 0 3 1;
#X connect 16 0 1 0;
#X connect 17 0 18 0;
#X connect 18 0 5 0;
#X connect 18 0 20 0;
#X connect 19 0 13 1;
#X connect 20 0 1 0;
#X connect 21 0 8 0;
