#N canvas 85 28 1187 576 10;
#X obj 163 332 bng 15 250 50 0 empty empty empty 17 7 0 10 -262144
-1 -1;
#X obj 734 480 dac~;
#X obj 91 188 hats;
#X obj 378 53 tgl 15 0 empty empty empty 17 7 0 10 -262144 -1 -1 0
1;
#X obj 91 130 del 30;
#X obj 197 285 BangRand 10;
#X obj 197 311 del 40;
#X obj 171 130 del 10;
#X obj 91 63 bng 15 250 50 0 empty empty empty 17 7 0 10 -262144 -1
-1;
#X obj 161 257 bng 15 250 50 0 empty empty empty 17 7 0 10 -262144
-1 -1;
#X obj 91 166 bng 15 250 50 0 empty empty empty 17 7 0 10 -262144 -1
-1;
#X obj 142 166 bng 15 250 50 0 empty empty empty 17 7 0 10 -262144
-1 -1;
#X obj 949 350 delwrite~ delay2 4000;
#X obj 774 348 delwrite~ delay1 4000;
#X obj 774 278 line~;
#X msg 774 255 \$1 500;
#X obj 774 185 random 200;
#X obj 774 210 + 10;
#X obj 774 233 * 10;
#X obj 948 281 line~;
#X msg 948 258 \$1 500;
#X obj 948 236 * 10;
#X obj 948 188 random 300;
#X obj 948 213 + 100;
#X obj 774 155 BangRand 10;
#X obj 425 91 metro 50;
#X obj 90 475 *~ 1;
#X obj 949 304 vd~ delay2 2000;
#X obj 774 302 vd~ delay1 300;
#X obj 734 449 *~ 0.9;
#X obj 331 89 metro 500;
#X obj 163 360 blip;
#X obj 89 502 s~ sounds;
#X obj 882 287 r~ sounds;
#X obj 1059 293 r~ sounds;
#X obj 91 30 r soundpulse;
#X obj 161 222 r soundpulse;
#X obj 774 130 r metropulse;
#X obj 948 138 r metropulse;
#X obj 425 116 s metropulse;
#X obj 352 268 del 40;
#X obj 316 214 bng 15 250 50 0 empty empty empty 17 7 0 10 -262144
-1 -1;
#X obj 316 159 r soundpulse;
#X obj 438 241 BangRand 10;
#X obj 438 267 del 100;
#X msg 318 333 402;
#X msg 356 333 453;
#X msg 389 332 352;
#X obj 318 362 bell 3.77 1.3;
#X obj 318 387 lop~ 3000;
#X obj 270 244 BangRand 15;
#X obj 295 272 del 320;
#X obj 331 115 s soundpulse;
#X obj 438 295 del 235;
#X obj 438 320 BangRand 25;
#X obj 695 283 r~ sounds;
#X obj 317 411 *~ 0.7;
#X obj 584 200 osc~;
#X obj 583 79 loadbang;
#X obj 583 108 random 100;
#X obj 583 131 + 10;
#X obj 583 155 / 200;
#X obj 583 178 sig~;
#X obj 316 185 BangRand 15;
#X obj 315 299 BangRand 20;
#X obj 668 108 random 100;
#X obj 668 131 + 10;
#X obj 668 155 / 200;
#X obj 668 178 sig~;
#X obj 669 200 osc~;
#X obj 584 223 *~;
#X obj 585 246 +~ 2;
#X obj 585 269 *~ 3000;
#X obj 585 340 delwrite~ delay3 10000;
#X obj 585 294 vd~ delay3 2000;
#X obj 693 382 r~ sounds;
#X obj 883 318 *~ 0.5;
#X obj 695 311 *~ 0.5;
#X obj 1059 321 *~ 0.5;
#X obj 926 406 s~ feedback;
#X obj 677 256 *~ 0.1;
#X obj 678 232 r~ feedback;
#X obj 948 163 BangRand 10;
#X obj 585 317 *~ 0.5;
#X obj 774 325 *~ 0.5;
#X obj 949 327 *~ 0.5;
#X obj 352 242 BangRand 10;
#X obj 11 104 BangRand 10;
#X obj 91 104 BangRand 5;
#X obj 171 104 BangRand 7;
#X obj 115 287 BangRand 10;
#X obj 378 25 loadbang;
#X connect 0 0 31 0;
#X connect 2 0 26 0;
#X connect 3 0 30 0;
#X connect 3 0 25 0;
#X connect 4 0 10 0;
#X connect 5 0 6 0;
#X connect 6 0 0 0;
#X connect 7 0 11 0;
#X connect 8 0 87 0;
#X connect 8 0 88 0;
#X connect 8 0 89 0;
#X connect 9 0 5 0;
#X connect 9 0 90 0;
#X connect 10 0 2 0;
#X connect 11 0 2 1;
#X connect 14 0 28 0;
#X connect 15 0 14 0;
#X connect 16 0 17 0;
#X connect 17 0 18 0;
#X connect 18 0 15 0;
#X connect 19 0 27 0;
#X connect 20 0 19 0;
#X connect 21 0 20 0;
#X connect 22 0 23 0;
#X connect 23 0 21 0;
#X connect 24 0 16 0;
#X connect 25 0 39 0;
#X connect 26 0 32 0;
#X connect 27 0 79 0;
#X connect 27 0 29 0;
#X connect 27 0 85 0;
#X connect 28 0 12 0;
#X connect 28 0 29 0;
#X connect 28 0 84 0;
#X connect 29 0 1 0;
#X connect 29 0 1 1;
#X connect 30 0 52 0;
#X connect 31 0 26 0;
#X connect 33 0 76 0;
#X connect 34 0 78 0;
#X connect 35 0 8 0;
#X connect 36 0 9 0;
#X connect 37 0 24 0;
#X connect 38 0 82 0;
#X connect 40 0 46 0;
#X connect 41 0 43 0;
#X connect 41 0 50 0;
#X connect 41 0 86 0;
#X connect 42 0 63 0;
#X connect 43 0 44 0;
#X connect 44 0 53 0;
#X connect 44 0 46 0;
#X connect 45 0 48 0;
#X connect 46 0 48 0;
#X connect 47 0 48 0;
#X connect 48 0 49 0;
#X connect 49 0 56 0;
#X connect 50 0 45 0;
#X connect 50 0 51 0;
#X connect 51 0 64 0;
#X connect 53 0 54 0;
#X connect 54 0 47 0;
#X connect 55 0 77 0;
#X connect 56 0 26 0;
#X connect 57 0 70 0;
#X connect 58 0 59 0;
#X connect 58 0 65 0;
#X connect 59 0 60 0;
#X connect 60 0 61 0;
#X connect 61 0 62 0;
#X connect 62 0 57 0;
#X connect 63 0 41 0;
#X connect 64 0 46 0;
#X connect 65 0 66 0;
#X connect 66 0 67 0;
#X connect 67 0 68 0;
#X connect 68 0 69 0;
#X connect 69 0 70 1;
#X connect 70 0 71 0;
#X connect 71 0 72 0;
#X connect 72 0 74 0;
#X connect 74 0 13 0;
#X connect 74 0 83 0;
#X connect 75 0 29 0;
#X connect 76 0 13 0;
#X connect 77 0 73 0;
#X connect 78 0 12 0;
#X connect 80 0 73 0;
#X connect 81 0 80 0;
#X connect 82 0 22 0;
#X connect 83 0 73 0;
#X connect 84 0 13 0;
#X connect 85 0 12 0;
#X connect 86 0 40 0;
#X connect 87 0 10 0;
#X connect 88 0 4 0;
#X connect 89 0 7 0;
#X connect 90 0 0 0;
#X connect 91 0 3 0;
