#N canvas -143 83 925 526 10;
#X obj 671 208 osc~;
#X obj 671 108 loadbang;
#X obj 671 164 + 500;
#X obj 671 186 / 200000;
#X obj 671 142 random 500;
#X obj 157 220 steppattern 64;
#X obj 360 116 bng 15 250 50 0 empty empty empty 17 7 0 10 -262144
-1 -1;
#X obj 357 156 t b b b;
#X obj 343 320 subpattern 128;
#X obj 277 219 steppattern 64;
#X connect 1 0 4 0;
#X connect 2 0 3 0;
#X connect 3 0 0 0;
#X connect 4 0 2 0;
#X connect 5 0 8 0;
#X connect 6 0 7 0;
#X connect 7 1 5 0;
#X connect 7 1 9 0;
#X connect 7 2 8 2;
#X connect 9 0 8 0;
