#N canvas 0 25 1022 510 10;
#X obj 178 40 bng 15 250 50 0 empty empty empty 17 7 0 10 -262144 -1
-1;
#X obj 178 81 t b b b;
#X obj 194 153 steppattern 64;
#X obj 247 217 subpattern 128;
#X obj 269 109 r \$0-beat;
#X obj 247 253 bng 15 250 50 0 empty empty empty 17 7 0 10 -262144
-1 -1;
#X obj 317 186 bng 15 250 50 0 empty empty empty 17 7 0 10 -262144
-1 -1;
#X obj 154 203 bng 15 250 50 0 empty empty empty 17 7 0 10 -262144
-1 -1;
#X obj 75 140 steppattern 64;
#X obj 178 10 r \$0-patternchange;
#X obj 497 88 + 500;
#X obj 497 66 random 500;
#X obj 497 198 sig~;
#X obj 424 71 random 500;
#X obj 424 114 / 20000;
#X obj 424 136 osc~;
#X obj 483 272 +~;
#X obj 424 93 + 300;
#X obj 460 30 bng 15 250 50 0 empty empty empty 17 7 0 10 -262144 -1
-1;
#X obj 423 218 +~;
#X obj 439 190 phasor~;
#X obj 460 3 loadbang;
#N canvas 0 0 450 300 low 0;
#X obj 137 136 vline~;
#X msg 137 106 0 0 \, 1 30 0 \, 0 300 30;
#X obj 78 224 *~;
#X obj 56 108 vline~;
#X msg 56 79 1 0 \, 0.9 300;
#X obj 56 134 *~ 55;
#X obj 78 178 osc~;
#X obj 99 133 0.25;
#X obj 56 55 t b b b;
#X obj 56 16 inlet;
#X obj 78 259 outlet~;
#X connect 0 0 2 1;
#X connect 1 0 0 0;
#X connect 2 0 10 0;
#X connect 3 0 5 0;
#X connect 4 0 3 0;
#X connect 5 0 6 0;
#X connect 6 0 2 0;
#X connect 7 0 6 1;
#X connect 8 0 4 0;
#X connect 8 1 7 0;
#X connect 8 2 1 0;
#X connect 9 0 8 0;
#X restore 78 325 pd low;
#N canvas 0 0 450 300 mid 0;
#X obj 137 136 vline~;
#X msg 137 106 0 0 \, 1 30 0 \, 0 300 30;
#X obj 78 224 *~;
#X obj 56 108 vline~;
#X msg 56 79 1 0 \, 0.9 300;
#X obj 78 178 osc~;
#X obj 99 133 0.25;
#X obj 56 55 t b b b;
#X obj 56 16 inlet;
#X obj 78 259 outlet~;
#X obj 56 134 *~ 220;
#X connect 0 0 2 1;
#X connect 1 0 0 0;
#X connect 2 0 9 0;
#X connect 3 0 10 0;
#X connect 4 0 3 0;
#X connect 5 0 2 0;
#X connect 6 0 5 1;
#X connect 7 0 4 0;
#X connect 7 1 6 0;
#X connect 7 2 1 0;
#X connect 8 0 7 0;
#X connect 10 0 5 0;
#X restore 222 317 pd mid;
#X obj 218 395 *~ 1;
#N canvas 0 0 450 300 hi 0;
#X obj 137 136 vline~;
#X msg 137 106 0 0 \, 1 30 0 \, 0 300 30;
#X obj 78 224 *~;
#X obj 56 108 vline~;
#X msg 56 79 1 0 \, 0.9 300;
#X obj 78 178 osc~;
#X obj 99 133 0.25;
#X obj 56 55 t b b b;
#X obj 56 16 inlet;
#X obj 78 259 outlet~;
#X obj 56 134 *~ 660;
#X connect 0 0 2 1;
#X connect 1 0 0 0;
#X connect 2 0 9 0;
#X connect 3 0 10 0;
#X connect 4 0 3 0;
#X connect 5 0 2 0;
#X connect 6 0 5 1;
#X connect 7 0 4 0;
#X connect 7 1 6 0;
#X connect 7 2 1 0;
#X connect 8 0 7 0;
#X connect 10 0 5 0;
#X restore 343 315 pd hi;
#X obj 207 443 dac~;
#X obj 532 266 metro 50;
#X obj 482 302 snapshot~;
#X floatatom 482 339 5 0 0 0 - - -;
#X obj 532 228 tgl 15 0 empty empty empty 17 7 0 10 -262144 -1 -1 0
1;
#X obj 497 110 / 20000;
#X obj 439 165 sig~;
#X obj 422 244 *~ 0.01;
#X obj 463 141 * 1.7;
#N canvas 0 0 487 510 masterLFO 0;
#X obj 211 236 osc~;
#X obj 278 19 loadbang;
#X obj 210 81 + 500;
#X obj 210 59 random 500;
#X obj 210 129 sig~;
#X obj 137 64 random 500;
#X obj 137 107 / 20000;
#X obj 137 129 osc~;
#X obj 211 213 +~;
#X obj 137 86 + 300;
#X obj 211 265 snapshot~;
#X obj 278 200 tgl 15 0 empty empty empty 17 7 0 10 -262144 -1 -1 1
1;
#X obj 211 337 swap;
#X obj 256 288 loadbang;
#X obj 256 312 7500;
#X obj 184 435 metro;
#X obj 144 379 loadbang;
#X obj 184 412 tgl 15 0 empty empty empty 17 7 0 10 -262144 -1 -1 1
1;
#X obj 184 460 s \$0-beat;
#X floatatom 152 347 5 0 0 0 - - -;
#X floatatom 257 145 10 0 0 0 - - -;
#X floatatom 64 149 5 0 0 0 - - -;
#X obj 184 22 bng 15 250 50 0 empty empty empty 17 7 0 10 -262144 -1
-1;
#X obj 210 103 / 200000;
#X obj 137 188 *~ 0.001;
#X obj 211 310 + 80;
#X obj 211 286 * 30;
#X obj 278 229 metro 500;
#X obj 211 361 /;
#X floatatom 273 384 5 0 0 0 - - -;
#X obj 255 434 metro;
#X obj 255 459 s \$0-patternchange;
#X obj 282 411 * 1000;
#X obj 137 155 +~;
#X floatatom 143 285 5 0 0 0 - - -;
#X obj 169 154 osc~;
#X obj 174 133 * 17;
#X msg 289 60 0.25;
#X obj 335 261 +~ 1;
#X obj 336 290 s~ \$0-globalLFO;
#X connect 0 0 10 0;
#X connect 0 0 38 0;
#X connect 1 0 11 0;
#X connect 1 0 22 0;
#X connect 2 0 23 0;
#X connect 3 0 2 0;
#X connect 4 0 8 1;
#X connect 5 0 9 0;
#X connect 6 0 7 0;
#X connect 6 0 21 0;
#X connect 7 0 33 0;
#X connect 8 0 0 0;
#X connect 9 0 6 0;
#X connect 10 0 26 0;
#X connect 10 0 34 0;
#X connect 11 0 27 0;
#X connect 12 0 28 0;
#X connect 12 1 28 1;
#X connect 13 0 14 0;
#X connect 14 0 12 1;
#X connect 15 0 18 0;
#X connect 16 0 17 0;
#X connect 17 0 15 0;
#X connect 17 0 30 0;
#X connect 22 0 5 0;
#X connect 22 0 3 0;
#X connect 22 0 37 0;
#X connect 23 0 4 0;
#X connect 23 0 20 0;
#X connect 23 0 36 0;
#X connect 24 0 8 0;
#X connect 25 0 12 0;
#X connect 25 0 19 0;
#X connect 26 0 25 0;
#X connect 27 0 10 0;
#X connect 28 0 29 0;
#X connect 28 0 15 1;
#X connect 28 0 32 0;
#X connect 30 0 31 0;
#X connect 32 0 30 1;
#X connect 33 0 24 0;
#X connect 35 0 33 1;
#X connect 36 0 35 0;
#X connect 37 0 0 1;
#X connect 37 0 7 1;
#X connect 38 0 39 0;
#X restore 890 61 pd masterLFO;
#N canvas 17 25 971 434 reverb 1;
#X obj 239 94 delwrite~ \$0-del1 50;
#X obj 287 29 inlet~;
#X obj 316 66 s~ \$0-verbinput;
#X obj 106 131 delread~ \$0-del1 13;
#X obj 116 155 delread~ \$0-del1 17;
#X obj 126 179 delread~ \$0-del1 23;
#X obj 134 204 delread~ \$0-del1 31;
#X obj 105 254 +~;
#X obj 356 193 r~ \$0-verbinput;
#X obj 84 48 r~ \$0-feedback1;
#X obj 104 288 s~ \$0-feedback1;
#X obj 314 216 +~;
#X obj 313 250 s~ \$0-feedback2;
#X obj 218 7 r~ \$0-feedback1;
#X obj 315 132 delread~ \$0-del1 5;
#X obj 325 156 delread~ \$0-del1 11;
#X obj 529 276 +~;
#X obj 233 284 s~ \$0-verbsection2;
#X obj 748 57 r~ \$0-verbsection2;
#X obj 637 126 delwrite~ \$0-del2 3000;
#X obj 530 221 delread~ \$0-del2 1300;
#X obj 540 245 delread~ \$0-del2 1700;
#X obj 742 204 delread~ \$0-del2 230;
#X obj 750 229 delread~ \$0-del2 310;
#X obj 741 272 +~;
#X obj 512 318 s~ \$0-feedback3;
#X obj 740 306 s~ \$0-feedback4;
#X obj 595 69 r~ \$0-feedback3;
#X obj 684 345 s~ \$0-verboutput;
#X obj 346 26 r~ \$0-verboutput;
#X obj 434 52 r~ \$0-feedback4;
#X connect 1 0 0 0;
#X connect 1 0 2 0;
#X connect 3 0 7 0;
#X connect 4 0 7 0;
#X connect 5 0 7 0;
#X connect 6 0 7 0;
#X connect 7 0 10 0;
#X connect 7 0 17 0;
#X connect 8 0 11 1;
#X connect 9 0 0 0;
#X connect 11 0 12 0;
#X connect 11 0 17 0;
#X connect 13 0 0 0;
#X connect 14 0 11 0;
#X connect 15 0 11 0;
#X connect 16 0 25 0;
#X connect 16 0 28 0;
#X connect 18 0 19 0;
#X connect 20 0 16 0;
#X connect 21 0 16 0;
#X connect 22 0 24 0;
#X connect 23 0 24 0;
#X connect 24 0 26 0;
#X connect 24 0 28 0;
#X connect 27 0 19 0;
#X connect 29 0 0 0;
#X connect 30 0 0 0;
#X restore 817 199 pd reverb;
#X connect 0 0 1 0;
#X connect 1 1 2 0;
#X connect 1 1 8 0;
#X connect 1 2 3 2;
#X connect 2 0 3 0;
#X connect 2 1 6 0;
#X connect 3 0 5 0;
#X connect 4 0 2 1;
#X connect 4 0 3 1;
#X connect 4 0 8 1;
#X connect 5 0 23 0;
#X connect 6 0 25 0;
#X connect 7 0 22 0;
#X connect 8 0 3 0;
#X connect 8 1 7 0;
#X connect 9 0 0 0;
#X connect 10 0 31 0;
#X connect 11 0 10 0;
#X connect 12 0 16 1;
#X connect 13 0 17 0;
#X connect 14 0 15 0;
#X connect 15 0 19 0;
#X connect 16 0 28 0;
#X connect 17 0 14 0;
#X connect 18 0 13 0;
#X connect 18 0 11 0;
#X connect 19 0 33 0;
#X connect 20 0 19 1;
#X connect 21 0 18 0;
#X connect 22 0 24 0;
#X connect 23 0 24 0;
#X connect 25 0 24 0;
#X connect 27 0 28 0;
#X connect 28 0 29 0;
#X connect 30 0 27 0;
#X connect 31 0 12 0;
#X connect 31 0 34 0;
#X connect 32 0 20 0;
#X connect 33 0 16 0;
#X connect 34 0 32 0;
