#N canvas 8 32 626 490 10;
#X obj 201 106 until;
#X msg 201 80 64;
#X obj 236 134 + 1;
#X obj 201 134 int;
#X floatatom 201 170 5 0 0 0 - - -;
#X msg 265 103 0;
#X obj 244 166 sel 63;
#X obj 76 231 sel 0;
#X obj 90 329 bng 15 250 50 0 empty empty empty 17 7 0 10 -262144 -1
-1;
#X msg 90 351 1;
#X obj 63 253 bng 15 250 50 0 empty empty empty 17 7 0 10 -262144 -1
-1;
#X obj 115 254 bng 15 250 50 0 empty empty empty 17 7 0 10 -262144
-1 -1;
#X obj 122 329 bng 15 250 50 0 empty empty empty 17 7 0 10 -262144
-1 -1;
#X msg 122 351 0;
#X obj 56 276 random 100;
#X obj 124 277 random 100;
#X obj 124 302 moses 70;
#X obj 238 422 pack;
#X obj 238 447 outlet;
#X obj 201 30 inlet;
#X obj 201 55 bng 15 250 50 0 empty empty empty 17 7 0 10 -262144 -1
-1;
#X obj 301 101 i \$1;
#X obj 301 77 loadbang;
#X obj 301 126 - 1;
#X obj 265 269 table \$0-pattern \$1;
#X obj 76 208 tabread \$0-pattern;
#X obj 90 381 tabwrite \$0-pattern;
#X obj 56 301 moses 5;
#X obj 410 64 inlet;
#X obj 410 225 outlet;
#X obj 410 178 tabread \$0-pattern;
#X obj 445 111 + 1;
#X obj 410 111 int;
#X msg 474 80 0;
#X obj 468 147 sel 63;
#X obj 510 78 i \$1;
#X obj 510 54 loadbang;
#X obj 510 103 - 1;
#X obj 410 202 sel 1;
#X connect 0 0 3 0;
#X connect 1 0 0 0;
#X connect 2 0 3 1;
#X connect 3 0 2 0;
#X connect 3 0 4 0;
#X connect 3 0 6 0;
#X connect 4 0 17 1;
#X connect 4 0 25 0;
#X connect 4 0 26 1;
#X connect 5 0 3 1;
#X connect 6 0 5 0;
#X connect 7 0 10 0;
#X connect 7 1 11 0;
#X connect 8 0 9 0;
#X connect 9 0 17 0;
#X connect 9 0 26 0;
#X connect 10 0 14 0;
#X connect 11 0 15 0;
#X connect 12 0 13 0;
#X connect 13 0 17 0;
#X connect 13 0 26 0;
#X connect 14 0 27 0;
#X connect 15 0 16 0;
#X connect 16 0 12 0;
#X connect 16 1 8 0;
#X connect 17 0 18 0;
#X connect 19 0 20 0;
#X connect 20 0 1 0;
#X connect 21 0 23 0;
#X connect 22 0 21 0;
#X connect 23 0 6 1;
#X connect 25 0 7 0;
#X connect 27 0 8 0;
#X connect 27 1 12 0;
#X connect 28 0 32 0;
#X connect 30 0 38 0;
#X connect 31 0 32 1;
#X connect 32 0 31 0;
#X connect 32 0 34 0;
#X connect 32 0 30 0;
#X connect 33 0 32 1;
#X connect 34 0 33 0;
#X connect 35 0 37 0;
#X connect 36 0 35 0;
#X connect 37 0 34 1;
#X connect 38 0 29 0;
