#N canvas 192 25 634 486 10;
#X obj 435 319 tabwrite \$0-pattern;
#X obj 72 368 table \$0-pattern \$1;
#X obj 60 64 inlet;
#X obj 60 95 unpack;
#X obj 453 74 inlet;
#X obj 453 152 until;
#X obj 488 180 + 1;
#X obj 453 180 int;
#X floatatom 453 216 5 0 0 0 - - -;
#X msg 517 149 0;
#X obj 511 216 sel 63;
#X obj 553 147 i \$1;
#X obj 553 123 loadbang;
#X obj 553 172 - 1;
#X obj 453 99 bng 15 250 50 0 empty empty empty 17 7 0 10 -262144 -1
-1;
#X obj 453 254 t b f;
#X obj 453 122 \$1;
#X obj 435 283 0;
#X obj 78 297 tabwrite \$0-pattern;
#X obj 246 100 inlet;
#X obj 246 367 outlet;
#X obj 246 214 tabread \$0-pattern;
#X obj 164 237 * 2;
#X obj 60 124 sel 1;
#X obj 78 153 i;
#X obj 137 213 t b f;
#X obj 137 237 0.8;
#X obj 164 263 + 11;
#X obj 78 213 t b f;
#X obj 105 238 + 4;
#X obj 78 238 0.3;
#X obj 78 180 t f f;
#X obj 281 147 + 1;
#X obj 246 147 int;
#X msg 310 116 0;
#X obj 304 183 sel 63;
#X obj 346 114 i \$1;
#X obj 346 90 loadbang;
#X obj 346 139 - 1;
#X obj 246 239 t f b;
#X obj 273 264 random 100;
#X obj 273 288 / 100;
#X obj 246 319 >;
#X obj 246 342 sel 1;
#X connect 2 0 3 0;
#X connect 3 0 23 0;
#X connect 3 1 24 1;
#X connect 4 0 14 0;
#X connect 5 0 7 0;
#X connect 6 0 7 1;
#X connect 7 0 6 0;
#X connect 7 0 8 0;
#X connect 7 0 10 0;
#X connect 8 0 15 0;
#X connect 9 0 7 1;
#X connect 10 0 9 0;
#X connect 11 0 13 0;
#X connect 12 0 11 0;
#X connect 13 0 10 1;
#X connect 14 0 16 0;
#X connect 15 0 17 0;
#X connect 15 1 0 1;
#X connect 16 0 5 0;
#X connect 17 0 0 0;
#X connect 19 0 33 0;
#X connect 21 0 39 0;
#X connect 22 0 27 0;
#X connect 23 0 24 0;
#X connect 24 0 31 0;
#X connect 25 0 26 0;
#X connect 25 1 22 0;
#X connect 26 0 18 0;
#X connect 27 0 18 1;
#X connect 28 0 30 0;
#X connect 28 1 29 0;
#X connect 29 0 18 1;
#X connect 30 0 18 0;
#X connect 31 0 28 0;
#X connect 31 1 25 0;
#X connect 32 0 33 1;
#X connect 33 0 32 0;
#X connect 33 0 35 0;
#X connect 33 0 21 0;
#X connect 34 0 33 1;
#X connect 35 0 34 0;
#X connect 36 0 38 0;
#X connect 37 0 36 0;
#X connect 38 0 35 1;
#X connect 39 0 42 0;
#X connect 39 1 40 0;
#X connect 40 0 41 0;
#X connect 41 0 42 1;
#X connect 42 0 43 0;
#X connect 43 0 20 0;
