#N canvas 0 0 1345 705 10;
#X obj 11 8 cnv 15 450 40 empty empty Epic_Jefferson's_Craze 20 12
0 24 -228992 -66577 0;
#X obj 601 285 mtof;
#X msg 489 178 bang;
#X obj 558 336 *~;
#X obj 102 68 cnv 15 100 60 empty empty empty 20 12 0 14 -241291 -66577
0;
#X obj 108 88 vsl 10 32 0 1 0 1 \$0-a \$0-a a 0 -8 0 8 -262144 -1 -1
1271 0;
#X obj 121 88 vsl 10 32 0 1 0 1 \$0-d \$0-d d 0 -8 0 8 -262144 -1 -1
527 0;
#X obj 134 88 vsl 10 32 0 1 0 1 \$0-s \$0-s s 0 -8 0 8 -262144 -1 -1
2573 0;
#X obj 147 88 vsl 10 32 0 1 0 1 \$0-r \$0-r r 0 -8 0 8 -262144 -1 -1
2945 0;
#N canvas 95 141 435 501 env 0;
#X obj 29 5 inlet;
#X obj 29 457 outlet~;
#X obj 29 423 vline~;
#X msg 29 203 0 \, 1 \$1;
#X msg 224 375 0 \$1;
#X obj 254 307 * 500;
#X obj 59 71 * 500;
#X obj 100 253 pack;
#X obj 224 240 random 1000;
#X msg 100 274 \$2 \$1;
#X obj 129 148 * 500;
#X obj 100 189 max 10;
#X obj 29 114 max 10;
#X obj 224 352 max 10;
#X obj 29 25 bang;
#X obj 129 126 receive \$0-d;
#X obj 59 50 receive \$0-a;
#X obj 223 218 delay;
#X obj 254 287 receive \$0-r;
#X obj 224 331 float;
#X obj 224 261 delay;
#X obj 29 92 float;
#X obj 46 139 delay;
#X obj 100 170 float;
#X obj 122 231 receive \$0-s;
#X connect 0 0 14 0;
#X connect 2 0 1 0;
#X connect 3 0 2 0;
#X connect 4 0 2 0;
#X connect 5 0 19 1;
#X connect 6 0 21 1;
#X connect 7 0 9 0;
#X connect 8 0 20 0;
#X connect 9 0 2 0;
#X connect 10 0 23 1;
#X connect 11 0 7 0;
#X connect 11 0 17 0;
#X connect 12 0 3 0;
#X connect 12 0 22 0;
#X connect 13 0 4 0;
#X connect 14 0 21 0;
#X connect 15 0 10 0;
#X connect 16 0 6 0;
#X connect 17 0 8 0;
#X connect 18 0 5 0;
#X connect 19 0 13 0;
#X connect 20 0 19 0;
#X connect 21 0 12 0;
#X connect 22 0 23 0;
#X connect 23 0 11 0;
#X connect 24 0 7 1;
#X restore 486 273 pd env;
#X obj 487 213 trigger bang bang;
#X obj 713 156 metro;
#X obj 714 127 tgl 15 0 empty empty empty 17 7 0 10 -262144 -1 -1 0
1;
#X floatatom 815 124 5 0 0 0 - - -;
#X obj 790 14 random 12;
#X obj 792 39 sel 4;
#X obj 730 290 vsl 15 128 0 1 0 0 \$0-a empty empty 0 -9 0 10 -262144
-1 -1 5207 1;
#X obj 713 182 random 5;
#X obj 713 207 sel 1;
#X obj 713 231 random 100;
#X obj 723 258 / 100;
#X obj 813 291 vsl 15 128 0 1 0 0 \$0-d empty empty 0 -9 0 10 -262144
-1 -1 2159 1;
#X obj 796 183 random 5;
#X obj 796 208 sel 1;
#X obj 796 232 random 100;
#X obj 806 259 / 100;
#X obj 896 292 vsl 15 128 0 1 0 0 \$0-s empty empty 0 -9 0 10 -262144
-1 -1 10541 1;
#X obj 879 184 random 5;
#X obj 879 209 sel 1;
#X obj 879 233 random 100;
#X obj 889 260 / 100;
#X obj 978 289 vsl 15 128 0 1 0 0 \$0-r empty empty 0 -9 0 10 -262144
-1 -1 12065 1;
#X obj 961 181 random 5;
#X obj 961 206 sel 1;
#X obj 961 230 random 100;
#X obj 971 257 / 100;
#X obj 72 671 vsl 15 128 0 1 0 0 \$0-01 empty empty 0 -9 0 10 -262144
-1 -1 7747 1;
#X obj 55 612 random 100;
#X obj 65 639 / 100;
#X obj 155 672 vsl 15 128 0 1 0 0 \$0-02 empty empty 0 -9 0 10 -262144
-1 -1 11049 1;
#X obj 138 613 random 100;
#X obj 148 640 / 100;
#X obj 238 673 vsl 15 128 0 1 0 0 \$0-03 empty empty 0 -9 0 10 -262144
-1 -1 1778 1;
#X obj 221 614 random 100;
#X obj 231 641 / 100;
#X obj 320 670 vsl 15 128 0 1 0 0 \$0-04 empty empty 0 -9 0 10 -262144
-1 -1 12573 1;
#X obj 303 611 random 100;
#X obj 313 638 / 100;
#X obj 1450 -3 r \$0-01;
#X obj 1513 -2 r \$0-02;
#X obj 1573 -4 r \$0-03;
#X obj 1633 -3 r \$0-04;
#X obj 1451 33 r \$0-05;
#X obj 786 95 + 75;
#X obj 413 672 vsl 15 128 0 1 0 0 \$0-05 empty empty 0 -9 0 10 -262144
-1 -1 7366 1;
#X obj 396 613 random 100;
#X obj 406 640 / 100;
#X obj 496 673 vsl 15 128 0 1 0 0 \$0-06 empty empty 0 -9 0 10 -262144
-1 -1 6096 1;
#X obj 479 614 random 100;
#X obj 489 641 / 100;
#X obj 579 674 vsl 15 128 0 1 0 0 \$0-07 empty empty 0 -9 0 10 -262144
-1 -1 4191 1;
#X obj 562 615 random 100;
#X obj 572 642 / 100;
#X obj 661 671 vsl 15 128 0 1 0 0 \$0-08 empty empty 0 -9 0 10 -262144
-1 -1 7239 1;
#X obj 644 612 random 100;
#X obj 654 639 / 100;
#X obj 1510 33 r \$0-06;
#X obj 1573 34 r \$0-07;
#X obj 1633 32 r \$0-08;
#X obj 1453 70 r \$0-09;
#X obj 1511 71 r \$0-10;
#X obj 759 671 vsl 15 128 0 1 0 0 \$0-09 empty empty 0 -9 0 10 -262144
-1 -1 5461 1;
#X obj 742 612 random 100;
#X obj 752 639 / 100;
#X obj 842 672 vsl 15 128 0 1 0 0 \$0-10 empty empty 0 -9 0 10 -262144
-1 -1 635 1;
#X obj 825 613 random 100;
#X obj 835 640 / 100;
#X obj 925 673 vsl 15 128 0 1 0 0 \$0-11 empty empty 0 -9 0 10 -262144
-1 -1 11811 1;
#X obj 908 614 random 100;
#X obj 918 641 / 100;
#X obj 1007 670 vsl 15 128 0 1 0 0 \$0-12 empty empty 0 -9 0 10 -262144
-1 -1 9017 1;
#X obj 990 611 random 100;
#X obj 1000 638 / 100;
#X obj 826 577 sel 10;
#X obj 908 578 sel 11;
#X obj 994 571 sel 12;
#X obj 744 569 sel 9;
#X obj 648 572 sel 8;
#X obj 560 568 sel 7;
#X obj 480 577 sel 6;
#X obj 398 570 sel 5;
#X obj 307 571 sel 4;
#X obj 219 567 sel 3;
#X obj 139 576 sel 2;
#X obj 57 569 sel 1;
#X obj 1639 76 r \$0-12;
#X obj 1575 73 r \$0-11;
#X obj 1108 672 vsl 15 128 0 1 0 0 \$0-13 empty empty 0 -9 0 10 -262144
-1 -1 4572 1;
#X obj 1091 613 random 100;
#X obj 1101 640 / 100;
#X obj 1191 673 vsl 15 128 0 1 0 0 \$0-14 empty empty 0 -9 0 10 -262144
-1 -1 1905 1;
#X obj 1174 614 random 100;
#X obj 1184 641 / 100;
#X obj 1274 674 vsl 15 128 0 1 0 0 \$0-15 empty empty 0 -9 0 10 -262144
-1 -1 7493 1;
#X obj 1257 615 random 100;
#X obj 1267 642 / 100;
#X obj 1356 671 vsl 15 128 0 1 0 0 \$0-16 empty empty 0 -9 0 10 -262144
-1 -1 6985 1;
#X obj 1339 612 random 100;
#X obj 1349 639 / 100;
#X obj 1093 570 sel 13;
#X obj 1175 578 sel 14;
#X obj 1257 579 sel 15;
#X obj 1343 572 sel 16;
#X obj 1455 117 r \$0-13;
#X obj 1513 116 r \$0-14;
#X obj 1582 115 r \$0-15;
#X obj 1639 112 r \$0-16;
#X obj 771 445 random 16;
#X obj 771 469 + 1;
#X obj 526 361 +~;
#X obj 789 70 random 500;
#X obj 1259 13 loadbang;
#X obj 1292 47 tgl 15 0 empty empty empty 17 7 0 10 -262144 -1 -1 1
1;
#X msg 1292 72 \; pd dsp \$1;
#X obj 1207 48 delay 20;
#X obj 1207 112 s \$0-v;
#X obj 554 394 *~;
#X obj 598 402 *~;
#X obj 629 361 vsl 15 128 0 1 0 0 empty \$0-v empty 0 -9 0 10 -262144
-1 -1 2540 1;
#X obj 601 262 + 20;
#X obj 601 238 random 50;
#X obj 1449 167 vsl 12 96 0 1 0 1 \$0-1 \$0-1 1 4 104 2 10 -262131
-123526 -1 5795 0;
#X obj 1461 167 vsl 12 96 0 1 0 1 \$0-2 \$0-2 2 4 104 2 10 -225271
-42246 -1 8265 0;
#X obj 1473 167 vsl 12 96 0 1 0 1 \$0-3 \$0-3 3 4 104 2 10 -225271
-42246 -1 1330 0;
#X obj 1485 167 vsl 12 96 0 1 0 1 \$0-4 \$0-4 4 4 104 2 10 -225271
-42246 -1 9405 0;
#X obj 1497 167 vsl 12 96 0 1 0 1 \$0-5 \$0-5 5 4 104 2 10 -225271
-42246 -1 5510 0;
#X obj 1509 167 vsl 12 96 0 1 0 1 \$0-6 \$0-6 6 4 104 2 10 -225271
-42246 -1 4560 0;
#X obj 1521 167 vsl 12 96 0 1 0 1 \$0-7 \$0-7 7 4 104 2 10 -225271
-42246 -1 3135 0;
#X obj 1533 167 vsl 12 96 0 1 0 1 \$0-8 \$0-8 8 4 104 2 10 -225271
-42246 -1 5415 0;
#X obj 1545 167 vsl 12 96 0 1 0 1 \$0-9 \$0-9 9 4 104 2 10 -262131
-123526 -1 4085 0;
#X obj 1557 167 vsl 12 96 0 1 0 1 \$0-10 \$0-10 10 1 104 2 10 -225271
-42246 -1 475 0;
#X obj 1569 167 vsl 12 96 0 1 0 1 \$0-11 \$0-11 11 1 104 2 10 -225271
-42246 -1 8835 0;
#X obj 1581 167 vsl 12 96 0 1 0 1 \$0-12 \$0-12 12 1 104 2 10 -225271
-42246 -1 6745 0;
#X obj 1593 167 vsl 12 96 0 1 0 1 \$0-13 \$0-13 13 1 104 2 10 -225271
-42246 -1 3420 0;
#X obj 1605 167 vsl 12 96 0 1 0 1 \$0-14 \$0-14 14 1 104 2 10 -225271
-42246 -1 1425 0;
#X obj 1617 167 vsl 12 96 0 1 0 1 \$0-15 \$0-15 15 1 104 2 10 -225271
-42246 -1 5605 0;
#X obj 1629 167 vsl 12 96 0 1 0 1 \$0-16 \$0-16 16 1 104 2 10 -225271
-42246 -1 5225 0;
#X obj 1649 165 cnv 15 150 106 empty empty empty 20 12 0 14 -260818
-66577 0;
#N canvas 0 22 450 300 (subpatch) 0;
#X array wavetable 4099 float 0;
#X coords 0 1 4098 -1 140 96 1;
#X restore 1654 170 graph;
#X obj 1886 325 r \$0-10;
#X obj 1941 325 r \$0-11;
#X obj 1996 325 r \$0-12;
#X obj 2050 325 r \$0-13;
#X obj 2103 325 r \$0-14;
#X obj 2156 325 r \$0-15;
#X obj 2209 325 r \$0-16;
#X obj 1458 469 symbol \$1;
#X obj 1666 537 pack s f f f f f f f f f f f f f f f f;
#X obj 1452 348 t b f;
#X obj 1646 345 t b f;
#X obj 1839 345 t b f;
#X obj 2050 346 t b f;
#X obj 1501 347 t b f;
#X obj 1693 346 t b f;
#X obj 1886 345 t b f;
#X obj 2103 346 t b f;
#X obj 1550 346 t b f;
#X obj 1742 346 t b f;
#X obj 1941 345 t b f;
#X obj 2156 346 t b f;
#X obj 1598 345 t b f;
#X obj 1790 345 t b f;
#X obj 1996 344 t b f;
#X obj 2209 345 t b f;
#X obj 601 309 tabosc4~ wavetable;
#X msg 1666 560 \; wavetable sinesum 4096 \$2 \$3 \$4 \$5 \$6 \$7 \$8
\$9 \$10 \$11 \$12 \$13 \$14 \$15 \$16 \$17 \; wavetable normalize
;
#X obj 1452 327 r \$0-01;
#X obj 1501 326 r \$0-02;
#X obj 1550 325 r \$0-03;
#X obj 1598 325 r \$0-04;
#X obj 1645 325 r \$0-05;
#X obj 1693 325 r \$0-06;
#X obj 1742 325 r \$0-07;
#X obj 1790 325 r \$0-08;
#X obj 1839 325 r \$0-09;
#X floatatom 876 479 5 0 0 0 - - -;
#N canvas 0 0 1600 858 BTHTRmelodica 0;
#X obj 347 -283 metro;
#X obj 346 -313 tgl 15 0 empty empty empty 17 7 0 10 -262144 -1 -1
0 1;
#X obj 348 -253 int;
#X obj 388 -234 + 1;
#X obj 91 290 clip~ -1 1;
#X obj 91 316 *~ 0.25;
#X obj 90 392 *~;
#X obj 90 -73 select 1;
#X msg 105 32 0.5;
#X obj 104 350 vline~;
#X obj 395 145 hip~ 5;
#X floatatom 252 -227 5 0 0 0 - - -;
#X obj 93 -190 select 0;
#X obj 85 79 osc~ 80;
#X obj 85 54 line~;
#X obj 65 -19 t b b b;
#X obj 291 109 noise~;
#X obj 292 213 *~;
#X obj 307 181 vline~;
#X obj 180 136 t b;
#X obj 85 101 *~ 1000;
#X obj 374 -312 expr (60000 / $f1) / 4;
#X obj 93 -137 random 2;
#X obj 291 159 lop~ 10000;
#X obj 291 137 hip~ 1000;
#X obj 180 37 select 2;
#X obj 181 64 random 2;
#X obj 180 113 select 0;
#N canvas 430 106 447 300 delay 0;
#X obj 99 86 inlet~;
#X obj 138 226 delwrite~ del1 1000;
#X obj 100 260 outlet~;
#X obj 125 149 *~ 0.78;
#X obj 100 171 +~;
#X obj 129 124 delread~ del1 10;
#X msg 186 97 2.5;
#X msg 217 97 5;
#X msg 250 98 10;
#X msg 279 97 20;
#X obj 189 23 t b;
#X obj 190 3 inlet;
#X msg 310 97 40;
#X obj 189 45 random 5;
#X obj 189 66 select 0 1 2 3 4;
#X connect 0 0 4 0;
#X connect 3 0 4 1;
#X connect 4 0 1 0;
#X connect 4 0 2 0;
#X connect 5 0 3 0;
#X connect 6 0 5 0;
#X connect 7 0 5 0;
#X connect 8 0 5 0;
#X connect 9 0 5 0;
#X connect 10 0 13 0;
#X connect 11 0 10 0;
#X connect 12 0 5 0;
#X connect 13 0 14 0;
#X connect 14 0 6 0;
#X connect 14 1 7 0;
#X connect 14 2 8 0;
#X connect 14 3 9 0;
#X connect 14 4 12 0;
#X restore 194 387 pd delay;
#N canvas 430 106 447 300 delay 0;
#X obj 99 86 inlet~;
#X obj 100 260 outlet~;
#X obj 125 149 *~ 0.78;
#X obj 100 171 +~;
#X msg 186 97 2.5;
#X msg 217 97 5;
#X msg 250 98 10;
#X msg 279 97 20;
#X obj 189 23 t b;
#X obj 190 3 inlet;
#X obj 127 124 delread~ del2 10;
#X obj 138 226 delwrite~ del2 1000;
#X msg 309 97 40;
#X obj 189 66 select 0 1 2 3 4;
#X obj 189 45 random 5;
#X connect 0 0 3 0;
#X connect 2 0 3 1;
#X connect 3 0 1 0;
#X connect 3 0 11 0;
#X connect 4 0 10 0;
#X connect 5 0 10 0;
#X connect 6 0 10 0;
#X connect 7 0 10 0;
#X connect 8 0 14 0;
#X connect 9 0 8 0;
#X connect 10 0 2 0;
#X connect 12 0 10 0;
#X connect 13 0 4 0;
#X connect 13 1 5 0;
#X connect 13 2 6 0;
#X connect 13 3 7 0;
#X connect 13 4 12 0;
#X connect 14 0 13 0;
#X restore 369 309 pd delay;
#X obj 291 243 *~ 0.25;
#X obj 180 8 mod 4;
#X msg 186 319 1 10 \, 0 2 50;
#X msg 85 5 1e+008 0 \, 60 5;
#X obj 393 94 *~;
#X obj 383 30 vline~;
#X obj 480 23 clip~ -1 1;
#X obj 399 -113 t b b b;
#X obj 481 -57 line~;
#X msg 383 8 1 10 \, 0 20 100;
#X obj 392 117 *~ 0.5;
#X obj 750 280 *~;
#X obj 771 192 vline~;
#X msg 826 -152 0;
#X obj 808 -241 select 0;
#X obj 705 197 clip~ -1 1;
#X obj 713 153 osc~ 80;
#X obj 805 -203 t b b b;
#X obj 918 -91 line~;
#X obj 713 175 *~ 10000;
#X obj 750 315 *~ 1;
#X obj 807 -272 mod 4;
#X msg 918 -139 50 0 \, 20000 10;
#X msg 805 -121 1 10 \, 0 5 5;
#X obj 874 153 phasor~;
#X obj 848 -178 random 4;
#X obj 869 14 select 0 1 2 3;
#X obj 526 145 vcf~ 7;
#X msg 849 60 1;
#X msg 886 59 2;
#X msg 934 56 4;
#X msg 978 56 8;
#X obj 542 59 *~ 64;
#X obj 542 84 +~ 64;
#X obj 542 111 mtof~;
#X obj 525 204 *~ 4;
#X text 575 323 fucking avvvv it;
#X obj 96 -259 mod 4;
#X msg 429 -58 1;
#X msg 181 163 1 1 \, 0 7 11;
#X floatatom 699 -161 5 0 0 0 - - -;
#X floatatom 629 -31 5 0 0 0 - - -;
#X obj 627 -113 select 0 1 2 3;
#X msg 594 -70 80;
#X msg 631 -71 70;
#X msg 679 -74 300;
#X msg 723 -74 40;
#X floatatom 963 -111 5 0 0 0 - - -;
#X msg 604 48 6;
#X msg 636 47 7;
#X msg 670 47 8;
#X msg 705 46 9;
#X floatatom 709 80 5 0 0 0 - - -;
#X floatatom 613 -153 5 0 0 0 - - -;
#X msg 566 22 64;
#X obj 606 -199 random 500;
#X obj 687 -187 random 800;
#X obj 985 -79 vsl 15 128 0 127 0 0 empty empty empty 0 -9 0 10 -260097
-1 -1 0 1;
#X obj 919 -54 *~;
#X obj 953 128 noise~;
#X obj 916 275 print a;
#X obj 922 237 bang;
#X obj 921 209 bng 15 250 50 0 empty empty empty 17 7 0 10 -262144
-1 -1;
#X obj 233 -195 switch;
#X obj 222 -218 tgl 15 0 empty empty empty 17 7 0 10 -4034 -1 -1 0
1;
#X obj 875 112 * -3;
#X floatatom 982 93 5 0 0 0 - - -;
#X floatatom 160 -113 5 0 0 0 - - -;
#X obj 480 -3 *~ 10000;
#X obj 480 -25 osc~ 80;
#X obj 402 -140 select 0;
#X floatatom 539 -120 5 0 0 0 - - -;
#X msg 484 -93 180 0 \, 40 80;
#X obj 460 124 *~ 0.03;
#X obj 402 -171 mod 4;
#X obj 507 281 outlet~;
#X obj 572 282 outlet~;
#X obj 340 -350 inlet;
#X obj 387 -349 inlet;
#X obj 386 181 *~ 0.06;
#X obj 437 186 *~ 0.06;
#X obj 634 -327 select 0;
#X msg 609 -287 1;
#X msg 648 -284 0;
#X obj 649 -305 delay 5000;
#X floatatom 422 -278 5 0 0 0 - - -;
#X obj 634 -357 random 500;
#X floatatom 750 -330 5 0 0 0 - - -;
#X connect 0 0 2 0;
#X connect 0 0 116 0;
#X connect 1 0 0 0;
#X connect 2 0 3 0;
#X connect 3 0 2 1;
#X connect 3 0 31 0;
#X connect 3 0 51 0;
#X connect 3 0 67 0;
#X connect 3 0 104 0;
#X connect 4 0 5 0;
#X connect 5 0 6 0;
#X connect 6 0 28 0;
#X connect 7 0 15 0;
#X connect 7 1 28 1;
#X connect 8 0 13 1;
#X connect 9 0 6 1;
#X connect 10 0 109 0;
#X connect 10 0 110 0;
#X connect 11 0 93 1;
#X connect 12 0 22 0;
#X connect 13 0 20 0;
#X connect 14 0 13 0;
#X connect 15 0 32 0;
#X connect 15 1 33 0;
#X connect 15 2 8 0;
#X connect 15 2 86 0;
#X connect 16 0 24 0;
#X connect 17 0 30 0;
#X connect 18 0 17 1;
#X connect 19 0 69 0;
#X connect 20 0 4 0;
#X connect 21 0 0 1;
#X connect 22 0 7 0;
#X connect 22 0 97 0;
#X connect 23 0 17 0;
#X connect 24 0 23 0;
#X connect 25 0 26 0;
#X connect 26 0 27 0;
#X connect 27 0 19 0;
#X connect 27 1 29 1;
#X connect 28 0 57 0;
#X connect 29 0 57 0;
#X connect 30 0 29 0;
#X connect 31 0 25 0;
#X connect 32 0 9 0;
#X connect 33 0 14 0;
#X connect 34 0 40 0;
#X connect 35 0 103 0;
#X connect 36 0 54 0;
#X connect 36 0 24 0;
#X connect 37 0 39 0;
#X connect 37 1 68 0;
#X connect 37 2 102 0;
#X connect 38 0 99 0;
#X connect 39 0 35 0;
#X connect 40 0 10 0;
#X connect 41 0 50 0;
#X connect 42 0 41 1;
#X connect 44 0 47 0;
#X connect 45 0 41 0;
#X connect 46 0 49 0;
#X connect 47 0 53 0;
#X connect 47 1 43 0;
#X connect 47 2 52 0;
#X connect 47 2 55 0;
#X connect 47 2 85 0;
#X connect 48 0 88 0;
#X connect 49 0 45 0;
#X connect 50 0 62 0;
#X connect 51 0 44 0;
#X connect 52 0 48 0;
#X connect 52 0 77 0;
#X connect 53 0 42 0;
#X connect 54 0 62 0;
#X connect 55 0 56 0;
#X connect 55 0 72 0;
#X connect 56 0 58 0;
#X connect 56 0 96 0;
#X connect 56 1 59 0;
#X connect 56 1 96 0;
#X connect 56 2 60 0;
#X connect 56 3 61 0;
#X connect 56 3 96 0;
#X connect 57 0 65 0;
#X connect 58 0 95 0;
#X connect 59 0 95 0;
#X connect 60 0 95 0;
#X connect 61 0 95 0;
#X connect 62 0 63 0;
#X connect 63 0 64 0;
#X connect 64 0 57 1;
#X connect 65 0 10 0;
#X connect 67 0 11 0;
#X connect 67 0 12 0;
#X connect 69 0 18 0;
#X connect 70 0 88 1;
#X connect 70 0 99 1;
#X connect 70 0 35 0;
#X connect 71 0 95 1;
#X connect 72 0 73 0;
#X connect 72 0 78 0;
#X connect 72 1 74 0;
#X connect 72 1 79 0;
#X connect 72 2 75 0;
#X connect 72 2 80 0;
#X connect 72 3 76 0;
#X connect 72 3 81 0;
#X connect 73 0 71 0;
#X connect 74 0 71 0;
#X connect 75 0 71 0;
#X connect 76 0 71 0;
#X connect 78 0 65 1;
#X connect 78 0 82 0;
#X connect 79 0 65 1;
#X connect 79 0 82 0;
#X connect 80 0 65 1;
#X connect 80 0 82 0;
#X connect 81 0 65 1;
#X connect 81 0 82 0;
#X connect 83 0 88 0;
#X connect 83 0 35 0;
#X connect 84 0 62 1;
#X connect 85 0 83 0;
#X connect 86 0 70 0;
#X connect 87 0 96 0;
#X connect 88 0 54 0;
#X connect 91 0 90 0;
#X connect 92 0 91 0;
#X connect 93 0 83 0;
#X connect 93 0 70 0;
#X connect 94 0 93 0;
#X connect 95 0 54 1;
#X connect 98 0 36 0;
#X connect 99 0 98 0;
#X connect 100 0 37 0;
#X connect 102 0 38 0;
#X connect 102 0 101 0;
#X connect 103 0 29 0;
#X connect 104 0 100 0;
#X connect 107 0 1 0;
#X connect 108 0 21 0;
#X connect 108 0 115 0;
#X connect 109 0 105 0;
#X connect 110 0 106 0;
#X connect 111 0 112 0;
#X connect 111 0 114 0;
#X connect 112 0 94 0;
#X connect 113 0 94 0;
#X connect 114 0 113 0;
#X connect 116 0 111 0;
#X connect 116 0 117 0;
#X restore 1120 180 pd BTHTRmelodica;
#X obj 1097 288 lop~;
#X obj 1164 287 lop~;
#X obj 1090 248 random 4000;
#X obj 1180 246 random 4000;
#X obj 591 361 +~;
#X obj 232 180 random 2;
#X obj 235 212 sel 0;
#X obj 376 232 switch;
#X obj 386 171 tgl 15 0 empty empty empty 17 7 0 10 -262144 -1 -1 9
9;
#X obj 354 267 bng 15 250 50 0 empty empty empty 17 7 0 10 -262144
-1 -1;
#X obj 383 204 + 1;
#X obj 390 114 random 20;
#X obj 383 145 sel 1;
#X floatatom 333 135 5 0 0 0 - - -;
#X msg 1207 81 0.2;
#X obj 537 455 patchComs;
#X obj 532 481 switch~;
#X text 464 9 Adapted from Building_Waveforms_Sines and BTHTLR's Coleford-Riddem
patches;
#X connect 1 0 174 0;
#X connect 2 0 194 2;
#X connect 2 0 192 0;
#X connect 2 0 198 0;
#X connect 3 0 119 0;
#X connect 3 0 126 0;
#X connect 3 0 127 0;
#X connect 3 0 191 0;
#X connect 9 0 3 0;
#X connect 10 0 9 0;
#X connect 10 1 130 0;
#X connect 11 0 14 0;
#X connect 11 0 2 0;
#X connect 11 0 17 0;
#X connect 11 0 22 0;
#X connect 11 0 27 0;
#X connect 11 0 32 0;
#X connect 11 0 117 0;
#X connect 11 0 189 0;
#X connect 11 0 190 0;
#X connect 12 0 11 0;
#X connect 12 0 186 0;
#X connect 13 0 11 1;
#X connect 13 0 186 1;
#X connect 14 0 15 0;
#X connect 14 0 91 0;
#X connect 14 0 92 0;
#X connect 14 0 93 0;
#X connect 14 0 94 0;
#X connect 15 0 120 0;
#X connect 17 0 18 0;
#X connect 18 0 19 0;
#X connect 19 0 20 0;
#X connect 20 0 16 0;
#X connect 22 0 23 0;
#X connect 23 0 24 0;
#X connect 24 0 25 0;
#X connect 25 0 21 0;
#X connect 27 0 28 0;
#X connect 28 0 29 0;
#X connect 29 0 30 0;
#X connect 30 0 26 0;
#X connect 32 0 33 0;
#X connect 33 0 34 0;
#X connect 34 0 35 0;
#X connect 35 0 31 0;
#X connect 37 0 38 0;
#X connect 38 0 36 0;
#X connect 40 0 41 0;
#X connect 41 0 39 0;
#X connect 43 0 44 0;
#X connect 44 0 42 0;
#X connect 46 0 47 0;
#X connect 47 0 45 0;
#X connect 48 0 131 0;
#X connect 49 0 132 0;
#X connect 50 0 133 0;
#X connect 51 0 134 0;
#X connect 52 0 135 0;
#X connect 53 0 13 0;
#X connect 55 0 56 0;
#X connect 56 0 54 0;
#X connect 58 0 59 0;
#X connect 59 0 57 0;
#X connect 61 0 62 0;
#X connect 62 0 60 0;
#X connect 64 0 65 0;
#X connect 65 0 63 0;
#X connect 66 0 136 0;
#X connect 67 0 137 0;
#X connect 68 0 138 0;
#X connect 69 0 139 0;
#X connect 70 0 140 0;
#X connect 72 0 73 0;
#X connect 73 0 71 0;
#X connect 75 0 76 0;
#X connect 76 0 74 0;
#X connect 78 0 79 0;
#X connect 79 0 77 0;
#X connect 81 0 82 0;
#X connect 82 0 80 0;
#X connect 83 0 75 0;
#X connect 84 0 78 0;
#X connect 85 0 81 0;
#X connect 86 0 72 0;
#X connect 87 0 64 0;
#X connect 88 0 61 0;
#X connect 89 0 58 0;
#X connect 90 0 55 0;
#X connect 91 0 46 0;
#X connect 92 0 43 0;
#X connect 93 0 40 0;
#X connect 94 0 37 0;
#X connect 95 0 142 0;
#X connect 96 0 141 0;
#X connect 98 0 99 0;
#X connect 99 0 97 0;
#X connect 101 0 102 0;
#X connect 102 0 100 0;
#X connect 104 0 105 0;
#X connect 105 0 103 0;
#X connect 107 0 108 0;
#X connect 108 0 106 0;
#X connect 109 0 98 0;
#X connect 110 0 101 0;
#X connect 111 0 104 0;
#X connect 112 0 107 0;
#X connect 113 0 143 0;
#X connect 114 0 144 0;
#X connect 115 0 145 0;
#X connect 116 0 146 0;
#X connect 117 0 118 0;
#X connect 118 0 83 0;
#X connect 118 0 84 0;
#X connect 118 0 85 0;
#X connect 118 0 86 0;
#X connect 118 0 87 0;
#X connect 118 0 88 0;
#X connect 118 0 89 0;
#X connect 118 0 90 0;
#X connect 118 0 109 0;
#X connect 118 0 110 0;
#X connect 118 0 111 0;
#X connect 118 0 112 0;
#X connect 118 0 185 0;
#X connect 119 0 126 0;
#X connect 120 0 53 0;
#X connect 121 0 122 0;
#X connect 121 0 124 0;
#X connect 122 0 123 0;
#X connect 124 0 12 0;
#X connect 124 0 201 0;
#X connect 124 0 195 0;
#X connect 126 0 202 0;
#X connect 127 0 202 1;
#X connect 128 0 126 1;
#X connect 128 0 127 1;
#X connect 129 0 1 0;
#X connect 130 0 129 0;
#X connect 149 0 164 0;
#X connect 150 0 168 0;
#X connect 151 0 172 0;
#X connect 152 0 161 0;
#X connect 153 0 165 0;
#X connect 154 0 169 0;
#X connect 155 0 173 0;
#X connect 156 0 157 0;
#X connect 157 0 175 0;
#X connect 158 0 156 0;
#X connect 158 1 157 1;
#X connect 159 0 156 0;
#X connect 159 1 157 5;
#X connect 160 0 156 0;
#X connect 160 1 157 9;
#X connect 161 0 156 0;
#X connect 161 1 157 13;
#X connect 162 0 156 0;
#X connect 162 1 157 2;
#X connect 163 0 156 0;
#X connect 163 1 157 6;
#X connect 164 0 156 0;
#X connect 164 1 157 10;
#X connect 165 0 156 0;
#X connect 165 1 157 14;
#X connect 166 0 156 0;
#X connect 166 1 157 3;
#X connect 167 0 156 0;
#X connect 167 1 157 7;
#X connect 168 0 156 0;
#X connect 168 1 157 11;
#X connect 169 0 156 0;
#X connect 169 1 157 15;
#X connect 170 0 156 0;
#X connect 170 1 157 4;
#X connect 171 0 156 0;
#X connect 171 1 157 8;
#X connect 172 0 156 0;
#X connect 172 1 157 12;
#X connect 173 0 156 0;
#X connect 173 1 157 16;
#X connect 174 0 3 1;
#X connect 176 0 158 0;
#X connect 177 0 162 0;
#X connect 178 0 166 0;
#X connect 179 0 170 0;
#X connect 180 0 159 0;
#X connect 181 0 163 0;
#X connect 182 0 167 0;
#X connect 183 0 171 0;
#X connect 184 0 160 0;
#X connect 186 0 187 0;
#X connect 186 1 188 0;
#X connect 187 0 126 0;
#X connect 188 0 127 0;
#X connect 189 0 187 1;
#X connect 190 0 188 1;
#X connect 191 0 127 0;
#X connect 192 0 193 0;
#X connect 193 0 194 1;
#X connect 194 0 10 0;
#X connect 194 0 196 0;
#X connect 195 0 197 0;
#X connect 197 0 194 0;
#X connect 198 0 199 0;
#X connect 198 0 200 0;
#X connect 199 0 195 0;
#X connect 201 0 125 0;
#X connect 202 0 203 0;
