#N canvas 189 2 1180 649 12;
#X obj 38 99 bng 15 250 50 0 empty empty empty 17 7 0 10 -262144 -1
-1;
#X obj 163 13 tgl 15 0 empty empty empty 17 7 0 10 -262144 -1 -1 1
1;
#N canvas 0 0 592 389 Tinkerbell 0;
#X obj 60 94 abs;
#X obj 177 122 abs;
#X obj 60 122 / 2;
#X obj 177 179 + 0.1;
#X obj 60 179 * 10000;
#X obj 60 151 + 0.001;
#X obj 60 239 line~;
#X msg 60 209 \$1 100;
#X obj 177 239 line~;
#X msg 177 209 \$1 100;
#X obj 60 33 inlet;
#X obj 59 267 outlet~;
#X obj 177 267 outlet~;
#X obj 437 23 inlet;
#X obj 177 150 / 2;
#X obj 60 68 TinkerbellEquations -0.72 -0.64 0.9 -0.6013 2 0.5;
#X connect 0 0 2 0;
#X connect 1 0 14 0;
#X connect 2 0 5 0;
#X connect 3 0 9 0;
#X connect 4 0 7 0;
#X connect 5 0 4 0;
#X connect 6 0 11 0;
#X connect 7 0 6 0;
#X connect 8 0 12 0;
#X connect 9 0 8 0;
#X connect 10 0 15 0;
#X connect 13 0 15 3;
#X connect 14 0 3 0;
#X connect 15 0 0 0;
#X connect 15 1 1 0;
#X restore 38 289 pd Tinkerbell Values;
#N canvas 0 0 592 389 Tinkerbell 0;
#X obj 60 94 abs;
#X obj 177 122 abs;
#X obj 60 122 / 2;
#X obj 177 179 + 0.1;
#X obj 60 179 * 10000;
#X obj 60 151 + 0.001;
#X obj 60 239 line~;
#X msg 60 209 \$1 100;
#X obj 177 239 line~;
#X msg 177 209 \$1 100;
#X obj 60 33 inlet;
#X obj 59 267 outlet~;
#X obj 177 267 outlet~;
#X obj 367 28 inlet;
#X obj 60 68 TinkerbellEquations -0.72 -0.64 0.9 -0.6013 2 0.52;
#X obj 177 149 / 2;
#X connect 0 0 2 0;
#X connect 1 0 15 0;
#X connect 2 0 5 0;
#X connect 3 0 9 0;
#X connect 4 0 7 0;
#X connect 5 0 4 0;
#X connect 6 0 11 0;
#X connect 7 0 6 0;
#X connect 8 0 12 0;
#X connect 9 0 8 0;
#X connect 10 0 14 0;
#X connect 13 0 14 3;
#X connect 14 0 0 0;
#X connect 14 1 1 0;
#X connect 15 0 3 0;
#X restore 54 208 pd Tinkerbell Values;
#N canvas -47 166 592 389 Tinkerbell 0;
#X obj 60 94 abs;
#X obj 177 122 abs;
#X obj 60 122 / 2;
#X obj 177 179 + 0.1;
#X obj 60 179 * 10000;
#X obj 60 151 + 0.001;
#X obj 60 239 line~;
#X msg 60 209 \$1 100;
#X obj 177 239 line~;
#X msg 177 209 \$1 100;
#X obj 60 33 inlet;
#X obj 59 267 outlet~;
#X obj 177 267 outlet~;
#X obj 352 25 inlet;
#X obj 177 151 / 2;
#X obj 60 68 TinkerbellEquations -0.72 -0.64 0.9 -0.6 2 0.27;
#X connect 0 0 2 0;
#X connect 1 0 14 0;
#X connect 2 0 5 0;
#X connect 3 0 9 0;
#X connect 4 0 7 0;
#X connect 5 0 4 0;
#X connect 6 0 11 0;
#X connect 7 0 6 0;
#X connect 8 0 12 0;
#X connect 9 0 8 0;
#X connect 10 0 15 0;
#X connect 13 0 15 3;
#X connect 14 0 3 0;
#X connect 15 0 0 0;
#X connect 15 1 1 0;
#X restore 69 128 pd Tinkerbell Values;
#X obj 69 182 s~ deltime1;
#X obj 112 155 s~ feedback1;
#X obj 97 235 s~ feedback2;
#X obj 54 262 s~ deltime2;
#X obj 81 316 s~ feedback2;
#X obj 38 343 s~ deltime2;
#N canvas 91 181 686 329 Delay1 0;
#X obj 242 231 *~;
#X obj 242 179 vd~ tinkdelayL1;
#X obj 242 257 delwrite~ tinkdelayL1 10000;
#X obj 264 205 r~ feedback1;
#X obj 242 127 r~ deltime1;
#X obj 242 153 *~ 1;
#X obj 112 179 vd~ tinkdelayL1;
#X obj 112 153 /~ 2;
#X obj 454 120 *~;
#X obj 476 94 r~ feedback1;
#X obj 454 16 r~ deltime1;
#X obj 454 42 *~ 1;
#X obj 324 42 /~ 2;
#X obj 324 68 vd~ tinkdelayR1;
#X obj 454 68 vd~ tinkdelayR1;
#X obj 454 146 delwrite~ tinkdelayR1 10000;
#X obj 226 68 r~ FXinputR;
#X obj 14 179 r~ FXinputL;
#X obj 227 282 s~ FXoutputL;
#X obj 439 171 s~ FXoutputR;
#X connect 0 0 2 0;
#X connect 1 0 0 0;
#X connect 1 0 18 0;
#X connect 3 0 0 1;
#X connect 4 0 5 0;
#X connect 4 0 7 0;
#X connect 5 0 1 0;
#X connect 6 0 0 0;
#X connect 6 0 18 0;
#X connect 7 0 6 0;
#X connect 8 0 15 0;
#X connect 9 0 8 1;
#X connect 10 0 11 0;
#X connect 10 0 12 0;
#X connect 11 0 14 0;
#X connect 12 0 13 0;
#X connect 13 0 8 0;
#X connect 13 0 19 0;
#X connect 14 0 8 0;
#X connect 14 0 19 0;
#X connect 16 0 15 0;
#X connect 17 0 2 0;
#X restore 68 410 pd Delay1;
#N canvas 188 225 686 329 Delay2 0;
#X obj 242 231 *~;
#X obj 242 153 *~ 1;
#X obj 112 153 /~ 2;
#X obj 454 120 *~;
#X obj 454 42 *~ 1;
#X obj 324 42 /~ 2;
#X obj 454 16 r~ deltime2;
#X obj 324 68 vd~ tinkdelayR2;
#X obj 454 68 vd~ tinkdelayR2;
#X obj 476 94 r~ feedback2;
#X obj 454 146 delwrite~ tinkdelayR2 10000;
#X obj 112 179 vd~ tinkdelayL2;
#X obj 242 179 vd~ tinkdelayL2;
#X obj 264 205 r~ feedback2;
#X obj 242 257 delwrite~ tinkdelayL2 10000;
#X obj 242 127 r~ deltime2;
#X obj 226 68 r~ FXinputR;
#X obj 14 179 r~ FXinputL;
#X obj 227 282 s~ FXoutputL;
#X obj 439 171 s~ FXoutputR;
#X connect 0 0 14 0;
#X connect 1 0 12 0;
#X connect 2 0 11 0;
#X connect 3 0 10 0;
#X connect 4 0 8 0;
#X connect 5 0 7 0;
#X connect 6 0 4 0;
#X connect 6 0 5 0;
#X connect 7 0 3 0;
#X connect 7 0 19 0;
#X connect 8 0 3 0;
#X connect 8 0 19 0;
#X connect 9 0 3 1;
#X connect 11 0 0 0;
#X connect 11 0 18 0;
#X connect 12 0 0 0;
#X connect 12 0 18 0;
#X connect 13 0 0 1;
#X connect 15 0 1 0;
#X connect 15 0 2 0;
#X connect 16 0 10 0;
#X connect 17 0 14 0;
#X restore 68 436 pd Delay2;
#N canvas 91 181 686 329 Delay3 0;
#X obj 242 231 *~;
#X obj 242 153 *~ 1;
#X obj 112 153 /~ 2;
#X obj 454 120 *~;
#X obj 454 42 *~ 1;
#X obj 324 42 /~ 2;
#X obj 454 16 r~ deltime3;
#X obj 324 68 vd~ tinkdelayR3;
#X obj 454 68 vd~ tinkdelayR3;
#X obj 476 94 r~ feedback3;
#X obj 454 146 delwrite~ tinkdelayR3 10000;
#X obj 242 127 r~ deltime3;
#X obj 242 179 vd~ tinkdelayL3;
#X obj 264 205 r~ feedback3;
#X obj 242 257 delwrite~ tinkdelayL3 10000;
#X obj 112 179 vd~ tinkdelayL3;
#X obj 226 68 r~ FXinputR;
#X obj 14 179 r~ FXinputL;
#X obj 227 282 s~ FXoutputL;
#X obj 439 171 s~ FXoutputR;
#X connect 0 0 14 0;
#X connect 1 0 12 0;
#X connect 2 0 15 0;
#X connect 3 0 10 0;
#X connect 4 0 8 0;
#X connect 5 0 7 0;
#X connect 6 0 4 0;
#X connect 6 0 5 0;
#X connect 7 0 3 0;
#X connect 7 0 19 0;
#X connect 8 0 3 0;
#X connect 8 0 19 0;
#X connect 9 0 3 1;
#X connect 11 0 1 0;
#X connect 11 0 2 0;
#X connect 12 0 0 0;
#X connect 12 0 18 0;
#X connect 13 0 0 1;
#X connect 15 0 0 0;
#X connect 15 0 18 0;
#X connect 16 0 10 0;
#X connect 17 0 14 0;
#X restore 68 462 pd Delay3;
#X obj 794 315 hsl 128 15 0 99 0 0 empty empty empty -2 -8 0 10 -262144
-1 -1 6463 1;
#X obj 679 467 *~;
#X obj 741 467 *~;
#X obj 792 493 *~;
#X obj 836 492 *~;
#X obj 860 363 * -1;
#X obj 860 389 / 100;
#X obj 762 384 / 100;
#X obj 860 339 - 100;
#X obj 764 282 s~ FXinputL;
#X obj 863 282 s~ FXinputR;
#X obj 792 432 r~ FXoutputL;
#X obj 836 463 r~ FXoutputR;
#X obj 609 552 *~;
#X obj 653 551 *~;
#X obj 624 466 / 100;
#X obj 624 328 vsl 15 128 0 99 0 0 empty empty empty 0 -9 0 10 -262144
-1 -1 10263 1;
#X obj 678 245 *~ 0.8;
#X obj 740 245 *~ 0.8;
#X obj 620 593 dac~;
#X obj 207 556 bell;
#X obj 425 546 bell;
#X obj 207 526 +;
#X obj 244 471 random 100;
#X obj 244 497 / 20;
#X obj 207 446 t f b;
#X obj 266 581 *~;
#X obj 349 577 *~;
#X obj 301 376 unpack f f f;
#X obj 342 453 random 100;
#X obj 342 479 / 100;
#X obj 342 506 - 1;
#X obj 342 535 * -1;
#X obj 439 515 +;
#X obj 476 460 random 100;
#X obj 439 435 t f b;
#X obj 301 413 t f b;
#X obj 661 193 r~ bellsoundL;
#X obj 790 192 r~ bellsoundR;
#X obj 241 607 s~ bellsoundL;
#X obj 366 608 s~ bellsoundR;
#X obj 476 486 / 400;
#X obj 301 199 random 8;
#X floatatom 301 226 5 0 0 0 - - -;
#X obj 301 173 bng 15 250 50 0 empty empty empty 17 7 0 10 -262144
-1 -1;
#X obj 301 250 + 1;
#X obj 301 277 * 100;
#X obj 301 305 + 1001;
#X msg 301 347 \$1 3.6 0.7;
#X floatatom 402 338 5 0 0 0 - - -;
#X obj 314 142 del 1500;
#X obj 438 68 random 100;
#X obj 438 95 moses 30;
#X obj 244 138 sel 1;
#X obj 163 34 t f f;
#X obj 314 45 random 100;
#X obj 314 69 + 100;
#X obj 314 118 t b f;
#X obj 438 237 del 1500;
#X obj 438 140 random 100;
#X obj 438 213 t b f;
#X obj 438 164 + 50;
#X obj 594 255 loadbang;
#X msg 594 283 80;
#X obj 301 16 metro 3000;
#X obj 382 178 bng 15 250 50 0 empty empty empty 17 7 0 10 -262144
-1 -1;
#X obj 436 276 bng 15 250 50 0 empty empty empty 17 7 0 10 -262144
-1 -1;
#X floatatom 509 230 5 0 0 0 - - -;
#X floatatom 385 127 5 0 0 0 - - -;
#X obj 314 95 * 10;
#X obj 438 190 * 20;
#X obj 441 34 bng 15 250 50 0 empty empty empty 17 7 0 10 -262144 -1
-1;
#X obj 438 120 bng 15 250 50 0 empty empty empty 17 7 0 10 -262144
-1 -1;
#X obj 38 73 metro 1000;
#X connect 0 0 4 0;
#X connect 0 0 3 0;
#X connect 0 0 2 0;
#X connect 1 0 68 0;
#X connect 2 0 10 0;
#X connect 2 1 9 0;
#X connect 3 0 8 0;
#X connect 3 1 7 0;
#X connect 4 0 5 0;
#X connect 4 1 6 0;
#X connect 14 0 22 0;
#X connect 14 0 21 0;
#X connect 15 0 27 0;
#X connect 16 0 28 0;
#X connect 17 0 27 0;
#X connect 18 0 28 0;
#X connect 19 0 20 0;
#X connect 20 0 18 1;
#X connect 20 0 17 1;
#X connect 21 0 16 1;
#X connect 21 0 15 1;
#X connect 22 0 19 0;
#X connect 25 0 17 0;
#X connect 26 0 18 0;
#X connect 27 0 33 0;
#X connect 28 0 33 1;
#X connect 29 0 28 1;
#X connect 29 0 27 1;
#X connect 30 0 29 0;
#X connect 31 0 23 0;
#X connect 31 0 15 0;
#X connect 32 0 24 0;
#X connect 32 0 16 0;
#X connect 34 0 40 0;
#X connect 35 0 41 0;
#X connect 36 0 34 0;
#X connect 37 0 38 0;
#X connect 38 0 36 1;
#X connect 39 0 36 0;
#X connect 39 1 37 0;
#X connect 40 0 53 0;
#X connect 41 0 54 0;
#X connect 42 0 50 0;
#X connect 42 1 49 0;
#X connect 42 1 34 1;
#X connect 42 2 35 2;
#X connect 42 2 34 2;
#X connect 43 0 44 0;
#X connect 44 0 45 0;
#X connect 44 0 40 1;
#X connect 45 0 46 0;
#X connect 46 0 41 1;
#X connect 47 0 35 1;
#X connect 48 0 55 0;
#X connect 49 0 47 0;
#X connect 49 1 48 0;
#X connect 50 0 39 0;
#X connect 50 0 35 0;
#X connect 50 1 43 0;
#X connect 51 0 31 0;
#X connect 52 0 32 0;
#X connect 55 0 47 1;
#X connect 56 0 57 0;
#X connect 57 0 59 0;
#X connect 58 0 56 0;
#X connect 59 0 60 0;
#X connect 60 0 61 0;
#X connect 61 0 62 0;
#X connect 61 0 63 0;
#X connect 62 0 42 0;
#X connect 64 0 58 0;
#X connect 64 0 79 0;
#X connect 65 0 66 0;
#X connect 66 0 86 0;
#X connect 67 0 4 1;
#X connect 67 0 3 1;
#X connect 67 0 2 1;
#X connect 68 0 78 0;
#X connect 68 0 87 0;
#X connect 68 1 67 0;
#X connect 69 0 70 0;
#X connect 70 0 83 0;
#X connect 71 0 64 0;
#X connect 71 1 64 1;
#X connect 72 0 80 0;
#X connect 72 0 64 0;
#X connect 73 0 75 0;
#X connect 74 0 72 0;
#X connect 74 1 72 1;
#X connect 75 0 84 0;
#X connect 76 0 77 0;
#X connect 77 0 30 0;
#X connect 77 0 14 0;
#X connect 78 0 58 0;
#X connect 78 0 65 0;
#X connect 78 0 69 0;
#X connect 83 0 71 0;
#X connect 83 0 82 0;
#X connect 84 0 74 0;
#X connect 84 0 81 0;
#X connect 85 0 65 0;
#X connect 86 0 73 0;
#X connect 87 0 0 0;
