#N canvas 1608 90 1611 841 12;
#X obj 98 140 bng 15 250 50 0 empty empty empty 17 7 0 10 -262144 -1
-1;
#X obj 231 34 tgl 15 0 empty empty empty 17 7 0 10 -262144 -1 -1 1
1;
#N canvas 0 0 634 435 Tinkerbell 0;
#X obj 57 213 abs;
#X obj 174 241 abs;
#X obj 57 241 / 2;
#X obj 174 298 + 0.1;
#X obj 57 298 * 10000;
#X obj 57 270 + 0.001;
#X obj 57 358 line~;
#X msg 57 328 \$1 100;
#X obj 174 358 line~;
#X msg 174 328 \$1 100;
#X obj 57 152 inlet;
#X obj 56 386 outlet~;
#X obj 174 386 outlet~;
#X obj 434 142 inlet;
#X obj 174 269 / 2;
#X obj 57 187 TinkerbellEquations -0.72 -0.64 0.9 -0.6013 2 0.5;
#X obj 143 72 random 1000;
#X obj 143 100 - 500;
#X obj 143 132 / 500;
#X obj 241 75 random 1000;
#X obj 241 103 - 500;
#X obj 241 135 / 500;
#X obj 228 36 loadbang;
#X connect 0 0 2 0;
#X connect 1 0 14 0;
#X connect 2 0 5 0;
#X connect 3 0 9 0;
#X connect 4 0 7 0;
#X connect 5 0 4 0;
#X connect 6 0 11 0;
#X connect 7 0 6 0;
#X connect 8 0 12 0;
#X connect 9 0 8 0;
#X connect 10 0 15 0;
#X connect 13 0 15 3;
#X connect 14 0 3 0;
#X connect 15 0 0 0;
#X connect 15 1 1 0;
#X connect 16 0 17 0;
#X connect 17 0 18 0;
#X connect 18 0 15 1;
#X connect 19 0 20 0;
#X connect 20 0 21 0;
#X connect 21 0 15 2;
#X connect 22 0 16 0;
#X connect 22 0 19 0;
#X restore 250 655 pd Tinkerbell Values;
#N canvas 455 112 598 471 Tinkerbell 0;
#X obj 59 143 abs;
#X obj 176 171 abs;
#X obj 59 171 / 2;
#X obj 176 228 + 0.1;
#X obj 59 228 * 10000;
#X obj 59 200 + 0.001;
#X obj 59 288 line~;
#X msg 59 258 \$1 100;
#X obj 176 288 line~;
#X msg 176 258 \$1 100;
#X obj 59 82 inlet;
#X obj 58 316 outlet~;
#X obj 176 316 outlet~;
#X obj 366 77 inlet;
#X obj 59 117 TinkerbellEquations -0.72 -0.64 0.9 -0.6013 2 0.52;
#X obj 176 198 / 2;
#X obj 151 11 random 1000;
#X obj 151 39 - 500;
#X obj 151 71 / 500;
#X obj 249 14 random 1000;
#X obj 249 42 - 500;
#X obj 249 74 / 500;
#X obj 236 -25 loadbang;
#X connect 0 0 2 0;
#X connect 1 0 15 0;
#X connect 2 0 5 0;
#X connect 3 0 9 0;
#X connect 4 0 7 0;
#X connect 5 0 4 0;
#X connect 6 0 11 0;
#X connect 7 0 6 0;
#X connect 8 0 12 0;
#X connect 9 0 8 0;
#X connect 10 0 14 0;
#X connect 13 0 14 3;
#X connect 14 0 0 0;
#X connect 14 1 1 0;
#X connect 15 0 3 0;
#X connect 16 0 17 0;
#X connect 17 0 18 0;
#X connect 18 0 14 1;
#X connect 19 0 20 0;
#X connect 20 0 21 0;
#X connect 21 0 14 2;
#X connect 22 0 16 0;
#X connect 22 0 19 0;
#X restore 237 449 pd Tinkerbell Values;
#N canvas 392 160 644 518 Tinkerbell 0;
#X obj 59 221 abs;
#X obj 176 249 abs;
#X obj 59 249 / 2;
#X obj 176 306 + 0.1;
#X obj 59 306 * 10000;
#X obj 59 278 + 0.001;
#X obj 59 366 line~;
#X msg 59 336 \$1 100;
#X obj 176 366 line~;
#X msg 176 336 \$1 100;
#X obj 59 160 inlet;
#X obj 58 394 outlet~;
#X obj 176 394 outlet~;
#X obj 351 152 inlet;
#X obj 176 278 / 2;
#X obj 59 195 TinkerbellEquations -0.72 -0.64 0.9 -0.6 2 0.27;
#X obj 137 90 random 1000;
#X obj 137 118 - 500;
#X obj 137 150 / 500;
#X obj 235 93 random 1000;
#X obj 235 121 - 500;
#X obj 235 153 / 500;
#X obj 222 54 loadbang;
#X connect 0 0 2 0;
#X connect 1 0 14 0;
#X connect 2 0 5 0;
#X connect 3 0 9 0;
#X connect 4 0 7 0;
#X connect 5 0 4 0;
#X connect 6 0 11 0;
#X connect 7 0 6 0;
#X connect 8 0 12 0;
#X connect 9 0 8 0;
#X connect 10 0 15 0;
#X connect 13 0 15 3;
#X connect 14 0 3 0;
#X connect 15 0 0 0;
#X connect 15 1 1 0;
#X connect 16 0 17 0;
#X connect 17 0 18 0;
#X connect 18 0 15 1;
#X connect 19 0 20 0;
#X connect 20 0 21 0;
#X connect 21 0 15 2;
#X connect 22 0 16 0;
#X connect 22 0 19 0;
#X restore 240 253 pd Tinkerbell Values;
#X obj 789 267 bell;
#X obj 789 237 +;
#X obj 826 182 random 100;
#X obj 826 208 / 20;
#X obj 789 157 t f b;
#X obj 846 302 *~;
#X obj 945 301 *~;
#X obj 883 87 unpack f f f;
#X obj 924 164 random 100;
#X obj 924 190 / 100;
#X obj 924 217 - 1;
#X obj 924 246 * -1;
#X obj 1021 226 +;
#X obj 1058 171 random 100;
#X obj 1021 146 t f b;
#X obj 883 124 t f b;
#X obj 1058 197 / 400;
#X obj 557 393 random 8;
#X floatatom 557 420 5 0 0 0 - - -;
#X obj 557 444 + 1;
#X obj 557 471 * 100;
#X obj 557 499 + 1001;
#X msg 557 541 \$1 3.6 0.7;
#X floatatom 658 532 5 0 0 0 - - -;
#X obj 570 356 del 1500;
#X obj 667 126 random 100;
#X obj 667 153 moses 30;
#X obj 246 125 sel 1;
#X obj 231 55 t f f;
#X obj 570 129 random 100;
#X obj 570 153 + 100;
#X obj 570 315 t b f;
#X obj 667 313 del 1500;
#X obj 667 216 random 100;
#X obj 667 289 t b f;
#X obj 667 240 + 50;
#X obj 557 90 metro 3000;
#X floatatom 738 306 5 0 0 0 - - -;
#X obj 570 216 * 10;
#X obj 667 266 * 20;
#X obj 98 114 metro 1000;
#X floatatom 597 244 5 0 0 0 - - -;
#X obj 667 185 t b;
#X obj 234 11 loadbang;
#X obj 877 527 patchComs;
#X obj 877 561 switch~;
#X obj 87 302 TinkDelay;
#X obj 151 503 TinkDelay;
#X obj 172 707 TinkDelay;
#X obj 100 239 r~ \$0-FXinputR;
#X obj 73 204 r~ \$0-FXinputL;
#X obj 958 334 s~ \$0-FXinputR;
#X obj 772 354 s~ \$0-FXinputL;
#X obj 547 588 s \$0-bells;
#X obj 940 56 r \$0-bells;
#X obj 1015 396 catch~ \$0-FXoutputL;
#X obj 1050 427 catch~ \$0-FXoutputR;
#X obj 147 361 throw~ \$0-FXoutputR;
#X obj 88 335 throw~ \$0-FXoutputL;
#X obj 212 556 throw~ \$0-FXoutputR;
#X obj 152 530 throw~ \$0-FXoutputL;
#X obj 218 766 throw~ \$0-FXoutputR;
#X obj 158 740 throw~ \$0-FXoutputL;
#X obj 98 162 s \$0-delaytrig;
#X obj 244 209 r \$0-delaytrig;
#X obj 378 212 r \$0-delayreset;
#X obj 246 153 s \$0-delayreset;
#X obj 242 413 r \$0-delaytrig;
#X obj 376 411 r \$0-delayreset;
#X obj 121 450 r~ \$0-FXinputR;
#X obj 43 421 r~ \$0-FXinputL;
#X obj 247 599 r \$0-delaytrig;
#X obj 273 626 r \$0-delayreset;
#X obj 137 644 r~ \$0-FXinputR;
#X obj 59 615 r~ \$0-FXinputL;
#X obj 1007 257 bell;
#X obj 1000 457 *~ 0.4;
#X obj 1050 456 *~ 0.4;
#X obj 879 477 *~ 0.4;
#X obj 928 495 *~ 0.4;
#X connect 0 0 68 0;
#X connect 1 0 33 0;
#X connect 2 0 53 2;
#X connect 2 1 53 3;
#X connect 3 0 52 2;
#X connect 3 1 52 3;
#X connect 4 0 51 2;
#X connect 4 1 51 3;
#X connect 5 0 10 0;
#X connect 6 0 5 0;
#X connect 7 0 8 0;
#X connect 8 0 6 1;
#X connect 9 0 6 0;
#X connect 9 1 7 0;
#X connect 10 0 57 0;
#X connect 10 0 83 0;
#X connect 11 0 56 0;
#X connect 11 0 84 0;
#X connect 12 0 20 0;
#X connect 12 1 19 0;
#X connect 12 1 5 1;
#X connect 12 2 5 2;
#X connect 12 2 80 2;
#X connect 13 0 14 0;
#X connect 14 0 15 0;
#X connect 14 0 10 1;
#X connect 15 0 16 0;
#X connect 16 0 11 1;
#X connect 17 0 80 1;
#X connect 18 0 21 0;
#X connect 19 0 17 0;
#X connect 19 1 18 0;
#X connect 20 0 9 0;
#X connect 20 0 80 0;
#X connect 20 1 13 0;
#X connect 21 0 17 1;
#X connect 22 0 23 0;
#X connect 23 0 24 0;
#X connect 24 0 25 0;
#X connect 25 0 26 0;
#X connect 26 0 27 0;
#X connect 26 0 28 0;
#X connect 27 0 58 0;
#X connect 29 0 22 0;
#X connect 30 0 31 0;
#X connect 31 0 47 0;
#X connect 32 0 71 0;
#X connect 33 0 41 0;
#X connect 33 0 45 0;
#X connect 33 1 32 0;
#X connect 34 0 35 0;
#X connect 35 0 43 0;
#X connect 36 0 29 0;
#X connect 36 1 29 1;
#X connect 37 0 29 0;
#X connect 38 0 40 0;
#X connect 39 0 37 0;
#X connect 39 1 37 1;
#X connect 40 0 44 0;
#X connect 41 0 30 0;
#X connect 41 0 34 0;
#X connect 41 0 22 0;
#X connect 43 0 36 0;
#X connect 43 0 46 0;
#X connect 44 0 39 0;
#X connect 44 0 42 0;
#X connect 45 0 0 0;
#X connect 47 0 38 0;
#X connect 48 0 1 0;
#X connect 49 0 50 0;
#X connect 51 0 63 0;
#X connect 51 1 62 0;
#X connect 52 0 65 0;
#X connect 52 1 64 0;
#X connect 53 0 67 0;
#X connect 53 1 66 0;
#X connect 54 0 51 1;
#X connect 55 0 51 0;
#X connect 59 0 12 0;
#X connect 60 0 81 0;
#X connect 61 0 82 0;
#X connect 69 0 4 0;
#X connect 70 0 4 1;
#X connect 72 0 3 0;
#X connect 73 0 3 1;
#X connect 74 0 52 1;
#X connect 75 0 52 0;
#X connect 76 0 2 0;
#X connect 77 0 2 1;
#X connect 78 0 53 1;
#X connect 79 0 53 0;
#X connect 80 0 11 0;
#X connect 81 0 83 0;
#X connect 82 0 84 0;
#X connect 83 0 49 0;
#X connect 84 0 49 1;
