#N canvas 0 0 937 400 10;
#X obj 252 241 *~;
#X obj 252 163 *~ 1;
#X obj 104 164 /~ 2;
#X obj 612 227 *~;
#X obj 612 149 *~ 1;
#X obj 467 149 /~ 2;
#X obj 237 292 outlet~;
#X obj 591 279 outlet~;
#X obj 252 189 vd~ \$0-tinkdelayL;
#X obj 104 190 vd~ \$0-tinkdelayL;
#X obj 252 267 delwrite~ \$0-tinkdelayL 10000;
#X obj 467 175 vd~ \$0-tinkdelayR;
#X obj 612 175 vd~ \$0-tinkdelayR;
#X obj 612 253 delwrite~ \$0-tinkdelayR 10000;
#X obj 242 63 inlet~;
#X obj 6 190 inlet~;
#X obj 475 52 inlet~;
#X obj 372 51 inlet~;
#X connect 0 0 10 0;
#X connect 1 0 8 0;
#X connect 2 0 9 0;
#X connect 3 0 13 0;
#X connect 4 0 12 0;
#X connect 5 0 11 0;
#X connect 8 0 0 0;
#X connect 8 0 6 0;
#X connect 9 0 0 0;
#X connect 9 0 6 0;
#X connect 11 0 3 0;
#X connect 11 0 7 0;
#X connect 12 0 3 0;
#X connect 12 0 7 0;
#X connect 14 0 13 0;
#X connect 15 0 10 0;
#X connect 16 0 3 1;
#X connect 16 0 0 1;
#X connect 17 0 4 0;
#X connect 17 0 5 0;
#X connect 17 0 1 0;
#X connect 17 0 2 0;
