#N canvas 81 140 686 494 10;
#X obj 180 57 inlet;
#X obj 250 57 inlet;
#X obj 60 45 inlet;
#X text 189 81 x;
#X text 263 83 y;
#X obj 180 104 f \$1;
#X obj 250 104 f \$2;
#X obj 60 216 f;
#X obj 176 216 f \$3;
#X obj 229 216 f \$4;
#X obj 161 274 *;
#X obj 214 274 *;
#X text 182 192 a;
#X text 237 196 b;
#X obj 60 242 t f f;
#X obj 112 216 f;
#X obj 112 242 t f f;
#X obj 161 310 +;
#X obj 60 360 +;
#X floatatom 60 408 5 0 0 0 - - -;
#X obj 299 212 f;
#X obj 299 270 *;
#X obj 400 270 *;
#X obj 453 270 *;
#X obj 299 238 t f f;
#X obj 351 212 f;
#X obj 351 238 t f f;
#X obj 400 306 +;
#X obj 299 356 +;
#X floatatom 299 406 5 0 0 0 - - -;
#X obj 299 306 * 2;
#X text 426 189 c;
#X text 477 192 d;
#X obj 60 177 t b b b b;
#X obj 299 181 t b b b b;
#X obj 60 76 t b b;
#X obj 60 443 outlet;
#X obj 299 439 outlet;
#X obj 60 310 -;
#X obj 415 212 f \$5;
#X obj 468 212 f \$6;
#X obj 117 43 bng 15 250 50 0 empty empty empty 17 7 0 10 -262144 -1
-1;
#X obj 310 384 s \$0_yreturn;
#X obj 69 386 s \$0_xreturn;
#X obj 311 64 r \$0_yreturn;
#X obj 228 36 r \$0_xreturn;
#X obj 60 274 *;
#X obj 112 274 *;
#X obj 416 78 inlet;
#X obj 379 135 f \$1;
#X obj 436 135 f \$2;
#X obj 416 102 bng 15 250 50 0 empty empty empty 17 7 0 10 -262144
-1 -1;
#X connect 0 0 5 0;
#X connect 1 0 6 0;
#X connect 2 0 35 0;
#X connect 5 0 7 1;
#X connect 5 0 20 1;
#X connect 6 0 15 1;
#X connect 6 0 25 1;
#X connect 7 0 14 0;
#X connect 8 0 10 1;
#X connect 9 0 11 1;
#X connect 10 0 17 0;
#X connect 11 0 17 1;
#X connect 14 0 46 0;
#X connect 14 1 10 0;
#X connect 14 1 46 1;
#X connect 15 0 16 0;
#X connect 16 0 47 0;
#X connect 16 1 11 0;
#X connect 16 1 47 1;
#X connect 17 0 18 1;
#X connect 18 0 19 0;
#X connect 18 0 43 0;
#X connect 19 0 36 0;
#X connect 20 0 24 0;
#X connect 21 0 30 0;
#X connect 22 0 27 0;
#X connect 23 0 27 1;
#X connect 24 0 21 0;
#X connect 24 1 22 0;
#X connect 25 0 26 0;
#X connect 26 0 21 1;
#X connect 26 1 23 0;
#X connect 27 0 28 1;
#X connect 28 0 29 0;
#X connect 28 0 42 0;
#X connect 29 0 37 0;
#X connect 30 0 28 0;
#X connect 33 0 7 0;
#X connect 33 1 15 0;
#X connect 33 2 8 0;
#X connect 33 3 9 0;
#X connect 34 0 20 0;
#X connect 34 1 25 0;
#X connect 34 2 39 0;
#X connect 34 3 40 0;
#X connect 35 0 33 0;
#X connect 35 0 34 0;
#X connect 35 1 6 0;
#X connect 35 1 5 0;
#X connect 38 0 18 0;
#X connect 39 0 22 1;
#X connect 40 0 23 1;
#X connect 41 0 35 0;
#X connect 44 0 6 1;
#X connect 45 0 5 1;
#X connect 46 0 38 0;
#X connect 47 0 38 1;
#X connect 48 0 51 0;
#X connect 49 0 5 1;
#X connect 50 0 6 1;
#X connect 51 0 50 0;
#X connect 51 0 49 0;
