#N canvas 2235 155 726 684 10;
#X obj 91 119 noise~;
#X obj 70 147 snapshot~;
#X obj 148 147 snapshot~;
#X obj 225 147 snapshot~;
#X obj 148 93 del 10;
#X obj 70 65 bng 15 250 50 0 empty empty empty 17 7 0 10 -262144 -1
-1;
#X obj 70 207 line~;
#X obj 70 167 + 1;
#X obj 148 227 line~;
#X obj 225 247 line~;
#X obj 587 265 sig~ 0.3;
#X obj 587 304 phasor~;
#X obj 225 167 + 1;
#X obj 318 201 sig~ 0.3;
#X obj 318 230 phasor~;
#X obj 391 320 +~ 300;
#X obj 280 310 *~ 0.3;
#X obj 70 20 tgl 15 0 empty empty empty 17 7 0 10 -262144 -1 -1 1 1
;
#X obj 318 255 *~ 1;
#X obj 497 273 osc~ 0.2;
#X obj 445 369 squarevoice;
#X floatatom 522 249 5 0 0 0 - - -;
#X obj 497 168 random 300;
#X obj 497 192 + 100;
#X obj 497 219 / 300;
#X obj 497 137 loadbang;
#X floatatom 612 242 5 0 0 0 - - -;
#X obj 587 185 + 100;
#X obj 587 161 random 100;
#X obj 587 212 / 500;
#X obj 446 397 *~ 50;
#X obj 70 41 metro 20000;
#X msg 70 187 \$1 5000;
#X msg 148 207 \$1 3000;
#X msg 225 227 \$1 7000;
#X obj 70 -3 loadbang;
#X obj 217 384 sinvoice;
#X obj 225 125 del 7000;
#X floatatom 327 180 5 0 0 0 - - -;
#X obj 318 117 random 300;
#X obj 318 97 loadbang;
#X obj 318 137 + 10;
#X obj 318 157 / 700;
#X obj 225 207 + 100;
#X obj 121 308 *~ 0.75;
#X obj 392 292 *~ 40;
#X obj 408 371 /~ 3;
#N canvas 0 0 503 370 volumeLFOs 0;
#X obj 77 192 osc~;
#X floatatom 119 167 5 0 0 0 - - -;
#X obj 206 70 random 300;
#X obj 206 45 loadbang;
#X obj 166 198 osc~;
#X floatatom 208 173 5 0 0 0 - - -;
#X obj 256 203 osc~;
#X floatatom 298 178 5 0 0 0 - - -;
#X obj 353 211 osc~;
#X floatatom 395 186 5 0 0 0 - - -;
#X obj 353 134 + 100;
#X obj 256 148 / 789;
#X obj 166 143 / 688;
#X obj 77 137 / 890;
#X obj 353 156 / 787;
#X obj 77 115 + 40;
#X obj 256 126 + 30;
#X obj 25 177 inlet~;
#X obj 111 209 inlet~;
#X obj 211 221 inlet~;
#X obj 295 226 inlet~;
#X obj 55 254 *~;
#X obj 136 251 *~;
#X obj 236 256 *~;
#X obj 318 262 *~;
#X obj 44 296 outlet~;
#X obj 134 295 outlet~;
#X obj 234 300 outlet~;
#X obj 314 304 outlet~;
#X connect 0 0 21 1;
#X connect 2 0 10 0;
#X connect 2 0 12 0;
#X connect 2 0 15 0;
#X connect 2 0 16 0;
#X connect 3 0 2 0;
#X connect 4 0 22 1;
#X connect 6 0 23 1;
#X connect 8 0 24 1;
#X connect 10 0 14 0;
#X connect 11 0 7 0;
#X connect 11 0 6 0;
#X connect 12 0 5 0;
#X connect 12 0 4 0;
#X connect 13 0 1 0;
#X connect 13 0 0 0;
#X connect 14 0 9 0;
#X connect 14 0 8 0;
#X connect 15 0 13 0;
#X connect 16 0 11 0;
#X connect 17 0 21 0;
#X connect 18 0 22 0;
#X connect 19 0 23 0;
#X connect 20 0 24 0;
#X connect 21 0 25 0;
#X connect 22 0 26 0;
#X connect 23 0 27 0;
#X connect 24 0 28 0;
#X restore 164 451 pd volumeLFOs;
#N canvas 316 74 450 300 panning 0;
#X obj 66 98 inlet~;
#X obj 143 91 inlet~;
#X obj 213 93 inlet~;
#X obj 282 91 inlet~;
#X obj 140 223 outlet~;
#X obj 202 221 outlet~;
#X obj 65 130 voicepan;
#X obj 142 123 voicepan;
#X obj 212 125 voicepan;
#X obj 281 123 voicepan;
#X connect 0 0 6 0;
#X connect 1 0 7 0;
#X connect 2 0 8 0;
#X connect 3 0 9 0;
#X connect 6 0 4 0;
#X connect 6 1 5 0;
#X connect 7 0 4 0;
#X connect 7 1 5 0;
#X connect 8 0 4 0;
#X connect 8 1 5 0;
#X connect 9 0 4 0;
#X connect 9 1 5 0;
#X restore 180 504 pd panning;
#X obj 136 263 vd~ \$0-delay1;
#X obj 443 496 delwrite~ \$0-delay1 10000;
#X obj 58 378 squarevoice;
#X obj 444 461 squarevoice;
#X obj 217 412 *~ 0.7;
#X obj 155 413 *~ 0.7;
#X obj 58 406 hip~ 2000;
#X obj 74 437 *~ 0.6;
#X obj 225 187 * 10;
#X obj 148 167 * 500;
#X obj 148 187 + 700;
#X obj 553 375 *~ 0.5;
#X obj 183 310 *~ 0.5;
#X obj 171 538 *~ 0.7;
#X obj 231 538 *~ 0.7;
#X obj 174 620 switch~;
#X obj 173 573 patchComs;
#X connect 0 0 1 0;
#X connect 0 0 2 0;
#X connect 0 0 3 0;
#X connect 1 0 7 0;
#X connect 2 0 58 0;
#X connect 3 0 12 0;
#X connect 4 0 2 0;
#X connect 4 0 37 0;
#X connect 5 0 4 0;
#X connect 5 0 1 0;
#X connect 6 0 51 2;
#X connect 7 0 32 0;
#X connect 8 0 49 0;
#X connect 9 0 36 0;
#X connect 9 0 44 0;
#X connect 10 0 11 0;
#X connect 11 0 20 2;
#X connect 11 0 60 0;
#X connect 12 0 57 0;
#X connect 13 0 14 0;
#X connect 14 0 18 0;
#X connect 15 0 46 0;
#X connect 15 0 20 0;
#X connect 16 0 36 1;
#X connect 17 0 31 0;
#X connect 18 0 16 0;
#X connect 18 0 45 0;
#X connect 19 0 20 1;
#X connect 19 0 52 2;
#X connect 20 0 30 0;
#X connect 22 0 23 0;
#X connect 23 0 24 0;
#X connect 24 0 19 0;
#X connect 24 0 21 0;
#X connect 25 0 22 0;
#X connect 25 0 28 0;
#X connect 27 0 29 0;
#X connect 28 0 27 0;
#X connect 29 0 26 0;
#X connect 29 0 10 0;
#X connect 30 0 52 0;
#X connect 31 0 5 0;
#X connect 32 0 6 0;
#X connect 33 0 8 0;
#X connect 34 0 9 0;
#X connect 35 0 17 0;
#X connect 36 0 53 0;
#X connect 37 0 3 0;
#X connect 39 0 41 0;
#X connect 40 0 39 0;
#X connect 41 0 42 0;
#X connect 42 0 38 0;
#X connect 42 0 13 0;
#X connect 43 0 34 0;
#X connect 44 0 51 0;
#X connect 45 0 15 0;
#X connect 46 0 52 0;
#X connect 47 0 48 0;
#X connect 47 1 48 1;
#X connect 47 2 48 2;
#X connect 47 3 48 3;
#X connect 48 0 62 0;
#X connect 48 1 63 0;
#X connect 49 0 54 0;
#X connect 49 0 61 0;
#X connect 51 0 55 0;
#X connect 52 0 50 0;
#X connect 53 0 47 2;
#X connect 54 0 47 1;
#X connect 55 0 56 0;
#X connect 56 0 47 0;
#X connect 57 0 43 0;
#X connect 58 0 59 0;
#X connect 59 0 33 0;
#X connect 60 0 52 1;
#X connect 61 0 20 1;
#X connect 61 0 51 1;
#X connect 62 0 65 0;
#X connect 63 0 65 1;
#X connect 65 0 64 0;
