#N canvas 610 159 450 300 10;
#X obj 219 70 osc~;
#X obj 48 25 inlet~;
#X obj 48 264 outlet~;
#X obj 48 148 *~;
#X obj 222 30 inlet~;
#X text 96 25 Main Frequency;
#X text 273 26 Amplitude Mod;
#X obj 48 62 osc~;
#X obj 95 69 *~ 2;
#X obj 94 104 osc~;
#X obj 47 187 *~ 0.7;
#X obj 48 235 clip~ -0.8 0.5;
#X connect 0 0 3 1;
#X connect 1 0 7 0;
#X connect 1 0 8 0;
#X connect 3 0 10 0;
#X connect 4 0 0 0;
#X connect 7 0 3 0;
#X connect 8 0 9 0;
#X connect 9 0 10 0;
#X connect 10 0 11 0;
#X connect 11 0 2 0;
