#N canvas 354 181 352 437 10;
#X obj 67 189 inlet~;
#X obj 138 138 osc~;
#X obj 139 204 +~ 0.5;
#X obj 156 237 -~ 1;
#X obj 156 264 *~ -1;
#X obj 72 288 *~;
#X obj 136 298 *~;
#X obj 59 348 outlet~;
#X obj 131 352 outlet~;
#X obj 139 59 random 300;
#X obj 139 34 loadbang;
#X obj 139 108 / 789;
#X obj 139 86 + 30;
#X obj 139 169 *~ 0.75;
#X connect 0 0 5 0;
#X connect 0 0 6 0;
#X connect 1 0 13 0;
#X connect 2 0 3 0;
#X connect 2 0 5 1;
#X connect 3 0 4 0;
#X connect 4 0 6 1;
#X connect 5 0 7 0;
#X connect 6 0 8 0;
#X connect 9 0 12 0;
#X connect 10 0 9 0;
#X connect 11 0 1 0;
#X connect 12 0 11 0;
#X connect 13 0 2 0;
