#N canvas 332 46 756 754 10;
#X obj 44 169 bng 15 250 50 0 empty empty empty 0 -6 0 8 -262144 -1
-1;
#X obj 248 169 tgl 15 0 empty empty empty 0 -6 0 8 -262144 -1 -1 0
1;
#X obj 270 169 tgl 15 0 empty empty empty 0 -6 0 8 -262144 -1 -1 0
1;
#X obj 315 169 tgl 15 0 empty empty empty 0 -6 0 8 -262144 -1 -1 1
1;
#X obj 293 169 tgl 15 0 empty empty empty 0 -6 0 8 -262144 -1 -1 0
1;
#X obj 383 169 tgl 15 0 empty empty empty 0 -6 0 8 -262144 -1 -1 0
1;
#X obj 405 169 tgl 15 0 empty empty empty 0 -6 0 8 -262144 -1 -1 1
1;
#X obj 360 169 tgl 15 0 empty empty empty 0 -6 0 8 -262144 -1 -1 0
1;
#X obj 338 169 tgl 15 0 empty empty empty 0 -6 0 8 -262144 -1 -1 0
1;
#X obj 158 169 tgl 15 0 empty empty empty 0 -6 0 8 -262144 -1 -1 0
1;
#X obj 180 169 tgl 15 0 empty empty empty 0 -6 0 8 -262144 -1 -1 0
1;
#X obj 225 169 tgl 15 0 empty empty empty 0 -6 0 8 -262144 -1 -1 1
1;
#X obj 203 169 tgl 15 0 empty empty empty 0 -6 0 8 -262144 -1 -1 1
1;
#X obj 113 169 tgl 15 0 empty empty empty 0 -6 0 8 -262144 -1 -1 1
1;
#X obj 135 169 tgl 15 0 empty empty empty 0 -6 0 8 -262144 -1 -1 1
1;
#X obj 90 169 tgl 15 0 empty empty empty 0 -6 0 8 -262144 -1 -1 0 1
;
#X obj 68 169 tgl 15 0 empty empty empty 0 -6 0 8 -262144 -1 -1 1 1
;
#X obj 68 195 pack 0 0 0 0 0 0 0 0 0 0 0 0 0 0 0 0;
#X obj 68 90 bng 15 250 50 0 empty empty empty 0 -6 0 8 -262144 -1
-1;
#X obj 68 115 random 16;
#X obj 270 139 sel 8 9 10 11 12 13 14 15;
#X obj 68 139 sel 0 1 2 3 4 5 6 7;
#N canvas 196 256 511 399 init-pattern 0;
#X obj 204 355 outlet;
#X obj 225 355 outlet;
#X obj 268 356 outlet;
#X obj 246 356 outlet;
#X obj 331 357 outlet;
#X obj 353 357 outlet;
#X obj 310 356 outlet;
#X obj 289 356 outlet;
#X obj 119 354 outlet;
#X obj 140 354 outlet;
#X obj 183 355 outlet;
#X obj 161 355 outlet;
#X obj 76 354 outlet;
#X obj 98 354 outlet;
#X obj 55 353 outlet;
#X obj 34 325 unpack 0 0 0 0 0 0 0 0 0 0 0 0 0 0 0 0;
#X obj 34 353 outlet;
#X obj 34 257 pack 0 0 0 0 0 0 0 0 0 0 0 0 0 0 0 0;
#X obj 56 75 random 2;
#X obj 66 85 random 2;
#X obj 76 95 random 2;
#X obj 86 105 random 2;
#X obj 96 115 random 2;
#X obj 106 125 random 2;
#X obj 117 133 random 2;
#X obj 126 145 random 2;
#X obj 136 155 random 2;
#X obj 146 165 random 2;
#X obj 156 175 random 2;
#X obj 166 185 random 2;
#X obj 176 195 random 2;
#X obj 186 205 random 2;
#X obj 196 215 random 2;
#X obj 206 225 random 2;
#X msg 34 280 set \$1 \$2 \$3 \$4 \$5 \$6 \$7 \$8 \$9 \$10 \$11 \$12
\$13 \$14 \$15 \$16;
#X msg 34 303 1 1 1 1 1 0 1 1 0 1 0 1 0 1 1 0;
#X text 274 99 this could be way more elegant...;
#X obj 234 6 loadbang;
#X obj 234 26 bng 15 250 50 0 empty empty empty 17 7 0 10 -262144 -1
-1;
#X obj 56 55 del 1;
#X obj -5 258 del 1;
#X connect 15 0 16 0;
#X connect 15 1 14 0;
#X connect 15 2 12 0;
#X connect 15 3 13 0;
#X connect 15 4 8 0;
#X connect 15 5 9 0;
#X connect 15 6 11 0;
#X connect 15 7 10 0;
#X connect 15 8 0 0;
#X connect 15 9 1 0;
#X connect 15 10 3 0;
#X connect 15 11 2 0;
#X connect 15 12 7 0;
#X connect 15 13 6 0;
#X connect 15 14 4 0;
#X connect 15 15 5 0;
#X connect 17 0 34 0;
#X connect 18 0 17 0;
#X connect 19 0 17 1;
#X connect 20 0 17 2;
#X connect 21 0 17 3;
#X connect 22 0 17 4;
#X connect 23 0 17 5;
#X connect 24 0 17 6;
#X connect 25 0 17 7;
#X connect 26 0 17 8;
#X connect 27 0 17 9;
#X connect 28 0 17 10;
#X connect 29 0 17 11;
#X connect 30 0 17 12;
#X connect 31 0 17 13;
#X connect 32 0 17 14;
#X connect 33 0 17 15;
#X connect 34 0 35 0;
#X connect 35 0 15 0;
#X connect 37 0 38 0;
#X connect 38 0 33 0;
#X connect 38 0 32 0;
#X connect 38 0 31 0;
#X connect 38 0 30 0;
#X connect 38 0 28 0;
#X connect 38 0 29 0;
#X connect 38 0 27 0;
#X connect 38 0 26 0;
#X connect 38 0 19 0;
#X connect 38 0 20 0;
#X connect 38 0 21 0;
#X connect 38 0 22 0;
#X connect 38 0 23 0;
#X connect 38 0 24 0;
#X connect 38 0 25 0;
#X connect 38 0 39 0;
#X connect 39 0 18 0;
#X connect 39 0 40 0;
#X connect 40 0 35 0;
#X restore 145 115 pd init-pattern;
#X obj 68 218 list prepend 0;
#X obj 66 280 table \$0-seq 16;
#X obj 68 247 s \$0-seq;
#X text 188 24 Based on 16step-seq by Karlheinz Essel/Frank Barknecht
;
#X obj 479 223 f;
#X obj 505 224 + 1;
#X obj 532 224 mod 16;
#X obj 479 250 tabread \$0-seq;
#X obj 479 316 bng 15 250 50 0 empty empty empty 17 7 0 10 -262144
-1 -1;
#X obj 481 552 vline~;
#X obj 265 539 *~;
#X obj 606 226 + 1;
#X obj 479 294 sel 1;
#X obj 580 225 f;
#X obj 520 294 sel 0;
#X obj 406 626 * 0.01;
#X obj 406 649 * -1;
#X obj 406 606 random 100;
#X obj 264 669 *~ 0;
#X obj 366 706 *~ 0;
#X floatatom 459 647 5 0 0 0 - - -;
#X obj 479 195 inlet;
#X obj 331 489 noise~;
#X obj 378 482 sig~;
#X obj 378 459 mtof;
#X obj 359 509 vcf~ 96;
#X floatatom 628 256 5 0 0 0 - - -;
#X obj 523 436 *;
#X obj 515 392 t b f;
#X obj 515 371 + 1;
#X obj 501 414 f;
#X obj 378 391 random 75;
#X obj 515 349 random 6;
#X obj 264 589 lop~;
#X obj 253 347 random 1000;
#X obj 264 610 hip~;
#X obj 282 373 random 10000;
#X obj 264 560 clip~ -0.5 0.5;
#X msg 480 524 50 \, 0 \$1;
#X obj 222 413 osc~;
#X obj 633 225 mod 2;
#X obj 580 247 sel 1;
#X obj 380 332 bng 15 250 50 0 empty empty empty 17 7 0 10 -262144
-1 -1;
#X obj 300 268 loadbang;
#X obj 393 275 + 1;
#X obj 367 274 f;
#X floatatom 415 305 5 0 0 0 - - -;
#X obj 420 274 mod 65;
#X obj 367 296 sel 64;
#X obj 378 435 line;
#X obj 378 412 pack 0 1000;
#X obj 264 637 *~ 5;
#X obj 439 391 * 0.5;
#X obj 515 708 outlet~ rev;
#X obj 515 688 *~ 0;
#X obj 255 710 outlet~;
#X obj 366 727 outlet~;
#X obj 582 641 * 0.01;
#X obj 515 661 hip~;
#X obj 600 434 random 1000;
#X obj 582 621 random 50;
#X obj 479 492 pack;
#X obj 455 444 random 10;
#X obj 540 462 random 3;
#X obj 535 486 +;
#X obj 456 465 + 40;
#X obj 587 403 + 30;
#X obj 587 383 random 11;
#X obj 222 434 *~ 0.1;
#X connect 0 0 17 0;
#X connect 1 0 17 8;
#X connect 2 0 17 9;
#X connect 3 0 17 11;
#X connect 4 0 17 10;
#X connect 5 0 17 14;
#X connect 6 0 17 15;
#X connect 7 0 17 13;
#X connect 8 0 17 12;
#X connect 9 0 17 4;
#X connect 10 0 17 5;
#X connect 11 0 17 7;
#X connect 12 0 17 6;
#X connect 13 0 17 2;
#X connect 14 0 17 3;
#X connect 15 0 17 1;
#X connect 16 0 17 0;
#X connect 17 0 23 0;
#X connect 18 0 0 0;
#X connect 18 0 19 0;
#X connect 19 0 21 0;
#X connect 20 0 1 0;
#X connect 20 1 2 0;
#X connect 20 2 4 0;
#X connect 20 3 3 0;
#X connect 20 4 8 0;
#X connect 20 5 7 0;
#X connect 20 6 5 0;
#X connect 20 7 6 0;
#X connect 21 0 16 0;
#X connect 21 1 15 0;
#X connect 21 2 13 0;
#X connect 21 3 14 0;
#X connect 21 4 9 0;
#X connect 21 5 10 0;
#X connect 21 6 12 0;
#X connect 21 7 11 0;
#X connect 21 8 20 0;
#X connect 22 0 16 0;
#X connect 22 1 15 0;
#X connect 22 2 13 0;
#X connect 22 3 14 0;
#X connect 22 4 9 0;
#X connect 22 5 10 0;
#X connect 22 6 12 0;
#X connect 22 7 11 0;
#X connect 22 8 1 0;
#X connect 22 9 2 0;
#X connect 22 10 4 0;
#X connect 22 11 3 0;
#X connect 22 12 8 0;
#X connect 22 13 7 0;
#X connect 22 14 5 0;
#X connect 22 15 6 0;
#X connect 23 0 25 0;
#X connect 27 0 28 0;
#X connect 27 0 30 0;
#X connect 27 0 37 0;
#X connect 28 0 29 0;
#X connect 29 0 27 1;
#X connect 30 0 35 0;
#X connect 31 0 68 0;
#X connect 31 0 85 0;
#X connect 31 0 86 0;
#X connect 32 0 33 1;
#X connect 33 0 60 0;
#X connect 34 0 63 0;
#X connect 35 0 31 0;
#X connect 36 0 34 0;
#X connect 36 0 49 0;
#X connect 36 0 64 0;
#X connect 37 0 36 0;
#X connect 38 0 39 0;
#X connect 38 0 41 1;
#X connect 38 0 43 0;
#X connect 39 0 42 1;
#X connect 40 0 38 0;
#X connect 41 0 42 0;
#X connect 41 0 78 0;
#X connect 42 0 79 0;
#X connect 44 0 27 0;
#X connect 45 0 48 0;
#X connect 46 0 48 1;
#X connect 47 0 46 0;
#X connect 47 0 62 0;
#X connect 48 0 33 0;
#X connect 50 0 87 1;
#X connect 51 0 53 0;
#X connect 51 1 50 1;
#X connect 52 0 51 0;
#X connect 52 0 53 0;
#X connect 53 0 50 0;
#X connect 54 0 73 0;
#X connect 55 0 52 0;
#X connect 56 0 58 0;
#X connect 57 0 56 1;
#X connect 57 0 75 0;
#X connect 58 0 74 0;
#X connect 59 0 58 1;
#X connect 60 0 56 0;
#X connect 61 0 32 0;
#X connect 62 0 91 0;
#X connect 63 0 36 1;
#X connect 64 0 18 0;
#X connect 65 0 54 0;
#X connect 65 0 55 0;
#X connect 65 0 57 0;
#X connect 65 0 59 0;
#X connect 65 0 82 0;
#X connect 65 0 83 0;
#X connect 65 0 90 0;
#X connect 66 0 65 0;
#X connect 66 0 40 0;
#X connect 67 0 70 0;
#X connect 68 0 67 0;
#X connect 68 0 69 0;
#X connect 68 0 71 0;
#X connect 70 0 68 1;
#X connect 71 0 65 0;
#X connect 72 0 47 0;
#X connect 73 0 72 0;
#X connect 74 0 41 0;
#X connect 74 0 81 0;
#X connect 75 0 73 1;
#X connect 77 0 76 0;
#X connect 80 0 77 1;
#X connect 81 0 77 0;
#X connect 82 0 81 1;
#X connect 83 0 80 0;
#X connect 84 0 61 0;
#X connect 85 0 88 0;
#X connect 86 0 87 0;
#X connect 87 0 84 1;
#X connect 88 0 84 0;
#X connect 89 0 88 1;
#X connect 90 0 89 0;
#X connect 91 0 33 0;
