#N canvas 60 63 348 535 10;
#X obj 27 39 s \$0-bangeth;
#X obj 27 -6 tgl 15 0 empty empty empty 17 7 0 10 -262144 -1 -1 1 1
;
#N canvas 0 22 821 444 bangsssss 0;
#X obj 31 73 throw~ \$0-saywhaaaat;
#X obj 9 53 throw~ \$0-nowaaaaaay;
#X obj 9 12 r \$0-bangeth;
#X obj 53 93 throw~ \$0-bedyinouthere;
#X obj 30 174 throw~ \$0-saywhaaaat;
#X obj 8 154 throw~ \$0-nowaaaaaay;
#X obj 8 113 r \$0-bangeth;
#X obj 52 194 throw~ \$0-bedyinouthere;
#X obj 230 71 throw~ \$0-saywhaaaat;
#X obj 208 51 throw~ \$0-nowaaaaaay;
#X obj 208 10 r \$0-bangeth;
#X obj 252 91 throw~ \$0-bedyinouthere;
#X obj 229 172 throw~ \$0-saywhaaaat;
#X obj 207 152 throw~ \$0-nowaaaaaay;
#X obj 207 111 r \$0-bangeth;
#X obj 251 192 throw~ \$0-bedyinouthere;
#X obj 423 70 throw~ \$0-saywhaaaat;
#X obj 401 50 throw~ \$0-nowaaaaaay;
#X obj 401 9 r \$0-bangeth;
#X obj 445 90 throw~ \$0-bedyinouthere;
#X obj 422 171 throw~ \$0-saywhaaaat;
#X obj 400 151 throw~ \$0-nowaaaaaay;
#X obj 400 110 r \$0-bangeth;
#X obj 444 191 throw~ \$0-bedyinouthere;
#X obj 622 68 throw~ \$0-saywhaaaat;
#X obj 600 48 throw~ \$0-nowaaaaaay;
#X obj 600 7 r \$0-bangeth;
#X obj 644 88 throw~ \$0-bedyinouthere;
#X obj 621 169 throw~ \$0-saywhaaaat;
#X obj 599 149 throw~ \$0-nowaaaaaay;
#X obj 599 108 r \$0-bangeth;
#X obj 643 189 throw~ \$0-bedyinouthere;
#X obj 38 284 throw~ \$0-saywhaaaat;
#X obj 16 264 throw~ \$0-nowaaaaaay;
#X obj 16 223 r \$0-bangeth;
#X obj 60 304 throw~ \$0-bedyinouthere;
#X obj 37 385 throw~ \$0-saywhaaaat;
#X obj 15 365 throw~ \$0-nowaaaaaay;
#X obj 15 324 r \$0-bangeth;
#X obj 59 405 throw~ \$0-bedyinouthere;
#X obj 237 282 throw~ \$0-saywhaaaat;
#X obj 215 262 throw~ \$0-nowaaaaaay;
#X obj 215 221 r \$0-bangeth;
#X obj 259 302 throw~ \$0-bedyinouthere;
#X obj 236 383 throw~ \$0-saywhaaaat;
#X obj 214 363 throw~ \$0-nowaaaaaay;
#X obj 214 322 r \$0-bangeth;
#X obj 258 403 throw~ \$0-bedyinouthere;
#X obj 430 281 throw~ \$0-saywhaaaat;
#X obj 408 261 throw~ \$0-nowaaaaaay;
#X obj 408 220 r \$0-bangeth;
#X obj 452 301 throw~ \$0-bedyinouthere;
#X obj 429 382 throw~ \$0-saywhaaaat;
#X obj 407 362 throw~ \$0-nowaaaaaay;
#X obj 407 321 r \$0-bangeth;
#X obj 451 402 throw~ \$0-bedyinouthere;
#X obj 629 279 throw~ \$0-saywhaaaat;
#X obj 607 259 throw~ \$0-nowaaaaaay;
#X obj 607 218 r \$0-bangeth;
#X obj 651 299 throw~ \$0-bedyinouthere;
#X obj 628 380 throw~ \$0-saywhaaaat;
#X obj 606 360 throw~ \$0-nowaaaaaay;
#X obj 606 319 r \$0-bangeth;
#X obj 650 400 throw~ \$0-bedyinouthere;
#X obj 9 33 bangable;
#X obj 16 244 bangable;
#X obj 8 134 bangable;
#X obj 208 31 bangable;
#X obj 207 132 bangable;
#X obj 401 30 bangable;
#X obj 400 131 bangable;
#X obj 600 28 bangable;
#X obj 599 129 bangable;
#X obj 15 345 bangable;
#X obj 215 242 bangable;
#X obj 214 343 bangable;
#X obj 408 241 bangable;
#X obj 407 342 bangable;
#X obj 607 239 bangable;
#X obj 606 340 bangable;
#X connect 2 0 64 0;
#X connect 6 0 66 0;
#X connect 10 0 67 0;
#X connect 14 0 68 0;
#X connect 18 0 69 0;
#X connect 22 0 70 0;
#X connect 26 0 71 0;
#X connect 30 0 72 0;
#X connect 34 0 65 0;
#X connect 38 0 73 0;
#X connect 42 0 74 0;
#X connect 46 0 75 0;
#X connect 50 0 76 0;
#X connect 54 0 77 0;
#X connect 58 0 78 0;
#X connect 62 0 79 0;
#X connect 64 0 1 0;
#X connect 64 1 0 0;
#X connect 64 2 3 0;
#X connect 65 0 33 0;
#X connect 65 1 32 0;
#X connect 65 2 35 0;
#X connect 66 0 5 0;
#X connect 66 1 4 0;
#X connect 66 2 7 0;
#X connect 67 0 9 0;
#X connect 67 1 8 0;
#X connect 67 2 11 0;
#X connect 68 0 13 0;
#X connect 68 1 12 0;
#X connect 68 2 15 0;
#X connect 69 0 17 0;
#X connect 69 1 16 0;
#X connect 69 2 19 0;
#X connect 70 0 21 0;
#X connect 70 1 20 0;
#X connect 70 2 23 0;
#X connect 71 0 25 0;
#X connect 71 1 24 0;
#X connect 71 2 27 0;
#X connect 72 0 29 0;
#X connect 72 1 28 0;
#X connect 72 2 31 0;
#X connect 73 0 37 0;
#X connect 73 1 36 0;
#X connect 73 2 39 0;
#X connect 74 0 41 0;
#X connect 74 1 40 0;
#X connect 74 2 43 0;
#X connect 75 0 45 0;
#X connect 75 1 44 0;
#X connect 75 2 47 0;
#X connect 76 0 49 0;
#X connect 76 1 48 0;
#X connect 76 2 51 0;
#X connect 77 0 53 0;
#X connect 77 1 52 0;
#X connect 77 2 55 0;
#X connect 78 0 57 0;
#X connect 78 1 56 0;
#X connect 78 2 59 0;
#X connect 79 0 61 0;
#X connect 79 1 60 0;
#X connect 79 2 63 0;
#X restore 27 61 pd bangsssss;
#N canvas 672 186 315 344 workit 0;
#X obj 67 307 outlet;
#X floatatom 67 148 5 0 0 0 - - -;
#X obj 67 103 random 100;
#X obj 67 250 line;
#X obj 67 274 + 100;
#X obj 67 227 pack 0 10000;
#X obj 66 19 loadbang;
#X obj 67 127 * 0.2;
#X obj 134 102 random 2;
#X obj 135 124 sel 0 1;
#X msg 134 144 -1;
#X msg 162 145 1;
#X obj 67 195 *;
#X obj 66 81 metro 20000;
#X obj 154 54 + 10000;
#X obj 154 15 random 10000;
#X obj 154 35 * 2;
#X connect 1 0 12 0;
#X connect 2 0 7 0;
#X connect 3 0 4 0;
#X connect 4 0 0 0;
#X connect 5 0 3 0;
#X connect 6 0 13 0;
#X connect 7 0 1 0;
#X connect 8 0 9 0;
#X connect 9 0 10 0;
#X connect 9 1 11 0;
#X connect 10 0 12 1;
#X connect 11 0 12 1;
#X connect 12 0 5 0;
#X connect 13 0 2 0;
#X connect 13 0 8 0;
#X connect 13 0 15 0;
#X connect 14 0 13 1;
#X connect 15 0 16 0;
#X connect 16 0 14 0;
#X restore 78 -11 pd workit;
#X obj 27 14 metro 100;
#X obj 162 330 catch~ \$0-saywhaaaat;
#X obj 27 129 catch~ \$0-nowaaaaaay;
#X obj 145 303 delread~ \$0-cassandrar 5;
#X floatatom 89 15 5 0 0 0 - - -;
#X obj 27 -36 loadbang;
#N canvas 0 22 174 165 bangsdist 0;
#X obj 33 130 throw~ \$0-saywhaaaat;
#X obj 12 109 throw~ \$0-nowaaaaaay;
#X obj 9 12 r \$0-bangeth;
#X obj 12 83 clip~ -0.25 0.25;
#X obj 12 60 *~ 500;
#X obj 9 33 bangable;
#X connect 2 0 5 0;
#X connect 3 0 1 0;
#X connect 3 0 0 0;
#X connect 4 0 3 0;
#X connect 5 0 4 0;
#X connect 5 1 4 0;
#X connect 5 2 4 0;
#X restore 27 85 pd bangsdist;
#X obj 155 351 delwrite~ \$0-cassandrar 100;
#N canvas 0 22 177 156 revery 0;
#X obj 29 110 throw~ \$0-saywhaaaat;
#X obj 7 90 throw~ \$0-nowaaaaaay;
#X obj 6 13 catch~ \$0-bedyinouthere;
#X obj 6 36 rev2~ 99 1 20000 100;
#X connect 2 0 3 0;
#X connect 3 1 0 0;
#X connect 3 1 1 0;
#X connect 3 2 1 0;
#X connect 3 3 1 0;
#X restore 27 107 pd revery;
#X obj 49 225 delwrite~ \$0-dashitall 200;
#X obj 124 272 vd~ \$0-dashitall 100;
#X obj 124 250 sig~;
#X obj 49 197 *~;
#X obj 85 201 *~;
#X obj 188 165 *~ -1;
#X obj 188 144 osc~;
#X obj 187 91 expr 1000/$f1;
#X obj 188 186 clip~ 0 1;
#X obj 128 164 clip~ 0 1;
#X obj 187 113 * 0.00195312;
#X obj 43 303 *~ 0.5;
#X obj 93 403 patchComs;
#X obj 93 427 switch~;
#X msg 145 22 \; pd dsp 1;
#X connect 1 0 4 0;
#X connect 3 0 4 1;
#X connect 3 0 8 0;
#X connect 4 0 0 0;
#X connect 5 0 11 0;
#X connect 6 0 16 0;
#X connect 6 0 17 0;
#X connect 7 0 25 1;
#X connect 8 0 15 0;
#X connect 8 0 20 0;
#X connect 9 0 1 0;
#X connect 9 0 27 0;
#X connect 14 0 24 0;
#X connect 14 0 25 0;
#X connect 15 0 14 0;
#X connect 16 0 13 0;
#X connect 17 0 25 0;
#X connect 18 0 21 0;
#X connect 19 0 18 0;
#X connect 19 0 22 0;
#X connect 20 0 23 0;
#X connect 21 0 17 1;
#X connect 22 0 16 1;
#X connect 23 0 19 0;
#X connect 24 0 11 0;
#X connect 25 0 26 0;
