#N canvas 0 11 1328 645 10;
#X obj 272 89 bng 15 250 50 0 empty empty empty 17 7 0 10 -262144 -1
-1;
#X obj 272 33 tgl 15 0 empty empty empty 17 7 0 10 -262144 -1 -1 1
1;
#X obj 563 171 line;
#X floatatom 563 244 5 0 0 0 - - -;
#X obj 413 400 simpleFMModule 1 0.5;
#X obj 272 167 * 1000;
#X obj 272 141 abs;
#X obj 563 196 abs;
#X floatatom 272 377 5 0 0 0 - - -;
#X obj 272 348 line;
#X msg 272 321 \$1 10000;
#X obj 272 115 TinkerbellEquations -0.72 -0.64 0.9 -0.6013 2 0.5;
#X msg 563 144 \$1 15000;
#X obj 272 283 spigot;
#X obj 325 283 spigot;
#X obj 305 232 tgl 15 0 empty empty empty 17 7 0 10 -262144 -1 -1 0
1;
#X obj 563 220 + 2;
#X obj 332 256 expr 1-$f1;
#X obj 272 206 t f b;
#X obj 272 401 simpleFMModule 1 0.5;
#X floatatom 413 374 5 0 0 0 - - -;
#X obj 413 345 line;
#X msg 413 318 \$1 10000;
#X obj 272 63 metro 15000;
#X obj 937 158 line;
#X floatatom 937 231 5 0 0 0 - - -;
#X obj 787 387 simpleFMModule 1 0.5;
#X obj 646 154 * 1000;
#X obj 646 128 abs;
#X obj 937 183 abs;
#X floatatom 646 364 5 0 0 0 - - -;
#X obj 646 335 line;
#X msg 646 308 \$1 10000;
#X msg 937 131 \$1 15000;
#X obj 646 270 spigot;
#X obj 699 270 spigot;
#X obj 679 219 tgl 15 0 empty empty empty 17 7 0 10 -262144 -1 -1 0
1;
#X obj 937 207 + 2;
#X obj 706 243 expr 1-$f1;
#X obj 646 193 t f b;
#X obj 646 388 simpleFMModule 1 0.5;
#X floatatom 787 361 5 0 0 0 - - -;
#X obj 787 332 line;
#X msg 787 305 \$1 10000;
#X obj 646 102 TinkerbellEquations -0.72 -0.64 0.9 -0.6013 2 0.51;
#X obj -99 145 TinkerbellEquations -0.72 -0.64 0.9 -0.6013 2 0.51;
#X obj 16 176 abs;
#X obj 16 202 / 2;
#X obj -156 462 delwrite~ TinkDelayL 7000;
#X obj 48 483 delwrite~ TinkDelayR 7000;
#X obj -128 396 *~;
#X obj 45 415 *~;
#X obj 17 437 r~ Reffects;
#X obj -118 422 r~ Leffects;
#X obj 127 110 bng 15 250 50 0 empty empty empty 17 7 0 10 -262144
-1 -1;
#X msg 16 227 \$1 3000;
#X obj -113 354 delread~ TinkDelayL 7000;
#X obj 57 375 delread~ TinkDelayR 7000;
#X obj -104 194 abs;
#X obj -104 220 / 2;
#X msg -104 245 \$1 3000;
#X obj 115 455 s~ fxRoutput;
#X obj -68 443 s~ fxLoutput;
#X obj 127 80 metro 10000;
#X obj 366 457 *~ 0.7;
#X obj 749 439 *~ 0.7;
#X obj 367 485 s~ Leffects;
#X obj 748 472 s~ Reffects;
#X obj 622 484 r~ fxRoutput;
#X obj 533 484 r~ fxLoutput;
#X obj 300 14 loadbang;
#X obj 16 253 line~;
#X obj -104 271 line~;
#X obj 593 530 patchComs;
#X obj 600 572 switch~;
#X connect 0 0 11 0;
#X connect 0 0 44 0;
#X connect 1 0 23 0;
#X connect 1 0 63 0;
#X connect 2 0 7 0;
#X connect 3 0 4 1;
#X connect 3 0 19 1;
#X connect 4 0 64 0;
#X connect 5 0 18 0;
#X connect 6 0 5 0;
#X connect 7 0 16 0;
#X connect 8 0 19 0;
#X connect 9 0 8 0;
#X connect 10 0 9 0;
#X connect 11 0 6 0;
#X connect 11 1 12 0;
#X connect 12 0 2 0;
#X connect 13 0 10 0;
#X connect 14 0 22 0;
#X connect 15 0 17 0;
#X connect 15 0 13 1;
#X connect 16 0 3 0;
#X connect 17 0 14 1;
#X connect 18 0 13 0;
#X connect 18 0 14 0;
#X connect 18 1 15 0;
#X connect 19 0 64 0;
#X connect 20 0 4 0;
#X connect 21 0 20 0;
#X connect 22 0 21 0;
#X connect 23 0 0 0;
#X connect 24 0 29 0;
#X connect 25 0 26 1;
#X connect 25 0 40 1;
#X connect 26 0 65 0;
#X connect 27 0 39 0;
#X connect 28 0 27 0;
#X connect 29 0 37 0;
#X connect 30 0 40 0;
#X connect 31 0 30 0;
#X connect 32 0 31 0;
#X connect 33 0 24 0;
#X connect 34 0 32 0;
#X connect 35 0 43 0;
#X connect 36 0 38 0;
#X connect 36 0 34 1;
#X connect 37 0 25 0;
#X connect 38 0 35 1;
#X connect 39 0 34 0;
#X connect 39 0 35 0;
#X connect 39 1 36 0;
#X connect 40 0 65 0;
#X connect 41 0 26 0;
#X connect 42 0 41 0;
#X connect 43 0 42 0;
#X connect 44 0 28 0;
#X connect 44 1 33 0;
#X connect 45 0 58 0;
#X connect 45 1 46 0;
#X connect 46 0 47 0;
#X connect 47 0 55 0;
#X connect 50 0 48 0;
#X connect 51 0 49 0;
#X connect 52 0 49 0;
#X connect 52 0 61 0;
#X connect 53 0 48 0;
#X connect 53 0 62 0;
#X connect 54 0 45 0;
#X connect 55 0 71 0;
#X connect 56 0 50 0;
#X connect 56 0 62 0;
#X connect 57 0 51 0;
#X connect 57 0 61 0;
#X connect 58 0 59 0;
#X connect 59 0 60 0;
#X connect 60 0 72 0;
#X connect 63 0 54 0;
#X connect 64 0 66 0;
#X connect 65 0 67 0;
#X connect 68 0 73 1;
#X connect 69 0 73 0;
#X connect 70 0 1 0;
#X connect 71 0 51 1;
#X connect 72 0 50 1;
#X connect 73 0 74 0;
