#N canvas 1637 159 1328 645 10;
#X obj 272 129 bng 15 250 50 0 empty empty empty 17 7 0 10 -262144
-1 -1;
#X obj 272 73 tgl 15 0 empty empty empty 17 7 0 10 -262144 -1 -1 1
1;
#X obj 272 207 * 1000;
#X obj 272 181 abs;
#X msg 272 361 \$1 10000;
#X obj 272 155 TinkerbellEquations -0.72 -0.64 0.9 -0.6013 2 0.5;
#X msg 563 184 \$1 15000;
#X obj 272 323 spigot;
#X obj 325 323 spigot;
#X obj 305 272 tgl 15 0 empty empty empty 17 7 0 10 -262144 -1 -1 1
1;
#X obj 332 296 expr 1-$f1;
#X obj 272 246 t f b;
#X msg 413 358 \$1 10000;
#X obj 272 103 metro 15000;
#X obj 646 194 * 1000;
#X obj 646 168 abs;
#X msg 646 348 \$1 10000;
#X msg 937 171 \$1 15000;
#X obj 646 310 spigot;
#X obj 699 310 spigot;
#X obj 679 259 tgl 15 0 empty empty empty 17 7 0 10 -262144 -1 -1 1
1;
#X obj 706 283 expr 1-$f1;
#X obj 646 233 t f b;
#X msg 787 345 \$1 10000;
#X obj 646 142 TinkerbellEquations -0.72 -0.64 0.9 -0.6013 2 0.51;
#X obj -99 185 TinkerbellEquations -0.72 -0.64 0.9 -0.6013 2 0.51;
#X obj 16 216 abs;
#X obj 16 242 / 2;
#X obj -120 434 *~;
#X obj 45 455 *~;
#X obj 127 150 bng 15 250 50 0 empty empty empty 17 7 0 10 -262144
-1 -1;
#X msg 16 267 \$1 3000;
#X obj -104 234 abs;
#X obj -104 260 / 2;
#X msg -104 285 \$1 3000;
#X obj 127 120 metro 10000;
#X obj 300 54 loadbang;
#X obj 16 293 line~;
#X obj -104 311 line~;
#X obj 552 583 patchComs;
#X obj 552 613 switch~;
#X obj -91 383 delread~ \$0-TinkDelayL 7000;
#X obj 62 413 delread~ \$0-TinkDelayR 7000;
#X obj 48 523 delwrite~ \$0-TinkDelayR 7000;
#X obj -148 500 delwrite~ \$0-TinkDelayL 7000;
#X obj -60 435 r~ \$0-Leffects;
#X obj -60 481 s~ \$0-fxLoutput;
#X obj 115 495 s~ \$0-fxRoutput;
#X obj 114 467 r~ \$0-Reffects;
#X obj 367 525 s~ \$0-Leffects;
#X obj 748 512 s~ \$0-Reffects;
#X obj 478 512 r~ \$0-fxLoutput;
#X obj 641 509 r~ \$0-fxRoutput;
#X obj 272 388 line~;
#X obj 413 385 line~;
#X obj 646 375 line~;
#X obj 787 372 line~;
#X obj 563 236 abs~;
#X obj 563 211 line~;
#X obj 563 260 +~ 2;
#X obj 413 440 simpleFMModule 1 0.5;
#X obj 937 198 line~;
#X obj 937 223 abs~;
#X obj 937 247 +~ 2;
#X obj 398 51 random 1000;
#X obj 398 73 - 500;
#X obj 484 52 random 1000;
#X obj 484 74 - 500;
#X obj 427 15 loadbang;
#X obj 746 43 random 1000;
#X obj 746 65 - 500;
#X obj 846 45 random 1000;
#X obj 846 67 - 500;
#X obj 775 7 loadbang;
#X obj 366 497 *~ 0.6;
#X obj 749 479 *~ 0.6;
#X obj 79 440 *~ 0.4;
#X obj -73 409 *~ 0.4;
#X floatatom 208 348 5 0 0 0 - - -;
#X floatatom 357 364 5 0 0 0 - - -;
#X floatatom 599 340 5 0 0 0 - - -;
#X floatatom 728 350 5 0 0 0 - - -;
#X obj 395 96 / 2000;
#X obj 484 97 / 2000;
#X obj 746 88 / 2000;
#X obj 846 90 / 2000;
#X obj 394 122 - 0.6;
#X obj 481 123 - 0.6;
#X obj 747 115 - 0.6;
#X obj 846 116 - 0.6;
#X obj 539 546 *~ 0.3;
#X obj 585 543 *~ 0.3;
#X obj 272 441 simpleFMModule 1 0.5;
#X obj 787 427 simpleFMModule 1 0.5;
#X obj 646 428 simpleFMModule 1 0.5;
#X connect 0 0 5 0;
#X connect 0 0 24 0;
#X connect 1 0 13 0;
#X connect 1 0 35 0;
#X connect 2 0 11 0;
#X connect 3 0 2 0;
#X connect 4 0 53 0;
#X connect 5 0 3 0;
#X connect 5 1 6 0;
#X connect 6 0 58 0;
#X connect 7 0 4 0;
#X connect 7 0 78 0;
#X connect 8 0 12 0;
#X connect 8 0 79 0;
#X connect 9 0 10 0;
#X connect 9 0 7 1;
#X connect 10 0 8 1;
#X connect 11 0 7 0;
#X connect 11 0 8 0;
#X connect 11 1 9 0;
#X connect 12 0 54 0;
#X connect 13 0 0 0;
#X connect 14 0 22 0;
#X connect 15 0 14 0;
#X connect 16 0 55 0;
#X connect 17 0 61 0;
#X connect 18 0 16 0;
#X connect 18 0 80 0;
#X connect 19 0 23 0;
#X connect 19 0 81 0;
#X connect 20 0 21 0;
#X connect 20 0 18 1;
#X connect 21 0 19 1;
#X connect 22 0 18 0;
#X connect 22 0 19 0;
#X connect 22 1 20 0;
#X connect 23 0 56 0;
#X connect 24 0 15 0;
#X connect 24 1 17 0;
#X connect 25 0 32 0;
#X connect 25 1 26 0;
#X connect 26 0 27 0;
#X connect 27 0 31 0;
#X connect 28 0 44 0;
#X connect 29 0 43 0;
#X connect 30 0 25 0;
#X connect 31 0 37 0;
#X connect 32 0 33 0;
#X connect 33 0 34 0;
#X connect 34 0 38 0;
#X connect 35 0 30 0;
#X connect 36 0 1 0;
#X connect 37 0 29 1;
#X connect 38 0 28 1;
#X connect 39 0 40 0;
#X connect 41 0 28 0;
#X connect 41 0 77 0;
#X connect 42 0 29 0;
#X connect 42 0 76 0;
#X connect 45 0 44 0;
#X connect 45 0 46 0;
#X connect 48 0 43 0;
#X connect 48 0 47 0;
#X connect 51 0 39 0;
#X connect 51 0 90 0;
#X connect 52 0 39 1;
#X connect 52 0 91 0;
#X connect 53 0 92 0;
#X connect 54 0 60 0;
#X connect 55 0 94 0;
#X connect 56 0 93 0;
#X connect 57 0 59 0;
#X connect 58 0 57 0;
#X connect 59 0 60 1;
#X connect 59 0 92 1;
#X connect 60 0 74 0;
#X connect 61 0 62 0;
#X connect 62 0 63 0;
#X connect 63 0 93 1;
#X connect 63 0 94 1;
#X connect 64 0 65 0;
#X connect 65 0 82 0;
#X connect 66 0 67 0;
#X connect 67 0 83 0;
#X connect 68 0 64 0;
#X connect 68 0 66 0;
#X connect 69 0 70 0;
#X connect 70 0 84 0;
#X connect 71 0 72 0;
#X connect 72 0 85 0;
#X connect 73 0 69 0;
#X connect 73 0 71 0;
#X connect 74 0 49 0;
#X connect 75 0 50 0;
#X connect 76 0 47 0;
#X connect 77 0 46 0;
#X connect 82 0 86 0;
#X connect 83 0 87 0;
#X connect 84 0 88 0;
#X connect 85 0 89 0;
#X connect 86 0 5 1;
#X connect 87 0 5 2;
#X connect 88 0 24 1;
#X connect 89 0 24 2;
#X connect 90 0 39 1;
#X connect 91 0 39 0;
#X connect 92 0 74 0;
#X connect 93 0 75 0;
#X connect 94 0 75 0;
