#N canvas 49 94 1283 565 10;
#X obj 183 106 bng 15 250 50 0 empty empty empty 17 7 0 10 -262144
-1 -1;
#X obj 183 50 tgl 15 0 empty empty empty 17 7 0 10 -262144 -1 -1 0
1;
#X obj 474 188 line;
#X floatatom 474 261 5 0 0 0 - - -;
#X obj 324 417 simpleFMModule 1 0.5;
#X obj 38 395 dac~;
#X obj 183 184 * 1000;
#X obj 24 355 *~ 1;
#X obj 64 180 vsl 15 128 0 127 0 0 empty empty empty 0 -9 0 10 -262144
-1 -1 0 1;
#X obj 183 158 abs;
#X obj 474 213 abs;
#X obj 64 142 * 100;
#X floatatom 183 394 5 0 0 0 - - -;
#X obj 183 365 line;
#X msg 183 338 \$1 10000;
#X obj 183 132 TinkerbellEquations -0.72 -0.64 0.9 -0.6013 2 0.5;
#X msg 474 161 \$1 15000;
#X obj 183 300 spigot;
#X obj 236 300 spigot;
#X obj 216 249 tgl 15 0 empty empty empty 17 7 0 10 -262144 -1 -1 0
1;
#X obj 474 237 + 2;
#X obj 243 273 expr 1-$f1;
#X obj 183 223 t f b;
#X obj 183 418 simpleFMModule 1 0.5;
#X floatatom 324 391 5 0 0 0 - - -;
#X obj 324 362 line;
#X msg 324 335 \$1 10000;
#X obj 183 80 metro 15000;
#X obj 848 175 line;
#X floatatom 848 248 5 0 0 0 - - -;
#X obj 698 404 simpleFMModule 1 0.5;
#X obj 557 171 * 1000;
#X obj 557 145 abs;
#X obj 848 200 abs;
#X floatatom 557 381 5 0 0 0 - - -;
#X obj 557 352 line;
#X msg 557 325 \$1 10000;
#X msg 848 148 \$1 15000;
#X obj 557 287 spigot;
#X obj 610 287 spigot;
#X obj 590 236 tgl 15 0 empty empty empty 17 7 0 10 -262144 -1 -1 0
1;
#X obj 848 224 + 2;
#X obj 617 260 expr 1-$f1;
#X obj 557 210 t f b;
#X obj 557 405 simpleFMModule 1 0.5;
#X floatatom 698 378 5 0 0 0 - - -;
#X obj 698 349 line;
#X msg 698 322 \$1 10000;
#X obj -64 319 r~ Loutput;
#X obj 62 355 *~ 1;
#X obj -13 282 r~ Routput;
#X obj 557 119 TinkerbellEquations -0.72 -0.64 0.9 -0.6013 2 0.51;
#X obj 22 514 writesf~ 2;
#X msg -26 430 start;
#X msg -50 481 stop;
#X msg 45 422 open TinkerbellsHymn;
#X obj 64 319 / 100;
#X obj 277 474 s~ Loutput;
#X obj 660 456 s~ Routput;
#X obj 535 76 sel 1;
#X connect 0 0 15 0;
#X connect 0 0 51 0;
#X connect 1 0 11 0;
#X connect 1 0 27 0;
#X connect 1 0 59 0;
#X connect 2 0 10 0;
#X connect 3 0 4 1;
#X connect 3 0 23 1;
#X connect 4 0 57 0;
#X connect 6 0 22 0;
#X connect 7 0 5 0;
#X connect 7 0 52 0;
#X connect 8 0 56 0;
#X connect 9 0 6 0;
#X connect 10 0 20 0;
#X connect 11 0 8 0;
#X connect 12 0 23 0;
#X connect 13 0 12 0;
#X connect 14 0 13 0;
#X connect 15 0 9 0;
#X connect 15 1 16 0;
#X connect 16 0 2 0;
#X connect 17 0 14 0;
#X connect 18 0 26 0;
#X connect 19 0 21 0;
#X connect 19 0 17 1;
#X connect 20 0 3 0;
#X connect 21 0 18 1;
#X connect 22 0 17 0;
#X connect 22 0 18 0;
#X connect 22 1 19 0;
#X connect 23 0 57 0;
#X connect 24 0 4 0;
#X connect 25 0 24 0;
#X connect 26 0 25 0;
#X connect 27 0 0 0;
#X connect 28 0 33 0;
#X connect 29 0 30 1;
#X connect 29 0 44 1;
#X connect 30 0 58 0;
#X connect 31 0 43 0;
#X connect 32 0 31 0;
#X connect 33 0 41 0;
#X connect 34 0 44 0;
#X connect 35 0 34 0;
#X connect 36 0 35 0;
#X connect 37 0 28 0;
#X connect 38 0 36 0;
#X connect 39 0 47 0;
#X connect 40 0 42 0;
#X connect 40 0 38 1;
#X connect 41 0 29 0;
#X connect 42 0 39 1;
#X connect 43 0 38 0;
#X connect 43 0 39 0;
#X connect 43 1 40 0;
#X connect 44 0 58 0;
#X connect 45 0 30 0;
#X connect 46 0 45 0;
#X connect 47 0 46 0;
#X connect 48 0 7 0;
#X connect 49 0 5 1;
#X connect 49 0 52 1;
#X connect 50 0 49 0;
#X connect 51 0 32 0;
#X connect 51 1 37 0;
#X connect 53 0 52 0;
#X connect 54 0 52 0;
#X connect 55 0 52 0;
#X connect 56 0 7 1;
#X connect 56 0 49 1;
#X connect 59 0 15 3;
#X connect 59 0 51 3;
