#N canvas 910 142 339 394 10;
#X obj 63 142 osc~;
#X obj 63 170 *~;
#X obj 45 197 +~;
#X obj 45 230 osc~;
#X obj 45 260 outlet~;
#X obj 44 67 *~ 1;
#X obj 63 103 *~;
#X obj 78 28 inlet~;
#X obj 26 20 inlet~;
#X obj 98 142 *~ 0 \, 5;
#X connect 0 0 1 0;
#X connect 1 0 2 1;
#X connect 2 0 3 0;
#X connect 3 0 4 0;
#X connect 5 0 2 0;
#X connect 5 0 6 0;
#X connect 6 0 0 0;
#X connect 6 0 9 0;
#X connect 7 0 6 1;
#X connect 8 0 5 0;
#X connect 9 0 1 1;
