#N canvas 0 11 1328 645 10;
#X obj 272 103 bng 15 250 50 0 empty empty empty 17 7 0 10 -262144
-1 -1;
#X obj 272 47 tgl 15 0 empty empty empty 17 7 0 10 -262144 -1 -1 0
1;
#X obj 563 185 line;
#X floatatom 563 258 5 0 0 0 - - -;
#X obj 413 414 simpleFMModule 1 0.5;
#X obj 174 483 dac~;
#X obj 272 181 * 1000;
#X obj 160 443 *~ 1;
#X obj 200 268 vsl 15 128 0 127 0 0 empty empty empty 0 -9 0 10 -262144
-1 -1 0 1;
#X obj 272 155 abs;
#X obj 563 210 abs;
#X obj 200 230 * 100;
#X floatatom 272 391 5 0 0 0 - - -;
#X obj 272 362 line;
#X msg 272 335 \$1 10000;
#X obj 272 129 TinkerbellEquations -0.72 -0.64 0.9 -0.6013 2 0.5;
#X msg 563 158 \$1 15000;
#X obj 272 297 spigot;
#X obj 325 297 spigot;
#X obj 305 246 tgl 15 0 empty empty empty 17 7 0 10 -262144 -1 -1 1
1;
#X obj 563 234 + 2;
#X obj 332 270 expr 1-$f1;
#X obj 272 220 t f b;
#X obj 272 415 simpleFMModule 1 0.5;
#X floatatom 413 388 5 0 0 0 - - -;
#X obj 413 359 line;
#X msg 413 332 \$1 10000;
#X obj 272 77 metro 15000;
#X obj 937 172 line;
#X floatatom 937 245 5 0 0 0 - - -;
#X obj 787 401 simpleFMModule 1 0.5;
#X obj 646 168 * 1000;
#X obj 646 142 abs;
#X obj 937 197 abs;
#X floatatom 646 378 5 0 0 0 - - -;
#X obj 646 349 line;
#X msg 646 322 \$1 10000;
#X msg 937 145 \$1 15000;
#X obj 646 284 spigot;
#X obj 699 284 spigot;
#X obj 679 233 tgl 15 0 empty empty empty 17 7 0 10 -262144 -1 -1 1
1;
#X obj 937 221 + 2;
#X obj 706 257 expr 1-$f1;
#X obj 646 207 t f b;
#X obj 646 402 simpleFMModule 1 0.5;
#X floatatom 787 375 5 0 0 0 - - -;
#X obj 787 346 line;
#X msg 787 319 \$1 10000;
#X obj 72 407 r~ Loutput;
#X obj 198 443 *~ 1;
#X obj 123 370 r~ Routput;
#X obj 646 116 TinkerbellEquations -0.72 -0.64 0.9 -0.6013 2 0.51;
#X obj 158 602 writesf~ 2;
#X msg 110 518 start;
#X msg 86 569 stop;
#X msg 181 510 open TinkerbellsHymn;
#X obj -196 148 TinkerbellEquations -0.72 -0.64 0.9 -0.6013 2 0.51
;
#X obj -81 179 abs;
#X obj -81 205 / 2;
#X obj -81 285 sig~;
#X obj -253 465 delwrite~ TinkDelayL 7000;
#X obj -49 486 delwrite~ TinkDelayR 7000;
#X obj -225 399 *~;
#X obj -52 418 *~;
#X obj -80 440 r~ Reffects;
#X obj -215 425 r~ Leffects;
#X floatatom -33 287 5 0 0 0 - - -;
#X obj -160 443 s~ Loutput;
#X obj 18 458 s~ Routput;
#X obj 88 112 bng 15 250 50 0 empty empty empty 17 7 0 10 -262144 -1
-1;
#X obj -81 256 line;
#X msg -81 230 \$1 3000;
#X obj 142 88 metro 1000;
#X obj -210 357 delread~ TinkDelayL 7000;
#X obj -40 378 delread~ TinkDelayR 7000;
#X obj -201 197 abs;
#X obj -201 223 / 2;
#X obj -201 303 sig~;
#X floatatom -153 305 5 0 0 0 - - -;
#X obj -201 274 line;
#X msg -201 248 \$1 3000;
#X obj 200 407 / 100;
#X obj 366 471 s~ Loutput;
#X obj 749 453 s~ Routput;
#X connect 0 0 15 0;
#X connect 0 0 51 0;
#X connect 1 0 11 0;
#X connect 1 0 27 0;
#X connect 1 0 72 0;
#X connect 2 0 10 0;
#X connect 3 0 4 1;
#X connect 3 0 23 1;
#X connect 4 0 82 0;
#X connect 6 0 22 0;
#X connect 7 0 5 0;
#X connect 7 0 52 0;
#X connect 8 0 81 0;
#X connect 9 0 6 0;
#X connect 10 0 20 0;
#X connect 11 0 8 0;
#X connect 12 0 23 0;
#X connect 13 0 12 0;
#X connect 14 0 13 0;
#X connect 15 0 9 0;
#X connect 15 1 16 0;
#X connect 16 0 2 0;
#X connect 17 0 14 0;
#X connect 18 0 26 0;
#X connect 19 0 21 0;
#X connect 19 0 17 1;
#X connect 20 0 3 0;
#X connect 21 0 18 1;
#X connect 22 0 17 0;
#X connect 22 0 18 0;
#X connect 22 1 19 0;
#X connect 23 0 82 0;
#X connect 24 0 4 0;
#X connect 25 0 24 0;
#X connect 26 0 25 0;
#X connect 27 0 0 0;
#X connect 28 0 33 0;
#X connect 29 0 30 1;
#X connect 29 0 44 1;
#X connect 30 0 83 0;
#X connect 31 0 43 0;
#X connect 32 0 31 0;
#X connect 33 0 41 0;
#X connect 34 0 44 0;
#X connect 35 0 34 0;
#X connect 36 0 35 0;
#X connect 37 0 28 0;
#X connect 38 0 36 0;
#X connect 39 0 47 0;
#X connect 40 0 42 0;
#X connect 40 0 38 1;
#X connect 41 0 29 0;
#X connect 42 0 39 1;
#X connect 43 0 38 0;
#X connect 43 0 39 0;
#X connect 43 1 40 0;
#X connect 44 0 83 0;
#X connect 45 0 30 0;
#X connect 46 0 45 0;
#X connect 47 0 46 0;
#X connect 48 0 7 0;
#X connect 49 0 5 1;
#X connect 49 0 52 1;
#X connect 50 0 49 0;
#X connect 51 0 32 0;
#X connect 51 1 37 0;
#X connect 53 0 52 0;
#X connect 54 0 52 0;
#X connect 55 0 52 0;
#X connect 56 0 75 0;
#X connect 56 1 57 0;
#X connect 57 0 58 0;
#X connect 58 0 71 0;
#X connect 59 0 63 1;
#X connect 62 0 60 0;
#X connect 63 0 61 0;
#X connect 64 0 61 0;
#X connect 64 0 68 0;
#X connect 65 0 60 0;
#X connect 65 0 67 0;
#X connect 70 0 59 0;
#X connect 70 0 66 0;
#X connect 71 0 70 0;
#X connect 72 0 69 0;
#X connect 73 0 62 0;
#X connect 73 0 67 0;
#X connect 74 0 63 0;
#X connect 74 0 68 0;
#X connect 75 0 76 0;
#X connect 76 0 80 0;
#X connect 77 0 62 1;
#X connect 79 0 77 0;
#X connect 79 0 78 0;
#X connect 80 0 79 0;
#X connect 81 0 7 1;
#X connect 81 0 49 1;
