#N canvas -1675 6 1289 1022 10;
#X obj 233 279 noise~;
#X obj 283 368 vcf~;
#X obj 288 249 *~ 0.5;
#X obj 288 273 +~ 0.5;
#X obj 288 321 *~ 20000;
#X obj 288 297 +~ 50;
#X msg 371 299 1200;
#X obj 288 177 random 7;
#X obj 288 201 / 100;
#X obj 238 399 line~;
#X obj 284 392 *~;
#X obj 183 323 random 10000;
#X obj 115 319 i;
#X obj 152 312 + 1;
#X obj 123 339 % 2;
#X obj 100 276 moses 75;
#X obj 98 236 random 100;
#X obj 882 161 random 3000;
#X obj 864 187 metro;
#X obj 864 211 random 127;
#X obj 864 235 mtof;
#X obj 815 374 line~;
#X obj 865 393 *~;
#X obj 815 254 t b b;
#X msg 809 319 1 40;
#X obj 783 284 del 100;
#X msg 779 333 0 60;
#X obj 927 427 *~;
#X obj 887 431 +~;
#X obj 961 323 random 1000;
#X obj 1067 322 random 9;
#X obj 1067 375 / 10;
#X obj 865 369 +~;
#X obj 887 455 /~ 2;
#X obj 164 180 metro 5000;
#X obj 970 216 / 100;
#X obj 932 237 + 1;
#X obj 864 259 line 0 80;
#X obj 932 261 line 0 100;
#X obj 909 284 *;
#X floatatom 1068 413 5 0 0 0 - - -;
#X obj 158 341 b;
#X obj 371 264 loadbang;
#X obj 229 751 *~ 0.2;
#X obj 229 703 mtof;
#X obj 115 703 t b b;
#X msg 135 734 1;
#X msg 88 751 0;
#X obj 125 617 metro 100;
#X obj 229 775 *~;
#X obj 226 680 random 127;
#X obj 88 727 del 5;
#X obj 126 762 line~ 0 10;
#X obj 384 619 *~ 0.5;
#X obj 384 643 +~ 0.5;
#X obj 384 667 *~ 1000;
#X obj 318 782 *~;
#X obj 321 674 / 10;
#X obj 277 788 +~;
#X obj 310 598 metro 2000;
#X msg 170 388 0;
#X floatatom 373 710 5 0 0 0 - - -;
#X obj 384 595 osc~ 1;
#X floatatom 51 262 5 0 0 0 - - -;
#X obj 679 587 + 11;
#X obj 597 608 + 7;
#X obj 676 540 random 100;
#X obj 557 696 +~;
#X obj 611 696 +~;
#X obj 611 720 *~;
#X obj 691 709 line~ 0 1000;
#X obj 717 644 t b b;
#X obj 686 668 del 1000;
#X obj 593 471 random 5000;
#X obj 612 536 metro;
#X obj 557 633 mtof;
#X obj 601 644 mtof;
#X obj 653 619 mtof;
#X floatatom 515 613 5 0 0 0 - - -;
#X obj 625 507 + 2000;
#X msg 757 680 1 1000;
#X obj 653 741 +~;
#X obj 779 731 *~ 0.6;
#X obj 229 727 osc~;
#X obj 660 648 osc~;
#X obj 601 668 osc~;
#X obj 557 657 osc~;
#X obj 551 748 *~ 0.2;
#X obj 284 416 *~ 0.1;
#X obj 190 677 *~;
#X obj 272 627 - 1;
#X obj 272 651 abs;
#X obj 286 717 *~;
#X obj 198 612 random 2;
#X obj 886 486 *~ 0.5;
#X obj 112 795 clip~ -0.7 0.7;
#X obj 321 650 random 12;
#X obj 444 1091 phasor~;
#X obj 452 1057 mtof;
#X obj 452 1033 random 100;
#X obj 452 1009 metro 125;
#X obj 416 1114 line~;
#X obj 362 1084 random 10000;
#X obj 290 1087 i;
#X obj 330 1087 + 1;
#X obj 290 1112 % 2;
#X obj 314 998 random 100;
#X obj 342 1131 b;
#X msg 364 1152 0;
#X floatatom 271 1021 5 0 0 0 - - -;
#X obj 467 1134 *~;
#X obj 606 1071 osc~;
#X obj 599 1002 random 10;
#X obj 606 1047 / 10;
#X obj 606 1095 *~ 0.5;
#X obj 582 1132 -~ 0.5;
#X obj 656 1143 +~ 0.5;
#X obj 505 1192 *~;
#X obj 678 1195 *~;
#X obj 591 1160 abs~;
#X floatatom 700 1035 5 0 0 0 - - -;
#X obj 302 1044 moses 65;
#X obj 467 1158 *~ 0.07;
#X msg 681 690 0 100;
#X obj 339 962 metro 10000;
#X obj 195 826 *~ 0.5;
#X obj 864 283 osc~;
#X obj 909 353 osc~;
#X obj 288 225 osc~;
#X floatatom 55 375 5 0 0 0 - - -;
#X obj 77 311 b;
#X obj 252 1068 b;
#X floatatom 787 228 5 0 0 0 - - -;
#X obj 970 192 random 100;
#X floatatom 1069 224 5 0 0 0 - - -;
#X msg 164 414 1;
#X obj 512 76 time;
#X msg 422 162 seed \$1;
#X msg 563 162 seed \$1;
#X msg 492 163 seed \$1;
#X msg 637 165 seed \$1;
#X floatatom 290 1142 5 0 0 0 - - -;
#X floatatom 422 118 5 0 0 0 - - -;
#X floatatom 460 119 5 0 0 0 - - -;
#X floatatom 622 121 5 0 0 0 - - -;
#X floatatom 669 117 5 0 0 0 - - -;
#X obj 856 1181 switch~;
#X obj 169 103 loadbang;
#X msg 169 129 1;
#X obj 508 38 loadbang;
#X obj 118 520 loadbang;
#X msg 118 546 1;
#X obj 280 440 throw~ \$0-output;
#X obj 882 516 throw~ \$0-output;
#X obj 168 871 throw~ \$0-loutput;
#X obj 273 842 throw~ \$0-routput;
#X obj 506 1221 throw~ \$0-loutput;
#X obj 552 786 throw~ \$0-output;
#X obj 679 1224 throw~ \$0-routput;
#X obj 856 1144 patchComs;
#X obj 798 1064 catch~ \$0-loutput;
#X obj 933 1113 catch~ \$0-routput;
#X obj 882 1082 catch~ \$0-output;
#X obj 628 765 delwrite~ \$0-delay3 2000;
#X obj 779 707 delread~ \$0-delay3 1000;
#X obj 329 755 vd~ \$0-delay2;
#X obj 296 817 delwrite~ \$0-delay2 1000;
#X obj 961 447 delwrite~ \$0-delay1 1000;
#X obj 952 381 delread~ \$0-delay1;
#X obj 947 69 loadbang;
#X msg 947 95 1;
#X obj 565 402 loadbang;
#X msg 565 428 1;
#X obj 442 892 loadbang;
#X msg 442 918 1;
#X obj 155 581 r \$0-seed1;
#X obj 422 187 s \$0-seed1;
#X obj 268 124 r \$0-seed1;
#X obj 1063 282 r \$0-seed1;
#X obj 276 935 r \$0-seed1;
#X obj 609 425 r \$0-seed1;
#X obj 492 187 s \$0-seed2;
#X obj 82 185 r \$0-seed2;
#X obj 686 509 r \$0-seed2;
#X obj 880 83 r \$0-seed2;
#X obj 563 187 s \$0-seed3;
#X obj 183 240 r \$0-seed3;
#X obj 982 152 r \$0-seed3;
#X obj 311 623 r \$0-seed3;
#X obj 597 967 r \$0-seed3;
#X obj 378 1038 r \$0-seed3;
#X obj 637 187 s \$0-seed4;
#X obj 247 553 r \$0-seed4;
#X obj 963 287 r \$0-seed4;
#X obj 486 974 r \$0-seed4;
#X connect 0 0 1 0;
#X connect 1 0 10 0;
#X connect 2 0 3 0;
#X connect 3 0 5 0;
#X connect 4 0 1 1;
#X connect 5 0 4 0;
#X connect 6 0 1 2;
#X connect 7 0 8 0;
#X connect 8 0 128 0;
#X connect 9 0 10 1;
#X connect 10 0 88 0;
#X connect 11 0 9 1;
#X connect 12 0 14 0;
#X connect 13 0 12 1;
#X connect 14 0 9 0;
#X connect 14 0 41 0;
#X connect 14 0 129 0;
#X connect 14 0 13 0;
#X connect 15 1 130 0;
#X connect 16 0 15 0;
#X connect 16 0 63 0;
#X connect 17 0 18 1;
#X connect 18 0 17 0;
#X connect 18 0 19 0;
#X connect 18 0 30 0;
#X connect 18 0 29 0;
#X connect 18 0 133 0;
#X connect 19 0 20 0;
#X connect 19 0 23 0;
#X connect 19 0 132 0;
#X connect 20 0 37 0;
#X connect 21 0 22 1;
#X connect 22 0 28 0;
#X connect 23 0 25 0;
#X connect 23 1 24 0;
#X connect 24 0 21 0;
#X connect 25 0 26 0;
#X connect 26 0 21 0;
#X connect 27 0 28 1;
#X connect 28 0 33 0;
#X connect 28 0 167 0;
#X connect 29 0 168 0;
#X connect 30 0 31 0;
#X connect 31 0 27 1;
#X connect 31 0 40 0;
#X connect 32 0 22 0;
#X connect 33 0 94 0;
#X connect 34 0 7 0;
#X connect 34 0 16 0;
#X connect 35 0 36 0;
#X connect 36 0 38 0;
#X connect 37 0 39 0;
#X connect 37 0 126 0;
#X connect 38 0 39 1;
#X connect 39 0 127 0;
#X connect 41 0 11 0;
#X connect 42 0 6 0;
#X connect 43 0 49 0;
#X connect 44 0 83 0;
#X connect 45 0 51 0;
#X connect 45 1 46 0;
#X connect 46 0 52 0;
#X connect 47 0 52 0;
#X connect 48 0 45 0;
#X connect 48 0 50 0;
#X connect 48 0 93 0;
#X connect 49 0 58 0;
#X connect 50 0 44 0;
#X connect 51 0 47 0;
#X connect 52 0 49 1;
#X connect 53 0 54 0;
#X connect 54 0 55 0;
#X connect 55 0 165 0;
#X connect 56 0 58 1;
#X connect 57 0 61 0;
#X connect 57 0 56 1;
#X connect 58 0 95 0;
#X connect 58 0 166 0;
#X connect 59 0 96 0;
#X connect 60 0 9 0;
#X connect 62 0 53 0;
#X connect 64 0 77 0;
#X connect 65 0 76 0;
#X connect 66 0 65 0;
#X connect 66 0 64 0;
#X connect 66 0 75 0;
#X connect 66 0 78 0;
#X connect 67 0 68 0;
#X connect 68 0 69 0;
#X connect 69 0 81 0;
#X connect 70 0 69 1;
#X connect 71 0 72 0;
#X connect 71 1 80 0;
#X connect 72 0 123 0;
#X connect 73 0 79 0;
#X connect 74 0 73 0;
#X connect 74 0 66 0;
#X connect 74 0 71 0;
#X connect 75 0 86 0;
#X connect 76 0 85 0;
#X connect 77 0 84 0;
#X connect 79 0 74 1;
#X connect 80 0 70 0;
#X connect 81 0 87 0;
#X connect 81 0 163 0;
#X connect 82 0 81 1;
#X connect 83 0 43 0;
#X connect 84 0 68 1;
#X connect 85 0 67 1;
#X connect 86 0 67 0;
#X connect 87 0 157 0;
#X connect 88 0 152 0;
#X connect 89 0 154 0;
#X connect 90 0 91 0;
#X connect 91 0 92 1;
#X connect 92 0 155 0;
#X connect 93 0 89 1;
#X connect 93 0 90 0;
#X connect 94 0 153 0;
#X connect 95 0 125 0;
#X connect 96 0 57 0;
#X connect 97 0 110 0;
#X connect 98 0 97 0;
#X connect 99 0 98 0;
#X connect 100 0 99 0;
#X connect 101 0 110 1;
#X connect 102 0 101 1;
#X connect 103 0 105 0;
#X connect 104 0 103 1;
#X connect 105 0 101 0;
#X connect 105 0 107 0;
#X connect 105 0 141 0;
#X connect 105 0 104 0;
#X connect 106 0 109 0;
#X connect 106 0 121 0;
#X connect 107 0 102 0;
#X connect 108 0 101 0;
#X connect 110 0 122 0;
#X connect 111 0 114 0;
#X connect 112 0 113 0;
#X connect 112 0 120 0;
#X connect 113 0 111 0;
#X connect 114 0 115 0;
#X connect 114 0 116 0;
#X connect 115 0 119 0;
#X connect 116 0 118 0;
#X connect 117 0 156 0;
#X connect 118 0 158 0;
#X connect 119 0 117 0;
#X connect 121 1 131 0;
#X connect 122 0 117 1;
#X connect 122 0 118 1;
#X connect 123 0 70 0;
#X connect 124 0 106 0;
#X connect 124 0 112 0;
#X connect 125 0 89 0;
#X connect 125 0 92 0;
#X connect 126 0 32 0;
#X connect 127 0 32 1;
#X connect 128 0 2 0;
#X connect 130 0 12 0;
#X connect 131 0 103 0;
#X connect 133 0 35 0;
#X connect 133 0 134 0;
#X connect 135 0 9 0;
#X connect 136 0 142 0;
#X connect 136 0 137 0;
#X connect 136 1 143 0;
#X connect 136 1 139 0;
#X connect 136 2 144 0;
#X connect 136 2 138 0;
#X connect 136 3 145 0;
#X connect 136 3 140 0;
#X connect 137 0 176 0;
#X connect 138 0 185 0;
#X connect 139 0 181 0;
#X connect 140 0 191 0;
#X connect 147 0 148 0;
#X connect 148 0 34 0;
#X connect 149 0 136 0;
#X connect 150 0 151 0;
#X connect 151 0 48 0;
#X connect 151 0 59 0;
#X connect 159 0 146 0;
#X connect 160 0 159 0;
#X connect 161 0 159 1;
#X connect 162 0 159 0;
#X connect 162 0 159 1;
#X connect 164 0 82 0;
#X connect 165 0 56 0;
#X connect 168 0 27 0;
#X connect 169 0 170 0;
#X connect 170 0 18 0;
#X connect 171 0 172 0;
#X connect 172 0 74 0;
#X connect 173 0 174 0;
#X connect 174 0 124 0;
#X connect 174 0 100 0;
#X connect 175 0 93 0;
#X connect 177 0 7 0;
#X connect 178 0 30 0;
#X connect 179 0 106 0;
#X connect 180 0 73 0;
#X connect 182 0 16 0;
#X connect 183 0 66 0;
#X connect 184 0 17 0;
#X connect 186 0 11 0;
#X connect 187 0 133 0;
#X connect 188 0 96 0;
#X connect 189 0 112 0;
#X connect 190 0 102 0;
#X connect 192 0 50 0;
#X connect 193 0 29 0;
#X connect 194 0 99 0;
