#N canvas -1528 79 1012 677 10;
#X obj 163 227 vsl 15 60 0 1 0 0 empty empty empty 0 -8 0 8 -262144
-1 -1 0 1;
#X obj 264 130 noise~;
#X obj 314 219 vcf~;
#X obj 319 100 *~ 0.5;
#X obj 319 124 +~ 0.5;
#X obj 311 289 dac~;
#X obj 319 172 *~ 20000;
#X obj 319 148 +~ 50;
#X msg 402 150 1200;
#X obj 319 28 random 7;
#X obj 319 52 / 100;
#X obj 269 250 line~;
#X obj 315 243 *~;
#X obj 214 174 random 10000;
#X obj 146 170 i;
#X obj 183 163 + 1;
#X obj 154 190 % 2;
#X obj 131 127 moses 75;
#X obj 129 87 random 100;
#X obj 656 86 random 3000;
#X obj 638 112 metro;
#X obj 638 136 random 127;
#X obj 638 160 mtof;
#X obj 589 299 line~;
#X obj 639 318 *~;
#X obj 589 179 t b b;
#X msg 583 244 1 40;
#X obj 557 209 del 100;
#X msg 553 258 0 60;
#X obj 737 372 delwrite~ delay1 1000;
#X obj 726 306 delread~ delay1;
#X obj 701 352 *~;
#X obj 661 356 +~;
#X obj 735 248 random 1000;
#X obj 841 247 random 9;
#X obj 841 300 / 10;
#X obj 639 294 +~;
#X obj 661 380 /~ 2;
#X obj 195 31 metro 5000;
#X obj 517 196 tgl 30 0 empty baoum empty 0 -6 0 8 -258699 -1 -1 1
1;
#X obj 86 9 tgl 30 0 empty baoum empty 0 -6 0 8 -44926 -1 -1 1 1;
#X obj 608 339 vsl 15 60 0 1 0 0 empty empty empty 0 -8 0 8 -262144
-1 -1 0 1;
#X obj 657 434 dac~;
#X obj 744 141 / 100;
#X obj 706 162 + 1;
#X obj 638 184 line 0 80;
#X obj 706 186 line 0 100;
#X obj 683 209 *;
#X floatatom 842 338 5 0 0 0 - - -;
#X obj 189 192 b;
#X obj 402 115 loadbang;
#X obj 204 545 *~ 0.2;
#X obj 96 330 tgl 30 0 empty baoum empty 0 -6 0 8 -241291 -1 -1 1 1
;
#X obj 204 497 mtof;
#X obj 90 497 t b b;
#X msg 110 528 1;
#X msg 63 545 0;
#X obj 100 411 metro 100;
#X obj 204 569 *~;
#X obj 201 474 random 127;
#X obj 63 521 del 5;
#X obj 101 556 line~ 0 10;
#X obj 304 549 vd~ delay2;
#X obj 252 610 delwrite~ delay2 1000;
#X obj 359 413 *~ 0.5;
#X obj 359 437 +~ 0.5;
#X obj 359 461 *~ 1000;
#X obj 293 576 *~;
#X obj 296 468 / 10;
#X obj 252 582 +~;
#X obj 228 626 dac~;
#X obj 35 477 vsl 15 60 0 1 0 0 empty empty empty 0 -8 0 8 -262144
-1 -1 0 1;
#X obj 285 392 metro 2000;
#X obj 753 29 bng 60 250 50 0 baoum empty Cliquez-moi!! 0 -6 0 8 -250685
-99865 -1;
#X msg 201 239 0;
#X floatatom 348 504 5 0 0 0 - - -;
#X obj 359 389 osc~ 1;
#X floatatom 82 113 5 0 0 0 - - -;
#X obj 609 471 + 11;
#X obj 569 492 + 7;
#X obj 552 441 random 100;
#X obj 529 580 +~;
#X obj 583 580 +~;
#X obj 583 604 *~;
#X obj 663 593 line~ 0 1000;
#X obj 689 528 t b b;
#X obj 658 552 del 1000;
#X obj 466 384 random 5000;
#X obj 488 437 metro;
#X obj 452 453 tgl 30 0 empty baoum empty 0 -6 0 8 -24198 -1 -1 1 1
;
#X obj 551 654 dac~;
#X obj 499 571 vsl 15 60 0 1 0 0 empty empty empty 0 -8 0 8 -262144
-1 -1 0 1;
#X obj 529 517 mtof;
#X obj 573 528 mtof;
#X obj 625 503 mtof;
#X floatatom 487 497 5 0 0 0 - - -;
#X obj 501 408 + 2000;
#X msg 729 564 1 1000;
#X obj 600 649 delwrite~ delay3 2000;
#X obj 625 625 +~;
#X obj 751 591 delread~ delay3 1000;
#X obj 751 615 *~ 0.6;
#X obj 204 521 osc~;
#X obj 632 532 osc~;
#X obj 573 552 osc~;
#X obj 529 541 osc~;
#X obj 523 632 *~ 0.2;
#X obj 315 267 *~ 0.1;
#X obj 165 471 *~;
#X obj 247 421 - 1;
#X obj 247 445 abs;
#X obj 261 511 *~;
#X obj 190 392 random 2;
#X obj 661 404 *~ 0.5;
#X obj 87 589 clip~ -0.7 0.7;
#X obj 296 444 random 12;
#X obj 444 856 phasor~;
#X obj 452 822 mtof;
#X obj 452 798 random 100;
#X obj 452 774 metro 125;
#X obj 537 834 vsl 15 60 0 1 0 0 empty empty empty 0 -8 0 8 -262144
-1 -1 0 1;
#X obj 416 879 line~;
#X obj 362 849 random 10000;
#X obj 290 852 i;
#X obj 330 852 + 1;
#X obj 290 877 % 2;
#X obj 314 763 random 100;
#X obj 342 896 b;
#X msg 364 917 0;
#X floatatom 271 786 5 0 0 0 - - -;
#X obj 467 899 *~;
#X obj 438 308 tgl 30 0 empty baoum empty 0 -6 0 8 -1 -262144 -1 1
1;
#X obj 606 836 osc~;
#X obj 599 767 random 10;
#X obj 606 812 / 10;
#X obj 606 860 *~ 0.5;
#X obj 582 897 -~ 0.5;
#X obj 656 908 +~ 0.5;
#X obj 505 957 *~;
#X obj 678 960 *~;
#X obj 591 925 abs~;
#X floatatom 700 800 5 0 0 0 - - -;
#X obj 302 809 moses 65;
#X obj 467 923 *~ 0.07;
#X msg 653 574 0 100;
#X obj 339 727 metro 10000;
#X obj 170 620 *~ 0.5;
#X obj 638 208 osc~;
#X obj 683 278 osc~;
#X obj 319 76 osc~;
#X floatatom 86 226 5 0 0 0 - - -;
#X obj 108 162 b;
#X obj 252 833 b;
#X floatatom 561 153 5 0 0 0 - - -;
#X obj 744 117 random 100;
#X floatatom 843 149 5 0 0 0 - - -;
#X msg 195 265 1;
#X obj 923 135 time;
#X obj 883 168 s h;
#X obj 917 177 s m;
#X obj 936 196 s s;
#X obj 487 6 r h;
#X obj 569 11 r m;
#X obj 530 24 r s;
#X obj 627 19 r mi;
#X obj 960 161 s mi;
#X msg 405 51 seed \$1;
#X msg 446 129 seed \$1;
#X msg 561 56 seed \$1;
#X msg 627 52 seed \$1;
#X obj 923 80 bng 40 250 50 0 empty empty Seed 0 -6 0 8 -1 -262144
-1;
#X floatatom 290 907 5 0 0 0 - - -;
#X floatatom 879 216 5 0 0 0 - - -;
#X floatatom 925 228 5 0 0 0 - - -;
#X floatatom 944 253 5 0 0 0 - - -;
#X floatatom 960 234 5 0 0 0 - - -;
#X obj 755 1 loadbang;
#X obj 546 983 patchComs;
#X obj 546 1008 switch~;
#X connect 0 0 107 1;
#X connect 1 0 2 0;
#X connect 2 0 12 0;
#X connect 3 0 4 0;
#X connect 4 0 7 0;
#X connect 6 0 2 1;
#X connect 7 0 6 0;
#X connect 8 0 2 2;
#X connect 9 0 10 0;
#X connect 10 0 149 0;
#X connect 11 0 12 1;
#X connect 12 0 107 0;
#X connect 13 0 11 1;
#X connect 14 0 16 0;
#X connect 15 0 14 1;
#X connect 16 0 11 0;
#X connect 16 0 49 0;
#X connect 16 0 150 0;
#X connect 16 0 15 0;
#X connect 17 1 151 0;
#X connect 18 0 17 0;
#X connect 18 0 77 0;
#X connect 19 0 20 1;
#X connect 20 0 19 0;
#X connect 20 0 21 0;
#X connect 20 0 34 0;
#X connect 20 0 33 0;
#X connect 20 0 154 0;
#X connect 21 0 22 0;
#X connect 21 0 25 0;
#X connect 21 0 153 0;
#X connect 22 0 45 0;
#X connect 23 0 24 1;
#X connect 24 0 32 0;
#X connect 25 0 27 0;
#X connect 25 1 26 0;
#X connect 26 0 23 0;
#X connect 27 0 28 0;
#X connect 28 0 23 0;
#X connect 30 0 31 0;
#X connect 31 0 32 1;
#X connect 32 0 29 0;
#X connect 32 0 37 0;
#X connect 33 0 30 0;
#X connect 34 0 35 0;
#X connect 35 0 31 1;
#X connect 35 0 48 0;
#X connect 36 0 24 0;
#X connect 37 0 113 0;
#X connect 38 0 9 0;
#X connect 38 0 18 0;
#X connect 39 0 20 0;
#X connect 40 0 38 0;
#X connect 41 0 113 1;
#X connect 43 0 44 0;
#X connect 44 0 46 0;
#X connect 45 0 47 0;
#X connect 45 0 147 0;
#X connect 46 0 47 1;
#X connect 47 0 148 0;
#X connect 49 0 13 0;
#X connect 50 0 8 0;
#X connect 51 0 58 0;
#X connect 52 0 57 0;
#X connect 52 0 72 0;
#X connect 53 0 102 0;
#X connect 54 0 60 0;
#X connect 54 1 55 0;
#X connect 55 0 61 0;
#X connect 56 0 61 0;
#X connect 57 0 54 0;
#X connect 57 0 59 0;
#X connect 57 0 112 0;
#X connect 58 0 69 0;
#X connect 59 0 53 0;
#X connect 60 0 56 0;
#X connect 61 0 58 1;
#X connect 62 0 67 0;
#X connect 64 0 65 0;
#X connect 65 0 66 0;
#X connect 66 0 62 0;
#X connect 67 0 69 1;
#X connect 68 0 75 0;
#X connect 68 0 67 1;
#X connect 69 0 63 0;
#X connect 69 0 114 0;
#X connect 71 0 146 1;
#X connect 72 0 115 0;
#X connect 74 0 11 0;
#X connect 76 0 64 0;
#X connect 78 0 94 0;
#X connect 79 0 93 0;
#X connect 80 0 79 0;
#X connect 80 0 78 0;
#X connect 80 0 92 0;
#X connect 80 0 95 0;
#X connect 81 0 82 0;
#X connect 82 0 83 0;
#X connect 83 0 99 0;
#X connect 84 0 83 1;
#X connect 85 0 86 0;
#X connect 85 1 97 0;
#X connect 86 0 144 0;
#X connect 87 0 96 0;
#X connect 88 0 87 0;
#X connect 88 0 80 0;
#X connect 88 0 85 0;
#X connect 89 0 88 0;
#X connect 91 0 106 1;
#X connect 92 0 105 0;
#X connect 93 0 104 0;
#X connect 94 0 103 0;
#X connect 96 0 88 1;
#X connect 97 0 84 0;
#X connect 99 0 98 0;
#X connect 99 0 106 0;
#X connect 100 0 101 0;
#X connect 101 0 99 1;
#X connect 102 0 51 0;
#X connect 103 0 82 1;
#X connect 104 0 81 1;
#X connect 105 0 81 0;
#X connect 106 0 90 0;
#X connect 106 0 90 1;
#X connect 107 0 5 0;
#X connect 107 0 5 1;
#X connect 108 0 70 0;
#X connect 109 0 110 0;
#X connect 110 0 111 1;
#X connect 111 0 70 1;
#X connect 112 0 108 1;
#X connect 112 0 109 0;
#X connect 113 0 42 0;
#X connect 113 0 42 1;
#X connect 114 0 146 0;
#X connect 115 0 68 0;
#X connect 116 0 130 0;
#X connect 117 0 116 0;
#X connect 118 0 117 0;
#X connect 119 0 118 0;
#X connect 120 0 143 1;
#X connect 121 0 130 1;
#X connect 122 0 121 1;
#X connect 123 0 125 0;
#X connect 124 0 123 1;
#X connect 125 0 121 0;
#X connect 125 0 127 0;
#X connect 125 0 171 0;
#X connect 125 0 124 0;
#X connect 126 0 129 0;
#X connect 126 0 142 0;
#X connect 127 0 122 0;
#X connect 128 0 121 0;
#X connect 130 0 143 0;
#X connect 131 0 119 0;
#X connect 131 0 145 0;
#X connect 132 0 135 0;
#X connect 133 0 134 0;
#X connect 133 0 141 0;
#X connect 134 0 132 0;
#X connect 135 0 136 0;
#X connect 135 0 137 0;
#X connect 136 0 140 0;
#X connect 137 0 139 0;
#X connect 138 0 177 0;
#X connect 139 0 177 1;
#X connect 140 0 138 0;
#X connect 142 1 152 0;
#X connect 143 0 138 1;
#X connect 143 0 139 1;
#X connect 144 0 84 0;
#X connect 145 0 126 0;
#X connect 145 0 133 0;
#X connect 146 0 108 0;
#X connect 146 0 111 0;
#X connect 147 0 36 0;
#X connect 148 0 36 1;
#X connect 149 0 3 0;
#X connect 151 0 14 0;
#X connect 152 0 123 0;
#X connect 154 0 43 0;
#X connect 154 0 155 0;
#X connect 156 0 11 0;
#X connect 157 0 158 0;
#X connect 157 0 172 0;
#X connect 157 1 159 0;
#X connect 157 1 173 0;
#X connect 157 2 160 0;
#X connect 157 2 174 0;
#X connect 157 3 165 0;
#X connect 157 3 175 0;
#X connect 161 0 166 0;
#X connect 162 0 168 0;
#X connect 163 0 167 0;
#X connect 164 0 169 0;
#X connect 166 0 9 0;
#X connect 166 0 34 0;
#X connect 166 0 112 0;
#X connect 166 0 87 0;
#X connect 166 0 126 0;
#X connect 167 0 13 0;
#X connect 167 0 154 0;
#X connect 167 0 115 0;
#X connect 167 0 122 0;
#X connect 167 0 133 0;
#X connect 168 0 18 0;
#X connect 168 0 19 0;
#X connect 168 0 80 0;
#X connect 169 0 33 0;
#X connect 169 0 59 0;
#X connect 169 0 118 0;
#X connect 170 0 157 0;
#X connect 176 0 73 0;
#X connect 177 0 178 0;
