#N canvas 0 195 449 178 10;
#X obj 27 16 bng 30 250 50 0 \$0-start-s \$0-start-r start 0 -8 1 10
-260818 -1 -1;
#N canvas -1605 120 695 857 \$0-internals 1;
#X obj 49 126 f;
#X obj 92 121 + 1;
#X obj 93 142 mod 512;
#X obj 302 221 list prepend sinesum 0;
#X obj 304 245 list trim;
#X obj 302 270 t b a;
#X msg 302 293 normalize 1;
#X obj 301 174 select 0;
#X obj 415 154 loadbang;
#X obj 167 101 mod 128;
#X obj 166 121 select 0;
#X obj 166 141 f;
#X obj 206 141 + 1;
#X obj 207 170 mod 512;
#X obj 49 169 t f f f;
#X obj 165 172 t f f;
#N canvas 0 0 1573 779 \$0-chordseq 0;
#X obj 19 19 inlet;
#X obj 19 91 f 0;
#X obj 19 113 t f f;
#X obj 22 683 outlet;
#X obj 106 651 f;
#X obj 106 329 random 4;
#X msg 106 415 5;
#X obj 106 461 f;
#X obj 106 353 select 0;
#X obj 157 398 random 8;
#X obj 157 376 bang;
#X obj 157 418 + 1;
#X text 130 300 I;
#X obj 65 28 + 1;
#X obj 65 50 mod 4;
#X obj 19 48 t b b;
#X obj 49 70 f 1;
#X obj 555 208 == 0;
#X text 592 209 cadence;
#X text 280 305 II;
#X obj 254 333 spigot;
#X obj 254 464 f;
#X obj 306 332 spigot;
#X obj 648 209 != 0;
#X text 689 208 no cadence;
#X msg 254 420 4;
#X obj 306 354 random 4;
#X obj 306 376 select 0;
#X obj 357 397 bang;
#X msg 306 420 2;
#X msg 357 419 3;
#X obj 397 337 spigot;
#X obj 398 481 f;
#X obj 449 336 spigot;
#X msg 397 424 4;
#X obj 449 358 random 4;
#X obj 449 380 select 0;
#X obj 500 401 bang;
#X text 432 309 II7;
#X msg 449 424 1;
#X obj 500 422 random 6;
#X obj 500 444 + 3;
#X obj 578 344 spigot;
#X obj 579 488 f;
#X obj 654 344 spigot;
#X obj 654 388 select 0;
#X obj 726 407 bang;
#X text 606 316 IV;
#X obj 579 367 random 10;
#X obj 579 389 select 0;
#X msg 578 431 0;
#X obj 612 414 bang;
#X msg 612 436 4;
#X obj 654 366 random 2;
#X obj 654 409 random 2;
#X msg 723 431 6;
#X obj 653 433 + 1;
#X obj 798 347 spigot;
#X obj 801 477 f;
#X obj 854 344 spigot;
#X obj 854 388 select 0;
#X text 840 316 V;
#X obj 854 366 random 3;
#X msg 854 434 5;
#X obj 890 435 + 6;
#X obj 950 343 spigot;
#X obj 956 483 f;
#X obj 1005 340 spigot;
#X text 991 312 V7;
#X msg 802 433 0;
#X msg 951 430 0;
#X msg 1005 431 4;
#X obj 1104 480 f;
#X obj 1105 370 select 0;
#X obj 1105 348 random 3;
#X msg 1104 412 0;
#X obj 1152 413 + 1;
#X obj 1195 346 spigot;
#X obj 1195 474 f;
#X obj 1271 346 spigot;
#X text 1122 313 VI;
#X obj 559 105 select 0 1 2 3 4 5 6 7 8;
#X msg 1195 411 0;
#X msg 1273 430 8;
#X obj 1381 353 spigot;
#X obj 1381 481 f;
#X obj 1457 353 spigot;
#X msg 1381 418 0;
#X text 1257 318 VII;
#X text 1443 325 VII7;
#X msg 1459 427 7;
#X obj 1005 362 random 3;
#X obj 1005 384 select 0;
#X obj 1056 429 + 6;
#X obj 1271 368 random 3;
#X obj 1271 390 select 0;
#X obj 1304 430 + 3;
#X obj 1458 375 random 3;
#X obj 1457 398 select 0;
#X obj 1491 427 + 3;
#X obj 830 721 outlet;
#X obj 832 519 random 4;
#X text 819 747 modulation;
#X obj 832 542 select 0;
#X obj 865 591 random 2;
#X obj 830 679 f 54;
#X obj 891 664 +;
#X obj 890 685 mod 12;
#X obj 891 705 + 48;
#X obj 866 612 select 0 1;
#X msg 866 633 -7;
#X msg 897 634 7;
#X obj 835 568 t b b;
#X connect 0 0 15 0;
#X connect 1 0 2 0;
#X connect 2 0 3 0;
#X connect 2 1 81 0;
#X connect 4 0 1 1;
#X connect 5 0 8 0;
#X connect 6 0 7 0;
#X connect 7 0 4 0;
#X connect 8 0 6 0;
#X connect 8 1 10 0;
#X connect 9 0 11 0;
#X connect 10 0 9 0;
#X connect 11 0 7 0;
#X connect 13 0 14 0;
#X connect 14 0 16 1;
#X connect 15 0 1 0;
#X connect 15 1 16 0;
#X connect 16 0 13 0;
#X connect 16 0 17 0;
#X connect 16 0 23 0;
#X connect 17 0 20 1;
#X connect 17 0 31 1;
#X connect 17 0 42 1;
#X connect 17 0 57 1;
#X connect 17 0 65 1;
#X connect 17 0 77 1;
#X connect 17 0 84 1;
#X connect 20 0 25 0;
#X connect 21 0 4 0;
#X connect 22 0 26 0;
#X connect 23 0 22 1;
#X connect 23 0 33 1;
#X connect 23 0 44 1;
#X connect 23 0 59 1;
#X connect 23 0 67 1;
#X connect 23 0 79 1;
#X connect 23 0 86 1;
#X connect 25 0 21 0;
#X connect 26 0 27 0;
#X connect 27 0 29 0;
#X connect 27 1 28 0;
#X connect 28 0 30 0;
#X connect 29 0 21 0;
#X connect 30 0 21 0;
#X connect 31 0 34 0;
#X connect 32 0 4 0;
#X connect 33 0 35 0;
#X connect 34 0 32 0;
#X connect 35 0 36 0;
#X connect 36 0 39 0;
#X connect 36 1 37 0;
#X connect 37 0 40 0;
#X connect 39 0 32 0;
#X connect 40 0 41 0;
#X connect 41 0 32 0;
#X connect 42 0 48 0;
#X connect 43 0 4 0;
#X connect 44 0 53 0;
#X connect 45 0 54 0;
#X connect 45 1 46 0;
#X connect 46 0 55 0;
#X connect 48 0 49 0;
#X connect 49 0 50 0;
#X connect 49 1 51 0;
#X connect 50 0 43 0;
#X connect 51 0 52 0;
#X connect 52 0 43 0;
#X connect 53 0 45 0;
#X connect 54 0 56 0;
#X connect 55 0 43 0;
#X connect 56 0 43 0;
#X connect 57 0 101 0;
#X connect 57 0 69 0;
#X connect 58 0 4 0;
#X connect 59 0 62 0;
#X connect 60 0 63 0;
#X connect 60 1 64 0;
#X connect 62 0 60 0;
#X connect 63 0 58 0;
#X connect 64 0 58 0;
#X connect 65 0 101 0;
#X connect 65 0 70 0;
#X connect 66 0 4 0;
#X connect 67 0 91 0;
#X connect 69 0 58 0;
#X connect 70 0 66 0;
#X connect 71 0 66 0;
#X connect 72 0 4 0;
#X connect 73 0 75 0;
#X connect 73 1 76 0;
#X connect 74 0 73 0;
#X connect 75 0 72 0;
#X connect 76 0 72 0;
#X connect 77 0 82 0;
#X connect 78 0 4 0;
#X connect 79 0 94 0;
#X connect 81 0 5 0;
#X connect 81 1 20 0;
#X connect 81 1 22 0;
#X connect 81 2 31 0;
#X connect 81 2 33 0;
#X connect 81 3 42 0;
#X connect 81 3 44 0;
#X connect 81 4 57 0;
#X connect 81 4 59 0;
#X connect 81 5 65 0;
#X connect 81 5 67 0;
#X connect 81 6 74 0;
#X connect 81 7 77 0;
#X connect 81 7 79 0;
#X connect 81 8 84 0;
#X connect 81 8 86 0;
#X connect 82 0 78 0;
#X connect 83 0 78 0;
#X connect 84 0 87 0;
#X connect 85 0 4 0;
#X connect 86 0 97 0;
#X connect 87 0 85 0;
#X connect 90 0 85 0;
#X connect 91 0 92 0;
#X connect 92 0 71 0;
#X connect 92 1 93 0;
#X connect 93 0 66 0;
#X connect 94 0 95 0;
#X connect 95 0 83 0;
#X connect 95 1 96 0;
#X connect 96 0 78 0;
#X connect 97 0 98 0;
#X connect 98 0 90 0;
#X connect 98 1 99 0;
#X connect 99 0 85 0;
#X connect 101 0 103 0;
#X connect 103 0 112 0;
#X connect 104 0 109 0;
#X connect 105 0 100 0;
#X connect 105 0 106 0;
#X connect 106 0 107 0;
#X connect 107 0 108 0;
#X connect 108 0 105 1;
#X connect 109 0 110 0;
#X connect 109 1 111 0;
#X connect 110 0 106 1;
#X connect 111 0 106 1;
#X connect 112 0 105 0;
#X connect 112 1 104 0;
#X restore 195 238 pd \$0-chordseq;
#N canvas 128 181 542 370 \$0-chords 0;
#X obj 18 13 inlet;
#X obj 20 331 outlet;
#X obj 20 302 list prepend 0;
#X obj 18 41 select 0 1 2 3 4 5 6 7 8;
#X msg 18 71 0 3 7 12;
#X msg 39 94 2 5 8 14;
#X msg 60 116 2 5 8 12;
#X msg 82 139 0 5 8 12;
#X msg 100 163 2 7 10 14;
#X msg 119 186 2 5 7 10;
#X msg 138 206 0 3 8 15;
#X msg 157 227 2 5 10 17;
#X msg 173 251 2 5 8 10;
#X obj 364 201 outlet;
#X msg 243 160 0;
#X msg 276 160 2;
#X msg 306 160 2;
#X msg 339 160 4;
#X msg 373 159 7;
#X msg 405 160 7;
#X msg 438 161 8;
#X msg 470 160 10;
#X msg 500 160 10;
#X connect 0 0 3 0;
#X connect 2 0 1 0;
#X connect 3 0 4 0;
#X connect 3 0 14 0;
#X connect 3 1 5 0;
#X connect 3 1 15 0;
#X connect 3 2 6 0;
#X connect 3 2 16 0;
#X connect 3 3 7 0;
#X connect 3 3 17 0;
#X connect 3 4 8 0;
#X connect 3 4 18 0;
#X connect 3 5 9 0;
#X connect 3 5 19 0;
#X connect 3 6 10 0;
#X connect 3 6 20 0;
#X connect 3 7 11 0;
#X connect 3 7 21 0;
#X connect 3 8 12 0;
#X connect 3 8 22 0;
#X connect 4 0 2 0;
#X connect 5 0 2 0;
#X connect 6 0 2 0;
#X connect 7 0 2 0;
#X connect 8 0 2 0;
#X connect 9 0 2 0;
#X connect 10 0 2 0;
#X connect 11 0 2 0;
#X connect 12 0 2 0;
#X connect 14 0 13 0;
#X connect 15 0 13 0;
#X connect 16 0 13 0;
#X connect 17 0 13 0;
#X connect 18 0 13 0;
#X connect 19 0 13 0;
#X connect 20 0 13 0;
#X connect 21 0 13 0;
#X connect 22 0 13 0;
#X restore 195 263 pd \$0-chords;
#X obj 195 289 s \$0-scale;
#X obj 212 67 table \$0-scale 4;
#X obj 306 652 hip~ 10;
#X obj 110 653 hip~ 10;
#N canvas 0 0 640 486 \$0-phaser 0;
#X obj 262 229 rpole~;
#X obj 262 205 rzero_rev~;
#X obj 262 278 rpole~;
#X obj 262 253 rzero_rev~;
#X obj 262 326 rpole~;
#X obj 262 301 rzero_rev~;
#X obj 262 375 rpole~;
#X obj 262 350 rzero_rev~;
#X obj 217 396 +~;
#X obj 313 107 expr~ 1 - 0.03 - 0.6*abs($v1-0.5)*abs($v1-0.5);
#X obj 76 229 rpole~;
#X obj 76 204 rzero_rev~;
#X obj 76 278 rpole~;
#X obj 76 253 rzero_rev~;
#X obj 76 326 rpole~;
#X obj 76 301 rzero_rev~;
#X obj 76 375 rpole~;
#X obj 76 350 rzero_rev~;
#X obj 29 395 +~;
#X obj 112 86 expr~ 1 - 0.03 - 0.6*abs($v1-0.5)*abs($v1-0.5);
#X msg 412 40 0;
#X msg 212 39 0.25;
#X obj 319 14 loadbang;
#X obj 114 62 phasor~ 0.12207;
#X obj 312 61 phasor~ 0.12207;
#X obj 57 145 inlet~;
#X obj 244 144 inlet~;
#X obj 29 446 outlet~;
#X obj 216 444 outlet~;
#X obj 32 174 hip~ 333;
#X obj 218 175 hip~ 333;
#X obj 216 421 *~ 2;
#X obj 29 424 *~ 2;
#X connect 0 0 3 0;
#X connect 1 0 0 0;
#X connect 2 0 5 0;
#X connect 3 0 2 0;
#X connect 4 0 7 0;
#X connect 5 0 4 0;
#X connect 6 0 8 1;
#X connect 7 0 6 0;
#X connect 8 0 31 0;
#X connect 9 0 1 1;
#X connect 9 0 0 1;
#X connect 9 0 3 1;
#X connect 9 0 2 1;
#X connect 9 0 5 1;
#X connect 9 0 4 1;
#X connect 9 0 7 1;
#X connect 9 0 6 1;
#X connect 10 0 13 0;
#X connect 11 0 10 0;
#X connect 12 0 15 0;
#X connect 13 0 12 0;
#X connect 14 0 17 0;
#X connect 15 0 14 0;
#X connect 16 0 18 1;
#X connect 17 0 16 0;
#X connect 18 0 32 0;
#X connect 19 0 11 1;
#X connect 19 0 10 1;
#X connect 19 0 13 1;
#X connect 19 0 12 1;
#X connect 19 0 15 1;
#X connect 19 0 14 1;
#X connect 19 0 17 1;
#X connect 19 0 16 1;
#X connect 20 0 24 1;
#X connect 21 0 23 1;
#X connect 22 0 21 0;
#X connect 22 0 20 0;
#X connect 23 0 19 0;
#X connect 24 0 9 0;
#X connect 25 0 29 0;
#X connect 26 0 30 0;
#X connect 29 0 18 0;
#X connect 29 0 11 0;
#X connect 30 0 1 0;
#X connect 30 0 8 0;
#X connect 31 0 28 0;
#X connect 32 0 27 0;
#X restore 30 555 pd \$0-phaser;
#N canvas 0 0 558 342 \$0-delays 0;
#X obj 13 13 inlet~;
#X obj 251 11 inlet~;
#X obj 414 13 inlet;
#X obj 15 261 *~;
#X obj 223 248 *~;
#X obj 417 210 vline~;
#X obj 412 243 *~;
#X obj 271 101 *~;
#X obj 270 169 *~;
#X obj 53 101 *~;
#X obj 53 173 *~;
#X obj 415 118 change -1;
#X obj 414 40 t f f;
#X obj 415 70 - 0;
#X obj 415 96 > 0;
#X obj 416 141 select 0 1;
#X obj 302 172 *~ -1;
#X obj 15 288 expr~ 0.5*tanh($v1);
#X obj 225 278 expr~ 0.5*tanh($v1);
#X obj 14 314 outlet~;
#X obj 221 310 outlet~;
#X msg 418 186 \$1 100 \, 0 10 100;
#X obj 417 166 f 0.9;
#X obj 18 78 delwrite~ \$0-del1-l1 1000;
#X obj 19 125 delread~ \$0-del1-r1 576;
#X obj 17 152 delwrite~ \$0-del1-l2 1000;
#X obj 18 195 delread~ \$0-del1-r2 384;
#X obj 227 78 delwrite~ \$0-del1-r1 1000;
#X obj 227 121 delread~ \$0-del1-l1 384;
#X obj 227 148 delwrite~ \$0-del1-r2 1000;
#X obj 226 192 delread~ \$0-del1-l2 576;
#X connect 0 0 23 0;
#X connect 1 0 27 0;
#X connect 2 0 12 0;
#X connect 3 0 17 0;
#X connect 4 0 18 0;
#X connect 5 0 6 0;
#X connect 5 0 6 1;
#X connect 6 0 7 1;
#X connect 6 0 4 1;
#X connect 6 0 10 1;
#X connect 6 0 3 1;
#X connect 6 0 16 0;
#X connect 7 0 4 0;
#X connect 7 0 27 0;
#X connect 8 0 4 0;
#X connect 8 0 29 0;
#X connect 9 0 3 0;
#X connect 9 0 23 0;
#X connect 10 0 3 0;
#X connect 10 0 25 0;
#X connect 11 0 15 0;
#X connect 12 0 13 1;
#X connect 12 1 13 0;
#X connect 13 0 14 0;
#X connect 14 0 11 0;
#X connect 15 0 22 0;
#X connect 16 0 9 1;
#X connect 16 0 8 1;
#X connect 17 0 19 0;
#X connect 18 0 20 0;
#X connect 21 0 5 0;
#X connect 22 0 21 0;
#X connect 24 0 9 0;
#X connect 24 0 25 0;
#X connect 26 0 10 0;
#X connect 28 0 7 0;
#X connect 28 0 29 0;
#X connect 30 0 8 0;
#X restore 32 531 pd \$0-delays;
#N canvas 64 260 645 712 \$0-melopad 0;
#X obj 33 8 inlet;
#X obj 210 15 inlet;
#X obj 61 133 change -1;
#X obj 33 52 t f f;
#X obj 61 85 - 0;
#X obj 61 111 > 0;
#X obj 62 156 select 0 1;
#X obj 295 391 mtof~;
#X obj 283 194 f;
#X obj 139 384 mtof~;
#X obj 139 184 f;
#X obj 98 644 *~;
#X obj 157 591 vline~;
#X obj 140 301 tabread \$0-scale;
#X obj 140 245 t f f;
#X obj 183 258 * 12;
#X obj 141 327 +;
#X obj 296 333 +;
#X obj 279 256 t f f;
#X obj 325 269 * 12;
#X obj 279 307 tabread \$0-scale;
#X obj 157 612 *~;
#X obj 214 640 *~;
#X obj 564 440 random 100;
#X obj 564 460 / 100;
#X obj 420 440 random 100;
#X obj 420 460 / 100;
#X obj 271 441 random 100;
#X obj 271 461 / 100;
#X obj 136 442 random 100;
#X obj 136 462 / 100;
#X obj 71 186 bang;
#X obj 141 224 +;
#X obj 281 236 +;
#X obj 211 129 * 3;
#X obj 295 409 lop~ 66;
#X obj 135 405 lop~ 66;
#X obj 140 280 mod 4;
#X obj 279 287 mod 4;
#X obj 183 236 div 4;
#X obj 325 249 div 4;
#X obj 282 214 * 8;
#X obj 139 205 * 8;
#X obj 33 30 t f f;
#X obj 99 669 outlet~;
#X obj 215 671 outlet~;
#X obj 506 377 bang;
#X obj 506 355 loadbang;
#X obj 486 354 bng 15 250 50 0 empty empty empty 17 7 0 10 -262144
-1 -1;
#X obj 359 672 outlet;
#X msg 157 569 \$1 3 \, 0 234 3;
#X obj 158 547 f 0.7;
#X obj 27 502 tabosc4~ \$0-left;
#X obj 166 502 tabosc4~ \$0-left;
#X obj 310 505 tabosc4~ \$0-left;
#X obj 453 506 tabosc4~ \$0-left;
#X obj 211 108 tabread4 \$0-left;
#X obj 251 611 *~ 0.25;
#X obj 183 277 + 54;
#X obj 324 288 + 54;
#X obj 447 18 inlet;
#X obj 296 352 mod 36;
#X obj 296 371 + 36;
#X obj 142 347 mod 36;
#X obj 142 366 + 36;
#X connect 0 0 43 0;
#X connect 1 0 56 0;
#X connect 2 0 6 0;
#X connect 3 0 4 1;
#X connect 3 1 4 0;
#X connect 4 0 5 0;
#X connect 4 0 49 0;
#X connect 5 0 2 0;
#X connect 6 0 10 0;
#X connect 6 0 31 0;
#X connect 6 1 8 0;
#X connect 6 1 31 0;
#X connect 7 0 35 0;
#X connect 8 0 41 0;
#X connect 9 0 36 0;
#X connect 10 0 42 0;
#X connect 11 0 44 0;
#X connect 12 0 21 0;
#X connect 12 0 21 1;
#X connect 13 0 16 0;
#X connect 14 0 37 0;
#X connect 14 1 39 0;
#X connect 15 0 58 0;
#X connect 16 0 63 0;
#X connect 17 0 61 0;
#X connect 18 0 38 0;
#X connect 18 1 40 0;
#X connect 19 0 59 0;
#X connect 20 0 17 0;
#X connect 21 0 11 1;
#X connect 21 0 22 0;
#X connect 22 0 45 0;
#X connect 23 0 24 0;
#X connect 24 0 55 1;
#X connect 25 0 26 0;
#X connect 26 0 54 1;
#X connect 27 0 28 0;
#X connect 28 0 53 1;
#X connect 29 0 30 0;
#X connect 30 0 52 1;
#X connect 31 0 51 0;
#X connect 32 0 14 0;
#X connect 33 0 18 0;
#X connect 34 0 32 1;
#X connect 34 0 33 1;
#X connect 35 0 53 0;
#X connect 35 0 55 0;
#X connect 36 0 52 0;
#X connect 36 0 54 0;
#X connect 37 0 13 0;
#X connect 38 0 20 0;
#X connect 39 0 15 0;
#X connect 40 0 19 0;
#X connect 41 0 33 0;
#X connect 42 0 32 0;
#X connect 43 0 3 0;
#X connect 43 1 8 1;
#X connect 43 1 10 1;
#X connect 46 0 29 0;
#X connect 46 0 23 0;
#X connect 46 0 25 0;
#X connect 46 0 27 0;
#X connect 47 0 46 0;
#X connect 48 0 46 0;
#X connect 50 0 12 0;
#X connect 51 0 50 0;
#X connect 52 0 11 0;
#X connect 53 0 11 0;
#X connect 54 0 57 0;
#X connect 55 0 57 0;
#X connect 56 0 34 0;
#X connect 57 0 22 1;
#X connect 58 0 16 1;
#X connect 59 0 17 1;
#X connect 60 0 59 1;
#X connect 60 0 58 1;
#X connect 61 0 62 0;
#X connect 62 0 7 0;
#X connect 63 0 64 0;
#X connect 64 0 9 0;
#X restore 37 396 pd \$0-melopad;
#X obj 24 39 delay 1000;
#N canvas 16 58 1556 528 \$0-oscbanks 0;
#X obj 11 238 snapshot~;
#X obj 87 239 snapshot~;
#X obj 171 239 snapshot~;
#X obj 257 239 snapshot~;
#X obj 333 240 snapshot~;
#X obj 417 240 snapshot~;
#X obj 504 244 snapshot~;
#X obj 580 245 snapshot~;
#X obj 606 170 random 100;
#X obj 606 190 / 100;
#X obj 528 170 random 100;
#X obj 528 190 / 100;
#X obj 445 170 random 100;
#X obj 445 190 / 100;
#X obj 362 170 random 100;
#X obj 362 190 / 100;
#X obj 285 172 random 100;
#X obj 285 192 / 100;
#X obj 207 172 random 100;
#X obj 207 192 / 100;
#X obj 124 172 random 100;
#X obj 124 192 / 100;
#X obj 41 172 random 100;
#X obj 41 192 / 100;
#X obj 713 38 bang;
#X obj 713 16 inlet;
#X obj 324 0 inlet;
#X obj 672 241 snapshot~;
#X obj 756 241 snapshot~;
#X obj 843 245 snapshot~;
#X obj 919 246 snapshot~;
#X obj 945 171 random 100;
#X obj 945 191 / 100;
#X obj 867 171 random 100;
#X obj 867 191 / 100;
#X obj 784 171 random 100;
#X obj 784 191 / 100;
#X obj 701 171 random 100;
#X obj 701 191 / 100;
#X obj 309 502 outlet;
#X obj 920 272 / 12;
#X obj 840 272 / 11;
#X obj 756 266 / 10;
#X obj 671 268 / 9;
#X obj 585 270 / 8;
#X obj 505 270 / 7;
#X obj 421 264 / 6;
#X obj 336 266 / 5;
#X obj 270 274 / 4;
#X obj 190 274 / 3;
#X obj 107 271 / 2;
#X obj 21 270 / 1;
#X obj 1017 236 snapshot~;
#X obj 1101 236 snapshot~;
#X obj 1188 240 snapshot~;
#X obj 1264 241 snapshot~;
#X obj 1290 166 random 100;
#X obj 1290 186 / 100;
#X obj 1212 166 random 100;
#X obj 1212 186 / 100;
#X obj 1129 166 random 100;
#X obj 1129 186 / 100;
#X obj 1046 166 random 100;
#X obj 1046 186 / 100;
#X obj 1016 263 / 13;
#X obj 1101 261 / 14;
#X obj 1186 267 / 15;
#X obj 1265 267 / 16;
#X obj 309 480 pack f f f f f f f f f f f f f f f f;
#X obj 323 43 t b b b b b b b b b b b b b b b b;
#X obj 13 390 snapshot~;
#X obj 89 391 snapshot~;
#X obj 173 391 snapshot~;
#X obj 259 391 snapshot~;
#X obj 335 392 snapshot~;
#X obj 419 392 snapshot~;
#X obj 506 396 snapshot~;
#X obj 582 397 snapshot~;
#X obj 674 393 snapshot~;
#X obj 758 393 snapshot~;
#X obj 845 397 snapshot~;
#X obj 921 398 snapshot~;
#X obj 585 498 outlet;
#X obj 922 424 / 12;
#X obj 842 424 / 11;
#X obj 758 418 / 10;
#X obj 673 420 / 9;
#X obj 587 422 / 8;
#X obj 507 422 / 7;
#X obj 423 416 / 6;
#X obj 338 418 / 5;
#X obj 272 426 / 4;
#X obj 192 426 / 3;
#X obj 109 423 / 2;
#X obj 23 422 / 1;
#X obj 1019 388 snapshot~;
#X obj 1103 388 snapshot~;
#X obj 1190 392 snapshot~;
#X obj 1266 393 snapshot~;
#X obj 1018 415 / 13;
#X obj 1103 413 / 14;
#X obj 1188 419 / 15;
#X obj 1267 419 / 16;
#X obj 585 476 pack f f f f f f f f f f f f f f f f;
#X obj 324 21 t b b;
#X obj 356 306 t b b b b b b b b b b b b b b b b;
#X obj 1183 18 inlet;
#X obj 399 89 swap 1;
#X obj 399 111 /;
#X obj 449 111 /;
#X obj 499 111 /;
#X obj 552 111 /;
#X obj 599 111 /;
#X obj 649 111 /;
#X obj 699 111 /;
#X obj 749 111 /;
#X obj 449 89 swap 2;
#X obj 499 89 swap 3;
#X obj 804 111 /;
#X obj 857 112 /;
#X obj 911 111 /;
#X obj 965 111 /;
#X obj 1015 111 /;
#X obj 1069 112 /;
#X obj 1125 112 /;
#X obj 1179 112 /;
#X obj 1279 208 osc~;
#X obj 1193 210 osc~;
#X obj 1110 210 osc~;
#X obj 1025 211 osc~;
#X obj 934 213 osc~;
#X obj 848 215 osc~;
#X obj 765 216 osc~;
#X obj 680 217 osc~;
#X obj 595 212 osc~;
#X obj 509 213 osc~;
#X obj 425 215 osc~;
#X obj 341 216 osc~;
#X obj 256 216 osc~;
#X obj 171 217 osc~;
#X obj 87 218 osc~;
#X obj 10 218 osc~;
#X obj 13 339 * -1;
#X obj 93 341 * -1;
#X obj 12 369 osc~;
#X obj 92 370 osc~;
#X obj 173 368 osc~;
#X obj 258 368 osc~;
#X obj 343 368 osc~;
#X obj 427 367 osc~;
#X obj 511 366 osc~;
#X obj 586 371 osc~;
#X obj 682 369 osc~;
#X obj 767 368 osc~;
#X obj 850 367 osc~;
#X obj 937 365 osc~;
#X obj 1027 363 osc~;
#X obj 1112 363 osc~;
#X obj 1196 365 osc~;
#X obj 1282 363 osc~;
#X obj 175 339 * -1;
#X obj 255 341 * -1;
#X obj 346 343 * -1;
#X obj 426 345 * -1;
#X obj 508 343 * -1;
#X obj 588 345 * -1;
#X obj 691 336 * -1;
#X obj 771 338 * -1;
#X obj 853 336 * -1;
#X obj 933 338 * -1;
#X obj 1024 340 * -1;
#X obj 1104 342 * -1;
#X obj 1186 340 * -1;
#X obj 1266 342 * -1;
#X text 1230 16 period (s);
#X text 764 16 randomize;
#X text 370 5 snapshot;
#X obj 549 89 swap 4;
#X obj 599 89 swap 5;
#X obj 649 89 swap 6;
#X obj 699 89 swap 7;
#X obj 750 89 swap 8;
#X obj 804 89 swap 9;
#X obj 857 89 swap 10;
#X obj 911 89 swap 11;
#X obj 965 89 swap 12;
#X obj 1015 89 swap 13;
#X obj 1070 89 swap 14;
#X obj 1125 90 swap 15;
#X obj 1180 90 swap 16;
#X connect 0 0 51 0;
#X connect 1 0 50 0;
#X connect 2 0 49 0;
#X connect 3 0 48 0;
#X connect 4 0 47 0;
#X connect 5 0 46 0;
#X connect 6 0 45 0;
#X connect 7 0 44 0;
#X connect 8 0 9 0;
#X connect 9 0 134 1;
#X connect 9 0 151 1;
#X connect 10 0 11 0;
#X connect 11 0 135 1;
#X connect 11 0 150 1;
#X connect 12 0 13 0;
#X connect 13 0 136 1;
#X connect 13 0 149 1;
#X connect 14 0 15 0;
#X connect 15 0 137 1;
#X connect 15 0 148 1;
#X connect 16 0 17 0;
#X connect 17 0 138 1;
#X connect 17 0 147 1;
#X connect 18 0 19 0;
#X connect 19 0 139 1;
#X connect 19 0 146 1;
#X connect 20 0 21 0;
#X connect 21 0 140 1;
#X connect 21 0 145 1;
#X connect 22 0 23 0;
#X connect 23 0 141 1;
#X connect 23 0 144 1;
#X connect 24 0 8 0;
#X connect 24 0 10 0;
#X connect 24 0 12 0;
#X connect 24 0 14 0;
#X connect 24 0 16 0;
#X connect 24 0 18 0;
#X connect 24 0 20 0;
#X connect 24 0 22 0;
#X connect 24 0 37 0;
#X connect 24 0 35 0;
#X connect 24 0 33 0;
#X connect 24 0 31 0;
#X connect 24 0 62 0;
#X connect 24 0 60 0;
#X connect 24 0 58 0;
#X connect 24 0 56 0;
#X connect 25 0 24 0;
#X connect 26 0 104 0;
#X connect 27 0 43 0;
#X connect 28 0 42 0;
#X connect 29 0 41 0;
#X connect 30 0 40 0;
#X connect 31 0 32 0;
#X connect 32 0 130 1;
#X connect 32 0 155 1;
#X connect 33 0 34 0;
#X connect 34 0 131 1;
#X connect 34 0 154 1;
#X connect 35 0 36 0;
#X connect 36 0 132 1;
#X connect 36 0 153 1;
#X connect 37 0 38 0;
#X connect 38 0 133 1;
#X connect 38 0 152 1;
#X connect 40 0 68 11;
#X connect 41 0 68 10;
#X connect 42 0 68 9;
#X connect 43 0 68 8;
#X connect 44 0 68 7;
#X connect 45 0 68 6;
#X connect 46 0 68 5;
#X connect 47 0 68 4;
#X connect 48 0 68 3;
#X connect 49 0 68 2;
#X connect 50 0 68 1;
#X connect 51 0 68 0;
#X connect 52 0 64 0;
#X connect 53 0 65 0;
#X connect 54 0 66 0;
#X connect 55 0 67 0;
#X connect 56 0 57 0;
#X connect 57 0 126 1;
#X connect 57 0 159 1;
#X connect 58 0 59 0;
#X connect 59 0 127 1;
#X connect 59 0 158 1;
#X connect 60 0 61 0;
#X connect 61 0 128 1;
#X connect 61 0 157 1;
#X connect 62 0 63 0;
#X connect 63 0 129 1;
#X connect 63 0 156 1;
#X connect 64 0 68 12;
#X connect 65 0 68 13;
#X connect 66 0 68 14;
#X connect 67 0 68 15;
#X connect 68 0 39 0;
#X connect 69 0 0 0;
#X connect 69 1 1 0;
#X connect 69 2 2 0;
#X connect 69 3 3 0;
#X connect 69 4 4 0;
#X connect 69 5 5 0;
#X connect 69 6 6 0;
#X connect 69 7 7 0;
#X connect 69 8 27 0;
#X connect 69 9 28 0;
#X connect 69 10 29 0;
#X connect 69 11 30 0;
#X connect 69 12 52 0;
#X connect 69 13 53 0;
#X connect 69 14 54 0;
#X connect 69 15 55 0;
#X connect 70 0 94 0;
#X connect 71 0 93 0;
#X connect 72 0 92 0;
#X connect 73 0 91 0;
#X connect 74 0 90 0;
#X connect 75 0 89 0;
#X connect 76 0 88 0;
#X connect 77 0 87 0;
#X connect 78 0 86 0;
#X connect 79 0 85 0;
#X connect 80 0 84 0;
#X connect 81 0 83 0;
#X connect 83 0 103 11;
#X connect 84 0 103 10;
#X connect 85 0 103 9;
#X connect 86 0 103 8;
#X connect 87 0 103 7;
#X connect 88 0 103 6;
#X connect 89 0 103 5;
#X connect 90 0 103 4;
#X connect 91 0 103 3;
#X connect 92 0 103 2;
#X connect 93 0 103 1;
#X connect 94 0 103 0;
#X connect 95 0 99 0;
#X connect 96 0 100 0;
#X connect 97 0 101 0;
#X connect 98 0 102 0;
#X connect 99 0 103 12;
#X connect 100 0 103 13;
#X connect 101 0 103 14;
#X connect 102 0 103 15;
#X connect 103 0 82 0;
#X connect 104 0 69 0;
#X connect 104 1 105 0;
#X connect 105 0 70 0;
#X connect 105 1 71 0;
#X connect 105 2 72 0;
#X connect 105 3 73 0;
#X connect 105 4 74 0;
#X connect 105 5 75 0;
#X connect 105 6 76 0;
#X connect 105 7 77 0;
#X connect 105 8 78 0;
#X connect 105 9 79 0;
#X connect 105 10 80 0;
#X connect 105 11 81 0;
#X connect 105 12 95 0;
#X connect 105 13 96 0;
#X connect 105 14 97 0;
#X connect 105 15 98 0;
#X connect 106 0 107 0;
#X connect 106 0 116 0;
#X connect 106 0 117 0;
#X connect 106 0 177 0;
#X connect 106 0 178 0;
#X connect 106 0 179 0;
#X connect 106 0 180 0;
#X connect 106 0 181 0;
#X connect 106 0 182 0;
#X connect 106 0 183 0;
#X connect 106 0 184 0;
#X connect 106 0 185 0;
#X connect 106 0 186 0;
#X connect 106 0 187 0;
#X connect 106 0 188 0;
#X connect 106 0 189 0;
#X connect 107 0 108 0;
#X connect 107 1 108 1;
#X connect 108 0 141 0;
#X connect 108 0 142 0;
#X connect 109 0 140 0;
#X connect 109 0 143 0;
#X connect 110 0 139 0;
#X connect 110 0 160 0;
#X connect 111 0 138 0;
#X connect 111 0 161 0;
#X connect 112 0 137 0;
#X connect 112 0 162 0;
#X connect 113 0 136 0;
#X connect 113 0 163 0;
#X connect 114 0 135 0;
#X connect 114 0 164 0;
#X connect 115 0 134 0;
#X connect 115 0 165 0;
#X connect 116 0 109 0;
#X connect 116 1 109 1;
#X connect 117 0 110 0;
#X connect 117 1 110 1;
#X connect 118 0 133 0;
#X connect 118 0 166 0;
#X connect 119 0 132 0;
#X connect 119 0 167 0;
#X connect 120 0 131 0;
#X connect 120 0 168 0;
#X connect 121 0 130 0;
#X connect 121 0 169 0;
#X connect 122 0 129 0;
#X connect 122 0 170 0;
#X connect 123 0 128 0;
#X connect 123 0 171 0;
#X connect 124 0 127 0;
#X connect 124 0 172 0;
#X connect 125 0 126 0;
#X connect 125 0 173 0;
#X connect 126 0 55 0;
#X connect 127 0 54 0;
#X connect 128 0 53 0;
#X connect 129 0 52 0;
#X connect 130 0 30 0;
#X connect 131 0 29 0;
#X connect 132 0 28 0;
#X connect 133 0 27 0;
#X connect 134 0 7 0;
#X connect 135 0 6 0;
#X connect 136 0 5 0;
#X connect 137 0 4 0;
#X connect 138 0 3 0;
#X connect 139 0 2 0;
#X connect 140 0 1 0;
#X connect 141 0 0 0;
#X connect 142 0 144 0;
#X connect 143 0 145 0;
#X connect 144 0 70 0;
#X connect 145 0 71 0;
#X connect 146 0 72 0;
#X connect 147 0 73 0;
#X connect 148 0 74 0;
#X connect 149 0 75 0;
#X connect 150 0 76 0;
#X connect 151 0 77 0;
#X connect 152 0 78 0;
#X connect 153 0 79 0;
#X connect 154 0 80 0;
#X connect 155 0 81 0;
#X connect 156 0 95 0;
#X connect 157 0 96 0;
#X connect 158 0 97 0;
#X connect 159 0 98 0;
#X connect 160 0 146 0;
#X connect 161 0 147 0;
#X connect 162 0 148 0;
#X connect 163 0 149 0;
#X connect 164 0 150 0;
#X connect 165 0 151 0;
#X connect 166 0 152 0;
#X connect 167 0 153 0;
#X connect 168 0 154 0;
#X connect 169 0 155 0;
#X connect 170 0 156 0;
#X connect 171 0 157 0;
#X connect 172 0 158 0;
#X connect 173 0 159 0;
#X connect 177 0 111 0;
#X connect 177 1 111 1;
#X connect 178 0 112 0;
#X connect 178 1 112 1;
#X connect 179 0 113 0;
#X connect 179 1 113 1;
#X connect 180 0 114 0;
#X connect 180 1 114 1;
#X connect 181 0 115 0;
#X connect 181 1 115 1;
#X connect 182 0 118 0;
#X connect 182 1 118 1;
#X connect 183 0 119 0;
#X connect 183 1 119 1;
#X connect 184 0 120 0;
#X connect 184 1 120 1;
#X connect 185 0 121 0;
#X connect 185 1 121 1;
#X connect 186 0 122 0;
#X connect 186 1 122 1;
#X connect 187 0 123 0;
#X connect 187 1 123 1;
#X connect 188 0 124 0;
#X connect 188 1 124 1;
#X connect 189 0 125 0;
#X connect 189 1 125 1;
#X restore 302 197 pd \$0-oscbanks;
#X obj 212 44 table \$0-left 515;
#N canvas 0 0 640 486 \$0-phaser 0;
#X obj 262 229 rpole~;
#X obj 262 205 rzero_rev~;
#X obj 262 278 rpole~;
#X obj 262 253 rzero_rev~;
#X obj 262 326 rpole~;
#X obj 262 301 rzero_rev~;
#X obj 262 375 rpole~;
#X obj 262 350 rzero_rev~;
#X obj 217 396 +~;
#X obj 313 107 expr~ 1 - 0.03 - 0.6*abs($v1-0.5)*abs($v1-0.5);
#X obj 76 229 rpole~;
#X obj 76 204 rzero_rev~;
#X obj 76 278 rpole~;
#X obj 76 253 rzero_rev~;
#X obj 76 326 rpole~;
#X obj 76 301 rzero_rev~;
#X obj 76 375 rpole~;
#X obj 76 350 rzero_rev~;
#X obj 29 395 +~;
#X obj 112 86 expr~ 1 - 0.03 - 0.6*abs($v1-0.5)*abs($v1-0.5);
#X msg 412 40 0;
#X msg 212 39 0.25;
#X obj 319 14 loadbang;
#X obj 114 62 phasor~ 0.12207;
#X obj 312 61 phasor~ 0.12207;
#X obj 57 145 inlet~;
#X obj 244 144 inlet~;
#X obj 29 446 outlet~;
#X obj 216 444 outlet~;
#X obj 32 174 hip~ 333;
#X obj 218 175 hip~ 333;
#X obj 216 421 *~ 2;
#X obj 29 424 *~ 2;
#X connect 0 0 3 0;
#X connect 1 0 0 0;
#X connect 2 0 5 0;
#X connect 3 0 2 0;
#X connect 4 0 7 0;
#X connect 5 0 4 0;
#X connect 6 0 8 1;
#X connect 7 0 6 0;
#X connect 8 0 31 0;
#X connect 9 0 1 1;
#X connect 9 0 0 1;
#X connect 9 0 3 1;
#X connect 9 0 2 1;
#X connect 9 0 5 1;
#X connect 9 0 4 1;
#X connect 9 0 7 1;
#X connect 9 0 6 1;
#X connect 10 0 13 0;
#X connect 11 0 10 0;
#X connect 12 0 15 0;
#X connect 13 0 12 0;
#X connect 14 0 17 0;
#X connect 15 0 14 0;
#X connect 16 0 18 1;
#X connect 17 0 16 0;
#X connect 18 0 32 0;
#X connect 19 0 11 1;
#X connect 19 0 10 1;
#X connect 19 0 13 1;
#X connect 19 0 12 1;
#X connect 19 0 15 1;
#X connect 19 0 14 1;
#X connect 19 0 17 1;
#X connect 19 0 16 1;
#X connect 20 0 24 1;
#X connect 21 0 23 1;
#X connect 22 0 21 0;
#X connect 22 0 20 0;
#X connect 23 0 19 0;
#X connect 24 0 9 0;
#X connect 25 0 29 0;
#X connect 26 0 30 0;
#X connect 29 0 18 0;
#X connect 29 0 11 0;
#X connect 30 0 1 0;
#X connect 30 0 8 0;
#X connect 31 0 28 0;
#X connect 32 0 27 0;
#X restore 252 555 pd \$0-phaser;
#N canvas 0 0 558 342 \$0-delays 0;
#X obj 13 13 inlet~;
#X obj 251 11 inlet~;
#X obj 414 13 inlet;
#X obj 15 261 *~;
#X obj 223 248 *~;
#X obj 417 210 vline~;
#X obj 412 243 *~;
#X obj 271 101 *~;
#X obj 270 169 *~;
#X obj 53 101 *~;
#X obj 53 173 *~;
#X obj 415 118 change -1;
#X obj 414 40 t f f;
#X obj 415 70 - 0;
#X obj 415 96 > 0;
#X obj 416 141 select 0 1;
#X obj 302 172 *~ -1;
#X obj 15 288 expr~ 0.5*tanh($v1);
#X obj 225 278 expr~ 0.5*tanh($v1);
#X obj 14 314 outlet~;
#X obj 221 310 outlet~;
#X msg 418 186 \$1 100 \, 0 10 100;
#X obj 417 166 f 0.9;
#X obj 18 78 delwrite~ \$0-del2-l1 1000;
#X obj 17 151 delwrite~ \$0-del2-l2 1000;
#X obj 227 148 delwrite~ \$0-del2-r2 1000;
#X obj 227 78 delwrite~ \$0-del2-r1 1000;
#X obj 19 125 delread~ \$0-del2-r1 384;
#X obj 227 121 delread~ \$0-del2-l1 576;
#X obj 18 195 delread~ \$0-del2-r2 576;
#X obj 226 192 delread~ \$0-del2-l2 384;
#X connect 0 0 23 0;
#X connect 1 0 26 0;
#X connect 2 0 12 0;
#X connect 3 0 17 0;
#X connect 4 0 18 0;
#X connect 5 0 6 0;
#X connect 5 0 6 1;
#X connect 6 0 7 1;
#X connect 6 0 4 1;
#X connect 6 0 10 1;
#X connect 6 0 3 1;
#X connect 6 0 16 0;
#X connect 7 0 4 0;
#X connect 7 0 26 0;
#X connect 8 0 4 0;
#X connect 8 0 25 0;
#X connect 9 0 3 0;
#X connect 9 0 23 0;
#X connect 10 0 3 0;
#X connect 10 0 24 0;
#X connect 11 0 15 0;
#X connect 12 0 13 1;
#X connect 12 1 13 0;
#X connect 13 0 14 0;
#X connect 14 0 11 0;
#X connect 15 0 22 0;
#X connect 16 0 9 1;
#X connect 16 0 8 1;
#X connect 17 0 19 0;
#X connect 18 0 20 0;
#X connect 21 0 5 0;
#X connect 22 0 21 0;
#X connect 27 0 9 0;
#X connect 27 0 24 0;
#X connect 28 0 7 0;
#X connect 28 0 25 0;
#X connect 29 0 10 0;
#X connect 30 0 8 0;
#X restore 253 529 pd \$0-delays;
#N canvas 64 260 645 712 \$0-melopad 0;
#X obj 33 8 inlet;
#X obj 210 15 inlet;
#X obj 61 133 change -1;
#X obj 33 52 t f f;
#X obj 61 85 - 0;
#X obj 61 111 > 0;
#X obj 62 156 select 0 1;
#X obj 295 400 mtof~;
#X obj 283 194 f;
#X obj 137 395 mtof~;
#X obj 139 184 f;
#X obj 98 644 *~;
#X obj 157 591 vline~;
#X obj 138 308 tabread \$0-scale;
#X obj 140 245 t f f;
#X obj 181 265 * 12;
#X obj 139 334 +;
#X obj 295 340 +;
#X obj 279 256 t f f;
#X obj 324 276 * 12;
#X obj 278 314 tabread \$0-scale;
#X obj 157 612 *~;
#X obj 214 640 *~;
#X obj 564 458 random 100;
#X obj 564 478 / 100;
#X obj 420 458 random 100;
#X obj 420 478 / 100;
#X obj 271 459 random 100;
#X obj 271 479 / 100;
#X obj 136 460 random 100;
#X obj 136 480 / 100;
#X obj 71 186 bang;
#X obj 141 224 +;
#X obj 281 236 +;
#X obj 211 129 * 3;
#X obj 294 420 lop~ 66;
#X obj 136 417 lop~ 66;
#X obj 138 287 mod 4;
#X obj 278 294 mod 4;
#X obj 181 243 div 4;
#X obj 324 256 div 4;
#X obj 282 214 * 8;
#X obj 139 205 * 8;
#X obj 323 295 + 54;
#X obj 33 30 t f f;
#X obj 99 669 outlet~;
#X obj 215 671 outlet~;
#X obj 506 377 bang;
#X obj 506 355 loadbang;
#X obj 486 354 bng 15 250 50 0 empty empty empty 17 7 0 10 -262144
-1 -1;
#X obj 359 672 outlet;
#X msg 157 569 \$1 3 \, 0 234 3;
#X obj 158 547 f 0.7;
#X obj 27 502 tabosc4~ \$0-right;
#X obj 166 502 tabosc4~ \$0-right;
#X obj 310 505 tabosc4~ \$0-right;
#X obj 452 506 tabosc4~ \$0-right;
#X obj 211 108 tabread4 \$0-right;
#X obj 80 606 *~ 0.25;
#X obj 180 284 + 54;
#X obj 457 21 inlet;
#X obj 137 356 mod 36;
#X obj 137 375 + 36;
#X obj 295 360 mod 36;
#X obj 295 379 + 36;
#X connect 0 0 44 0;
#X connect 1 0 57 0;
#X connect 2 0 6 0;
#X connect 3 0 4 1;
#X connect 3 1 4 0;
#X connect 4 0 5 0;
#X connect 4 0 50 0;
#X connect 5 0 2 0;
#X connect 6 0 10 0;
#X connect 6 0 31 0;
#X connect 6 1 8 0;
#X connect 6 1 31 0;
#X connect 7 0 35 0;
#X connect 8 0 41 0;
#X connect 9 0 36 0;
#X connect 10 0 42 0;
#X connect 11 0 45 0;
#X connect 12 0 21 0;
#X connect 12 0 21 1;
#X connect 13 0 16 0;
#X connect 14 0 37 0;
#X connect 14 1 39 0;
#X connect 15 0 59 0;
#X connect 16 0 61 0;
#X connect 17 0 63 0;
#X connect 18 0 38 0;
#X connect 18 1 40 0;
#X connect 19 0 43 0;
#X connect 20 0 17 0;
#X connect 21 0 11 1;
#X connect 21 0 22 0;
#X connect 22 0 46 0;
#X connect 23 0 24 0;
#X connect 24 0 56 1;
#X connect 25 0 26 0;
#X connect 26 0 55 1;
#X connect 27 0 28 0;
#X connect 28 0 54 1;
#X connect 29 0 30 0;
#X connect 30 0 53 1;
#X connect 31 0 52 0;
#X connect 32 0 14 0;
#X connect 33 0 18 0;
#X connect 34 0 32 1;
#X connect 34 0 33 1;
#X connect 35 0 54 0;
#X connect 35 0 56 0;
#X connect 36 0 53 0;
#X connect 36 0 55 0;
#X connect 37 0 13 0;
#X connect 38 0 20 0;
#X connect 39 0 15 0;
#X connect 40 0 19 0;
#X connect 41 0 33 0;
#X connect 42 0 32 0;
#X connect 43 0 17 1;
#X connect 44 0 3 0;
#X connect 44 1 8 1;
#X connect 44 1 10 1;
#X connect 47 0 29 0;
#X connect 47 0 23 0;
#X connect 47 0 25 0;
#X connect 47 0 27 0;
#X connect 48 0 47 0;
#X connect 49 0 47 0;
#X connect 51 0 12 0;
#X connect 52 0 51 0;
#X connect 53 0 58 0;
#X connect 54 0 58 0;
#X connect 55 0 22 1;
#X connect 56 0 22 1;
#X connect 57 0 34 0;
#X connect 58 0 11 0;
#X connect 59 0 16 1;
#X connect 60 0 43 1;
#X connect 60 0 59 1;
#X connect 61 0 62 0;
#X connect 62 0 9 0;
#X connect 63 0 64 0;
#X connect 64 0 7 0;
#X restore 254 415 pd \$0-melopad;
#X obj 37 365 tabread4 \$0-left;
#X obj 252 382 tabread4 \$0-right;
#X obj 212 23 table \$0-right 515;
#X obj 302 315 s \$0-left;
#X obj 393 244 list prepend sinesum 0;
#X obj 395 268 list trim;
#X obj 393 293 t b a;
#X msg 393 316 normalize 1;
#X obj 393 338 s \$0-right;
#X obj 195 194 mod 8;
#X obj 11 766 metro 1000;
#X obj 11 787 f 0;
#X obj 77 787 + 1;
#X msg 415 196 17100;
#X obj 195 217 select 0 4;
#X obj 265 337 f 54;
#N canvas 0 0 784 668 \$0-freeze 0;
#X obj 22 16 inlet~;
#X obj 105 18 inlet~;
#X obj 15 358 outlet~;
#X obj 101 358 outlet~;
#X obj 214 173 +~;
#X obj 256 173 +~;
#X obj 226 219 +~;
#X obj 335 220 +~;
#X obj 268 219 -~;
#X obj 375 219 -~;
#X obj 225 275 +~;
#X obj 269 276 +~;
#X obj 313 277 -~;
#X obj 352 277 -~;
#X obj 622 5 inlet;
#X obj 352 400 delwrite~ \$0-loop-del4 95.945;
#X obj 386 186 delread~ \$0-loop-del4 95.945;
#X obj 364 161 delread~ \$0-loop-del3 86.7545;
#X obj 318 132 delread~ \$0-loop-del2 71.9345;
#X obj 276 107 delread~ \$0-loop-del1 60;
#X obj 313 423 delwrite~ \$0-loop-del3 86.7545;
#X obj 271 446 delwrite~ \$0-loop-del2 71.9345;
#X obj 226 468 delwrite~ \$0-loop-del1 60;
#X obj 225 357 *~;
#X obj 270 358 *~;
#X obj 312 359 *~;
#X obj 353 360 *~;
#X obj 660 67 + 1;
#X obj 622 113 select 0 1;
#X obj 622 221 vline~;
#X obj 622 274 *~ 0.5;
#X obj 622 248 clip~ 0 1;
#X msg 696 145 0 1024;
#X obj 710 10 inlet;
#X obj 215 21 f;
#X obj 215 42 mtof~;
#X obj 215 62 lop~ 1;
#X obj 149 85 expr~ tanh($v1*4);
#X obj 47 64 expr~ tanh($v1*4);
#X obj 149 122 vcf~ 2;
#X obj 47 118 vcf~ 2;
#X obj 150 318 vcf~ 2;
#X obj 44 319 vcf~ 2;
#X msg 622 144 1 512 512;
#X obj 622 36 select 0;
#X obj 622 68 f 0;
#X obj 661 88 mod 2;
#X obj 122 277 *~ 7;
#X connect 0 0 38 0;
#X connect 1 0 37 0;
#X connect 4 0 6 0;
#X connect 4 0 8 0;
#X connect 4 0 42 0;
#X connect 5 0 6 1;
#X connect 5 0 8 1;
#X connect 5 0 41 0;
#X connect 6 0 10 0;
#X connect 6 0 12 0;
#X connect 7 0 12 1;
#X connect 7 0 10 1;
#X connect 8 0 11 0;
#X connect 8 0 13 0;
#X connect 9 0 11 1;
#X connect 9 0 13 1;
#X connect 10 0 23 0;
#X connect 11 0 24 0;
#X connect 12 0 25 0;
#X connect 13 0 26 0;
#X connect 14 0 44 0;
#X connect 16 0 7 1;
#X connect 16 0 9 1;
#X connect 17 0 7 0;
#X connect 17 0 9 0;
#X connect 18 0 5 1;
#X connect 19 0 4 1;
#X connect 23 0 22 0;
#X connect 24 0 21 0;
#X connect 25 0 20 0;
#X connect 26 0 15 0;
#X connect 27 0 46 0;
#X connect 28 0 43 0;
#X connect 28 0 34 0;
#X connect 28 1 32 0;
#X connect 29 0 31 0;
#X connect 30 0 23 1;
#X connect 30 0 24 1;
#X connect 30 0 25 1;
#X connect 30 0 26 1;
#X connect 31 0 30 0;
#X connect 32 0 29 0;
#X connect 33 0 34 1;
#X connect 34 0 35 0;
#X connect 35 0 36 0;
#X connect 36 0 39 1;
#X connect 36 0 40 1;
#X connect 36 0 47 0;
#X connect 37 0 39 0;
#X connect 38 0 40 0;
#X connect 39 0 5 0;
#X connect 40 0 4 0;
#X connect 41 0 3 0;
#X connect 42 0 2 0;
#X connect 43 0 29 0;
#X connect 44 0 45 0;
#X connect 45 0 27 0;
#X connect 45 0 28 0;
#X connect 46 0 45 1;
#X connect 47 0 42 1;
#X connect 47 0 41 1;
#X restore 139 507 pd \$0-freeze;
#X obj 43 296 t f f f f;
#X obj 185 426 +;
#X obj 185 446 mod 12;
#N canvas 0 4 695 660 \$0-melody 0;
#X obj 17 10 inlet;
#X obj 192 82 + 1;
#X obj 124 152 select 0;
#X obj 124 201 f 0;
#X obj 17 629 outlet;
#X obj 170 221 +;
#X msg 227 198 -1;
#X msg 260 199 1;
#X obj 173 3 inlet;
#X text 155 481 if strong beat and chord note: duration = 4;
#X obj 124 354 t f b;
#X obj 222 332 tabread \$0-scale;
#X obj 322 314 tabread \$0-scale;
#X obj 419 332 tabread \$0-scale;
#X obj 518 310 tabread \$0-scale;
#X msg 223 293 0;
#X msg 322 293 1;
#X msg 420 289 2;
#X msg 518 289 3;
#X obj 222 353 mod 12;
#X obj 321 352 mod 12;
#X obj 419 353 mod 12;
#X obj 518 352 mod 12;
#X obj 103 291 tabread \$0-minor;
#X obj 103 266 mod 7;
#X obj 101 488 +;
#X obj 17 513 f;
#X obj 17 464 t b f;
#X obj 221 27 select 1;
#X msg 240 111 4;
#X msg 271 128 2;
#X text 155 499 if strong beat xor chord note: duration = 2;
#X obj 286 27 bang;
#X obj 17 125 t f f;
#X obj 17 147 == 0;
#X obj 285 61 f;
#X obj 285 82 select 1;
#X obj 299 460 !=;
#X msg 309 143 1;
#X obj 17 534 +;
#X obj 259 269 div 7;
#X obj 259 290 * 12;
#X text 155 517 else: duration = 1;
#X obj 17 104 f 0;
#X obj 68 106 + 1;
#X obj 17 72 select 0;
#X obj 17 608 change;
#X obj 123 383 expr ($f1==$f2) || ($f1==$f3) || ($f1==$f4) || ($f1==$f5)
;
#X obj 17 411 &&;
#X obj 128 75 bang;
#X obj 123 100 f 0;
#X obj 124 173 t b b;
#X obj 125 222 t f f;
#X msg 185 197 0;
#X obj 170 175 t b b;
#X obj 17 587 + 48;
#X obj 17 168 t f f f;
#X obj 124 130 mod 4;
#X obj 227 177 moses;
#X obj 125 330 mod 12;
#X obj 17 566 mod 24;
#X obj 228 156 random 7;
#X obj 17 48 mod 64;
#X obj 68 126 mod 2;
#X obj 193 105 mod 8;
#X obj 100 32 select 1;
#X obj 137 55 spigot;
#X msg 131 10 1;
#X msg 190 54 0;
#X connect 0 0 62 0;
#X connect 1 0 64 0;
#X connect 2 0 51 0;
#X connect 2 1 54 0;
#X connect 3 0 5 0;
#X connect 3 0 52 0;
#X connect 5 0 3 1;
#X connect 6 0 5 1;
#X connect 7 0 5 1;
#X connect 8 0 25 1;
#X connect 10 0 47 0;
#X connect 10 1 15 0;
#X connect 10 1 16 0;
#X connect 10 1 17 0;
#X connect 10 1 18 0;
#X connect 11 0 19 0;
#X connect 12 0 20 0;
#X connect 13 0 21 0;
#X connect 14 0 22 0;
#X connect 15 0 11 0;
#X connect 16 0 12 0;
#X connect 17 0 13 0;
#X connect 18 0 14 0;
#X connect 19 0 47 1;
#X connect 20 0 47 2;
#X connect 21 0 47 3;
#X connect 22 0 47 4;
#X connect 23 0 25 0;
#X connect 23 0 59 0;
#X connect 24 0 23 0;
#X connect 25 0 26 1;
#X connect 26 0 39 0;
#X connect 27 0 26 0;
#X connect 27 1 28 0;
#X connect 28 0 29 0;
#X connect 28 0 68 0;
#X connect 28 1 32 0;
#X connect 29 0 57 1;
#X connect 30 0 57 1;
#X connect 32 0 35 0;
#X connect 33 0 34 0;
#X connect 34 0 56 0;
#X connect 34 0 65 0;
#X connect 35 0 36 0;
#X connect 36 0 30 0;
#X connect 36 1 38 0;
#X connect 37 0 35 1;
#X connect 38 0 57 1;
#X connect 39 0 60 0;
#X connect 40 0 41 0;
#X connect 41 0 39 1;
#X connect 43 0 44 0;
#X connect 43 0 33 0;
#X connect 44 0 63 0;
#X connect 45 0 43 0;
#X connect 46 0 4 0;
#X connect 47 0 48 1;
#X connect 47 0 37 0;
#X connect 48 0 27 0;
#X connect 49 0 50 0;
#X connect 50 0 1 0;
#X connect 50 0 57 0;
#X connect 51 0 3 0;
#X connect 51 1 61 0;
#X connect 52 0 24 0;
#X connect 52 1 40 0;
#X connect 52 1 58 1;
#X connect 53 0 5 1;
#X connect 54 0 3 0;
#X connect 54 1 53 0;
#X connect 55 0 46 0;
#X connect 56 0 48 0;
#X connect 56 2 37 1;
#X connect 57 0 2 0;
#X connect 58 0 6 0;
#X connect 58 1 7 0;
#X connect 59 0 10 0;
#X connect 60 0 55 0;
#X connect 61 0 58 0;
#X connect 62 0 45 0;
#X connect 63 0 43 1;
#X connect 64 0 50 1;
#X connect 65 0 50 0;
#X connect 65 0 67 0;
#X connect 65 1 66 0;
#X connect 66 0 49 0;
#X connect 67 0 66 1;
#X connect 68 0 66 1;
#X restore 351 456 pd \$0-melody;
#N canvas 0 368 911 585 \$0-sawsynth 0;
#X obj 26 197 phasor~;
#X obj 90 196 phasor~;
#X obj 151 196 phasor~;
#X obj 212 196 phasor~;
#X obj 273 196 phasor~;
#X obj 217 173 +~ 3;
#X obj 284 171 +~ 5;
#X obj 176 118 mtof~;
#X obj 189 66 vline~;
#X obj 324 8 inlet;
#X obj 193 377 outlet~;
#X obj 337 195 phasor~;
#X obj 401 194 phasor~;
#X obj 462 194 phasor~;
#X obj 523 194 phasor~;
#X obj 584 194 phasor~;
#X obj 451 105 mtof~;
#X obj 455 61 vline~;
#X obj 528 171 +~ 7;
#X obj 595 168 +~ 9;
#X obj 625 49 loadbang;
#X obj 249 15 bang;
#X obj 248 59 vline~;
#X obj 249 103 *~;
#X obj 249 82 *~;
#X obj 455 39 + 24;
#X msg 248 38 1 256 \, 0 256 256;
#X obj 339 310 *~;
#X obj 315 122 vline~;
#X msg 337 81 0;
#X msg 383 62 1;
#X obj 316 59 spigot 1;
#X obj 383 40 delay 300;
#X msg 316 102 1 128 \, 0 4096 128;
#X obj 317 143 *~;
#X obj 189 45 + 12;
#X obj 92 175 +~ 3;
#X obj 25 176 +~ 5;
#X obj 86 141 *~ -1;
#X obj 378 142 *~ -1;
#X obj 336 174 +~ 9;
#X obj 403 173 +~ 7;
#X obj 196 329 hip~ 10;
#X obj 610 212 expr~ abs($v1-0.5);
#X obj 535 232 expr~ abs($v1-0.5);
#X obj 473 213 expr~ abs($v1-0.5);
#X obj 340 211 expr~ abs($v1-0.5);
#X obj 269 232 expr~ abs($v1-0.5);
#X obj 401 232 expr~ abs($v1-0.5);
#X obj 208 215 expr~ abs($v1-0.5);
#X obj 74 213 expr~ abs($v1-0.5);
#X obj -1 231 expr~ abs($v1-0.5);
#X obj 133 232 expr~ abs($v1-0.5);
#X obj 453 83 lop~ 16;
#X obj 189 89 lop~ 16;
#X msg 728 178 0;
#X obj 193 352 expr~ tanh($v1*$v2)*0.7;
#X connect 0 0 51 0;
#X connect 1 0 50 0;
#X connect 2 0 52 0;
#X connect 3 0 49 0;
#X connect 4 0 47 0;
#X connect 5 0 3 0;
#X connect 6 0 4 0;
#X connect 7 0 5 0;
#X connect 7 0 2 0;
#X connect 7 0 6 0;
#X connect 7 0 38 0;
#X connect 8 0 54 0;
#X connect 9 0 21 0;
#X connect 9 0 25 0;
#X connect 9 0 35 0;
#X connect 11 0 46 0;
#X connect 12 0 48 0;
#X connect 13 0 45 0;
#X connect 14 0 44 0;
#X connect 15 0 43 0;
#X connect 16 0 13 0;
#X connect 16 0 18 0;
#X connect 16 0 19 0;
#X connect 16 0 39 0;
#X connect 17 0 53 0;
#X connect 18 0 14 0;
#X connect 19 0 15 0;
#X connect 20 0 55 0;
#X connect 21 0 26 0;
#X connect 21 0 31 0;
#X connect 21 0 32 0;
#X connect 22 0 24 0;
#X connect 22 0 24 1;
#X connect 23 0 27 0;
#X connect 24 0 23 0;
#X connect 24 0 23 1;
#X connect 25 0 17 0;
#X connect 26 0 22 0;
#X connect 27 0 56 1;
#X connect 28 0 34 0;
#X connect 28 0 34 1;
#X connect 29 0 31 1;
#X connect 30 0 31 1;
#X connect 31 0 29 0;
#X connect 31 0 33 0;
#X connect 32 0 30 0;
#X connect 33 0 28 0;
#X connect 34 0 27 1;
#X connect 35 0 8 0;
#X connect 36 0 1 0;
#X connect 37 0 0 0;
#X connect 38 0 36 0;
#X connect 38 0 37 0;
#X connect 39 0 40 0;
#X connect 39 0 41 0;
#X connect 40 0 11 0;
#X connect 41 0 12 0;
#X connect 42 0 56 0;
#X connect 43 0 42 0;
#X connect 44 0 42 0;
#X connect 45 0 42 0;
#X connect 46 0 42 0;
#X connect 47 0 42 0;
#X connect 48 0 42 0;
#X connect 49 0 42 0;
#X connect 50 0 42 0;
#X connect 51 0 42 0;
#X connect 52 0 42 0;
#X connect 53 0 16 0;
#X connect 54 0 7 0;
#X connect 55 0 15 1;
#X connect 55 0 14 1;
#X connect 55 0 13 1;
#X connect 55 0 12 1;
#X connect 55 0 11 1;
#X connect 55 0 4 1;
#X connect 55 0 3 1;
#X connect 55 0 2 1;
#X connect 55 0 1 1;
#X connect 55 0 0 1;
#X connect 56 0 10 0;
#X restore 351 505 pd \$0-sawsynth;
#X obj 523 391 table \$0-minor 7;
#X obj 523 370 s \$0-minor;
#X obj 523 328 loadbang;
#X msg 523 349 0 0 2 3 5 7 8 10;
#N canvas 0 4 695 660 \$0-melody 0;
#X obj 17 10 inlet;
#X obj 192 82 + 1;
#X obj 124 152 select 0;
#X obj 124 201 f 0;
#X obj 17 629 outlet;
#X obj 170 221 +;
#X msg 233 220 -1;
#X msg 266 221 1;
#X obj 173 3 inlet;
#X text 155 481 if strong beat and chord note: duration = 4;
#X obj 124 354 t f b;
#X obj 222 332 tabread \$0-scale;
#X obj 322 314 tabread \$0-scale;
#X obj 419 332 tabread \$0-scale;
#X obj 518 310 tabread \$0-scale;
#X msg 223 293 0;
#X msg 322 293 1;
#X msg 420 289 2;
#X msg 518 289 3;
#X obj 222 353 mod 12;
#X obj 321 352 mod 12;
#X obj 419 353 mod 12;
#X obj 518 352 mod 12;
#X obj 124 271 tabread \$0-minor;
#X obj 124 246 mod 7;
#X obj 101 488 +;
#X obj 17 513 f;
#X obj 17 464 t b f;
#X obj 221 27 select 1;
#X msg 240 111 4;
#X msg 271 128 2;
#X text 155 499 if strong beat xor chord note: duration = 2;
#X obj 286 27 bang;
#X obj 17 125 t f f;
#X obj 17 147 == 0;
#X obj 285 61 f;
#X obj 285 82 select 1;
#X obj 299 460 !=;
#X msg 309 143 1;
#X obj 17 534 +;
#X obj 261 246 div 7;
#X obj 261 267 * 12;
#X text 155 517 else: duration = 1;
#X obj 17 104 f 0;
#X obj 68 106 + 1;
#X obj 17 72 select 0;
#X obj 17 608 change;
#X obj 123 383 expr ($f1==$f2) || ($f1==$f3) || ($f1==$f4) || ($f1==$f5)
;
#X obj 17 411 &&;
#X obj 128 75 bang;
#X obj 123 100 f 0;
#X obj 124 173 t b b;
#X obj 125 222 t f f;
#X msg 185 197 0;
#X obj 170 175 t b b;
#X obj 17 587 + 48;
#X obj 17 168 t f f f;
#X obj 124 130 mod 4;
#X obj 233 199 moses;
#X obj 125 330 mod 12;
#X obj 17 566 mod 24;
#X obj 233 165 random 7;
#X obj 17 48 mod 64;
#X obj 68 126 mod 2;
#X obj 193 105 mod 8;
#X obj 100 32 select 1;
#X obj 137 55 spigot;
#X msg 131 10 1;
#X msg 190 54 0;
#X connect 0 0 62 0;
#X connect 1 0 64 0;
#X connect 2 0 51 0;
#X connect 2 1 54 0;
#X connect 3 0 5 0;
#X connect 3 0 52 0;
#X connect 5 0 3 1;
#X connect 6 0 5 1;
#X connect 7 0 5 1;
#X connect 8 0 25 1;
#X connect 10 0 47 0;
#X connect 10 1 15 0;
#X connect 10 1 16 0;
#X connect 10 1 17 0;
#X connect 10 1 18 0;
#X connect 11 0 19 0;
#X connect 12 0 20 0;
#X connect 13 0 21 0;
#X connect 14 0 22 0;
#X connect 15 0 11 0;
#X connect 16 0 12 0;
#X connect 17 0 13 0;
#X connect 18 0 14 0;
#X connect 19 0 47 1;
#X connect 20 0 47 2;
#X connect 21 0 47 3;
#X connect 22 0 47 4;
#X connect 23 0 25 0;
#X connect 23 0 59 0;
#X connect 24 0 23 0;
#X connect 25 0 26 1;
#X connect 26 0 39 0;
#X connect 27 0 26 0;
#X connect 27 1 28 0;
#X connect 28 0 29 0;
#X connect 28 0 68 0;
#X connect 28 1 32 0;
#X connect 29 0 57 1;
#X connect 30 0 57 1;
#X connect 32 0 35 0;
#X connect 33 0 34 0;
#X connect 34 0 56 0;
#X connect 34 0 65 0;
#X connect 35 0 36 0;
#X connect 36 0 30 0;
#X connect 36 1 38 0;
#X connect 37 0 35 1;
#X connect 38 0 57 1;
#X connect 39 0 60 0;
#X connect 40 0 41 0;
#X connect 41 0 39 1;
#X connect 43 0 44 0;
#X connect 43 0 33 0;
#X connect 44 0 63 0;
#X connect 45 0 43 0;
#X connect 46 0 4 0;
#X connect 47 0 48 1;
#X connect 47 0 37 0;
#X connect 48 0 27 0;
#X connect 49 0 50 0;
#X connect 50 0 1 0;
#X connect 50 0 57 0;
#X connect 51 0 3 0;
#X connect 51 1 61 0;
#X connect 52 0 24 0;
#X connect 52 1 40 0;
#X connect 52 1 58 1;
#X connect 53 0 5 1;
#X connect 54 0 3 0;
#X connect 54 1 53 0;
#X connect 55 0 46 0;
#X connect 56 0 48 0;
#X connect 56 2 37 1;
#X connect 57 0 2 0;
#X connect 58 0 6 0;
#X connect 58 1 7 0;
#X connect 59 0 10 0;
#X connect 60 0 55 0;
#X connect 61 0 58 0;
#X connect 62 0 45 0;
#X connect 63 0 43 1;
#X connect 64 0 50 1;
#X connect 65 0 50 0;
#X connect 65 0 67 0;
#X connect 65 1 66 0;
#X connect 66 0 49 0;
#X connect 67 0 66 1;
#X connect 68 0 66 1;
#X restore 470 456 pd \$0-melody;
#N canvas 0 0 911 585 \$0-sawsynth 0;
#X obj 26 197 phasor~;
#X obj 90 196 phasor~;
#X obj 151 196 phasor~;
#X obj 212 196 phasor~;
#X obj 273 196 phasor~;
#X obj 217 173 +~ 3;
#X obj 284 171 +~ 5;
#X obj 176 118 mtof~;
#X obj 189 66 vline~;
#X obj 324 8 inlet;
#X obj 229 343 outlet~;
#X obj 337 195 phasor~;
#X obj 401 194 phasor~;
#X obj 462 194 phasor~;
#X obj 523 194 phasor~;
#X obj 584 194 phasor~;
#X obj 451 105 mtof~;
#X obj 455 61 vline~;
#X obj 528 171 +~ 7;
#X obj 595 168 +~ 9;
#X obj 625 49 loadbang;
#X obj 249 15 bang;
#X obj 248 59 vline~;
#X obj 249 103 *~;
#X obj 249 82 *~;
#X obj 455 39 + 24;
#X msg 248 38 1 256 \, 0 256 256;
#X obj 369 290 *~;
#X obj 315 122 vline~;
#X msg 337 81 0;
#X msg 383 62 1;
#X obj 316 59 spigot 1;
#X obj 383 40 delay 300;
#X msg 316 102 1 128 \, 0 4096 128;
#X obj 317 143 *~;
#X obj 189 45 + 12;
#X obj 92 175 +~ 3;
#X obj 25 176 +~ 5;
#X obj 86 141 *~ -1;
#X obj 378 142 *~ -1;
#X obj 336 174 +~ 9;
#X obj 403 173 +~ 7;
#X obj 232 295 hip~ 10;
#X obj 610 212 expr~ abs($v1-0.5);
#X obj 535 232 expr~ abs($v1-0.5);
#X obj 473 213 expr~ abs($v1-0.5);
#X obj 340 211 expr~ abs($v1-0.5);
#X obj 269 232 expr~ abs($v1-0.5);
#X obj 401 232 expr~ abs($v1-0.5);
#X obj 208 215 expr~ abs($v1-0.5);
#X obj 74 213 expr~ abs($v1-0.5);
#X obj -1 231 expr~ abs($v1-0.5);
#X obj 133 232 expr~ abs($v1-0.5);
#X obj 453 83 lop~ 16;
#X obj 189 89 lop~ 16;
#X msg 643 121 0;
#X obj 229 318 expr~ tanh($v1*$v2)*0.7;
#X connect 0 0 51 0;
#X connect 1 0 50 0;
#X connect 2 0 52 0;
#X connect 3 0 49 0;
#X connect 4 0 47 0;
#X connect 5 0 3 0;
#X connect 6 0 4 0;
#X connect 7 0 5 0;
#X connect 7 0 2 0;
#X connect 7 0 6 0;
#X connect 7 0 38 0;
#X connect 8 0 54 0;
#X connect 9 0 21 0;
#X connect 9 0 25 0;
#X connect 9 0 35 0;
#X connect 11 0 46 0;
#X connect 12 0 48 0;
#X connect 13 0 45 0;
#X connect 14 0 44 0;
#X connect 15 0 43 0;
#X connect 16 0 13 0;
#X connect 16 0 18 0;
#X connect 16 0 19 0;
#X connect 16 0 39 0;
#X connect 17 0 53 0;
#X connect 18 0 14 0;
#X connect 19 0 15 0;
#X connect 20 0 55 0;
#X connect 21 0 26 0;
#X connect 21 0 31 0;
#X connect 21 0 32 0;
#X connect 22 0 24 0;
#X connect 22 0 24 1;
#X connect 23 0 27 0;
#X connect 24 0 23 0;
#X connect 24 0 23 1;
#X connect 25 0 17 0;
#X connect 26 0 22 0;
#X connect 27 0 56 1;
#X connect 28 0 34 0;
#X connect 28 0 34 1;
#X connect 29 0 31 1;
#X connect 30 0 31 1;
#X connect 31 0 29 0;
#X connect 31 0 33 0;
#X connect 32 0 30 0;
#X connect 33 0 28 0;
#X connect 34 0 27 1;
#X connect 35 0 8 0;
#X connect 36 0 1 0;
#X connect 37 0 0 0;
#X connect 38 0 36 0;
#X connect 38 0 37 0;
#X connect 39 0 40 0;
#X connect 39 0 41 0;
#X connect 40 0 11 0;
#X connect 41 0 12 0;
#X connect 42 0 56 0;
#X connect 43 0 42 0;
#X connect 44 0 42 0;
#X connect 45 0 42 0;
#X connect 46 0 42 0;
#X connect 47 0 42 0;
#X connect 48 0 42 0;
#X connect 49 0 42 0;
#X connect 50 0 42 0;
#X connect 51 0 42 0;
#X connect 52 0 42 0;
#X connect 53 0 16 0;
#X connect 54 0 7 0;
#X connect 55 0 15 1;
#X connect 55 0 14 1;
#X connect 55 0 13 1;
#X connect 55 0 12 1;
#X connect 55 0 11 1;
#X connect 55 0 4 1;
#X connect 55 0 3 1;
#X connect 55 0 2 1;
#X connect 55 0 1 1;
#X connect 55 0 0 1;
#X connect 56 0 10 0;
#X restore 470 505 pd \$0-sawsynth;
#X obj 369 530 *~ 0.25;
#X obj 414 743 cputime;
#X obj 487 622 loadbang;
#X msg 487 650 1;
#X obj 414 715 t b b;
#X obj 472 530 *~ 0.25;
#X text 462 195 << 4 hrs 45mins in seconds;
#X obj 43 98 metro 4;
#X obj 414 686 metro 100;
#X obj 486 686 metro 1000;
#X obj 488 743 cputime;
#X obj 488 715 t b b;
#X obj 488 770 * 0.1;
#X obj 566 742 cputime;
#X obj 566 714 t b b;
#X obj 564 685 metro 10000;
#X obj 566 769 * 0.01;
#X obj 184 466 + 48;
#X obj 120 793 swap;
#X obj 120 814 -;
#X obj 414 836 s \$0-cpu-100-r;
#X obj 488 815 s \$0-cpu-1000-r;
#X obj 566 793 s \$0-cpu-10000-r;
#X text 482 602 load meter;
#X obj 121 837 s \$0-remain-r;
#X obj 11 834 s \$0-elapsed-r;
#X obj 24 16 r \$0-start-s;
#X obj 314 768 env~ 8192;
#X obj 314 813 s \$0-peak-r-r;
#X obj 224 792 env~ 8192;
#X obj 224 837 s \$0-peak-l-r;
#X obj 311 630 expr~ tanh($v1*0.5);
#X obj 105 625 expr~ tanh($v1*0.5);
#X obj 314 791 - 95;
#X obj 224 815 - 95;
#X obj 206 531 *~ 0.7;
#X obj 124 527 *~ 0.7;
#X text 231 765 level meter;
#X text 40 813 timer;
#X text 517 308 notes in the full scale;
#X text 335 67 notes in the current chord;
#X text 350 35 baroque waveforms;
#X text 326 129 update waveforms;
#X text 97 237 update chords;
#X text 300 344 key note;
#X text 150 465 bass;
#X text 390 479 flute-like things;
#X text 150 390 baroque stuff;
#X text 158 554 effects;
#X text 247 631 limit;
#X text 217 652 kill DC;
#X text 19 645 recording;
#X text 49 79 master clock;
#X obj 207 694 patchComs;
#X obj 207 717 switch~;
#X obj 125 21 loadbang;
#X connect 0 0 1 0;
#X connect 0 0 14 0;
#X connect 1 0 2 0;
#X connect 2 0 0 1;
#X connect 3 0 4 0;
#X connect 4 0 5 0;
#X connect 5 0 6 0;
#X connect 5 1 34 0;
#X connect 6 0 34 0;
#X connect 7 0 26 0;
#X connect 8 0 26 1;
#X connect 8 0 44 0;
#X connect 9 0 10 0;
#X connect 10 0 11 0;
#X connect 11 0 12 0;
#X connect 11 0 15 0;
#X connect 12 0 13 0;
#X connect 13 0 11 1;
#X connect 14 0 48 0;
#X connect 14 1 9 0;
#X connect 14 2 7 0;
#X connect 15 0 24 1;
#X connect 15 0 30 1;
#X connect 15 1 40 0;
#X connect 16 0 17 0;
#X connect 16 1 46 1;
#X connect 17 0 18 0;
#X connect 17 1 49 0;
#X connect 20 0 86 0;
#X connect 20 0 112 1;
#X connect 21 0 88 0;
#X connect 21 0 112 0;
#X connect 22 0 91 0;
#X connect 22 1 90 0;
#X connect 23 0 22 0;
#X connect 23 1 22 1;
#X connect 24 0 23 0;
#X connect 24 0 47 0;
#X connect 24 0 95 0;
#X connect 24 1 23 1;
#X connect 24 1 47 1;
#X connect 24 1 94 0;
#X connect 24 2 23 2;
#X connect 25 0 41 0;
#X connect 25 0 66 0;
#X connect 26 0 3 0;
#X connect 26 1 35 0;
#X connect 28 0 91 0;
#X connect 28 1 90 0;
#X connect 29 0 28 0;
#X connect 29 1 28 1;
#X connect 30 0 29 0;
#X connect 30 0 47 0;
#X connect 30 0 95 0;
#X connect 30 1 29 1;
#X connect 30 1 47 1;
#X connect 30 1 94 0;
#X connect 30 2 29 2;
#X connect 31 0 24 0;
#X connect 32 0 30 0;
#X connect 35 0 36 0;
#X connect 36 0 37 0;
#X connect 37 0 38 0;
#X connect 37 1 39 0;
#X connect 38 0 39 0;
#X connect 40 0 45 0;
#X connect 41 0 42 0;
#X connect 42 0 43 0;
#X connect 42 0 77 0;
#X connect 42 0 84 0;
#X connect 43 0 42 1;
#X connect 44 0 26 2;
#X connect 44 0 77 1;
#X connect 45 0 16 0;
#X connect 45 1 46 0;
#X connect 46 0 24 2;
#X connect 46 0 30 2;
#X connect 46 0 49 1;
#X connect 46 0 51 1;
#X connect 46 0 57 1;
#X connect 47 0 91 0;
#X connect 47 1 90 0;
#X connect 48 0 31 0;
#X connect 48 1 32 0;
#X connect 48 2 47 2;
#X connect 48 2 57 0;
#X connect 48 3 51 0;
#X connect 49 0 50 0;
#X connect 50 0 76 0;
#X connect 51 0 52 0;
#X connect 52 0 59 0;
#X connect 52 0 91 0;
#X connect 55 0 56 0;
#X connect 56 0 54 0;
#X connect 57 0 58 0;
#X connect 58 0 64 0;
#X connect 58 0 90 0;
#X connect 59 0 90 0;
#X connect 60 0 79 0;
#X connect 61 0 62 0;
#X connect 62 0 67 0;
#X connect 62 0 68 0;
#X connect 62 0 74 0;
#X connect 63 0 60 0;
#X connect 63 1 60 1;
#X connect 64 0 91 0;
#X connect 66 0 0 0;
#X connect 67 0 63 0;
#X connect 68 0 70 0;
#X connect 69 0 71 0;
#X connect 70 0 69 0;
#X connect 70 1 69 1;
#X connect 71 0 80 0;
#X connect 72 0 75 0;
#X connect 73 0 72 0;
#X connect 73 1 72 1;
#X connect 74 0 73 0;
#X connect 75 0 81 0;
#X connect 76 0 47 3;
#X connect 77 0 78 0;
#X connect 77 1 78 1;
#X connect 78 0 83 0;
#X connect 85 0 25 0;
#X connect 86 0 92 0;
#X connect 88 0 93 0;
#X connect 90 0 20 0;
#X connect 91 0 21 0;
#X connect 92 0 87 0;
#X connect 93 0 89 0;
#X connect 94 0 90 0;
#X connect 95 0 91 0;
#X connect 112 0 113 0;
#X connect 114 0 25 0;
#X restore 303 31 pd \$0-internals;
#X floatatom 29 76 5 0 0 2 cpu #0-cpu-100-r #0-cpu-100-s;
#X floatatom 29 96 5 0 0 2 - #0-cpu-1000-r #0-cpu-1000-s;
#X floatatom 29 116 5 0 0 2 - #0-cpu-10000-r #0-cpu-10000-s;
#X floatatom 181 21 5 0 0 2 elapsed #0-elapsed-r #0-elapsed-s;
#X floatatom 179 54 5 0 0 2 remaining #0-remain-r #0-remain-s;
#X obj 90 11 vu 15 120 \$0-peak-l-r L -1 -8 0 7 -1 -1 1 0;
#X obj 140 11 vu 15 120 \$0-peak-r-r R -1 -8 0 7 -1 -1 0 0;
#X text 289 86 Twins 2007-05-08a;
#X text 193 102 (copyleft) Claude Heiland-Allen;
#X text 225 119 claudiusmaximus@goto10.org;
