#N canvas 291 1 717 766 10;
#N canvas 353 52 986 609 fft 0;
#X obj 18 500 *~;
#X obj 291 455 *~;
#X obj 258 454 *~;
#X obj 356 456 *~;
#X obj 324 455 *~;
#X obj 324 477 +~;
#X obj 258 479 -~;
#X obj 560 383 *~;
#X obj 54 124 *~;
#X obj 22 124 *~;
#X obj 22 145 +~;
#X obj 325 82 *~;
#X obj 293 82 *~;
#X obj 608 312 *~;
#X obj 576 312 *~;
#X obj 93 63 *~;
#X obj 18 522 outlet~;
#X obj 18 475 *~;
#X obj 126 63 inlet~;
#X obj 93 84 rfft~;
#X obj 18 451 rifft~;
#X obj 576 334 rsqrt~;
#X obj 293 103 +~;
#X obj 484 383 *~;
#X obj 56 499 sig~ 0.0002;
#N canvas 167 161 699 396 decision 0;
#X obj 49 101 inlet~;
#X obj 50 341 outlet~;
#X obj 50 183 -~;
#X obj 50 226 clip~ 0 1;
#X obj 50 204 *~ 1e+020;
#X obj 196 98 inlet~;
#X text 137 213 stronger than;
#X text 139 228 old one;
#X obj 274 202 -~;
#X obj 288 177 lrshift~ 1;
#X obj 274 250 clip~ 0 1;
#X obj 274 228 *~ 1e+020;
#X obj 450 202 -~;
#X obj 450 250 clip~ 0 1;
#X obj 450 228 *~ 1e+020;
#X obj 464 177 lrshift~ -1;
#X obj 50 283 *~;
#X obj 50 312 *~;
#X text 135 199 1 if new signal;
#X text 55 73 new;
#X text 203 70 old;
#X text 51 12 Choose whether to replace the "lod" signal with the "new"
one. The "new" one must be stronger than the old one and also must
be stronger than its two neighboring channels;
#X text 267 283 1 if we're louder than neighbor;
#X connect 0 0 2 0;
#X connect 0 0 9 0;
#X connect 0 0 8 0;
#X connect 0 0 12 0;
#X connect 0 0 15 0;
#X connect 2 0 4 0;
#X connect 3 0 16 0;
#X connect 4 0 3 0;
#X connect 5 0 2 1;
#X connect 8 0 11 0;
#X connect 9 0 8 1;
#X connect 10 0 16 1;
#X connect 11 0 10 0;
#X connect 12 0 14 0;
#X connect 13 0 17 1;
#X connect 14 0 13 0;
#X connect 15 0 12 1;
#X connect 16 0 17 0;
#X connect 17 0 1 0;
#X restore 23 172 pd decision;
#X obj 576 356 *~;
#N canvas 276 481 755 363 divide-by-prev 0;
#X obj 283 99 inlet~;
#X obj 385 101 inlet~;
#X obj 284 249 outlet~;
#X obj 386 249 outlet~;
#X obj 107 251 outlet~;
#X obj 208 253 outlet~;
#X obj 250 180 *~;
#X obj 217 180 *~;
#X obj 182 181 *~;
#X obj 149 181 *~;
#X obj 149 203 +~;
#X obj 217 202 -~;
#X obj 92 49 tabreceive~ \$0-last-real;
#X obj 190 72 tabreceive~ \$0-last-imag;
#X connect 0 0 2 0;
#X connect 0 0 9 0;
#X connect 0 0 6 0;
#X connect 1 0 3 0;
#X connect 1 0 8 0;
#X connect 1 0 7 0;
#X connect 6 0 11 1;
#X connect 7 0 11 0;
#X connect 8 0 10 1;
#X connect 9 0 10 0;
#X connect 10 0 4 0;
#X connect 11 0 5 0;
#X connect 12 0 9 1;
#X connect 12 0 7 1;
#X connect 13 0 8 1;
#X connect 13 0 6 1;
#X restore 603 192 pd divide-by-prev;
#N canvas 650 183 602 327 switch 0;
#X obj 19 163 inlet~;
#X obj 107 99 inlet~;
#X obj 169 100 inlet~;
#X obj 273 97 inlet~;
#X obj 333 97 inlet~;
#X obj 367 185 -~;
#X obj 338 231 +~;
#X obj 372 229 *~;
#X obj 250 182 -~;
#X obj 220 228 +~;
#X obj 254 228 *~;
#X obj 219 278 outlet~;
#X obj 338 274 outlet~;
#X text 46 28 switch between two pairs of inputs. If first inlet is
one \, take the left-hand pair \, otherwise the right-hand one.;
#X text 15 140 switch;
#X text 92 76 pass this if one;
#X text 269 77 pass this if zero;
#X connect 0 0 10 1;
#X connect 0 0 7 1;
#X connect 1 0 8 0;
#X connect 2 0 5 0;
#X connect 3 0 9 0;
#X connect 3 0 8 1;
#X connect 4 0 6 0;
#X connect 4 0 5 1;
#X connect 5 0 7 0;
#X connect 6 0 12 0;
#X connect 7 0 6 1;
#X connect 8 0 10 0;
#X connect 9 0 11 0;
#X connect 10 0 9 1;
#X restore 327 275 pd switch;
#N canvas 650 183 602 327 switch 0;
#X obj 19 163 inlet~;
#X obj 107 99 inlet~;
#X obj 169 100 inlet~;
#X obj 273 97 inlet~;
#X obj 333 97 inlet~;
#X obj 367 185 -~;
#X obj 338 231 +~;
#X obj 372 229 *~;
#X obj 250 182 -~;
#X obj 220 228 +~;
#X obj 254 228 *~;
#X obj 219 278 outlet~;
#X obj 338 274 outlet~;
#X text 46 28 switch between two pairs of inputs. If first inlet is
one \, take the left-hand pair \, otherwise the right-hand one.;
#X text 15 140 switch;
#X text 92 76 pass this if one;
#X text 269 77 pass this if zero;
#X connect 0 0 10 1;
#X connect 0 0 7 1;
#X connect 1 0 8 0;
#X connect 2 0 5 0;
#X connect 3 0 9 0;
#X connect 3 0 8 1;
#X connect 4 0 6 0;
#X connect 4 0 5 1;
#X connect 5 0 7 0;
#X connect 6 0 12 0;
#X connect 7 0 6 1;
#X connect 8 0 10 0;
#X connect 9 0 11 0;
#X connect 10 0 9 1;
#X restore 484 266 pd switch;
#X obj 54 476 tabreceive~ \$0-hann;
#X obj 94 35 tabreceive~ \$0-hann;
#X obj 505 112 tabreceive~ \$0-inc-real;
#X obj 587 134 tabreceive~ \$0-inc-imag;
#X obj 752 220 tabsend~ \$0-last-imag;
#X obj 702 243 tabsend~ \$0-last-real;
#X obj 559 426 tabsend~ \$0-inc-imag;
#X obj 484 449 tabsend~ \$0-inc-real;
#X obj 655 341 expr 1 - 0.2/max(0.2 \, $f1);
#X text 20 206 choose whether to;
#X text 18 224 punch in new (amplitude \,;
#X text 16 243 increment) pair;
#X obj 367 26 tabreceive~ \$0-amp-real;
#X obj 443 50 tabreceive~ \$0-amp-imag;
#X obj 325 537 tabsend~ \$0-amp-imag;
#X obj 258 560 tabsend~ \$0-amp-real;
#X text 361 6 previous output amplitude \, encoding both magnitude
and phase;
#X text 453 87 previous phase increment (unit-magnitude complex number)
;
#X obj 506 134 +~ 1e-015;
#X obj 366 50 +~ 1e-015;
#X text 363 482 propagate amplitudes by multiplying in the;
#X text 361 499 increments \, which advance the phase and drop;
#X text 365 514 magnitude according to revtime.;
#X text 608 370 normalize increments between 0 and;
#X text 606 388 1 according to revtime.;
#X text 78 453 IFFT and output;
#X obj 655 270 r \$0-revtime1;
#X obj 800 455 block~ 4096 4;
#X connect 0 0 16 0;
#X connect 1 0 6 1;
#X connect 2 0 6 0;
#X connect 3 0 5 1;
#X connect 4 0 5 0;
#X connect 5 0 44 0;
#X connect 6 0 45 0;
#X connect 7 0 1 0;
#X connect 7 0 3 0;
#X connect 7 0 36 0;
#X connect 8 0 10 1;
#X connect 9 0 10 0;
#X connect 10 0 25 0;
#X connect 11 0 22 1;
#X connect 12 0 22 0;
#X connect 13 0 21 0;
#X connect 14 0 21 0;
#X connect 15 0 19 0;
#X connect 17 0 0 0;
#X connect 18 0 15 1;
#X connect 19 0 9 0;
#X connect 19 0 9 1;
#X connect 19 0 27 0;
#X connect 19 0 28 1;
#X connect 19 1 8 0;
#X connect 19 1 8 1;
#X connect 19 1 27 1;
#X connect 19 1 28 2;
#X connect 20 0 17 0;
#X connect 21 0 26 0;
#X connect 22 0 25 1;
#X connect 23 0 2 0;
#X connect 23 0 4 0;
#X connect 23 0 37 0;
#X connect 24 0 0 1;
#X connect 25 0 28 0;
#X connect 25 0 29 0;
#X connect 26 0 23 1;
#X connect 26 0 7 1;
#X connect 27 0 29 1;
#X connect 27 1 29 2;
#X connect 27 2 35 0;
#X connect 27 3 34 0;
#X connect 28 0 20 0;
#X connect 28 0 3 1;
#X connect 28 0 2 1;
#X connect 28 1 20 1;
#X connect 28 1 1 1;
#X connect 28 1 4 1;
#X connect 29 0 14 0;
#X connect 29 0 14 1;
#X connect 29 0 23 0;
#X connect 29 1 13 0;
#X connect 29 1 13 1;
#X connect 29 1 7 0;
#X connect 30 0 17 1;
#X connect 31 0 15 0;
#X connect 32 0 48 0;
#X connect 33 0 29 4;
#X connect 38 0 26 1;
#X connect 42 0 49 0;
#X connect 43 0 11 0;
#X connect 43 0 11 1;
#X connect 43 0 28 4;
#X connect 48 0 29 3;
#X connect 49 0 12 0;
#X connect 49 0 12 1;
#X connect 49 0 28 3;
#X connect 56 0 38 0;
#X restore 77 337 pd fft;
#X floatatom 56 215 0 0 1000 0 - - -;
#X text 103 218 reverb time;
#N canvas 90 101 565 454 hann-window 0;
#N canvas 0 22 450 300 (subpatch) 0;
#X array \$0-hann 4096 float 0;
#X coords 0 1 4095 0 300 100 1;
#X restore 82 311 graph;
#X obj 378 165 osc~;
#X obj 378 190 *~ -0.5;
#X obj 378 214 +~ 0.5;
#X obj 331 247 tabwrite~ \$0-hann;
#X obj 38 173 /;
#X obj 127 142 samplerate~;
#X obj 177 204 swap;
#X obj 177 228 /;
#X obj 49 201 * 1000;
#X obj 38 115 t f b f;
#X msg 173 92 resize \$1;
#X obj 173 116 s \$0-hann;
#X msg 382 130 0;
#X obj 330 131 t f b;
#X text 15 8 calculate Hann window table (variable window size) and
constants window-hz (fundamental frequency of analysis) \, window-sec
and window-msec (analysis window size in seconds and msec).;
#X obj 49 228 s \$0-window-msec;
#X obj 38 251 s \$0-window-sec;
#X obj 177 252 s \$0-window-hz;
#X obj 330 105 r \$0-window-hz;
#X obj 38 93 4096;
#X obj 38 71 loadbang;
#X connect 1 0 2 0;
#X connect 2 0 3 0;
#X connect 3 0 4 0;
#X connect 5 0 9 0;
#X connect 5 0 17 0;
#X connect 6 0 5 1;
#X connect 6 0 7 1;
#X connect 7 0 8 0;
#X connect 7 1 8 1;
#X connect 8 0 18 0;
#X connect 9 0 16 0;
#X connect 10 0 5 0;
#X connect 10 0 7 0;
#X connect 10 1 6 0;
#X connect 10 2 11 0;
#X connect 11 0 12 0;
#X connect 13 0 1 1;
#X connect 14 0 1 0;
#X connect 14 1 4 0;
#X connect 14 1 13 0;
#X connect 19 0 14 0;
#X connect 20 0 10 0;
#X connect 21 0 20 0;
#X restore 400 -49 pd hann-window;
#N canvas 52 71 774 520 tables 0;
#N canvas 0 22 450 300 (subpatch) 0;
#X array \$0-last-real 2048 float 0;
#X coords 0 500 2048 -500 200 150 1;
#X restore 103 15 graph;
#N canvas 0 22 450 300 (subpatch) 0;
#X array \$0-last-imag 2048 float 0;
#X coords 0 500 2048 500 200 150 1;
#X restore 497 6 graph;
#N canvas 0 22 450 300 (subpatch) 0;
#X array \$0-amp-real 2048 float 0;
#X coords 0 500 2048 -500 200 150 1;
#X restore 105 185 graph;
#N canvas 0 22 450 300 (subpatch) 0;
#X array \$0-amp-imag 2048 float 0;
#X coords 0 500 2048 -500 200 150 1;
#X restore 501 178 graph;
#N canvas 0 22 450 300 (subpatch) 0;
#X array \$0-inc-real 2048 float 0;
#X coords 0 1 2048 -1 200 150 1;
#X restore 105 357 graph;
#N canvas 0 22 450 300 (subpatch) 0;
#X array \$0-inc-imag 2048 float 0;
#X coords 0 1 2048 -1 200 150 1;
#X restore 503 342 graph;
#X restore 400 -28 pd tables;
#X floatatom 183 177 0 0 1000 0 - - -;
#X text 231 180 reverb time;
#N canvas 52 71 774 520 tables2 0;
#N canvas 0 22 450 300 (subpatch) 0;
#X array \$0-last-real2 2048 float 0;
#X coords 0 500 2048 -500 200 150 1;
#X restore 103 15 graph;
#N canvas 0 22 450 300 (subpatch) 0;
#X array \$0-last-imag2 2048 float 0;
#X coords 0 500 2048 500 200 150 1;
#X restore 497 6 graph;
#N canvas 0 22 450 300 (subpatch) 0;
#X array \$0-amp-real2 2048 float 0;
#X coords 0 500 2048 -500 200 150 1;
#X restore 105 185 graph;
#N canvas 0 22 450 300 (subpatch) 0;
#X array \$0-amp-imag2 2048 float 0;
#X coords 0 500 2048 -500 200 150 1;
#X restore 501 178 graph;
#N canvas 0 22 450 300 (subpatch) 0;
#X array \$0-inc-real2 2048 float 0;
#X coords 0 1 2048 -1 200 150 1;
#X restore 105 357 graph;
#N canvas 0 22 450 300 (subpatch) 0;
#X array \$0-inc-imag2 2048 float 0;
#X coords 0 1 2048 -1 200 150 1;
#X restore 503 355 graph;
#X restore 400 -7 pd tables2;
#N canvas 252 25 986 609 fft2 0;
#X obj 18 500 *~;
#X obj 291 455 *~;
#X obj 258 454 *~;
#X obj 356 456 *~;
#X obj 324 455 *~;
#X obj 324 477 +~;
#X obj 258 479 -~;
#X obj 560 383 *~;
#X obj 54 124 *~;
#X obj 22 124 *~;
#X obj 22 145 +~;
#X obj 325 82 *~;
#X obj 293 82 *~;
#X obj 608 312 *~;
#X obj 576 312 *~;
#X obj 93 63 *~;
#X obj 18 522 outlet~;
#X obj 18 475 *~;
#X obj 126 63 inlet~;
#X obj 93 84 rfft~;
#X obj 18 451 rifft~;
#X obj 576 334 rsqrt~;
#X obj 293 103 +~;
#X obj 484 383 *~;
#X obj 56 499 sig~ 0.0002;
#N canvas 167 161 699 396 decision 0;
#X obj 49 101 inlet~;
#X obj 50 341 outlet~;
#X obj 50 183 -~;
#X obj 50 226 clip~ 0 1;
#X obj 50 204 *~ 1e+020;
#X obj 196 98 inlet~;
#X text 137 213 stronger than;
#X text 139 228 old one;
#X obj 274 202 -~;
#X obj 288 177 lrshift~ 1;
#X obj 274 250 clip~ 0 1;
#X obj 274 228 *~ 1e+020;
#X obj 450 202 -~;
#X obj 450 250 clip~ 0 1;
#X obj 450 228 *~ 1e+020;
#X obj 464 177 lrshift~ -1;
#X obj 50 283 *~;
#X obj 50 312 *~;
#X text 135 199 1 if new signal;
#X text 55 73 new;
#X text 203 70 old;
#X text 51 12 Choose whether to replace the "lod" signal with the "new"
one. The "new" one must be stronger than the old one and also must
be stronger than its two neighboring channels;
#X text 267 283 1 if we're louder than neighbor;
#X connect 0 0 2 0;
#X connect 0 0 9 0;
#X connect 0 0 8 0;
#X connect 0 0 12 0;
#X connect 0 0 15 0;
#X connect 2 0 4 0;
#X connect 3 0 16 0;
#X connect 4 0 3 0;
#X connect 5 0 2 1;
#X connect 8 0 11 0;
#X connect 9 0 8 1;
#X connect 10 0 16 1;
#X connect 11 0 10 0;
#X connect 12 0 14 0;
#X connect 13 0 17 1;
#X connect 14 0 13 0;
#X connect 15 0 12 1;
#X connect 16 0 17 0;
#X connect 17 0 1 0;
#X restore 23 172 pd decision;
#X obj 576 356 *~;
#N canvas 276 481 755 363 divide-by-prev 0;
#X obj 283 99 inlet~;
#X obj 385 101 inlet~;
#X obj 284 249 outlet~;
#X obj 386 249 outlet~;
#X obj 107 251 outlet~;
#X obj 208 253 outlet~;
#X obj 250 180 *~;
#X obj 217 180 *~;
#X obj 182 181 *~;
#X obj 149 181 *~;
#X obj 149 203 +~;
#X obj 217 202 -~;
#X obj 92 49 tabreceive~ \$0-last-real;
#X obj 190 72 tabreceive~ \$0-last-imag;
#X connect 0 0 2 0;
#X connect 0 0 9 0;
#X connect 0 0 6 0;
#X connect 1 0 3 0;
#X connect 1 0 8 0;
#X connect 1 0 7 0;
#X connect 6 0 11 1;
#X connect 7 0 11 0;
#X connect 8 0 10 1;
#X connect 9 0 10 0;
#X connect 10 0 4 0;
#X connect 11 0 5 0;
#X connect 12 0 9 1;
#X connect 12 0 7 1;
#X connect 13 0 8 1;
#X connect 13 0 6 1;
#X restore 603 192 pd divide-by-prev;
#N canvas 650 183 602 327 switch 0;
#X obj 19 163 inlet~;
#X obj 107 99 inlet~;
#X obj 169 100 inlet~;
#X obj 273 97 inlet~;
#X obj 333 97 inlet~;
#X obj 367 185 -~;
#X obj 338 231 +~;
#X obj 372 229 *~;
#X obj 250 182 -~;
#X obj 220 228 +~;
#X obj 254 228 *~;
#X obj 219 278 outlet~;
#X obj 338 274 outlet~;
#X text 46 28 switch between two pairs of inputs. If first inlet is
one \, take the left-hand pair \, otherwise the right-hand one.;
#X text 15 140 switch;
#X text 92 76 pass this if one;
#X text 269 77 pass this if zero;
#X connect 0 0 10 1;
#X connect 0 0 7 1;
#X connect 1 0 8 0;
#X connect 2 0 5 0;
#X connect 3 0 9 0;
#X connect 3 0 8 1;
#X connect 4 0 6 0;
#X connect 4 0 5 1;
#X connect 5 0 7 0;
#X connect 6 0 12 0;
#X connect 7 0 6 1;
#X connect 8 0 10 0;
#X connect 9 0 11 0;
#X connect 10 0 9 1;
#X restore 327 275 pd switch;
#N canvas 650 183 602 327 switch 0;
#X obj 19 163 inlet~;
#X obj 107 99 inlet~;
#X obj 169 100 inlet~;
#X obj 273 97 inlet~;
#X obj 333 97 inlet~;
#X obj 367 185 -~;
#X obj 338 231 +~;
#X obj 372 229 *~;
#X obj 250 182 -~;
#X obj 220 228 +~;
#X obj 254 228 *~;
#X obj 219 278 outlet~;
#X obj 338 274 outlet~;
#X text 46 28 switch between two pairs of inputs. If first inlet is
one \, take the left-hand pair \, otherwise the right-hand one.;
#X text 15 140 switch;
#X text 92 76 pass this if one;
#X text 269 77 pass this if zero;
#X connect 0 0 10 1;
#X connect 0 0 7 1;
#X connect 1 0 8 0;
#X connect 2 0 5 0;
#X connect 3 0 9 0;
#X connect 3 0 8 1;
#X connect 4 0 6 0;
#X connect 4 0 5 1;
#X connect 5 0 7 0;
#X connect 6 0 12 0;
#X connect 7 0 6 1;
#X connect 8 0 10 0;
#X connect 9 0 11 0;
#X connect 10 0 9 1;
#X restore 484 266 pd switch;
#X obj 54 476 tabreceive~ \$0-hann;
#X obj 94 35 tabreceive~ \$0-hann;
#X obj 655 341 expr 1 - 0.2/max(0.2 \, $f1);
#X text 20 206 choose whether to;
#X text 18 224 punch in new (amplitude \,;
#X text 16 243 increment) pair;
#X text 361 6 previous output amplitude \, encoding both magnitude
and phase;
#X text 453 87 previous phase increment (unit-magnitude complex number)
;
#X obj 506 134 +~ 1e-015;
#X obj 366 50 +~ 1e-015;
#X text 363 482 propagate amplitudes by multiplying in the;
#X text 361 499 increments \, which advance the phase and drop;
#X text 365 514 magnitude according to revtime.;
#X text 608 370 normalize increments between 0 and;
#X text 606 388 1 according to revtime.;
#X text 78 453 IFFT and output;
#X obj 258 560 tabsend~ \$0-amp-real2;
#X obj 325 537 tabsend~ \$0-amp-imag2;
#X obj 484 449 tabsend~ \$0-inc-real2;
#X obj 559 426 tabsend~ \$0-inc-imag2;
#X obj 752 220 tabsend~ \$0-last-imag2;
#X obj 702 243 tabsend~ \$0-last-real2;
#X obj 587 134 tabreceive~ \$0-inc-imag2;
#X obj 505 112 tabreceive~ \$0-inc-real2;
#X obj 443 50 tabreceive~ \$0-amp-imag2;
#X obj 367 26 tabreceive~ \$0-amp-real2;
#X obj 655 270 r \$0-revtime2;
#X obj 800 455 block~ 4096 4;
#X connect 0 0 16 0;
#X connect 1 0 6 1;
#X connect 2 0 6 0;
#X connect 3 0 5 1;
#X connect 4 0 5 0;
#X connect 5 0 47 0;
#X connect 6 0 46 0;
#X connect 7 0 1 0;
#X connect 7 0 3 0;
#X connect 7 0 49 0;
#X connect 8 0 10 1;
#X connect 9 0 10 0;
#X connect 10 0 25 0;
#X connect 11 0 22 1;
#X connect 12 0 22 0;
#X connect 13 0 21 0;
#X connect 14 0 21 0;
#X connect 15 0 19 0;
#X connect 17 0 0 0;
#X connect 18 0 15 1;
#X connect 19 0 9 0;
#X connect 19 0 9 1;
#X connect 19 0 27 0;
#X connect 19 0 28 1;
#X connect 19 1 8 0;
#X connect 19 1 8 1;
#X connect 19 1 27 1;
#X connect 19 1 28 2;
#X connect 20 0 17 0;
#X connect 21 0 26 0;
#X connect 22 0 25 1;
#X connect 23 0 2 0;
#X connect 23 0 4 0;
#X connect 23 0 48 0;
#X connect 24 0 0 1;
#X connect 25 0 28 0;
#X connect 25 0 29 0;
#X connect 26 0 23 1;
#X connect 26 0 7 1;
#X connect 27 0 29 1;
#X connect 27 1 29 2;
#X connect 27 2 51 0;
#X connect 27 3 50 0;
#X connect 28 0 20 0;
#X connect 28 0 3 1;
#X connect 28 0 2 1;
#X connect 28 1 20 1;
#X connect 28 1 1 1;
#X connect 28 1 4 1;
#X connect 29 0 14 0;
#X connect 29 0 14 1;
#X connect 29 0 23 0;
#X connect 29 1 13 0;
#X connect 29 1 13 1;
#X connect 29 1 7 0;
#X connect 30 0 17 1;
#X connect 31 0 15 0;
#X connect 32 0 26 1;
#X connect 38 0 29 3;
#X connect 39 0 12 0;
#X connect 39 0 12 1;
#X connect 39 0 28 3;
#X connect 52 0 29 4;
#X connect 53 0 38 0;
#X connect 54 0 11 0;
#X connect 54 0 11 1;
#X connect 54 0 28 4;
#X connect 55 0 39 0;
#X connect 56 0 32 0;
#X restore 22 338 pd fft2;
#X obj 185 -19 metro 10;
#X obj 185 -38 tgl 15 0 empty empty empty 17 7 0 10 -262144 -1 -1 1
1;
#X obj 184 51 random 10000;
#X obj 192 93 osc~;
#X obj 184 115 snapshot~;
#X obj 183 135 abs;
#X obj 184 71 * 1e-005;
#X obj 101 51 random 10000;
#X obj 109 93 osc~;
#X obj 101 115 snapshot~;
#X obj 100 135 abs;
#N canvas 225 57 549 686 scqwelch 0;
#X obj 37 140 noise~;
#X obj 164 237 *~;
#X obj 182 210 vline~;
#X obj 94 12 loadbang;
#X msg 182 183 \$1 \, 0 5;
#X obj 94 39 metro;
#X obj 182 162 random 50;
#X obj 94 170 vline~;
#X obj 75 195 vcf~ 52;
#X floatatom 195 137 5 0 0 0 - - -;
#X obj 94 125 pack 0 0;
#X msg 94 149 \$1 \$2;
#X obj 195 116 t a a;
#X obj 195 91 expr ($i1 + $i2 + 1) % ($i3 + 1);
#X obj 195 67 random 100;
#X obj 94 91 random 20000;
#X obj 165 262 vcf~ 52;
#X obj 258 233 vline~;
#X obj 258 188 pack 0 0;
#X msg 258 212 \$1 \$2;
#X obj 258 154 random 20000;
#X obj 167 404 clip~ -0.25 0.25;
#X obj 167 379 *~;
#X obj 305 265 random 10000;
#X obj 305 285 * 0.0001;
#X msg 304 330 0;
#X obj 218 506 osc~;
#X obj 218 428 metro 1000;
#X obj 218 454 random 1000;
#X obj 203 532 *~;
#X obj 288 558 *~;
#X obj 303 532 *~ -1;
#X floatatom 346 355 5 0 0 0 - - -;
#X obj 304 309 moses 0.7;
#X obj 221 329 osc~ 0.01;
#X obj 218 480 * 0.001;
#X obj 222 352 *~;
#X obj 346 375 * 0.15;
#X obj 202 585 throw~ \$0-liiift;
#X obj 319 585 throw~ \$0-riiiight;
#X connect 0 0 8 0;
#X connect 1 0 16 0;
#X connect 2 0 1 1;
#X connect 3 0 5 0;
#X connect 3 0 27 0;
#X connect 4 0 2 0;
#X connect 5 0 6 0;
#X connect 5 0 14 0;
#X connect 5 0 15 0;
#X connect 5 0 20 0;
#X connect 5 0 23 0;
#X connect 6 0 4 0;
#X connect 7 0 8 1;
#X connect 8 0 1 0;
#X connect 10 0 11 0;
#X connect 11 0 7 0;
#X connect 12 0 9 0;
#X connect 12 0 5 1;
#X connect 12 1 13 1;
#X connect 13 0 12 0;
#X connect 14 0 13 0;
#X connect 14 0 13 2;
#X connect 15 0 10 0;
#X connect 16 0 22 0;
#X connect 17 0 16 1;
#X connect 18 0 19 0;
#X connect 19 0 17 0;
#X connect 20 0 18 0;
#X connect 21 0 29 0;
#X connect 22 0 21 0;
#X connect 23 0 24 0;
#X connect 24 0 33 0;
#X connect 25 0 32 0;
#X connect 26 0 29 1;
#X connect 26 0 31 0;
#X connect 27 0 28 0;
#X connect 28 0 35 0;
#X connect 29 0 30 0;
#X connect 29 0 38 0;
#X connect 30 0 39 0;
#X connect 31 0 30 1;
#X connect 32 0 34 0;
#X connect 32 0 37 0;
#X connect 33 0 25 0;
#X connect 33 1 32 0;
#X connect 34 0 36 0;
#X connect 35 0 26 0;
#X connect 36 0 22 1;
#X connect 37 0 36 1;
#X restore 455 41 pd scqwelch;
#X obj 101 71 * 1e-006;
#X obj 56 196 * 30;
#X obj 183 155 * 30;
#X obj 269 48 random 10000;
#X obj 277 90 osc~;
#X obj 269 112 snapshot~;
#X obj 268 132 abs;
#X obj 269 68 * 1e-005;
#X obj 268 152 * 30;
#X obj 19 52 random 10000;
#X obj 27 94 osc~;
#X obj 19 116 snapshot~;
#X obj 18 136 abs;
#X obj 19 72 * 1e-005;
#X obj 18 156 * 30;
#N canvas 0 22 408 455 ringz 0;
#X obj 36 46 *~ 1;
#X obj 87 183 snapshot~;
#X obj 95 77 metro 50;
#X obj 261 184 snapshot~;
#X obj 261 157 osc~ 0.1;
#X obj 87 267 mtof;
#X obj 72 347 *~;
#X obj 261 268 mtof;
#X obj 246 348 *~;
#X obj 73 372 *~ 1;
#X obj 246 373 *~ 1;
#X obj 111 54 loadbang;
#X obj 35 24 inlet~;
#X obj 73 396 outlet~;
#X obj 246 394 outlet~;
#X obj 261 116 random 10000;
#X obj 261 136 * 0.0001;
#X obj 88 243 * 10;
#X obj 89 212 abs;
#X obj 262 211 abs;
#X obj 261 235 * 10;
#X obj 261 322 phasor~;
#X obj 87 321 osc~;
#X obj 87 295 - 8;
#X obj 261 296 - 8;
#X obj 322 187 random 10000;
#X obj 323 227 osc~;
#X obj 323 247 snapshot~;
#X obj 322 267 abs;
#X obj 322 207 * 1e-005;
#X obj 322 287 * 10;
#X obj 96 156 osc~ 0.05;
#X connect 0 0 6 0;
#X connect 1 0 18 0;
#X connect 2 0 1 0;
#X connect 2 0 3 0;
#X connect 2 0 15 0;
#X connect 2 0 25 0;
#X connect 3 0 19 0;
#X connect 4 0 3 0;
#X connect 5 0 23 0;
#X connect 6 0 8 0;
#X connect 6 0 9 0;
#X connect 7 0 24 0;
#X connect 8 0 10 0;
#X connect 9 0 13 0;
#X connect 10 0 14 0;
#X connect 11 0 2 0;
#X connect 12 0 0 0;
#X connect 15 0 16 0;
#X connect 16 0 4 0;
#X connect 17 0 5 0;
#X connect 18 0 17 0;
#X connect 19 0 20 0;
#X connect 20 0 7 0;
#X connect 21 0 8 1;
#X connect 22 0 6 1;
#X connect 23 0 22 0;
#X connect 24 0 21 0;
#X connect 25 0 29 0;
#X connect 26 0 27 0;
#X connect 27 0 28 0;
#X connect 28 0 30 0;
#X connect 29 0 26 0;
#X connect 30 0 24 1;
#X connect 31 0 1 0;
#X restore 58 388 pd ringz;
#X obj 58 367 *~;
#X obj 124 367 *~;
#X obj -53 500 *~;
#X obj 292 440 *~;
#X obj 307 398 osc~ 0.1;
#X obj 307 357 random 10000;
#X obj 307 377 * 1e-005;
#X obj 217 303 clip~ 0 1;
#X obj -92 372 *~;
#X obj -92 347 osc~ 0.1;
#X obj -92 306 random 10000;
#X obj -92 326 * 1e-005;
#X obj 307 419 clip~ 0 1;
#X obj -92 392 clip~ 0 1;
#X obj 114 639 env~ 64;
#X obj -37 480 phasor~ 0.02;
#X obj 139 345 phasor~ 0.03;
#X obj 185 -61 loadbang;
#N canvas 0 22 857 620 snippetwindow 0;
#X obj 151 201 t f f;
#X obj 40 463 * 0.001;
#X obj 248 247 t b;
#X floatatom 113 132 5 0 0 0 - - -;
#X obj 201 126 bng 15 250 50 0 empty empty empty 17 7 0 10 -262144
-1 -1;
#X obj 151 28 loadbang;
#X obj 151 173 + 1;
#X msg 248 266 1000;
#X obj 178 381 sin;
#X obj 178 404 clip 0 1;
#X obj 311 279 * -1;
#X obj 123 38 bng 15 250 50 0 empty empty empty 17 7 0 10 -262144 -1
-1;
#X obj 151 53 kalashnikov 8820;
#X obj 151 103 counter 8820;
#X obj 178 228 moses 200;
#X obj 248 228 moses 8600;
#X obj 311 251 - 8600;
#X obj 311 304 + 200;
#X obj 178 356 expr ($f1/1000)*7.65;
#X obj 550 204 t f f;
#X obj 439 466 * 0.001;
#X floatatom 512 135 5 0 0 0 - - -;
#X obj 600 129 bng 15 250 50 0 empty empty empty 17 7 0 10 -262144
-1 -1;
#X obj 550 31 loadbang;
#X obj 550 176 + 1;
#X obj 577 384 sin;
#X obj 577 407 clip 0 1;
#X obj 683 284 * -1;
#X obj 522 41 bng 15 250 50 0 empty empty empty 17 7 0 10 -262144 -1
-1;
#X obj 550 56 kalashnikov 8820;
#X obj 550 106 counter 8820;
#X obj 577 231 moses 200;
#X obj 683 309 + 8620;
#X obj 668 338 expr ($f1/1000)*0.1;
#X obj 541 307 expr ($f1/1000)*4.5;
#X obj 439 489 tabwrite \$0-grainshape2;
#X obj 40 486 tabwrite \$0-grainshape;
#X obj 340 92 table \$0-grainshape 8820;
#X obj 340 129 table \$0-grainshape2 8820;
#X connect 0 0 36 1;
#X connect 0 1 14 0;
#X connect 1 0 36 0;
#X connect 2 0 7 0;
#X connect 5 0 12 0;
#X connect 6 0 0 0;
#X connect 7 0 1 0;
#X connect 8 0 9 0;
#X connect 9 0 36 0;
#X connect 10 0 17 0;
#X connect 11 0 12 0;
#X connect 12 0 13 0;
#X connect 13 0 3 0;
#X connect 13 0 6 0;
#X connect 13 2 4 0;
#X connect 14 0 18 0;
#X connect 14 1 15 0;
#X connect 15 0 2 0;
#X connect 15 1 16 0;
#X connect 16 0 10 0;
#X connect 17 0 18 0;
#X connect 18 0 8 0;
#X connect 19 0 35 1;
#X connect 19 1 31 0;
#X connect 20 0 35 0;
#X connect 23 0 29 0;
#X connect 24 0 19 0;
#X connect 25 0 26 0;
#X connect 26 0 35 0;
#X connect 27 0 32 0;
#X connect 28 0 29 0;
#X connect 29 0 30 0;
#X connect 30 0 21 0;
#X connect 30 0 24 0;
#X connect 30 2 22 0;
#X connect 31 0 34 0;
#X connect 31 1 27 0;
#X connect 32 0 33 0;
#X connect 33 0 25 0;
#X connect 34 0 25 0;
#X restore 497 9 pd snippetwindow;
#N canvas 981 219 355 397 arraybank1 0;
#N canvas 0 22 450 300 (subpatch) 0;
#X array \$0-a1 8820 float 2;
#X coords 0 1 8819 -1 100 70 1;
#X restore 21 28 graph;
#N canvas 0 22 450 300 (subpatch) 0;
#X array \$0-a2 8820 float 2;
#X coords 0 1 8819 -1 100 70 1;
#X restore 20 116 graph;
#N canvas 0 22 450 300 (subpatch) 0;
#X array \$0-a3 8820 float 2;
#X coords 0 1 8819 -1 100 70 1;
#X restore 20 202 graph;
#N canvas 0 22 450 300 (subpatch) 0;
#X array \$0-a4 8820 float 2;
#X coords 0 1 8819 -1 100 70 1;
#X restore 19 290 graph;
#N canvas 0 22 450 300 (subpatch) 0;
#X array \$0-a5 8820 float 2;
#X coords 0 1 8819 -1 100 70 1;
#X restore 222 33 graph;
#N canvas 0 22 450 300 (subpatch) 0;
#X array \$0-a6 8820 float 2;
#X coords 0 1 8819 -1 100 70 1;
#X restore 221 121 graph;
#N canvas 0 22 450 300 (subpatch) 0;
#X array \$0-a7 8820 float 2;
#X coords 0 1 8819 -1 100 70 1;
#X restore 221 207 graph;
#N canvas 0 22 450 300 (subpatch) 0;
#X array \$0-a8 8820 float 2;
#X coords 0 1 8819 -1 100 70 1;
#X restore 220 295 graph;
#X restore 497 -50 pd arraybank1;
#X obj 419 301 env~ 64;
#X obj 420 362 sel 1;
#X obj 420 342 change;
#X obj 420 440 bng 30 250 50 0 \$0-ampbang empty empty 0 -6 0 8 -262144
-1 -1;
#N canvas 137 241 1011 428 autorouter 0;
#X msg 24 43 bang;
#X obj 74 93 + 1;
#X obj 24 73 float;
#X msg 105 115 0;
#X floatatom 52 124 5 0 0 0 - - -;
#X obj 247 131 sel 1 2 3 4 5 6 7 8;
#X obj 105 92 sel 8;
#X obj 14 244 *~;
#X obj 65 197 bng 15 250 50 0 empty empty empty 17 7 0 10 -262144 -1
-1;
#X obj 137 243 *~;
#X obj 188 196 bng 15 250 50 0 empty empty empty 17 7 0 10 -262144
-1 -1;
#X obj 260 241 *~;
#X obj 311 194 bng 15 250 50 0 empty empty empty 17 7 0 10 -262144
-1 -1;
#X obj 29 331 *~;
#X obj 80 284 bng 15 250 50 0 empty empty empty 17 7 0 10 -262144 -1
-1;
#X obj 165 341 *~;
#X obj 216 294 bng 15 250 50 0 empty empty empty 17 7 0 10 -262144
-1 -1;
#X obj 288 340 *~;
#X obj 339 293 bng 15 250 50 0 empty empty empty 17 7 0 10 -262144
-1 -1;
#X obj 411 338 *~;
#X obj 462 291 bng 15 250 50 0 empty empty empty 17 7 0 10 -262144
-1 -1;
#X obj 389 238 *~;
#X obj 440 191 bng 15 250 50 0 empty empty empty 17 7 0 10 -262144
-1 -1;
#X obj 389 258 tabwrite~ \$0-a4;
#X obj 379 193 r~ \$0-autosig;
#X obj 250 196 r~ \$0-autosig;
#X obj 127 198 r~ \$0-autosig;
#X obj 4 199 r~ \$0-autosig;
#X obj 19 286 r~ \$0-autosig;
#X obj 14 264 tabwrite~ \$0-a1;
#X obj 29 351 tabwrite~ \$0-a5;
#X obj 137 263 tabwrite~ \$0-a2;
#X obj 260 261 tabwrite~ \$0-a3;
#X obj 412 358 tabwrite~ \$0-a8;
#X obj 288 360 tabwrite~ \$0-a7;
#X obj 165 361 tabwrite~ \$0-a6;
#X obj 155 296 r~ \$0-autosig;
#X obj 278 295 r~ \$0-autosig;
#X obj 401 293 r~ \$0-autosig;
#X obj 426 312 tabplay~ \$0-grainshape;
#X obj 404 212 tabplay~ \$0-grainshape;
#X obj 275 215 tabplay~ \$0-grainshape;
#X obj 152 217 tabplay~ \$0-grainshape;
#X obj 29 218 tabplay~ \$0-grainshape;
#X obj 44 305 tabplay~ \$0-grainshape;
#X obj 180 315 tabplay~ \$0-grainshape;
#X obj 24 16 r \$0-ampbang;
#X obj 145 116 s \$0-transientcount;
#X obj 303 314 tabplay~ \$0-grainshape;
#X connect 0 0 2 0;
#X connect 1 0 2 1;
#X connect 1 0 4 0;
#X connect 1 0 6 0;
#X connect 2 0 1 0;
#X connect 3 0 2 1;
#X connect 4 0 5 0;
#X connect 4 0 47 0;
#X connect 5 0 8 0;
#X connect 5 1 10 0;
#X connect 5 2 12 0;
#X connect 5 3 22 0;
#X connect 5 4 14 0;
#X connect 5 5 16 0;
#X connect 5 6 18 0;
#X connect 5 7 20 0;
#X connect 6 0 3 0;
#X connect 7 0 29 0;
#X connect 8 0 29 0;
#X connect 8 0 43 0;
#X connect 9 0 31 0;
#X connect 10 0 31 0;
#X connect 10 0 42 0;
#X connect 11 0 32 0;
#X connect 12 0 32 0;
#X connect 12 0 41 0;
#X connect 13 0 30 0;
#X connect 14 0 30 0;
#X connect 14 0 44 0;
#X connect 15 0 35 0;
#X connect 16 0 35 0;
#X connect 16 0 45 0;
#X connect 17 0 34 0;
#X connect 18 0 34 0;
#X connect 18 0 48 0;
#X connect 19 0 33 0;
#X connect 20 0 33 0;
#X connect 20 0 39 0;
#X connect 21 0 23 0;
#X connect 22 0 23 0;
#X connect 22 0 40 0;
#X connect 24 0 21 0;
#X connect 25 0 11 0;
#X connect 26 0 9 0;
#X connect 27 0 7 0;
#X connect 28 0 13 0;
#X connect 36 0 15 0;
#X connect 37 0 17 0;
#X connect 38 0 19 0;
#X connect 39 0 19 1;
#X connect 40 0 21 1;
#X connect 41 0 11 1;
#X connect 42 0 9 1;
#X connect 43 0 7 1;
#X connect 44 0 13 1;
#X connect 45 0 15 1;
#X connect 46 0 0 0;
#X connect 48 0 17 1;
#X restore 497 -31 pd autorouter;
#X text 495 -67 200ms buffers;
#N canvas 271 5 1045 689 autoplayerz 0;
#X msg 24 53 bang;
#X obj 74 93 + 1;
#X obj 24 73 float;
#X msg 105 115 0;
#X floatatom 52 124 5 0 0 0 - - -;
#X obj 52 150 sel 1 2 3 4 5 6 7 8;
#X obj 105 92 sel 8;
#X obj 15 386 vline~;
#X msg 15 365 0 \, 8820 \$1;
#X obj 15 321 pow;
#X msg 15 295 2;
#X obj 15 272 t b a;
#X obj 14 208 bng 15 250 50 0 empty empty empty 17 7 0 10 -262144 -1
-1;
#X obj 14 250 + 1;
#X obj 15 343 * 6.25;
#X obj 108 385 vline~;
#X msg 108 364 0 \, 8820 \$1;
#X obj 108 320 pow;
#X msg 108 294 2;
#X obj 108 271 t b a;
#X obj 107 207 bng 15 250 50 0 empty empty empty 17 7 0 10 -262144
-1 -1;
#X obj 107 249 + 1;
#X obj 108 342 * 6.25;
#X obj 201 384 vline~;
#X msg 201 363 0 \, 8820 \$1;
#X obj 201 319 pow;
#X msg 201 293 2;
#X obj 201 270 t b a;
#X obj 200 206 bng 15 250 50 0 empty empty empty 17 7 0 10 -262144
-1 -1;
#X obj 200 248 + 1;
#X obj 201 341 * 6.25;
#X obj 294 383 vline~;
#X msg 294 362 0 \, 8820 \$1;
#X obj 294 318 pow;
#X msg 294 292 2;
#X obj 294 269 t b a;
#X obj 293 205 bng 15 250 50 0 empty empty empty 17 7 0 10 -262144
-1 -1;
#X obj 293 247 + 1;
#X obj 294 340 * 6.25;
#X obj 388 382 vline~;
#X msg 388 361 0 \, 8820 \$1;
#X obj 388 317 pow;
#X msg 388 291 2;
#X obj 388 268 t b a;
#X obj 387 204 bng 15 250 50 0 empty empty empty 17 7 0 10 -262144
-1 -1;
#X obj 387 246 + 1;
#X obj 388 339 * 6.25;
#X obj 481 381 vline~;
#X msg 481 360 0 \, 8820 \$1;
#X obj 481 316 pow;
#X msg 481 290 2;
#X obj 481 267 t b a;
#X obj 480 203 bng 15 250 50 0 empty empty empty 17 7 0 10 -262144
-1 -1;
#X obj 480 245 + 1;
#X obj 481 338 * 6.25;
#X obj 574 380 vline~;
#X msg 574 359 0 \, 8820 \$1;
#X obj 574 315 pow;
#X msg 574 289 2;
#X obj 574 266 t b a;
#X obj 573 202 bng 15 250 50 0 empty empty empty 17 7 0 10 -262144
-1 -1;
#X obj 573 244 + 1;
#X obj 574 337 * 6.25;
#X obj 667 379 vline~;
#X msg 667 358 0 \, 8820 \$1;
#X obj 667 314 pow;
#X msg 667 288 2;
#X obj 667 265 t b a;
#X obj 666 201 bng 15 250 50 0 empty empty empty 17 7 0 10 -262144
-1 -1;
#X obj 666 243 + 1;
#X obj 667 336 * 6.25;
#X obj 666 221 random 7;
#X obj 573 222 random 7;
#X obj 480 223 random 7;
#X obj 387 224 random 7;
#X obj 293 225 random 7;
#X obj 200 226 random 7;
#X obj 107 227 random 7;
#X obj 14 228 random 7;
#X obj 798 255 sel 800;
#X obj 766 608 *~;
#X obj 690 498 osc~ 90;
#X obj 818 304 bng 15 250 50 0 empty empty empty 17 7 0 10 -262144
-1 -1;
#X obj 722 526 osc~ 66;
#X obj 15 428 throw~ \$0-autoout;
#X obj 108 427 throw~ \$0-autoout;
#X obj 201 426 throw~ \$0-autoout;
#X obj 294 425 throw~ \$0-autoout;
#X obj 388 424 throw~ \$0-autoout;
#X obj 481 423 throw~ \$0-autoout;
#X obj 574 422 throw~ \$0-autoout;
#X obj 667 421 throw~ \$0-autoout;
#X obj 765 630 throw~ \$0-kkkiiikkk;
#X obj 792 589 tabplay~ \$0-grainshape2;
#X obj 24 34 r \$0-arpbanggg;
#X obj 15 406 tabread4~ \$0-a1;
#X obj 108 405 tabread4~ \$0-a2;
#X obj 201 404 tabread4~ \$0-a3;
#X obj 294 403 tabread4~ \$0-a4;
#X obj 388 402 tabread4~ \$0-a5;
#X obj 481 401 tabread4~ \$0-a6;
#X obj 574 400 tabread4~ \$0-a7;
#X obj 667 399 tabread4~ \$0-a8;
#X connect 0 0 2 0;
#X connect 1 0 2 1;
#X connect 1 0 4 0;
#X connect 1 0 6 0;
#X connect 2 0 1 0;
#X connect 3 0 2 1;
#X connect 4 0 5 0;
#X connect 5 0 12 0;
#X connect 5 1 20 0;
#X connect 5 2 28 0;
#X connect 5 3 36 0;
#X connect 5 4 44 0;
#X connect 5 5 52 0;
#X connect 5 6 60 0;
#X connect 5 7 68 0;
#X connect 6 0 3 0;
#X connect 7 0 95 0;
#X connect 8 0 7 0;
#X connect 9 0 14 0;
#X connect 10 0 9 0;
#X connect 11 0 10 0;
#X connect 11 1 9 1;
#X connect 12 0 78 0;
#X connect 13 0 11 0;
#X connect 14 0 8 0;
#X connect 14 0 79 0;
#X connect 15 0 96 0;
#X connect 16 0 15 0;
#X connect 17 0 22 0;
#X connect 18 0 17 0;
#X connect 19 0 18 0;
#X connect 19 1 17 1;
#X connect 20 0 77 0;
#X connect 21 0 19 0;
#X connect 22 0 16 0;
#X connect 22 0 79 0;
#X connect 23 0 97 0;
#X connect 24 0 23 0;
#X connect 25 0 30 0;
#X connect 26 0 25 0;
#X connect 27 0 26 0;
#X connect 27 1 25 1;
#X connect 28 0 76 0;
#X connect 29 0 27 0;
#X connect 30 0 24 0;
#X connect 30 0 79 0;
#X connect 31 0 98 0;
#X connect 32 0 31 0;
#X connect 33 0 38 0;
#X connect 34 0 33 0;
#X connect 35 0 34 0;
#X connect 35 1 33 1;
#X connect 36 0 75 0;
#X connect 37 0 35 0;
#X connect 38 0 32 0;
#X connect 38 0 79 0;
#X connect 39 0 99 0;
#X connect 40 0 39 0;
#X connect 41 0 46 0;
#X connect 42 0 41 0;
#X connect 43 0 42 0;
#X connect 43 1 41 1;
#X connect 44 0 74 0;
#X connect 45 0 43 0;
#X connect 46 0 40 0;
#X connect 46 0 79 0;
#X connect 47 0 100 0;
#X connect 48 0 47 0;
#X connect 49 0 54 0;
#X connect 50 0 49 0;
#X connect 51 0 50 0;
#X connect 51 1 49 1;
#X connect 52 0 73 0;
#X connect 53 0 51 0;
#X connect 54 0 48 0;
#X connect 54 0 79 0;
#X connect 55 0 101 0;
#X connect 56 0 55 0;
#X connect 57 0 62 0;
#X connect 58 0 57 0;
#X connect 59 0 58 0;
#X connect 59 1 57 1;
#X connect 60 0 72 0;
#X connect 61 0 59 0;
#X connect 62 0 56 0;
#X connect 62 0 79 0;
#X connect 63 0 102 0;
#X connect 64 0 63 0;
#X connect 65 0 70 0;
#X connect 66 0 65 0;
#X connect 67 0 66 0;
#X connect 67 1 65 1;
#X connect 68 0 71 0;
#X connect 69 0 67 0;
#X connect 70 0 64 0;
#X connect 70 0 79 0;
#X connect 71 0 69 0;
#X connect 72 0 61 0;
#X connect 73 0 53 0;
#X connect 74 0 45 0;
#X connect 75 0 37 0;
#X connect 76 0 29 0;
#X connect 77 0 21 0;
#X connect 78 0 13 0;
#X connect 79 0 82 0;
#X connect 80 0 92 0;
#X connect 81 0 80 0;
#X connect 82 0 93 0;
#X connect 83 0 80 0;
#X connect 93 0 80 1;
#X connect 94 0 0 0;
#X connect 95 0 84 0;
#X connect 96 0 85 0;
#X connect 97 0 86 0;
#X connect 98 0 87 0;
#X connect 99 0 88 0;
#X connect 100 0 89 0;
#X connect 101 0 90 0;
#X connect 102 0 91 0;
#X restore 497 -11 pd autoplayerz;
#X obj 420 419 spigot;
#X obj 453 382 realtime;
#X obj 496 358 bang~;
#X obj 453 400 > 200;
#X obj 419 271 *~ 1;
#X floatatom 463 325 5 0 0 0 - - -;
#X floatatom 421 507 5 0 0 0 - - -;
#X obj 421 525 change;
#X obj 421 544 sel 1;
#X obj 454 564 realtime;
#X obj 395 569 spigot;
#X obj 395 589 bng 15 250 50 0 empty empty empty 17 7 0 10 -262144
-1 -1;
#X obj 497 544 bang~;
#X obj 99 530 hip~ 30;
#X obj 51 530 hip~ 30;
#X obj 21 312 lop~ 1000;
#X obj 88 312 lop~ 2000;
#X obj 420 322 > 66;
#X obj 420 486 < 30;
#X obj 96 613 *~ 1;
#X obj 51 594 *~ 1;
#X obj 217 282 osc~ 0.005;
#X obj 470 276 clip~ -0.75 0.75;
#X obj 454 582 > 100;
#X obj 470 256 *~ 5;
#X obj -107 582 osc~;
#X obj -107 541 random 1000;
#X obj -51 618 *~;
#X obj -28 618 *~;
#X obj -13 600 *~ -1;
#X obj -107 561 * 0.001;
#X obj 48 439 osc~ 0.01111;
#X obj 48 458 +~ 1;
#X obj 49 479 *~ 500;
#X text 452 445 sample it;
#X text 346 587 play it;
#X obj 184 530 *~;
#X obj 199 447 random 10000;
#X obj 199 509 clip~ 0 1;
#X obj 186 592 lop~ 100;
#X obj 199 488 osc~ 0.01;
#X obj 185 550 *~ 10;
#X obj 185 571 clip~ -0.25 0.25;
#X obj 199 467 * 1e-006;
#X obj 45 649 patchComs;
#X obj 45 670 switch~;
#X obj 49 498 vd~ \$0-horrid 1000;
#X obj 58 407 delwrite~ \$0-horrid 1000;
#X obj 59 561 catch~ \$0-kkkiiikkk;
#X obj -54 566 catch~ \$0-autoout;
#X obj 395 607 s \$0-arpbanggg;
#X obj 470 297 s~ \$0-autosig;
#X obj 183 201 s \$0-revtime2;
#X obj 56 239 s \$0-revtime1;
#X obj -4 282 catch~ \$0-liiift;
#X obj 98 282 catch~ \$0-riiiight;
#N canvas 396 17 549 686 scqwelch 0;
#X obj 37 140 noise~;
#X obj 164 237 *~;
#X obj 182 210 vline~;
#X obj 94 12 loadbang;
#X msg 182 183 \$1 \, 0 5;
#X obj 94 39 metro;
#X obj 182 162 random 50;
#X obj 94 170 vline~;
#X obj 75 195 vcf~ 52;
#X floatatom 195 137 5 0 0 0 - - -;
#X obj 94 125 pack 0 0;
#X msg 94 149 \$1 \$2;
#X obj 195 116 t a a;
#X obj 195 91 expr ($i1 + $i2 + 1) % ($i3 + 1);
#X obj 195 67 random 100;
#X obj 94 91 random 20000;
#X obj 165 262 vcf~ 52;
#X obj 258 233 vline~;
#X obj 258 188 pack 0 0;
#X msg 258 212 \$1 \$2;
#X obj 258 154 random 20000;
#X obj 167 404 clip~ -0.25 0.25;
#X obj 167 379 *~;
#X obj 305 265 random 10000;
#X obj 305 285 * 0.0001;
#X msg 304 330 0;
#X obj 218 506 osc~;
#X obj 218 428 metro 1000;
#X obj 218 454 random 1000;
#X obj 203 532 *~;
#X obj 288 558 *~;
#X obj 303 532 *~ -1;
#X floatatom 346 355 5 0 0 0 - - -;
#X obj 304 309 moses 0.7;
#X obj 221 329 osc~ 0.01;
#X obj 218 480 * 0.001;
#X obj 222 352 *~;
#X obj 346 375 * 0.15;
#X obj 202 585 throw~ \$0-liiift;
#X obj 319 585 throw~ \$0-riiiight;
#X connect 0 0 8 0;
#X connect 1 0 16 0;
#X connect 2 0 1 1;
#X connect 3 0 5 0;
#X connect 3 0 27 0;
#X connect 4 0 2 0;
#X connect 5 0 6 0;
#X connect 5 0 14 0;
#X connect 5 0 15 0;
#X connect 5 0 20 0;
#X connect 5 0 23 0;
#X connect 6 0 4 0;
#X connect 7 0 8 1;
#X connect 8 0 1 0;
#X connect 10 0 11 0;
#X connect 11 0 7 0;
#X connect 12 0 9 0;
#X connect 12 0 5 1;
#X connect 12 1 13 1;
#X connect 13 0 12 0;
#X connect 14 0 13 0;
#X connect 14 0 13 2;
#X connect 15 0 10 0;
#X connect 16 0 22 0;
#X connect 17 0 16 1;
#X connect 18 0 19 0;
#X connect 19 0 17 0;
#X connect 20 0 18 0;
#X connect 21 0 29 0;
#X connect 22 0 21 0;
#X connect 23 0 24 0;
#X connect 24 0 33 0;
#X connect 25 0 32 0;
#X connect 26 0 29 1;
#X connect 26 0 31 0;
#X connect 27 0 28 0;
#X connect 28 0 35 0;
#X connect 29 0 30 0;
#X connect 29 0 38 0;
#X connect 30 0 39 0;
#X connect 31 0 30 1;
#X connect 32 0 34 0;
#X connect 32 0 37 0;
#X connect 33 0 25 0;
#X connect 33 1 32 0;
#X connect 34 0 36 0;
#X connect 35 0 26 0;
#X connect 36 0 22 1;
#X connect 37 0 36 1;
#X restore 529 41 pd scqwelch;
#N canvas 225 57 549 686 scqwelch 0;
#X obj 37 140 noise~;
#X obj 164 237 *~;
#X obj 182 210 vline~;
#X obj 94 12 loadbang;
#X msg 182 183 \$1 \, 0 5;
#X obj 94 39 metro;
#X obj 182 162 random 50;
#X obj 94 170 vline~;
#X obj 75 195 vcf~ 52;
#X floatatom 195 137 5 0 0 0 - - -;
#X obj 94 125 pack 0 0;
#X msg 94 149 \$1 \$2;
#X obj 195 116 t a a;
#X obj 195 91 expr ($i1 + $i2 + 1) % ($i3 + 1);
#X obj 195 67 random 100;
#X obj 94 91 random 20000;
#X obj 165 262 vcf~ 52;
#X obj 258 233 vline~;
#X obj 258 188 pack 0 0;
#X msg 258 212 \$1 \$2;
#X obj 258 154 random 20000;
#X obj 167 404 clip~ -0.25 0.25;
#X obj 167 379 *~;
#X obj 305 265 random 10000;
#X obj 305 285 * 0.0001;
#X msg 304 330 0;
#X obj 218 506 osc~;
#X obj 218 428 metro 1000;
#X obj 218 454 random 1000;
#X obj 203 532 *~;
#X obj 288 558 *~;
#X obj 303 532 *~ -1;
#X floatatom 346 355 5 0 0 0 - - -;
#X obj 304 309 moses 0.7;
#X obj 221 329 osc~ 0.01;
#X obj 218 480 * 0.001;
#X obj 222 352 *~;
#X obj 346 375 * 0.15;
#X obj 202 585 throw~ \$0-liiift;
#X obj 319 585 throw~ \$0-riiiight;
#X connect 0 0 8 0;
#X connect 1 0 16 0;
#X connect 2 0 1 1;
#X connect 3 0 5 0;
#X connect 3 0 27 0;
#X connect 4 0 2 0;
#X connect 5 0 6 0;
#X connect 5 0 14 0;
#X connect 5 0 15 0;
#X connect 5 0 20 0;
#X connect 5 0 23 0;
#X connect 6 0 4 0;
#X connect 7 0 8 1;
#X connect 8 0 1 0;
#X connect 10 0 11 0;
#X connect 11 0 7 0;
#X connect 12 0 9 0;
#X connect 12 0 5 1;
#X connect 12 1 13 1;
#X connect 13 0 12 0;
#X connect 14 0 13 0;
#X connect 14 0 13 2;
#X connect 15 0 10 0;
#X connect 16 0 22 0;
#X connect 17 0 16 1;
#X connect 18 0 19 0;
#X connect 19 0 17 0;
#X connect 20 0 18 0;
#X connect 21 0 29 0;
#X connect 22 0 21 0;
#X connect 23 0 24 0;
#X connect 24 0 33 0;
#X connect 25 0 32 0;
#X connect 26 0 29 1;
#X connect 26 0 31 0;
#X connect 27 0 28 0;
#X connect 28 0 35 0;
#X connect 29 0 30 0;
#X connect 29 0 38 0;
#X connect 30 0 39 0;
#X connect 31 0 30 1;
#X connect 32 0 34 0;
#X connect 32 0 37 0;
#X connect 33 0 25 0;
#X connect 33 1 32 0;
#X connect 34 0 36 0;
#X connect 35 0 26 0;
#X connect 36 0 22 1;
#X connect 37 0 36 1;
#X restore 453 63 pd scqwelch;
#N canvas 225 57 549 686 scqwelch 0;
#X obj 37 140 noise~;
#X obj 164 237 *~;
#X obj 182 210 vline~;
#X obj 94 12 loadbang;
#X msg 182 183 \$1 \, 0 5;
#X obj 94 39 metro;
#X obj 182 162 random 50;
#X obj 94 170 vline~;
#X obj 75 195 vcf~ 52;
#X floatatom 195 137 5 0 0 0 - - -;
#X obj 94 125 pack 0 0;
#X msg 94 149 \$1 \$2;
#X obj 195 116 t a a;
#X obj 195 91 expr ($i1 + $i2 + 1) % ($i3 + 1);
#X obj 195 67 random 100;
#X obj 94 91 random 20000;
#X obj 165 262 vcf~ 52;
#X obj 258 233 vline~;
#X obj 258 188 pack 0 0;
#X msg 258 212 \$1 \$2;
#X obj 258 154 random 20000;
#X obj 167 404 clip~ -0.25 0.25;
#X obj 167 379 *~;
#X obj 305 265 random 10000;
#X obj 305 285 * 0.0001;
#X msg 304 330 0;
#X obj 218 506 osc~;
#X obj 218 428 metro 1000;
#X obj 218 454 random 1000;
#X obj 203 532 *~;
#X obj 288 558 *~;
#X obj 303 532 *~ -1;
#X floatatom 346 355 5 0 0 0 - - -;
#X obj 304 309 moses 0.7;
#X obj 221 329 osc~ 0.01;
#X obj 218 480 * 0.001;
#X obj 222 352 *~;
#X obj 346 375 * 0.15;
#X obj 202 585 throw~ \$0-liiift;
#X obj 319 585 throw~ \$0-riiiight;
#X connect 0 0 8 0;
#X connect 1 0 16 0;
#X connect 2 0 1 1;
#X connect 3 0 5 0;
#X connect 3 0 27 0;
#X connect 4 0 2 0;
#X connect 5 0 6 0;
#X connect 5 0 14 0;
#X connect 5 0 15 0;
#X connect 5 0 20 0;
#X connect 5 0 23 0;
#X connect 6 0 4 0;
#X connect 7 0 8 1;
#X connect 8 0 1 0;
#X connect 10 0 11 0;
#X connect 11 0 7 0;
#X connect 12 0 9 0;
#X connect 12 0 5 1;
#X connect 12 1 13 1;
#X connect 13 0 12 0;
#X connect 14 0 13 0;
#X connect 14 0 13 2;
#X connect 15 0 10 0;
#X connect 16 0 22 0;
#X connect 17 0 16 1;
#X connect 18 0 19 0;
#X connect 19 0 17 0;
#X connect 20 0 18 0;
#X connect 21 0 29 0;
#X connect 22 0 21 0;
#X connect 23 0 24 0;
#X connect 24 0 33 0;
#X connect 25 0 32 0;
#X connect 26 0 29 1;
#X connect 26 0 31 0;
#X connect 27 0 28 0;
#X connect 28 0 35 0;
#X connect 29 0 30 0;
#X connect 29 0 38 0;
#X connect 30 0 39 0;
#X connect 31 0 30 1;
#X connect 32 0 34 0;
#X connect 32 0 37 0;
#X connect 33 0 25 0;
#X connect 33 1 32 0;
#X connect 34 0 36 0;
#X connect 35 0 26 0;
#X connect 36 0 22 1;
#X connect 37 0 36 1;
#X restore 527 63 pd scqwelch;
#X connect 0 0 37 0;
#X connect 0 0 40 0;
#X connect 0 0 8 0;
#X connect 0 0 100 0;
#X connect 1 0 117 0;
#X connect 5 0 116 0;
#X connect 8 0 37 0;
#X connect 8 0 45 0;
#X connect 8 0 100 0;
#X connect 9 0 11 0;
#X connect 9 0 13 0;
#X connect 9 0 16 0;
#X connect 9 0 18 0;
#X connect 9 0 24 0;
#X connect 9 0 26 0;
#X connect 9 0 30 0;
#X connect 9 0 32 0;
#X connect 9 0 42 0;
#X connect 9 0 47 0;
#X connect 9 0 101 0;
#X connect 10 0 9 0;
#X connect 11 0 15 0;
#X connect 12 0 13 0;
#X connect 13 0 14 0;
#X connect 14 0 23 0;
#X connect 15 0 12 0;
#X connect 16 0 21 0;
#X connect 17 0 18 0;
#X connect 18 0 19 0;
#X connect 19 0 22 0;
#X connect 21 0 17 0;
#X connect 22 0 1 0;
#X connect 23 0 5 0;
#X connect 24 0 28 0;
#X connect 25 0 26 0;
#X connect 26 0 27 0;
#X connect 27 0 29 0;
#X connect 28 0 25 0;
#X connect 29 0 23 1;
#X connect 30 0 34 0;
#X connect 31 0 32 0;
#X connect 32 0 33 0;
#X connect 33 0 35 0;
#X connect 34 0 31 0;
#X connect 35 0 22 1;
#X connect 36 0 111 0;
#X connect 36 1 77 0;
#X connect 37 0 36 0;
#X connect 38 0 77 0;
#X connect 38 0 68 0;
#X connect 39 0 78 0;
#X connect 39 0 68 0;
#X connect 40 0 77 0;
#X connect 41 0 49 0;
#X connect 42 0 43 0;
#X connect 43 0 41 0;
#X connect 44 0 37 1;
#X connect 45 0 50 0;
#X connect 46 0 45 1;
#X connect 47 0 48 0;
#X connect 48 0 46 0;
#X connect 49 0 40 1;
#X connect 50 0 78 0;
#X connect 51 0 82 0;
#X connect 52 0 39 1;
#X connect 53 0 38 1;
#X connect 54 0 10 0;
#X connect 57 0 69 0;
#X connect 57 0 81 0;
#X connect 58 0 64 0;
#X connect 58 0 65 0;
#X connect 59 0 58 0;
#X connect 64 0 60 0;
#X connect 65 0 67 0;
#X connect 66 0 65 1;
#X connect 67 0 64 1;
#X connect 68 0 57 0;
#X connect 68 0 88 0;
#X connect 70 0 71 0;
#X connect 71 0 72 0;
#X connect 72 0 73 0;
#X connect 72 0 74 0;
#X connect 73 0 87 0;
#X connect 74 0 75 0;
#X connect 75 0 90 0;
#X connect 75 0 114 0;
#X connect 76 0 73 1;
#X connect 77 0 83 0;
#X connect 78 0 84 0;
#X connect 79 0 8 0;
#X connect 80 0 0 0;
#X connect 81 0 59 0;
#X connect 82 0 70 0;
#X connect 83 0 51 0;
#X connect 83 0 108 1;
#X connect 84 0 108 0;
#X connect 85 0 44 0;
#X connect 86 0 115 0;
#X connect 87 0 74 1;
#X connect 88 0 86 0;
#X connect 89 0 91 1;
#X connect 89 0 93 0;
#X connect 90 0 94 0;
#X connect 91 0 92 0;
#X connect 91 0 111 0;
#X connect 92 0 83 0;
#X connect 93 0 92 1;
#X connect 94 0 89 0;
#X connect 95 0 96 0;
#X connect 96 0 97 0;
#X connect 97 0 110 0;
#X connect 100 0 105 0;
#X connect 101 0 107 0;
#X connect 102 0 100 1;
#X connect 103 0 83 0;
#X connect 103 0 84 0;
#X connect 104 0 102 0;
#X connect 105 0 106 0;
#X connect 106 0 103 0;
#X connect 107 0 104 0;
#X connect 108 0 109 0;
#X connect 110 0 78 0;
#X connect 112 0 84 0;
#X connect 112 0 83 0;
#X connect 113 0 91 0;
#X connect 113 0 92 0;
#X connect 118 0 39 0;
#X connect 118 0 79 0;
#X connect 119 0 38 0;
#X connect 119 0 80 0;
