#N canvas 117 77 729 421 10;
#X obj 306 51 s tomaster;
#X obj 47 26 r frommaster;
#X obj 47 98 symbol;
#X obj 47 175 pack s s;
#X obj 47 124 t b s;
#X msg 47 150 open;
#X obj 111 223 readsf~ 2;
#X obj 47 72 route filename control;
#N canvas 0 0 450 300 matrix 0;
#X obj 151 69 inlet~;
#X obj 214 70 inlet~;
#X obj 55 155 *~ 0;
#X obj 94 155 *~ 0;
#X obj 143 155 *~ 0;
#X obj 182 155 *~ 0;
#X restore 382 276 pd matrix;
#X connect 1 0 7 0;
#X connect 2 0 4 0;
#X connect 3 0 6 0;
#X connect 4 0 5 0;
#X connect 4 1 3 1;
#X connect 5 0 3 0;
#X connect 7 0 2 0;
#X connect 7 1 6 0;
