#N canvas 516 43 684 729 10;
#X obj 178 134 t a a;
#X obj 178 85 random 9;
#X obj 178 42 bng 15 250 50 0 empty empty empty 17 7 0 10 -262144 -1
-1;
#X obj 178 109 expr ($i1 + $i2 + 1) % (9 + 1);
#X obj 178 20 spigot;
#X msg 16 133 \$1 \, 0 \$2;
#X obj 16 109 pack;
#X obj 16 154 line;
#X obj 16 65 random 1000;
#X obj 16 88 * 0.001;
#X obj 89 65 random 10000;
#X obj 178 61 del 5;
#X obj 30 284 osc~;
#X obj 15 552 *~;
#X obj 40 552 *~;
#X obj 55 399 *~ -1;
#X obj 226 3 expr ($f1*-1)+1;
#X obj 16 173 > 0;
#X obj 178 -17 bng 25 250 50 0 empty empty empty 17 7 0 10 -262144
-1 -1;
#X obj 178 -57 metro;
#X obj 178 -79 loadbang;
#X obj 157 -76 bng 15 250 50 0 empty empty empty 17 7 0 10 -262144
-1 -1;
#X msg 226 -57 1;
#X msg 531 132 10;
#X obj 205 -34 random 20000;
#X obj 178 226 vd~ \$0-fahq 2000;
#X obj 178 157 expr 1000/((($f1*($f2*10))+($f1*$f2)+$f1)+111);
#X obj 417 335 noise~;
#X obj 417 378 cos~;
#X obj 417 398 clip~ -0.5 0.5;
#X obj 178 201 sig~;
#X obj 417 421 delwrite~ \$0-fahq 100;
#X obj 178 180 * 2;
#X obj 31 205 random 10000;
#X obj 30 263 * 0.0001;
#X obj 30 243 line;
#X obj 31 224 pack 0 1000;
#X obj 315 209 random 10000;
#X obj 315 232 * 0.0001;
#X obj 315 307 clip~ 0.1 0.95;
#X obj 270 315 *~;
#X obj 104 299 delwrite~ \$0-thahnq 100;
#X obj 106 324 vd~ \$0-thahnq 100;
#X obj 142 203 * 2;
#X obj 142 225 sig~;
#X obj 200 354 *~;
#X obj 315 281 vline~;
#X obj 315 256 pack 0 1000;
#X obj 417 356 lop~ 200;
#X obj 223 253 sig~;
#X obj 223 177 expr (($f1*($f2*10))+($f1*$f2)+$f1)+111;
#X obj 135 502 *~;
#X obj 150 461 clip~ 0 1;
#X obj 150 401 random 10000;
#X obj 150 441 osc~;
#X obj 223 200 * 0.25;
#X obj 135 374 vcf~ 80;
#X obj 150 481 *~ 25;
#X obj 218 501 *~;
#X obj 233 460 clip~ 0 1;
#X obj 233 400 random 10000;
#X obj 233 440 osc~;
#X obj 233 480 *~ 1;
#X obj 233 420 * 1e-06;
#X obj 150 421 * 1e-06;
#X obj 418 106 inlet;
#X obj 15 606 outlet~;
#X obj 40 628 outlet~;
#X obj 316 403 random 10000;
#X obj 316 423 * 0.0001;
#X obj 244 354 random 10000;
#X obj 244 374 * 0.0001;
#X obj 15 581 clip~ -0.75 0.75;
#X obj 118 581 clip~ -0.75 0.75;
#X connect 0 0 26 0;
#X connect 0 0 50 0;
#X connect 0 1 3 1;
#X connect 1 0 3 0;
#X connect 2 0 8 0;
#X connect 2 0 10 0;
#X connect 2 0 11 0;
#X connect 2 0 37 0;
#X connect 2 0 53 0;
#X connect 2 0 60 0;
#X connect 3 0 0 0;
#X connect 4 0 2 0;
#X connect 5 0 7 0;
#X connect 6 0 5 0;
#X connect 7 0 17 0;
#X connect 8 0 9 0;
#X connect 9 0 6 0;
#X connect 10 0 6 1;
#X connect 11 0 1 0;
#X connect 12 0 13 1;
#X connect 12 0 15 0;
#X connect 13 0 14 0;
#X connect 13 0 72 0;
#X connect 14 0 73 0;
#X connect 15 0 14 1;
#X connect 16 0 4 1;
#X connect 17 0 16 0;
#X connect 18 0 4 0;
#X connect 18 0 33 0;
#X connect 19 0 18 0;
#X connect 19 0 24 0;
#X connect 20 0 19 0;
#X connect 20 0 22 0;
#X connect 20 0 23 0;
#X connect 20 0 68 0;
#X connect 20 0 70 0;
#X connect 21 0 19 0;
#X connect 22 0 4 1;
#X connect 23 0 26 1;
#X connect 23 0 50 1;
#X connect 24 0 19 1;
#X connect 25 0 40 0;
#X connect 25 0 41 0;
#X connect 25 0 56 0;
#X connect 26 0 32 0;
#X connect 27 0 48 0;
#X connect 28 0 29 0;
#X connect 29 0 31 0;
#X connect 30 0 25 0;
#X connect 32 0 30 0;
#X connect 32 0 43 0;
#X connect 33 0 36 0;
#X connect 34 0 12 0;
#X connect 35 0 34 0;
#X connect 36 0 35 0;
#X connect 37 0 38 0;
#X connect 38 0 47 0;
#X connect 39 0 40 1;
#X connect 39 0 45 1;
#X connect 40 0 31 0;
#X connect 42 0 45 0;
#X connect 42 0 56 0;
#X connect 43 0 44 0;
#X connect 44 0 42 0;
#X connect 45 0 41 0;
#X connect 46 0 39 0;
#X connect 47 0 46 0;
#X connect 48 0 28 0;
#X connect 49 0 56 1;
#X connect 50 0 55 0;
#X connect 51 0 58 0;
#X connect 52 0 57 0;
#X connect 53 0 64 0;
#X connect 54 0 52 0;
#X connect 55 0 49 0;
#X connect 56 0 51 0;
#X connect 57 0 51 1;
#X connect 58 0 13 0;
#X connect 59 0 62 0;
#X connect 60 0 63 0;
#X connect 61 0 59 0;
#X connect 62 0 58 1;
#X connect 63 0 61 0;
#X connect 64 0 54 0;
#X connect 65 0 26 1;
#X connect 65 0 50 1;
#X connect 68 0 69 0;
#X connect 69 0 61 1;
#X connect 70 0 71 0;
#X connect 71 0 54 1;
#X connect 72 0 66 0;
#X connect 73 0 67 0;
