#N canvas 74 55 248 321 10;
#X obj -37 -163 metro;
#X obj -37 -216 loadbang;
#X obj -10 -140 random 60000;
#X floatatom -10 -96 5 0 0 0 - - -;
#X obj -37 -185 del 60000;
#X obj -37 -117 random 10;
#X text 26 -95 starts at 10 in patches;
#X obj -37 -96 + 5;
#N canvas 195 151 964 663 hatting 0;
#X obj 34 159 bng 15 250 50 0 empty empty empty 0 -6 0 8 -262144 -1
-1;
#X obj 238 159 tgl 15 0 empty empty empty 0 -6 0 8 -262144 -1 -1 1
1;
#X obj 260 159 tgl 15 0 empty empty empty 0 -6 0 8 -262144 -1 -1 1
1;
#X obj 305 159 tgl 15 0 empty empty empty 0 -6 0 8 -262144 -1 -1 1
1;
#X obj 283 159 tgl 15 0 empty empty empty 0 -6 0 8 -262144 -1 -1 0
1;
#X obj 373 159 tgl 15 0 empty empty empty 0 -6 0 8 -262144 -1 -1 0
1;
#X obj 395 159 tgl 15 0 empty empty empty 0 -6 0 8 -262144 -1 -1 1
1;
#X obj 350 159 tgl 15 0 empty empty empty 0 -6 0 8 -262144 -1 -1 1
1;
#X obj 328 159 tgl 15 0 empty empty empty 0 -6 0 8 -262144 -1 -1 0
1;
#X obj 148 159 tgl 15 0 empty empty empty 0 -6 0 8 -262144 -1 -1 0
1;
#X obj 170 159 tgl 15 0 empty empty empty 0 -6 0 8 -262144 -1 -1 1
1;
#X obj 215 159 tgl 15 0 empty empty empty 0 -6 0 8 -262144 -1 -1 1
1;
#X obj 193 159 tgl 15 0 empty empty empty 0 -6 0 8 -262144 -1 -1 1
1;
#X obj 103 159 tgl 15 0 empty empty empty 0 -6 0 8 -262144 -1 -1 0
1;
#X obj 125 159 tgl 15 0 empty empty empty 0 -6 0 8 -262144 -1 -1 1
1;
#X obj 80 159 tgl 15 0 empty empty empty 0 -6 0 8 -262144 -1 -1 0 1
;
#X obj 58 159 tgl 15 0 empty empty empty 0 -6 0 8 -262144 -1 -1 1 1
;
#X obj 58 185 pack 0 0 0 0 0 0 0 0 0 0 0 0 0 0 0 0;
#X obj 58 80 bng 15 250 50 0 empty empty empty 0 -6 0 8 -262144 -1
-1;
#X obj 58 105 random 16;
#X obj 260 129 sel 8 9 10 11 12 13 14 15;
#X obj 58 129 sel 0 1 2 3 4 5 6 7;
#N canvas 196 256 413 152 init-pattern 0;
#X obj 189 92 outlet;
#X obj 210 92 outlet;
#X obj 253 93 outlet;
#X obj 231 93 outlet;
#X obj 316 94 outlet;
#X obj 338 94 outlet;
#X obj 295 93 outlet;
#X obj 274 93 outlet;
#X obj 104 91 outlet;
#X obj 125 91 outlet;
#X obj 168 92 outlet;
#X obj 146 92 outlet;
#X obj 61 91 outlet;
#X obj 83 91 outlet;
#X obj 40 90 outlet;
#X obj 19 62 unpack 0 0 0 0 0 0 0 0 0 0 0 0 0 0 0 0;
#X obj 19 90 outlet;
#X msg 19 41 1 0 0 1 0 1 1 0 0 0 0 1 0 1 1 1;
#X obj 19 19 loadbang;
#X connect 15 0 16 0;
#X connect 15 1 14 0;
#X connect 15 2 12 0;
#X connect 15 3 13 0;
#X connect 15 4 8 0;
#X connect 15 5 9 0;
#X connect 15 6 11 0;
#X connect 15 7 10 0;
#X connect 15 8 0 0;
#X connect 15 9 1 0;
#X connect 15 10 3 0;
#X connect 15 11 2 0;
#X connect 15 12 7 0;
#X connect 15 13 6 0;
#X connect 15 14 4 0;
#X connect 15 15 5 0;
#X connect 17 0 15 0;
#X connect 18 0 17 0;
#X restore 135 105 pd init-pattern;
#X obj 58 208 list prepend 0;
#X obj 56 270 table \$0-seq 16;
#X obj 58 237 s \$0-seq;
#X text 178 14 Based on 16step-seq by Karlheinz Essel/Frank Barknecht
;
#X obj 333 221 f;
#X obj 359 222 + 1;
#X obj 386 222 mod 16;
#X obj 333 248 tabread \$0-seq;
#X obj 447 129 inlet;
#X obj 333 314 bng 15 250 50 0 empty empty empty 17 7 0 10 -262144
-1 -1;
#X obj 333 374 vline~;
#X obj 548 588 *~;
#X obj 596 588 *~;
#X obj 460 224 + 1;
#X floatatom 294 248 5 0 0 0 - - -;
#X msg 333 351 0.25 \, 0 5;
#X obj 333 292 sel 1;
#X obj 434 223 f;
#X obj 374 292 sel 0;
#X msg 400 351 0.25 \, 0 5;
#X obj 400 372 vline~;
#X obj 400 328 del 50;
#X obj 400 395 *~;
#X obj 433 279 r \$0-tempo;
#X obj 433 301 * 0.5;
#X obj 510 365 random 10000;
#X obj 510 388 * 0.0001;
#X obj 510 437 vline~;
#X obj 510 412 pack 0 1000;
#X obj 510 303 metro;
#X obj 536 326 random 20000;
#X obj 510 280 loadbang;
#X obj 333 396 *~;
#X obj 602 365 random 10000;
#X obj 602 388 * 0.0001;
#X obj 602 437 vline~;
#X obj 602 412 pack 0 1000;
#X obj 146 429 random 10000;
#X obj 487 224 mod 8;
#X obj 434 245 sel 6;
#X obj 324 530 *~;
#X obj 602 463 clip~ 0 0.95;
#X obj 510 463 clip~ 0 0.95;
#X obj 146 475 osc~;
#X obj 447 155 metro 100;
#X obj 498 135 r \$0-tempo;
#X obj 596 630 throw~ \$0-tharightzz;
#X obj 548 609 throw~ \$0-thaliftzz;
#X obj 146 501 clip~ 0 0.5;
#N canvas 0 22 699 349 blipededed 0;
#X obj 321 139 t a a;
#X obj 321 90 random 9;
#X obj 321 114 expr ($i1 + $i2 + 1) % (9 + 1);
#X obj 321 162 expr (($f1*($f2*10))+($f1*$f2)+$f1)+111;
#X msg 512 128 10;
#X obj 321 57 inlet;
#X obj 551 115 r \$0-keykeykeykeykey;
#X obj 512 79 loadbang;
#X obj 369 56 inlet;
#X obj 321 220 sig~;
#X obj 269 222 noise~;
#X obj 302 304 outlet~;
#X obj 302 254 vcf~ 77;
#X obj 321 190 +;
#X obj 302 281 *~ 63;
#X connect 0 0 3 0;
#X connect 0 1 2 1;
#X connect 1 0 2 0;
#X connect 2 0 0 0;
#X connect 3 0 13 0;
#X connect 4 0 3 1;
#X connect 5 0 1 0;
#X connect 6 0 3 1;
#X connect 7 0 4 0;
#X connect 8 0 13 1;
#X connect 9 0 12 1;
#X connect 10 0 12 0;
#X connect 12 0 14 0;
#X connect 13 0 9 0;
#X connect 14 0 11 0;
#X restore 236 428 pd blipededed;
#X obj 146 452 * 1e-05;
#X connect 0 0 17 0;
#X connect 1 0 17 8;
#X connect 2 0 17 9;
#X connect 3 0 17 11;
#X connect 4 0 17 10;
#X connect 5 0 17 14;
#X connect 6 0 17 15;
#X connect 7 0 17 13;
#X connect 8 0 17 12;
#X connect 9 0 17 4;
#X connect 10 0 17 5;
#X connect 11 0 17 7;
#X connect 12 0 17 6;
#X connect 13 0 17 2;
#X connect 14 0 17 3;
#X connect 15 0 17 1;
#X connect 16 0 17 0;
#X connect 17 0 23 0;
#X connect 18 0 0 0;
#X connect 18 0 19 0;
#X connect 19 0 21 0;
#X connect 20 0 1 0;
#X connect 20 1 2 0;
#X connect 20 2 4 0;
#X connect 20 3 3 0;
#X connect 20 4 8 0;
#X connect 20 5 7 0;
#X connect 20 6 5 0;
#X connect 20 7 6 0;
#X connect 21 0 16 0;
#X connect 21 1 15 0;
#X connect 21 2 13 0;
#X connect 21 3 14 0;
#X connect 21 4 9 0;
#X connect 21 5 10 0;
#X connect 21 6 12 0;
#X connect 21 7 11 0;
#X connect 21 8 20 0;
#X connect 22 0 16 0;
#X connect 22 1 15 0;
#X connect 22 2 13 0;
#X connect 22 3 14 0;
#X connect 22 4 9 0;
#X connect 22 5 10 0;
#X connect 22 6 12 0;
#X connect 22 7 11 0;
#X connect 22 8 1 0;
#X connect 22 9 2 0;
#X connect 22 10 4 0;
#X connect 22 11 3 0;
#X connect 22 12 8 0;
#X connect 22 13 7 0;
#X connect 22 14 5 0;
#X connect 22 15 6 0;
#X connect 23 0 25 0;
#X connect 27 0 28 0;
#X connect 27 0 30 0;
#X connect 27 0 37 0;
#X connect 27 0 41 0;
#X connect 28 0 29 0;
#X connect 29 0 27 1;
#X connect 30 0 39 0;
#X connect 31 0 67 0;
#X connect 32 0 38 0;
#X connect 32 0 44 0;
#X connect 32 0 72 0;
#X connect 33 0 55 0;
#X connect 34 0 70 0;
#X connect 35 0 69 0;
#X connect 36 0 61 0;
#X connect 37 0 72 1;
#X connect 38 0 33 0;
#X connect 39 0 32 0;
#X connect 40 0 36 0;
#X connect 40 0 62 0;
#X connect 41 0 40 0;
#X connect 42 0 43 0;
#X connect 43 0 45 0;
#X connect 44 0 42 0;
#X connect 45 0 35 1;
#X connect 46 0 47 0;
#X connect 47 0 44 1;
#X connect 48 0 49 0;
#X connect 49 0 51 0;
#X connect 50 0 65 0;
#X connect 51 0 50 0;
#X connect 52 0 53 0;
#X connect 52 0 48 0;
#X connect 52 0 56 0;
#X connect 52 0 60 0;
#X connect 53 0 52 1;
#X connect 54 0 52 0;
#X connect 55 0 34 1;
#X connect 56 0 57 0;
#X connect 57 0 59 0;
#X connect 58 0 64 0;
#X connect 59 0 58 0;
#X connect 60 0 73 0;
#X connect 61 0 40 1;
#X connect 62 0 18 0;
#X connect 63 0 34 0;
#X connect 63 0 35 0;
#X connect 64 0 55 1;
#X connect 65 0 45 1;
#X connect 66 0 71 0;
#X connect 67 0 27 0;
#X connect 68 0 67 1;
#X connect 71 0 63 1;
#X connect 72 0 63 0;
#X connect 73 0 66 0;
#X restore 103 -127 pd hatting;
#X obj 103 -148 s \$0-tempo;
#X floatatom 103 -168 5 0 0 0 - - -;
#X msg 103 -190 200;
#X obj -37 -76 s \$0-keykeykeykeykey;
#X obj 25 14 catch~ \$0-tharightzz;
#X obj -26 -7 catch~ \$0-thaliftzz;
#X obj -26 35 patchComs;
#X obj -26 56 switch~;
#N canvas 16 31 469 748 16_Combed_crackles 0;
#X obj 9 -32 r \$0-keykeykeykeykey;
#X obj 9 10 throw~ \$0-thaliftzz;
#X obj 78 31 throw~ \$0-tharightzz;
#X obj 10 58 r \$0-keykeykeykeykey;
#X obj 10 100 throw~ \$0-thaliftzz;
#X obj 79 121 throw~ \$0-tharightzz;
#X obj 11 147 r \$0-keykeykeykeykey;
#X obj 11 189 throw~ \$0-thaliftzz;
#X obj 80 210 throw~ \$0-tharightzz;
#X obj 12 237 r \$0-keykeykeykeykey;
#X obj 12 279 throw~ \$0-thaliftzz;
#X obj 81 300 throw~ \$0-tharightzz;
#X obj 11 329 r \$0-keykeykeykeykey;
#X obj 11 371 throw~ \$0-thaliftzz;
#X obj 80 392 throw~ \$0-tharightzz;
#X obj 12 419 r \$0-keykeykeykeykey;
#X obj 12 461 throw~ \$0-thaliftzz;
#X obj 81 482 throw~ \$0-tharightzz;
#X obj 13 508 r \$0-keykeykeykeykey;
#X obj 13 550 throw~ \$0-thaliftzz;
#X obj 82 571 throw~ \$0-tharightzz;
#X obj 14 598 r \$0-keykeykeykeykey;
#X obj 14 640 throw~ \$0-thaliftzz;
#X obj 83 661 throw~ \$0-tharightzz;
#X obj 211 -37 r \$0-keykeykeykeykey;
#X obj 211 5 throw~ \$0-thaliftzz;
#X obj 280 26 throw~ \$0-tharightzz;
#X obj 212 53 r \$0-keykeykeykeykey;
#X obj 212 95 throw~ \$0-thaliftzz;
#X obj 281 116 throw~ \$0-tharightzz;
#X obj 213 142 r \$0-keykeykeykeykey;
#X obj 213 184 throw~ \$0-thaliftzz;
#X obj 282 205 throw~ \$0-tharightzz;
#X obj 214 232 r \$0-keykeykeykeykey;
#X obj 214 274 throw~ \$0-thaliftzz;
#X obj 283 295 throw~ \$0-tharightzz;
#X obj 213 324 r \$0-keykeykeykeykey;
#X obj 213 366 throw~ \$0-thaliftzz;
#X obj 282 387 throw~ \$0-tharightzz;
#X obj 214 414 r \$0-keykeykeykeykey;
#X obj 214 456 throw~ \$0-thaliftzz;
#X obj 283 477 throw~ \$0-tharightzz;
#X obj 215 503 r \$0-keykeykeykeykey;
#X obj 215 545 throw~ \$0-thaliftzz;
#X obj 284 566 throw~ \$0-tharightzz;
#X obj 216 593 r \$0-keykeykeykeykey;
#X obj 216 635 throw~ \$0-thaliftzz;
#X obj 285 656 throw~ \$0-tharightzz;
#X obj 213 164 deleshengine;
#X obj 213 346 deleshengine;
#X obj 9 -10 deleshengine;
#X obj 10 80 deleshengine;
#X obj 11 169 deleshengine;
#X obj 12 259 deleshengine;
#X obj 11 351 deleshengine;
#X obj 12 441 deleshengine;
#X obj 13 530 deleshengine;
#X obj 14 620 deleshengine;
#X obj 211 -15 deleshengine;
#X obj 212 75 deleshengine;
#X obj 214 254 deleshengine;
#X obj 214 436 deleshengine;
#X obj 215 525 deleshengine;
#X obj 216 615 deleshengine;
#X connect 0 0 50 0;
#X connect 3 0 51 0;
#X connect 6 0 52 0;
#X connect 9 0 53 0;
#X connect 12 0 54 0;
#X connect 15 0 55 0;
#X connect 18 0 56 0;
#X connect 21 0 57 0;
#X connect 24 0 58 0;
#X connect 27 0 59 0;
#X connect 30 0 48 0;
#X connect 33 0 60 0;
#X connect 36 0 49 0;
#X connect 39 0 61 0;
#X connect 42 0 62 0;
#X connect 45 0 63 0;
#X connect 48 0 31 0;
#X connect 48 1 32 0;
#X connect 49 0 37 0;
#X connect 49 1 38 0;
#X connect 50 0 1 0;
#X connect 50 1 2 0;
#X connect 51 0 4 0;
#X connect 51 1 5 0;
#X connect 52 0 7 0;
#X connect 52 1 8 0;
#X connect 53 0 10 0;
#X connect 53 1 11 0;
#X connect 54 0 13 0;
#X connect 54 1 14 0;
#X connect 55 0 16 0;
#X connect 55 1 17 0;
#X connect 56 0 19 0;
#X connect 56 1 20 0;
#X connect 57 0 22 0;
#X connect 57 1 23 0;
#X connect 58 0 25 0;
#X connect 58 1 26 0;
#X connect 59 0 28 0;
#X connect 59 1 29 0;
#X connect 60 0 34 0;
#X connect 60 1 35 0;
#X connect 61 0 40 0;
#X connect 61 1 41 0;
#X connect 62 0 43 0;
#X connect 62 1 44 0;
#X connect 63 0 46 0;
#X connect 63 1 47 0;
#X restore -38 -28 pd 16_Combed_crackles;
#N canvas 312 178 188 101 16_Sine_Drones_&_drips 0;
#N canvas 0 22 468 724 16drones_engine1 0;
#X obj 5 -9 r \$0-keykeykeykeykey;
#X obj 5 33 throw~ \$0-thaliftzz;
#X obj 74 54 throw~ \$0-tharightzz;
#X obj 5 82 r \$0-keykeykeykeykey;
#X obj 5 124 throw~ \$0-thaliftzz;
#X obj 74 145 throw~ \$0-tharightzz;
#X obj 7 171 r \$0-keykeykeykeykey;
#X obj 7 213 throw~ \$0-thaliftzz;
#X obj 76 234 throw~ \$0-tharightzz;
#X obj 7 262 r \$0-keykeykeykeykey;
#X obj 7 304 throw~ \$0-thaliftzz;
#X obj 76 325 throw~ \$0-tharightzz;
#X obj 9 353 r \$0-keykeykeykeykey;
#X obj 9 395 throw~ \$0-thaliftzz;
#X obj 78 416 throw~ \$0-tharightzz;
#X obj 9 444 r \$0-keykeykeykeykey;
#X obj 9 486 throw~ \$0-thaliftzz;
#X obj 78 507 throw~ \$0-tharightzz;
#X obj 11 533 r \$0-keykeykeykeykey;
#X obj 11 575 throw~ \$0-thaliftzz;
#X obj 80 596 throw~ \$0-tharightzz;
#X obj 11 624 r \$0-keykeykeykeykey;
#X obj 11 666 throw~ \$0-thaliftzz;
#X obj 80 687 throw~ \$0-tharightzz;
#X obj 221 -4 r \$0-keykeykeykeykey;
#X obj 221 38 throw~ \$0-thaliftzz;
#X obj 290 59 throw~ \$0-tharightzz;
#X obj 221 87 r \$0-keykeykeykeykey;
#X obj 221 129 throw~ \$0-thaliftzz;
#X obj 290 150 throw~ \$0-tharightzz;
#X obj 223 176 r \$0-keykeykeykeykey;
#X obj 223 218 throw~ \$0-thaliftzz;
#X obj 292 239 throw~ \$0-tharightzz;
#X obj 223 267 r \$0-keykeykeykeykey;
#X obj 223 309 throw~ \$0-thaliftzz;
#X obj 292 330 throw~ \$0-tharightzz;
#X obj 225 358 r \$0-keykeykeykeykey;
#X obj 225 400 throw~ \$0-thaliftzz;
#X obj 294 421 throw~ \$0-tharightzz;
#X obj 225 449 r \$0-keykeykeykeykey;
#X obj 225 491 throw~ \$0-thaliftzz;
#X obj 294 512 throw~ \$0-tharightzz;
#X obj 227 538 r \$0-keykeykeykeykey;
#X obj 227 580 throw~ \$0-thaliftzz;
#X obj 296 601 throw~ \$0-tharightzz;
#X obj 227 629 r \$0-keykeykeykeykey;
#X obj 227 671 throw~ \$0-thaliftzz;
#X obj 296 692 throw~ \$0-tharightzz;
#X obj 223 196 toneshengine3;
#X obj 7 282 toneshengine3;
#X obj 5 11 toneshengine3;
#X obj 5 102 toneshengine3;
#X obj 7 191 toneshengine3;
#X obj 9 373 toneshengine3;
#X obj 9 464 toneshengine3;
#X obj 11 553 toneshengine3;
#X obj 11 644 toneshengine3;
#X obj 221 16 toneshengine3;
#X obj 221 107 toneshengine3;
#X obj 223 287 toneshengine3;
#X obj 225 378 toneshengine3;
#X obj 225 469 toneshengine3;
#X obj 227 558 toneshengine3;
#X obj 227 649 toneshengine3;
#X connect 0 0 50 0;
#X connect 3 0 51 0;
#X connect 6 0 52 0;
#X connect 9 0 49 0;
#X connect 12 0 53 0;
#X connect 15 0 54 0;
#X connect 18 0 55 0;
#X connect 21 0 56 0;
#X connect 24 0 57 0;
#X connect 27 0 58 0;
#X connect 30 0 48 0;
#X connect 33 0 59 0;
#X connect 36 0 60 0;
#X connect 39 0 61 0;
#X connect 42 0 62 0;
#X connect 45 0 63 0;
#X connect 48 0 31 0;
#X connect 48 1 32 0;
#X connect 49 0 10 0;
#X connect 49 1 11 0;
#X connect 50 0 1 0;
#X connect 50 1 2 0;
#X connect 51 0 4 0;
#X connect 51 1 5 0;
#X connect 52 0 7 0;
#X connect 52 1 8 0;
#X connect 53 0 13 0;
#X connect 53 1 14 0;
#X connect 54 0 16 0;
#X connect 54 1 17 0;
#X connect 55 0 19 0;
#X connect 55 1 20 0;
#X connect 56 0 22 0;
#X connect 56 1 23 0;
#X connect 57 0 25 0;
#X connect 57 1 26 0;
#X connect 58 0 28 0;
#X connect 58 1 29 0;
#X connect 59 0 34 0;
#X connect 59 1 35 0;
#X connect 60 0 37 0;
#X connect 60 1 38 0;
#X connect 61 0 40 0;
#X connect 61 1 41 0;
#X connect 62 0 43 0;
#X connect 62 1 44 0;
#X connect 63 0 46 0;
#X connect 63 1 47 0;
#X restore 35 23 pd 16drones_engine1;
#X restore -38 -52 pd 16_Sine_Drones_&_drips;
#X connect 0 0 2 0;
#X connect 0 0 5 0;
#X connect 1 0 4 0;
#X connect 1 0 11 0;
#X connect 1 0 8 0;
#X connect 2 0 0 1;
#X connect 4 0 0 0;
#X connect 5 0 7 0;
#X connect 7 0 3 0;
#X connect 7 0 12 0;
#X connect 10 0 9 0;
#X connect 11 0 10 0;
#X connect 13 0 15 1;
#X connect 14 0 15 0;
#X connect 15 0 16 0;
