#N canvas 161 137 697 564 10;
#X floatatom 178 179 5 0 0 0 - - -;
#X obj 178 134 t a a;
#X obj 178 85 random 9;
#X obj 178 42 bng 15 250 50 0 empty empty empty 17 7 0 10 -262144 -1
-1;
#X obj 178 109 expr ($i1 + $i2 + 1) % (9 + 1);
#X obj 178 20 spigot;
#X msg 16 133 \$1 \, 0 \$2;
#X obj 16 109 pack;
#X obj 16 157 vline~;
#X obj 59 156 line;
#X obj 16 65 random 1000;
#X obj 16 88 * 0.001;
#X obj 89 65 random 10000;
#X obj 178 61 del 5;
#X obj 178 200 osc~;
#X obj 178 225 *~;
#X obj 30 242 osc~;
#X obj 30 201 random 1000;
#X obj 86 278 *~;
#X obj 111 278 *~;
#X obj 125 258 *~ -1;
#X obj 30 221 * 0.001;
#X obj 226 3 expr ($f1*-1)+1;
#X obj 59 175 > 0;
#X obj 178 -17 bng 25 250 50 0 empty empty empty 17 7 0 10 -262144
-1 -1;
#X obj 178 -57 metro;
#X obj 178 -79 loadbang;
#X obj 157 -76 bng 15 250 50 0 empty empty empty 17 7 0 10 -262144
-1 -1;
#X msg 226 -57 1;
#X obj 178 157 expr (($f1*($f2*10))+($f1*$f2)+$f1)+111;
#X msg 409 -12 10;
#X obj 293 238 random 10000;
#X obj 263 317 vd~ \$0-werbergs 2000;
#X obj 262 296 delwrite~ \$0-werbergs 2000;
#X obj 293 260 sig~;
#X obj 263 338 clip~ -0.25 0.25;
#X obj 262 359 vcf~ 66;
#X obj 374 259 sig~;
#X obj 374 237 random 20000;
#X obj 262 380 *~ 5;
#X obj 205 -34 random 20000;
#X obj 421 103 inlet;
#X obj 216 435 outlet~;
#X obj 93 429 outlet~;
#X obj 178 246 *~ 0.2;
#X obj 215 413 clip~ -1 1;
#X obj 93 404 clip~ -1 1;
#X connect 0 0 14 0;
#X connect 1 0 29 0;
#X connect 1 1 4 1;
#X connect 2 0 4 0;
#X connect 3 0 10 0;
#X connect 3 0 12 0;
#X connect 3 0 13 0;
#X connect 3 0 17 0;
#X connect 3 0 31 0;
#X connect 3 0 38 0;
#X connect 4 0 1 0;
#X connect 5 0 3 0;
#X connect 6 0 8 0;
#X connect 6 0 9 0;
#X connect 7 0 6 0;
#X connect 8 0 15 1;
#X connect 9 0 23 0;
#X connect 10 0 11 0;
#X connect 11 0 7 0;
#X connect 12 0 7 1;
#X connect 13 0 2 0;
#X connect 14 0 15 0;
#X connect 15 0 44 0;
#X connect 16 0 18 1;
#X connect 16 0 20 0;
#X connect 17 0 21 0;
#X connect 18 0 19 0;
#X connect 18 0 46 0;
#X connect 19 0 45 0;
#X connect 20 0 19 1;
#X connect 21 0 16 0;
#X connect 22 0 5 1;
#X connect 23 0 22 0;
#X connect 24 0 5 0;
#X connect 25 0 24 0;
#X connect 25 0 40 0;
#X connect 26 0 25 0;
#X connect 26 0 28 0;
#X connect 26 0 30 0;
#X connect 27 0 25 0;
#X connect 28 0 5 1;
#X connect 29 0 0 0;
#X connect 30 0 29 1;
#X connect 31 0 34 0;
#X connect 32 0 35 0;
#X connect 34 0 32 0;
#X connect 35 0 36 0;
#X connect 36 0 39 0;
#X connect 37 0 36 1;
#X connect 38 0 37 0;
#X connect 39 0 45 0;
#X connect 39 0 46 0;
#X connect 40 0 25 1;
#X connect 41 0 29 1;
#X connect 44 0 18 0;
#X connect 44 0 33 0;
#X connect 45 0 42 0;
#X connect 46 0 43 0;
