#N canvas 371 17 323 398 10;
#N canvas -1638 123 1349 679 (subpatch) 1;
#N canvas 0 22 1024 720 NoteSequencer 0;
#X obj -65 231 i;
#X obj -17 232 + 1;
#X msg -40 195 0;
#X obj -65 405 max 0;
#X obj -65 429 min 127;
#X obj -40 133 sel 0;
#X obj 8 28 tgl 15 0 empty empty on 0 -6 0 8 -262144 -1 -1 0 1;
#X obj -65 160 metro 100;
#X obj 27 29 nbx 5 14 -1e+037 1e+037 0 0 empty empty msec 0 -6 0 10
-262144 -1 -1 200 256;
#X obj -65 258 mod 16;
#X obj 93 30 nbx 2 14 2 8 0 0 empty empty modulo 0 -6 0 10 -262144
-1 -1 4 256;
#X obj -65 366 f;
#X obj -39 365 f;
#X obj -14 365 f;
#X obj 12 364 f;
#X obj 38 365 f;
#X obj 64 364 f;
#X obj 89 364 f;
#X obj 115 363 f;
#X obj 7 57 nbx 3 10 0 127 0 0 empty empty empty 0 -6 0 7 -262144 -1
-1 0 256;
#X obj 7 67 hradio 30 1 0 8 empty empty empty 0 -6 0 8 -262144 -1 -1
0;
#X obj 37 57 nbx 3 10 0 127 0 0 empty empty empty 0 -6 0 7 -262144
-1 -1 95 256;
#X obj 67 57 nbx 3 10 0 127 0 0 empty empty empty 0 -6 0 7 -262144
-1 -1 96 256;
#X obj 97 57 nbx 3 10 0 127 0 0 empty empty empty 0 -6 0 7 -262144
-1 -1 94 256;
#X obj 127 57 nbx 3 10 0 127 0 0 empty empty empty 0 -6 0 7 -262144
-1 -1 0 256;
#X obj 157 57 nbx 3 10 0 127 0 0 empty empty empty 0 -6 0 7 -262144
-1 -1 0 256;
#X obj 187 57 nbx 3 10 0 127 0 0 empty empty empty 0 -6 0 7 -262144
-1 -1 0 256;
#X obj 217 57 nbx 3 10 0 127 0 0 empty empty empty 0 -6 0 7 -262144
-1 -1 0 256;
#X obj -65 326 sel 0 1 2 3 4 5 6 7;
#X obj 26 -36 loadbang;
#X msg 26 -14 200;
#X msg 52 -13 4;
#X text 4 -85 NOte sequencer;
#X text 263 51 <- notes midi;
#X text 261 77 <- visualisateur;
#X obj -77 -25 inlet;
#X obj 121 -25 inlet;
#X obj 165 -25 inlet;
#X obj 10 456 outlet;
#X msg 133 -62 96;
#X msg 169 -61 95;
#X msg 212 -50 94;
#X connect 0 0 9 0;
#X connect 1 0 0 1;
#X connect 2 0 0 0;
#X connect 3 0 4 0;
#X connect 4 0 38 0;
#X connect 5 0 2 0;
#X connect 6 0 5 0;
#X connect 6 0 7 0;
#X connect 7 0 0 0;
#X connect 8 0 7 1;
#X connect 9 0 1 0;
#X connect 9 0 28 0;
#X connect 9 0 20 0;
#X connect 10 0 9 1;
#X connect 11 0 3 0;
#X connect 12 0 3 0;
#X connect 13 0 3 0;
#X connect 14 0 3 0;
#X connect 15 0 3 0;
#X connect 16 0 3 0;
#X connect 17 0 3 0;
#X connect 18 0 3 0;
#X connect 19 0 11 1;
#X connect 21 0 12 1;
#X connect 22 0 13 1;
#X connect 23 0 14 1;
#X connect 24 0 15 1;
#X connect 25 0 16 1;
#X connect 26 0 17 1;
#X connect 27 0 18 1;
#X connect 28 0 11 0;
#X connect 28 1 12 0;
#X connect 28 2 13 0;
#X connect 28 3 14 0;
#X connect 28 4 15 0;
#X connect 28 5 16 0;
#X connect 28 6 17 0;
#X connect 28 7 18 0;
#X connect 29 0 30 0;
#X connect 29 0 31 0;
#X connect 29 0 39 0;
#X connect 29 0 40 0;
#X connect 29 0 41 0;
#X connect 30 0 8 0;
#X connect 31 0 10 0;
#X connect 35 0 6 0;
#X connect 36 0 8 0;
#X connect 37 0 10 0;
#X connect 39 0 22 0;
#X connect 40 0 21 0;
#X connect 41 0 23 0;
#X coords 0 -1 1 1 250 100 1 0 0;
#X restore -356 469 pd NoteSequencer;
#N canvas 0 22 1024 720 NoteSequencer 0;
#X obj -65 231 i;
#X obj -17 232 + 1;
#X msg -40 195 0;
#X obj -65 405 max 0;
#X obj -65 429 min 127;
#X obj -40 133 sel 0;
#X obj 8 28 tgl 15 0 empty empty on 0 -6 0 8 -262144 -1 -1 1 1;
#X obj -65 160 metro 100;
#X obj 27 29 nbx 5 14 -1e+037 1e+037 0 0 empty empty msec 0 -6 0 10
-262144 -1 -1 200 256;
#X obj -65 258 mod 16;
#X obj 93 30 nbx 2 14 2 8 0 0 empty empty modulo 0 -6 0 10 -262144
-1 -1 4 256;
#X obj -65 366 f;
#X obj -39 365 f;
#X obj -14 365 f;
#X obj 12 364 f;
#X obj 38 365 f;
#X obj 64 364 f;
#X obj 89 364 f;
#X obj 115 363 f;
#X obj 7 57 nbx 3 10 0 127 0 0 empty empty empty 0 -6 0 7 -262144 -1
-1 0 256;
#X obj 7 67 hradio 30 1 0 8 empty empty empty 0 -6 0 8 -262144 -1 -1
1;
#X obj 37 57 nbx 3 10 0 127 0 0 empty empty empty 0 -6 0 7 -262144
-1 -1 36 256;
#X obj 67 57 nbx 3 10 0 127 0 0 empty empty empty 0 -6 0 7 -262144
-1 -1 0 256;
#X obj 97 57 nbx 3 10 0 127 0 0 empty empty empty 0 -6 0 7 -262144
-1 -1 84 256;
#X obj 127 57 nbx 3 10 0 127 0 0 empty empty empty 0 -6 0 7 -262144
-1 -1 0 256;
#X obj 157 57 nbx 3 10 0 127 0 0 empty empty empty 0 -6 0 7 -262144
-1 -1 0 256;
#X obj 187 57 nbx 3 10 0 127 0 0 empty empty empty 0 -6 0 7 -262144
-1 -1 0 256;
#X obj 217 57 nbx 3 10 0 127 0 0 empty empty empty 0 -6 0 7 -262144
-1 -1 0 256;
#X obj -65 326 sel 0 1 2 3 4 5 6 7;
#X obj 0 -75 loadbang;
#X msg 0 -53 200;
#X msg 26 -52 4;
#X text 4 -85 NOte sequencer;
#X text 263 51 <- notes midi;
#X text 261 77 <- visualisateur;
#X obj -77 -25 inlet;
#X obj 121 -25 inlet;
#X obj 165 -25 inlet;
#X obj -36 491 outlet;
#X obj -120 296 outlet;
#X msg 76 -51 36;
#X msg 121 -60 84;
#X connect 0 0 9 0;
#X connect 1 0 0 1;
#X connect 2 0 0 0;
#X connect 3 0 4 0;
#X connect 4 0 38 0;
#X connect 5 0 2 0;
#X connect 6 0 5 0;
#X connect 6 0 7 0;
#X connect 7 0 0 0;
#X connect 8 0 7 1;
#X connect 9 0 1 0;
#X connect 9 0 28 0;
#X connect 9 0 20 0;
#X connect 9 0 39 0;
#X connect 10 0 9 1;
#X connect 11 0 3 0;
#X connect 12 0 3 0;
#X connect 13 0 3 0;
#X connect 14 0 3 0;
#X connect 15 0 3 0;
#X connect 16 0 3 0;
#X connect 17 0 3 0;
#X connect 18 0 3 0;
#X connect 19 0 11 1;
#X connect 21 0 12 1;
#X connect 22 0 13 1;
#X connect 23 0 14 1;
#X connect 24 0 15 1;
#X connect 25 0 16 1;
#X connect 26 0 17 1;
#X connect 27 0 18 1;
#X connect 28 0 11 0;
#X connect 28 1 12 0;
#X connect 28 2 13 0;
#X connect 28 3 14 0;
#X connect 28 4 15 0;
#X connect 28 5 16 0;
#X connect 28 6 17 0;
#X connect 28 7 18 0;
#X connect 29 0 30 0;
#X connect 29 0 31 0;
#X connect 29 0 40 0;
#X connect 29 0 41 0;
#X connect 30 0 8 0;
#X connect 31 0 10 0;
#X connect 35 0 6 0;
#X connect 36 0 8 0;
#X connect 37 0 10 0;
#X connect 40 0 21 0;
#X connect 41 0 23 0;
#X coords 0 -1 1 1 250 100 1 0 0;
#X restore -613 469 pd NoteSequencer;
#N canvas 0 22 1024 720 NoteSequencer 0;
#X obj -65 231 i;
#X obj -17 232 + 1;
#X msg -40 195 0;
#X obj -65 405 max 0;
#X obj -65 429 min 127;
#X obj -40 133 sel 0;
#X obj 8 28 tgl 15 0 empty empty on 0 -6 0 8 -262144 -1 -1 0 1;
#X obj -65 160 metro 100;
#X obj 27 29 nbx 5 14 -1e+037 1e+037 0 0 empty empty msec 0 -6 0 10
-262144 -1 -1 400 256;
#X obj -65 258 mod 16;
#X obj 93 30 nbx 2 14 2 8 0 0 empty empty modulo 0 -6 0 10 -262144
-1 -1 6 256;
#X obj -65 366 f;
#X obj -39 365 f;
#X obj -14 365 f;
#X obj 12 364 f;
#X obj 38 365 f;
#X obj 64 364 f;
#X obj 89 364 f;
#X obj 115 363 f;
#X obj 7 57 nbx 3 10 0 127 0 0 empty empty empty 0 -6 0 7 -262144 -1
-1 24 256;
#X obj 7 67 hradio 30 1 0 8 empty empty empty 0 -6 0 8 -262144 -1 -1
0;
#X obj 37 57 nbx 3 10 0 127 0 0 empty empty empty 0 -6 0 7 -262144
-1 -1 0 256;
#X obj 67 57 nbx 3 10 0 127 0 0 empty empty empty 0 -6 0 7 -262144
-1 -1 36 256;
#X obj 97 57 nbx 3 10 0 127 0 0 empty empty empty 0 -6 0 7 -262144
-1 -1 0 256;
#X obj 127 57 nbx 3 10 0 127 0 0 empty empty empty 0 -6 0 7 -262144
-1 -1 48 256;
#X obj 157 57 nbx 3 10 0 127 0 0 empty empty empty 0 -6 0 7 -262144
-1 -1 0 256;
#X obj 187 57 nbx 3 10 0 127 0 0 empty empty empty 0 -6 0 7 -262144
-1 -1 0 256;
#X obj 217 57 nbx 3 10 0 127 0 0 empty empty empty 0 -6 0 7 -262144
-1 -1 0 256;
#X obj -65 326 sel 0 1 2 3 4 5 6 7;
#X obj 26 -36 loadbang;
#X text 4 -85 NOte sequencer;
#X text 263 51 <- notes midi;
#X text 261 77 <- visualisateur;
#X obj -77 -25 inlet;
#X obj -55 465 outlet;
#X msg 26 -14 400;
#X msg 119 -26 24;
#X msg 156 -26 36;
#X msg 195 -23 48;
#X msg 52 -13 6;
#X connect 0 0 9 0;
#X connect 1 0 0 1;
#X connect 2 0 0 0;
#X connect 3 0 4 0;
#X connect 4 0 34 0;
#X connect 5 0 2 0;
#X connect 6 0 5 0;
#X connect 6 0 7 0;
#X connect 7 0 0 0;
#X connect 8 0 7 1;
#X connect 9 0 1 0;
#X connect 9 0 28 0;
#X connect 9 0 20 0;
#X connect 10 0 9 1;
#X connect 11 0 3 0;
#X connect 12 0 3 0;
#X connect 13 0 3 0;
#X connect 14 0 3 0;
#X connect 15 0 3 0;
#X connect 16 0 3 0;
#X connect 17 0 3 0;
#X connect 18 0 3 0;
#X connect 19 0 11 1;
#X connect 21 0 12 1;
#X connect 22 0 13 1;
#X connect 23 0 14 1;
#X connect 24 0 15 1;
#X connect 25 0 16 1;
#X connect 26 0 17 1;
#X connect 27 0 18 1;
#X connect 28 0 11 0;
#X connect 28 1 12 0;
#X connect 28 2 13 0;
#X connect 28 3 14 0;
#X connect 28 4 15 0;
#X connect 28 5 16 0;
#X connect 28 6 17 0;
#X connect 28 7 18 0;
#X connect 29 0 35 0;
#X connect 29 0 39 0;
#X connect 29 0 36 0;
#X connect 29 0 37 0;
#X connect 29 0 38 0;
#X connect 33 0 6 0;
#X connect 35 0 8 0;
#X connect 36 0 19 0;
#X connect 37 0 22 0;
#X connect 38 0 24 0;
#X connect 39 0 10 0;
#X coords 0 -1 1 1 250 100 1 0 0;
#X restore 161 469 pd NoteSequencer;
#N canvas 0 4 1366 696 NoteSequencer 0;
#X obj -65 231 i;
#X obj -17 232 + 1;
#X msg -40 195 0;
#X obj -65 405 max 0;
#X obj -65 429 min 127;
#X obj -40 133 sel 0;
#X obj 8 28 tgl 15 0 empty empty on 0 -6 0 8 -262144 -1 -1 0 1;
#X obj -65 160 metro 100;
#X obj 27 29 nbx 5 14 -1e+037 1e+037 0 0 empty empty msec 0 -6 0 10
-262144 -1 -1 100 256;
#X obj -65 258 mod 16;
#X obj 93 30 nbx 2 14 2 8 0 0 empty empty modulo 0 -6 0 10 -262144
-1 -1 8 256;
#X obj -65 366 f;
#X obj -39 365 f;
#X obj -14 365 f;
#X obj 12 364 f;
#X obj 38 365 f;
#X obj 64 364 f;
#X obj 89 364 f;
#X obj 115 363 f;
#X obj 7 57 nbx 3 10 0 127 0 0 empty empty empty 0 -6 0 7 -262144 -1
-1 72 256;
#X obj 7 67 hradio 30 1 0 8 empty empty empty 0 -6 0 8 -262144 -1 -1
0;
#X obj 37 57 nbx 3 10 0 127 0 0 empty empty empty 0 -6 0 7 -262144
-1 -1 0 256;
#X obj 67 57 nbx 3 10 0 127 0 0 empty empty empty 0 -6 0 7 -262144
-1 -1 0 256;
#X obj 97 57 nbx 3 10 0 127 0 0 empty empty empty 0 -6 0 7 -262144
-1 -1 24 256;
#X obj 127 57 nbx 3 10 0 127 0 0 empty empty empty 0 -6 0 7 -262144
-1 -1 0 256;
#X obj 157 57 nbx 3 10 0 127 0 0 empty empty empty 0 -6 0 7 -262144
-1 -1 55 256;
#X obj 187 57 nbx 3 10 0 127 0 0 empty empty empty 0 -6 0 7 -262144
-1 -1 49 256;
#X obj 217 57 nbx 3 10 0 127 0 0 empty empty empty 0 -6 0 7 -262144
-1 -1 0 256;
#X obj -65 326 sel 0 1 2 3 4 5 6 7;
#X obj 27 -75 loadbang;
#X text 4 -85 NOte sequencer;
#X text 263 51 <- notes midi;
#X text 261 77 <- visualisateur;
#X obj -77 -25 inlet;
#X obj 496 -56 inlet;
#X obj 540 -56 inlet;
#X obj -3 457 outlet;
#X msg 52 -13 8;
#X msg 26 -14 100;
#X msg 107 -34 72;
#X msg 150 -31 24;
#X msg 192 -28 55;
#X msg 237 -25 49;
#X connect 0 0 9 0;
#X connect 1 0 0 1;
#X connect 2 0 0 0;
#X connect 3 0 4 0;
#X connect 4 0 36 0;
#X connect 5 0 2 0;
#X connect 6 0 5 0;
#X connect 6 0 7 0;
#X connect 7 0 0 0;
#X connect 8 0 7 1;
#X connect 9 0 1 0;
#X connect 9 0 28 0;
#X connect 9 0 20 0;
#X connect 10 0 9 1;
#X connect 11 0 3 0;
#X connect 12 0 3 0;
#X connect 13 0 3 0;
#X connect 14 0 3 0;
#X connect 15 0 3 0;
#X connect 16 0 3 0;
#X connect 17 0 3 0;
#X connect 18 0 3 0;
#X connect 19 0 11 1;
#X connect 21 0 12 1;
#X connect 22 0 13 1;
#X connect 23 0 14 1;
#X connect 24 0 15 1;
#X connect 25 0 16 1;
#X connect 26 0 17 1;
#X connect 27 0 18 1;
#X connect 28 0 11 0;
#X connect 28 1 12 0;
#X connect 28 2 13 0;
#X connect 28 3 14 0;
#X connect 28 4 15 0;
#X connect 28 5 16 0;
#X connect 28 6 17 0;
#X connect 28 7 18 0;
#X connect 29 0 38 0;
#X connect 29 0 37 0;
#X connect 29 0 39 0;
#X connect 29 0 40 0;
#X connect 29 0 41 0;
#X connect 29 0 42 0;
#X connect 33 0 6 0;
#X connect 34 0 8 0;
#X connect 35 0 10 0;
#X connect 37 0 10 0;
#X connect 38 0 8 0;
#X connect 39 0 19 0;
#X connect 40 0 23 0;
#X connect 41 0 25 0;
#X connect 42 0 26 0;
#X coords 0 -1 1 1 250 100 1 0 0;
#X restore -98 469 pd NoteSequencer;
#N canvas 0 22 450 300 scale 0;
#X obj 211 128 inlet;
#X obj 208 350 outlet;
#X obj 212 171 t f f;
#X obj 208 324 int;
#X obj 210 149 int;
#X obj 206 277 + 1;
#X obj 206 206 * 3;
#X obj 206 234 / 2;
#X obj 109 127 vsl 12 64 0 64 0 1 \$0-N1 \$0-N1-r N 0 -8 1 8 -225280
-1 -1 3741 1;
#X obj 163 127 vsl 12 64 12 96 0 1 \$0-C1 \$0-C1-r C 0 -8 1 8 -257472
-1 -1 2475 1;
#X obj 136 127 vsl 12 64 1 64 0 1 \$0-D1 \$0-D1-r D 0 -8 1 8 -228992
-1 -1 3400 1;
#X obj 100 35 unsig~;
#X obj 100 64 + 1;
#X obj 99 85 * 38;
#X obj 267 39 unsig~;
#X obj 267 68 + 1;
#X obj 266 89 * 45;
#X obj 266 18 osc~ 0.05;
#X obj 99 14 osc~ 0.021;
#X obj 178 29 unsig~;
#X obj 178 58 + 1;
#X obj 177 79 * 35;
#X obj 177 8 osc~ 0.01;
#X connect 0 0 4 0;
#X connect 2 0 6 0;
#X connect 3 0 1 0;
#X connect 4 0 2 0;
#X connect 5 0 3 0;
#X connect 6 0 7 0;
#X connect 7 0 5 0;
#X connect 8 0 6 1;
#X connect 9 0 5 1;
#X connect 10 0 7 1;
#X connect 11 0 12 0;
#X connect 12 0 13 0;
#X connect 13 0 8 0;
#X connect 14 0 15 0;
#X connect 15 0 16 0;
#X connect 16 0 9 0;
#X connect 17 0 14 0;
#X connect 18 0 11 0;
#X connect 19 0 20 0;
#X connect 20 0 21 0;
#X connect 21 0 10 0;
#X connect 22 0 19 0;
#X coords 0 -1 1 1 85 100 1 100 100;
#X restore 2 98 pd scale;
#N canvas 0 22 450 300 scale 0;
#X obj 211 128 inlet;
#X obj 208 350 outlet;
#X obj 212 171 t f f;
#X obj 208 324 int;
#X obj 210 149 int;
#X obj 206 277 + 1;
#X obj 206 206 * 3;
#X obj 206 234 / 2;
#X obj 109 127 vsl 12 64 0 64 0 1 \$0-N2 \$0-N2-r N 0 -8 1 8 -225280
-1 -1 3741 1;
#X obj 163 127 vsl 12 64 24 96 0 1 \$0-C2 \$0-C2-r C 0 -8 1 8 -257472
-1 -1 1837 1;
#X obj 136 127 vsl 12 64 1 64 0 1 \$0-D2 \$0-D2-r D 0 -8 1 8 -228992
-1 -1 3400 1;
#X obj 110 45 unsig~;
#X obj 110 74 + 1;
#X obj 109 95 * 38;
#X obj 277 49 unsig~;
#X obj 277 78 + 1;
#X obj 276 99 * 45;
#X obj 188 39 unsig~;
#X obj 188 68 + 1;
#X obj 187 89 * 35;
#X obj 109 24 phasor~ 0.021;
#X obj 187 18 phasor~ 0.01;
#X obj 276 28 phasor~ 0.05;
#X connect 0 0 4 0;
#X connect 2 0 6 0;
#X connect 3 0 1 0;
#X connect 4 0 2 0;
#X connect 5 0 3 0;
#X connect 6 0 7 0;
#X connect 7 0 5 0;
#X connect 8 0 6 1;
#X connect 9 0 5 1;
#X connect 10 0 7 1;
#X connect 11 0 12 0;
#X connect 12 0 13 0;
#X connect 13 0 8 0;
#X connect 14 0 15 0;
#X connect 15 0 16 0;
#X connect 16 0 9 0;
#X connect 17 0 18 0;
#X connect 18 0 19 0;
#X connect 19 0 10 0;
#X connect 20 0 11 0;
#X connect 21 0 17 0;
#X connect 22 0 14 0;
#X coords 0 -1 1 1 85 100 1 100 100;
#X restore 87 98 pd scale;
#N canvas 0 22 502 444 scale 0;
#X obj 211 128 inlet;
#X obj 208 350 outlet;
#X obj 212 171 t f f;
#X obj 208 324 int;
#X obj 210 149 int;
#X obj 206 277 + 1;
#X obj 206 206 * 3;
#X obj 206 234 / 2;
#X obj 109 127 vsl 12 64 0 64 0 1 \$0-N3 \$0-N3-r N 0 -8 1 8 -225280
-1 -1 3741 1;
#X obj 163 127 vsl 12 64 24 96 0 1 \$0-C3 \$0-C3-r C 0 -8 1 8 -257472
-1 -1 1837 1;
#X obj 136 127 vsl 12 64 1 64 0 1 \$0-D3 \$0-D3-r D 0 -8 1 8 -228992
-1 -1 3400 1;
#X obj 95 26 unsig~;
#X obj 95 55 + 1;
#X obj 94 76 * 38;
#X obj 262 30 unsig~;
#X obj 262 59 + 1;
#X obj 261 80 * 45;
#X obj 173 20 unsig~;
#X obj 173 49 + 1;
#X obj 172 70 * 35;
#X obj 260 8 phasor~ 0.1;
#X obj 94 5 osc~ 0.0121;
#X obj 172 -1 osc~ 0.1;
#X connect 0 0 4 0;
#X connect 2 0 6 0;
#X connect 3 0 1 0;
#X connect 4 0 2 0;
#X connect 5 0 3 0;
#X connect 6 0 7 0;
#X connect 7 0 5 0;
#X connect 8 0 6 1;
#X connect 9 0 5 1;
#X connect 10 0 7 1;
#X connect 11 0 12 0;
#X connect 12 0 13 0;
#X connect 13 0 8 0;
#X connect 14 0 15 0;
#X connect 15 0 16 0;
#X connect 16 0 9 0;
#X connect 17 0 18 0;
#X connect 18 0 19 0;
#X connect 19 0 10 0;
#X connect 20 0 14 0;
#X connect 21 0 11 0;
#X connect 22 0 17 0;
#X coords 0 -1 1 1 85 100 1 100 100;
#X restore 172 98 pd scale;
#N canvas 0 22 1009 720 phasors 0;
#X obj -248 67 random 100;
#X obj -248 5 loadbang;
#X msg -248 25 1;
#X obj -248 46 metro 1000;
#X msg -248 87 \$1 1000;
#X obj -90 397 *~;
#X obj -57 397 *~;
#X obj -98 278 *~ 0.7;
#X obj -98 722 outlet~;
#X obj -43 721 outlet~;
#X obj -97 255 vcf~ 500 3;
#X obj 1 256 vcf~ 600 4;
#X obj -248 109 line~;
#X obj -229 220 /~ 100;
#X obj -183 220 /~ 100;
#X obj -229 242 +~ 0.1;
#X obj -183 241 +~ 0.1;
#X obj -224 134 -~;
#X obj -205 109 sig~ 100;
#X obj 71 325 +~ 30;
#X obj 72 303 *~ 5;
#X obj 73 282 osc~ 0.1;
#X obj -44 426 *~ 0.8;
#X obj -98 428 *~ 0.8;
#X obj -228 157 *~ 7;
#X obj -187 156 *~ 7;
#X obj -227 180 +~ 300;
#X obj -186 179 +~ 400;
#X msg -218 25 9;
#X obj -149 44 phasor~ 300;
#X obj -148 20 mtof;
#X obj -125 144 *~ 0.1;
#X obj -63 43 phasor~ 300;
#X obj -62 19 mtof;
#X obj 24 43 phasor~ 300;
#X obj 25 19 mtof;
#X obj -33 102 *~;
#X obj -63 100 *~;
#X obj -98 100 *~;
#X obj -73 144 *~ 0.9;
#X obj 1 142 *~ 0.9;
#X obj 53 143 *~ 0.1;
#X obj -97 193 *~ 0.7;
#X obj 0 194 *~ 0.7;
#X obj -72 124 *~ 0.6;
#X obj -146 -69 inlet;
#X obj -96 -69 inlet;
#X obj -45 -70 inlet;
#X obj 209 128 vsl 12 64 0.02 2 1 1 \$0-lfo \$0-lfo-r lfo 0 -8 1 8
-261681 -1 -1 2200 1;
#X obj 235 128 vsl 12 64 0.02 9 1 1 \$0-amt \$0-amt-r amt 0 -8 1 8
-261688 -1 -1 4600 1;
#X obj 262 128 vsl 12 64 10 80 1 1 \$0-del \$0-del-r del 0 -8 1 8 -225271
-1 -1 6300 1;
#X obj 6 505 +~;
#X obj 48 505 +~;
#X obj -9 555 +~;
#X obj 95 556 +~;
#X obj 33 555 -~;
#X obj 135 555 -~;
#X obj -10 611 +~;
#X obj 34 612 +~;
#X obj 78 613 -~;
#X obj 117 613 -~;
#X obj -9 640 *~ 0.4;
#X obj 35 666 *~ 0.37;
#X obj 76 695 *~ 0.333;
#X obj 115 723 *~ 0.3;
#X obj 114 747 delwrite~ \$0-D 1000;
#X obj 75 770 delwrite~ \$0-C 1000;
#X obj 36 793 delwrite~ \$0-B 1000;
#X obj -9 815 delwrite~ \$0-A 1000;
#X obj 60 451 delread~ \$0-A 101;
#X obj 90 471 delread~ \$0-B 143;
#X obj 120 491 delread~ \$0-C 165;
#X obj 150 511 delread~ \$0-D 177;
#X obj -89 695 *~;
#X obj -33 692 *~;
#X obj 292 128 vsl 12 64 0.01 1 1 1 \$0-verb \$0-verb-r verb 0 -8 1
8 -225280 -1 -1 6300 1;
#X obj -89 302 delwrite~ \$0-flange 1000;
#X obj 72 348 vd~ \$0-flange 100;
#X obj 144 128 vsl 12 64 0.01 1 1 1 \$0-L1 \$0-L1-r L1 0 -8 1 8 -164609
-1 -1 5000 1;
#X obj 163 128 vsl 12 64 0.01 1 1 1 \$0-L2 \$0-L2-r L2 0 -8 1 8 -205575
-1 -1 5700 1;
#X obj 185 128 vsl 12 64 0.01 1 1 1 \$0-L3 \$0-L3-r L3 0 -8 1 8 -201109
-1 -1 5100 1;
#X obj 384 396 unsig~;
#X obj 382 441 + 1;
#X obj 392 470 * 20;
#X floatatom 333 485 5 0 0 0 - - -;
#X obj 489 367 osc~ 0.01;
#X obj 492 396 unsig~;
#X obj 381 367 osc~ 0.1;
#X obj 500 470 / 2;
#X floatatom 472 495 5 0 0 0 - - -;
#X obj 490 441 + 2;
#X connect 0 0 4 0;
#X connect 1 0 2 0;
#X connect 1 0 28 0;
#X connect 2 0 3 0;
#X connect 3 0 0 0;
#X connect 4 0 12 0;
#X connect 5 0 23 0;
#X connect 6 0 22 0;
#X connect 7 0 23 0;
#X connect 7 0 76 0;
#X connect 10 0 7 0;
#X connect 11 0 5 0;
#X connect 11 0 6 0;
#X connect 12 0 13 0;
#X connect 12 0 17 1;
#X connect 12 0 24 0;
#X connect 13 0 15 0;
#X connect 14 0 16 0;
#X connect 15 0 5 1;
#X connect 16 0 6 1;
#X connect 17 0 14 0;
#X connect 17 0 25 0;
#X connect 18 0 17 0;
#X connect 19 0 77 0;
#X connect 20 0 19 0;
#X connect 21 0 20 0;
#X connect 22 0 9 0;
#X connect 22 0 52 0;
#X connect 23 0 8 0;
#X connect 23 0 51 0;
#X connect 24 0 26 0;
#X connect 25 0 27 0;
#X connect 26 0 10 1;
#X connect 27 0 11 1;
#X connect 28 0 10 2;
#X connect 28 0 11 2;
#X connect 29 0 38 0;
#X connect 30 0 29 0;
#X connect 31 0 42 0;
#X connect 32 0 37 0;
#X connect 33 0 32 0;
#X connect 34 0 36 0;
#X connect 35 0 34 0;
#X connect 36 0 40 0;
#X connect 36 0 41 0;
#X connect 37 0 44 0;
#X connect 38 0 31 0;
#X connect 38 0 39 0;
#X connect 39 0 43 0;
#X connect 40 0 42 0;
#X connect 41 0 43 0;
#X connect 42 0 10 0;
#X connect 43 0 11 0;
#X connect 44 0 42 0;
#X connect 44 0 43 0;
#X connect 45 0 30 0;
#X connect 46 0 33 0;
#X connect 47 0 35 0;
#X connect 48 0 21 0;
#X connect 49 0 20 1;
#X connect 50 0 19 1;
#X connect 51 0 53 0;
#X connect 51 0 55 0;
#X connect 51 0 73 0;
#X connect 52 0 53 1;
#X connect 52 0 55 1;
#X connect 52 0 74 0;
#X connect 53 0 57 0;
#X connect 53 0 59 0;
#X connect 54 0 59 1;
#X connect 54 0 57 1;
#X connect 55 0 58 0;
#X connect 55 0 60 0;
#X connect 56 0 58 1;
#X connect 56 0 60 1;
#X connect 57 0 61 0;
#X connect 58 0 62 0;
#X connect 59 0 63 0;
#X connect 60 0 64 0;
#X connect 61 0 68 0;
#X connect 62 0 67 0;
#X connect 63 0 66 0;
#X connect 64 0 65 0;
#X connect 69 0 51 1;
#X connect 70 0 52 1;
#X connect 71 0 56 0;
#X connect 71 0 54 0;
#X connect 72 0 56 1;
#X connect 72 0 54 1;
#X connect 73 0 8 0;
#X connect 74 0 9 0;
#X connect 75 0 74 1;
#X connect 75 0 73 1;
#X connect 77 0 22 0;
#X connect 78 0 38 1;
#X connect 79 0 37 1;
#X connect 80 0 36 1;
#X connect 81 0 82 0;
#X connect 82 0 83 0;
#X connect 83 0 84 0;
#X connect 83 0 19 1;
#X connect 85 0 86 0;
#X connect 86 0 90 0;
#X connect 87 0 81 0;
#X connect 88 0 74 1;
#X connect 88 0 73 1;
#X connect 88 0 89 0;
#X connect 90 0 88 0;
#X coords 0 -1 1 1 255 100 1 100 100;
#X restore 2 198 pd phasors;
#X obj 658 666 cnv 15 300 80 empty empty synth 20 12 1 14 -262144 -66577
0;
#N canvas 0 22 1024 720 NoteSequencer 0;
#X obj -65 231 i;
#X obj -17 232 + 1;
#X msg -40 195 0;
#X obj -65 405 max 0;
#X obj -65 429 min 127;
#X obj -40 133 sel 0;
#X obj 8 28 tgl 15 0 empty empty on 0 -6 0 8 -262144 -1 -1 0 1;
#X obj -65 160 metro 100;
#X obj 27 29 nbx 5 14 -1e+037 1e+037 0 0 empty empty msec 0 -6 0 10
-262144 -1 -1 200 256;
#X obj -65 258 mod 16;
#X obj 93 30 nbx 2 14 2 8 0 0 empty empty modulo 0 -6 0 10 -262144
-1 -1 8 256;
#X obj -65 366 f;
#X obj -39 365 f;
#X obj -14 365 f;
#X obj 12 364 f;
#X obj 38 365 f;
#X obj 64 364 f;
#X obj 89 364 f;
#X obj 115 363 f;
#X obj 7 57 nbx 3 10 0 127 0 0 empty empty empty 0 -6 0 7 -262144 -1
-1 36 256;
#X obj 7 67 hradio 30 1 0 8 empty empty empty 0 -6 0 8 -262144 -1 -1
0;
#X obj 37 57 nbx 3 10 0 127 0 0 empty empty empty 0 -6 0 7 -262144
-1 -1 40 256;
#X obj 67 57 nbx 3 10 0 127 0 0 empty empty empty 0 -6 0 7 -262144
-1 -1 35 256;
#X obj 97 57 nbx 3 10 0 127 0 0 empty empty empty 0 -6 0 7 -262144
-1 -1 0 256;
#X obj 127 57 nbx 3 10 0 127 0 0 empty empty empty 0 -6 0 7 -262144
-1 -1 0 256;
#X obj 157 57 nbx 3 10 0 127 0 0 empty empty empty 0 -6 0 7 -262144
-1 -1 72 256;
#X obj 187 57 nbx 3 10 0 127 0 0 empty empty empty 0 -6 0 7 -262144
-1 -1 73 256;
#X obj 217 57 nbx 3 10 0 127 0 0 empty empty empty 0 -6 0 7 -262144
-1 -1 0 256;
#X obj -65 326 sel 0 1 2 3 4 5 6 7;
#X obj 26 -36 loadbang;
#X msg 26 -14 200;
#X text 4 -85 NOte sequencer;
#X text 263 51 <- notes midi;
#X text 261 77 <- visualisateur;
#X obj -77 -25 inlet;
#X obj -55 465 outlet;
#X msg 52 -13 8;
#X msg 103 -59 36;
#X msg 138 -59 40;
#X msg 171 -60 35;
#X msg 219 -55 73;
#X msg 245 -55 72;
#X connect 0 0 9 0;
#X connect 1 0 0 1;
#X connect 2 0 0 0;
#X connect 3 0 4 0;
#X connect 4 0 35 0;
#X connect 5 0 2 0;
#X connect 6 0 5 0;
#X connect 6 0 7 0;
#X connect 7 0 0 0;
#X connect 8 0 7 1;
#X connect 9 0 1 0;
#X connect 9 0 28 0;
#X connect 9 0 20 0;
#X connect 10 0 9 1;
#X connect 11 0 3 0;
#X connect 12 0 3 0;
#X connect 13 0 3 0;
#X connect 14 0 3 0;
#X connect 15 0 3 0;
#X connect 16 0 3 0;
#X connect 17 0 3 0;
#X connect 18 0 3 0;
#X connect 19 0 11 1;
#X connect 21 0 12 1;
#X connect 22 0 13 1;
#X connect 23 0 14 1;
#X connect 24 0 15 1;
#X connect 25 0 16 1;
#X connect 26 0 17 1;
#X connect 27 0 18 1;
#X connect 28 0 11 0;
#X connect 28 1 12 0;
#X connect 28 2 13 0;
#X connect 28 3 14 0;
#X connect 28 4 15 0;
#X connect 28 5 16 0;
#X connect 28 6 17 0;
#X connect 28 7 18 0;
#X connect 29 0 30 0;
#X connect 29 0 36 0;
#X connect 29 0 37 0;
#X connect 29 0 38 0;
#X connect 29 0 39 0;
#X connect 29 0 40 0;
#X connect 29 0 41 0;
#X connect 30 0 8 0;
#X connect 34 0 6 0;
#X connect 36 0 10 0;
#X connect 37 0 19 0;
#X connect 38 0 21 0;
#X connect 39 0 22 0;
#X connect 40 0 26 0;
#X connect 41 0 25 0;
#X coords 0 -1 1 1 250 100 1 0 0;
#X restore 414 469 pd NoteSequencer;
#X floatatom -613 576 5 0 0 0 - - -;
#X obj 21 21 tgl 15 0 empty empty empty 17 7 0 10 -262144 -1 -1 0 1
;
#X obj -573 596 - 2;
#X obj -573 616 -;
#N canvas 0 22 569 479 amrfloat 0;
#X obj 99 64 inlet bang;
#X obj 202 63 inlet trig;
#X obj 99 367 f;
#X obj 99 390 change;
#X obj 99 415 outlet trig;
#X obj 335 63 inlet wait;
#X obj 264 242 f;
#X msg 279 200 0;
#X obj 264 267 + 1;
#X obj 99 175 spigot;
#X msg 132 140 0;
#X msg 164 139 1;
#X obj 202 93 t b b;
#X obj 335 175 moses 1;
#X obj 264 290 sel 1;
#X connect 0 0 9 0;
#X connect 1 0 2 1;
#X connect 1 0 12 0;
#X connect 2 0 3 0;
#X connect 3 0 4 0;
#X connect 5 0 13 0;
#X connect 6 0 8 0;
#X connect 7 0 6 1;
#X connect 8 0 6 1;
#X connect 8 0 14 0;
#X connect 9 0 6 0;
#X connect 10 0 9 1;
#X connect 11 0 9 1;
#X connect 12 0 11 0;
#X connect 12 1 7 0;
#X connect 13 1 14 1;
#X connect 14 0 2 0;
#X connect 14 0 10 0;
#X restore -639 715 pd amrfloat;
#X obj 41 40 tgl 15 0 empty empty empty 17 7 0 10 -262144 -1 -1 0 1
;
#N canvas 0 22 569 479 amrfloat 0;
#X obj 99 64 inlet bang;
#X obj 202 63 inlet trig;
#X obj 99 367 f;
#X obj 99 390 change;
#X obj 99 415 outlet trig;
#X obj 335 63 inlet wait;
#X obj 264 242 f;
#X msg 279 200 0;
#X obj 264 267 + 1;
#X obj 99 175 spigot;
#X msg 132 140 0;
#X msg 164 139 1;
#X obj 202 93 t b b;
#X obj 335 175 moses 1;
#X obj 264 290 sel 1;
#X connect 0 0 9 0;
#X connect 1 0 2 1;
#X connect 1 0 12 0;
#X connect 2 0 3 0;
#X connect 3 0 4 0;
#X connect 5 0 13 0;
#X connect 6 0 8 0;
#X connect 7 0 6 1;
#X connect 8 0 6 1;
#X connect 8 0 14 0;
#X connect 9 0 6 0;
#X connect 10 0 9 1;
#X connect 11 0 9 1;
#X connect 12 0 11 0;
#X connect 12 1 7 0;
#X connect 13 1 14 1;
#X connect 14 0 2 0;
#X connect 14 0 10 0;
#X restore -638 762 pd amrfloat;
#X text 40 20 NoteSeq 1;
#X text 60 39 NoteSeq 2;
#X obj 60 59 tgl 15 0 empty empty empty 17 7 0 10 -262144 -1 -1 0 1
;
#N canvas 0 22 569 479 amrfloat 0;
#X obj 99 64 inlet bang;
#X obj 202 63 inlet trig;
#X obj 99 367 f;
#X obj 99 390 change;
#X obj 99 415 outlet trig;
#X obj 335 63 inlet wait;
#X obj 264 242 f;
#X msg 279 200 0;
#X obj 264 267 + 1;
#X obj 99 175 spigot;
#X msg 132 140 0;
#X msg 164 139 1;
#X obj 202 93 t b b;
#X obj 335 175 moses 1;
#X obj 264 290 sel 1;
#X connect 0 0 9 0;
#X connect 1 0 2 1;
#X connect 1 0 12 0;
#X connect 2 0 3 0;
#X connect 3 0 4 0;
#X connect 5 0 13 0;
#X connect 6 0 8 0;
#X connect 7 0 6 1;
#X connect 8 0 6 1;
#X connect 8 0 14 0;
#X connect 9 0 6 0;
#X connect 10 0 9 1;
#X connect 11 0 9 1;
#X connect 12 0 11 0;
#X connect 12 1 7 0;
#X connect 13 1 14 1;
#X connect 14 0 2 0;
#X connect 14 0 10 0;
#X restore -638 808 pd amrfloat;
#X text 79 58 NoteSeq 3;
#X obj 80 78 tgl 15 0 empty empty empty 17 7 0 10 -262144 -1 -1 1 1
;
#N canvas 0 22 569 479 amrfloat 0;
#X obj 99 64 inlet bang;
#X obj 202 63 inlet trig;
#X obj 99 367 f;
#X obj 99 390 change;
#X obj 99 415 outlet trig;
#X obj 335 63 inlet wait;
#X obj 264 242 f;
#X msg 279 200 0;
#X obj 264 267 + 1;
#X obj 99 175 spigot;
#X msg 132 140 0;
#X msg 164 139 1;
#X obj 202 93 t b b;
#X obj 335 175 moses 1;
#X obj 264 290 sel 1;
#X connect 0 0 9 0;
#X connect 1 0 2 1;
#X connect 1 0 12 0;
#X connect 2 0 3 0;
#X connect 3 0 4 0;
#X connect 5 0 13 0;
#X connect 6 0 8 0;
#X connect 7 0 6 1;
#X connect 8 0 6 1;
#X connect 8 0 14 0;
#X connect 9 0 6 0;
#X connect 10 0 9 1;
#X connect 11 0 9 1;
#X connect 12 0 11 0;
#X connect 12 1 7 0;
#X connect 13 1 14 1;
#X connect 14 0 2 0;
#X connect 14 0 10 0;
#X restore -628 854 pd amrfloat;
#X text 99 77 NoteSeq 4;
#X text -348 450 NoteSeq 1;
#X text -93 449 NoteSeq 2;
#X text 173 448 NoteSeq 3;
#X text 419 448 NoteSeq 4;
#X obj 3 2 tgl 15 0 empty empty empty 17 7 0 10 -262144 -1 -1 1 1;
#X text 21 0 NoteSeq 0;
#X obj -561 104 sel 0;
#X obj -523 185 b;
#X obj -470 209 b;
#X obj -423 243 b;
#X obj -525 161 moses 25;
#X obj -470 189 moses 50;
#X obj -423 223 moses 75;
#X obj -378 245 b;
#X obj -526 131 random 200;
#X obj -247 7 loadbang;
#X msg -247 32 1;
#X obj 640 773 patchComs;
#X obj 640 802 switch~;
#X connect 0 0 4 0;
#X connect 1 0 10 0;
#X connect 1 1 4 0;
#X connect 2 0 5 0;
#X connect 3 0 5 0;
#X connect 4 0 7 0;
#X connect 5 0 7 1;
#X connect 6 0 7 2;
#X connect 7 0 42 0;
#X connect 7 1 42 1;
#X connect 9 0 6 0;
#X connect 10 0 14 0;
#X connect 10 0 13 1;
#X connect 10 0 16 0;
#X connect 10 0 20 0;
#X connect 10 0 23 0;
#X connect 10 0 31 0;
#X connect 11 0 14 1;
#X connect 12 0 13 0;
#X connect 13 0 14 2;
#X connect 13 0 16 2;
#X connect 13 0 20 2;
#X connect 13 0 23 2;
#X connect 14 0 0 0;
#X connect 15 0 16 1;
#X connect 16 0 3 0;
#X connect 19 0 20 1;
#X connect 20 0 2 0;
#X connect 22 0 23 1;
#X connect 23 0 9 0;
#X connect 29 0 1 0;
#X connect 31 0 39 0;
#X connect 32 0 11 0;
#X connect 33 0 15 0;
#X connect 34 0 19 0;
#X connect 35 0 32 0;
#X connect 35 1 36 0;
#X connect 36 0 33 0;
#X connect 36 1 37 0;
#X connect 37 0 34 0;
#X connect 37 1 38 0;
#X connect 38 0 22 0;
#X connect 39 0 35 0;
#X connect 40 0 41 0;
#X connect 41 0 29 0;
#X connect 42 0 43 0;
#X coords 0 -1 1 1 260 300 1 0 0;
#X restore -173 12 graph;
