#N canvas 271 54 248 321 10;
#X obj -37 -163 metro;
#X obj -37 -216 loadbang;
#X obj -10 -140 random 60000;
#X floatatom -10 -96 5 0 0 0 - - -;
#X obj -37 -185 del 60000;
#X obj -37 -117 random 10;
#X text 26 -95 starts at 10 in patches;
#X obj -37 -96 + 5;
#N canvas 195 151 964 663 hatting 0;
#X obj 34 159 bng 15 250 50 0 empty empty empty 0 -6 0 8 -262144 -1
-1;
#X obj 238 159 tgl 15 0 empty empty empty 0 -6 0 8 -262144 -1 -1 0
1;
#X obj 260 159 tgl 15 0 empty empty empty 0 -6 0 8 -262144 -1 -1 0
1;
#X obj 305 159 tgl 15 0 empty empty empty 0 -6 0 8 -262144 -1 -1 0
1;
#X obj 283 159 tgl 15 0 empty empty empty 0 -6 0 8 -262144 -1 -1 0
1;
#X obj 373 159 tgl 15 0 empty empty empty 0 -6 0 8 -262144 -1 -1 1
1;
#X obj 395 159 tgl 15 0 empty empty empty 0 -6 0 8 -262144 -1 -1 1
1;
#X obj 350 159 tgl 15 0 empty empty empty 0 -6 0 8 -262144 -1 -1 1
1;
#X obj 328 159 tgl 15 0 empty empty empty 0 -6 0 8 -262144 -1 -1 0
1;
#X obj 148 159 tgl 15 0 empty empty empty 0 -6 0 8 -262144 -1 -1 0
1;
#X obj 170 159 tgl 15 0 empty empty empty 0 -6 0 8 -262144 -1 -1 1
1;
#X obj 215 159 tgl 15 0 empty empty empty 0 -6 0 8 -262144 -1 -1 0
1;
#X obj 193 159 tgl 15 0 empty empty empty 0 -6 0 8 -262144 -1 -1 1
1;
#X obj 103 159 tgl 15 0 empty empty empty 0 -6 0 8 -262144 -1 -1 0
1;
#X obj 125 159 tgl 15 0 empty empty empty 0 -6 0 8 -262144 -1 -1 1
1;
#X obj 80 159 tgl 15 0 empty empty empty 0 -6 0 8 -262144 -1 -1 0 1
;
#X obj 58 159 tgl 15 0 empty empty empty 0 -6 0 8 -262144 -1 -1 1 1
;
#X obj 58 185 pack 0 0 0 0 0 0 0 0 0 0 0 0 0 0 0 0;
#X obj 58 80 bng 15 250 50 0 empty empty empty 0 -6 0 8 -262144 -1
-1;
#X obj 58 105 random 16;
#X obj 260 129 sel 8 9 10 11 12 13 14 15;
#X obj 58 129 sel 0 1 2 3 4 5 6 7;
#N canvas 196 256 413 152 init-pattern 0;
#X obj 189 92 outlet;
#X obj 210 92 outlet;
#X obj 253 93 outlet;
#X obj 231 93 outlet;
#X obj 316 94 outlet;
#X obj 338 94 outlet;
#X obj 295 93 outlet;
#X obj 274 93 outlet;
#X obj 104 91 outlet;
#X obj 125 91 outlet;
#X obj 168 92 outlet;
#X obj 146 92 outlet;
#X obj 61 91 outlet;
#X obj 83 91 outlet;
#X obj 40 90 outlet;
#X obj 19 62 unpack 0 0 0 0 0 0 0 0 0 0 0 0 0 0 0 0;
#X obj 19 90 outlet;
#X msg 19 41 1 0 0 1 0 1 1 0 0 0 0 1 0 1 1 1;
#X obj 19 19 loadbang;
#X connect 15 0 16 0;
#X connect 15 1 14 0;
#X connect 15 2 12 0;
#X connect 15 3 13 0;
#X connect 15 4 8 0;
#X connect 15 5 9 0;
#X connect 15 6 11 0;
#X connect 15 7 10 0;
#X connect 15 8 0 0;
#X connect 15 9 1 0;
#X connect 15 10 3 0;
#X connect 15 11 2 0;
#X connect 15 12 7 0;
#X connect 15 13 6 0;
#X connect 15 14 4 0;
#X connect 15 15 5 0;
#X connect 17 0 15 0;
#X connect 18 0 17 0;
#X restore 135 105 pd init-pattern;
#X obj 58 208 list prepend 0;
#X obj 56 270 table \$0-seq 16;
#X obj 58 237 s \$0-seq;
#X text 178 14 Based on 16step-seq by Karlheinz Essel/Frank Barknecht
;
#X obj 333 221 f;
#X obj 359 222 + 1;
#X obj 386 222 mod 16;
#X obj 333 248 tabread \$0-seq;
#X obj 447 129 inlet;
#X obj 333 314 bng 15 250 50 0 empty empty empty 17 7 0 10 -262144
-1 -1;
#X obj 333 374 vline~;
#X obj 548 588 *~;
#X obj 596 588 *~;
#X obj 460 224 + 1;
#X floatatom 294 248 5 0 0 0 - - -;
#X msg 333 351 0.25 \, 0 5;
#X obj 333 292 sel 1;
#X obj 434 223 f;
#X obj 374 292 sel 0;
#X msg 400 351 0.25 \, 0 5;
#X obj 400 372 vline~;
#X obj 400 328 del 50;
#X obj 400 395 *~;
#X obj 433 279 r \$0-tempo;
#X obj 433 301 * 0.5;
#X obj 510 365 random 10000;
#X obj 510 388 * 0.0001;
#X obj 510 437 vline~;
#X obj 510 412 pack 0 1000;
#X obj 510 303 metro;
#X obj 536 326 random 20000;
#X obj 510 280 loadbang;
#X obj 333 396 *~;
#X obj 602 365 random 10000;
#X obj 602 388 * 0.0001;
#X obj 602 437 vline~;
#X obj 602 412 pack 0 1000;
#X msg 699 481 0.25 \, 0 5;
#X obj 699 502 vline~;
#X obj 699 525 *~;
#X obj 744 363 r \$0-tempo;
#X obj 799 411 random 10000;
#X obj 799 434 * 0.0001;
#X obj 799 483 vline~;
#X obj 799 458 pack 0 1000;
#X obj 325 486 noise~;
#X obj 224 426 random 10000;
#X obj 487 224 mod 8;
#X obj 434 245 sel 6;
#X obj 683 551 *~;
#X obj 350 509 hip~ 3000;
#X obj 799 509 clip~ 0 0.95;
#X obj 744 385 * 16;
#X obj 699 458 del 1600;
#X obj 324 530 *~;
#X obj 602 463 clip~ 0 0.95;
#X obj 510 463 clip~ 0 0.95;
#X obj 224 472 osc~;
#X obj 224 449 * 1e-006;
#X obj 224 498 clip~ 0 0.3;
#X obj 447 155 metro 100;
#X obj 498 135 r \$0-tempo;
#X obj 596 630 throw~ \$0-tharightzz;
#X obj 548 609 throw~ \$0-thaliftzz;
#X connect 0 0 17 0;
#X connect 1 0 17 8;
#X connect 2 0 17 9;
#X connect 3 0 17 11;
#X connect 4 0 17 10;
#X connect 5 0 17 14;
#X connect 6 0 17 15;
#X connect 7 0 17 13;
#X connect 8 0 17 12;
#X connect 9 0 17 4;
#X connect 10 0 17 5;
#X connect 11 0 17 7;
#X connect 12 0 17 6;
#X connect 13 0 17 2;
#X connect 14 0 17 3;
#X connect 15 0 17 1;
#X connect 16 0 17 0;
#X connect 17 0 23 0;
#X connect 18 0 0 0;
#X connect 18 0 19 0;
#X connect 19 0 21 0;
#X connect 20 0 1 0;
#X connect 20 1 2 0;
#X connect 20 2 4 0;
#X connect 20 3 3 0;
#X connect 20 4 8 0;
#X connect 20 5 7 0;
#X connect 20 6 5 0;
#X connect 20 7 6 0;
#X connect 21 0 16 0;
#X connect 21 1 15 0;
#X connect 21 2 13 0;
#X connect 21 3 14 0;
#X connect 21 4 9 0;
#X connect 21 5 10 0;
#X connect 21 6 12 0;
#X connect 21 7 11 0;
#X connect 21 8 20 0;
#X connect 22 0 16 0;
#X connect 22 1 15 0;
#X connect 22 2 13 0;
#X connect 22 3 14 0;
#X connect 22 4 9 0;
#X connect 22 5 10 0;
#X connect 22 6 12 0;
#X connect 22 7 11 0;
#X connect 22 8 1 0;
#X connect 22 9 2 0;
#X connect 22 10 4 0;
#X connect 22 11 3 0;
#X connect 22 12 8 0;
#X connect 22 13 7 0;
#X connect 22 14 5 0;
#X connect 22 15 6 0;
#X connect 23 0 25 0;
#X connect 27 0 28 0;
#X connect 27 0 30 0;
#X connect 27 0 37 0;
#X connect 27 0 41 0;
#X connect 28 0 29 0;
#X connect 29 0 27 1;
#X connect 30 0 39 0;
#X connect 31 0 83 0;
#X connect 32 0 38 0;
#X connect 32 0 44 0;
#X connect 32 0 76 0;
#X connect 33 0 55 0;
#X connect 34 0 86 0;
#X connect 35 0 85 0;
#X connect 36 0 70 0;
#X connect 38 0 33 0;
#X connect 39 0 32 0;
#X connect 40 0 36 0;
#X connect 40 0 71 0;
#X connect 41 0 40 0;
#X connect 42 0 43 0;
#X connect 43 0 45 0;
#X connect 44 0 42 0;
#X connect 45 0 35 1;
#X connect 46 0 47 0;
#X connect 47 0 44 1;
#X connect 48 0 49 0;
#X connect 49 0 51 0;
#X connect 50 0 79 0;
#X connect 51 0 50 0;
#X connect 52 0 53 0;
#X connect 52 0 48 0;
#X connect 52 0 56 0;
#X connect 52 0 64 0;
#X connect 52 0 69 0;
#X connect 53 0 52 1;
#X connect 54 0 52 0;
#X connect 55 0 34 1;
#X connect 56 0 57 0;
#X connect 57 0 59 0;
#X connect 58 0 78 0;
#X connect 59 0 58 0;
#X connect 60 0 61 0;
#X connect 61 0 62 0;
#X connect 62 0 72 1;
#X connect 63 0 75 0;
#X connect 64 0 65 0;
#X connect 65 0 67 0;
#X connect 66 0 74 0;
#X connect 67 0 66 0;
#X connect 68 0 77 0;
#X connect 69 0 81 0;
#X connect 70 0 40 1;
#X connect 71 0 18 0;
#X connect 72 0 85 0;
#X connect 72 0 86 0;
#X connect 73 0 72 0;
#X connect 74 0 62 1;
#X connect 75 0 76 1;
#X connect 76 0 60 0;
#X connect 77 0 34 0;
#X connect 77 0 35 0;
#X connect 77 0 73 0;
#X connect 78 0 55 1;
#X connect 79 0 45 1;
#X connect 80 0 82 0;
#X connect 81 0 80 0;
#X connect 82 0 77 1;
#X connect 83 0 27 0;
#X connect 84 0 83 1;
#X restore 103 -127 pd hatting;
#X obj 103 -148 s \$0-tempo;
#X floatatom 103 -168 5 0 0 0 - - -;
#X msg 103 -190 200;
#X msg 119 -65 \; pd dsp 1;
#X obj -37 -76 s \$0-keykeykeykeykey;
#X obj 25 14 catch~ \$0-tharightzz;
#X obj -26 -7 catch~ \$0-thaliftzz;
#N canvas 0 22 188 101 64_Sine_Drones_&_drips 1;
#N canvas 0 22 871 715 32drones_engine2 0;
#X obj 5 -9 r \$0-keykeykeykeykey;
#X obj 5 33 throw~ \$0-thaliftzz;
#X obj 74 54 throw~ \$0-tharightzz;
#X obj 5 11 toneshengine2;
#X obj 4 75 r \$0-keykeykeykeykey;
#X obj 4 117 throw~ \$0-thaliftzz;
#X obj 73 138 throw~ \$0-tharightzz;
#X obj 4 95 toneshengine2;
#X obj 2 161 r \$0-keykeykeykeykey;
#X obj 2 203 throw~ \$0-thaliftzz;
#X obj 71 224 throw~ \$0-tharightzz;
#X obj 2 181 toneshengine2;
#X obj 1 245 r \$0-keykeykeykeykey;
#X obj 1 287 throw~ \$0-thaliftzz;
#X obj 70 308 throw~ \$0-tharightzz;
#X obj 1 265 toneshengine2;
#X obj 3 336 r \$0-keykeykeykeykey;
#X obj 3 378 throw~ \$0-thaliftzz;
#X obj 72 399 throw~ \$0-tharightzz;
#X obj 3 356 toneshengine2;
#X obj 2 420 r \$0-keykeykeykeykey;
#X obj 2 462 throw~ \$0-thaliftzz;
#X obj 71 483 throw~ \$0-tharightzz;
#X obj 2 440 toneshengine2;
#X obj 0 506 r \$0-keykeykeykeykey;
#X obj 0 548 throw~ \$0-thaliftzz;
#X obj 69 569 throw~ \$0-tharightzz;
#X obj 0 526 toneshengine2;
#X obj -1 590 r \$0-keykeykeykeykey;
#X obj -1 632 throw~ \$0-thaliftzz;
#X obj 68 653 throw~ \$0-tharightzz;
#X obj -1 610 toneshengine2;
#X obj 215 -8 r \$0-keykeykeykeykey;
#X obj 215 34 throw~ \$0-thaliftzz;
#X obj 284 55 throw~ \$0-tharightzz;
#X obj 215 12 toneshengine2;
#X obj 214 76 r \$0-keykeykeykeykey;
#X obj 214 118 throw~ \$0-thaliftzz;
#X obj 283 139 throw~ \$0-tharightzz;
#X obj 214 96 toneshengine2;
#X obj 212 162 r \$0-keykeykeykeykey;
#X obj 212 204 throw~ \$0-thaliftzz;
#X obj 281 225 throw~ \$0-tharightzz;
#X obj 212 182 toneshengine2;
#X obj 211 246 r \$0-keykeykeykeykey;
#X obj 211 288 throw~ \$0-thaliftzz;
#X obj 280 309 throw~ \$0-tharightzz;
#X obj 211 266 toneshengine2;
#X obj 213 337 r \$0-keykeykeykeykey;
#X obj 213 379 throw~ \$0-thaliftzz;
#X obj 282 400 throw~ \$0-tharightzz;
#X obj 213 357 toneshengine2;
#X obj 212 421 r \$0-keykeykeykeykey;
#X obj 212 463 throw~ \$0-thaliftzz;
#X obj 281 484 throw~ \$0-tharightzz;
#X obj 212 441 toneshengine2;
#X obj 210 507 r \$0-keykeykeykeykey;
#X obj 210 549 throw~ \$0-thaliftzz;
#X obj 279 570 throw~ \$0-tharightzz;
#X obj 210 527 toneshengine2;
#X obj 209 591 r \$0-keykeykeykeykey;
#X obj 209 633 throw~ \$0-thaliftzz;
#X obj 278 654 throw~ \$0-tharightzz;
#X obj 209 611 toneshengine2;
#X obj 421 -6 r \$0-keykeykeykeykey;
#X obj 421 36 throw~ \$0-thaliftzz;
#X obj 490 57 throw~ \$0-tharightzz;
#X obj 421 14 toneshengine2;
#X obj 420 78 r \$0-keykeykeykeykey;
#X obj 420 120 throw~ \$0-thaliftzz;
#X obj 489 141 throw~ \$0-tharightzz;
#X obj 420 98 toneshengine2;
#X obj 418 164 r \$0-keykeykeykeykey;
#X obj 418 206 throw~ \$0-thaliftzz;
#X obj 487 227 throw~ \$0-tharightzz;
#X obj 418 184 toneshengine2;
#X obj 417 248 r \$0-keykeykeykeykey;
#X obj 417 290 throw~ \$0-thaliftzz;
#X obj 486 311 throw~ \$0-tharightzz;
#X obj 417 268 toneshengine2;
#X obj 419 339 r \$0-keykeykeykeykey;
#X obj 419 381 throw~ \$0-thaliftzz;
#X obj 488 402 throw~ \$0-tharightzz;
#X obj 419 359 toneshengine2;
#X obj 418 423 r \$0-keykeykeykeykey;
#X obj 418 465 throw~ \$0-thaliftzz;
#X obj 487 486 throw~ \$0-tharightzz;
#X obj 418 443 toneshengine2;
#X obj 416 509 r \$0-keykeykeykeykey;
#X obj 416 551 throw~ \$0-thaliftzz;
#X obj 485 572 throw~ \$0-tharightzz;
#X obj 416 529 toneshengine2;
#X obj 415 593 r \$0-keykeykeykeykey;
#X obj 415 635 throw~ \$0-thaliftzz;
#X obj 484 656 throw~ \$0-tharightzz;
#X obj 415 613 toneshengine2;
#X obj 631 -5 r \$0-keykeykeykeykey;
#X obj 631 37 throw~ \$0-thaliftzz;
#X obj 700 58 throw~ \$0-tharightzz;
#X obj 631 15 toneshengine2;
#X obj 630 79 r \$0-keykeykeykeykey;
#X obj 630 121 throw~ \$0-thaliftzz;
#X obj 699 142 throw~ \$0-tharightzz;
#X obj 630 99 toneshengine2;
#X obj 628 165 r \$0-keykeykeykeykey;
#X obj 628 207 throw~ \$0-thaliftzz;
#X obj 697 228 throw~ \$0-tharightzz;
#X obj 628 185 toneshengine2;
#X obj 627 249 r \$0-keykeykeykeykey;
#X obj 627 291 throw~ \$0-thaliftzz;
#X obj 696 312 throw~ \$0-tharightzz;
#X obj 627 269 toneshengine2;
#X obj 629 340 r \$0-keykeykeykeykey;
#X obj 629 382 throw~ \$0-thaliftzz;
#X obj 698 403 throw~ \$0-tharightzz;
#X obj 629 360 toneshengine2;
#X obj 628 424 r \$0-keykeykeykeykey;
#X obj 628 466 throw~ \$0-thaliftzz;
#X obj 697 487 throw~ \$0-tharightzz;
#X obj 628 444 toneshengine2;
#X obj 626 510 r \$0-keykeykeykeykey;
#X obj 626 552 throw~ \$0-thaliftzz;
#X obj 695 573 throw~ \$0-tharightzz;
#X obj 626 530 toneshengine2;
#X obj 625 594 r \$0-keykeykeykeykey;
#X obj 625 636 throw~ \$0-thaliftzz;
#X obj 694 657 throw~ \$0-tharightzz;
#X obj 625 614 toneshengine2;
#X connect 0 0 3 0;
#X connect 3 0 1 0;
#X connect 3 1 2 0;
#X connect 4 0 7 0;
#X connect 7 0 5 0;
#X connect 7 1 6 0;
#X connect 8 0 11 0;
#X connect 11 0 9 0;
#X connect 11 1 10 0;
#X connect 12 0 15 0;
#X connect 15 0 13 0;
#X connect 15 1 14 0;
#X connect 16 0 19 0;
#X connect 19 0 17 0;
#X connect 19 1 18 0;
#X connect 20 0 23 0;
#X connect 23 0 21 0;
#X connect 23 1 22 0;
#X connect 24 0 27 0;
#X connect 27 0 25 0;
#X connect 27 1 26 0;
#X connect 28 0 31 0;
#X connect 31 0 29 0;
#X connect 31 1 30 0;
#X connect 32 0 35 0;
#X connect 35 0 33 0;
#X connect 35 1 34 0;
#X connect 36 0 39 0;
#X connect 39 0 37 0;
#X connect 39 1 38 0;
#X connect 40 0 43 0;
#X connect 43 0 41 0;
#X connect 43 1 42 0;
#X connect 44 0 47 0;
#X connect 47 0 45 0;
#X connect 47 1 46 0;
#X connect 48 0 51 0;
#X connect 51 0 49 0;
#X connect 51 1 50 0;
#X connect 52 0 55 0;
#X connect 55 0 53 0;
#X connect 55 1 54 0;
#X connect 56 0 59 0;
#X connect 59 0 57 0;
#X connect 59 1 58 0;
#X connect 60 0 63 0;
#X connect 63 0 61 0;
#X connect 63 1 62 0;
#X connect 64 0 67 0;
#X connect 67 0 65 0;
#X connect 67 1 66 0;
#X connect 68 0 71 0;
#X connect 71 0 69 0;
#X connect 71 1 70 0;
#X connect 72 0 75 0;
#X connect 75 0 73 0;
#X connect 75 1 74 0;
#X connect 76 0 79 0;
#X connect 79 0 77 0;
#X connect 79 1 78 0;
#X connect 80 0 83 0;
#X connect 83 0 81 0;
#X connect 83 1 82 0;
#X connect 84 0 87 0;
#X connect 87 0 85 0;
#X connect 87 1 86 0;
#X connect 88 0 91 0;
#X connect 91 0 89 0;
#X connect 91 1 90 0;
#X connect 92 0 95 0;
#X connect 95 0 93 0;
#X connect 95 1 94 0;
#X connect 96 0 99 0;
#X connect 99 0 97 0;
#X connect 99 1 98 0;
#X connect 100 0 103 0;
#X connect 103 0 101 0;
#X connect 103 1 102 0;
#X connect 104 0 107 0;
#X connect 107 0 105 0;
#X connect 107 1 106 0;
#X connect 108 0 111 0;
#X connect 111 0 109 0;
#X connect 111 1 110 0;
#X connect 112 0 115 0;
#X connect 115 0 113 0;
#X connect 115 1 114 0;
#X connect 116 0 119 0;
#X connect 119 0 117 0;
#X connect 119 1 118 0;
#X connect 120 0 123 0;
#X connect 123 0 121 0;
#X connect 123 1 122 0;
#X connect 124 0 127 0;
#X connect 127 0 125 0;
#X connect 127 1 126 0;
#X restore 35 55 pd 32drones_engine2;
#N canvas 0 22 1086 727 32drones_engine1 0;
#X obj 5 11 toneshengine;
#X obj 5 -9 r \$0-keykeykeykeykey;
#X obj 5 33 throw~ \$0-thaliftzz;
#X obj 74 54 throw~ \$0-tharightzz;
#X obj 5 98 toneshengine;
#X obj 5 78 r \$0-keykeykeykeykey;
#X obj 5 120 throw~ \$0-thaliftzz;
#X obj 74 141 throw~ \$0-tharightzz;
#X obj 2 183 toneshengine;
#X obj 2 163 r \$0-keykeykeykeykey;
#X obj 2 205 throw~ \$0-thaliftzz;
#X obj 71 226 throw~ \$0-tharightzz;
#X obj 2 270 toneshengine;
#X obj 2 250 r \$0-keykeykeykeykey;
#X obj 2 292 throw~ \$0-thaliftzz;
#X obj 71 313 throw~ \$0-tharightzz;
#X obj 4 362 toneshengine;
#X obj 4 342 r \$0-keykeykeykeykey;
#X obj 4 384 throw~ \$0-thaliftzz;
#X obj 73 405 throw~ \$0-tharightzz;
#X obj 4 449 toneshengine;
#X obj 4 429 r \$0-keykeykeykeykey;
#X obj 4 471 throw~ \$0-thaliftzz;
#X obj 73 492 throw~ \$0-tharightzz;
#X obj 1 534 toneshengine;
#X obj 1 514 r \$0-keykeykeykeykey;
#X obj 1 556 throw~ \$0-thaliftzz;
#X obj 70 577 throw~ \$0-tharightzz;
#X obj 1 621 toneshengine;
#X obj 1 601 r \$0-keykeykeykeykey;
#X obj 1 643 throw~ \$0-thaliftzz;
#X obj 70 664 throw~ \$0-tharightzz;
#X obj 216 12 toneshengine;
#X obj 216 -8 r \$0-keykeykeykeykey;
#X obj 216 34 throw~ \$0-thaliftzz;
#X obj 285 55 throw~ \$0-tharightzz;
#X obj 216 99 toneshengine;
#X obj 216 79 r \$0-keykeykeykeykey;
#X obj 216 121 throw~ \$0-thaliftzz;
#X obj 285 142 throw~ \$0-tharightzz;
#X obj 213 184 toneshengine;
#X obj 213 164 r \$0-keykeykeykeykey;
#X obj 213 206 throw~ \$0-thaliftzz;
#X obj 282 227 throw~ \$0-tharightzz;
#X obj 213 271 toneshengine;
#X obj 213 251 r \$0-keykeykeykeykey;
#X obj 213 293 throw~ \$0-thaliftzz;
#X obj 282 314 throw~ \$0-tharightzz;
#X obj 215 363 toneshengine;
#X obj 215 343 r \$0-keykeykeykeykey;
#X obj 215 385 throw~ \$0-thaliftzz;
#X obj 284 406 throw~ \$0-tharightzz;
#X obj 215 450 toneshengine;
#X obj 215 430 r \$0-keykeykeykeykey;
#X obj 215 472 throw~ \$0-thaliftzz;
#X obj 284 493 throw~ \$0-tharightzz;
#X obj 212 535 toneshengine;
#X obj 212 515 r \$0-keykeykeykeykey;
#X obj 212 557 throw~ \$0-thaliftzz;
#X obj 281 578 throw~ \$0-tharightzz;
#X obj 212 622 toneshengine;
#X obj 212 602 r \$0-keykeykeykeykey;
#X obj 212 644 throw~ \$0-thaliftzz;
#X obj 281 665 throw~ \$0-tharightzz;
#X obj 429 12 toneshengine;
#X obj 429 -8 r \$0-keykeykeykeykey;
#X obj 429 34 throw~ \$0-thaliftzz;
#X obj 498 55 throw~ \$0-tharightzz;
#X obj 429 99 toneshengine;
#X obj 429 79 r \$0-keykeykeykeykey;
#X obj 429 121 throw~ \$0-thaliftzz;
#X obj 498 142 throw~ \$0-tharightzz;
#X obj 426 184 toneshengine;
#X obj 426 164 r \$0-keykeykeykeykey;
#X obj 426 206 throw~ \$0-thaliftzz;
#X obj 495 227 throw~ \$0-tharightzz;
#X obj 426 271 toneshengine;
#X obj 426 251 r \$0-keykeykeykeykey;
#X obj 426 293 throw~ \$0-thaliftzz;
#X obj 495 314 throw~ \$0-tharightzz;
#X obj 428 363 toneshengine;
#X obj 428 343 r \$0-keykeykeykeykey;
#X obj 428 385 throw~ \$0-thaliftzz;
#X obj 497 406 throw~ \$0-tharightzz;
#X obj 428 450 toneshengine;
#X obj 428 430 r \$0-keykeykeykeykey;
#X obj 428 472 throw~ \$0-thaliftzz;
#X obj 497 493 throw~ \$0-tharightzz;
#X obj 425 535 toneshengine;
#X obj 425 515 r \$0-keykeykeykeykey;
#X obj 425 557 throw~ \$0-thaliftzz;
#X obj 494 578 throw~ \$0-tharightzz;
#X obj 425 622 toneshengine;
#X obj 425 602 r \$0-keykeykeykeykey;
#X obj 425 644 throw~ \$0-thaliftzz;
#X obj 494 665 throw~ \$0-tharightzz;
#X obj 640 13 toneshengine;
#X obj 640 -7 r \$0-keykeykeykeykey;
#X obj 640 35 throw~ \$0-thaliftzz;
#X obj 709 56 throw~ \$0-tharightzz;
#X obj 640 100 toneshengine;
#X obj 640 80 r \$0-keykeykeykeykey;
#X obj 640 122 throw~ \$0-thaliftzz;
#X obj 709 143 throw~ \$0-tharightzz;
#X obj 637 185 toneshengine;
#X obj 637 165 r \$0-keykeykeykeykey;
#X obj 637 207 throw~ \$0-thaliftzz;
#X obj 706 228 throw~ \$0-tharightzz;
#X obj 637 272 toneshengine;
#X obj 637 252 r \$0-keykeykeykeykey;
#X obj 637 294 throw~ \$0-thaliftzz;
#X obj 706 315 throw~ \$0-tharightzz;
#X obj 639 364 toneshengine;
#X obj 639 344 r \$0-keykeykeykeykey;
#X obj 639 386 throw~ \$0-thaliftzz;
#X obj 708 407 throw~ \$0-tharightzz;
#X obj 639 451 toneshengine;
#X obj 639 431 r \$0-keykeykeykeykey;
#X obj 639 473 throw~ \$0-thaliftzz;
#X obj 708 494 throw~ \$0-tharightzz;
#X obj 636 536 toneshengine;
#X obj 636 516 r \$0-keykeykeykeykey;
#X obj 636 558 throw~ \$0-thaliftzz;
#X obj 705 579 throw~ \$0-tharightzz;
#X obj 636 623 toneshengine;
#X obj 636 603 r \$0-keykeykeykeykey;
#X obj 636 645 throw~ \$0-thaliftzz;
#X obj 705 666 throw~ \$0-tharightzz;
#X obj 850 13 toneshengine;
#X obj 850 -7 r \$0-keykeykeykeykey;
#X obj 850 35 throw~ \$0-thaliftzz;
#X obj 919 56 throw~ \$0-tharightzz;
#X obj 850 100 toneshengine;
#X obj 850 80 r \$0-keykeykeykeykey;
#X obj 850 122 throw~ \$0-thaliftzz;
#X obj 919 143 throw~ \$0-tharightzz;
#X obj 847 185 toneshengine;
#X obj 847 165 r \$0-keykeykeykeykey;
#X obj 847 207 throw~ \$0-thaliftzz;
#X obj 916 228 throw~ \$0-tharightzz;
#X obj 847 272 toneshengine;
#X obj 847 252 r \$0-keykeykeykeykey;
#X obj 847 294 throw~ \$0-thaliftzz;
#X obj 916 315 throw~ \$0-tharightzz;
#X obj 849 364 toneshengine;
#X obj 849 344 r \$0-keykeykeykeykey;
#X obj 849 386 throw~ \$0-thaliftzz;
#X obj 918 407 throw~ \$0-tharightzz;
#X obj 849 451 toneshengine;
#X obj 849 431 r \$0-keykeykeykeykey;
#X obj 849 473 throw~ \$0-thaliftzz;
#X obj 918 494 throw~ \$0-tharightzz;
#X obj 846 536 toneshengine;
#X obj 846 516 r \$0-keykeykeykeykey;
#X obj 846 558 throw~ \$0-thaliftzz;
#X obj 915 579 throw~ \$0-tharightzz;
#X obj 846 623 toneshengine;
#X obj 846 603 r \$0-keykeykeykeykey;
#X obj 846 645 throw~ \$0-thaliftzz;
#X obj 915 666 throw~ \$0-tharightzz;
#X connect 0 0 2 0;
#X connect 0 1 3 0;
#X connect 1 0 0 0;
#X connect 4 0 6 0;
#X connect 4 1 7 0;
#X connect 5 0 4 0;
#X connect 8 0 10 0;
#X connect 8 1 11 0;
#X connect 9 0 8 0;
#X connect 12 0 14 0;
#X connect 12 1 15 0;
#X connect 13 0 12 0;
#X connect 16 0 18 0;
#X connect 16 1 19 0;
#X connect 17 0 16 0;
#X connect 20 0 22 0;
#X connect 20 1 23 0;
#X connect 21 0 20 0;
#X connect 24 0 26 0;
#X connect 24 1 27 0;
#X connect 25 0 24 0;
#X connect 28 0 30 0;
#X connect 28 1 31 0;
#X connect 29 0 28 0;
#X connect 32 0 34 0;
#X connect 32 1 35 0;
#X connect 33 0 32 0;
#X connect 36 0 38 0;
#X connect 36 1 39 0;
#X connect 37 0 36 0;
#X connect 40 0 42 0;
#X connect 40 1 43 0;
#X connect 41 0 40 0;
#X connect 44 0 46 0;
#X connect 44 1 47 0;
#X connect 45 0 44 0;
#X connect 48 0 50 0;
#X connect 48 1 51 0;
#X connect 49 0 48 0;
#X connect 52 0 54 0;
#X connect 52 1 55 0;
#X connect 53 0 52 0;
#X connect 56 0 58 0;
#X connect 56 1 59 0;
#X connect 57 0 56 0;
#X connect 60 0 62 0;
#X connect 60 1 63 0;
#X connect 61 0 60 0;
#X connect 64 0 66 0;
#X connect 64 1 67 0;
#X connect 65 0 64 0;
#X connect 68 0 70 0;
#X connect 68 1 71 0;
#X connect 69 0 68 0;
#X connect 72 0 74 0;
#X connect 72 1 75 0;
#X connect 73 0 72 0;
#X connect 76 0 78 0;
#X connect 76 1 79 0;
#X connect 77 0 76 0;
#X connect 80 0 82 0;
#X connect 80 1 83 0;
#X connect 81 0 80 0;
#X connect 84 0 86 0;
#X connect 84 1 87 0;
#X connect 85 0 84 0;
#X connect 88 0 90 0;
#X connect 88 1 91 0;
#X connect 89 0 88 0;
#X connect 92 0 94 0;
#X connect 92 1 95 0;
#X connect 93 0 92 0;
#X connect 96 0 98 0;
#X connect 96 1 99 0;
#X connect 97 0 96 0;
#X connect 100 0 102 0;
#X connect 100 1 103 0;
#X connect 101 0 100 0;
#X connect 104 0 106 0;
#X connect 104 1 107 0;
#X connect 105 0 104 0;
#X connect 108 0 110 0;
#X connect 108 1 111 0;
#X connect 109 0 108 0;
#X connect 112 0 114 0;
#X connect 112 1 115 0;
#X connect 113 0 112 0;
#X connect 116 0 118 0;
#X connect 116 1 119 0;
#X connect 117 0 116 0;
#X connect 120 0 122 0;
#X connect 120 1 123 0;
#X connect 121 0 120 0;
#X connect 124 0 126 0;
#X connect 124 1 127 0;
#X connect 125 0 124 0;
#X connect 128 0 130 0;
#X connect 128 1 131 0;
#X connect 129 0 128 0;
#X connect 132 0 134 0;
#X connect 132 1 135 0;
#X connect 133 0 132 0;
#X connect 136 0 138 0;
#X connect 136 1 139 0;
#X connect 137 0 136 0;
#X connect 140 0 142 0;
#X connect 140 1 143 0;
#X connect 141 0 140 0;
#X connect 144 0 146 0;
#X connect 144 1 147 0;
#X connect 145 0 144 0;
#X connect 148 0 150 0;
#X connect 148 1 151 0;
#X connect 149 0 148 0;
#X connect 152 0 154 0;
#X connect 152 1 155 0;
#X connect 153 0 152 0;
#X connect 156 0 158 0;
#X connect 156 1 159 0;
#X connect 157 0 156 0;
#X restore 35 23 pd 32drones_engine1;
#X restore -38 -52 pd 64_Sine_Drones_&_drips;
#N canvas 16 31 874 778 32_Combed_crackles 0;
#X obj 9 -32 r \$0-keykeykeykeykey;
#X obj 9 10 throw~ \$0-thaliftzz;
#X obj 78 31 throw~ \$0-tharightzz;
#X obj 10 58 r \$0-keykeykeykeykey;
#X obj 10 100 throw~ \$0-thaliftzz;
#X obj 79 121 throw~ \$0-tharightzz;
#X obj 11 147 r \$0-keykeykeykeykey;
#X obj 11 189 throw~ \$0-thaliftzz;
#X obj 80 210 throw~ \$0-tharightzz;
#X obj 12 237 r \$0-keykeykeykeykey;
#X obj 12 279 throw~ \$0-thaliftzz;
#X obj 81 300 throw~ \$0-tharightzz;
#X obj 11 329 r \$0-keykeykeykeykey;
#X obj 11 371 throw~ \$0-thaliftzz;
#X obj 80 392 throw~ \$0-tharightzz;
#X obj 12 419 r \$0-keykeykeykeykey;
#X obj 12 461 throw~ \$0-thaliftzz;
#X obj 81 482 throw~ \$0-tharightzz;
#X obj 13 508 r \$0-keykeykeykeykey;
#X obj 13 550 throw~ \$0-thaliftzz;
#X obj 82 571 throw~ \$0-tharightzz;
#X obj 14 598 r \$0-keykeykeykeykey;
#X obj 14 640 throw~ \$0-thaliftzz;
#X obj 83 661 throw~ \$0-tharightzz;
#X obj 211 -37 r \$0-keykeykeykeykey;
#X obj 211 5 throw~ \$0-thaliftzz;
#X obj 280 26 throw~ \$0-tharightzz;
#X obj 212 53 r \$0-keykeykeykeykey;
#X obj 212 95 throw~ \$0-thaliftzz;
#X obj 281 116 throw~ \$0-tharightzz;
#X obj 213 142 r \$0-keykeykeykeykey;
#X obj 213 184 throw~ \$0-thaliftzz;
#X obj 282 205 throw~ \$0-tharightzz;
#X obj 214 232 r \$0-keykeykeykeykey;
#X obj 214 274 throw~ \$0-thaliftzz;
#X obj 283 295 throw~ \$0-tharightzz;
#X obj 213 324 r \$0-keykeykeykeykey;
#X obj 213 366 throw~ \$0-thaliftzz;
#X obj 282 387 throw~ \$0-tharightzz;
#X obj 214 414 r \$0-keykeykeykeykey;
#X obj 214 456 throw~ \$0-thaliftzz;
#X obj 283 477 throw~ \$0-tharightzz;
#X obj 215 503 r \$0-keykeykeykeykey;
#X obj 215 545 throw~ \$0-thaliftzz;
#X obj 284 566 throw~ \$0-tharightzz;
#X obj 216 593 r \$0-keykeykeykeykey;
#X obj 216 635 throw~ \$0-thaliftzz;
#X obj 285 656 throw~ \$0-tharightzz;
#X obj 419 -37 r \$0-keykeykeykeykey;
#X obj 419 5 throw~ \$0-thaliftzz;
#X obj 488 26 throw~ \$0-tharightzz;
#X obj 420 53 r \$0-keykeykeykeykey;
#X obj 420 95 throw~ \$0-thaliftzz;
#X obj 489 116 throw~ \$0-tharightzz;
#X obj 421 142 r \$0-keykeykeykeykey;
#X obj 421 184 throw~ \$0-thaliftzz;
#X obj 490 205 throw~ \$0-tharightzz;
#X obj 422 232 r \$0-keykeykeykeykey;
#X obj 422 274 throw~ \$0-thaliftzz;
#X obj 491 295 throw~ \$0-tharightzz;
#X obj 421 324 r \$0-keykeykeykeykey;
#X obj 421 366 throw~ \$0-thaliftzz;
#X obj 490 387 throw~ \$0-tharightzz;
#X obj 422 414 r \$0-keykeykeykeykey;
#X obj 422 456 throw~ \$0-thaliftzz;
#X obj 491 477 throw~ \$0-tharightzz;
#X obj 423 503 r \$0-keykeykeykeykey;
#X obj 423 545 throw~ \$0-thaliftzz;
#X obj 492 566 throw~ \$0-tharightzz;
#X obj 424 593 r \$0-keykeykeykeykey;
#X obj 424 635 throw~ \$0-thaliftzz;
#X obj 493 656 throw~ \$0-tharightzz;
#X obj 621 -42 r \$0-keykeykeykeykey;
#X obj 621 0 throw~ \$0-thaliftzz;
#X obj 690 21 throw~ \$0-tharightzz;
#X obj 622 48 r \$0-keykeykeykeykey;
#X obj 622 90 throw~ \$0-thaliftzz;
#X obj 691 111 throw~ \$0-tharightzz;
#X obj 623 137 r \$0-keykeykeykeykey;
#X obj 623 179 throw~ \$0-thaliftzz;
#X obj 692 200 throw~ \$0-tharightzz;
#X obj 624 227 r \$0-keykeykeykeykey;
#X obj 624 269 throw~ \$0-thaliftzz;
#X obj 693 290 throw~ \$0-tharightzz;
#X obj 623 319 r \$0-keykeykeykeykey;
#X obj 623 361 throw~ \$0-thaliftzz;
#X obj 692 382 throw~ \$0-tharightzz;
#X obj 624 409 r \$0-keykeykeykeykey;
#X obj 624 451 throw~ \$0-thaliftzz;
#X obj 693 472 throw~ \$0-tharightzz;
#X obj 625 498 r \$0-keykeykeykeykey;
#X obj 625 540 throw~ \$0-thaliftzz;
#X obj 694 561 throw~ \$0-tharightzz;
#X obj 626 588 r \$0-keykeykeykeykey;
#X obj 626 630 throw~ \$0-thaliftzz;
#X obj 695 651 throw~ \$0-tharightzz;
#X obj 213 164 deleshengine;
#X obj 213 346 deleshengine;
#X obj 9 -10 deleshengine;
#X obj 10 80 deleshengine;
#X obj 11 169 deleshengine;
#X obj 12 259 deleshengine;
#X obj 11 351 deleshengine;
#X obj 12 441 deleshengine;
#X obj 13 530 deleshengine;
#X obj 14 620 deleshengine;
#X obj 211 -15 deleshengine;
#X obj 212 75 deleshengine;
#X obj 214 254 deleshengine;
#X obj 214 436 deleshengine;
#X obj 215 525 deleshengine;
#X obj 216 615 deleshengine;
#X obj 419 -15 deleshengine;
#X obj 420 75 deleshengine;
#X obj 421 164 deleshengine;
#X obj 422 254 deleshengine;
#X obj 421 346 deleshengine;
#X obj 422 436 deleshengine;
#X obj 423 525 deleshengine;
#X obj 424 615 deleshengine;
#X obj 621 -20 deleshengine;
#X obj 622 70 deleshengine;
#X obj 623 159 deleshengine;
#X obj 624 249 deleshengine;
#X obj 623 341 deleshengine;
#X obj 624 431 deleshengine;
#X obj 625 520 deleshengine;
#X obj 626 610 deleshengine;
#X connect 0 0 98 0;
#X connect 3 0 99 0;
#X connect 6 0 100 0;
#X connect 9 0 101 0;
#X connect 12 0 102 0;
#X connect 15 0 103 0;
#X connect 18 0 104 0;
#X connect 21 0 105 0;
#X connect 24 0 106 0;
#X connect 27 0 107 0;
#X connect 30 0 96 0;
#X connect 33 0 108 0;
#X connect 36 0 97 0;
#X connect 39 0 109 0;
#X connect 42 0 110 0;
#X connect 45 0 111 0;
#X connect 48 0 112 0;
#X connect 51 0 113 0;
#X connect 54 0 114 0;
#X connect 57 0 115 0;
#X connect 60 0 116 0;
#X connect 63 0 117 0;
#X connect 66 0 118 0;
#X connect 69 0 119 0;
#X connect 72 0 120 0;
#X connect 75 0 121 0;
#X connect 78 0 122 0;
#X connect 81 0 123 0;
#X connect 84 0 124 0;
#X connect 87 0 125 0;
#X connect 90 0 126 0;
#X connect 93 0 127 0;
#X connect 96 0 31 0;
#X connect 96 1 32 0;
#X connect 97 0 37 0;
#X connect 97 1 38 0;
#X connect 98 0 1 0;
#X connect 98 1 2 0;
#X connect 99 0 4 0;
#X connect 99 1 5 0;
#X connect 100 0 7 0;
#X connect 100 1 8 0;
#X connect 101 0 10 0;
#X connect 101 1 11 0;
#X connect 102 0 13 0;
#X connect 102 1 14 0;
#X connect 103 0 16 0;
#X connect 103 1 17 0;
#X connect 104 0 19 0;
#X connect 104 1 20 0;
#X connect 105 0 22 0;
#X connect 105 1 23 0;
#X connect 106 0 25 0;
#X connect 106 1 26 0;
#X connect 107 0 28 0;
#X connect 107 1 29 0;
#X connect 108 0 34 0;
#X connect 108 1 35 0;
#X connect 109 0 40 0;
#X connect 109 1 41 0;
#X connect 110 0 43 0;
#X connect 110 1 44 0;
#X connect 111 0 46 0;
#X connect 111 1 47 0;
#X connect 112 0 49 0;
#X connect 112 1 50 0;
#X connect 113 0 52 0;
#X connect 113 1 53 0;
#X connect 114 0 55 0;
#X connect 114 1 56 0;
#X connect 115 0 58 0;
#X connect 115 1 59 0;
#X connect 116 0 61 0;
#X connect 116 1 62 0;
#X connect 117 0 64 0;
#X connect 117 1 65 0;
#X connect 118 0 67 0;
#X connect 118 1 68 0;
#X connect 119 0 70 0;
#X connect 119 1 71 0;
#X connect 120 0 73 0;
#X connect 120 1 74 0;
#X connect 121 0 76 0;
#X connect 121 1 77 0;
#X connect 122 0 79 0;
#X connect 122 1 80 0;
#X connect 123 0 82 0;
#X connect 123 1 83 0;
#X connect 124 0 85 0;
#X connect 124 1 86 0;
#X connect 125 0 88 0;
#X connect 125 1 89 0;
#X connect 126 0 91 0;
#X connect 126 1 92 0;
#X connect 127 0 94 0;
#X connect 127 1 95 0;
#X restore -38 -28 pd 32_Combed_crackles;
#X obj -26 35 patchComs;
#X connect 0 0 2 0;
#X connect 0 0 5 0;
#X connect 1 0 4 0;
#X connect 1 0 11 0;
#X connect 1 0 12 0;
#X connect 1 0 8 0;
#X connect 2 0 0 1;
#X connect 4 0 0 0;
#X connect 5 0 7 0;
#X connect 7 0 3 0;
#X connect 7 0 13 0;
#X connect 10 0 9 0;
#X connect 11 0 10 0;
#X connect 14 0 18 1;
#X connect 15 0 18 0;
