#N canvas 27 44 241 246 10;
#X obj 17 140 catch~ \$0-whatysl;
#X obj 126 140 catch~ \$0-whatysr;
#X obj 17 56 metro 250;
#X obj 17 37 tgl 15 0 empty empty empty 17 7 0 10 -262144 -1 -1 1 1
;
#X obj 17 78 s \$0-baeng;
#X obj 17 14 loadbang;
#X floatatom 87 58 10 0 0 0 - - -;
#N canvas 672 186 339 407 workit2 0;
#X obj 67 262 outlet;
#X obj 66 81 metro 20000;
#X obj 154 15 random 10000;
#X obj 154 35 * 2;
#X obj 154 54 + 1000;
#X obj 42 63 bng 15 250 50 0 empty empty empty 17 7 0 10 -262144 -1
-1;
#X obj 67 238 line;
#X obj 67 212 pack 0 1000;
#X obj 145 210 random 2000;
#X obj 67 103 random 5000;
#X obj 67 127 moses 3000;
#X obj 67 154 * 0.0625;
#X obj 104 184 * 3;
#X obj 66 19 inlet;
#X obj 67 185 + 100;
#X obj 116 324 * 0.0002;
#X obj 116 344 * 80;
#X obj 116 365 s \$0-revtimer;
#X obj 116 280 - 100;
#X obj 116 301 clip 10 5000;
#X connect 1 0 2 0;
#X connect 1 0 9 0;
#X connect 2 0 3 0;
#X connect 3 0 4 0;
#X connect 4 0 1 1;
#X connect 5 0 1 0;
#X connect 6 0 0 0;
#X connect 6 0 18 0;
#X connect 7 0 6 0;
#X connect 8 0 6 0;
#X connect 8 0 7 0;
#X connect 8 0 7 1;
#X connect 9 0 10 0;
#X connect 10 0 11 0;
#X connect 10 1 14 0;
#X connect 11 0 14 0;
#X connect 12 0 7 1;
#X connect 13 0 1 0;
#X connect 13 0 8 0;
#X connect 14 0 7 0;
#X connect 14 0 12 0;
#X connect 15 0 16 0;
#X connect 16 0 17 0;
#X connect 18 0 19 0;
#X connect 19 0 15 0;
#X restore 68 35 pd workit2;
#N canvas 48 78 503 577 revvsvvs 0;
#X obj 28 -77 inlet~;
#X obj 41 -11 rev1~;
#X obj 108 -10 rev1~;
#X obj 95 -75 inlet~;
#X obj 32 443 outlet~;
#X obj 123 441 outlet~;
#X obj 151 -53 r \$0-revtimer;
#X floatatom 167 -29 5 0 0 0 - - -;
#X obj 167 11 * 0.01;
#X obj 110 32 *~;
#X obj 43 27 *~;
#X floatatom 167 33 5 0 0 0 - - -;
#X obj 167 -10 + 20;
#X obj 274 233 r \$0-baeng;
#X obj 238 104 r \$0-twerk;
#X obj 248 361 delwrite~ \$0-canofsam 5000;
#X obj 238 146 vd~ \$0-canofsam 5000;
#X obj 238 125 sig~;
#X obj 238 170 lop~ 500;
#X obj 248 197 *~ 0.77;
#X obj 259 336 *~;
#X obj 274 254 random 1000;
#X obj 274 315 vline~;
#X obj 274 274 * 0.001;
#X obj 274 294 pack 0 1000;
#X obj 97 312 r \$0-baeng;
#X obj 82 415 *~;
#X obj 97 333 random 1000;
#X obj 97 394 vline~;
#X obj 97 353 * 0.001;
#X obj 97 373 pack 0 1000;
#X obj 82 236 clip~ -0.08 0.08;
#X connect 0 0 1 0;
#X connect 0 0 4 0;
#X connect 1 0 10 0;
#X connect 1 0 31 0;
#X connect 2 0 9 0;
#X connect 2 0 31 0;
#X connect 3 0 2 0;
#X connect 3 0 5 0;
#X connect 6 0 2 1;
#X connect 6 0 1 1;
#X connect 6 0 7 0;
#X connect 7 0 12 0;
#X connect 8 0 9 1;
#X connect 8 0 10 1;
#X connect 8 0 11 0;
#X connect 9 0 5 0;
#X connect 9 0 20 0;
#X connect 10 0 4 0;
#X connect 10 0 20 0;
#X connect 12 0 8 0;
#X connect 13 0 21 0;
#X connect 14 0 17 0;
#X connect 16 0 18 0;
#X connect 17 0 16 0;
#X connect 18 0 5 0;
#X connect 18 0 4 0;
#X connect 18 0 19 0;
#X connect 18 0 31 0;
#X connect 19 0 15 0;
#X connect 20 0 15 0;
#X connect 21 0 23 0;
#X connect 22 0 20 1;
#X connect 23 0 24 0;
#X connect 24 0 22 0;
#X connect 25 0 27 0;
#X connect 26 0 4 0;
#X connect 26 0 5 0;
#X connect 27 0 29 0;
#X connect 28 0 26 1;
#X connect 29 0 30 0;
#X connect 30 0 28 0;
#X connect 31 0 26 0;
#X restore 17 164 pd revvsvvs;
#N canvas 84 186 759 242 h8 0;
#X obj 29 55 throw~ \$0-whatysl;
#X obj 92 76 throw~ \$0-whatysr;
#X obj 29 8 r \$0-baeng;
#X obj 205 53 throw~ \$0-whatysl;
#X obj 268 74 throw~ \$0-whatysr;
#X obj 205 6 r \$0-baeng;
#X obj 385 54 throw~ \$0-whatysl;
#X obj 448 75 throw~ \$0-whatysr;
#X obj 385 7 r \$0-baeng;
#X obj 561 52 throw~ \$0-whatysl;
#X obj 624 73 throw~ \$0-whatysr;
#X obj 561 5 r \$0-baeng;
#X obj 31 169 throw~ \$0-whatysl;
#X obj 94 190 throw~ \$0-whatysr;
#X obj 31 122 r \$0-baeng;
#X obj 207 167 throw~ \$0-whatysl;
#X obj 270 188 throw~ \$0-whatysr;
#X obj 207 120 r \$0-baeng;
#X obj 387 168 throw~ \$0-whatysl;
#X obj 450 189 throw~ \$0-whatysr;
#X obj 387 121 r \$0-baeng;
#X obj 563 166 throw~ \$0-whatysl;
#X obj 626 187 throw~ \$0-whatysr;
#X obj 563 119 r \$0-baeng;
#X obj 31 143 squaretteat;
#X obj 29 29 squaretteat;
#X obj 563 140 squaretteat;
#X obj 205 27 squaretteat;
#X obj 385 28 squaretteat;
#X obj 561 26 squaretteat;
#X obj 207 141 squaretteat;
#X obj 387 142 squaretteat;
#X connect 2 0 25 0;
#X connect 5 0 27 0;
#X connect 8 0 28 0;
#X connect 11 0 29 0;
#X connect 14 0 24 0;
#X connect 17 0 30 0;
#X connect 20 0 31 0;
#X connect 23 0 26 0;
#X connect 24 0 12 0;
#X connect 24 1 13 0;
#X connect 25 0 0 0;
#X connect 25 1 1 0;
#X connect 26 0 21 0;
#X connect 26 1 22 0;
#X connect 27 0 3 0;
#X connect 27 1 4 0;
#X connect 28 0 6 0;
#X connect 28 1 7 0;
#X connect 29 0 9 0;
#X connect 29 1 10 0;
#X connect 30 0 15 0;
#X connect 30 1 16 0;
#X connect 31 0 18 0;
#X connect 31 1 19 0;
#X restore 17 107 pd h8;
#X obj 87 78 s \$0-twerk;
#X obj 17 191 patchComs;
#X obj 17 214 switch~;
#X connect 0 0 8 0;
#X connect 1 0 8 1;
#X connect 2 0 4 0;
#X connect 3 0 2 0;
#X connect 5 0 3 0;
#X connect 5 0 7 0;
#X connect 6 0 10 0;
#X connect 7 0 2 1;
#X connect 7 0 6 0;
#X connect 8 0 11 0;
#X connect 8 1 11 1;
#X connect 11 0 12 0;
