#N canvas 189 55 1035 799 10;
#X obj 255 199 clip~ -1e-05 1e-05;
#X obj 255 222 *~ 100000;
#X obj 255 246 *~;
#X obj 383 211 clip~ -1e-05 1e-05;
#X obj 383 231 *~ 100000;
#X obj 255 177 osc~;
#X obj 383 190 osc~;
#X obj 246 346 *~;
#X obj 303 346 *~;
#X obj 401 319 expr ($f1*-1)+1;
#X obj 401 298 * 0.01;
#X obj 401 277 random 100;
#X obj 287 57 bng 15 250 50 0 empty empty empty 17 7 0 10 -262144 -1
-1;
#X obj 212 19 loadbang;
#X obj 251 299 vd~ \$0-shawty 15;
#X obj 182 178 random 100;
#X obj 182 220 sig~;
#X obj 182 199 * 1;
#X obj 252 277 delwrite~ \$0-shawty 150;
#X obj 255 157 * 0.001;
#X obj 383 169 * 0.001;
#X obj 255 136 random 1000;
#X obj 383 148 random 1000;
#X obj 245 620 *~;
#X obj 341 620 *~;
#X obj 346 584 vline~;
#X obj 346 545 * 0.001;
#X obj 346 524 random 1000;
#X obj 241 377 lop~;
#X obj 298 373 lop~;
#X obj 241 403 hip~;
#X obj 298 399 hip~;
#X obj 701 224 bng 15 250 50 0 empty empty empty 17 7 0 10 -262144
-1 -1;
#X obj 498 367 random 5000;
#X obj 113 483 delwrite~ \$0-shiwty 150;
#X obj 112 503 vd~ \$0-shiwty 15;
#X obj 336 451 delwrite~ \$0-shewty 150;
#X obj 335 471 vd~ \$0-shewty 15;
#X obj 229 589 vline~;
#X obj 229 550 * 0.001;
#X obj 229 529 random 1000;
#X obj 214 619 *~;
#X obj 369 621 *~;
#X obj 148 421 random 100;
#X obj 148 463 sig~;
#X obj 148 442 * 1;
#X obj 360 386 random 100;
#X obj 360 428 sig~;
#X obj 360 407 * 1;
#X obj 307 500 random 5000;
#X obj 449 766 outlet~;
#X obj 558 766 outlet~;
#X obj 220 641 clip~ -0.75 0.75;
#X obj 337 642 clip~ -0.75 0.75;
#X obj 515 407 random 1000;
#X obj 524 427 random 6000;
#X obj 505 386 random 8000;
#X obj 221 660 clip~ -0.75 0.75;
#X obj 338 661 clip~ -0.75 0.75;
#X obj 222 680 clip~ -0.75 0.75;
#X obj 338 680 clip~ -0.75 0.75;
#X obj 449 742 *~;
#X obj 558 744 *~;
#X obj 531 673 bng 15 250 50 0 empty empty empty 17 7 0 10 -262144
-1 -1;
#X obj 287 11 inlet;
#X obj 671 275 random 10000;
#X obj 681 285 random 10000;
#X obj 691 295 random 10000;
#X obj 701 305 random 10000;
#X obj 182 299 lop~ 2500;
#X obj 61 491 *~ 0.77;
#X obj 182 277 *~ 0.77;
#X obj 283 457 *~ 0.77;
#X obj 229 570 pack 0 1000;
#X obj 346 564 pack 0 1000;
#X obj 530 504 random 1000;
#X obj 530 549 pack 0 1000;
#X obj 530 525 * -0.001;
#X obj 530 466 bng 15 250 50 0 empty empty empty 17 7 0 10 -262144
-1 -1;
#X obj 530 571 line;
#X obj 606 502 random 1000;
#X obj 606 547 pack 0 1000;
#X obj 606 523 * -0.001;
#X obj 606 569 line;
#X obj 680 501 random 1000;
#X obj 680 546 pack 0 1000;
#X obj 680 522 * -0.001;
#X obj 680 568 line;
#X obj 756 499 random 1000;
#X obj 756 544 pack 0 1000;
#X obj 756 520 * -0.001;
#X obj 756 566 line;
#X obj -197 543 random 1000;
#X obj -197 588 pack 0 1000;
#X obj -197 476 bng 15 250 50 0 empty empty empty 17 7 0 10 -262144
-1 -1;
#X obj -197 610 line;
#X obj -121 541 random 1000;
#X obj -121 586 pack 0 1000;
#X obj -121 608 line;
#X obj -47 540 random 1000;
#X obj -47 585 pack 0 1000;
#X obj -47 607 line;
#X obj 29 538 random 1000;
#X obj 29 583 pack 0 1000;
#X obj 29 605 line;
#X obj -197 564 * 0.001;
#X obj -121 563 * 0.001;
#X obj -47 561 * 0.001;
#X obj 29 559 * 0.001;
#X obj 464 702 random 15;
#X obj 573 704 random 15;
#X obj -197 183 random 1000;
#X obj -197 228 pack 0 1000;
#X obj -197 149 bng 15 250 50 0 empty empty empty 17 7 0 10 -262144
-1 -1;
#X obj -197 250 line;
#X obj -121 181 random 1000;
#X obj -121 226 pack 0 1000;
#X obj -121 248 line;
#X obj -47 180 random 1000;
#X obj -47 225 pack 0 1000;
#X obj -47 247 line;
#X obj 29 199 pack 0 1000;
#X obj 29 221 line;
#X obj -197 204 * 0.001;
#X obj -121 203 * 0.001;
#X obj -47 201 * 0.001;
#X obj -197 271 - 0.1;
#X obj -121 269 - 0.1;
#X obj 29 178 random 3000;
#X obj -46 268 - 0.1;
#X obj 464 721 > 13;
#X obj 573 724 > 13;
#X connect 0 0 1 0;
#X connect 1 0 2 0;
#X connect 2 0 18 0;
#X connect 3 0 4 0;
#X connect 4 0 2 1;
#X connect 5 0 0 0;
#X connect 6 0 3 0;
#X connect 7 0 28 0;
#X connect 7 0 23 0;
#X connect 8 0 29 0;
#X connect 8 0 24 0;
#X connect 9 0 8 1;
#X connect 10 0 9 0;
#X connect 10 0 7 1;
#X connect 11 0 10 0;
#X connect 12 0 27 0;
#X connect 12 0 32 0;
#X connect 12 0 40 0;
#X connect 12 0 63 0;
#X connect 12 0 15 0;
#X connect 12 0 21 0;
#X connect 12 0 22 0;
#X connect 12 0 113 0;
#X connect 12 0 43 0;
#X connect 12 0 46 0;
#X connect 12 0 11 0;
#X connect 13 0 12 0;
#X connect 14 0 7 0;
#X connect 14 0 8 0;
#X connect 14 0 71 0;
#X connect 15 0 17 0;
#X connect 16 0 14 0;
#X connect 17 0 16 0;
#X connect 19 0 5 0;
#X connect 20 0 6 0;
#X connect 21 0 19 0;
#X connect 22 0 20 0;
#X connect 23 0 52 0;
#X connect 24 0 53 0;
#X connect 25 0 24 1;
#X connect 25 0 23 1;
#X connect 26 0 74 0;
#X connect 27 0 26 0;
#X connect 28 0 30 0;
#X connect 29 0 31 0;
#X connect 30 0 34 0;
#X connect 31 0 36 0;
#X connect 32 0 33 0;
#X connect 32 0 54 0;
#X connect 32 0 55 0;
#X connect 32 0 56 0;
#X connect 32 0 65 0;
#X connect 32 0 66 0;
#X connect 32 0 67 0;
#X connect 32 0 68 0;
#X connect 32 0 78 0;
#X connect 33 0 29 1;
#X connect 35 0 41 0;
#X connect 35 0 70 0;
#X connect 37 0 42 0;
#X connect 37 0 72 0;
#X connect 38 0 42 1;
#X connect 38 0 41 1;
#X connect 39 0 73 0;
#X connect 40 0 39 0;
#X connect 41 0 52 0;
#X connect 42 0 53 0;
#X connect 43 0 45 0;
#X connect 44 0 35 0;
#X connect 45 0 44 0;
#X connect 46 0 48 0;
#X connect 47 0 37 0;
#X connect 48 0 47 0;
#X connect 49 0 40 1;
#X connect 49 0 74 1;
#X connect 52 0 57 0;
#X connect 53 0 58 0;
#X connect 54 0 30 1;
#X connect 55 0 31 1;
#X connect 56 0 28 1;
#X connect 57 0 59 0;
#X connect 58 0 60 0;
#X connect 59 0 61 0;
#X connect 60 0 62 0;
#X connect 61 0 50 0;
#X connect 62 0 51 0;
#X connect 63 0 109 0;
#X connect 63 0 110 0;
#X connect 64 0 12 0;
#X connect 65 0 33 1;
#X connect 66 0 56 1;
#X connect 67 0 54 1;
#X connect 68 0 55 1;
#X connect 69 0 18 0;
#X connect 70 0 34 0;
#X connect 71 0 69 0;
#X connect 72 0 36 0;
#X connect 73 0 38 0;
#X connect 74 0 25 0;
#X connect 75 0 77 0;
#X connect 76 0 79 0;
#X connect 77 0 76 0;
#X connect 78 0 75 0;
#X connect 78 0 80 0;
#X connect 78 0 84 0;
#X connect 78 0 88 0;
#X connect 78 0 49 0;
#X connect 79 0 52 1;
#X connect 80 0 82 0;
#X connect 81 0 83 0;
#X connect 82 0 81 0;
#X connect 83 0 53 1;
#X connect 84 0 86 0;
#X connect 85 0 87 0;
#X connect 86 0 85 0;
#X connect 87 0 57 1;
#X connect 88 0 90 0;
#X connect 89 0 91 0;
#X connect 90 0 89 0;
#X connect 91 0 58 1;
#X connect 92 0 105 0;
#X connect 93 0 95 0;
#X connect 94 0 92 0;
#X connect 94 0 96 0;
#X connect 94 0 99 0;
#X connect 94 0 102 0;
#X connect 95 0 52 2;
#X connect 96 0 106 0;
#X connect 97 0 98 0;
#X connect 98 0 57 2;
#X connect 99 0 107 0;
#X connect 100 0 101 0;
#X connect 101 0 58 2;
#X connect 102 0 108 0;
#X connect 103 0 104 0;
#X connect 104 0 53 2;
#X connect 105 0 93 0;
#X connect 106 0 97 0;
#X connect 107 0 100 0;
#X connect 108 0 103 0;
#X connect 109 0 130 0;
#X connect 110 0 131 0;
#X connect 111 0 123 0;
#X connect 112 0 114 0;
#X connect 113 0 111 0;
#X connect 113 0 115 0;
#X connect 113 0 118 0;
#X connect 113 0 128 0;
#X connect 113 0 94 0;
#X connect 114 0 126 0;
#X connect 115 0 124 0;
#X connect 116 0 117 0;
#X connect 117 0 127 0;
#X connect 118 0 125 0;
#X connect 119 0 120 0;
#X connect 120 0 129 0;
#X connect 121 0 122 0;
#X connect 122 0 69 1;
#X connect 123 0 112 0;
#X connect 124 0 116 0;
#X connect 125 0 119 0;
#X connect 126 0 72 1;
#X connect 127 0 70 1;
#X connect 128 0 121 0;
#X connect 129 0 71 1;
#X connect 130 0 61 1;
#X connect 131 0 62 1;
