#N canvas 15 22 1163 833 10;
#X obj 255 199 clip~ -1e-05 1e-05;
#X obj 255 222 *~ 100000;
#X obj 255 246 *~;
#X obj 383 200 clip~ -1e-05 1e-05;
#X obj 383 223 *~ 100000;
#X obj 255 177 osc~;
#X obj 383 178 osc~;
#X obj 246 346 *~;
#X obj 303 346 *~;
#X obj 401 319 expr ($f1*-1)+1;
#X obj 401 298 * 0.01;
#X obj 401 277 random 100;
#X obj 401 258 bng 15 250 50 0 empty empty empty 17 7 0 10 -262144
-1 -1;
#X floatatom 409 346 5 0 0 0 - - -;
#X floatatom 445 346 5 0 0 0 - - -;
#X obj 383 118 bng 15 250 50 0 empty empty empty 17 7 0 10 -262144
-1 -1;
#X obj 255 117 bng 15 250 50 0 empty empty empty 17 7 0 10 -262144
-1 -1;
#X obj 343 71 bng 15 250 50 0 empty empty empty 17 7 0 10 -262144 -1
-1;
#X obj 341 1 loadbang;
#X obj 246 310 vd~ \$0-shawty 15;
#X obj 178 141 random 100;
#X obj 178 122 bng 15 250 50 0 empty empty empty 17 7 0 10 -262144
-1 -1;
#X obj 178 183 sig~;
#X obj 178 162 * 1;
#X obj 252 277 delwrite~ \$0-shawty 150;
#X obj 100 387 lop~ 500;
#X obj -22 138 bng 15 250 50 0 empty empty empty 17 7 0 10 -262144
-1 -1;
#X obj -22 157 random 1000;
#X obj -22 178 * 0.001;
#X obj -22 198 osc~;
#X obj -22 219 snapshot~;
#X obj -22 241 abs;
#X obj 58 138 bng 15 250 50 0 empty empty empty 17 7 0 10 -262144 -1
-1;
#X obj 58 157 random 1000;
#X obj 58 178 * 0.001;
#X obj 58 198 osc~;
#X obj 58 219 snapshot~;
#X obj 58 241 abs;
#X obj 255 157 * 0.001;
#X obj 383 158 * 0.001;
#X obj 255 136 random 1000;
#X obj 383 137 random 1000;
#X obj -22 261 *;
#X obj 100 365 *~ 0.1;
#X obj 132 215 bng 15 250 50 0 empty empty empty 17 7 0 10 -262144
-1 -1;
#X obj 132 275 osc~;
#X obj 132 296 snapshot~;
#X obj 132 318 abs;
#X obj 329 738 *~;
#X obj 429 742 *~;
#X obj 343 602 vline~;
#X obj 344 553 * 0.001;
#X obj 344 532 random 1000;
#X obj 344 577 pack;
#X obj 58 261 * 2500;
#X obj 213 401 lop~;
#X obj 512 560 lop~;
#X obj 213 427 hip~;
#X obj 512 586 hip~;
#X obj 504 349 bng 15 250 50 0 empty empty empty 17 7 0 10 -262144
-1 -1;
#X obj 133 343 - 0.001;
#X obj 132 234 random 10000;
#X obj 132 255 * 0.0001;
#X obj 498 367 random 5000;
#X obj 188 643 delwrite~ \$0-shiwty 150;
#X obj 187 663 vd~ \$0-shiwty 15;
#X obj 523 622 delwrite~ \$0-shewty 150;
#X obj 522 642 vd~ \$0-shewty 15;
#X obj 108 732 vline~;
#X obj 109 683 * 0.001;
#X obj 109 662 random 1000;
#X obj 109 707 pack;
#X obj 93 765 *~;
#X obj 522 667 *~;
#X obj 142 575 random 100;
#X obj 142 556 bng 15 250 50 0 empty empty empty 17 7 0 10 -262144
-1 -1;
#X obj 142 617 sig~;
#X obj 142 596 * 1;
#X obj 547 557 random 100;
#X obj 547 538 bng 15 250 50 0 empty empty empty 17 7 0 10 -262144
-1 -1;
#X obj 547 599 sig~;
#X obj 547 578 * 1;
#X obj 595 595 *~ 0.1;
#X obj 628 448 bng 15 250 50 0 empty empty empty 17 7 0 10 -262144
-1 -1;
#X obj 628 508 osc~;
#X obj 628 529 snapshot~;
#X obj 628 551 abs;
#X obj 628 467 random 10000;
#X obj 628 488 * 0.0001;
#X obj 189 619 *~ 0.1;
#X obj 221 469 bng 15 250 50 0 empty empty empty 17 7 0 10 -262144
-1 -1;
#X obj 221 529 osc~;
#X obj 221 550 snapshot~;
#X obj 221 572 abs;
#X obj 221 488 random 10000;
#X obj 221 509 * 0.0001;
#X obj 600 171 random 5000;
#X obj 601 787 outlet~;
#X obj 709 789 outlet~;
#X obj 317 765 clip~ -0.75 0.75;
#X obj 428 766 clip~ -0.75 0.75;
#X obj 628 573 - 0.01;
#X obj 222 597 - 0.01;
#X obj 515 407 random 1000;
#X obj 516 428 random 6000;
#X obj 505 385 random 8000;
#X obj 51 467 bng 15 250 50 0 empty empty empty 17 7 0 10 -262144 -1
-1;
#X obj 52 527 osc~;
#X obj 52 548 snapshot~;
#X obj 52 570 abs;
#X obj 52 486 random 10000;
#X obj 52 507 * 0.0001;
#X obj -27 469 bng 15 250 50 0 empty empty empty 17 7 0 10 -262144
-1 -1;
#X obj -27 529 osc~;
#X obj -27 550 snapshot~;
#X obj -27 572 abs;
#X obj -27 488 random 10000;
#X obj -27 509 * 0.0001;
#X obj -106 469 bng 15 250 50 0 empty empty empty 17 7 0 10 -262144
-1 -1;
#X obj -105 529 osc~;
#X obj -105 550 snapshot~;
#X obj -105 572 abs;
#X obj -105 488 random 10000;
#X obj -105 509 * 0.0001;
#X obj -184 471 bng 15 250 50 0 empty empty empty 17 7 0 10 -262144
-1 -1;
#X obj -184 531 osc~;
#X obj -184 552 snapshot~;
#X obj -203 74 bang~;
#X obj -184 574 abs;
#X obj -184 490 random 10000;
#X obj -184 511 * 0.0001;
#X obj -185 595 * -1;
#X obj -105 594 * -1;
#X obj 318 784 clip~ -0.75 0.75;
#X obj 429 785 clip~ -0.75 0.75;
#X obj -2 672 bng 15 250 50 0 empty empty empty 17 7 0 10 -262144 -1
-1;
#X obj -1 732 osc~;
#X obj -1 753 snapshot~;
#X obj -1 775 abs;
#X obj -1 691 random 10000;
#X obj -1 712 * 0.0001;
#X obj -80 674 bng 15 250 50 0 empty empty empty 17 7 0 10 -262144
-1 -1;
#X obj -80 734 osc~;
#X obj -80 755 snapshot~;
#X obj -80 777 abs;
#X obj -80 693 random 10000;
#X obj -80 714 * 0.0001;
#X obj -159 674 bng 15 250 50 0 empty empty empty 17 7 0 10 -262144
-1 -1;
#X obj -158 734 osc~;
#X obj -158 755 snapshot~;
#X obj -158 777 abs;
#X obj -158 693 random 10000;
#X obj -158 714 * 0.0001;
#X obj -237 676 bng 15 250 50 0 empty empty empty 17 7 0 10 -262144
-1 -1;
#X obj -237 736 osc~;
#X obj -237 757 snapshot~;
#X obj -237 779 abs;
#X obj -237 695 random 10000;
#X obj -237 716 * 0.0001;
#X obj -238 800 * -1;
#X obj -158 799 * -1;
#X obj 334 805 clip~ -0.75 0.75;
#X obj 445 806 clip~ -0.75 0.75;
#X obj 599 763 *~;
#X obj 708 765 *~;
#X obj 686 671 bng 15 250 50 0 empty empty empty 17 7 0 10 -262144
-1 -1;
#X obj 367 32 inlet;
#X obj 693 253 bng 15 250 50 0 empty empty empty 17 7 0 10 -262144
-1 -1;
#X obj 671 275 random 10000;
#X obj 681 285 random 10000;
#X obj 691 295 random 10000;
#X obj 701 305 random 10000;
#X obj 718 698 random 15;
#X obj 615 695 random 15;
#X obj 615 733 > 13;
#X obj 718 736 > 13;
#X connect 0 0 1 0;
#X connect 1 0 2 0;
#X connect 2 0 24 0;
#X connect 3 0 4 0;
#X connect 4 0 2 1;
#X connect 5 0 0 0;
#X connect 6 0 3 0;
#X connect 7 0 55 0;
#X connect 7 0 48 0;
#X connect 8 0 56 0;
#X connect 8 0 49 0;
#X connect 9 0 8 1;
#X connect 9 0 13 0;
#X connect 10 0 9 0;
#X connect 10 0 14 0;
#X connect 10 0 7 1;
#X connect 11 0 10 0;
#X connect 12 0 11 0;
#X connect 15 0 41 0;
#X connect 16 0 40 0;
#X connect 17 0 16 0;
#X connect 17 0 15 0;
#X connect 17 0 12 0;
#X connect 17 0 21 0;
#X connect 17 0 26 0;
#X connect 17 0 32 0;
#X connect 17 0 44 0;
#X connect 17 0 52 0;
#X connect 17 0 59 0;
#X connect 17 0 70 0;
#X connect 17 0 75 0;
#X connect 17 0 79 0;
#X connect 17 0 83 0;
#X connect 17 0 106 0;
#X connect 17 0 165 0;
#X connect 17 0 167 0;
#X connect 17 0 96 0;
#X connect 18 0 17 0;
#X connect 19 0 7 0;
#X connect 19 0 8 0;
#X connect 19 0 43 0;
#X connect 20 0 23 0;
#X connect 21 0 20 0;
#X connect 22 0 19 0;
#X connect 23 0 22 0;
#X connect 25 0 24 0;
#X connect 26 0 27 0;
#X connect 27 0 28 0;
#X connect 28 0 29 0;
#X connect 29 0 30 0;
#X connect 30 0 31 0;
#X connect 31 0 42 0;
#X connect 32 0 33 0;
#X connect 33 0 34 0;
#X connect 34 0 35 0;
#X connect 35 0 36 0;
#X connect 36 0 37 0;
#X connect 37 0 54 0;
#X connect 38 0 5 0;
#X connect 39 0 6 0;
#X connect 40 0 38 0;
#X connect 41 0 39 0;
#X connect 42 0 25 1;
#X connect 43 0 25 0;
#X connect 44 0 61 0;
#X connect 45 0 46 0;
#X connect 46 0 47 0;
#X connect 47 0 60 0;
#X connect 48 0 99 0;
#X connect 49 0 100 0;
#X connect 50 0 49 1;
#X connect 50 0 48 1;
#X connect 51 0 53 0;
#X connect 52 0 51 0;
#X connect 53 0 50 0;
#X connect 54 0 42 1;
#X connect 55 0 57 0;
#X connect 56 0 58 0;
#X connect 57 0 64 0;
#X connect 58 0 66 0;
#X connect 59 0 63 0;
#X connect 59 0 103 0;
#X connect 59 0 104 0;
#X connect 59 0 105 0;
#X connect 60 0 43 1;
#X connect 61 0 62 0;
#X connect 62 0 45 0;
#X connect 63 0 56 1;
#X connect 65 0 72 0;
#X connect 65 0 89 0;
#X connect 67 0 73 0;
#X connect 67 0 82 0;
#X connect 68 0 73 1;
#X connect 68 0 72 1;
#X connect 69 0 71 0;
#X connect 70 0 69 0;
#X connect 71 0 68 0;
#X connect 72 0 99 0;
#X connect 73 0 100 0;
#X connect 74 0 77 0;
#X connect 75 0 74 0;
#X connect 76 0 65 0;
#X connect 77 0 76 0;
#X connect 78 0 81 0;
#X connect 79 0 78 0;
#X connect 80 0 67 0;
#X connect 81 0 80 0;
#X connect 82 0 66 0;
#X connect 83 0 87 0;
#X connect 83 0 90 0;
#X connect 84 0 85 0;
#X connect 85 0 86 0;
#X connect 86 0 101 0;
#X connect 87 0 88 0;
#X connect 88 0 84 0;
#X connect 89 0 64 0;
#X connect 90 0 94 0;
#X connect 91 0 92 0;
#X connect 92 0 93 0;
#X connect 93 0 102 0;
#X connect 94 0 95 0;
#X connect 95 0 91 0;
#X connect 96 0 53 1;
#X connect 96 0 70 1;
#X connect 99 0 133 0;
#X connect 100 0 134 0;
#X connect 101 0 82 1;
#X connect 102 0 89 1;
#X connect 103 0 57 1;
#X connect 104 0 58 1;
#X connect 105 0 55 1;
#X connect 106 0 110 0;
#X connect 106 0 112 0;
#X connect 107 0 108 0;
#X connect 108 0 109 0;
#X connect 109 0 99 2;
#X connect 110 0 111 0;
#X connect 111 0 107 0;
#X connect 112 0 116 0;
#X connect 112 0 118 0;
#X connect 113 0 114 0;
#X connect 114 0 115 0;
#X connect 115 0 100 2;
#X connect 116 0 117 0;
#X connect 117 0 113 0;
#X connect 118 0 122 0;
#X connect 118 0 124 0;
#X connect 119 0 120 0;
#X connect 120 0 121 0;
#X connect 121 0 132 0;
#X connect 122 0 123 0;
#X connect 123 0 119 0;
#X connect 124 0 129 0;
#X connect 124 0 135 0;
#X connect 125 0 126 0;
#X connect 126 0 128 0;
#X connect 127 0 126 0;
#X connect 127 0 155 0;
#X connect 127 0 149 0;
#X connect 127 0 143 0;
#X connect 127 0 120 0;
#X connect 127 0 114 0;
#X connect 127 0 108 0;
#X connect 127 0 137 0;
#X connect 127 0 92 0;
#X connect 127 0 85 0;
#X connect 127 0 30 0;
#X connect 127 0 36 0;
#X connect 127 0 46 0;
#X connect 128 0 131 0;
#X connect 129 0 130 0;
#X connect 130 0 125 0;
#X connect 131 0 99 1;
#X connect 132 0 100 1;
#X connect 133 0 161 0;
#X connect 134 0 162 0;
#X connect 135 0 139 0;
#X connect 135 0 141 0;
#X connect 136 0 137 0;
#X connect 137 0 138 0;
#X connect 138 0 133 2;
#X connect 139 0 140 0;
#X connect 140 0 136 0;
#X connect 141 0 145 0;
#X connect 141 0 147 0;
#X connect 142 0 143 0;
#X connect 143 0 144 0;
#X connect 144 0 134 2;
#X connect 145 0 146 0;
#X connect 146 0 142 0;
#X connect 147 0 151 0;
#X connect 147 0 153 0;
#X connect 148 0 149 0;
#X connect 149 0 150 0;
#X connect 150 0 160 0;
#X connect 151 0 152 0;
#X connect 152 0 148 0;
#X connect 153 0 157 0;
#X connect 154 0 155 0;
#X connect 155 0 156 0;
#X connect 156 0 159 0;
#X connect 157 0 158 0;
#X connect 158 0 154 0;
#X connect 159 0 133 1;
#X connect 160 0 134 1;
#X connect 161 0 163 0;
#X connect 162 0 164 0;
#X connect 163 0 97 0;
#X connect 164 0 98 0;
#X connect 165 0 172 0;
#X connect 165 0 173 0;
#X connect 166 0 17 0;
#X connect 167 0 168 0;
#X connect 167 0 169 0;
#X connect 167 0 170 0;
#X connect 167 0 171 0;
#X connect 168 0 63 1;
#X connect 169 0 105 1;
#X connect 170 0 103 1;
#X connect 171 0 104 1;
#X connect 172 0 175 0;
#X connect 173 0 174 0;
#X connect 174 0 163 1;
#X connect 175 0 164 1;
