#N canvas -1574 48 1364 921 10;
#N canvas 0 72 1437 722 ghostofmozart 0;
#X obj 204 481 cos~;
#X obj 107 486 cos~;
#X obj 107 455 phasor~ 1200;
#X obj 203 454 phasor~ 800;
#X obj 177 769 *~;
#X obj 178 796 *~ 0.1;
#X obj 194 686 *~;
#X obj 195 663 ead~ 1 7000;
#X obj 140 704 cos~;
#X obj 140 683 +~;
#X obj 157 661 sig~;
#X obj 195 642 sel 0;
#X obj 195 619 mod 4;
#X obj 268 613 r \$0-period;
#X obj 267 634 * 16;
#X obj 194 599 r \$0-envtime;
#X obj 141 529 +~;
#X obj 140 730 hip~ 50;
#X obj 351 613 *~;
#X obj 367 589 sig~;
#X obj 399 631 *~;
#X obj 400 608 ead~ 1 7000;
#X obj 400 587 sel 0;
#X obj 472 558 r \$0-period;
#X obj 399 526 r \$0-envtime;
#X obj 472 579 * 8;
#X obj 382 655 *~;
#X obj 382 681 hip~ 500;
#X obj 399 568 mod 2;
#X obj 399 547 + 2;
#X obj 144 177 unpack f f f f f f f f f f f;
#N canvas 0 22 797 266 param 0;
#X obj 114 149 f 0;
#X obj 143 148 + 1;
#X obj 114 128 metro 200;
#X obj 132 50 s \$0-period;
#X obj 114 195 /;
#X obj 114 222 s \$0-modtime;
#X obj 21 195 s \$0-envtime;
#X obj 472 152 s \$0-note;
#X obj 420 70 mod 8;
#X obj 420 93 sel 0 1 2 3 4 5 6 7;
#X obj 420 48 r \$0-modtime;
#X obj 520 124 f;
#X obj 472 123 f;
#X obj 421 123 f;
#X obj 397 9 inlet note1;
#X obj 487 9 inlet note2;
#X obj 572 9 inlet note3;
#X obj 172 8 inlet period;
#X obj 276 9 inlet barlength;
#X obj 73 8 inlet start;
#X obj 114 73 loadbang;
#X msg 114 94 1;
#X floatatom 192 192 5 0 0 0 - - -;
#X connect 0 0 1 0;
#X connect 0 0 4 0;
#X connect 0 0 6 0;
#X connect 0 0 22 0;
#X connect 1 0 0 1;
#X connect 2 0 0 0;
#X connect 4 0 5 0;
#X connect 8 0 9 0;
#X connect 9 0 13 0;
#X connect 9 3 12 0;
#X connect 9 6 11 0;
#X connect 10 0 8 0;
#X connect 11 0 7 0;
#X connect 12 0 7 0;
#X connect 13 0 7 0;
#X connect 14 0 13 1;
#X connect 15 0 12 1;
#X connect 16 0 11 1;
#X connect 17 0 2 1;
#X connect 17 0 3 0;
#X connect 18 0 4 1;
#X connect 19 0 2 0;
#X connect 20 0 21 0;
#X connect 21 0 2 0;
#X restore 482 396 pd param sequencer;
#N canvas 445 215 579 553 freq 0;
#X obj 145 337 /;
#X obj 145 314 t b f;
#X obj 145 291 /;
#X obj 135 179 mod 2;
#X obj 177 179 mod 2;
#X obj 161 250 +;
#X obj 162 224 random 1;
#X obj 102 88 r \$0-modtime;
#X obj 49 294 mtof;
#X obj 49 273 r \$0-note;
#X obj 177 155 +;
#X obj 135 202 + 1;
#X text 50 151 early evaluation;
#X obj 161 270 + 1;
#X obj 102 111 t b f f;
#X obj 162 202 t b;
#X obj 80 19 inlet pos;
#X obj 152 19 inlet num;
#X obj 223 19 inlet den;
#X obj 294 19 inlet rand;
#X obj 49 362 outlet f1;
#X obj 145 363 outlet f2;
#X text 221 154 <- sequence 2 offset;
#X text 238 180 <- two modulo counters;
#X text 228 225 <- add a random int to divisor;
#X text 50 134 kludge: deliberate;
#X text 182 294 <- ratio to divide first harmonic by;
#X connect 0 0 21 0;
#X connect 1 0 0 0;
#X connect 1 1 0 1;
#X connect 2 0 1 0;
#X connect 3 0 11 0;
#X connect 4 0 5 1;
#X connect 5 0 13 0;
#X connect 6 0 5 0;
#X connect 7 0 14 0;
#X connect 8 0 0 0;
#X connect 8 0 20 0;
#X connect 9 0 8 0;
#X connect 10 0 4 0;
#X connect 11 0 2 0;
#X connect 13 0 2 1;
#X connect 14 1 10 0;
#X connect 14 2 3 0;
#X connect 14 2 15 0;
#X connect 15 0 6 0;
#X connect 16 0 10 1;
#X connect 17 0 3 1;
#X connect 18 0 4 1;
#X connect 19 0 6 1;
#X restore -10 410 pd freq seq;
#X obj 69 31 list split 1;
#X symbolatom 106 119 25 0 0 0 - - -;
#X text 229 839 ajf;
#X text 330 165 pos \, num \, den \, rand \, sig1 \, sig2 \, period
\, bar length \, note1 \, note2 \, note3;
#X obj 207 884 outlet~;
#X obj 277 -44 inlet;
#X obj -172 287 pack f f;
#X obj -172 310 line;
#X obj -172 248 t f b;
#X obj -82 291 pack f f;
#X obj -82 314 line;
#X obj -82 252 t f b;
#X obj 1 291 pack f f;
#X obj 1 314 line;
#X obj 1 252 t f b;
#X obj 84 290 pack f f;
#X obj 84 313 line;
#X obj 84 251 t f b;
#X obj 158 359 pack f f;
#X obj 158 382 line;
#X obj 158 320 t f b;
#X obj 240 359 pack f f;
#X obj 240 382 line;
#X obj 240 320 t f b;
#X obj 338 303 pack f f;
#X obj 338 326 line;
#X obj 338 264 t f b;
#X obj 423 308 pack f f;
#X obj 423 331 line;
#X obj 423 269 t f b;
#X obj 507 307 pack f f;
#X obj 507 330 line;
#X obj 507 268 t f b;
#X obj 586 304 pack f f;
#X obj 586 327 line;
#X obj 586 265 t f b;
#X obj 671 303 pack f f;
#X obj 671 326 line;
#X obj 671 264 t f b;
#X obj -66 272 random 5000;
#X obj 17 272 random 5000;
#X obj 100 271 random 5000;
#X obj 354 284 random 5000;
#X obj 439 289 random 5000;
#X obj 523 288 random 5000;
#X obj 602 285 random 5000;
#X obj 687 284 random 5000;
#X obj 878 268 r \$0-envtime;
#X obj 883 542 mod 8;
#X obj 883 569 sel 1 3 5 7;
#X obj 1019 538 sel 8 14 22 30;
#X obj 894 388 mod 32;
#X obj 599 593 random 100;
#X obj 669 594 random 100;
#X obj 600 635 b;
#X obj 669 636 b;
#X obj 599 614 moses 95;
#X obj 669 615 moses 65;
#X obj 876 312 b;
#X obj 598 541 sel 0 2 4 9 18 20 24;
#X obj 738 596 random 100;
#X obj 808 597 random 100;
#X obj 739 638 b;
#X obj 808 639 b;
#X obj 738 617 moses 95;
#X obj 808 618 moses 65;
#X obj 732 540 sel 6 16 22 30;
#X obj 885 621 random 100;
#X obj 955 622 random 100;
#X obj 886 663 b;
#X obj 955 664 b;
#X obj 885 642 moses 95;
#X obj 955 643 moses 65;
#X obj 1042 599 random 100;
#X obj 1112 600 random 100;
#X obj 1043 641 b;
#X obj 1112 642 b;
#X obj 1042 620 moses 95;
#X obj 1112 621 moses 65;
#X obj 971 806 +~ 900;
#X obj 972 784 *~ 100;
#X obj 972 852 *~;
#X obj 985 738 vline~;
#X obj 1077 800 +~ 900;
#X obj 1078 846 *~;
#X obj 1091 732 vline~;
#X obj 1078 778 *~ 200;
#X obj 761 836 *~;
#X obj 774 722 vline~;
#X obj 867 830 *~;
#X obj 880 716 vline~;
#X obj 761 768 *~ 400;
#X obj 866 784 +~ 400;
#X obj 760 790 +~ 400;
#X obj 760 816 phasor~;
#X obj 866 810 phasor~;
#X msg 880 694 1 10 \, 0 10 10;
#X msg 774 700 1 10 \, 0 20 10;
#X msg 985 716 1 10 \, 0 50 10;
#X obj 867 762 *~ 800;
#X obj 480 798 osc~;
#X obj 481 818 *~;
#X obj 494 704 vline~;
#X obj 586 792 osc~;
#X obj 587 812 *~;
#X obj 600 698 vline~;
#X obj 481 750 *~ 50;
#X obj 587 744 *~ 50;
#X msg 494 682 1 10 \, 0 10 10;
#X msg 600 676 1 5 \, 0 20 10;
#X obj 480 772 +~ 100;
#X obj 586 766 +~ 100;
#X msg 1091 710 1 5 \, 0 50 5;
#X obj 1077 826 phasor~;
#X obj 971 832 phasor~;
#X obj 889 348 f 0;
#X obj 915 348 + 1;
#X obj 174 340 random 5000;
#X obj 256 340 random 5000;
#X obj 274 120 nbx 12 14 -1e+037 1e+037 0 0 empty empty empty 0 -8
0 10 -262144 -1 -1 1000 256;
#X obj 395 -7 inlet;
#X obj -90 3 loadbang;
#X msg -90 32 1000;
#X obj 700 892 outlet~;
#X obj 1018 845 *~ 4;
#X obj 1021 875 clip~ -0.5 0.5;
#X obj 411 17 inlet;
#X obj 443 40 inlet;
#X obj 459 64 inlet;
#X obj 507 -11 inlet;
#X obj 523 13 inlet;
#X obj 595 -6 inlet;
#X obj 611 18 inlet;
#X obj 643 41 inlet;
#X obj 659 65 inlet;
#X obj 707 -10 inlet;
#X obj -156 268 random 2000;
#X obj 521 841 *~ 0.4;
#X obj 970 895 *~ 0.2;
#X obj 804 854 *~ 0.2;
#X obj 178 823 *~ 0.02;
#X connect 0 0 16 1;
#X connect 1 0 16 0;
#X connect 2 0 1 0;
#X connect 3 0 0 0;
#X connect 3 0 18 0;
#X connect 4 0 5 0;
#X connect 5 0 173 0;
#X connect 6 0 4 1;
#X connect 7 0 6 0;
#X connect 7 0 6 1;
#X connect 8 0 17 0;
#X connect 9 0 8 0;
#X connect 10 0 9 1;
#X connect 11 0 7 0;
#X connect 12 0 11 0;
#X connect 13 0 14 0;
#X connect 14 0 7 2;
#X connect 15 0 12 0;
#X connect 16 0 9 0;
#X connect 17 0 4 0;
#X connect 18 0 26 0;
#X connect 19 0 18 1;
#X connect 20 0 26 1;
#X connect 21 0 20 0;
#X connect 21 0 20 1;
#X connect 22 0 21 0;
#X connect 23 0 25 0;
#X connect 24 0 29 0;
#X connect 25 0 21 2;
#X connect 26 0 27 0;
#X connect 27 0 173 0;
#X connect 28 0 22 0;
#X connect 29 0 28 0;
#X connect 30 0 41 0;
#X connect 30 1 44 0;
#X connect 30 2 47 0;
#X connect 30 3 50 0;
#X connect 30 4 53 0;
#X connect 30 5 56 0;
#X connect 30 6 59 0;
#X connect 30 7 62 0;
#X connect 30 8 65 0;
#X connect 30 9 68 0;
#X connect 30 10 71 0;
#X connect 32 0 2 0;
#X connect 32 1 3 0;
#X connect 33 0 34 0;
#X connect 33 1 30 0;
#X connect 38 0 33 0;
#X connect 39 0 40 0;
#X connect 40 0 32 0;
#X connect 41 0 39 0;
#X connect 41 1 169 0;
#X connect 42 0 43 0;
#X connect 43 0 32 1;
#X connect 44 0 42 0;
#X connect 44 1 72 0;
#X connect 45 0 46 0;
#X connect 46 0 32 2;
#X connect 47 0 45 0;
#X connect 47 1 73 0;
#X connect 48 0 49 0;
#X connect 49 0 32 3;
#X connect 50 0 48 0;
#X connect 50 1 74 0;
#X connect 51 0 52 0;
#X connect 52 0 10 0;
#X connect 53 0 51 0;
#X connect 53 1 150 0;
#X connect 54 0 55 0;
#X connect 55 0 19 0;
#X connect 56 0 54 0;
#X connect 56 1 151 0;
#X connect 57 0 58 0;
#X connect 58 0 31 1;
#X connect 59 0 57 0;
#X connect 59 1 75 0;
#X connect 60 0 61 0;
#X connect 61 0 31 2;
#X connect 62 0 60 0;
#X connect 62 1 76 0;
#X connect 63 0 64 0;
#X connect 64 0 31 3;
#X connect 65 0 63 0;
#X connect 65 1 77 0;
#X connect 66 0 67 0;
#X connect 67 0 31 4;
#X connect 68 0 66 0;
#X connect 68 1 78 0;
#X connect 69 0 70 0;
#X connect 70 0 31 5;
#X connect 71 0 69 0;
#X connect 71 1 79 0;
#X connect 72 0 42 1;
#X connect 73 0 45 1;
#X connect 74 0 48 1;
#X connect 75 0 57 1;
#X connect 76 0 60 1;
#X connect 77 0 63 1;
#X connect 78 0 66 1;
#X connect 79 0 69 1;
#X connect 80 0 91 0;
#X connect 81 0 82 0;
#X connect 82 0 100 0;
#X connect 82 1 100 0;
#X connect 82 2 101 0;
#X connect 82 3 101 0;
#X connect 83 0 106 0;
#X connect 83 1 107 0;
#X connect 83 2 106 0;
#X connect 83 3 107 0;
#X connect 84 0 81 0;
#X connect 84 0 83 0;
#X connect 84 0 92 0;
#X connect 84 0 99 0;
#X connect 85 0 89 0;
#X connect 86 0 90 0;
#X connect 87 0 141 0;
#X connect 88 0 142 0;
#X connect 89 0 87 0;
#X connect 90 0 88 0;
#X connect 91 0 148 0;
#X connect 92 0 85 0;
#X connect 92 1 85 0;
#X connect 92 2 85 0;
#X connect 92 3 86 0;
#X connect 92 4 86 0;
#X connect 92 5 86 0;
#X connect 92 6 86 0;
#X connect 93 0 97 0;
#X connect 94 0 98 0;
#X connect 97 0 95 0;
#X connect 98 0 96 0;
#X connect 99 0 93 0;
#X connect 99 1 93 0;
#X connect 99 2 94 0;
#X connect 99 3 93 0;
#X connect 100 0 104 0;
#X connect 101 0 105 0;
#X connect 102 0 130 0;
#X connect 103 0 129 0;
#X connect 104 0 102 0;
#X connect 105 0 103 0;
#X connect 106 0 110 0;
#X connect 107 0 111 0;
#X connect 108 0 131 0;
#X connect 109 0 145 0;
#X connect 110 0 108 0;
#X connect 111 0 109 0;
#X connect 112 0 147 0;
#X connect 113 0 112 0;
#X connect 114 0 157 0;
#X connect 115 0 113 0;
#X connect 115 0 114 1;
#X connect 116 0 146 0;
#X connect 117 0 157 0;
#X connect 118 0 117 1;
#X connect 118 0 119 0;
#X connect 119 0 116 0;
#X connect 120 0 172 0;
#X connect 121 0 120 1;
#X connect 121 0 124 0;
#X connect 122 0 172 0;
#X connect 123 0 122 1;
#X connect 123 0 132 0;
#X connect 124 0 126 0;
#X connect 125 0 128 0;
#X connect 126 0 127 0;
#X connect 127 0 120 0;
#X connect 128 0 122 0;
#X connect 129 0 123 0;
#X connect 130 0 121 0;
#X connect 131 0 115 0;
#X connect 132 0 125 0;
#X connect 133 0 134 0;
#X connect 134 0 170 0;
#X connect 135 0 134 1;
#X connect 135 0 139 0;
#X connect 136 0 137 0;
#X connect 137 0 170 0;
#X connect 138 0 137 1;
#X connect 138 0 140 0;
#X connect 139 0 143 0;
#X connect 140 0 144 0;
#X connect 141 0 135 0;
#X connect 142 0 138 0;
#X connect 143 0 133 0;
#X connect 144 0 136 0;
#X connect 145 0 118 0;
#X connect 146 0 117 0;
#X connect 147 0 114 0;
#X connect 148 0 149 0;
#X connect 148 0 84 0;
#X connect 149 0 148 1;
#X connect 150 0 51 1;
#X connect 151 0 54 1;
#X connect 152 0 72 1;
#X connect 152 0 73 1;
#X connect 152 0 74 1;
#X connect 152 0 150 1;
#X connect 152 0 151 1;
#X connect 152 0 75 1;
#X connect 152 0 76 1;
#X connect 152 0 77 1;
#X connect 152 0 78 1;
#X connect 152 0 79 1;
#X connect 153 0 41 0;
#X connect 154 0 155 0;
#X connect 155 0 152 0;
#X connect 157 0 158 0;
#X connect 158 0 171 0;
#X connect 159 0 44 0;
#X connect 160 0 47 0;
#X connect 161 0 50 0;
#X connect 162 0 53 0;
#X connect 163 0 56 0;
#X connect 164 0 59 0;
#X connect 165 0 62 0;
#X connect 166 0 65 0;
#X connect 167 0 68 0;
#X connect 168 0 71 0;
#X connect 169 0 39 1;
#X connect 170 0 156 0;
#X connect 171 0 156 0;
#X connect 172 0 156 0;
#X connect 173 0 37 0;
#X coords 0 -1 1 1 600 40 1 100 100;
#X restore 242 442 pd ghostofmozart;
#X msg -77 231 test 8 4 2 13 1.48 0.12 90 9 36 41 40;
#X msg -55 252 slow-shift 16 4 2 0 0.48 0 80 1 33 55 61;
#X msg -30 274 meltdown 3 2 4 2 0.48 0 120 1 36 36 37;
#X msg -7 296 move-out 2 1 2 1 0.48 0 60 4 40 42 42;
#X msg 14 317 The-ghost-of-Mozart 16 5 9 3 0.48 0.29 153 3 56 57 61
;
#X obj 263 236 + 2;
#X floatatom 290 178 5 0 0 0 - - -;
#X floatatom 290 196 5 0 0 0 - - -;
#X floatatom 357 177 5 0 0 0 - - -;
#X floatatom 357 195 5 0 0 0 - - -;
#X obj 330 235 + 1;
#X floatatom 424 177 5 0 0 0 - - -;
#X floatatom 424 195 5 0 0 0 - - -;
#X obj 398 239 + 1;
#X text 292 158 POS;
#X text 359 159 NUM;
#X text 425 158 DEN;
#X floatatom 490 176 5 0 0 0 - - -;
#X floatatom 490 194 5 0 0 0 - - -;
#X text 489 159 RAND;
#X obj 463 234 + 0;
#X floatatom 557 176 5 0 0 0 - - -;
#X floatatom 557 194 5 0 0 0 - - -;
#X text 556 159 SIG1;
#X obj 530 234 / 100;
#X obj 530 214 random 200;
#X floatatom 625 176 5 0 0 0 - - -;
#X floatatom 625 194 5 0 0 0 - - -;
#X obj 598 234 / 100;
#X text 624 159 SIG2;
#X floatatom 692 176 5 0 0 0 - - -;
#X floatatom 692 194 5 0 0 0 - - -;
#X obj 665 214 random 200;
#X text 684 159 PERIOD;
#X floatatom 760 176 5 0 0 0 - - -;
#X floatatom 760 194 5 0 0 0 - - -;
#X obj 733 234 + 1;
#X floatatom 831 176 5 0 0 0 - - -;
#X floatatom 831 194 5 0 0 0 - - -;
#X text 737 160 BAR LENGTH;
#X text 830 159 NOTE1;
#X obj 804 214 random 12;
#X floatatom 903 176 5 0 0 0 - - -;
#X floatatom 903 194 5 0 0 0 - - -;
#X obj 876 214 random 12;
#X text 902 159 NOTE2;
#X obj 876 234 + 48;
#X floatatom 972 176 5 0 0 0 - - -;
#X floatatom 972 194 5 0 0 0 - - -;
#X obj 945 214 random 12;
#X text 971 159 NOTE3;
#X obj 945 234 + 60;
#X obj 263 199 bng 15 250 50 0 empty empty empty 17 7 0 10 -262144
-1 -1;
#X obj 330 197 bng 15 250 50 0 empty empty empty 17 7 0 10 -262144
-1 -1;
#X obj 397 195 bng 15 250 50 0 empty empty empty 17 7 0 10 -262144
-1 -1;
#X obj 463 196 bng 15 250 50 0 empty empty empty 17 7 0 10 -262144
-1 -1;
#X obj 530 196 bng 15 250 50 0 empty empty empty 17 7 0 10 -262144
-1 -1;
#X obj 598 196 bng 15 250 50 0 empty empty empty 17 7 0 10 -262144
-1 -1;
#X obj 665 196 bng 15 250 50 0 empty empty empty 17 7 0 10 -262144
-1 -1;
#X obj 733 196 bng 15 250 50 0 empty empty empty 17 7 0 10 -262144
-1 -1;
#X obj 804 196 bng 15 250 50 0 empty empty empty 17 7 0 10 -262144
-1 -1;
#X obj 876 196 bng 15 250 50 0 empty empty empty 17 7 0 10 -262144
-1 -1;
#X obj 945 197 bng 15 250 50 0 empty empty empty 17 7 0 10 -262144
-1 -1;
#X obj 370 -173 tgl 15 0 empty empty empty 17 7 0 10 -262144 -1 -1
1 1;
#X floatatom 427 -175 5 0 0 0 - - -;
#X obj 370 -125 f 0;
#X obj 396 -125 + 1;
#X floatatom 428 -110 5 0 0 0 - - -;
#X obj 370 -73 sel 0;
#X obj 370 -52 f 0;
#X obj 396 -52 + 1;
#X obj 370 -31 mod 11;
#X floatatom 226 27 5 0 0 0 - - -;
#X obj 370 9 sel 0 1 2 3 4 5 6 7 8 9 10;
#X obj 382 526 random 100;
#X floatatom 409 507 5 0 0 0 - - -;
#X obj 330 107 random 100;
#X floatatom 357 88 5 0 0 0 - - -;
#X obj 397 107 random 100;
#X floatatom 424 88 5 0 0 0 - - -;
#X obj 463 107 random 100;
#X floatatom 490 88 5 0 0 0 - - -;
#X obj 530 107 random 100;
#X floatatom 557 88 5 0 0 0 - - -;
#X obj 598 107 random 100;
#X floatatom 625 88 5 0 0 0 - - -;
#X obj 665 107 random 100;
#X floatatom 692 88 5 0 0 0 - - -;
#X obj 733 106 random 100;
#X floatatom 760 87 5 0 0 0 - - -;
#X obj 804 105 random 100;
#X floatatom 831 86 5 0 0 0 - - -;
#X obj 876 104 random 100;
#X floatatom 903 85 5 0 0 0 - - -;
#X obj 945 103 random 100;
#X floatatom 972 84 5 0 0 0 - - -;
#X floatatom 263 261 5 0 0 0 - - -;
#X floatatom 330 262 5 0 0 0 - - -;
#X floatatom 398 267 5 0 0 0 - - -;
#X floatatom 463 263 5 0 0 0 - - -;
#X floatatom 530 261 5 0 0 0 - - -;
#X floatatom 598 262 5 0 0 0 - - -;
#X floatatom 665 263 5 0 0 0 - - -;
#X floatatom 733 263 5 0 0 0 - - -;
#X floatatom 804 263 5 0 0 0 - - -;
#X floatatom 876 261 5 0 0 0 - - -;
#X floatatom 945 258 5 0 0 0 - - -;
#X obj 804 125 moses 95;
#X obj 876 124 moses 95;
#X obj 945 123 moses 95;
#X obj 804 234 + 36;
#X obj 263 216 random 14;
#X obj 598 214 random 300;
#X obj 733 214 random 7;
#X obj 463 214 random 7;
#X obj 330 215 random 19;
#X obj 397 215 random 19;
#X obj 370 -148 metro 100;
#X obj 382 546 moses 100;
#N canvas 237 55 667 704 workings-bitcrushing 0;
#X obj 130 590 outlet~;
#X obj 73 187 inlet~;
#X obj 106 274 wrap~;
#X obj 75 317 -~;
#X obj 77 236 *~ 65536;
#X obj 75 339 /~ 65536;
#N canvas 0 22 466 316 rh_scalelog 0;
#X obj 20 155 exp;
#X obj 20 107 *;
#X obj 20 130 +;
#X obj 98 87 log;
#X obj 194 84 log;
#X obj 123 123 t b f;
#X obj 123 145 -;
#X obj 20 183 outlet;
#X obj 20 19 inlet;
#X obj 98 23 inlet;
#X obj 194 24 inlet;
#X connect 0 0 7 0;
#X connect 1 0 2 0;
#X connect 2 0 0 0;
#X connect 3 0 2 1;
#X connect 3 0 5 0;
#X connect 4 0 6 0;
#X connect 5 0 6 0;
#X connect 5 1 6 1;
#X connect 6 0 1 1;
#X connect 8 0 1 0;
#X connect 9 0 3 0;
#X connect 10 0 4 0;
#X restore 166 260 pd rh_scalelog;
#X msg 284 227 65536;
#X msg 238 227 1;
#X obj 137 371 samphold~;
#X obj 323 285 phasor~ 4400;
#N canvas 0 22 466 316 rh_scalelog 0;
#X obj 20 155 exp;
#X obj 20 107 *;
#X obj 20 130 +;
#X obj 98 87 log;
#X obj 194 84 log;
#X obj 123 123 t b f;
#X obj 123 145 -;
#X obj 20 183 outlet;
#X obj 20 19 inlet;
#X obj 98 23 inlet;
#X obj 194 24 inlet;
#X connect 0 0 7 0;
#X connect 1 0 2 0;
#X connect 2 0 0 0;
#X connect 3 0 2 1;
#X connect 3 0 5 0;
#X connect 4 0 6 0;
#X connect 5 0 6 0;
#X connect 5 1 6 1;
#X connect 6 0 1 1;
#X connect 8 0 1 0;
#X connect 9 0 3 0;
#X connect 10 0 4 0;
#X restore 321 259 pd rh_scalelog;
#X msg 439 226 44009;
#X msg 391 225 512;
#X obj 135 563 *~;
#X obj 167 173 expr pow($f1 \, 4);
#X obj 202 104 nbx 5 14 0 1 0 0 empty empty empty 0 -8 0 10 -262144
-1 -1 0.135779 256;
#X obj 361 122 nbx 5 14 0 1 0 0 empty empty empty 0 -8 0 10 -262144
-1 -1 0.69782 256;
#X obj 263 474 nbx 5 14 0 1 0 0 empty empty empty 0 -8 0 10 -262144
-1 -1 0.02 256;
#X obj 232 -2 unsig~ 20;
#X obj 232 -23 osc~ 0.11;
#X obj 418 25 unsig~ 20;
#X obj 392 380 loadbang;
#X obj 230 -81 random 1000;
#X obj 399 -91 random 1000;
#X obj 326 -108 bng 15 250 50 0 empty empty empty 17 7 0 10 -262144
-1 -1;
#X obj 143 -84 inlet;
#X obj 233 23 + 1;
#X obj 417 -26 osc~ 0.11;
#X obj 418 -6 *~;
#X obj 393 198 loadbang;
#X obj 238 199 loadbang;
#X obj 237 -48 / 3000;
#X obj 406 -58 / 3000;
#X obj 417 48 / 3;
#X obj 415 78 + 0.6;
#X obj 232 47 / 6;
#X obj 229 70 + 0.05;
#X msg 392 404 0.02;
#X connect 1 0 4 0;
#X connect 2 0 3 1;
#X connect 3 0 5 0;
#X connect 4 0 2 0;
#X connect 4 0 3 0;
#X connect 5 0 9 0;
#X connect 6 0 4 1;
#X connect 6 0 5 1;
#X connect 7 0 6 2;
#X connect 8 0 6 1;
#X connect 9 0 14 0;
#X connect 10 0 9 1;
#X connect 11 0 10 0;
#X connect 12 0 11 2;
#X connect 13 0 11 1;
#X connect 14 0 0 0;
#X connect 15 0 6 0;
#X connect 16 0 15 0;
#X connect 17 0 11 0;
#X connect 18 0 14 1;
#X connect 19 0 27 0;
#X connect 20 0 19 0;
#X connect 21 0 34 0;
#X connect 22 0 38 0;
#X connect 23 0 32 0;
#X connect 24 0 33 0;
#X connect 25 0 23 0;
#X connect 25 0 24 0;
#X connect 26 0 25 0;
#X connect 27 0 36 0;
#X connect 28 0 29 0;
#X connect 28 0 29 1;
#X connect 29 0 21 0;
#X connect 30 0 13 0;
#X connect 30 0 12 0;
#X connect 31 0 8 0;
#X connect 31 0 7 0;
#X connect 32 0 20 0;
#X connect 33 0 28 0;
#X connect 34 0 35 0;
#X connect 35 0 17 0;
#X connect 36 0 37 0;
#X connect 37 0 16 0;
#X connect 38 0 18 0;
#X restore 286 583 pd workings-bitcrushing;
#N canvas 237 55 667 704 workings-bitcrushing 0;
#X obj 130 590 outlet~;
#X obj 73 187 inlet~;
#X obj 106 274 wrap~;
#X obj 75 317 -~;
#X obj 77 236 *~ 65536;
#X obj 75 339 /~ 65536;
#N canvas 0 22 466 316 rh_scalelog 0;
#X obj 20 155 exp;
#X obj 20 107 *;
#X obj 20 130 +;
#X obj 98 87 log;
#X obj 194 84 log;
#X obj 123 123 t b f;
#X obj 123 145 -;
#X obj 20 183 outlet;
#X obj 20 19 inlet;
#X obj 98 23 inlet;
#X obj 194 24 inlet;
#X connect 0 0 7 0;
#X connect 1 0 2 0;
#X connect 2 0 0 0;
#X connect 3 0 2 1;
#X connect 3 0 5 0;
#X connect 4 0 6 0;
#X connect 5 0 6 0;
#X connect 5 1 6 1;
#X connect 6 0 1 1;
#X connect 8 0 1 0;
#X connect 9 0 3 0;
#X connect 10 0 4 0;
#X restore 166 260 pd rh_scalelog;
#X msg 284 227 65536;
#X msg 238 227 1;
#X obj 137 371 samphold~;
#X obj 323 285 phasor~ 4400;
#N canvas 0 22 466 316 rh_scalelog 0;
#X obj 20 155 exp;
#X obj 20 107 *;
#X obj 20 130 +;
#X obj 98 87 log;
#X obj 194 84 log;
#X obj 123 123 t b f;
#X obj 123 145 -;
#X obj 20 183 outlet;
#X obj 20 19 inlet;
#X obj 98 23 inlet;
#X obj 194 24 inlet;
#X connect 0 0 7 0;
#X connect 1 0 2 0;
#X connect 2 0 0 0;
#X connect 3 0 2 1;
#X connect 3 0 5 0;
#X connect 4 0 6 0;
#X connect 5 0 6 0;
#X connect 5 1 6 1;
#X connect 6 0 1 1;
#X connect 8 0 1 0;
#X connect 9 0 3 0;
#X connect 10 0 4 0;
#X restore 321 259 pd rh_scalelog;
#X msg 439 226 44009;
#X msg 391 225 512;
#X obj 135 563 *~;
#X obj 167 173 expr pow($f1 \, 4);
#X obj 202 104 nbx 5 14 0 1 0 0 empty empty empty 0 -8 0 10 -262144
-1 -1 0.0762046 256;
#X obj 361 122 nbx 5 14 0 1 0 0 empty empty empty 0 -8 0 10 -262144
-1 -1 0.20219 256;
#X obj 246 405 nbx 5 14 0 1 0 0 empty empty empty 0 -8 0 10 -262144
-1 -1 0.1 256;
#X obj 232 -2 unsig~ 20;
#X obj 232 -23 osc~ 0.11;
#X obj 418 25 unsig~ 20;
#X obj 392 380 loadbang;
#X obj 230 -81 random 1000;
#X obj 399 -91 random 1000;
#X obj 326 -108 bng 15 250 50 0 empty empty empty 17 7 0 10 -262144
-1 -1;
#X obj 143 -84 inlet;
#X obj 237 -48 / 5000;
#X obj 406 -58 / 5000;
#X obj 233 23 + 1;
#X obj 417 -26 osc~ 0.11;
#X obj 418 -6 *~;
#X obj 417 48 / 2;
#X obj 238 199 loadbang;
#X obj 393 198 loadbang;
#X obj 415 78 + 0.2;
#X obj 232 47 / 6;
#X obj 229 70 + 0.04;
#X msg 392 404 0.1;
#X connect 1 0 4 0;
#X connect 2 0 3 1;
#X connect 3 0 5 0;
#X connect 4 0 2 0;
#X connect 4 0 3 0;
#X connect 5 0 9 0;
#X connect 6 0 4 1;
#X connect 6 0 5 1;
#X connect 7 0 6 2;
#X connect 8 0 6 1;
#X connect 9 0 14 0;
#X connect 10 0 9 1;
#X connect 11 0 10 0;
#X connect 12 0 11 2;
#X connect 13 0 11 1;
#X connect 14 0 0 0;
#X connect 15 0 6 0;
#X connect 16 0 15 0;
#X connect 17 0 11 0;
#X connect 18 0 14 1;
#X connect 19 0 29 0;
#X connect 20 0 19 0;
#X connect 21 0 32 0;
#X connect 22 0 38 0;
#X connect 23 0 27 0;
#X connect 24 0 28 0;
#X connect 25 0 23 0;
#X connect 25 0 24 0;
#X connect 26 0 25 0;
#X connect 27 0 20 0;
#X connect 28 0 30 0;
#X connect 29 0 36 0;
#X connect 30 0 31 0;
#X connect 30 0 31 1;
#X connect 31 0 21 0;
#X connect 32 0 35 0;
#X connect 33 0 8 0;
#X connect 33 0 7 0;
#X connect 34 0 13 0;
#X connect 34 0 12 0;
#X connect 35 0 17 0;
#X connect 36 0 37 0;
#X connect 37 0 16 0;
#X connect 38 0 18 0;
#X restore 672 510 pd workings-bitcrushing;
#X obj 31 56 sel 0 22 44 66 88 110;
#X obj 370 -94 mod 2;
#X msg 36 339 isthisok 12 4 12 0 0.28 0.12 110 3 60 81 45;
#X obj 665 234 + 20;
#X msg 57 361 slower-shift 8 4 2 0 0.48 5 180 2 36 48 60;
#X msg 77 382 extatic 4 17 3 2 0.48 5 145 2 36 53 64;
#X obj -77 120 sel 0 1 2 3 4 5 6 7;
#X obj -73 93 random 7;
#X obj 32 37 mod 111;
#X obj 330 127 moses 25;
#X obj 397 127 moses 35;
#X obj 463 127 moses 15;
#X obj 530 127 moses 15;
#X obj 598 127 moses 15;
#X obj 665 127 moses 25;
#X obj 733 126 moses 10;
#X obj 200 -161 loadbang;
#X msg 199 -138 1;
#X obj 673 547 equal_power_pan~;
#X obj 903 415 t b b;
#X obj 950 415 t b b;
#X msg 903 439 0;
#X msg 949 441 1;
#X obj 905 344 f 0;
#X obj 942 344 + 1;
#X obj 903 390 sel 0 1;
#X obj 904 368 mod 2;
#X obj 892 299 r \$0-envtime;
#X obj 427 623 patchComs;
#X obj 1080 397 dsp~;
#X floatatom 1072 452 5 0 0 0 - - -;
#X obj 427 655 switch~;
#X connect 0 0 120 0;
#X connect 0 1 121 0;
#X connect 1 0 0 0;
#X connect 2 0 0 0;
#X connect 3 0 0 0;
#X connect 4 0 0 0;
#X connect 5 0 0 0;
#X connect 6 0 97 0;
#X connect 7 0 112 1;
#X connect 8 0 6 1;
#X connect 9 0 116 1;
#X connect 10 0 11 1;
#X connect 11 0 98 0;
#X connect 12 0 117 1;
#X connect 13 0 14 1;
#X connect 14 0 99 0;
#X connect 18 0 115 1;
#X connect 19 0 21 1;
#X connect 21 0 100 0;
#X connect 22 0 26 1;
#X connect 23 0 25 1;
#X connect 25 0 101 0;
#X connect 26 0 25 0;
#X connect 27 0 113 1;
#X connect 28 0 29 1;
#X connect 29 0 102 0;
#X connect 31 0 33 1;
#X connect 32 0 125 1;
#X connect 33 0 125 0;
#X connect 35 0 114 1;
#X connect 36 0 37 1;
#X connect 37 0 104 0;
#X connect 38 0 42 1;
#X connect 39 0 111 1;
#X connect 42 0 111 0;
#X connect 43 0 45 1;
#X connect 44 0 47 1;
#X connect 45 0 47 0;
#X connect 47 0 106 0;
#X connect 48 0 50 1;
#X connect 49 0 52 1;
#X connect 50 0 52 0;
#X connect 52 0 107 0;
#X connect 53 0 112 0;
#X connect 54 0 116 0;
#X connect 55 0 117 0;
#X connect 56 0 115 0;
#X connect 57 0 26 0;
#X connect 58 0 113 0;
#X connect 59 0 33 0;
#X connect 60 0 114 0;
#X connect 61 0 42 0;
#X connect 62 0 45 0;
#X connect 63 0 50 0;
#X connect 64 0 118 0;
#X connect 65 0 118 1;
#X connect 66 0 67 0;
#X connect 66 0 123 0;
#X connect 66 0 130 0;
#X connect 67 0 66 1;
#X connect 68 0 123 1;
#X connect 69 0 70 0;
#X connect 70 0 71 0;
#X connect 70 0 72 0;
#X connect 71 0 70 1;
#X connect 72 0 74 0;
#X connect 74 1 77 0;
#X connect 74 2 79 0;
#X connect 74 3 81 0;
#X connect 74 4 83 0;
#X connect 74 5 85 0;
#X connect 74 6 87 0;
#X connect 74 7 89 0;
#X connect 74 8 91 0;
#X connect 74 9 93 0;
#X connect 74 10 95 0;
#X connect 75 0 119 0;
#X connect 76 0 119 1;
#X connect 77 0 131 0;
#X connect 78 0 131 1;
#X connect 79 0 132 0;
#X connect 80 0 132 1;
#X connect 81 0 133 0;
#X connect 82 0 133 1;
#X connect 83 0 134 0;
#X connect 84 0 134 1;
#X connect 85 0 135 0;
#X connect 86 0 135 1;
#X connect 87 0 136 0;
#X connect 88 0 136 1;
#X connect 89 0 137 0;
#X connect 90 0 137 1;
#X connect 91 0 108 0;
#X connect 92 0 108 1;
#X connect 93 0 109 0;
#X connect 94 0 109 1;
#X connect 95 0 110 0;
#X connect 96 0 110 1;
#X connect 97 0 0 1;
#X connect 98 0 0 2;
#X connect 99 0 0 3;
#X connect 100 0 0 4;
#X connect 101 0 0 5;
#X connect 102 0 0 6;
#X connect 103 0 0 7;
#X connect 104 0 0 8;
#X connect 105 0 0 9;
#X connect 106 0 0 10;
#X connect 107 0 0 11;
#X connect 108 0 61 0;
#X connect 109 0 62 0;
#X connect 110 0 63 0;
#X connect 111 0 105 0;
#X connect 112 0 6 0;
#X connect 113 0 29 0;
#X connect 114 0 37 0;
#X connect 115 0 21 0;
#X connect 116 0 11 0;
#X connect 117 0 14 0;
#X connect 118 0 66 0;
#X connect 119 0 120 1;
#X connect 119 0 121 1;
#X connect 120 0 150 0;
#X connect 120 0 150 1;
#X connect 121 0 140 0;
#X connect 122 0 75 0;
#X connect 122 0 129 0;
#X connect 122 1 75 0;
#X connect 122 2 75 0;
#X connect 122 3 75 0;
#X connect 122 4 75 0;
#X connect 122 5 75 0;
#X connect 123 0 69 0;
#X connect 124 0 0 0;
#X connect 125 0 103 0;
#X connect 126 0 0 0;
#X connect 127 0 0 0;
#X connect 128 0 1 0;
#X connect 128 1 2 0;
#X connect 128 2 3 0;
#X connect 128 3 4 0;
#X connect 128 4 5 0;
#X connect 128 5 124 0;
#X connect 128 6 126 0;
#X connect 128 7 127 0;
#X connect 129 0 128 0;
#X connect 130 0 122 0;
#X connect 130 0 73 0;
#X connect 131 0 54 0;
#X connect 132 0 55 0;
#X connect 133 0 56 0;
#X connect 134 0 57 0;
#X connect 135 0 58 0;
#X connect 136 0 59 0;
#X connect 137 0 60 0;
#X connect 138 0 139 0;
#X connect 139 0 64 0;
#X connect 140 0 150 0;
#X connect 140 1 150 1;
#X connect 141 1 143 0;
#X connect 142 1 144 0;
#X connect 143 0 140 1;
#X connect 144 0 140 1;
#X connect 145 0 146 0;
#X connect 145 0 148 0;
#X connect 146 0 145 1;
#X connect 147 0 141 0;
#X connect 147 1 142 0;
#X connect 148 0 147 0;
#X connect 149 0 145 0;
#X connect 150 0 153 0;
#X connect 151 0 152 0;
