#N canvas 66 72 417 483 10;
#X obj 27 12 tgl 25 0 empty empty empty 17 7 0 10 -261234 -1 -1 1 1
;
#X obj 93 81 pow;
#X msg 93 61 2;
#X obj 67 42 random 3;
#X obj 67 22 sel 1;
#X obj 67 12 tgl 8 0 empty empty empty 17 7 0 10 -258113 -4032 -1 0
1;
#X obj 277 61 noise~;
#X obj 301 87 snapshot~;
#X obj 343 60 bang~;
#X obj 277 140 *~;
#X obj 304 140 bng 15 250 50 0 empty empty empty 17 7 0 10 -262144
-1 -1;
#X obj 301 108 > 0.94;
#X obj 277 206 *~;
#X obj 292 185 osc~ 0.1;
#X obj 304 206 snapshot~;
#X obj 304 245 sel 1;
#X obj 304 225 > 0.98;
#X obj 337 143 random 1000;
#X obj 337 165 * 0.001;
#X obj 222 275 *~;
#X obj 236 254 vline~;
#X obj 202 191 random 1000;
#X obj 202 210 * 0.001;
#X obj 27 -10 loadbang;
#X obj 111 190 random 3;
#X obj 111 211 expr $f1*12+24;
#X msg 130 7 \; pd dsp 1;
#X obj 27 73 metro 120;
#X obj 28 188 thru~;
#X obj 218 304 rev2~ 90 90 3000 25;
#X obj 277 161 *~ 0.666;
#N canvas 68 183 412 460 scalez 0;
#X obj 124 5 inlet;
#X obj 43 398 outlet;
#X msg 43 251 1;
#X msg 53 261 3;
#X obj 43 369 mtof;
#X obj 43 350 + 36;
#X text 47 194 Bhairavi;
#X text 177 189 Bhairav;
#X msg 63 271 6;
#X msg 73 281 7;
#X msg 83 291 8;
#X msg 93 301 11;
#X obj 43 229 sel 0 1 2 3 4 5 6;
#X obj 43 210 random 7;
#X msg 103 311 12;
#X msg 170 248 1;
#X obj 170 366 mtof;
#X obj 170 347 + 36;
#X msg 190 268 6;
#X msg 200 278 7;
#X msg 210 288 8;
#X obj 170 226 sel 0 1 2 3 4 5 6;
#X obj 170 206 random 7;
#X msg 230 308 12;
#X msg 180 258 4;
#X msg 220 298 10;
#X msg 300 265 3;
#X obj 290 374 mtof;
#X obj 290 354 + 36;
#X msg 310 275 6;
#X msg 320 285 7;
#X msg 330 295 8;
#X msg 340 305 11;
#X obj 290 233 sel 0 1 2 3 4 5 6;
#X obj 290 209 random 7;
#X msg 350 315 12;
#X text 299 193 Asavari;
#X msg 290 255 2;
#X text 167 404 Not sure if i've got this right...;
#X obj 124 125 route 0 1 2;
#X obj 124 105 pack 0 1;
#X obj 124 67 random 3;
#X obj 124 147 sel 1;
#X obj 161 147 sel 1;
#X obj 199 147 sel 1;
#X obj 290 180 bng 15 250 50 0 empty empty empty 17 7 0 10 -262144
-1 -1;
#X obj 43 179 bng 15 250 50 0 empty empty empty 17 7 0 10 -262144 -1
-1;
#X obj 170 177 bng 15 250 50 0 empty empty empty 17 7 0 10 -262144
-1 -1;
#X obj 124 86 change;
#X obj 124 46 sel 0;
#X obj 93 22 bng 15 250 50 0 empty empty empty 17 7 0 10 -262144 -1
-1;
#X obj 124 26 random 20;
#X connect 0 0 34 0;
#X connect 0 0 50 0;
#X connect 0 0 51 0;
#X connect 2 0 5 0;
#X connect 3 0 5 0;
#X connect 4 0 1 0;
#X connect 5 0 4 0;
#X connect 8 0 5 0;
#X connect 9 0 5 0;
#X connect 10 0 5 0;
#X connect 11 0 5 0;
#X connect 12 0 2 0;
#X connect 12 1 3 0;
#X connect 12 2 8 0;
#X connect 12 3 9 0;
#X connect 12 4 10 0;
#X connect 12 5 11 0;
#X connect 12 6 14 0;
#X connect 13 0 12 0;
#X connect 14 0 5 0;
#X connect 15 0 17 0;
#X connect 16 0 1 0;
#X connect 17 0 16 0;
#X connect 18 0 17 0;
#X connect 19 0 17 0;
#X connect 20 0 17 0;
#X connect 21 0 15 0;
#X connect 21 1 24 0;
#X connect 21 2 18 0;
#X connect 21 3 19 0;
#X connect 21 4 20 0;
#X connect 21 5 25 0;
#X connect 21 6 23 0;
#X connect 22 0 21 0;
#X connect 23 0 17 0;
#X connect 24 0 17 0;
#X connect 25 0 17 0;
#X connect 26 0 28 0;
#X connect 27 0 1 0;
#X connect 28 0 27 0;
#X connect 29 0 28 0;
#X connect 30 0 28 0;
#X connect 31 0 28 0;
#X connect 32 0 28 0;
#X connect 33 0 37 0;
#X connect 33 1 26 0;
#X connect 33 2 29 0;
#X connect 33 3 30 0;
#X connect 33 4 31 0;
#X connect 33 5 32 0;
#X connect 33 6 35 0;
#X connect 34 0 33 0;
#X connect 35 0 28 0;
#X connect 37 0 28 0;
#X connect 39 0 42 0;
#X connect 39 1 43 0;
#X connect 39 2 44 0;
#X connect 40 0 39 0;
#X connect 41 0 48 0;
#X connect 42 0 46 0;
#X connect 43 0 47 0;
#X connect 44 0 45 0;
#X connect 45 0 34 0;
#X connect 46 0 13 0;
#X connect 47 0 22 0;
#X connect 48 0 40 0;
#X connect 49 0 41 0;
#X connect 50 0 40 0;
#X connect 51 0 49 0;
#X restore 9 284 pd scalez;
#X obj 9 306 phasor~;
#X obj 9 262 speedlim 960;
#X obj 93 101 * 60;
#X obj 28 147 tablenge2_gen_engine;
#N canvas 672 186 315 344 workit 0;
#X obj 67 307 outlet;
#X floatatom 67 148 5 0 0 0 - - -;
#X obj 67 103 random 100;
#X obj 67 250 line;
#X obj 67 227 pack 0 10000;
#X obj 66 19 loadbang;
#X obj 67 127 * 0.2;
#X obj 134 102 random 2;
#X obj 135 124 sel 0 1;
#X msg 134 144 -1;
#X msg 162 145 1;
#X obj 67 195 *;
#X obj 66 81 metro 20000;
#X obj 154 54 + 10000;
#X obj 154 15 random 10000;
#X obj 154 35 * 2;
#X obj 67 274 + 60;
#X connect 1 0 11 0;
#X connect 2 0 6 0;
#X connect 3 0 16 0;
#X connect 4 0 3 0;
#X connect 5 0 12 0;
#X connect 6 0 1 0;
#X connect 7 0 8 0;
#X connect 8 0 9 0;
#X connect 8 1 10 0;
#X connect 9 0 11 1;
#X connect 10 0 11 1;
#X connect 11 0 4 0;
#X connect 12 0 2 0;
#X connect 12 0 7 0;
#X connect 12 0 14 0;
#X connect 13 0 12 1;
#X connect 14 0 15 0;
#X connect 15 0 13 0;
#X connect 16 0 0 0;
#X restore 127 74 pd workit;
#X floatatom 136 98 5 0 0 0 - - -;
#X obj 218 332 lop~ 2000;
#X obj 9 328 *~ 0.08;
#N canvas 0 22 472 326 tablonoff 0;
#X obj 21 25 inlet;
#X obj 21 271 outlet;
#X obj 69 271 outlet;
#X obj 54 213 tgl 15 0 empty empty empty 17 7 0 10 -262144 -1 -1 0
1;
#X obj 21 234 spigot;
#X obj 102 213 tgl 15 0 empty empty empty 17 7 0 10 -262144 -1 -1 0
1;
#X obj 69 234 spigot;
#X obj 289 223 f;
#X obj 315 224 + 1;
#X floatatom 298 246 5 0 0 0 - - -;
#X obj 62 83 loadbang;
#X obj 298 266 sel 0;
#X obj 62 103 s \$0-codblang;
#X obj 297 183 r \$0-codblang;
#X obj 35 50 s \$0-inletbang;
#X obj 210 202 r \$0-inletbang;
#X obj 340 224 mod 200;
#X obj 315 203 random 200;
#X obj 214 58 f;
#X obj 240 59 + 1;
#X floatatom 223 81 5 0 0 0 - - -;
#X obj 223 101 sel 0;
#X obj 222 18 r \$0-codblang;
#X obj 135 37 r \$0-inletbang;
#X obj 269 68 mod 200;
#X obj 240 38 random 200;
#X obj 310 43 + 100;
#X obj 390 223 + 100;
#X floatatom 307 92 5 0 0 0 - - -;
#X floatatom 390 244 5 0 0 0 - - -;
#X obj 390 203 random 100;
#X obj 310 23 random 100;
#X obj 298 289 random 2;
#X obj 223 121 random 2;
#X connect 0 0 4 0;
#X connect 0 0 6 0;
#X connect 0 0 14 0;
#X connect 3 0 4 1;
#X connect 4 0 1 0;
#X connect 5 0 6 1;
#X connect 6 0 2 0;
#X connect 7 0 8 0;
#X connect 7 0 9 0;
#X connect 8 0 16 0;
#X connect 9 0 11 0;
#X connect 10 0 12 0;
#X connect 11 0 32 0;
#X connect 13 0 17 0;
#X connect 13 0 30 0;
#X connect 15 0 7 0;
#X connect 16 0 7 1;
#X connect 17 0 8 0;
#X connect 18 0 19 0;
#X connect 18 0 20 0;
#X connect 19 0 24 0;
#X connect 20 0 21 0;
#X connect 21 0 33 0;
#X connect 22 0 25 0;
#X connect 22 0 31 0;
#X connect 23 0 18 0;
#X connect 24 0 18 1;
#X connect 25 0 19 0;
#X connect 26 0 25 1;
#X connect 26 0 24 1;
#X connect 26 0 28 0;
#X connect 27 0 17 1;
#X connect 27 0 16 1;
#X connect 27 0 29 0;
#X connect 30 0 27 0;
#X connect 31 0 26 0;
#X connect 32 0 5 0;
#X connect 33 0 3 0;
#X restore 28 124 pd tablonoff;
#X obj 55 167 tablenge2_gen_engine;
#N canvas 0 22 450 300 distolead 0;
#X obj 66 137 clip~ -0.2 0.2;
#X obj 91 176 *~;
#X obj 66 176 *~;
#X obj 66 266 outlet~;
#X obj 116 266 outlet~;
#X obj 66 15 inlet~;
#X obj 220 99 random 1000;
#X obj 293 99 snapshot~;
#X obj 293 138 sel 1;
#X obj 293 118 > 0.98;
#X obj 231 190 random 1000;
#X obj 304 190 snapshot~;
#X obj 304 229 sel 1;
#X obj 304 209 > 0.98;
#X obj 220 121 * 0.0001;
#X obj 230 212 * 0.0001;
#X obj 321 7 bang~;
#X obj 175 141 osc~;
#X obj 185 232 osc~;
#X obj 185 253 clip~ 0 1;
#X obj 174 162 clip~ 0 1;
#X connect 0 0 1 0;
#X connect 0 0 2 0;
#X connect 1 0 4 0;
#X connect 2 0 3 0;
#X connect 5 0 0 0;
#X connect 6 0 14 0;
#X connect 7 0 9 0;
#X connect 8 0 6 0;
#X connect 9 0 8 0;
#X connect 10 0 15 0;
#X connect 11 0 13 0;
#X connect 12 0 10 0;
#X connect 13 0 12 0;
#X connect 14 0 17 0;
#X connect 15 0 18 0;
#X connect 16 0 7 0;
#X connect 16 0 11 0;
#X connect 17 0 20 0;
#X connect 18 0 19 0;
#X connect 19 0 11 0;
#X connect 19 0 2 1;
#X connect 20 0 7 0;
#X connect 20 0 1 1;
#X restore 111 359 pd distolead;
#X obj 132 336 *~ 0.25;
#X obj 59 327 phasor~;
#X obj 59 306 * 8;
#X obj 59 347 *~ 0.03;
#X obj 95 270 pow;
#X msg 95 250 2;
#X obj 69 231 random 3;
#X obj 69 211 sel 1;
#X obj 69 201 tgl 8 0 empty empty empty 17 7 0 10 -258113 -4032 -1
0 1;
#X obj 95 290 * 240;
#N canvas 0 22 822 527 harmonium? 0;
#X obj 327 67 s~ \$0-freep;
#X obj 121 128 r~ \$0-freep;
#X obj 46 128 r \$0-nowet;
#X obj 46 171 throw~ \$0-pestreg;
#X obj 182 380 catch~ \$0-pestreg;
#X obj 182 420 outlet~;
#X obj 120 197 r~ \$0-freep;
#X obj 45 197 r \$0-nowet;
#X obj 45 240 throw~ \$0-pestreg;
#X obj 119 264 r~ \$0-freep;
#X obj 44 264 r \$0-nowet;
#X obj 44 307 throw~ \$0-pestreg;
#X obj 275 127 r~ \$0-freep;
#X obj 200 127 r \$0-nowet;
#X obj 200 170 throw~ \$0-pestreg;
#X obj 274 196 r~ \$0-freep;
#X obj 199 196 r \$0-nowet;
#X obj 199 239 throw~ \$0-pestreg;
#X obj 273 263 r~ \$0-freep;
#X obj 198 263 r \$0-nowet;
#X obj 198 306 throw~ \$0-pestreg;
#X obj 432 128 r~ \$0-freep;
#X obj 357 128 r \$0-nowet;
#X obj 357 171 throw~ \$0-pestreg;
#X obj 431 197 r~ \$0-freep;
#X obj 356 197 r \$0-nowet;
#X obj 356 240 throw~ \$0-pestreg;
#X obj 46 150 sitenge -0.09;
#X obj 45 218 sitenge -0.07;
#X obj 44 285 sitenge -0.04;
#X obj 200 149 sitenge -0.06;
#X obj 230 18 inlet;
#X obj 199 217 sitenge 12.07;
#X obj 198 284 sitenge 12.04;
#X obj 357 150 sitenge 12.06;
#X obj 356 218 sitenge 12.09;
#X obj 327 44 *~ 1;
#X obj 230 45 s \$0-nowet;
#X obj 327 19 inlet~;
#X obj 182 400 *~ 0.2;
#X connect 1 0 27 1;
#X connect 2 0 27 0;
#X connect 4 0 39 0;
#X connect 6 0 28 1;
#X connect 7 0 28 0;
#X connect 9 0 29 1;
#X connect 10 0 29 0;
#X connect 12 0 30 1;
#X connect 13 0 30 0;
#X connect 15 0 32 1;
#X connect 16 0 32 0;
#X connect 18 0 33 1;
#X connect 19 0 33 0;
#X connect 21 0 34 1;
#X connect 22 0 34 0;
#X connect 24 0 35 1;
#X connect 25 0 35 0;
#X connect 27 0 3 0;
#X connect 28 0 8 0;
#X connect 29 0 11 0;
#X connect 30 0 14 0;
#X connect 31 0 37 0;
#X connect 32 0 17 0;
#X connect 33 0 20 0;
#X connect 34 0 23 0;
#X connect 35 0 26 0;
#X connect 36 0 0 0;
#X connect 38 0 36 0;
#X connect 39 0 5 0;
#X restore 202 230 pd harmonium?;
#X text 8 431 Leadtowill 2011;
#X text 8 444 http://www.flickr.com/photos/leadtowill/;
#X text 8 418 T A B L E N G E;
#X obj 195 387 thru~;
#X obj 235 408 switch~;
#X obj 235 388 patchComs;
#X connect 0 0 27 0;
#X connect 1 0 34 0;
#X connect 2 0 1 0;
#X connect 3 0 1 1;
#X connect 4 0 3 0;
#X connect 5 0 4 0;
#X connect 6 0 7 0;
#X connect 6 0 9 0;
#X connect 7 0 11 0;
#X connect 8 0 7 0;
#X connect 8 0 14 0;
#X connect 9 0 30 0;
#X connect 11 0 10 0;
#X connect 11 0 9 1;
#X connect 12 0 53 1;
#X connect 13 0 12 1;
#X connect 13 0 14 0;
#X connect 14 0 16 0;
#X connect 15 0 17 0;
#X connect 16 0 15 0;
#X connect 17 0 18 0;
#X connect 18 0 13 1;
#X connect 19 0 29 0;
#X connect 19 0 43 0;
#X connect 20 0 19 1;
#X connect 21 0 22 0;
#X connect 22 0 20 0;
#X connect 23 0 0 0;
#X connect 23 0 26 0;
#X connect 24 0 25 0;
#X connect 25 0 53 0;
#X connect 27 0 2 0;
#X connect 27 0 24 0;
#X connect 27 0 21 0;
#X connect 27 0 33 0;
#X connect 27 0 5 0;
#X connect 27 0 40 0;
#X connect 28 0 57 0;
#X connect 28 1 57 1;
#X connect 29 0 38 0;
#X connect 29 1 38 0;
#X connect 29 2 38 0;
#X connect 29 3 38 0;
#X connect 30 0 12 0;
#X connect 31 0 32 0;
#X connect 31 0 45 0;
#X connect 32 0 39 0;
#X connect 33 0 31 0;
#X connect 33 0 51 0;
#X connect 33 0 48 0;
#X connect 34 0 27 1;
#X connect 35 0 28 0;
#X connect 36 0 34 1;
#X connect 36 0 37 0;
#X connect 38 0 57 0;
#X connect 38 0 57 1;
#X connect 39 0 19 0;
#X connect 40 0 35 0;
#X connect 40 1 41 0;
#X connect 41 0 28 1;
#X connect 42 0 57 0;
#X connect 42 1 57 1;
#X connect 43 0 42 0;
#X connect 44 0 46 0;
#X connect 45 0 44 0;
#X connect 46 0 29 0;
#X connect 47 0 52 0;
#X connect 48 0 47 0;
#X connect 49 0 47 1;
#X connect 50 0 49 0;
#X connect 51 0 50 0;
#X connect 52 0 33 1;
#X connect 53 0 19 0;
#X connect 53 0 29 0;
#X connect 53 0 42 0;
#X connect 57 0 59 0;
#X connect 57 1 59 1;
#X connect 59 0 58 0;
