#N canvas 35 495 450 300 10;
#X obj 73 159 vd~ \$0-sitrar 111;
#X obj 73 139 sig~;
#X obj 73 119 expr 1000/$f1;
#X obj 73 98 mtof;
#X obj 73 56 inlet;
#X obj 73 77 + \$1;
#X obj 73 226 *~ 0.125;
#X obj 73 247 outlet~;
#X obj 179 77 delwrite~ \$0-sitrar 111;
#X obj 179 56 inlet~;
#X obj 183 158 *~ 0.99;
#X connect 0 0 10 0;
#X connect 0 0 6 0;
#X connect 1 0 0 0;
#X connect 2 0 1 0;
#X connect 3 0 2 0;
#X connect 4 0 5 0;
#X connect 5 0 3 0;
#X connect 6 0 7 0;
#X connect 9 0 8 0;
#X connect 10 0 8 0;
