#N canvas 0 22 1020 416 10;
#X obj 371 153 s \$0-seqwenssa;
#X obj 23 154 catch~ \$0-dribbly;
#X obj 318 206 random 100;
#N canvas 0 22 382 527 Ghe 0;
#X obj 55 67 r \$0-seqwenssa;
#X obj 55 111 throw~ \$0-dribbly;
#X text 55 45 Ghe;
#X obj 55 137 r \$0-seqwenssa;
#X obj 55 179 throw~ \$0-dribbly;
#X obj 55 203 r \$0-seqwenssa;
#X obj 55 245 throw~ \$0-dribbly;
#X obj 55 266 r \$0-seqwenssa;
#X obj 55 308 throw~ \$0-dribbly;
#X obj 55 331 r \$0-seqwenssa;
#X obj 55 373 throw~ \$0-dribbly;
#X obj 55 395 r \$0-seqwenssa;
#X obj 55 437 throw~ \$0-dribbly;
#X obj 55 90 tablement 98 92 50 770 0 1;
#X obj 55 417 tablement 1285 1285 1 140 0 0.1;
#X obj 55 159 tablement 275 275 1 300 0 0.5;
#X obj 55 225 tablement 386 386 10 200 0 0.25;
#X obj 55 288 tablement 427 406 100 200 0 0.25;
#X obj 55 353 tablement 598 598 10 200 0 0.25;
#X connect 0 0 13 0;
#X connect 3 0 15 0;
#X connect 5 0 16 0;
#X connect 7 0 17 0;
#X connect 9 0 18 0;
#X connect 11 0 14 0;
#X connect 13 0 1 0;
#X connect 14 0 12 0;
#X connect 15 0 4 0;
#X connect 16 0 6 0;
#X connect 17 0 8 0;
#X connect 18 0 10 0;
#X restore 23 37 pd Ghe;
#N canvas 0 22 339 454 Na 0;
#X obj 46 33 r \$0-seqwenssa;
#X obj 46 80 throw~ \$0-dribbly;
#X text 46 14 Na;
#X obj 46 102 r \$0-seqwenssa;
#X obj 46 144 throw~ \$0-dribbly;
#X obj 46 168 r \$0-seqwenssa;
#X obj 46 210 throw~ \$0-dribbly;
#X obj 46 231 r \$0-seqwenssa;
#X obj 46 273 throw~ \$0-dribbly;
#X obj 46 296 r \$0-seqwenssa;
#X obj 46 338 throw~ \$0-dribbly;
#X obj 46 360 r \$0-seqwenssa;
#X obj 46 402 throw~ \$0-dribbly;
#X obj 46 124 tablement 635 645 30 400 1 0.5;
#X obj 46 190 tablement 945 960 33 50 1 0.25;
#X obj 46 253 tablement 1285 1285 1 50 1 0.25;
#X obj 46 318 tablement 1320 1320 1 42 1 0.25;
#X obj 46 382 tablement 1640 1640 1 152 1 0.1;
#X obj 46 56 tablement 345 345 1 668 1 1;
#X connect 0 0 18 0;
#X connect 3 0 13 0;
#X connect 5 0 14 0;
#X connect 7 0 15 0;
#X connect 9 0 16 0;
#X connect 11 0 17 0;
#X connect 13 0 4 0;
#X connect 14 0 6 0;
#X connect 15 0 8 0;
#X connect 16 0 10 0;
#X connect 17 0 12 0;
#X connect 18 0 1 0;
#X restore 23 57 pd Na;
#N canvas 0 22 284 377 Ta 0;
#X obj 13 -228 r \$0-seqwenssa;
#X obj 13 -184 throw~ \$0-dribbly;
#X obj 13 -158 r \$0-seqwenssa;
#X obj 13 -116 throw~ \$0-dribbly;
#X obj 13 -92 r \$0-seqwenssa;
#X obj 13 -50 throw~ \$0-dribbly;
#X obj 13 -29 r \$0-seqwenssa;
#X obj 13 13 throw~ \$0-dribbly;
#X obj 13 39 r \$0-seqwenssa;
#X obj 13 81 throw~ \$0-dribbly;
#X text 13 -247 Ta;
#X obj 13 -205 tablement 960 960 1 380 2 1;
#X obj 13 -136 tablement 1300 1304 25 84 2 0.5;
#X obj 13 -70 tablement 684 684 1 949 2 0.25;
#X obj 13 -7 tablement 1644 1644 1 48 2 0.25;
#X obj 13 61 tablement 1976 1976 1 28 2 0.1;
#X connect 0 0 11 0;
#X connect 2 0 12 0;
#X connect 4 0 13 0;
#X connect 6 0 14 0;
#X connect 8 0 15 0;
#X connect 11 0 1 0;
#X connect 12 0 3 0;
#X connect 13 0 5 0;
#X connect 14 0 7 0;
#X connect 15 0 9 0;
#X restore 23 76 pd Ta;
#N canvas 0 22 280 386 Tin 0;
#X text 18 3 Tin;
#X obj 19 23 r \$0-seqwenssa;
#X obj 19 67 throw~ \$0-dribbly;
#X obj 19 93 r \$0-seqwenssa;
#X obj 19 135 throw~ \$0-dribbly;
#X obj 19 159 r \$0-seqwenssa;
#X obj 19 201 throw~ \$0-dribbly;
#X obj 19 222 r \$0-seqwenssa;
#X obj 19 264 throw~ \$0-dribbly;
#X obj 19 290 r \$0-seqwenssa;
#X obj 19 332 throw~ \$0-dribbly;
#X obj 19 46 tablement 960 960 1 191 3 1;
#X obj 19 115 tablement 1296 1296 1 64 3 0.5;
#X obj 19 181 tablement 636 636 1 400 3 0.25;
#X obj 19 244 tablement 1648 1652 24 50 3 0.25;
#X obj 19 312 tablement 376 376 1 47 3 0.1;
#X connect 1 0 11 0;
#X connect 3 0 12 0;
#X connect 5 0 13 0;
#X connect 7 0 14 0;
#X connect 9 0 15 0;
#X connect 11 0 2 0;
#X connect 12 0 4 0;
#X connect 13 0 6 0;
#X connect 14 0 8 0;
#X connect 15 0 10 0;
#X restore 23 96 pd Tin;
#N canvas 0 22 382 527 Ghe-bend 0;
#X obj 55 67 r \$0-seqwenssa;
#X obj 55 111 throw~ \$0-dribbly;
#X obj 55 137 r \$0-seqwenssa;
#X obj 55 179 throw~ \$0-dribbly;
#X obj 55 203 r \$0-seqwenssa;
#X obj 55 245 throw~ \$0-dribbly;
#X obj 55 266 r \$0-seqwenssa;
#X obj 55 308 throw~ \$0-dribbly;
#X obj 55 331 r \$0-seqwenssa;
#X obj 55 373 throw~ \$0-dribbly;
#X obj 55 395 r \$0-seqwenssa;
#X obj 55 437 throw~ \$0-dribbly;
#X text 55 45 Ghe-bend;
#X obj 55 353 tablement 598 598 10 200 4 0.25;
#X obj 55 159 tablement 232 263 72 300 4 0.5;
#X obj 55 225 tablement 386 386 10 200 4 0.25;
#X obj 55 417 tablement 1285 1285 1 140 4 0.1;
#X obj 55 288 tablement 418 418 1 200 4 0.25;
#X obj 55 90 tablement 104 144 80 255 4 1.5;
#X connect 0 0 18 0;
#X connect 2 0 14 0;
#X connect 4 0 15 0;
#X connect 6 0 17 0;
#X connect 8 0 13 0;
#X connect 10 0 16 0;
#X connect 13 0 9 0;
#X connect 14 0 3 0;
#X connect 15 0 5 0;
#X connect 16 0 11 0;
#X connect 17 0 7 0;
#X connect 18 0 1 0;
#X restore 23 115 pd Ghe-bend;
#N canvas 0 22 246 439 Taka 0;
#X obj 19 23 r \$0-seqwenssa;
#X obj 19 67 throw~ \$0-dribbly;
#X obj 19 93 r \$0-seqwenssa;
#X obj 19 135 throw~ \$0-dribbly;
#X obj 19 159 r \$0-seqwenssa;
#X obj 19 201 throw~ \$0-dribbly;
#X obj 19 222 r \$0-seqwenssa;
#X obj 19 264 throw~ \$0-dribbly;
#X obj 19 290 r \$0-seqwenssa;
#X obj 19 332 throw~ \$0-dribbly;
#X text 18 3 Taka;
#X obj 20 357 r \$0-seqwenssa;
#X obj 20 399 throw~ \$0-dribbly;
#X obj 19 181 tablement 1596 1596 1 56 5 0.25;
#X obj 19 46 tablement 388 388 1 50 5 1;
#X obj 20 379 tablement 2312 2320 1 16 5 0.05;
#X obj 19 312 tablement 1696 1696 1 31 5 0.05;
#X obj 19 115 tablement 500 500 1 45 5 0.5;
#X obj 19 244 tablement 1656 1656 1 30 5 0.25;
#X connect 0 0 14 0;
#X connect 2 0 17 0;
#X connect 4 0 13 0;
#X connect 6 0 18 0;
#X connect 8 0 16 0;
#X connect 11 0 15 0;
#X connect 13 0 5 0;
#X connect 14 0 1 0;
#X connect 15 0 12 0;
#X connect 16 0 9 0;
#X connect 17 0 3 0;
#X connect 18 0 7 0;
#X restore 23 134 pd Taka;
#X obj 376 104 random 6;
#X obj 218 316 s ar;
#X obj 163 316 s fek;
#X floatatom 218 296 5 0 0 0 - - -;
#X floatatom 163 294 5 0 0 0 - - -;
#X text 198 195 FM;
#X msg 238 213 111;
#X msg 178 213 8;
#X msg 208 213 66;
#X msg 148 213 0;
#X text 110 316 Mod freq;
#X text 248 316 amount;
#X obj 297 225 random 1000;
#X obj 297 187 sel 1 3 7;
#X obj 297 149 spigot;
#X obj 330 125 tgl 15 0 empty empty empty 17 7 0 10 -262144 -1 -1 0
1;
#X msg 370 226 0;
#X obj 297 168 random 21;
#X obj 757 238 tgl 15 0 empty empty empty 0 -6 0 8 -262144 -1 -1 1
1;
#X obj 779 238 tgl 15 0 empty empty empty 0 -6 0 8 -262144 -1 -1 1
1;
#X obj 824 238 tgl 15 0 empty empty empty 0 -6 0 8 -262144 -1 -1 0
1;
#X obj 802 238 tgl 15 0 empty empty empty 0 -6 0 8 -262144 -1 -1 1
1;
#X obj 892 238 tgl 15 0 empty empty empty 0 -6 0 8 -262144 -1 -1 0
1;
#X obj 914 238 tgl 15 0 empty empty empty 0 -6 0 8 -262144 -1 -1 1
1;
#X obj 869 238 tgl 15 0 empty empty empty 0 -6 0 8 -262144 -1 -1 0
1;
#X obj 847 238 tgl 15 0 empty empty empty 0 -6 0 8 -262144 -1 -1 1
1;
#X obj 667 238 tgl 15 0 empty empty empty 0 -6 0 8 -262144 -1 -1 1
1;
#X obj 689 238 tgl 15 0 empty empty empty 0 -6 0 8 -262144 -1 -1 0
1;
#X obj 734 238 tgl 15 0 empty empty empty 0 -6 0 8 -262144 -1 -1 1
1;
#X obj 712 238 tgl 15 0 empty empty empty 0 -6 0 8 -262144 -1 -1 1
1;
#X obj 622 238 tgl 15 0 empty empty empty 0 -6 0 8 -262144 -1 -1 0
1;
#X obj 644 238 tgl 15 0 empty empty empty 0 -6 0 8 -262144 -1 -1 1
1;
#X obj 599 238 tgl 15 0 empty empty empty 0 -6 0 8 -262144 -1 -1 1
1;
#X obj 577 238 tgl 15 0 empty empty empty 0 -6 0 8 -262144 -1 -1 0
1;
#X obj 577 264 pack 0 0 0 0 0 0 0 0 0 0 0 0 0 0 0 0;
#X obj 577 167 bng 15 250 50 0 empty empty empty 0 -6 0 8 -262144 -1
-1;
#X obj 775 208 sel 8 9 10 11 12 13 14 15;
#X obj 577 208 sel 0 1 2 3 4 5 6 7;
#N canvas 196 256 511 399 init-pattern 0;
#X obj 204 355 outlet;
#X obj 225 355 outlet;
#X obj 268 356 outlet;
#X obj 246 356 outlet;
#X obj 331 357 outlet;
#X obj 353 357 outlet;
#X obj 310 356 outlet;
#X obj 289 356 outlet;
#X obj 119 354 outlet;
#X obj 140 354 outlet;
#X obj 183 355 outlet;
#X obj 161 355 outlet;
#X obj 76 354 outlet;
#X obj 98 354 outlet;
#X obj 55 353 outlet;
#X obj 34 325 unpack 0 0 0 0 0 0 0 0 0 0 0 0 0 0 0 0;
#X obj 34 353 outlet;
#X obj 34 257 pack 0 0 0 0 0 0 0 0 0 0 0 0 0 0 0 0;
#X obj 56 75 random 2;
#X obj 66 85 random 2;
#X obj 76 95 random 2;
#X obj 86 105 random 2;
#X obj 96 115 random 2;
#X obj 106 125 random 2;
#X obj 117 133 random 2;
#X obj 126 145 random 2;
#X obj 136 155 random 2;
#X obj 146 165 random 2;
#X obj 156 175 random 2;
#X obj 166 185 random 2;
#X obj 176 195 random 2;
#X obj 186 205 random 2;
#X obj 196 215 random 2;
#X obj 206 225 random 2;
#X msg 34 280 set \$1 \$2 \$3 \$4 \$5 \$6 \$7 \$8 \$9 \$10 \$11 \$12
\$13 \$14 \$15 \$16;
#X msg 34 303 1 1 0 1 0 1 1 1 1 1 1 1 0 1 1 1;
#X text 274 99 this could be way more elegant...;
#X obj 234 6 loadbang;
#X obj 234 26 bng 15 250 50 0 empty empty empty 17 7 0 10 -262144 -1
-1;
#X obj 56 55 del 1;
#X obj -5 258 del 1;
#X connect 15 0 16 0;
#X connect 15 1 14 0;
#X connect 15 2 12 0;
#X connect 15 3 13 0;
#X connect 15 4 8 0;
#X connect 15 5 9 0;
#X connect 15 6 11 0;
#X connect 15 7 10 0;
#X connect 15 8 0 0;
#X connect 15 9 1 0;
#X connect 15 10 3 0;
#X connect 15 11 2 0;
#X connect 15 12 7 0;
#X connect 15 13 6 0;
#X connect 15 14 4 0;
#X connect 15 15 5 0;
#X connect 17 0 34 0;
#X connect 18 0 17 0;
#X connect 19 0 17 1;
#X connect 20 0 17 2;
#X connect 21 0 17 3;
#X connect 22 0 17 4;
#X connect 23 0 17 5;
#X connect 24 0 17 6;
#X connect 25 0 17 7;
#X connect 26 0 17 8;
#X connect 27 0 17 9;
#X connect 28 0 17 10;
#X connect 29 0 17 11;
#X connect 30 0 17 12;
#X connect 31 0 17 13;
#X connect 32 0 17 14;
#X connect 33 0 17 15;
#X connect 34 0 35 0;
#X connect 35 0 15 0;
#X connect 37 0 38 0;
#X connect 38 0 33 0;
#X connect 38 0 32 0;
#X connect 38 0 31 0;
#X connect 38 0 30 0;
#X connect 38 0 28 0;
#X connect 38 0 29 0;
#X connect 38 0 27 0;
#X connect 38 0 26 0;
#X connect 38 0 19 0;
#X connect 38 0 20 0;
#X connect 38 0 21 0;
#X connect 38 0 22 0;
#X connect 38 0 23 0;
#X connect 38 0 24 0;
#X connect 38 0 25 0;
#X connect 38 0 39 0;
#X connect 39 0 18 0;
#X connect 39 0 40 0;
#X connect 40 0 35 0;
#X restore 654 186 pd init-pattern;
#X obj 577 287 list prepend 0;
#X obj 575 349 table \$0-seq 16;
#X obj 577 316 s \$0-seq;
#X obj 312 -3 f;
#X obj 338 -2 + 1;
#X obj 365 -2 mod 16;
#X obj 312 24 tabread \$0-seq;
#X obj 297 110 bng 15 250 50 0 empty empty empty 17 7 0 10 -262144
-1 -1;
#X obj 603 73 + 1;
#X obj 577 73 f;
#X obj 431 56 sel 0;
#X obj 297 -25 inlet;
#X obj 628 73 mod 2;
#X obj 577 94 sel 1;
#X obj 23 236 outlet~;
#X floatatom 336 103 5 0 0 0 - - -;
#X obj 577 186 random 16;
#X obj 431 103 expr ($f1*-1)+1;
#X obj 398 124 spigot;
#X obj 354 124 spigot;
#X obj 324 279 line;
#X obj 251 272 line;
#X obj 23 215 lop~ 20000;
#X obj 147 167 line;
#X obj 147 125 random 10000;
#X obj 147 146 pack 0 100;
#X obj 204 105 line;
#X obj 204 63 random 1000;
#X obj 204 84 pack 0 100;
#X obj 431 82 random 2;
#X text 21 -10 F M - T A B L A;
#X text 633 312 This bit is based on 16step-seq from the RTC-library
by Karlheinz Essel/Frank Barknecht;
#X obj 251 251 pack 0 1000;
#X obj 324 258 pack 0 1000;
#X obj 278 62 f;
#X obj 304 62 + 1;
#X text 21 3 Leadtowill 2011;
#X text 21 16 http://www.flickr.com/photos/leadtowill/;
#X obj 278 41 bng 15 250 50 0 empty empty empty 17 7 0 10 -262144 -1
-1;
#X obj 331 62 mod 6;
#X obj 23 195 *~ 0.2;
#X connect 1 0 88 0;
#X connect 2 0 81 0;
#X connect 9 0 66 0;
#X connect 12 0 10 0;
#X connect 13 0 11 0;
#X connect 15 0 12 0;
#X connect 15 0 13 0;
#X connect 16 0 13 0;
#X connect 16 0 12 0;
#X connect 17 0 13 0;
#X connect 17 0 12 0;
#X connect 18 0 13 0;
#X connect 18 0 12 0;
#X connect 21 0 80 0;
#X connect 22 0 21 0;
#X connect 22 1 2 0;
#X connect 22 2 25 0;
#X connect 23 0 26 0;
#X connect 24 0 23 1;
#X connect 25 0 81 0;
#X connect 26 0 22 0;
#X connect 27 0 43 8;
#X connect 28 0 43 9;
#X connect 29 0 43 11;
#X connect 30 0 43 10;
#X connect 31 0 43 14;
#X connect 32 0 43 15;
#X connect 33 0 43 13;
#X connect 34 0 43 12;
#X connect 35 0 43 4;
#X connect 36 0 43 5;
#X connect 37 0 43 7;
#X connect 38 0 43 6;
#X connect 39 0 43 2;
#X connect 40 0 43 3;
#X connect 41 0 43 1;
#X connect 42 0 43 0;
#X connect 43 0 48 0;
#X connect 44 0 64 0;
#X connect 44 0 43 0;
#X connect 45 0 27 0;
#X connect 45 1 28 0;
#X connect 45 2 30 0;
#X connect 45 3 29 0;
#X connect 45 4 34 0;
#X connect 45 5 33 0;
#X connect 45 6 31 0;
#X connect 45 7 32 0;
#X connect 46 0 42 0;
#X connect 46 1 41 0;
#X connect 46 2 39 0;
#X connect 46 3 40 0;
#X connect 46 4 35 0;
#X connect 46 5 36 0;
#X connect 46 6 38 0;
#X connect 46 7 37 0;
#X connect 46 8 45 0;
#X connect 47 0 42 0;
#X connect 47 1 41 0;
#X connect 47 2 39 0;
#X connect 47 3 40 0;
#X connect 47 4 35 0;
#X connect 47 5 36 0;
#X connect 47 6 38 0;
#X connect 47 7 37 0;
#X connect 47 8 27 0;
#X connect 47 9 28 0;
#X connect 47 10 30 0;
#X connect 47 11 29 0;
#X connect 47 12 34 0;
#X connect 47 13 33 0;
#X connect 47 14 31 0;
#X connect 47 15 32 0;
#X connect 48 0 50 0;
#X connect 51 0 52 0;
#X connect 51 0 54 0;
#X connect 51 0 58 0;
#X connect 52 0 53 0;
#X connect 53 0 51 1;
#X connect 54 0 86 0;
#X connect 55 0 23 0;
#X connect 55 0 24 0;
#X connect 55 0 9 0;
#X connect 55 0 72 0;
#X connect 55 0 75 0;
#X connect 56 0 60 0;
#X connect 57 0 56 0;
#X connect 57 0 61 0;
#X connect 58 0 57 0;
#X connect 58 0 77 0;
#X connect 59 0 51 0;
#X connect 59 0 55 0;
#X connect 60 0 57 1;
#X connect 61 0 44 0;
#X connect 63 0 67 0;
#X connect 64 0 46 0;
#X connect 65 0 66 1;
#X connect 66 0 0 0;
#X connect 67 0 0 0;
#X connect 68 0 12 0;
#X connect 69 0 13 0;
#X connect 70 0 62 0;
#X connect 71 0 70 1;
#X connect 72 0 73 0;
#X connect 73 0 71 0;
#X connect 74 0 73 1;
#X connect 75 0 76 0;
#X connect 76 0 74 0;
#X connect 77 0 65 0;
#X connect 77 0 67 1;
#X connect 80 0 69 0;
#X connect 81 0 68 0;
#X connect 82 0 83 0;
#X connect 82 0 63 0;
#X connect 83 0 87 0;
#X connect 86 0 82 0;
#X connect 87 0 82 1;
#X connect 88 0 70 0;
