#N canvas 15 22 984 686 10;
#N canvas 0 22 1024 705 (subpatch) 0;
#X obj 24 321 noise~;
#X obj -208 351 hip~ 50;
#X obj -208 373 hip~ 50;
#X obj -208 395 hip~ 50;
#X obj -208 417 hip~ 50;
#X obj -207 440 lop~ 250;
#X obj -208 462 lop~ 250;
#X obj -207 486 lop~ 250;
#X obj -208 509 lop~ 250;
#X obj -137 352 hip~ 250;
#X obj -137 374 hip~ 250;
#X obj -137 396 hip~ 250;
#X obj -137 418 hip~ 250;
#X obj -136 441 lop~ 500;
#X obj -137 463 lop~ 500;
#X obj -136 487 lop~ 500;
#X obj -137 511 lop~ 500;
#X obj 117 348 hip~ 3000;
#X obj 117 370 hip~ 3000;
#X obj 117 391 hip~ 3000;
#X obj 117 414 hip~ 3000;
#X obj 117 437 lop~ 7000;
#X obj 117 459 lop~ 7000;
#X obj 118 483 lop~ 7000;
#X obj 117 507 lop~ 7000;
#X obj 57 89 vsl 15 128 0 2 0 0 empty empty empty 0 -8 0 8 -90881 -262144
-1 6350 1;
#X obj 100 88 vsl 15 128 0 1 0 0 empty empty empty 0 -8 0 8 -258699
-262144 -1 12700 1;
#X obj 257 89 vsl 15 128 0 0.5 0 0 empty empty empty 0 -8 0 8 -24198
-262144 -1 12700 1;
#X obj -207 546 *~;
#X obj -134 545 *~;
#X obj 120 542 *~;
#X obj 495 590 ead~;
#X obj 302 611 *~;
#X obj 501 543 metro;
#X obj 441 449 line;
#X floatatom 441 469 5 0 0 0 - - -;
#X obj 13 45 tgl 15 0 empty empty empty 17 7 0 10 -262144 -1 -1 1 1
;
#X obj 8 282 bng 15 250 50 0 empty empty empty 17 7 0 10 -262144 -1
-1;
#X obj 427 87 vsl 15 128 1 100 0 0 empty empty empty 0 -8 0 8 -33289
-262144 -1 513 1;
#X floatatom 427 221 5 0 0 0 - - -;
#X text 452 18 METRO;
#X text 424 68 Min;
#X text 463 69 Max;
#X obj 466 88 vsl 15 128 50 350 0 0 empty empty empty 0 -8 0 8 -33289
-262144 -1 8467 1;
#X floatatom 466 222 5 0 0 0 - - -;
#X obj 505 88 vsl 15 128 1000 30000 0 0 empty empty empty 0 -8 0 8
-162280 -262144 -1 657 1;
#X floatatom 505 222 7 0 0 0 - - -;
#X text 488 69 Offset (ms);
#X text 670 19 ENVELOPPE AD;
#X obj 599 87 vsl 15 128 1 50 0 0 empty empty empty 0 -8 0 8 -66577
-262144 -1 1037 1;
#X floatatom 599 221 5 0 0 0 - - -;
#X text 596 68 Min;
#X text 634 68 Max;
#X obj 637 87 vsl 15 128 50 250 0 0 empty empty empty 0 -8 0 8 -66577
-262144 -1 12700 1;
#X floatatom 637 220 5 0 0 0 - - -;
#X text 603 41 Attack;
#X text 690 40 Decay;
#X obj 680 88 vsl 15 128 1 50 0 0 empty empty empty 0 -8 0 8 -66577
-262144 -1 1037 1;
#X floatatom 680 221 5 0 0 0 - - -;
#X text 677 69 Min;
#X text 714 69 Max;
#X obj 719 88 vsl 15 128 50 400 0 0 empty empty empty 0 -8 0 8 -66577
-262144 -1 7257 1;
#X floatatom 719 221 5 0 0 0 - - -;
#X obj 776 89 vsl 15 128 1000 30000 0 0 empty empty empty 0 -8 0 8
-162280 -262144 -1 876 1;
#X floatatom 776 223 7 0 0 0 - - -;
#X text 760 70 Offset (ms);
#X floatatom 380 398 5 0 0 0 - - -;
#X floatatom 424 400 5 0 0 0 - - -;
#X obj 380 352 t b b;
#X text 29 281 Generate Metro ramp to Min value;
#X obj 8 301 bng 15 250 50 0 empty empty empty 17 7 0 10 -262144 -1
-1;
#X floatatom 489 407 5 0 0 0 - - -;
#X floatatom 533 409 5 0 0 0 - - -;
#X obj 489 361 t b b;
#X text 29 300 Generate Metro ramp to Max value;
#X obj 672 453 line;
#X floatatom 673 473 5 0 0 0 - - -;
#X obj 291 283 bng 15 250 50 0 empty empty empty 17 7 0 10 -262144
-1 -1;
#X floatatom 611 402 5 0 0 0 - - -;
#X floatatom 655 404 5 0 0 0 - - -;
#X obj 611 356 t b b;
#X obj 292 302 bng 15 250 50 0 empty empty empty 17 7 0 10 -262144
-1 -1;
#X floatatom 718 404 5 0 0 0 - - -;
#X floatatom 758 405 5 0 0 0 - - -;
#X obj 718 358 t b b;
#X text 32 44 Toggle Metro;
#X text 305 280 Generate Attack ramp to Min value;
#X text 305 299 Generate Attack ramp to Max value;
#X obj 497 565 bng 15 250 50 0 empty empty empty 17 7 0 10 -262144
-1 -1;
#X obj 934 458 line;
#X floatatom 935 478 5 0 0 0 - - -;
#X obj 547 282 bng 15 250 50 0 empty empty empty 17 7 0 10 -262144
-1 -1;
#X floatatom 873 407 5 0 0 0 - - -;
#X floatatom 917 409 5 0 0 0 - - -;
#X obj 873 361 t b b;
#X obj 548 301 bng 15 250 50 0 empty empty empty 17 7 0 10 -262144
-1 -1;
#X floatatom 980 409 5 0 0 0 - - -;
#X floatatom 982 404 5 0 0 0 - - -;
#X obj 980 363 t b b;
#X text 568 281 Generate Decay ramp to Min value;
#X text 568 300 Generate Decay ramp to Max value;
#X text 909 100 Every transformation is made through the "Offset" time
\, ie the parameter will reach the taget value using "Offset" milliseconds.
;
#X text 161 254 Mixing Board;
#X text 436 0 Gestion des paramètres d'évolution temporelle des sons
;
#X obj 39 586 *~ 0.5;
#X obj 8 264 bng 15 250 50 0 empty empty empty 17 7 0 10 -262144 -1
-1;
#X text 28 264 Generate Impulse;
#X text 54 224 50 Hz;
#X text 99 224 250 Hz;
#X text 248 223 3000 Hz;
#X obj 299 646 outlet~;
#X obj 76 -121 inlet;
#X obj 158 -110 inlet;
#X obj 211 -105 inlet;
#X obj 258 -100 inlet;
#X obj 323 -89 inlet;
#X obj 365 -106 inlet;
#X obj 408 -114 inlet;
#X obj 315 -172 loadbang;
#X msg 315 -148 5;
#X msg 489 -100 2500;
#X msg 353 -139 5;
#X msg 472 -151 250;
#X msg 549 -125 3000;
#X obj 702 593 outlet;
#X obj 556 491 s metro;
#X msg 391 -145 250;
#X obj 434 258 s \$0-MMin;
#X obj 481 257 s \$0-MMax;
#X obj 529 257 s \$0-MOffset;
#X obj 609 258 s \$0-AMin;
#X obj 656 257 s \$0-AMax;
#X obj 705 257 s \$0-DMin;
#X obj 752 256 s \$0-DMax;
#X obj 801 257 s \$0-EOffset;
#X obj 1021 389 r \$0-EOffset;
#X obj 977 388 r \$0-DMax;
#X obj 913 387 r \$0-EOffset;
#X obj 870 386 r \$0-DMin;
#X obj 759 384 r \$0-EOffset;
#X obj 715 383 r \$0-AMax;
#X obj 651 382 r \$0-EOffset;
#X obj 608 381 r \$0-AMin;
#X obj 529 387 r \$0-MOffset;
#X obj 486 386 r \$0-MMax;
#X obj 420 378 r \$0-MOffset;
#X obj 377 377 r \$0-MMin;
#X msg 184 -173 1;
#X obj -247 -168 inlet;
#X obj -237 -147 t b b;
#X obj -246 -94 random;
#X text 196 224 comment;
#X connect 0 0 1 0;
#X connect 0 0 9 0;
#X connect 0 0 17 0;
#X connect 1 0 2 0;
#X connect 2 0 3 0;
#X connect 3 0 4 0;
#X connect 4 0 5 0;
#X connect 5 0 6 0;
#X connect 6 0 7 0;
#X connect 7 0 8 0;
#X connect 8 0 28 0;
#X connect 9 0 10 0;
#X connect 10 0 11 0;
#X connect 11 0 12 0;
#X connect 12 0 13 0;
#X connect 13 0 14 0;
#X connect 14 0 15 0;
#X connect 15 0 16 0;
#X connect 16 0 29 0;
#X connect 17 0 18 0;
#X connect 18 0 19 0;
#X connect 19 0 20 0;
#X connect 20 0 21 0;
#X connect 21 0 22 0;
#X connect 22 0 23 0;
#X connect 23 0 24 0;
#X connect 24 0 30 0;
#X connect 25 0 28 1;
#X connect 26 0 29 1;
#X connect 27 0 30 1;
#X connect 28 0 104 0;
#X connect 29 0 104 0;
#X connect 30 0 104 0;
#X connect 31 0 32 0;
#X connect 32 0 110 0;
#X connect 33 0 88 0;
#X connect 34 0 35 0;
#X connect 35 0 33 1;
#X connect 35 0 125 0;
#X connect 36 0 33 0;
#X connect 36 0 124 0;
#X connect 37 0 68 0;
#X connect 38 0 39 0;
#X connect 39 0 127 0;
#X connect 43 0 44 0;
#X connect 44 0 128 0;
#X connect 45 0 46 0;
#X connect 46 0 129 0;
#X connect 49 0 50 0;
#X connect 50 0 130 0;
#X connect 53 0 54 0;
#X connect 54 0 131 0;
#X connect 57 0 58 0;
#X connect 58 0 132 0;
#X connect 61 0 62 0;
#X connect 62 0 133 0;
#X connect 63 0 64 0;
#X connect 64 0 134 0;
#X connect 66 0 34 0;
#X connect 67 0 34 1;
#X connect 68 0 66 0;
#X connect 68 1 67 0;
#X connect 70 0 73 0;
#X connect 71 0 34 0;
#X connect 72 0 34 1;
#X connect 73 0 71 0;
#X connect 73 1 72 0;
#X connect 75 0 76 0;
#X connect 76 0 31 1;
#X connect 77 0 80 0;
#X connect 78 0 75 0;
#X connect 79 0 75 1;
#X connect 80 0 78 0;
#X connect 80 1 79 0;
#X connect 81 0 84 0;
#X connect 82 0 75 0;
#X connect 83 0 75 1;
#X connect 84 0 82 0;
#X connect 84 1 83 0;
#X connect 88 0 31 0;
#X connect 89 0 90 0;
#X connect 90 0 31 2;
#X connect 91 0 94 0;
#X connect 92 0 89 0;
#X connect 93 0 89 1;
#X connect 94 0 92 0;
#X connect 94 1 93 0;
#X connect 95 0 98 0;
#X connect 96 0 89 0;
#X connect 97 0 89 1;
#X connect 98 0 96 0;
#X connect 98 1 97 0;
#X connect 104 0 32 1;
#X connect 105 0 88 0;
#X connect 111 0 105 0;
#X connect 112 0 37 0;
#X connect 113 0 70 0;
#X connect 114 0 77 0;
#X connect 115 0 81 0;
#X connect 116 0 91 0;
#X connect 117 0 95 0;
#X connect 118 0 147 0;
#X connect 118 0 119 0;
#X connect 118 0 126 0;
#X connect 118 0 122 0;
#X connect 118 0 121 0;
#X connect 118 0 123 0;
#X connect 118 0 120 0;
#X connect 119 0 49 0;
#X connect 119 0 57 0;
#X connect 120 0 45 0;
#X connect 121 0 38 0;
#X connect 122 0 43 0;
#X connect 123 0 63 0;
#X connect 126 0 53 0;
#X connect 126 0 61 0;
#X connect 135 0 97 0;
#X connect 136 0 96 0;
#X connect 137 0 93 0;
#X connect 138 0 92 0;
#X connect 139 0 83 0;
#X connect 140 0 82 0;
#X connect 141 0 79 0;
#X connect 142 0 78 0;
#X connect 143 0 72 0;
#X connect 144 0 71 0;
#X connect 145 0 67 0;
#X connect 146 0 66 0;
#X connect 147 0 36 0;
#X connect 147 0 27 0;
#X connect 147 0 26 0;
#X connect 147 0 25 0;
#X connect 148 0 149 0;
#X coords 0 0 1 1 835 320 0;
#X restore 89 92 graph;
#N canvas 0 22 1009 720 (subpatch) 0;
#X obj 573 608 *~;
#X obj 449 651 bp~ 440 80;
#X obj 527 651 bp~ 440 80;
#X obj 604 651 bp~ 440 80;
#X obj 682 651 bp~ 440 80;
#X obj 521 486 unpack 1 2 3 4 5;
#X msg 523 261 3454 5645 6433 6999 600;
#X text 675 262 metal;
#X text 689 286 glass 2;
#X text 728 392 wood;
#X msg 593 419 109 230 352 413 10;
#X obj 564 524 t;
#X msg 561 339 1245 1503 2131 2575 100;
#X text 717 363 plastic;
#X text 714 338 china;
#X text 701 313 glass 1;
#X text 732 415 cardboard;
#X msg 579 365 627 781 972 1184 70;
#X text 529 227 Simple material formants;
#X msg 534 286 2312 2466 3200 5314 380;
#X msg 546 313 1679 1233 4251 4640 340;
#X msg 583 392 221 333 426 527 40;
#X obj 232 464 bng 15 250 50 0 empty empty empty 20 8 0 8 -262144 -1
-1;
#X obj 8 77 bng 15 250 50 0 empty empty Metal 20 8 1 10 -262144 -1
-1;
#X obj 8 96 bng 15 250 50 0 empty empty Glass2 20 8 1 10 -262144 -1
-1;
#X obj 8 115 bng 15 250 50 0 empty empty Glass1 20 8 1 10 -262144 -1
-1;
#X msg 229 571 1;
#X msg 258 571 2;
#X msg 287 571 3;
#X obj 229 599 s state;
#X obj 233 388 bng 20 250 50 0 empty empty empty 20 8 0 8 -262144 -1
-1;
#X obj 275 385 r state;
#X obj 347 466 bng 15 250 50 0 empty empty empty 20 8 0 8 -262144 -1
-1;
#X obj 65 77 bng 15 250 50 0 empty empty China 20 8 1 10 -262144 -1
-1;
#X obj 65 97 bng 15 250 50 0 empty empty Plastic 20 8 1 10 -262144
-1 -1;
#X obj 65 115 bng 15 250 50 0 empty empty Wood 20 8 1 10 -262144 -1
-1;
#X msg 344 571 1;
#X msg 377 571 2;
#X msg 407 572 3;
#X obj 343 601 s state;
#X obj 232 483 random 100;
#X obj 232 505 moses 30;
#X obj 289 505 moses 60;
#X obj 347 484 random 100;
#X floatatom 288 409 3 0 0 0 - - -;
#X obj 231 438 sel 1 2;
#X obj 231 412 f -1;
#X obj 4 300 random 100;
#X msg 4 369 bang;
#X obj 4 236 f 0;
#X obj 50 238 + 1;
#X obj 4 257 mod 200;
#X obj 4 277 sel 29 37 47 67 89 113 157 197;
#X obj 6 3 tgl 20 0 empty empty Start/Stop 25 10 1 12 -1 -260097 -1
1 1;
#X obj 10 58 hsl 128 15 0 100 0 0 empty empty Amount -2 -6 1 10 -258699
-1 -1 12700 1;
#X text 71 162 Controle de l'articulation;
#X text 227 366 Chaine de Markov;
#X text 602 541 Enveloppe;
#X obj 632 590 noise~;
#X obj 4 346 moses;
#X obj 563 704 *~ 1.5;
#X obj 4 215 metro 15;
#X obj 347 505 moses 50;
#X obj 403 505 moses 50;
#X obj 561 746 outlet~;
#X floatatom 7 27 5 0 0 1 Attack - -;
#X floatatom 77 28 5 0 0 1 Decay - -;
#X obj 260 3 inlet;
#X obj 307 5 inlet;
#X obj 162 1 inlet;
#X obj 216 5 inlet;
#X obj 365 5 inlet;
#X obj 412 7 inlet;
#X obj 572 565 ead~ 1000 1200;
#X obj -78 29 loadbang;
#X msg -84 57 10;
#X msg -73 84 100;
#X msg -63 109 1;
#X connect 0 0 1 0;
#X connect 0 0 2 0;
#X connect 0 0 3 0;
#X connect 0 0 4 0;
#X connect 1 0 60 0;
#X connect 2 0 60 0;
#X connect 3 0 60 0;
#X connect 4 0 60 0;
#X connect 5 0 1 1;
#X connect 5 1 2 1;
#X connect 5 2 3 1;
#X connect 5 3 4 1;
#X connect 5 4 11 0;
#X connect 5 4 1 2;
#X connect 5 4 2 2;
#X connect 5 4 3 2;
#X connect 5 4 4 2;
#X connect 6 0 5 0;
#X connect 10 0 5 0;
#X connect 11 0 73 0;
#X connect 11 1 73 0;
#X connect 12 0 5 0;
#X connect 17 0 5 0;
#X connect 19 0 5 0;
#X connect 20 0 5 0;
#X connect 21 0 5 0;
#X connect 22 0 40 0;
#X connect 23 0 26 0;
#X connect 23 0 6 0;
#X connect 24 0 27 0;
#X connect 24 0 19 0;
#X connect 25 0 28 0;
#X connect 25 0 12 0;
#X connect 25 0 20 0;
#X connect 26 0 29 0;
#X connect 27 0 29 0;
#X connect 28 0 29 0;
#X connect 30 0 46 0;
#X connect 31 0 44 0;
#X connect 31 0 46 1;
#X connect 32 0 43 0;
#X connect 33 0 36 0;
#X connect 33 0 17 0;
#X connect 33 0 12 0;
#X connect 34 0 37 0;
#X connect 34 0 17 0;
#X connect 35 0 38 0;
#X connect 35 0 21 0;
#X connect 36 0 39 0;
#X connect 37 0 39 0;
#X connect 37 0 21 0;
#X connect 38 0 39 0;
#X connect 38 0 10 0;
#X connect 40 0 41 0;
#X connect 41 0 23 0;
#X connect 41 0 26 0;
#X connect 41 1 42 0;
#X connect 42 0 24 0;
#X connect 42 0 27 0;
#X connect 42 1 25 0;
#X connect 42 1 28 0;
#X connect 43 0 62 0;
#X connect 45 0 22 0;
#X connect 45 1 22 0;
#X connect 45 2 32 0;
#X connect 46 0 45 0;
#X connect 47 0 59 0;
#X connect 48 0 30 0;
#X connect 49 0 50 0;
#X connect 49 0 51 0;
#X connect 50 0 49 1;
#X connect 51 0 52 0;
#X connect 52 0 47 0;
#X connect 52 1 47 0;
#X connect 52 2 47 0;
#X connect 52 3 47 0;
#X connect 52 4 47 0;
#X connect 52 5 47 0;
#X connect 52 6 47 0;
#X connect 52 7 47 0;
#X connect 53 0 61 0;
#X connect 54 0 59 1;
#X connect 58 0 0 0;
#X connect 59 0 48 0;
#X connect 60 0 64 0;
#X connect 61 0 49 0;
#X connect 62 0 33 0;
#X connect 62 0 36 0;
#X connect 62 1 63 0;
#X connect 63 0 34 0;
#X connect 63 0 37 0;
#X connect 63 1 35 0;
#X connect 63 1 38 0;
#X connect 65 0 73 1;
#X connect 66 0 73 2;
#X connect 67 0 24 0;
#X connect 68 0 34 0;
#X connect 69 0 23 0;
#X connect 70 0 33 0;
#X connect 71 0 25 0;
#X connect 72 0 35 0;
#X connect 73 0 0 1;
#X connect 74 0 75 0;
#X connect 74 0 76 0;
#X connect 74 0 77 0;
#X connect 75 0 65 0;
#X connect 75 0 66 0;
#X connect 76 0 54 0;
#X connect 77 0 53 0;
#X coords 0 0 1 1 150 135 0;
#X restore 542 66 graph;
#N canvas 0 22 450 300 (subpatch) 0;
#X obj 1 0 cnv 15 140 60 empty empty empty 20 12 0 14 -1 -66577 0;
#X obj 5 5 cnv 15 130 50 empty empty empty 20 12 0 14 -203904 -66577
0;
#X msg 14 379 bang;
#X obj 13 19 tgl 18 0 empty empty Start/Stop -4 -6 1 11 -1 -260097
-1 1 1;
#X obj 14 225 metro 15;
#X obj 28 454 outlet;
#X floatatom 71 20 5 0 0 2 Metro - -;
#X obj 169 31 r metro;
#X obj 287 17 inlet;
#X connect 2 0 5 0;
#X connect 3 0 4 0;
#X connect 4 0 2 0;
#X connect 6 0 4 1;
#X connect 7 0 6 0;
#X connect 8 0 3 0;
#X coords 0 0 1 1 140 60 0;
#X restore 290 174 graph;
#X obj 256 213 *~ 1;
#N canvas 0 22 450 300 (subpatch) 0;
#X obj 7 3 hsl 128 20 0 1 0 1 empty empty pan_position 6 10 1 11 -262131
-1 -1 0 0;
#X obj -93 89 equal_power_pan~;
#X obj -25 -52 t b b;
#X obj 22 -52 t b b;
#X msg -25 -28 0;
#X msg 21 -26 1;
#X obj -23 -123 f 0;
#X obj 14 -123 + 1;
#X text 44 -148 inlet bang;
#X text -123 44 inlet audio;
#X obj -93 112 outlet~;
#X obj 15 112 outlet~;
#X obj -93 65 inlet~;
#X obj -25 -77 sel 0 1;
#X obj -24 -99 mod 2;
#X obj -24 -148 inlet;
#X connect 0 0 1 1;
#X connect 1 0 10 0;
#X connect 1 1 11 0;
#X connect 2 1 4 0;
#X connect 3 1 5 0;
#X connect 4 0 0 0;
#X connect 5 0 0 0;
#X connect 6 0 7 0;
#X connect 6 0 14 0;
#X connect 7 0 6 1;
#X connect 12 0 1 0;
#X connect 13 0 2 0;
#X connect 13 1 3 0;
#X connect 14 0 13 0;
#X connect 15 0 6 0;
#X coords 0 0 1 1 140 25 0;
#X restore 256 234 graph;
#X obj 333 -42 select 36 37 38 39 40 41 42 43;
#X obj 329 -141 metro 500;
#X obj 329 -90 random 7;
#X obj 305 -165 tgl 15 0 empty empty empty 17 7 0 10 -262144 -1 -1
1 1;
#X obj 329 -68 + 37;
#X obj 205 -71 bng 15 250 50 0 empty empty empty 17 7 0 10 -262144
-1 -1;
#N canvas 0 22 450 300 (subpatch) 0;
#X obj 7 3 hsl 128 20 0 1 0 1 empty empty pan_position 6 10 1 11 -262131
-1 -1 0 0;
#X obj -93 89 equal_power_pan~;
#X obj -25 -52 t b b;
#X obj 22 -52 t b b;
#X msg -25 -28 0;
#X msg 21 -26 1;
#X obj -23 -123 f 0;
#X obj 14 -123 + 1;
#X text 44 -148 inlet bang;
#X text -123 44 inlet audio;
#X obj -93 112 outlet~;
#X obj 15 112 outlet~;
#X obj -93 65 inlet~;
#X obj -25 -77 sel 0 1;
#X obj -24 -99 mod 2;
#X obj -24 -148 inlet;
#X connect 0 0 1 1;
#X connect 1 0 10 0;
#X connect 1 1 11 0;
#X connect 2 1 4 0;
#X connect 3 1 5 0;
#X connect 4 0 0 0;
#X connect 5 0 0 0;
#X connect 6 0 7 0;
#X connect 6 0 14 0;
#X connect 7 0 6 1;
#X connect 12 0 1 0;
#X connect 13 0 2 0;
#X connect 13 1 3 0;
#X connect 14 0 13 0;
#X connect 15 0 6 0;
#X coords 0 0 1 1 140 25 0;
#X restore 376 257 graph;
#X obj 557 216 *~ 1.5;
#X obj 53 -155 loadbang;
#X msg 54 -130 1;
#X obj 375 364 switch~;
#X obj 375 336 patchComs;
#X obj 426 312 *~ 0.5;
#X obj 375 313 *~ 0.5;
#X connect 0 0 3 0;
#X connect 0 1 2 0;
#X connect 1 0 12 0;
#X connect 2 0 4 1;
#X connect 2 0 11 1;
#X connect 3 0 4 0;
#X connect 4 0 18 0;
#X connect 4 1 17 0;
#X connect 5 0 0 1;
#X connect 5 1 0 3;
#X connect 5 2 0 5;
#X connect 5 2 1 0;
#X connect 5 3 0 7;
#X connect 5 3 1 1;
#X connect 5 4 1 2;
#X connect 5 5 0 2;
#X connect 5 5 1 3;
#X connect 5 6 0 4;
#X connect 5 6 1 4;
#X connect 5 7 0 6;
#X connect 5 7 1 5;
#X connect 6 0 7 0;
#X connect 6 0 10 0;
#X connect 7 0 9 0;
#X connect 8 0 6 0;
#X connect 9 0 5 0;
#X connect 11 0 17 0;
#X connect 11 1 18 0;
#X connect 12 0 11 0;
#X connect 13 0 14 0;
#X connect 14 0 8 0;
#X connect 16 0 15 0;
#X connect 17 0 16 1;
#X connect 18 0 16 0;
