#N canvas 48 92 481 416 10;
#X obj 177 220 clip~ -0.2 0.2;
#X obj 177 150 *~ 22;
#X obj 175 171 phasor~ 22;
#X obj 188 8 loadbang;
#X obj 341 158 mtof;
#X obj 153 382 outlet~;
#X obj 241 52 random 20000;
#X obj 175 105 sig~ 0.1;
#X obj 175 192 *~ 1;
#X obj 186 262 vcf~ 55;
#X obj 248 380 outlet~;
#X obj 281 267 env~ 64;
#X obj 244 352 *~;
#X obj 280 293 * 0.1;
#X obj 269 86 random 42;
#X obj 336 289 random 2;
#X obj 293 322 spigot;
#X obj 344 313 * -1;
#X obj 344 335 + 1;
#X obj 52 355 *~;
#X obj 114 282 random 2;
#X obj 71 315 spigot;
#X obj 122 306 * -1;
#X obj 122 328 + 1;
#X obj 147 228 bng 15 250 50 0 empty empty empty 17 7 0 10 -262144
-1 -1;
#X obj 170 286 clip~ -0.1 0.1;
#X obj 252 22 metro 100;
#X obj 175 125 osc~;
#X obj 326 49 sel 1;
#X obj 314 27 > 19500;
#X obj 247 140 snapshot~;
#X obj 288 223 bng 15 250 50 0 empty empty empty 17 7 0 10 -262144
-1 -1;
#X obj 261 120 metro 1;
#X obj 267 201 change;
#X obj 256 181 sel 1;
#X obj 251 163 > 0.95;
#X obj 340 183 sig~;
#X obj 394 214 line;
#X obj 394 235 + 55;
#X obj 188 359 *~ 0;
#X obj 337 86 random 9;
#X msg 394 194 5 \, 0 1000;
#X obj 175 84 * 1e-06;
#X obj 342 134 minerzzz;
#X connect 0 0 9 0;
#X connect 1 0 2 0;
#X connect 2 0 8 0;
#X connect 2 0 11 0;
#X connect 2 0 30 0;
#X connect 3 0 14 0;
#X connect 3 0 24 0;
#X connect 3 0 26 0;
#X connect 3 0 32 0;
#X connect 3 0 40 0;
#X connect 3 0 43 0;
#X connect 4 0 36 0;
#X connect 6 0 29 0;
#X connect 6 0 42 0;
#X connect 7 0 27 0;
#X connect 8 0 0 0;
#X connect 9 0 25 0;
#X connect 11 0 13 0;
#X connect 12 0 10 0;
#X connect 13 0 16 0;
#X connect 13 0 21 0;
#X connect 14 0 1 1;
#X connect 15 0 16 1;
#X connect 15 0 17 0;
#X connect 16 0 12 1;
#X connect 17 0 18 0;
#X connect 18 0 12 1;
#X connect 19 0 5 0;
#X connect 20 0 21 1;
#X connect 20 0 22 0;
#X connect 21 0 19 1;
#X connect 22 0 23 0;
#X connect 23 0 19 1;
#X connect 24 0 20 0;
#X connect 24 0 15 0;
#X connect 25 0 39 0;
#X connect 26 0 6 0;
#X connect 27 0 1 0;
#X connect 28 0 14 0;
#X connect 28 0 40 0;
#X connect 28 0 43 0;
#X connect 29 0 28 0;
#X connect 30 0 35 0;
#X connect 31 0 41 0;
#X connect 32 0 30 0;
#X connect 33 0 31 0;
#X connect 34 0 33 0;
#X connect 35 0 34 0;
#X connect 36 0 9 1;
#X connect 37 0 38 0;
#X connect 38 0 9 2;
#X connect 39 0 12 0;
#X connect 39 0 19 0;
#X connect 40 0 39 1;
#X connect 41 0 37 0;
#X connect 42 0 7 0;
#X connect 43 0 4 0;
