#N canvas 69 38 413 608 10;
#X obj 29 66 throw~ \$0-ballsdrop;
#X obj 39 85 throw~ \$0-ballsdropped;
#X obj 150 34 throw~ \$0-ballsdrop;
#X obj 160 53 throw~ \$0-ballsdropped;
#N canvas 353 52 986 609 fft 0;
#X obj 18 500 *~;
#X obj 291 455 *~;
#X obj 258 454 *~;
#X obj 356 456 *~;
#X obj 324 455 *~;
#X obj 324 477 +~;
#X obj 258 479 -~;
#X obj 560 383 *~;
#X obj 54 124 *~;
#X obj 22 124 *~;
#X obj 22 145 +~;
#X obj 325 82 *~;
#X obj 293 82 *~;
#X obj 608 312 *~;
#X obj 576 312 *~;
#X obj 93 63 *~;
#X obj 18 522 outlet~;
#X obj 18 475 *~;
#X obj 126 63 inlet~;
#X obj 93 84 rfft~;
#X obj 18 451 rifft~;
#X obj 576 334 rsqrt~;
#X obj 293 103 +~;
#X obj 484 383 *~;
#X obj 56 499 sig~ 0.0002;
#N canvas 167 161 699 396 decision 0;
#X obj 49 101 inlet~;
#X obj 50 341 outlet~;
#X obj 50 183 -~;
#X obj 50 226 clip~ 0 1;
#X obj 50 204 *~ 1e+20;
#X obj 196 98 inlet~;
#X text 137 213 stronger than;
#X text 139 228 old one;
#X obj 274 202 -~;
#X obj 288 177 lrshift~ 1;
#X obj 274 250 clip~ 0 1;
#X obj 274 228 *~ 1e+20;
#X obj 450 202 -~;
#X obj 450 250 clip~ 0 1;
#X obj 450 228 *~ 1e+20;
#X obj 464 177 lrshift~ -1;
#X obj 50 283 *~;
#X obj 50 312 *~;
#X text 135 199 1 if new signal;
#X text 55 73 new;
#X text 203 70 old;
#X text 51 12 Choose whether to replace the "lod" signal with the "new"
one. The "new" one must be stronger than the old one and also must
be stronger than its two neighboring channels;
#X text 267 283 1 if we're louder than neighbor;
#X connect 0 0 2 0;
#X connect 0 0 9 0;
#X connect 0 0 8 0;
#X connect 0 0 12 0;
#X connect 0 0 15 0;
#X connect 2 0 4 0;
#X connect 3 0 16 0;
#X connect 4 0 3 0;
#X connect 5 0 2 1;
#X connect 8 0 11 0;
#X connect 9 0 8 1;
#X connect 10 0 16 1;
#X connect 11 0 10 0;
#X connect 12 0 14 0;
#X connect 13 0 17 1;
#X connect 14 0 13 0;
#X connect 15 0 12 1;
#X connect 16 0 17 0;
#X connect 17 0 1 0;
#X restore 23 172 pd decision;
#X obj 576 356 *~;
#N canvas 276 481 755 363 divide-by-prev 0;
#X obj 283 99 inlet~;
#X obj 385 101 inlet~;
#X obj 284 249 outlet~;
#X obj 386 249 outlet~;
#X obj 107 251 outlet~;
#X obj 208 253 outlet~;
#X obj 250 180 *~;
#X obj 217 180 *~;
#X obj 182 181 *~;
#X obj 149 181 *~;
#X obj 149 203 +~;
#X obj 217 202 -~;
#X obj 92 49 tabreceive~ \$0-last-real;
#X obj 190 72 tabreceive~ \$0-last-imag;
#X connect 0 0 2 0;
#X connect 0 0 9 0;
#X connect 0 0 6 0;
#X connect 1 0 3 0;
#X connect 1 0 8 0;
#X connect 1 0 7 0;
#X connect 6 0 11 1;
#X connect 7 0 11 0;
#X connect 8 0 10 1;
#X connect 9 0 10 0;
#X connect 10 0 4 0;
#X connect 11 0 5 0;
#X connect 12 0 9 1;
#X connect 12 0 7 1;
#X connect 13 0 8 1;
#X connect 13 0 6 1;
#X restore 603 192 pd divide-by-prev;
#N canvas 650 183 602 327 switch 0;
#X obj 19 163 inlet~;
#X obj 107 99 inlet~;
#X obj 169 100 inlet~;
#X obj 273 97 inlet~;
#X obj 333 97 inlet~;
#X obj 367 185 -~;
#X obj 338 231 +~;
#X obj 372 229 *~;
#X obj 250 182 -~;
#X obj 220 228 +~;
#X obj 254 228 *~;
#X obj 219 278 outlet~;
#X obj 338 274 outlet~;
#X text 46 28 switch between two pairs of inputs. If first inlet is
one \, take the left-hand pair \, otherwise the right-hand one.;
#X text 15 140 switch;
#X text 92 76 pass this if one;
#X text 269 77 pass this if zero;
#X connect 0 0 10 1;
#X connect 0 0 7 1;
#X connect 1 0 8 0;
#X connect 2 0 5 0;
#X connect 3 0 9 0;
#X connect 3 0 8 1;
#X connect 4 0 6 0;
#X connect 4 0 5 1;
#X connect 5 0 7 0;
#X connect 6 0 12 0;
#X connect 7 0 6 1;
#X connect 8 0 10 0;
#X connect 9 0 11 0;
#X connect 10 0 9 1;
#X restore 327 275 pd switch;
#N canvas 650 183 602 327 switch 0;
#X obj 19 163 inlet~;
#X obj 107 99 inlet~;
#X obj 169 100 inlet~;
#X obj 273 97 inlet~;
#X obj 333 97 inlet~;
#X obj 367 185 -~;
#X obj 338 231 +~;
#X obj 372 229 *~;
#X obj 250 182 -~;
#X obj 220 228 +~;
#X obj 254 228 *~;
#X obj 219 278 outlet~;
#X obj 338 274 outlet~;
#X text 46 28 switch between two pairs of inputs. If first inlet is
one \, take the left-hand pair \, otherwise the right-hand one.;
#X text 15 140 switch;
#X text 92 76 pass this if one;
#X text 269 77 pass this if zero;
#X connect 0 0 10 1;
#X connect 0 0 7 1;
#X connect 1 0 8 0;
#X connect 2 0 5 0;
#X connect 3 0 9 0;
#X connect 3 0 8 1;
#X connect 4 0 6 0;
#X connect 4 0 5 1;
#X connect 5 0 7 0;
#X connect 6 0 12 0;
#X connect 7 0 6 1;
#X connect 8 0 10 0;
#X connect 9 0 11 0;
#X connect 10 0 9 1;
#X restore 484 266 pd switch;
#X obj 54 476 tabreceive~ \$0-hann;
#X obj 94 35 tabreceive~ \$0-hann;
#X obj 505 112 tabreceive~ \$0-inc-real;
#X obj 587 134 tabreceive~ \$0-inc-imag;
#X obj 752 220 tabsend~ \$0-last-imag;
#X obj 702 243 tabsend~ \$0-last-real;
#X obj 559 426 tabsend~ \$0-inc-imag;
#X obj 484 449 tabsend~ \$0-inc-real;
#X obj 655 341 expr 1 - 0.2/max(0.2 \, $f1);
#X text 20 206 choose whether to;
#X text 18 224 punch in new (amplitude \,;
#X text 16 243 increment) pair;
#X obj 367 26 tabreceive~ \$0-amp-real;
#X obj 443 50 tabreceive~ \$0-amp-imag;
#X obj 325 537 tabsend~ \$0-amp-imag;
#X obj 258 560 tabsend~ \$0-amp-real;
#X text 361 6 previous output amplitude \, encoding both magnitude
and phase;
#X text 453 87 previous phase increment (unit-magnitude complex number)
;
#X obj 506 134 +~ 1e-15;
#X obj 366 50 +~ 1e-15;
#X text 363 482 propagate amplitudes by multiplying in the;
#X text 361 499 increments \, which advance the phase and drop;
#X text 365 514 magnitude according to revtime.;
#X text 608 370 normalize increments between 0 and;
#X text 606 388 1 according to revtime.;
#X text 78 453 IFFT and output;
#X obj 655 270 r \$0-revtime1;
#X obj 800 455 block~ 4096 4;
#X connect 0 0 16 0;
#X connect 1 0 6 1;
#X connect 2 0 6 0;
#X connect 3 0 5 1;
#X connect 4 0 5 0;
#X connect 5 0 44 0;
#X connect 6 0 45 0;
#X connect 7 0 1 0;
#X connect 7 0 3 0;
#X connect 7 0 36 0;
#X connect 8 0 10 1;
#X connect 9 0 10 0;
#X connect 10 0 25 0;
#X connect 11 0 22 1;
#X connect 12 0 22 0;
#X connect 13 0 21 0;
#X connect 14 0 21 0;
#X connect 15 0 19 0;
#X connect 17 0 0 0;
#X connect 18 0 15 1;
#X connect 19 0 9 0;
#X connect 19 0 9 1;
#X connect 19 0 27 0;
#X connect 19 0 28 1;
#X connect 19 1 8 0;
#X connect 19 1 8 1;
#X connect 19 1 27 1;
#X connect 19 1 28 2;
#X connect 20 0 17 0;
#X connect 21 0 26 0;
#X connect 22 0 25 1;
#X connect 23 0 2 0;
#X connect 23 0 4 0;
#X connect 23 0 37 0;
#X connect 24 0 0 1;
#X connect 25 0 28 0;
#X connect 25 0 29 0;
#X connect 26 0 23 1;
#X connect 26 0 7 1;
#X connect 27 0 29 1;
#X connect 27 1 29 2;
#X connect 27 2 35 0;
#X connect 27 3 34 0;
#X connect 28 0 20 0;
#X connect 28 0 3 1;
#X connect 28 0 2 1;
#X connect 28 1 20 1;
#X connect 28 1 1 1;
#X connect 28 1 4 1;
#X connect 29 0 14 0;
#X connect 29 0 14 1;
#X connect 29 0 23 0;
#X connect 29 1 13 0;
#X connect 29 1 13 1;
#X connect 29 1 7 0;
#X connect 30 0 17 1;
#X connect 31 0 15 0;
#X connect 32 0 48 0;
#X connect 33 0 29 4;
#X connect 38 0 26 1;
#X connect 42 0 49 0;
#X connect 43 0 11 0;
#X connect 43 0 11 1;
#X connect 43 0 28 4;
#X connect 48 0 29 3;
#X connect 49 0 12 0;
#X connect 49 0 12 1;
#X connect 49 0 28 3;
#X connect 56 0 38 0;
#X restore 125 198 pd fft;
#X obj 248 408 hip~ 30;
#X obj 84 421 hip~ 30;
#X obj 77 265 lop~ 2000;
#X obj 67 328 osc~ 0.01111;
#X obj 67 347 +~ 1;
#X obj 68 368 *~ 500;
#X obj 68 387 vd~ \$0-horrid 1000;
#X obj 77 303 delwrite~ \$0-horrid 1000;
#N canvas 90 101 565 454 hann-window 0;
#N canvas 0 22 450 300 (subpatch) 0;
#X array \$0-hann 4096 float 0;
#X coords 0 1 4095 0 300 100 1;
#X restore 82 311 graph;
#X obj 378 165 osc~;
#X obj 378 190 *~ -0.5;
#X obj 378 214 +~ 0.5;
#X obj 331 247 tabwrite~ \$0-hann;
#X obj 38 173 /;
#X obj 127 142 samplerate~;
#X obj 177 204 swap;
#X obj 177 228 /;
#X obj 49 201 * 1000;
#X obj 38 115 t f b f;
#X msg 173 92 resize \$1;
#X obj 173 116 s \$0-hann;
#X msg 382 130 0;
#X obj 330 131 t f b;
#X text 15 8 calculate Hann window table (variable window size) and
constants window-hz (fundamental frequency of analysis) \, window-sec
and window-msec (analysis window size in seconds and msec).;
#X obj 49 228 s \$0-window-msec;
#X obj 38 251 s \$0-window-sec;
#X obj 177 252 s \$0-window-hz;
#X obj 330 105 r \$0-window-hz;
#X obj 38 93 4096;
#X obj 38 71 loadbang;
#X connect 1 0 2 0;
#X connect 2 0 3 0;
#X connect 3 0 4 0;
#X connect 5 0 9 0;
#X connect 5 0 17 0;
#X connect 6 0 5 1;
#X connect 6 0 7 1;
#X connect 7 0 8 0;
#X connect 7 1 8 1;
#X connect 8 0 18 0;
#X connect 9 0 16 0;
#X connect 10 0 5 0;
#X connect 10 0 7 0;
#X connect 10 1 6 0;
#X connect 10 2 11 0;
#X connect 11 0 12 0;
#X connect 13 0 1 1;
#X connect 14 0 1 0;
#X connect 14 1 4 0;
#X connect 14 1 13 0;
#X connect 19 0 14 0;
#X connect 20 0 10 0;
#X connect 21 0 20 0;
#X restore 19 216 pd hann-window;
#N canvas 52 71 774 520 tables 0;
#N canvas 0 22 450 300 (subpatch) 0;
#X array \$0-last-real 2048 float 0;
#X coords 0 500 2048 -500 200 150 1;
#X restore 103 15 graph;
#N canvas 0 22 450 300 (subpatch) 0;
#X array \$0-last-imag 2048 float 0;
#X coords 0 500 2048 500 200 150 1;
#X restore 497 6 graph;
#N canvas 0 22 450 300 (subpatch) 0;
#X array \$0-amp-real 2048 float 0;
#X coords 0 500 2048 -500 200 150 1;
#X restore 105 185 graph;
#N canvas 0 22 450 300 (subpatch) 0;
#X array \$0-amp-imag 2048 float 0;
#X coords 0 500 2048 -500 200 150 1;
#X restore 501 178 graph;
#N canvas 0 22 450 300 (subpatch) 0;
#X array \$0-inc-real 2048 float 0;
#X coords 0 1 2048 -1 200 150 1;
#X restore 105 357 graph;
#N canvas 0 22 450 300 (subpatch) 0;
#X array \$0-inc-imag 2048 float 0;
#X coords 0 1 2048 -1 200 150 1;
#X restore 503 342 graph;
#X restore 19 237 pd tables;
#N canvas 0 22 395 356 metrovar 0;
#X floatatom 66 225 0 0 1000 0 - - -;
#X text 113 228 reverb time;
#X floatatom 193 187 0 0 1000 0 - - -;
#X text 241 190 reverb time;
#X obj 195 -9 metro 10;
#X obj 195 -28 tgl 15 0 empty empty empty 17 7 0 10 -262144 -1 -1 1
1;
#X obj 194 61 random 10000;
#X obj 202 103 osc~;
#X obj 194 125 snapshot~;
#X obj 193 145 abs;
#X obj 194 81 * 1e-05;
#X obj 111 61 random 10000;
#X obj 119 103 osc~;
#X obj 111 125 snapshot~;
#X obj 110 145 abs;
#X obj 111 81 * 1e-06;
#X obj 279 58 random 10000;
#X obj 287 100 osc~;
#X obj 279 122 snapshot~;
#X obj 278 142 abs;
#X obj 279 78 * 1e-05;
#X obj 29 62 random 10000;
#X obj 37 104 osc~;
#X obj 29 126 snapshot~;
#X obj 28 146 abs;
#X obj 29 82 * 1e-05;
#X obj 195 -51 loadbang;
#X obj 193 211 s \$0-revtime2;
#X obj 66 249 s \$0-revtime1;
#X obj 278 162 * 5;
#X obj 193 165 * 5;
#X obj 28 166 * 5;
#X obj 66 206 * 5;
#X msg 268 -27 \; pd dsp 1;
#X connect 0 0 28 0;
#X connect 2 0 27 0;
#X connect 4 0 6 0;
#X connect 4 0 8 0;
#X connect 4 0 11 0;
#X connect 4 0 13 0;
#X connect 4 0 16 0;
#X connect 4 0 18 0;
#X connect 4 0 21 0;
#X connect 4 0 23 0;
#X connect 5 0 4 0;
#X connect 6 0 10 0;
#X connect 7 0 8 0;
#X connect 8 0 9 0;
#X connect 9 0 30 0;
#X connect 10 0 7 0;
#X connect 11 0 15 0;
#X connect 12 0 13 0;
#X connect 13 0 14 0;
#X connect 14 0 32 0;
#X connect 15 0 12 0;
#X connect 16 0 20 0;
#X connect 17 0 18 0;
#X connect 18 0 19 0;
#X connect 19 0 29 0;
#X connect 20 0 17 0;
#X connect 21 0 25 0;
#X connect 22 0 23 0;
#X connect 23 0 24 0;
#X connect 24 0 31 0;
#X connect 25 0 22 0;
#X connect 26 0 5 0;
#X connect 26 0 33 0;
#X connect 29 0 30 1;
#X connect 30 0 2 0;
#X connect 31 0 32 1;
#X connect 32 0 0 0;
#X restore 19 197 pd metrovar;
#X obj 8 134 catch~ \$0-ballsdrop;
#X obj 168 147 catch~ \$0-ballsdropped;
#X obj 246 346 +~ 1;
#X obj 247 386 vd~ \$0-horrid 1000;
#X obj 246 327 osc~ 0.022222;
#X obj 188 328 *~ 0.13;
#X obj 181 95 throw~ \$0-ballsdrop;
#X obj 191 114 throw~ \$0-ballsdropped;
#X obj 247 367 *~ 400;
#X obj 231 194 osc~ 0.01;
#X obj 222 237 *~ 20000;
#X obj 221 259 snapshot~;
#X obj 282 237 bang~;
#X obj 228 214 abs~;
#X obj 282 259 > 19990;
#X obj 291 303 sel 1;
#X obj 290 281 change;
#X obj 296 169 random 10000;
#X obj 298 194 * 0.001;
#X obj 339 302 random 600;
#X obj 332 283 random 500;
#X obj 77 284 *~ 2;
#X obj 181 73 ball;
#X obj 167 168 *~ 5;
#X obj 10 162 *~ 3;
#X obj 27 536 *~;
#X obj 195 521 *~;
#X obj 115 584 dac~;
#N canvas 0 22 466 504 rasclat 0;
#X obj 110 213 *~ 22;
#X obj 108 234 phasor~ 22;
#X obj 126 39 loadbang;
#X obj 174 115 random 20000;
#X obj 108 168 sig~ 0.1;
#X obj 202 149 random 42;
#X obj 185 85 metro 100;
#X obj 108 188 osc~;
#X obj 259 112 sel 1;
#X obj 247 90 > 19500;
#X obj 108 147 * 1e-06;
#X obj 122 391 outlet~;
#X obj 210 227 osc~ 0.001;
#X obj 210 250 abs~;
#X obj 165 291 +~;
#X obj 158 321 clip~ 0 1;
#X obj 210 187 random 20000;
#X obj 211 206 * 1e-06;
#X obj 108 253 *~ -1;
#X obj 108 273 +~ 1;
#X connect 0 0 1 0;
#X connect 1 0 18 0;
#X connect 2 0 5 0;
#X connect 2 0 6 0;
#X connect 3 0 9 0;
#X connect 3 0 10 0;
#X connect 4 0 7 0;
#X connect 5 0 0 1;
#X connect 6 0 3 0;
#X connect 7 0 0 0;
#X connect 8 0 5 0;
#X connect 8 0 16 0;
#X connect 9 0 8 0;
#X connect 10 0 4 0;
#X connect 12 0 13 0;
#X connect 13 0 14 1;
#X connect 14 0 15 0;
#X connect 15 0 11 0;
#X connect 16 0 17 0;
#X connect 17 0 12 0;
#X connect 18 0 19 0;
#X connect 19 0 14 0;
#X restore 211 497 pd rasclat;
#X obj 29 44 ball;
#X obj 150 12 ball;
#N canvas 0 22 466 504 rasclat 0;
#X obj 110 213 *~ 22;
#X obj 108 234 phasor~ 22;
#X obj 126 39 loadbang;
#X obj 174 115 random 20000;
#X obj 108 168 sig~ 0.1;
#X obj 202 149 random 42;
#X obj 185 85 metro 100;
#X obj 108 188 osc~;
#X obj 259 112 sel 1;
#X obj 247 90 > 19500;
#X obj 108 147 * 1e-06;
#X obj 122 391 outlet~;
#X obj 210 227 osc~ 0.001;
#X obj 210 250 abs~;
#X obj 165 291 +~;
#X obj 158 321 clip~ 0 1;
#X obj 210 187 random 20000;
#X obj 211 206 * 1e-06;
#X obj 108 253 *~ -1;
#X obj 112 274 +~ 1;
#X connect 0 0 1 0;
#X connect 1 0 18 0;
#X connect 2 0 5 0;
#X connect 2 0 6 0;
#X connect 3 0 9 0;
#X connect 3 0 10 0;
#X connect 4 0 7 0;
#X connect 5 0 0 1;
#X connect 6 0 3 0;
#X connect 7 0 0 0;
#X connect 8 0 5 0;
#X connect 8 0 16 0;
#X connect 9 0 8 0;
#X connect 10 0 4 0;
#X connect 12 0 13 0;
#X connect 13 0 14 1;
#X connect 14 0 15 0;
#X connect 15 0 11 0;
#X connect 16 0 17 0;
#X connect 17 0 12 0;
#X connect 18 0 19 0;
#X connect 19 0 14 0;
#X restore 33 495 pd rasclat;
#N canvas 0 22 466 504 rasclatfilt 0;
#X obj 126 39 loadbang;
#X obj 174 115 random 20000;
#X obj 185 85 metro 100;
#X obj 259 112 sel 1;
#X obj 122 391 outlet~;
#X obj 166 191 mtof;
#X obj 165 216 sig~;
#X obj 167 167 minerzzz;
#X obj 247 90 > 19000;
#X obj 41 159 inlet~;
#X obj 165 289 vcf~ 65;
#X obj 163 314 *~ 15;
#X obj 62 276 lop~ 500;
#X connect 0 0 2 0;
#X connect 0 0 7 0;
#X connect 1 0 8 0;
#X connect 2 0 1 0;
#X connect 3 0 7 0;
#X connect 5 0 6 0;
#X connect 6 0 10 1;
#X connect 7 0 5 0;
#X connect 8 0 3 0;
#X connect 9 0 10 0;
#X connect 9 0 12 0;
#X connect 10 0 11 0;
#X connect 11 0 4 0;
#X connect 12 0 4 0;
#X restore 160 555 pd rasclatfilt;
#N canvas 0 22 466 504 rasclatfilt 0;
#X obj 126 39 loadbang;
#X obj 174 115 random 20000;
#X obj 185 85 metro 100;
#X obj 259 112 sel 1;
#X obj 122 391 outlet~;
#X obj 166 191 mtof;
#X obj 165 216 sig~;
#X obj 167 167 minerzzz;
#X obj 247 90 > 19000;
#X obj 41 159 inlet~;
#X obj 165 289 vcf~ 65;
#X obj 163 314 *~ 15;
#X obj 62 276 lop~ 500;
#X connect 0 0 2 0;
#X connect 0 0 7 0;
#X connect 1 0 8 0;
#X connect 2 0 1 0;
#X connect 3 0 7 0;
#X connect 5 0 6 0;
#X connect 6 0 10 1;
#X connect 7 0 5 0;
#X connect 8 0 3 0;
#X connect 9 0 10 0;
#X connect 9 0 12 0;
#X connect 10 0 11 0;
#X connect 11 0 4 0;
#X connect 12 0 4 0;
#X restore 40 557 pd rasclatfilt;
#X connect 4 0 7 0;
#X connect 5 0 42 0;
#X connect 6 0 41 0;
#X connect 6 0 48 0;
#X connect 7 0 37 0;
#X connect 7 0 43 1;
#X connect 8 0 9 0;
#X connect 9 0 10 0;
#X connect 10 0 11 0;
#X connect 11 0 6 0;
#X connect 11 0 21 0;
#X connect 16 0 4 0;
#X connect 16 0 40 0;
#X connect 17 0 4 0;
#X connect 17 0 39 0;
#X connect 18 0 24 0;
#X connect 19 0 5 0;
#X connect 19 0 21 0;
#X connect 20 0 18 0;
#X connect 21 0 12 0;
#X connect 24 0 19 0;
#X connect 25 0 29 0;
#X connect 26 0 27 0;
#X connect 27 0 30 0;
#X connect 27 0 7 1;
#X connect 28 0 27 0;
#X connect 29 0 26 0;
#X connect 30 0 32 0;
#X connect 31 0 33 0;
#X connect 31 0 36 0;
#X connect 31 0 35 0;
#X connect 32 0 31 0;
#X connect 33 0 34 0;
#X connect 34 0 25 1;
#X connect 35 0 10 1;
#X connect 36 0 24 1;
#X connect 37 0 12 0;
#X connect 38 0 22 0;
#X connect 38 1 23 0;
#X connect 39 0 42 0;
#X connect 40 0 41 0;
#X connect 41 0 49 0;
#X connect 42 0 48 0;
#X connect 44 0 42 1;
#X connect 45 0 0 0;
#X connect 45 1 1 0;
#X connect 46 0 2 0;
#X connect 46 1 3 0;
#X connect 47 0 41 1;
#X connect 48 0 43 1;
#X connect 49 0 43 0;
