#N canvas 174 183 264 312 10;
#X obj 105 97 random 9;
#X msg 105 142 0;
#X msg 116 151 1;
#X msg 126 161 3;
#X msg 136 171 4;
#X msg 146 181 5;
#X msg 156 191 7;
#X msg 166 201 8;
#X msg 176 211 10;
#X msg 186 221 12;
#X obj 105 117 sel 0 1 3 4 5 7 9 10 12;
#X obj 29 230 + 36;
#X obj 49 159 pow;
#X obj 48 118 t b a;
#X floatatom 50 203 5 0 0 0 - - -;
#X msg 49 139 2;
#X obj 49 180 * 12;
#X obj 48 97 random 4;
#X obj 48 67 t b b;
#X floatatom 29 254 5 0 0 0 - - -;
#X obj 47 47 bng 15 250 50 0 empty empty empty 17 7 0 10 -262144 -1
-1;
#X obj 47 21 inlet;
#X obj 29 280 outlet;
#X connect 0 0 10 0;
#X connect 1 0 11 0;
#X connect 2 0 11 0;
#X connect 3 0 11 0;
#X connect 4 0 11 0;
#X connect 5 0 11 0;
#X connect 6 0 11 0;
#X connect 7 0 11 0;
#X connect 8 0 11 0;
#X connect 9 0 11 0;
#X connect 10 0 1 0;
#X connect 10 1 2 0;
#X connect 10 2 3 0;
#X connect 10 3 4 0;
#X connect 10 4 5 0;
#X connect 10 5 6 0;
#X connect 10 6 7 0;
#X connect 10 7 8 0;
#X connect 10 8 9 0;
#X connect 11 0 19 0;
#X connect 12 0 16 0;
#X connect 13 0 15 0;
#X connect 13 1 12 1;
#X connect 14 0 11 1;
#X connect 15 0 12 0;
#X connect 16 0 14 0;
#X connect 17 0 13 0;
#X connect 18 0 17 0;
#X connect 18 1 0 0;
#X connect 19 0 22 0;
#X connect 20 0 18 0;
#X connect 21 0 20 0;
