#N canvas 226 220 798 467 10;
#X obj 112 207 noise~;
#X obj 7 169 sig~ 1;
#X obj 34 198 /~;
#X obj 82 148 *~;
#X obj 82 118 *~;
#X obj 82 80 nbx 5 14 1 10 0 1 empty empty pulsewidth 0 -6 1 8 -262144
-1 -1 7.47514 256;
#X obj 82 170 +~ 1;
#X obj 58 372 +~;
#X obj 34 342 *~ 0.1;
#X obj 96 311 *~;
#X obj 168 141 +~ 200;
#X obj 168 62 cos~;
#X obj 112 236 lop~ 200;
#X obj 96 341 *~ 0.3;
#X obj 184 97 nbx 5 14 1 20 0 1 empty empty chop 0 -6 1 8 -262144 -1
-1 8.96779 256;
#X obj 168 117 *~;
#X obj 168 36 phasor~;
#X obj 168 14 nbx 5 14 1 20 0 1 empty empty speed 0 -6 1 8 -262144
-1 -1 17.9976 256;
#X obj 228 38 unsig~;
#X obj 229 58 * 9;
#X obj 239 85 unsig~;
#X obj 200 240 unsig~;
#X obj 241 108 + 1;
#X obj 201 261 + 1;
#X obj 202 285 * 9;
#X obj 168 165 vd~ \$0-a;
#X obj 58 400 delwrite~ \$0-a 2000;
#X obj 7 235 unsig~;
#X floatatom 7 268 5 0 0 0 - - -;
#N canvas 0 22 651 688 reso 0;
#X obj 130 590 outlet~;
#N canvas 0 22 466 316 rh_scalelog 0;
#X obj 20 155 exp;
#X obj 20 107 *;
#X obj 20 130 +;
#X obj 98 87 log;
#X obj 194 84 log;
#X obj 123 123 t b f;
#X obj 123 145 -;
#X obj 20 183 outlet;
#X obj 20 19 inlet;
#X obj 98 23 inlet;
#X obj 194 24 inlet;
#X connect 0 0 7 0;
#X connect 1 0 2 0;
#X connect 2 0 0 0;
#X connect 3 0 2 1;
#X connect 3 0 5 0;
#X connect 4 0 6 0;
#X connect 5 0 6 0;
#X connect 5 1 6 1;
#X connect 6 0 1 1;
#X connect 8 0 1 0;
#X connect 9 0 3 0;
#X connect 10 0 4 0;
#X restore 193 527 pd rh_scalelog;
#X msg 265 494 0.1;
#X msg 311 494 10;
#X obj 250 169 * 0.8;
#X obj 20 352 delwrite~ \$0-clockbodyl 100;
#X obj 18 276 delread~ \$0-clockbodyl 50;
#X obj 18 297 bp~ 1200 3;
#N canvas 617 566 281 202 sizescale 0;
#X obj 102 42 * 10000;
#X obj 33 66 max 1e-007;
#X obj 33 92 min 100;
#X obj 69 15 inlet;
#X obj 33 121 outlet ms;
#X obj 102 66 outlet Hz;
#X obj 26 43 expr 1/$f1;
#X connect 0 0 5 0;
#X connect 1 0 2 0;
#X connect 2 0 4 0;
#X connect 3 0 0 0;
#X connect 3 0 6 0;
#X connect 6 0 1 0;
#X restore 18 253 pd sizescale;
#X obj 223 297 bp~ 1200 3;
#X obj 223 276 delread~ \$0-clockbodyw 50;
#X obj 225 352 delwrite~ \$0-clockbodyw 100;
#N canvas 617 584 281 202 sizescale 0;
#X obj 102 42 * 10000;
#X obj 30 95 max 1e-007;
#X obj 30 121 min 100;
#X obj 69 15 inlet;
#X obj 30 150 outlet ms;
#X obj 102 66 outlet Hz;
#X obj 27 58 expr 1/$f1;
#X connect 0 0 5 0;
#X connect 1 0 2 0;
#X connect 2 0 4 0;
#X connect 3 0 0 0;
#X connect 3 0 6 0;
#X connect 6 0 1 0;
#X restore 223 254 pd sizescale;
#X obj 223 232 + 0.02;
#X obj 73 187 inlet~;
#X text 296 193 0-1 size = 10000Hz-10Hz;
#X text 119 320 damping;
#X obj 19 322 *~ 0.3;
#X obj 224 322 *~ 0.3;
#X text 72 165 body resonance;
#X obj 250 191 + 0.1;
#X obj 139 383 *~ 1;
#X obj 143 425 *~ 0.5;
#X obj 250 147 inlet;
#X obj 288 465 loadbang;
#X msg 208 481 0.6;
#X connect 1 0 21 1;
#X connect 2 0 1 1;
#X connect 3 0 1 2;
#X connect 4 0 20 0;
#X connect 6 0 7 0;
#X connect 7 0 17 0;
#X connect 7 0 21 0;
#X connect 8 0 6 0;
#X connect 8 1 7 1;
#X connect 9 0 18 0;
#X connect 9 0 21 0;
#X connect 10 0 9 0;
#X connect 12 0 10 0;
#X connect 12 1 9 1;
#X connect 13 0 12 0;
#X connect 14 0 5 0;
#X connect 14 0 11 0;
#X connect 17 0 5 0;
#X connect 17 0 9 0;
#X connect 18 0 11 0;
#X connect 20 0 8 0;
#X connect 20 0 13 0;
#X connect 21 0 22 0;
#X connect 22 0 0 0;
#X connect 23 0 4 0;
#X connect 24 0 2 0;
#X connect 24 0 3 0;
#X connect 24 0 25 0;
#X connect 25 0 1 0;
#X restore 174 186 pd reso;
#X obj 380 113 t b b;
#X obj 427 113 t b b;
#X msg 380 137 0;
#X msg 426 139 1;
#X obj 382 80 sel 0 1 2 3 4;
#X obj 256 209 equal_power_pan~;
#X obj 291 61 change;
#X obj 292 80 b;
#X obj 7 299 / 2;
#X obj 248 289 * 10000;
#X obj 382 43 random 2;
#X obj 240 129 * 9;
#X obj 326 261 patchComs;
#X obj 326 289 switch~;
#X connect 0 0 12 0;
#X connect 0 0 21 0;
#X connect 1 0 2 0;
#X connect 2 0 8 0;
#X connect 2 0 9 0;
#X connect 2 0 27 0;
#X connect 3 0 6 0;
#X connect 4 0 3 0;
#X connect 4 0 3 1;
#X connect 5 0 4 0;
#X connect 6 0 2 1;
#X connect 7 0 26 0;
#X connect 8 0 7 0;
#X connect 9 0 13 0;
#X connect 10 0 25 0;
#X connect 11 0 4 1;
#X connect 11 0 15 0;
#X connect 11 0 20 0;
#X connect 12 0 9 1;
#X connect 13 0 7 1;
#X connect 14 0 15 1;
#X connect 15 0 10 0;
#X connect 16 0 11 0;
#X connect 16 0 18 0;
#X connect 17 0 16 0;
#X connect 18 0 19 0;
#X connect 18 0 36 0;
#X connect 19 0 14 0;
#X connect 20 0 22 0;
#X connect 21 0 23 0;
#X connect 22 0 41 0;
#X connect 23 0 24 0;
#X connect 23 0 39 0;
#X connect 24 0 5 0;
#X connect 25 0 29 0;
#X connect 27 0 28 0;
#X connect 28 0 38 0;
#X connect 29 0 35 0;
#X connect 30 1 32 0;
#X connect 31 1 33 0;
#X connect 32 0 35 1;
#X connect 33 0 35 1;
#X connect 34 0 30 0;
#X connect 34 1 31 0;
#X connect 35 0 42 0;
#X connect 35 1 42 1;
#X connect 36 0 37 0;
#X connect 37 0 40 0;
#X connect 38 0 29 1;
#X connect 39 0 12 1;
#X connect 40 0 34 0;
#X connect 41 0 10 1;
#X connect 41 0 17 0;
#X connect 42 0 43 0;
